<svg xmlns="http://www.w3.org/2000/svg" width="155.555" height="142.667" viewBox="0 0 155.555 142.667">
  <g id="Grupo_30324" data-name="Grupo 30324" transform="translate(-5012.333 -1612.664)">
    <path id="Trazado_24879" data-name="Trazado 24879" d="M416.778,818H290.111V675.33H416.778l28.889,71.333Z" transform="translate(4722.222 937.333)" fill="#cc6da8"/>
    <path id="Trazado_24881" data-name="Trazado 24881" d="M381.588,772.882q-8.314,0-12.767-6.145t-4.452-18.27q0-12.159,4.436-18.271t12.783-6.111q8.313,0,12.749,6.111t4.436,18.271q0,12.126-4.452,18.27T381.588,772.882Zm0-8.543q3.679,0,5.7-3.9t2.021-11.977q0-8.083-2.038-11.978t-5.684-3.893q-7.757,0-7.755,15.871T381.588,764.339Z" transform="translate(4722.222 937.333)" fill="#fff"/>
    <path id="Trazado_24880" data-name="Trazado 24880" d="M340.052,724.742h9v47.483h-9.431V734.469l-10.909,10.153V734.9Z" transform="translate(4722.222 937.333)" fill="#fff"/>
  </g>
</svg>
