<svg xmlns="http://www.w3.org/2000/svg" width="155.555" height="142.667" viewBox="0 0 155.555 142.667">
  <g id="Grupo_30323" data-name="Grupo 30323" transform="translate(-5012.333 -1456.748)">
    <path id="Trazado_24876" data-name="Trazado 24876" d="M416.778,662.081H290.111V519.414H416.778l28.889,71.333Z" transform="translate(4722.222 937.333)" fill="#c16ccc"/>
    <path id="Trazado_24877" data-name="Trazado 24877" d="M341.4,616.967q-8.314,0-12.767-6.146t-4.452-18.269q0-12.159,4.436-18.271t12.783-6.112q8.313,0,12.749,6.112t4.436,18.271q0,12.125-4.452,18.269T341.4,616.967Zm0-8.544q3.68,0,5.7-3.894t2.021-11.977q0-8.085-2.038-11.978T341.4,576.68q-7.756,0-7.755,15.872T341.4,608.423Z" transform="translate(4722.222 937.333)" fill="#fff"/>
    <path id="Trazado_24878" data-name="Trazado 24878" d="M381.621,568.2a18.377,18.377,0,0,1,8.856,2.152,16.2,16.2,0,0,1,6.292,5.948,15.951,15.951,0,0,1,2.3,8.428,19.407,19.407,0,0,1-4.238,11.568L380.043,616.31H369.265l12.29-16.07a16.206,16.206,0,0,1-9.661-1.758,14.814,14.814,0,0,1-5.668-5.5,15.563,15.563,0,0,1-2.185-8.215,15.225,15.225,0,0,1,5.158-11.847A17.845,17.845,0,0,1,381.621,568.2Zm8.543,16.89a7.76,7.76,0,0,0-8.281-8.379,8.539,8.539,0,0,0-6.161,2.316,8,8,0,0,0-2.448,5.964,8.119,8.119,0,0,0,2.3,6.112,8.333,8.333,0,0,0,6.211,2.4,7.949,7.949,0,0,0,6.013-2.4A8.577,8.577,0,0,0,390.164,585.092Z" transform="translate(4722.222 937.333)" fill="#fff"/>
  </g>
</svg>
