<svg xmlns="http://www.w3.org/2000/svg" width="155.555" height="142.667" viewBox="0 0 155.555 142.667">
  <g id="Grupo_30321" data-name="Grupo 30321" transform="translate(-5012.333 -1144.916)">
    <path id="Trazado_24870" data-name="Trazado 24870" d="M416.778,350.249H290.111V207.583H416.778l28.889,71.333Z" transform="translate(4722.222 937.333)" fill="#7d58bd"/>
    <path id="Trazado_24871" data-name="Trazado 24871" d="M341.4,305.135q-8.314,0-12.767-6.145t-4.452-18.27q0-12.159,4.436-18.271t12.783-6.112q8.313,0,12.749,6.112t4.436,18.271q0,12.125-4.452,18.27T341.4,305.135Zm0-8.544q3.68,0,5.7-3.894t2.021-11.977q0-8.084-2.038-11.978t-5.684-3.894q-7.756,0-7.755,15.872T341.4,296.591Z" transform="translate(4722.222 937.333)" fill="#fff"/>
    <path id="Trazado_24872" data-name="Trazado 24872" d="M365.092,256.995h33.419v7.3l-21.458,40.188H366.34l21.524-39.071H365.092Z" transform="translate(4722.222 937.333)" fill="#fff"/>
  </g>
</svg>
