<svg id="_лой_1" data-name="‘лой_1" xmlns="http://www.w3.org/2000/svg" width="3000" height="1818.44" viewBox="0 0 3000 1818.44">
  <defs>
    <style>
      .cls-1 {
        fill: #ebf3fa;
      }

      .cls-2 {
        fill: #9fc1f4;
      }

      .cls-3 {
        fill: #f0f6ff;
      }

      .cls-4 {
        fill: #77a4e5;
      }

      .cls-5 {
        fill: #afcdfb;
      }

      .cls-6 {
        fill: #ffa561;
      }

      .cls-7 {
        fill: #f9ddbf;
      }

      .cls-8 {
        fill: #c2dbff;
      }

      .cls-9 {
        fill: #dde7fe;
      }

      .cls-10 {
        fill: #cc6a27;
      }

      .cls-11 {
        fill: #f99746;
      }

      .cls-12 {
        fill: #aec3ff;
      }

      .cls-13 {
        fill: #163560;
      }

      .cls-14 {
        fill: #8c9df4;
      }

      .cls-15 {
        fill: #667cd8;
      }

      .cls-16 {
        fill: #fff;
      }

      .cls-17 {
        fill: #e58848;
      }

      .cls-18 {
        fill: #707fe5;
      }

      .cls-19 {
        fill: #2e3552;
      }

      .cls-20 {
        fill: #bed1f4;
      }

      .cls-21 {
        fill: #ffb27d;
      }

      .cls-22 {
        fill: #325284;
      }

      .cls-23 {
        fill: #ea8b49;
      }

      .cls-24 {
        fill: #233862;
      }

      .cls-25 {
        fill: #e8945b;
      }

      .cls-26 {
        fill: #0c2442;
      }

      .cls-27 {
        fill: #6385db;
      }
    </style>
  </defs>
  <g>
    <path class="cls-1" d="M2702.87,1734H390.72S77,1426.72,276.61,1065.14,744.19,885.4,731.21,464.57s616.41-457,816.75-335,199.13,269,612.7,220.36,492.58,356.73,385,563.31a260.09,260.09,0,0,0-19.33,47.08C2455.77,1202.89,3005.59,1235.21,2702.87,1734Z"/>
    <g>
      <rect class="cls-2" x="2290.82" y="564.93" width="205.27" height="199.15" rx="14.68"/>
      <rect class="cls-3" x="2299.71" y="573.56" width="187.49" height="181.89" rx="13.41"/>
      <g>
        <g>
          <path class="cls-2" d="M2389.2,591.73a4.25,4.25,0,1,1,4.25,4.26A4.25,4.25,0,0,1,2389.2,591.73Z"/>
          <path class="cls-2" d="M2423.51,597.74a4.25,4.25,0,1,1,1.65,5.79A4.25,4.25,0,0,1,2423.51,597.74Z"/>
          <path class="cls-2" d="M2452.91,621.1a4.25,4.25,0,1,1-1.27,5.88A4.23,4.23,0,0,1,2452.91,621.1Z"/>
          <path class="cls-2" d="M2467.47,657.24a4.26,4.26,0,1,1-4.26,4.26A4.26,4.26,0,0,1,2467.47,657.24Z"/>
          <path class="cls-2" d="M2460,699.19a4.25,4.25,0,1,1-6,0A4.26,4.26,0,0,1,2460,699.19Z"/>
          <path class="cls-2" d="M2433.33,726a4.25,4.25,0,1,1-6,0A4.26,4.26,0,0,1,2433.33,726Z"/>
          <path class="cls-2" d="M2389.2,739.76a4.25,4.25,0,1,1,4.25,4.25A4.25,4.25,0,0,1,2389.2,739.76Z"/>
        </g>
        <g>
          <path class="cls-2" d="M2363.26,597.74a4.26,4.26,0,1,0-1.65,5.79A4.25,4.25,0,0,0,2363.26,597.74Z"/>
          <path class="cls-2" d="M2333.86,621.1a4.25,4.25,0,1,0,1.27,5.88A4.24,4.24,0,0,0,2333.86,621.1Z"/>
          <path class="cls-2" d="M2319.3,657.24a4.26,4.26,0,1,0,4.25,4.26A4.25,4.25,0,0,0,2319.3,657.24Z"/>
          <path class="cls-2" d="M2326.74,699.19a4.25,4.25,0,1,0,6,0A4.26,4.26,0,0,0,2326.74,699.19Z"/>
          <path class="cls-2" d="M2353.44,726a4.25,4.25,0,1,0,6,0A4.26,4.26,0,0,0,2353.44,726Z"/>
        </g>
      </g>
      <g>
        <path class="cls-2" d="M2392.31,661.5a4.25,4.25,0,1,1,4.25,4.25A4.25,4.25,0,0,1,2392.31,661.5Z"/>
        <rect class="cls-2" x="2395.98" y="608.38" width="1.16" height="53.12"/>
        <rect class="cls-2" x="2392.2" y="648.63" width="35.8" height="3.48" transform="translate(112.98 1627.51) rotate(-38.15)"/>
      </g>
    </g>
    <g>
      <g>
        <g>
          <path class="cls-4" d="M2480.37,1547.8s-29.26-34.14-1.81-55.82c0,0,20.06-12.14,36.41-11.15,0,0-23.17,38.85-15.68,42.71s22.7-45.15,22.7-45.15,45.63-4.43,60.32,2.63c0,0-39,31.93-30.8,33.83s50.36-29.44,50.36-29.44,42.47,7.23,40.2,33.14-16.9,33.91-23.33,33.22-44.06-15-44.88-9.78,21.83,22.5,37.69,23.3c0,0-29.94,33-49.84,23.49s-21.6-24.63-34-30.3-23-5.65-17.87.13,27.57,11.39,34.66,23.94,13.47,21-7.13,17.92-54.06-18.17-55.52-35.42Z"/>
          <g>
            <path class="cls-4" d="M2621.2,1519.25s-115.36-4.45-140.83,28.55c0,0-5.64,16.87-23,32.24l-2.7,7.36s20-21.08,27.15-22.35C2481.84,1565.05,2470.65,1524.18,2621.2,1519.25Z"/>
            <path class="cls-4" d="M2457.39,1580s-24.76,18.31-26.48,51l4.5.4s7.91-33.83,22.2-47.06S2457.39,1580,2457.39,1580Z"/>
          </g>
        </g>
        <g>
          <path class="cls-4" d="M2378.07,1504.87s46.54-26.06,24.82-61.44c0,0-17.37-21.72-36-27.3,0,0,9.93,52.75,0,54s-6.83-59.58-6.83-59.58-49-23.58-68.26-21.72c0,0,30.41,51.51,20.48,50.27s-44.06-53.37-44.06-53.37-50.27-9.31-58.33,20.48,5,44.68,12.41,46.54,55.23,1.24,54,7.45-33.51,16.13-51.51,10.55c0,0,19.86,49,45.92,46.54s34.13-18.62,50.27-19.86,27.92,3.11,19.85,7.45-35.37,1.42-48.4,12.5-23.58,17.91.62,22.87,67.64,1.86,76.33-16.75Z"/>
          <g>
            <path class="cls-4" d="M2232.86,1415.51s130.31,42.2,145.21,89.36c0,0-.62,21.1,12.41,45.3v9.31s-13.65-31.65-21.1-36C2369.38,1523.49,2398.55,1482.53,2232.86,1415.51Z"/>
            <path class="cls-4" d="M2390.48,1550.17s20.1,30.52,8.64,67.67l-5.17-1.39s5-40.92-5.5-61.5S2390.48,1550.17,2390.48,1550.17Z"/>
          </g>
        </g>
        <g>
          <path class="cls-2" d="M2452.11,1468.92s-61.35-34.35-32.72-81c0,0,22.91-28.63,47.45-36,0,0-13.09,69.53,0,71.16s9-78.53,9-78.53,64.62-31.08,90-28.63c0,0-40.08,67.9-27,66.26s58.08-70.35,58.08-70.35,66.26-12.27,76.9,27-6.55,58.9-16.36,61.35-72.81,1.64-71.17,9.82,44.17,21.27,67.9,13.9c0,0-26.18,64.63-60.54,61.35s-45-24.54-66.26-26.17-36.81,4.09-26.17,9.81,46.62,1.88,63.8,16.48,31.09,23.61-.82,30.15-89.16,2.45-100.61-22.09Z"/>
          <g>
            <path class="cls-2" d="M2643.53,1351.13s-171.78,55.62-191.42,117.79c0,0,.82,27.82-16.36,59.72v12.27s18-41.72,27.82-47.45C2463.57,1493.46,2425.12,1439.47,2643.53,1351.13Z"/>
            <path class="cls-2" d="M2435.75,1528.64s-26.49,40.23-11.38,89.2l6.81-1.83s-6.62-53.94,7.24-81.07S2435.75,1528.64,2435.75,1528.64Z"/>
          </g>
        </g>
        <path class="cls-2" d="M2450.05,1724a120.18,120.18,0,0,0,120.18-120.17H2329.87A120.17,120.17,0,0,0,2450.05,1724Z"/>
        <path class="cls-5" d="M2479.62,1723.11a118.63,118.63,0,0,1-14.93.92,120.17,120.17,0,0,1-120.17-120.17h29.85A120.19,120.19,0,0,0,2479.62,1723.11Z"/>
        <rect class="cls-2" x="2325.92" y="1603.86" width="247.04" height="3.69"/>
      </g>
      <rect class="cls-2" x="2409.1" y="1716.47" width="76.34" height="13.72"/>
    </g>
    <g>
      <rect class="cls-6" x="1183.46" y="303.38" width="1009.12" height="181.58"/>
      <g>
        <path class="cls-7" d="M1463.72,363.54h10.44l34.34,44.32V363.54h11.08v64.1h-9.43L1474.8,382v45.6h-11.08Z"/>
        <path class="cls-7" d="M1558.77,363.08h10.44l28.21,64.56h-11.91l-6.5-15.47H1548.7l-6.59,15.47h-11.54Zm16.12,39.11-11.08-25.64-11,25.64Z"/>
        <path class="cls-7" d="M1615.91,374h-20.33V363.54h52V374h-20.33v53.66h-11.36Z"/>
        <path class="cls-7" d="M1658.49,400.45V363.54h11.26V400c0,11.9,6.14,18.31,16.21,18.31s16.12-6,16.12-17.85V363.54h11.26V399.9c0,19.14-10.8,28.75-27.56,28.75S1658.49,419,1658.49,400.45Z"/>
        <path class="cls-7" d="M1728.82,363.54h28.57c15,0,23.81,8.06,23.81,20.42,0,10.53-6.32,16.85-15.3,19.42l17.31,24.26h-13.28L1754,405.3h-13.92v22.34h-11.26Zm27.74,31.78c8.06,0,13.19-4.21,13.19-10.9,0-6.87-4.94-10.62-13.28-10.62h-16.39v21.52Z"/>
        <path class="cls-7" d="M1817.73,363.08h10.44l28.21,64.56h-11.91l-6.5-15.47h-30.31l-6.59,15.47h-11.54Zm16.12,39.11-11.08-25.64-11,25.64Z"/>
        <path class="cls-7" d="M1867.36,363.54h11.27v53.85h33.7v10.25h-45Z"/>
      </g>
    </g>
    <g>
      <path class="cls-7" d="M1409.94,412.51s-56.57,22.28-64.94-.76,64.94.76,64.94.76Z"/>
      <path class="cls-7" d="M1363.77,379.69c8.08-19.79,46.2,32.8,46.2,32.8S1355.69,399.49,1363.77,379.69Z"/>
    </g>
    <g>
      <path class="cls-7" d="M1954,416s37.46-47.88,56.36-32.27S1954,416,1954,416Z"/>
      <path class="cls-7" d="M2010.41,420.84C2013.47,442,1954,416,1954,416S2007.33,399.68,2010.41,420.84Z"/>
    </g>
    <g>
      <g>
        <polygon class="cls-8" points="2176.98 522.49 1189.59 522.49 1189.59 1642.39 2176.98 1642.39 2176.98 522.49 2176.98 522.49"/>
        <polygon class="cls-9" points="2138.91 796.46 1227.66 796.46 1227.66 572.68 2138.91 572.68 2138.91 796.46 2138.91 796.46"/>
        <polygon class="cls-9" points="2138.91 1065.3 1227.66 1065.3 1227.66 841.52 2138.91 841.52 2138.91 1065.3 2138.91 1065.3"/>
        <polygon class="cls-9" points="2138.91 1334.14 1227.66 1334.14 1227.66 1110.36 2138.91 1110.36 2138.91 1334.14 2138.91 1334.14"/>
        <polygon class="cls-9" points="2138.91 1602.98 1227.66 1602.98 1227.66 1379.2 2138.91 1379.2 2138.91 1602.98 2138.91 1602.98"/>
      </g>
      <g>
        <g>
          <rect class="cls-10" x="1443.2" y="766.94" width="27.62" height="29.97"/>
          <polygon class="cls-11" points="1443.2 766.94 1433.21 655.88 1480.22 655.88 1470.82 766.94 1443.2 766.94"/>
          <path class="cls-10" d="M1432.63,648.63l.63,7.3,47,0,.1-7.84Z"/>
        </g>
        <g>
          <rect class="cls-12" x="1315.79" y="628.25" width="102.27" height="168.24"/>
          <rect class="cls-11" x="1315.93" y="650.11" width="72.99" height="29.69"/>
        </g>
      </g>
      <g>
        <g>
          <rect class="cls-13" x="2046.87" y="767.16" width="27.62" height="29.97"/>
          <polygon class="cls-14" points="2046.87 767.16 2036.88 656.1 2083.89 656.1 2074.49 767.16 2046.87 767.16"/>
          <path class="cls-15" d="M2036.3,648.86l.63,7.29,47,0,.1-7.83Z"/>
          <rect class="cls-7" x="2053.83" y="688.19" width="12.15" height="43.05"/>
        </g>
        <g>
          <rect class="cls-12" x="1919.46" y="628.47" width="102.27" height="168.24"/>
          <rect class="cls-11" x="1919.6" y="650.33" width="72.99" height="29.69"/>
        </g>
      </g>
      <g>
        <g>
          <path class="cls-6" d="M1582.84,1065.19l-48.11.11a17,17,0,0,1-17-16.92l-.3-132.15a17,17,0,0,1,16.92-17l48.1-.11a17,17,0,0,1,17,16.91l.3,132.16A17,17,0,0,1,1582.84,1065.19Z"/>
          <path class="cls-13" d="M1545.66,885.12h25.46a5.6,5.6,0,0,1,5.6,5.6v8.47a0,0,0,0,1,0,0h-36.66a0,0,0,0,1,0,0v-8.47A5.6,5.6,0,0,1,1545.66,885.12Z" transform="translate(-2.02 3.53) rotate(-0.13)"/>
        </g>
        <rect class="cls-7" x="1537.31" y="936.78" width="43.43" height="78.67" transform="translate(-2.21 3.55) rotate(-0.13)"/>
        <g>
          <path class="cls-6" d="M1556.48,1009.09h0a.22.22,0,0,1-.19-.24c3.71-30.45,8.1-52.25,12.37-61.39.09-.2.16-.35.18-.42a.21.21,0,0,1,.27-.14.23.23,0,0,1,.14.27c0,.09-.1.24-.21.47-4.25,9.1-8.62,30.86-12.33,61.26A.2.2,0,0,1,1556.48,1009.09Z"/>
          <path class="cls-6" d="M1572.32,945.29c-.52,1-3.61,3.29-3.91,3.15s-.34-4,.17-5a2.09,2.09,0,0,1,3.74,1.87Z"/>
          <path class="cls-6" d="M1566.26,949.2c.53,1,.48,5,.18,5.13s-3.47-2.17-4-3.22a2.14,2.14,0,0,1,1-2.87A2.12,2.12,0,0,1,1566.26,949.2Z"/>
          <path class="cls-6" d="M1571.45,955.15c-1.15.27-5-.66-5-1s2.89-2.89,4-3.17a2.14,2.14,0,0,1,1,4.16Z"/>
          <path class="cls-6" d="M1559.64,970.1c1.07,1.67,1.69,8.22,1.21,8.53s-6.18-3-7.25-4.66a3.59,3.59,0,0,1,6-3.87Z"/>
          <path class="cls-6" d="M1569.36,979.09c-1.87.67-8.39-.21-8.58-.74s4.3-5.34,6.16-6a3.59,3.59,0,1,1,2.42,6.75Z"/>
          <path class="cls-6" d="M1555.81,978.21c1.73,1.71,4.23,9.36,3.75,9.86s-8.18-1.9-9.91-3.61a4.39,4.39,0,0,1,6.16-6.25Z"/>
          <path class="cls-6" d="M1569.5,989.81c-2.35.58-10.19-1.3-10.35-2s5.91-6,8.26-6.55a4.39,4.39,0,0,1,2.09,8.52Z"/>
          <path class="cls-6" d="M1554.3,988.2c1.73,1.7,4.23,9.36,3.75,9.85s-8.18-1.9-9.91-3.6a4.39,4.39,0,0,1,6.16-6.25Z"/>
          <path class="cls-6" d="M1568,999.8c-2.35.57-10.19-1.31-10.35-2s5.91-6,8.26-6.55a4.39,4.39,0,1,1,2.09,8.53Z"/>
          <path class="cls-6" d="M1549.47,1001.25c2.24.91,7.47,7,7.21,7.68s-8.28,1.36-10.53.44a4.39,4.39,0,0,1,3.32-8.12Z"/>
          <path class="cls-6" d="M1566.82,1009.61c-2.26.87-10.27,0-10.51-.67s5.11-6.65,7.38-7.52a4.38,4.38,0,1,1,3.13,8.19Z"/>
          <path class="cls-6" d="M1564.23,955.7c.53,1.07.48,5.06.17,5.21s-3.52-2.2-4.05-3.27a2.17,2.17,0,0,1,3.88-1.94Z"/>
          <path class="cls-6" d="M1569.35,961.84c-1.16.28-5-.67-5.11-1s2.93-2.94,4.1-3.22a2.17,2.17,0,1,1,1,4.22Z"/>
          <path class="cls-6" d="M1561.69,961.85c.88,1.46,1.27,7.11.85,7.36s-5.24-2.7-6.12-4.16a3.08,3.08,0,0,1,5.27-3.2Z"/>
          <path class="cls-6" d="M1569.73,970.46c-1.66.39-7.16-1-7.27-1.43s4.17-4.17,5.83-4.57a3.09,3.09,0,0,1,1.44,6Z"/>
        </g>
      </g>
      <g>
        <g>
          <path class="cls-6" d="M1763.5,1334l-48.11.11a17,17,0,0,1-17-16.91l-.29-132.16a17,17,0,0,1,16.91-17l48.11-.11a17,17,0,0,1,17,16.92l.3,132.15A17,17,0,0,1,1763.5,1334Z"/>
          <path class="cls-13" d="M1726.32,1154h25.46a5.6,5.6,0,0,1,5.6,5.6V1168a0,0,0,0,1,0,0h-36.66a0,0,0,0,1,0,0v-8.47a5.6,5.6,0,0,1,5.6-5.6Z" transform="translate(-2.62 3.94) rotate(-0.13)"/>
        </g>
        <rect class="cls-7" x="1717.97" y="1205.62" width="43.43" height="78.67" transform="translate(-2.79 3.91) rotate(-0.13)"/>
        <g>
          <path class="cls-6" d="M1737.13,1277.93h0a.2.2,0,0,1-.18-.23c3.7-30.45,8.09-52.26,12.36-61.4.1-.2.16-.35.19-.42a.21.21,0,1,1,.4.13,3.65,3.65,0,0,1-.2.47c-4.25,9.1-8.63,30.86-12.33,61.27A.2.2,0,0,1,1737.13,1277.93Z"/>
          <path class="cls-6" d="M1753,1214.13c-.51,1-3.61,3.3-3.9,3.15s-.35-4,.16-5a2.09,2.09,0,0,1,3.74,1.86Z"/>
          <path class="cls-6" d="M1746.92,1218c.53,1.06.47,5,.17,5.13s-3.47-2.17-4-3.22a2.14,2.14,0,1,1,3.82-1.91Z"/>
          <path class="cls-6" d="M1752.1,1224c-1.15.28-5-.66-5-1s2.89-2.89,4-3.16a2.13,2.13,0,1,1,1,4.15Z"/>
          <path class="cls-6" d="M1740.29,1238.94c1.07,1.67,1.69,8.23,1.21,8.53s-6.17-3-7.24-4.65a3.59,3.59,0,1,1,6-3.88Z"/>
          <path class="cls-6" d="M1750,1247.93c-1.86.67-8.39-.2-8.58-.73s4.3-5.35,6.17-6a3.58,3.58,0,1,1,2.41,6.75Z"/>
          <path class="cls-6" d="M1736.47,1247.06c1.72,1.7,4.23,9.36,3.74,9.85s-8.17-1.9-9.9-3.6a4.39,4.39,0,1,1,6.16-6.25Z"/>
          <path class="cls-6" d="M1750.15,1258.66c-2.35.57-10.18-1.31-10.35-2s5.91-6,8.26-6.54a4.39,4.39,0,1,1,2.09,8.52Z"/>
          <path class="cls-6" d="M1735,1257c1.72,1.7,4.23,9.36,3.74,9.85s-8.18-1.9-9.9-3.6A4.39,4.39,0,1,1,1735,1257Z"/>
          <path class="cls-6" d="M1748.64,1268.64c-2.35.58-10.18-1.31-10.35-2s5.91-6,8.26-6.54a4.39,4.39,0,1,1,2.09,8.52Z"/>
          <path class="cls-6" d="M1730.12,1270.09c2.25.91,7.48,7,7.22,7.68s-8.29,1.36-10.53.44a4.38,4.38,0,1,1,3.31-8.12Z"/>
          <path class="cls-6" d="M1747.48,1278.46c-2.26.86-10.27,0-10.52-.67s5.12-6.66,7.38-7.53a4.39,4.39,0,0,1,3.14,8.2Z"/>
          <path class="cls-6" d="M1744.88,1224.55c.54,1.07.49,5,.18,5.2s-3.52-2.2-4.06-3.27a2.17,2.17,0,1,1,3.88-1.93Z"/>
          <path class="cls-6" d="M1750,1230.69c-1.17.28-5-.67-5.12-1s2.94-2.93,4.11-3.21a2.17,2.17,0,0,1,1,4.22Z"/>
          <path class="cls-6" d="M1742.34,1230.7c.89,1.45,1.27,7.1.86,7.35s-5.25-2.7-6.13-4.16a3.08,3.08,0,1,1,5.27-3.19Z"/>
          <path class="cls-6" d="M1750.38,1239.3c-1.65.4-7.15-1-7.26-1.43s4.17-4.17,5.82-4.57a3.09,3.09,0,1,1,1.44,6Z"/>
        </g>
      </g>
      <g>
        <g>
          <path class="cls-14" d="M1954,1065.19l-48.11.11a17,17,0,0,1-17-16.92l-.3-132.15a17,17,0,0,1,16.92-17l48.11-.11a17,17,0,0,1,17,16.91l.3,132.16A17,17,0,0,1,1954,1065.19Z"/>
          <path class="cls-13" d="M1916.78,885.12h25.46a5.6,5.6,0,0,1,5.6,5.6v8.47a0,0,0,0,1,0,0h-36.66a0,0,0,0,1,0,0v-8.47a5.6,5.6,0,0,1,5.6-5.6Z" transform="translate(-2.02 4.37) rotate(-0.13)"/>
        </g>
        <rect class="cls-12" x="1908.42" y="936.78" width="43.43" height="78.67" transform="translate(-2.21 4.39) rotate(-0.13)"/>
        <g>
          <path class="cls-14" d="M1927.59,1009.09h0a.2.2,0,0,1-.18-.24c3.7-30.45,8.09-52.25,12.36-61.39l.19-.42a.2.2,0,0,1,.26-.14.21.21,0,0,1,.14.27c0,.09-.1.24-.2.47-4.25,9.1-8.63,30.86-12.33,61.26A.21.21,0,0,1,1927.59,1009.09Z"/>
          <path class="cls-14" d="M1943.43,945.29c-.51,1-3.61,3.29-3.9,3.15s-.35-4,.16-5a2.09,2.09,0,0,1,3.74,1.87Z"/>
          <path class="cls-14" d="M1937.38,949.2c.52,1,.47,5,.17,5.13s-3.47-2.17-4-3.22a2.14,2.14,0,1,1,3.82-1.91Z"/>
          <path class="cls-14" d="M1942.56,955.15c-1.15.27-5-.66-5-1s2.9-2.89,4-3.17a2.14,2.14,0,1,1,1,4.16Z"/>
          <path class="cls-14" d="M1930.75,970.1c1.07,1.67,1.69,8.22,1.21,8.53s-6.17-3-7.24-4.66a3.58,3.58,0,1,1,6-3.87Z"/>
          <path class="cls-14" d="M1940.47,979.09c-1.86.67-8.39-.21-8.58-.74s4.3-5.34,6.17-6a3.58,3.58,0,1,1,2.41,6.75Z"/>
          <path class="cls-14" d="M1926.93,978.21c1.72,1.71,4.23,9.36,3.74,9.86s-8.18-1.9-9.9-3.61a4.39,4.39,0,1,1,6.16-6.25Z"/>
          <path class="cls-14" d="M1940.61,989.81c-2.35.58-10.18-1.3-10.35-2s5.91-6,8.26-6.55a4.39,4.39,0,1,1,2.09,8.52Z"/>
          <path class="cls-14" d="M1925.42,988.2c1.72,1.7,4.23,9.36,3.74,9.85s-8.18-1.9-9.9-3.6a4.39,4.39,0,1,1,6.16-6.25Z"/>
          <path class="cls-14" d="M1939.1,999.8c-2.35.57-10.18-1.31-10.35-2s5.91-6,8.26-6.55a4.39,4.39,0,1,1,2.09,8.53Z"/>
          <path class="cls-14" d="M1920.58,1001.25c2.25.91,7.48,7,7.22,7.68s-8.29,1.36-10.53.44a4.38,4.38,0,1,1,3.31-8.12Z"/>
          <path class="cls-14" d="M1937.94,1009.61c-2.27.87-10.27,0-10.52-.67s5.12-6.65,7.38-7.52a4.39,4.39,0,0,1,3.14,8.19Z"/>
          <path class="cls-14" d="M1935.34,955.7c.54,1.07.48,5.06.18,5.21s-3.52-2.2-4.06-3.27a2.17,2.17,0,1,1,3.88-1.94Z"/>
          <path class="cls-14" d="M1940.47,961.84c-1.17.28-5-.67-5.12-1s2.94-2.94,4.1-3.22a2.17,2.17,0,0,1,1,4.22Z"/>
          <path class="cls-14" d="M1932.8,961.85c.88,1.46,1.27,7.11.86,7.36s-5.25-2.7-6.13-4.16a3.08,3.08,0,0,1,5.27-3.2Z"/>
          <path class="cls-14" d="M1940.84,970.46c-1.65.39-7.15-1-7.27-1.43s4.18-4.17,5.83-4.57a3.09,3.09,0,1,1,1.44,6Z"/>
        </g>
      </g>
      <g>
        <g>
          <path class="cls-14" d="M1878.8,1334.57l-48.11.11a17,17,0,0,1-17-16.92l-.3-132.15a17,17,0,0,1,16.91-17l48.11-.11a17,17,0,0,1,17,16.91l.29,132.16A17,17,0,0,1,1878.8,1334.57Z"/>
          <path class="cls-13" d="M1841.62,1154.5h25.46a5.6,5.6,0,0,1,5.6,5.6v8.47a0,0,0,0,1,0,0H1836a0,0,0,0,1,0,0v-8.47A5.6,5.6,0,0,1,1841.62,1154.5Z" transform="translate(-2.63 4.2) rotate(-0.13)"/>
        </g>
        <rect class="cls-12" x="1833.27" y="1206.16" width="43.43" height="78.67" transform="translate(-2.8 4.18) rotate(-0.13)"/>
        <g>
          <path class="cls-14" d="M1852.44,1278.47h0a.22.22,0,0,1-.19-.24c3.71-30.45,8.1-52.25,12.37-61.39.09-.21.16-.35.18-.42a.21.21,0,0,1,.27-.14.22.22,0,0,1,.14.27l-.21.47c-4.25,9.1-8.63,30.86-12.33,61.26A.21.21,0,0,1,1852.44,1278.47Z"/>
          <path class="cls-14" d="M1868.28,1214.67c-.52,1-3.61,3.29-3.91,3.15s-.35-4,.17-5a2.09,2.09,0,0,1,3.74,1.87Z"/>
          <path class="cls-14" d="M1862.22,1218.58c.53,1.05.48,5,.17,5.13s-3.46-2.17-4-3.23a2.13,2.13,0,1,1,3.82-1.9Z"/>
          <path class="cls-14" d="M1867.4,1224.53c-1.14.27-5-.66-5-1s2.89-2.89,4-3.17a2.14,2.14,0,0,1,1,4.16Z"/>
          <path class="cls-14" d="M1855.59,1239.48c1.08,1.67,1.69,8.22,1.22,8.53s-6.18-3-7.25-4.66a3.58,3.58,0,1,1,6-3.87Z"/>
          <path class="cls-14" d="M1865.32,1248.47c-1.87.67-8.39-.21-8.58-.74s4.3-5.35,6.16-6a3.59,3.59,0,0,1,2.42,6.75Z"/>
          <path class="cls-14" d="M1851.77,1247.59c1.73,1.7,4.23,9.36,3.75,9.85s-8.18-1.9-9.91-3.6a4.39,4.39,0,0,1,6.16-6.25Z"/>
          <path class="cls-14" d="M1865.46,1259.19c-2.35.58-10.19-1.3-10.35-2s5.91-6,8.26-6.54a4.39,4.39,0,0,1,2.09,8.52Z"/>
          <path class="cls-14" d="M1850.26,1257.58c1.73,1.7,4.23,9.35,3.75,9.85s-8.18-1.91-9.91-3.61a4.38,4.38,0,0,1,6.16-6.24Z"/>
          <path class="cls-14" d="M1864,1269.17c-2.36.58-10.19-1.3-10.35-2s5.9-6,8.26-6.55a4.39,4.39,0,0,1,2.09,8.52Z"/>
          <path class="cls-14" d="M1845.43,1270.62c2.24.92,7.47,7.05,7.21,7.69s-8.28,1.35-10.53.44a4.39,4.39,0,0,1,3.32-8.13Z"/>
          <path class="cls-14" d="M1862.78,1279c-2.26.87-10.27,0-10.51-.67s5.11-6.66,7.37-7.52a4.39,4.39,0,1,1,3.14,8.19Z"/>
          <path class="cls-14" d="M1860.19,1225.08c.53,1.07.48,5.06.17,5.21s-3.52-2.2-4.06-3.27a2.17,2.17,0,0,1,3.89-1.94Z"/>
          <path class="cls-14" d="M1865.31,1231.22c-1.16.28-5-.67-5.11-1s2.93-2.94,4.1-3.22a2.17,2.17,0,1,1,1,4.22Z"/>
          <path class="cls-14" d="M1857.65,1231.23c.88,1.46,1.27,7.11.85,7.36s-5.24-2.71-6.13-4.16a3.09,3.09,0,1,1,5.28-3.2Z"/>
          <path class="cls-14" d="M1865.69,1239.83c-1.66.4-7.16-.95-7.27-1.42s4.17-4.17,5.83-4.57a3.08,3.08,0,0,1,1.44,6Z"/>
        </g>
      </g>
      <g>
        <rect class="cls-6" x="1307.1" y="996.3" width="164.88" height="69" rx="16.93"/>
        <path class="cls-13" d="M1432.64,996.16l-86.18.2,0-8.3a9.72,9.72,0,0,1,9.7-9.74l66.74-.15a9.72,9.72,0,0,1,9.74,9.69Z"/>
        <rect class="cls-7" x="1337.73" y="1017.6" width="103.62" height="18.91"/>
      </g>
      <g>
        <rect class="cls-14" x="1684.84" y="996.3" width="164.88" height="69" rx="16.93"/>
        <path class="cls-13" d="M1810.38,996.16l-86.18.2,0-8.3a9.72,9.72,0,0,1,9.69-9.74l66.75-.15a9.72,9.72,0,0,1,9.74,9.69Z"/>
        <rect class="cls-7" x="1715.47" y="1017.6" width="103.62" height="18.91"/>
      </g>
      <g>
        <g>
          <path class="cls-14" d="M1708,1602.87l-48.11.11a17,17,0,0,1-17-16.91l-.3-132.16a17,17,0,0,1,16.91-17l48.11-.11a17,17,0,0,1,17,16.92l.3,132.15A17,17,0,0,1,1708,1602.87Z"/>
          <path class="cls-13" d="M1670.78,1422.8h25.46a5.6,5.6,0,0,1,5.6,5.6v8.47a0,0,0,0,1,0,0h-36.66a0,0,0,0,1,0,0v-8.47A5.6,5.6,0,0,1,1670.78,1422.8Z" transform="translate(-3.23 3.82) rotate(-0.13)"/>
        </g>
        <rect class="cls-12" x="1662.43" y="1474.46" width="43.43" height="78.67" transform="translate(-3.4 3.79) rotate(-0.13)"/>
        <g>
          <path class="cls-14" d="M1681.6,1546.77h0a.2.2,0,0,1-.18-.23c3.71-30.45,8.1-52.26,12.36-61.4a3.45,3.45,0,0,0,.19-.42.23.23,0,0,1,.27-.14.21.21,0,0,1,.13.27,3.65,3.65,0,0,1-.2.47c-4.25,9.1-8.63,30.86-12.33,61.27A.19.19,0,0,1,1681.6,1546.77Z"/>
          <path class="cls-14" d="M1697.43,1483c-.51,1-3.6,3.3-3.9,3.15s-.35-4,.17-5a2.08,2.08,0,1,1,3.73,1.86Z"/>
          <path class="cls-14" d="M1691.38,1486.88c.53,1.06.47,5,.17,5.13s-3.47-2.17-4-3.22a2.14,2.14,0,1,1,3.82-1.91Z"/>
          <path class="cls-14" d="M1696.56,1492.83c-1.14.28-5-.66-5-1s2.89-2.89,4-3.16a2.13,2.13,0,1,1,1,4.15Z"/>
          <path class="cls-14" d="M1684.75,1507.78c1.07,1.67,1.69,8.22,1.22,8.53s-6.18-3-7.25-4.65a3.59,3.59,0,1,1,6-3.88Z"/>
          <path class="cls-14" d="M1694.47,1516.77c-1.86.67-8.39-.2-8.58-.73s4.31-5.35,6.17-6a3.58,3.58,0,1,1,2.41,6.75Z"/>
          <path class="cls-14" d="M1680.93,1515.9c1.73,1.7,4.23,9.36,3.74,9.85s-8.17-1.9-9.9-3.6a4.39,4.39,0,0,1,6.16-6.25Z"/>
          <path class="cls-14" d="M1694.62,1527.5c-2.36.58-10.19-1.31-10.36-2s5.91-6,8.27-6.54a4.39,4.39,0,0,1,2.09,8.52Z"/>
          <path class="cls-14" d="M1679.42,1525.88c1.73,1.7,4.23,9.36,3.75,9.85s-8.18-1.9-9.91-3.6a4.39,4.39,0,0,1,6.16-6.25Z"/>
          <path class="cls-14" d="M1693.11,1537.48c-2.36.58-10.19-1.31-10.36-2s5.91-6,8.27-6.54a4.39,4.39,0,0,1,2.09,8.52Z"/>
          <path class="cls-14" d="M1674.58,1538.93c2.25.91,7.48,7,7.22,7.68s-8.29,1.36-10.53.44a4.38,4.38,0,0,1,3.31-8.12Z"/>
          <path class="cls-14" d="M1691.94,1547.3c-2.26.86-10.27,0-10.52-.67s5.12-6.66,7.38-7.53a4.39,4.39,0,1,1,3.14,8.2Z"/>
          <path class="cls-14" d="M1689.35,1493.39c.53,1.07.48,5,.17,5.21s-3.52-2.21-4.06-3.28a2.17,2.17,0,0,1,3.89-1.93Z"/>
          <path class="cls-14" d="M1694.47,1499.53c-1.17.28-5-.67-5.12-1s2.94-2.93,4.11-3.21a2.17,2.17,0,0,1,1,4.22Z"/>
          <path class="cls-14" d="M1686.8,1499.54c.89,1.45,1.27,7.1.86,7.35s-5.25-2.7-6.13-4.16a3.08,3.08,0,1,1,5.27-3.19Z"/>
          <path class="cls-14" d="M1694.84,1508.14c-1.65.4-7.15-1-7.26-1.43s4.17-4.17,5.82-4.57a3.09,3.09,0,0,1,1.44,6Z"/>
        </g>
      </g>
      <g>
        <rect class="cls-14" x="1438.84" y="1533.98" width="164.88" height="69" rx="16.93"/>
        <path class="cls-13" d="M1564.38,1533.85l-86.18.19v-8.3a9.72,9.72,0,0,1,9.69-9.74l66.74-.15a9.72,9.72,0,0,1,9.74,9.7Z"/>
        <rect class="cls-7" x="1469.47" y="1555.29" width="103.62" height="18.91"/>
      </g>
      <g>
        <rect class="cls-14" x="1313.94" y="1255.68" width="126.16" height="78.47"/>
        <rect class="cls-13" x="1308.58" y="1252.73" width="136.38" height="11.79"/>
        <rect class="cls-7" x="1332.7" y="1283.01" width="85.21" height="21.44"/>
      </g>
      <g>
        <rect class="cls-6" x="1505.36" y="1255.68" width="126.16" height="78.47"/>
        <rect class="cls-13" x="1500" y="1252.73" width="136.38" height="11.79"/>
        <rect class="cls-7" x="1524.12" y="1283.01" width="85.21" height="21.44"/>
      </g>
      <g>
        <rect class="cls-6" x="1409.15" y="1174.26" width="126.16" height="78.47"/>
        <rect class="cls-13" x="1403.79" y="1171.32" width="136.38" height="11.79"/>
        <rect class="cls-7" x="1427.9" y="1201.6" width="85.21" height="21.44"/>
      </g>
      <g>
        <rect class="cls-14" x="1781.82" y="1524.52" width="126.16" height="78.46"/>
        <rect class="cls-13" x="1776.46" y="1521.57" width="136.38" height="11.79"/>
        <rect class="cls-7" x="1800.57" y="1551.85" width="85.21" height="21.44"/>
      </g>
      <g>
        <rect class="cls-6" x="1973.23" y="1524.52" width="126.16" height="78.46"/>
        <rect class="cls-13" x="1967.87" y="1521.57" width="136.38" height="11.79"/>
        <rect class="cls-7" x="1991.99" y="1551.85" width="85.21" height="21.44"/>
      </g>
      <g>
        <rect class="cls-6" x="1877.02" y="1443.11" width="126.16" height="78.46"/>
        <rect class="cls-13" x="1871.66" y="1440.16" width="136.38" height="11.79"/>
        <rect class="cls-7" x="1895.78" y="1470.44" width="85.21" height="21.44"/>
      </g>
      <g>
        <path class="cls-6" d="M1969,1207.89h17.63a7.93,7.93,0,0,1,7.93,7.93v96a0,0,0,0,1,0,0h-33.5a0,0,0,0,1,0,0v-96A7.93,7.93,0,0,1,1969,1207.89Z"/>
        <path class="cls-13" d="M1961.06,1311.81h33.5a0,0,0,0,1,0,0v14.52a7.81,7.81,0,0,1-7.81,7.81h-17.88a7.81,7.81,0,0,1-7.81-7.81v-14.52A0,0,0,0,1,1961.06,1311.81Z"/>
        <rect class="cls-16" x="1971.8" y="1240.48" width="12.02" height="33.5"/>
      </g>
      <g>
        <path class="cls-14" d="M2042.72,1207.89h17.63a7.93,7.93,0,0,1,7.93,7.93v96a0,0,0,0,1,0,0h-33.5a0,0,0,0,1,0,0v-96A7.93,7.93,0,0,1,2042.72,1207.89Z"/>
        <path class="cls-13" d="M2034.78,1311.81h33.5a0,0,0,0,1,0,0v14.52a7.81,7.81,0,0,1-7.81,7.81h-17.88a7.81,7.81,0,0,1-7.81-7.81v-14.52A0,0,0,0,1,2034.78,1311.81Z"/>
        <rect class="cls-16" x="2045.52" y="1240.48" width="12.03" height="33.5"/>
      </g>
      <g>
        <path class="cls-6" d="M1284.39,1476.89H1302a7.93,7.93,0,0,1,7.93,7.93v96a0,0,0,0,1,0,0h-33.5a0,0,0,0,1,0,0v-96A7.93,7.93,0,0,1,1284.39,1476.89Z"/>
        <path class="cls-13" d="M1276.45,1580.81H1310a0,0,0,0,1,0,0v14.52a7.81,7.81,0,0,1-7.81,7.81h-17.88a7.81,7.81,0,0,1-7.81-7.81v-14.52A0,0,0,0,1,1276.45,1580.81Z"/>
        <rect class="cls-16" x="1287.19" y="1509.49" width="12.02" height="33.5"/>
      </g>
      <g>
        <path class="cls-14" d="M1358.11,1476.89h17.63a7.93,7.93,0,0,1,7.93,7.93v96a0,0,0,0,1,0,0h-33.5a0,0,0,0,1,0,0v-96A7.93,7.93,0,0,1,1358.11,1476.89Z"/>
        <path class="cls-13" d="M1350.18,1580.81h33.5a0,0,0,0,1,0,0v14.52a7.81,7.81,0,0,1-7.81,7.81H1358a7.81,7.81,0,0,1-7.81-7.81v-14.52A0,0,0,0,1,1350.18,1580.81Z"/>
        <rect class="cls-16" x="1360.91" y="1509.49" width="12.02" height="33.5"/>
      </g>
      <g>
        <path class="cls-6" d="M1655.89,747.86a56.28,56.28,0,0,1-27.94,48.6h-56.59a56.24,56.24,0,1,1,84.53-48.6Z"/>
        <rect class="cls-17" x="1559.96" y="787.69" width="78.85" height="8.77"/>
        <path class="cls-13" d="M1584.25,679.35h31a8.27,8.27,0,0,1,8.27,8.27V697a0,0,0,0,1,0,0h-48.12a0,0,0,0,1,0,0v-8.87A8.81,8.81,0,0,1,1584.25,679.35Z"/>
        <rect class="cls-7" x="1571.64" y="731.25" width="55.59" height="12.8"/>
      </g>
      <g>
        <path class="cls-14" d="M1845.76,747.86a56.09,56.09,0,0,1-17.08,40.36,55.41,55.41,0,0,1-10.86,8.24h-56.59a56.24,56.24,0,1,1,84.53-48.6Z"/>
        <rect class="cls-18" x="1749.83" y="787.69" width="78.85" height="8.77"/>
        <path class="cls-13" d="M1774.12,679.35h31a8.27,8.27,0,0,1,8.27,8.27V697a0,0,0,0,1,0,0H1765.3a0,0,0,0,1,0,0v-8.87A8.81,8.81,0,0,1,1774.12,679.35Z"/>
        <rect class="cls-7" x="1761.52" y="731.25" width="55.59" height="12.8"/>
      </g>
    </g>
    <path class="cls-4" d="M1271.07,1642.39l-14.89,81.33a5.48,5.48,0,0,0,5.4,6.47h0a11.08,11.08,0,0,0,10.2-6.77l34.12-81Z"/>
    <path class="cls-4" d="M455.07,1642.39l-14.89,81.33a5.48,5.48,0,0,0,5.4,6.47h0a11.08,11.08,0,0,0,10.2-6.77l34.12-81Z"/>
    <path class="cls-4" d="M2069.42,1642.39l14.9,81.33a5.49,5.49,0,0,1-5.4,6.47h0a11.09,11.09,0,0,1-10.21-6.77l-34.12-81Z"/>
    <path class="cls-4" d="M1074.78,1642.39l14.89,81.33a5.48,5.48,0,0,1-5.39,6.47h0a11.08,11.08,0,0,1-10.21-6.77l-34.12-81Z"/>
    <rect class="cls-8" x="400.51" y="1082.44" width="731.24" height="562.85"/>
    <rect class="cls-19" x="174.73" y="1730.19" width="2650.54" height="7.69" rx="3.14"/>
    <rect class="cls-9" x="433.66" y="1110.36" width="664.93" height="223.79"/>
    <rect class="cls-9" x="433.66" y="1376.38" width="664.93" height="223.79"/>
    <g>
      <path class="cls-20" d="M825.88,1196.72l-19.89,0,15.16,0,0-7a4.63,4.63,0,0,0-4.64-4.62l-21.06.05a4.63,4.63,0,0,0-4.62,4.64l0,7h-4.74a14,14,0,0,0-14,14.06l.25,109.31a14,14,0,0,0,14,14l39.79-.09a14,14,0,0,0,14-14.06l-.25-109.31A14,14,0,0,0,825.88,1196.72Z"/>
      <path class="cls-20" d="M921.25,1197.17h-4.73l0-7a4.63,4.63,0,0,0-4.64-4.62l-21.06,0a4.65,4.65,0,0,0-4.62,4.64l0,7,15.16,0-19.9,0a14,14,0,0,0-14,14l.25,109.31a14,14,0,0,0,14,14l39.8-.09a14,14,0,0,0,14-14l-.25-109.31A14,14,0,0,0,921.25,1197.17Z"/>
      <polygon class="cls-20" points="637.45 1209.24 641.48 1209.24 641.48 1199.49 528.67 1199.49 528.67 1209.24 533.1 1209.24 533.1 1266.83 449.92 1266.83 449.92 1276.58 454.36 1276.58 454.36 1334.17 558.71 1334.17 558.71 1276.58 562.73 1276.58 562.73 1266.83 608.25 1266.83 608.25 1276.58 612.68 1276.58 612.68 1334.17 717.03 1334.17 717.03 1276.58 721.06 1276.58 721.06 1266.83 637.45 1266.83 637.45 1209.24"/>
      <path class="cls-20" d="M1010.75,1229.74H996.17a6.56,6.56,0,0,0-6.56,6.56v91.41a6.46,6.46,0,0,0,6.45,6.46h14.79a6.46,6.46,0,0,0,6.46-6.46V1236.3A6.56,6.56,0,0,0,1010.75,1229.74Z"/>
      <path class="cls-20" d="M1071.73,1229.74h-14.58a6.56,6.56,0,0,0-6.56,6.56v91.41a6.46,6.46,0,0,0,6.45,6.46h14.79a6.46,6.46,0,0,0,6.46-6.46V1236.3A6.56,6.56,0,0,0,1071.73,1229.74Z"/>
    </g>
    <g>
      <path class="cls-20" d="M702.33,1462.74l19.9,0-15.16,0v-7a4.63,4.63,0,0,1,4.64-4.62l21.06,0a4.62,4.62,0,0,1,4.62,4.64v7h4.73a14,14,0,0,1,14,14.06l-.24,109.31a14,14,0,0,1-14.06,14L702,1600.1A14,14,0,0,1,688,1586l.25-109.31A14,14,0,0,1,702.33,1462.74Z"/>
      <path class="cls-20" d="M607,1463.18h4.74v-7a4.64,4.64,0,0,1,4.64-4.62l21.06,0a4.63,4.63,0,0,1,4.62,4.64v7l-15.16,0,19.89,0a14,14,0,0,1,14,14.06l-.24,109.31a14,14,0,0,1-14.06,14l-39.79-.09a14,14,0,0,1-14-14l.25-109.32A14,14,0,0,1,607,1463.18Z"/>
      <polygon class="cls-20" points="890.76 1475.26 886.74 1475.26 886.74 1465.51 999.55 1465.51 999.55 1475.26 995.11 1475.26 995.11 1532.85 1078.29 1532.85 1078.29 1542.6 1073.86 1542.6 1073.86 1600.19 969.51 1600.19 969.51 1542.6 965.48 1542.6 965.48 1532.85 919.97 1532.85 919.97 1542.6 915.53 1542.6 915.53 1600.19 811.18 1600.19 811.18 1542.6 807.16 1542.6 807.16 1532.85 890.76 1532.85 890.76 1475.26"/>
      <path class="cls-20" d="M517.47,1495.76h14.58a6.56,6.56,0,0,1,6.56,6.56v91.41a6.46,6.46,0,0,1-6.46,6.46H517.36a6.46,6.46,0,0,1-6.46-6.46v-91.41A6.57,6.57,0,0,1,517.47,1495.76Z"/>
      <path class="cls-20" d="M456.49,1495.76h14.58a6.56,6.56,0,0,1,6.56,6.56v91.41a6.46,6.46,0,0,1-6.46,6.46H456.38a6.46,6.46,0,0,1-6.46-6.46v-91.41A6.57,6.57,0,0,1,456.49,1495.76Z"/>
    </g>
    <g>
      <path class="cls-21" d="M1072.79,891.19s5.72-14.49,11.43-19.75,26-16.34,38.16-12.77,8.15,15.08,0,24-32.78,24.18-32.78,24.18Z"/>
      <path class="cls-13" d="M789.57,835c-4.24-8.16,92.41-37.58,93.94,43,0,0,181-4.45,94.6-105.36-29.92-34.94-26.84-63.82-26-90.71s-18.64-105.05-85.65-97.18c0,0-17.55-7.14-39.45,4.22C777.25,614.85,665.67,864.74,789.57,835Z"/>
      <path class="cls-22" d="M660.86,1639.51s-20.29,18.52-16.33,31.67,22.27,21.93,24.74,38S681.64,1734,690.55,1734H733s6.56-11.32-9.27-14.73-21.81-22.3-20.82-39.84-1.48-40.93-1.48-40.93l-33.65-7.8Z"/>
      <path class="cls-22" d="M832.57,1647.37s-7.28,79.39,1.63,83.78h115s-1-14.35-19.32-17.27-50.47-13.64-55.91-37.52S832.57,1647.37,832.57,1647.37Z"/>
      <path class="cls-1" d="M886.66,713.26a16.8,16.8,0,0,0,13.85,5.63,12.29,12.29,0,0,0,10.3-6.8S897.15,708.8,886.66,713.26Z"/>
      <path class="cls-14" d="M929.87,990.89l-66.36,19.82-21-5.16-20-4.91-39.8-9.75s-7.74-2.58-14.59-18.4c-1.31-3-3.64-12.12-6.09-22.91-2.7-12-5.51-26-7.09-35.92-2.32-14.6-7-32.77-11-52.35h0A357.63,357.63,0,0,1,737,816.92a37.64,37.64,0,0,1,33.4-40.4l22.21-2.45c59.11-5.61,124.17,9,124.17,9s19,28.49,31.16,76S929.87,990.89,929.87,990.89Z"/>
      <path class="cls-18" d="M822.42,1000.64l-39.8-9.75s-7.74-2.58-14.59-18.4c-1.31-3-3.64-12.12-6.09-22.91,0,0,12.39-49.35,18-48.34s6.33,33.3,17.76,52.17S833.58,994,822.42,1000.64Z"/>
      <path class="cls-23" d="M925.65,1003.69s32.86,102.29,35,137.12-62.82,494.74-65.43,510.79c-2.46,15.12-21.24,24.76-21.24,24.76s-8.64,5.1-21,1.62c-17.11-4.83-22.52-10.61-22.52-10.61s-25.57-328-9.75-445.18,16-218.5,16-218.5Z"/>
      <path class="cls-6" d="M786.42,1000.64s-50.13,67.26-54.81,112.73-7.33,205.18-17.28,249.5-46.54,129.62-46.54,267.87c0,0,3.8,7.93,15.54,12.15a128.63,128.63,0,0,0,13.67,3.78,21.49,21.49,0,0,0,24-11.41c24.73-49.8,103.5-210.39,107.54-243.73,2.86-23.59,27.74-179.73,82-271.35,13-22-8-109.47-8-109.47Z"/>
      <path class="cls-24" d="M930.9,987.9s-13.19,10.44-39.4,11c-31.31.64-108.88-8-108.88-8a63.94,63.94,0,0,0-3.3,19.8s94.74,23.9,149.63,3.49C929,1014.17,936,1000.85,930.9,987.9Z"/>
      <path class="cls-16" d="M884.72,1009.67c0-8.91,6.41-16.16,14.29-16.16s14.28,7.25,14.28,16.16-6.4,16.17-14.28,16.17S884.72,1018.59,884.72,1009.67Zm4.74,0c0,6.31,4.28,11.44,9.55,11.44s9.55-5.13,9.55-11.44-4.29-11.43-9.55-11.43S889.46,1003.37,889.46,1009.67Z"/>
      <path class="cls-14" d="M1089.81,925s-34.89,58.95-72,58.76a37.29,37.29,0,0,1-8.35-1.05c-22-5.11-47.84-28-64.8-45.23-11-11.21-18.32-20-18.32-20l-51.45-145s46.95,3.84,71.37,25.45,73.71,124.72,78.21,119.56c1.18-1.35,47.39-35.93,51.21-34.75C1075.65,882.64,1094.23,896.09,1089.81,925Z"/>
      <g>
        <path class="cls-13" d="M846.57,1193.87,712.5,1172.18a24.27,24.27,0,0,1-20.08-27.83l11.65-72a24.28,24.28,0,0,1,27.84-20.09L866,1073.92a24.27,24.27,0,0,1,20.08,27.84l-11.65,72A24.27,24.27,0,0,1,846.57,1193.87Z"/>
        <polygon class="cls-14" points="789.12 1123.77 788.96 1123.7 701.61 1086.44 702.17 1085.14 789.35 1122.33 883.82 1114.53 883.93 1115.93 789.12 1123.77"/>
        <rect class="cls-6" x="783.67" y="1114.33" width="9.11" height="22.57" transform="translate(189.95 -111.47) rotate(9.19)"/>
        <path class="cls-13" d="M733.1,1061.94a10.05,10.05,0,0,1-1.53-.12,9.54,9.54,0,1,1,1.53.12Zm0-16.2a6.74,6.74,0,1,0,1.08.09A6.56,6.56,0,0,0,733.08,1045.74Z"/>
        <path class="cls-13" d="M861.29,1082.68a10.08,10.08,0,0,1-1.54-.12,9.53,9.53,0,0,1-7.87-10.92h0a9.51,9.51,0,1,1,18.78,3,9.51,9.51,0,0,1-9.37,8Zm-6.62-10.58a6.67,6.67,0,0,0,5.54,7.66,6.67,6.67,0,0,0,7.66-5.53,6.69,6.69,0,0,0-13.2-2.13Z"/>
      </g>
      <g>
        <path class="cls-21" d="M831.48,787.5c-5.22-3.23-10.71-10.06-7.39-19.35,4-11.18,7.16-27.69,7.09-48.37l3,.59,50.52,10s-1.15,15.9-1.18,30.88v.37c-.06,13,2.38,25.55-3.51,29.54C874.51,794.89,856.88,803.19,831.48,787.5Z"/>
        <path class="cls-25" d="M884.7,730.37s-1.15,15.9-1.18,30.88c-28.27-.8-43.21-26.59-49.34-40.88Z"/>
        <path class="cls-21" d="M894.15,744.55s-66.89,1.11-66.94-40.56-8.71-69.58,34-72,51,13.43,54.41,27.33S911.54,743.19,894.15,744.55Z"/>
        <path class="cls-13" d="M891.67,630.92S873.36,679.8,845.25,687s-40.3-.3-40.3-.3,21.56-17.13,26-47C831,639.71,877.85,607.66,891.67,630.92Z"/>
        <path class="cls-13" d="M887.13,634.89s13.58,5.08,19.17,15a67.32,67.32,0,0,1,9,38.25s13.8-33.22-1.71-52C897.19,616.17,887.13,634.89,887.13,634.89Z"/>
        <path class="cls-16" d="M881.08,719.82s1.15,4.91,13.37,4.15c0,0,10.26-.63,9.94-6C904.39,717.94,894.45,714.1,881.08,719.82Z"/>
      </g>
      <g>
        <path class="cls-21" d="M825.39,1085.87s18.06.29,32-3.64,31.12,6.37,32.24,15.81c1.2,10.15-20.25,2.94-36.92,14-7.7,5.11-22.52-5.87-22.52-5.87Z"/>
        <path class="cls-21" d="M843.22,1084.88s13.52-10.53,15.74-9c3.61,2.45-5.32,9-5.32,9Z"/>
      </g>
      <path class="cls-26" d="M857.81,1066c-.34-2.08-33.95-206.28-68.89-291a3.11,3.11,0,0,1,1.67-4.06l0,0a6.4,6.4,0,0,1,8.46,3.51c14.38,36,30,94.43,46.5,174,13,62.56,21.65,115.49,21.74,116Z"/>
      <path class="cls-14" d="M742.58,794.07S666.26,910,683.73,1017.6c7,42.93,141.21,99.36,141.21,99.36s5.72-.76,7-15c.94-10.72-4.32-16.13-4.32-16.13s-80.62-71-80.26-92.28c.11-6.78,51.41-142.42,51.41-142.42Z"/>
      <g>
        <g>
          <path class="cls-27" d="M1144.78,936.89l-35.43-4.39a12.58,12.58,0,0,1-10.94-14l12.07-97.33a12.57,12.57,0,0,1,14-10.93l35.43,4.39a12.58,12.58,0,0,1,10.94,14L1158.81,926A12.57,12.57,0,0,1,1144.78,936.89Z"/>
          <path class="cls-13" d="M1133.42,802h18.89a4.15,4.15,0,0,1,4.15,4.15v6.28a0,0,0,0,1,0,0h-27.2a0,0,0,0,1,0,0v-6.28A4.15,4.15,0,0,1,1133.42,802Z" transform="translate(107.98 -134.45) rotate(7.07)"/>
        </g>
        <rect class="cls-9" x="1119.41" y="839.91" width="32.23" height="58.38" transform="translate(115.52 -133.07) rotate(7.06)"/>
        <g>
          <path class="cls-13" d="M1130.59,893.14h0a.17.17,0,0,1-.12-.2c5.56-22.07,10.82-37.71,14.81-44.05l.18-.29a.17.17,0,0,1,.21-.08.15.15,0,0,1,.07.21,2.92,2.92,0,0,1-.19.33c-4,6.31-9.22,21.92-14.77,44A.16.16,0,0,1,1130.59,893.14Z"/>
          <path class="cls-13" d="M1148.18,847.64a2,2,0,1,1-2.58-1.72,1.55,1.55,0,0,1,2.58,1.72Z"/>
          <path class="cls-13" d="M1143.36,850a8.22,8.22,0,0,1-.35,3.79,8.12,8.12,0,0,1-2.64-2.75,1.58,1.58,0,1,1,3-1Z"/>
          <path class="cls-13" d="M1146.62,854.82a8.13,8.13,0,0,1-3.61-1.2,8,8,0,0,1,3.26-2,1.58,1.58,0,0,1,.35,3.15Z"/>
          <path class="cls-13" d="M1136.54,864.73c.63,1.32.48,6.21.1,6.39s-4.27-2.77-4.91-4.1a2.66,2.66,0,0,1,4.81-2.29Z"/>
          <path class="cls-13" d="M1142.86,872.25c-1.44.32-6.16-.93-6.25-1.34s3.66-3.54,5.1-3.85a2.66,2.66,0,0,1,1.15,5.19Z"/>
          <path class="cls-13" d="M1133,870.35c1.11,1.41,2.24,7.28,1.84,7.6s-5.85-2.16-7-3.57a3.26,3.26,0,1,1,5.12-4Z"/>
          <path class="cls-13" d="M1142,880.16c-1.79.21-7.38-1.91-7.44-2.42s4.9-3.84,6.69-4a3.26,3.26,0,0,1,.75,6.47Z"/>
          <path class="cls-13" d="M1130.93,877.56c1.11,1.41,2.24,7.28,1.84,7.6s-5.84-2.16-7-3.58a3.25,3.25,0,0,1,5.12-4Z"/>
          <path class="cls-13" d="M1139.93,887.37c-1.79.2-7.38-1.91-7.44-2.42s4.9-3.84,6.69-4.05a3.26,3.26,0,0,1,.75,6.47Z"/>
          <path class="cls-13" d="M1126.16,886.71c1.56.89,4.85,5.88,4.59,6.33s-6.22.23-7.79-.65a3.26,3.26,0,0,1,3.2-5.68Z"/>
          <path class="cls-13" d="M1138.16,894.49c-1.75.42-7.56-1-7.69-1.47s4.39-4.43,6.14-4.86a3.26,3.26,0,0,1,1.55,6.33Z"/>
          <path class="cls-13" d="M1141.26,854.55a8.35,8.35,0,0,1-.36,3.86,8.26,8.26,0,0,1-2.68-2.79,1.61,1.61,0,0,1,3-1.07Z"/>
          <path class="cls-13" d="M1144.46,859.55a8.19,8.19,0,0,1-3.67-1.21,8.28,8.28,0,0,1,3.31-2,1.61,1.61,0,0,1,.36,3.2Z"/>
          <path class="cls-13" d="M1138.81,858.85c.52,1.15.28,5.35,0,5.49s-3.61-2.48-4.13-3.63a2.29,2.29,0,1,1,4.18-1.86Z"/>
          <path class="cls-13" d="M1143.93,865.93c-1.25.14-5.18-1.37-5.22-1.73s3.46-2.68,4.72-2.82a2.29,2.29,0,1,1,.5,4.55Z"/>
        </g>
      </g>
      <path class="cls-18" d="M1009.43,982.66c-22-5.11-47.84-28-64.8-45.23,0,0,7.51-46,6.2-56.55C949.57,870.52,975.69,965.32,1009.43,982.66Z"/>
      <path class="cls-21" d="M1084.22,871.44s20.73-15.89,23.67-19.91,2.68,4.36,0,10-7.77,12.24-8.3,22.58-12.06,7.13-12.06,7.13Z"/>
    </g>
    <rect class="cls-7" x="1449.69" y="688.19" width="14.31" height="43.05"/>
  </g>
</svg>
