<svg xmlns="http://www.w3.org/2000/svg" width="1775.78" height="1080" viewBox="0 0 1775.78 1080">
  <defs>
    <style>
      .cls-1 {
        isolation: isolate;
      }

      .cls-2, .cls-23, .cls-3, .cls-4 {
        fill: none;
      }

      .cls-2, .cls-3, .cls-4 {
        stroke: #b3b3b3;
        stroke-width: 4px;
      }

      .cls-2, .cls-22, .cls-23, .cls-3, .cls-4 {
        stroke-miterlimit: 10;
      }

      .cls-3 {
        stroke-dasharray: 12.11 12.11;
      }

      .cls-4 {
        stroke-dasharray: 11.65 11.65;
      }

      .cls-5 {
        fill: #f4e4e7;
      }

      .cls-6 {
        fill: #ea8465;
      }

      .cls-7 {
        fill: #9f3359;
      }

      .cls-8 {
        fill: #7c2949;
      }

      .cls-9 {
        opacity: 0.14;
      }

      .cls-11, .cls-9 {
        mix-blend-mode: multiply;
      }

      .cls-10 {
        fill: #f2b64c;
      }

      .cls-11 {
        opacity: 0.26;
      }

      .cls-12 {
        fill: #d87761;
      }

      .cls-13 {
        fill: #c96953;
      }

      .cls-14 {
        fill: #a70529;
      }

      .cls-15 {
        fill: #f1a20d;
      }

      .cls-16 {
        fill: #f4b53d;
      }

      .cls-17 {
        fill: #b97c0a;
      }

      .cls-18 {
        fill: #da0735;
      }

      .cls-19 {
        fill: #ee5181;
      }

      .cls-20 {
        fill: #ec3c7d;
      }

      .cls-21 {
        fill: #ee6b9c;
      }

      .cls-22 {
        fill: #fff;
      }

      .cls-22, .cls-23 {
        stroke: #f7931e;
        stroke-width: 5px;
      }

      .cls-24 {
        fill: #2e3192;
      }
    </style>
  </defs>
  <g class="cls-1">
    <g id="Layer_1" data-name="Layer 1">
      <g>
        <g>
          <line class="cls-2" x1="879.98" y1="81.18" x2="879.98" y2="87.18"/>
          <line class="cls-3" x1="879.98" y1="99.29" x2="879.98" y2="335.49"/>
          <line class="cls-2" x1="879.98" y1="341.54" x2="879.98" y2="347.54"/>
        </g>
        <g>
          <line class="cls-2" x1="879.98" y1="695.55" x2="879.98" y2="701.55"/>
          <line class="cls-4" x1="879.98" y1="713.2" x2="879.98" y2="986.99"/>
          <line class="cls-2" x1="879.98" y1="992.82" x2="879.98" y2="998.82"/>
        </g>
        <g>
          <circle class="cls-5" cx="1179.72" cy="571.44" r="114.58"/>
          <g>
            <path class="cls-6" d="M1179.72,686a114.61,114.61,0,0,0,105.92-70.85q-1.52-3-3.11-5.9c-4.48-8.25-9.53-16.41-16.69-22.49-14.31-12.16-34.53-14.12-53.32-14l-15.19-37.84q-15.43,5.13-31.21,9.12c.82,5,3.73,8.33,5.16,13a151.84,151.84,0,0,1,3.84,16.57c-15,2.43-31,5.28-42.22,15.52-5.8,5.28-9.89,12.14-13.62,19-8,14.74-14.72,30.34-18.08,46.7A114.13,114.13,0,0,0,1179.72,686Z"/>
            <path class="cls-7" d="M1179.72,686a114.61,114.61,0,0,0,105.92-70.85q-1.52-3-3.11-5.9c-4.48-8.25-9.53-16.41-16.69-22.49-12.25-10.41-28.83-13.33-45.14-13.9a125.58,125.58,0,0,1-21,40.56c-13.67-10.66-27.68-22.63-34.81-38.07-11.75,2.3-23.28,5.8-32,13.73-5.8,5.28-9.89,12.14-13.62,19-8,14.74-14.72,30.34-18.08,46.7A114.13,114.13,0,0,0,1179.72,686Z"/>
            <path class="cls-8" d="M1220.7,572.89a125.58,125.58,0,0,1-21,40.56c-13.67-10.66-27.68-22.63-34.81-38.07-2.78.54-5.55,1.16-8.27,1.88a136.16,136.16,0,0,0,30.87,40.13,68,68,0,0,0,11,8.24,4.73,4.73,0,0,0,6.75-.86c6.06-5.4,10.07-12.7,13.47-20.07a183.6,183.6,0,0,0,11.09-31.21C1226.8,573.18,1223.75,573,1220.7,572.89Z"/>
            <path class="cls-8" d="M1140.83,688c.08-.11-.86-.86-2.15-2.53a21.07,21.07,0,0,1-3.63-8.05,37,37,0,0,1-.21-13.19c.67-5,1.82-10.51,2.28-16.41,1-11.78-.16-22.57-2.22-30a56.23,56.23,0,0,0-3.08-8.63,12.14,12.14,0,0,0-1.66-2.93c-.27.12,1.9,4.39,3.62,11.84a97.77,97.77,0,0,1,1.72,29.63c-.45,5.81-1.55,11.25-2.15,16.36a36,36,0,0,0,.58,13.64,19.89,19.89,0,0,0,4.26,8.19A7.56,7.56,0,0,0,1140.83,688Z"/>
            <path class="cls-6" d="M1176.34,668.21a29.18,29.18,0,0,1-10.12-.37,74.06,74.06,0,0,1-7.91-1.49c-6.37-2-12.72-5.91-18.46-9.26a8.3,8.3,0,0,0-4.29-1.55c-1.54.06-3.14,1.42-2.81,2.93a3.77,3.77,0,0,0,.91,1.55,37.82,37.82,0,0,0,15.41,11c-1-.37-3.59.41-4.68.47-1.7.1-3.39.15-5.08.33-3.35.37-6.26,1.8-9.51,2.49a86.33,86.33,0,0,0-9.38,2.49c-1.46.48-2.88,1.16-4.35,1.59-1.89.55-6.66,1.45-5,4.65,1.16,2.2,5.22,1.3,7.1,1.12l23.14-2.27c-6,1-12,2-17.66,4.24-4.76,1.91-9.3,5.1-11.87,9.66a2.71,2.71,0,0,0-.46,2.11,2,2,0,0,0,1.75,1.21,5.62,5.62,0,0,0,2.2-.42c4-1.36,7.55-3.48,11.43-5s8.21-2.29,12.23-3.34a61.84,61.84,0,0,0-15.91,12.24,7.67,7.67,0,0,0-2.16,3.6,2.94,2.94,0,0,0,1.82,3.41,4.39,4.39,0,0,0,3.16-.93c5.89-3.6,11.83-7.23,16.79-12a25.1,25.1,0,0,0-8.07,15.83c-.15,1.48.07,3.35,1.46,3.85s2.88-.94,3.77-2.24c2.78-4.07,5.66-8.26,9.75-11,5.69-3.82,13.91-5.13,20.64-5.62,6.4-.47,11.8,2.42,18.33-.28"/>
            <g class="cls-9">
              <path class="cls-6" d="M1208.43,562.57l-11.1-27.64q-15.43,5.13-31.21,9.12c.82,5,3.73,8.33,5.16,13a131.56,131.56,0,0,1,3.17,13.1,121.33,121.33,0,0,0,14.72-1.61,77.62,77.62,0,0,0,13.94-3.62A52.19,52.19,0,0,0,1208.43,562.57Z"/>
            </g>
            <path class="cls-10" d="M1239.74,487.26c-.72-8.26,1.84-16.41,4.19-24.36s4.51-16.29,3-24.45-7.76-16-16-16.66c1.24-7.9-4-15.77-11-19.68s-15.3-4.57-23.29-4.26-16,1.49-24,.9c-12.06-.89-23.43-5.78-35.26-8.25-9.56-2-22.22-3.61-31.77-.82-8.41,2.45-16.88,10-21.18,17.48-4.82,8.34-5.63,19.33-.54,27.51,1,1.6,2.2,3.65,1.09,5.17a4.31,4.31,0,0,1-1.69,1.21c-5.45,2.78-10.59,6.56-13.75,11.79-5.4,8.93-4.29,21.72.45,30.83,4.17,8,12.73,14.1,21.73,13.51-3.89,5.67-.46,14.07,5.48,17.53s13.33,3.16,20.09,2"/>
            <g class="cls-11">
              <path class="cls-10" d="M1158.81,414.15c-7.92,2.82-16.68.22-24.55-2.75s-16.08-6.41-24.41-5.16a21,21,0,0,0-13.84,8.2,18.26,18.26,0,0,0-2.85,15.69c1.72,5.76,6.55,11.08,5.19,16.94-1.92,8.21-14.36,10.16-16.6,18.29-1.19,4.32,1.16,9,4.61,11.85s7.85,4.27,12.12,5.62c-3.07,8.65,1.64,18.94,9.65,23.42s18.35,3.6,26.29-1,13.59-12.5,16.91-21.05c2.39-6.15,4.4-13.54,10.49-16.08"/>
            </g>
            <path class="cls-12" d="M1118.89,487.6c-4.28-1.26-9.13.59-12,4a16.75,16.75,0,0,0-3.4,12.58c1.37,12.28,9.51,20.53,21.73,21.93"/>
            <path class="cls-13" d="M1124.11,516.18c.21-.07-.06-1.53-.76-3.82a27.34,27.34,0,0,0-4.2-8.48,19.76,19.76,0,0,0-7.44-5.92c-2.24-1-3.76-1.15-3.81-1s1.29.78,3.28,2a24.24,24.24,0,0,1,6.69,5.9,39.4,39.4,0,0,1,4.41,7.89C1123.24,514.92,1123.9,516.26,1124.11,516.18Z"/>
            <path class="cls-6" d="M1211,424.81a54.26,54.26,0,0,0-25.16-8.25c-7.29-.58-15.25-1.5-22.46-.27a64.27,64.27,0,0,0-30.83,14.21c-9.18,7.85-13.53,15.26-15.1,27.36-3,23.32-.21,46,6.21,68.46,3.76,13.1,11.79,23.66,25.14,28.24,14.39,4.93,30.46,2.86,44.46-2.36A34.24,34.24,0,0,0,1212.68,534c5.72-12.2,8.69-24.52,12.07-37.36C1231.1,472.5,1235.53,440.8,1211,424.81Z"/>
            <path class="cls-6" d="M1221.91,484c8.69-3.6,18.31-2.82,23.74,5.47a15.89,15.89,0,0,1,2.27,6.85A26,26,0,0,1,1213.5,524"/>
            <path class="cls-13" d="M1225.8,520c.06.12.69,0,1.77-.48a11.52,11.52,0,0,0,4.21-2.85,6,6,0,0,0,1.47-3.5,5.11,5.11,0,0,0-.34-2.21,4.25,4.25,0,0,0-1.53-1.92,12.87,12.87,0,0,0-4.3-1.55,6.63,6.63,0,0,1-1.8-.71,1.69,1.69,0,0,1-.81-1.19c-.14-1.05.52-2.58,1.07-3.83a21,21,0,0,1,2.07-3.5,23.76,23.76,0,0,1,4.93-4.91c3.23-2.38,5.71-3.15,5.59-3.47s-2.72.09-6.38,2.31a21.92,21.92,0,0,0-5.58,5,20.94,20.94,0,0,0-2.38,3.78,21.58,21.58,0,0,0-.91,2.2,6.07,6.07,0,0,0-.37,2.74,3.72,3.72,0,0,0,1.69,2.56,8,8,0,0,0,2.4.93,12.78,12.78,0,0,1,3.74,1.18,2.88,2.88,0,0,1,1.27,2.56,4.66,4.66,0,0,1-.92,2.7,13.72,13.72,0,0,1-3.49,3C1226.25,519.49,1225.73,519.89,1225.8,520Z"/>
            <path class="cls-13" d="M1154.26,502.48c0-.13-.77-.26-2.14-.47a13,13,0,0,1-5.33-1.81,6.19,6.19,0,0,1-2.23-2.85,4,4,0,0,1,.62-3.74,15.48,15.48,0,0,1,3.8-3.07,14.37,14.37,0,0,0,4.4-3.89,6.38,6.38,0,0,0,1-3,10.65,10.65,0,0,0-.19-3c-.38-1.85-.89-3.48-1.35-5.09-1-3.19-2-6-3-8.33-1.94-4.64-3.52-7.33-3.72-7.24s1,3,2.59,7.67c.81,2.35,1.71,5.17,2.58,8.34.42,1.57.9,3.27,1.22,5a6.28,6.28,0,0,1-.63,4.76,13.48,13.48,0,0,1-3.89,3.42,15.82,15.82,0,0,0-4.14,3.53,5.48,5.48,0,0,0-.68,5.17,7.19,7.19,0,0,0,2.89,3.35,11.85,11.85,0,0,0,5.94,1.47C1153.48,502.68,1154.25,502.59,1154.26,502.48Z"/>
            <path class="cls-13" d="M1167.68,502.94c-.24-.08-.7.85-1.68,2.09a11.74,11.74,0,0,1-10.64,4.57c-1.58-.14-2.57-.45-2.67-.21s.74.91,2.45,1.39a10.43,10.43,0,0,0,11.87-5.1C1167.83,504.12,1167.89,503,1167.68,502.94Z"/>
            <path class="cls-13" d="M1135.9,494.53c.71-.06,1-3.09.72-6.77s-1.12-6.62-1.83-6.56-1,3.09-.72,6.77S1135.19,494.58,1135.9,494.53Z"/>
            <path class="cls-13" d="M1176.9,491c.7-.06,1-3.33.73-7.31s-1.12-7.16-1.83-7.11-1,3.32-.73,7.3S1176.19,491.05,1176.9,491Z"/>
            <path class="cls-13" d="M1135.71,462.26c3-5.08,0-8.75-5.58-8.68s-10.42,4.76-14.06,8.62c-2.58,2.73-4.6,8.14,1,9.09a11.88,11.88,0,0,0,5.15-.52,31.36,31.36,0,0,0,9.13-4.27A14.06,14.06,0,0,0,1135.71,462.26Z"/>
            <path class="cls-13" d="M1164.69,459.42c-4-4.35-1.8-8.56,3.69-9.63s11.18,2.51,15.53,5.54c3.08,2.15,6.17,7,.83,9.12a11.93,11.93,0,0,1-5.15.54,31.34,31.34,0,0,1-9.81-2.3A14.18,14.18,0,0,1,1164.69,459.42Z"/>
            <g class="cls-9">
              <path class="cls-6" d="M1143,424.09a27.57,27.57,0,0,0,13.33,35.32c3.74,1.84,7.89,2.81,11.51,4.88,11.09,6.33,14.73,21.11,25.19,28.44a24.53,24.53,0,0,0,22.24,2.82,42.13,42.13,0,0,0,9.59-5.54,3.34,3.34,0,0,0,1.29-1.4,3.23,3.23,0,0,0,0-1.69c-1.66-8.95-4.65-17.58-7.64-26.18a55.17,55.17,0,0,0-4.82-11.15c-5.38-8.67-15.11-13.67-24.82-16.81"/>
            </g>
            <path class="cls-10" d="M1234.53,479a39.43,39.43,0,0,0,.49-4.81c.87-17.27.06-35.23-11.09-49.37-8.91-11.29-16-18.74-30.87-20.82-12-1.67-24.27-.42-36.18,1.26-3,.43-6.13,1-8.73,2.59-7.87,4.86-4.54,18.53-2.06,25.57,2.69,7.63,8.12,14.58,15.62,17.63,2.74,1.12,5.71,1.71,8.29,3.18,5.9,3.39,8.31,10.47,11.53,16.46,5.4,10.07,14,19,24.56,23.61a20.16,20.16,0,0,0,20.39-2.71C1231.55,487.7,1233.66,484.06,1234.53,479Z"/>
            <path class="cls-7" d="M1307.36,682.27c0-2-.16-4-.34-5.94-1-10.81-4.1-20.83-8.43-31-4.59-10.79-7.93-22-13.23-32.73-8.19-16.5-18.73-31.66-36-36.76-4.84-1.43-12.38-2.49-15.75,1.95s-4.07,12-4.17,17.25c-.24,13.38,3.87,26.43,8.47,39q5.41,14.81,11.82,29.21c-24-2-48-4-72-3.09-3.89.15-7.78.39-11.63.92a179.75,179.75,0,0,0-2.46,41.43c19.81,6.87,41.21,10.88,61.77,13.79A193.78,193.78,0,0,0,1297.1,713a9.13,9.13,0,0,0,3.82-1.56C1309,704.79,1307.56,691.55,1307.36,682.27Z"/>
            <path class="cls-7" d="M1269.31,652.12a1,1,0,0,0,0-1.92,1,1,0,0,0,0,1.92Z"/>
            <path class="cls-8" d="M1248.91,662.89a17.29,17.29,0,0,0-1.16-3.46l-3.56-9.24c-3-7.81-6.89-18.69-10.48-30.9a74.92,74.92,0,0,1-3.2-17.49,38.51,38.51,0,0,1,1.92-14.24A29.86,29.86,0,0,1,1237,579c1.42-1.83,2.37-2.72,2.28-2.82a9.8,9.8,0,0,0-2.77,2.41,27.17,27.17,0,0,0-5.13,8.6,38,38,0,0,0-2.34,14.68,71.81,71.81,0,0,0,3.13,17.88,300.21,300.21,0,0,0,11,30.89c1.62,3.86,3,7,4,9.07A15,15,0,0,0,1248.91,662.89Z"/>
            <path class="cls-8" d="M1277.18,670.84a23.12,23.12,0,0,0-3.94-1.82c-1.3-.51-2.91-1.09-4.78-1.76s-4-1.34-6.45-2a153.6,153.6,0,0,0-17.17-3.72c-6.53-1.06-13.76-1.83-21.37-2.3s-14.87-.59-21.47-.6-12.54.18-17.53.54-9,.88-11.76,1.34a19.64,19.64,0,0,0-4.23,1,24.65,24.65,0,0,0,4.32-.32c2.77-.27,6.77-.61,11.74-.82s10.88-.28,17.46-.19,13.8.25,21.37.73a209.26,209.26,0,0,1,38.34,5.51c2.42.56,4.57,1.22,6.48,1.73l4.84,1.49A22,22,0,0,0,1277.18,670.84Z"/>
          </g>
        </g>
        <g>
          <path class="cls-14" d="M587.58,541.6c-15.12-.1-30.24-.5-45.48-2.32-3.81-.48-7.63-1.07-11.48-1.92-1.93-.41-3.86-.92-5.82-1.54a30.25,30.25,0,0,1-6-2.56,10.77,10.77,0,0,1-1.57-1l-.8-.61-.4-.32a5.9,5.9,0,0,1-.49-.5,13.4,13.4,0,0,1-1-1.15l-.45-.6c-.13-.2-.13-.23-.21-.36l-.35-.61-.09-.16,0,0c.22.51-.32-.75-.27-.64l0-.12-.14-.46a17.46,17.46,0,0,1-.8-3.75l-.15-1.88a15.56,15.56,0,0,1,.08-1.81,29.87,29.87,0,0,1,4.21-12.87,36.75,36.75,0,0,1,8.57-10l1.33-1.06,1.47-.95c.49-.31,1-.63,1.49-.92l1.64-.79a18.82,18.82,0,0,1,3.52-1.3l.92-.27c.36-.07.77-.12,1.16-.18.78-.11,1.58-.18,2.37-.24.18,0,.43,0,.55,0l.36,0,.7.05.71,0,.35,0h.13l.65.08.21,0a32.57,32.57,0,0,1,3.31.79,30.66,30.66,0,0,1,3.15,1.07,29.7,29.7,0,0,1,3,1.31,55,55,0,0,1,10.51,6.74,96.15,96.15,0,0,1,16.3,17.2A133.56,133.56,0,0,1,591,537.66c1.1,2.18-3.72,5.09-5.11,3.26-4.54-5.85-9.36-11.5-14.37-16.82a121.42,121.42,0,0,0-15.91-14.44,51.94,51.94,0,0,0-8.64-5.21,23.23,23.23,0,0,0-2.21-.94,21.07,21.07,0,0,0-2.2-.74c-.74-.26-1.46-.34-2.19-.53l-.13,0c1.16.14.29,0,.54.06h-.13l-.35,0-.71-.05-.7-.05-.35,0c-.09,0-.09,0-.14.05a1.8,1.8,0,0,1-.44.12,2.36,2.36,0,0,0-.25,0l-.44.14a8.68,8.68,0,0,0-1.79.62l-.93.4-.93.55-.93.55-.9.68a27.66,27.66,0,0,0-6.36,6.79,20.77,20.77,0,0,0-3.39,8.2,7.2,7.2,0,0,0-.13,1.94,7.92,7.92,0,0,0,.2,1.79l0,.22v0c-.42-.1.94.27-.94-.22l.14,0,.27,0c.18.05.39.07.54.13l.15.32c0,.07.12.29.13.25a.22.22,0,0,0,0-.08.06.06,0,0,0,0-.08c-.09-.05,0,.06.14.15l.3.27a3.86,3.86,0,0,0,.76.59,22.69,22.69,0,0,0,4.19,2.23c1.58.66,3.24,1.28,5,1.83,3.42,1.11,7,2.05,10.59,2.9a371.61,371.61,0,0,0,44.37,7C590.18,539.85,590,541.58,587.58,541.6Z"/>
          <path class="cls-14" d="M591.26,539.7a364,364,0,0,0,44.39-7c3.6-.85,7.17-1.8,10.59-2.92,1.72-.55,3.38-1.18,5-1.85a23.13,23.13,0,0,0,4.2-2.24,4.56,4.56,0,0,0,.75-.59l.3-.28.15-.13s0,0,0,0a.06.06,0,0,0,0,.08.25.25,0,0,0,0,.07,2,2,0,0,0,.13-.26l.29-.64.08-.17,0,0c.23-.54-.29.7-.24.56v-.05l0-.23a7.92,7.92,0,0,0,.19-1.79v-.95a7.21,7.21,0,0,0-.14-1A21,21,0,0,0,653.5,512a27.61,27.61,0,0,0-6.38-6.76l-.9-.67-.93-.55-.93-.54-.92-.4a9.31,9.31,0,0,0-1.79-.62l-.44-.13H641a1.21,1.21,0,0,1-.43-.12s0,0-.14,0l-.36,0-.7.05-.71.05-.35,0h-.13l.55-.07-.13,0c-.72.2-1.45.27-2.18.54a21.88,21.88,0,0,0-2.2.74c-.73.26-1.46.59-2.2.94a51.59,51.59,0,0,0-8.63,5.21,124.46,124.46,0,0,0-16,14.38c-5,5.28-9.91,10.9-14.54,16.69-1.38,1.76-6.27-1-5.11-3.25A139.65,139.65,0,0,1,600.21,518a98.74,98.74,0,0,1,16.36-17.15,56.26,56.26,0,0,1,10.51-6.72,30.8,30.8,0,0,1,3-1.3,28.46,28.46,0,0,1,3.15-1.08c1-.35,2.2-.53,3.31-.79l.2,0,.64-.08h.13l.35,0,.71-.05.7,0,.36,0,.56,0c.79.06,1.58.13,2.37.24.38.05.8.11,1.15.18l.91.27a19.42,19.42,0,0,1,3.51,1.29l1.64.79c.51.29,1,.61,1.49.92l1.46,1,1.33,1a36.56,36.56,0,0,1,8.58,10,30,30,0,0,1,4.23,12.87,15.56,15.56,0,0,1,.08,1.81l-.15,1.88a17,17,0,0,1-.8,3.76l-.13.46,0,.06c-.12.29.24-.56-.27.66l0,.07-.09.16-.34.61a4.19,4.19,0,0,1-.22.37l-.45.6c-.31.4-.63.79-1,1.16a4.94,4.94,0,0,1-.89.81l-.8.62a11.68,11.68,0,0,1-1.57,1,30.32,30.32,0,0,1-6,2.57q-2.94.93-5.82,1.56c-3.86.85-7.67,1.44-11.49,1.93-15.23,1.85-30.36,2.24-45.48,2.33C588.82,541.68,588.9,539.94,591.26,539.7Z"/>
          <rect class="cls-15" x="483.19" y="579.21" width="212.57" height="109.92"/>
          <g>
            <path class="cls-16" d="M621,652.51a6.75,6.75,0,0,0,.4-13.49,6.75,6.75,0,1,0-.4,13.49Z"/>
            <path class="cls-16" d="M598.58,616.4a6.74,6.74,0,1,0,6.68,7A6.61,6.61,0,0,0,598.58,616.4Z"/>
            <path class="cls-16" d="M627.9,600.6a6.75,6.75,0,1,0-7,6.65A6.6,6.6,0,0,0,627.9,600.6Z"/>
            <path class="cls-16" d="M591.76,668.16a6.62,6.62,0,0,0,6.7,7,6.74,6.74,0,1,0,.12-13.47A6.62,6.62,0,0,0,591.76,668.16Z"/>
            <path class="cls-16" d="M582.62,600.81a6.74,6.74,0,1,0-6.86,6.44A6.62,6.62,0,0,0,582.62,600.81Z"/>
            <path class="cls-16" d="M552.88,675.14a6.74,6.74,0,1,0-6.39-6.91A6.62,6.62,0,0,0,552.88,675.14Z"/>
            <path class="cls-16" d="M576.12,652.51a6.75,6.75,0,1,0-7-6.7A6.55,6.55,0,0,0,576.12,652.51Z"/>
            <path class="cls-16" d="M598.82,584.59a6.48,6.48,0,0,0,6.31-5.38H591.9A6.6,6.6,0,0,0,598.82,584.59Z"/>
            <path class="cls-16" d="M666.52,593.74a6.76,6.76,0,1,0,6.65,6.66A6.58,6.58,0,0,0,666.52,593.74Z"/>
            <path class="cls-16" d="M507.86,584.59a6.52,6.52,0,0,0,6.71-5.38H501.35A6.59,6.59,0,0,0,507.86,584.59Z"/>
            <path class="cls-16" d="M485.51,684.29a7,7,0,0,0-2.32.36v4.48h8.59A6.52,6.52,0,0,0,485.51,684.29Z"/>
            <path class="cls-16" d="M643.5,584.59a6.58,6.58,0,0,0,6.91-5.38H637.18A6.52,6.52,0,0,0,643.5,584.59Z"/>
            <path class="cls-16" d="M637.05,668.26a6.75,6.75,0,1,0,7.08-6.58A6.58,6.58,0,0,0,637.05,668.26Z"/>
            <path class="cls-16" d="M659.7,646a6.74,6.74,0,1,0,6.67-7A6.55,6.55,0,0,0,659.7,646Z"/>
            <path class="cls-16" d="M643.74,616.4a6.74,6.74,0,1,0,6.81,6.86A6.61,6.61,0,0,0,643.74,616.4Z"/>
            <path class="cls-16" d="M508.25,616.4a6.74,6.74,0,1,0-.56,13.47,6.74,6.74,0,0,0,.56-13.47Z"/>
            <path class="cls-16" d="M621.33,684.29a6.63,6.63,0,0,0-6.64,4.84h12.93A6.56,6.56,0,0,0,621.33,684.29Z"/>
            <path class="cls-16" d="M666.45,684.29a6.52,6.52,0,0,0-6.46,4.84h12.9A6.54,6.54,0,0,0,666.45,684.29Z"/>
            <path class="cls-16" d="M575.82,684.29a6.53,6.53,0,0,0-6.38,4.84h12.89A6.53,6.53,0,0,0,575.82,684.29Z"/>
            <path class="cls-16" d="M689.15,616.4a6.74,6.74,0,1,0,.22,13.47,6.49,6.49,0,0,0,6.38-6.13V622.5A6.51,6.51,0,0,0,689.15,616.4Z"/>
            <path class="cls-16" d="M688.79,584.59a6.53,6.53,0,0,0,6.88-5.38H682.44A6.58,6.58,0,0,0,688.79,584.59Z"/>
            <path class="cls-16" d="M530.48,684.29a6.61,6.61,0,0,0-6.34,4.84h13A6.61,6.61,0,0,0,530.48,684.29Z"/>
            <path class="cls-16" d="M689.39,661.68a6.74,6.74,0,1,0-.63,13.46,6.53,6.53,0,0,0,7-6.1V667.8A6.48,6.48,0,0,0,689.39,661.68Z"/>
            <path class="cls-16" d="M530.49,652.51a6.75,6.75,0,0,0,.23-13.49,6.75,6.75,0,1,0-.23,13.49Z"/>
            <path class="cls-16" d="M560,623.07a6.76,6.76,0,1,0-6.51,6.8A6.6,6.6,0,0,0,560,623.07Z"/>
            <path class="cls-16" d="M552.76,584.59a6.6,6.6,0,0,0,7.09-5.38H546.64A6.57,6.57,0,0,0,552.76,584.59Z"/>
            <path class="cls-16" d="M537.35,600.64a6.76,6.76,0,1,0-7.07,6.61A6.62,6.62,0,0,0,537.35,600.64Z"/>
            <path class="cls-16" d="M492.07,645.93a6.6,6.6,0,0,0-6.76-6.91,6.92,6.92,0,0,0-2.12.35v12.8a6.92,6.92,0,0,0,1.79.33A6.58,6.58,0,0,0,492.07,645.93Z"/>
            <path class="cls-16" d="M483.19,594.1v12.79a7.16,7.16,0,0,0,2.1.36,6.76,6.76,0,0,0,.08-13.51A7.06,7.06,0,0,0,483.19,594.1Z"/>
            <path class="cls-16" d="M501.21,668.57a6.75,6.75,0,1,0,6.79-6.9A6.58,6.58,0,0,0,501.21,668.57Z"/>
          </g>
          <rect class="cls-15" x="471.97" y="538.57" width="235" height="40.64"/>
          <rect class="cls-17" x="483.19" y="579.21" width="212.57" height="14.39"/>
          <rect class="cls-18" x="576.15" y="538.57" width="26.64" height="150.56"/>
          <path class="cls-18" d="M590.71,539.08a365.61,365.61,0,0,0,38-24c3-2.21,5.87-4.49,8.57-6.88,1.35-1.18,2.63-2.41,3.82-3.66a22.38,22.38,0,0,0,3-3.72,4.3,4.3,0,0,0,.47-.84l.16-.37.09-.19c0-.06,0,0,0,0a.09.09,0,0,0,0,.1l0,.06a1.8,1.8,0,0,0,0-.3v-.93c0-.58,0,.76,0,.61v-.05l-.07-.22a7.79,7.79,0,0,0-.53-1.73l-.37-.87a8.11,8.11,0,0,0-.53-.87,21,21,0,0,0-6.39-6.16,27.72,27.72,0,0,0-8.53-3.69l-1.1-.26-1.07-.13-1.06-.13h-1a8.75,8.75,0,0,0-1.89.14l-.45.05-.23.08a1.27,1.27,0,0,1-.44.07s0,0-.15,0l-.31.16-.63.33-.63.32-.31.17-.08,0,0,0c-.13.07,1-.56.49-.28l-.12.08c-.58.47-1.22.82-1.78,1.35a19.34,19.34,0,0,0-1.73,1.56c-.57.52-1.11,1.12-1.65,1.72a53.1,53.1,0,0,0-5.87,8.21,125.81,125.81,0,0,0-9,19.51c-2.54,6.85-4.8,13.94-6.75,21.09-.57,2.16-6.16,1.54-6-1a138.38,138.38,0,0,1,3.7-22.89,98.43,98.43,0,0,1,8.23-22.21,56,56,0,0,1,7-10.34c.7-.81,1.43-1.61,2.23-2.37a29.35,29.35,0,0,1,2.46-2.24c.82-.74,1.82-1.36,2.73-2l.17-.13.55-.32,0,0,.08,0,.31-.16.63-.32.63-.32.32-.16.53-.2c.74-.26,1.5-.5,2.26-.72.38-.1.78-.21,1.13-.28l1-.12a19.1,19.1,0,0,1,3.74-.2l1.81.07c.58.07,1.15.17,1.73.26l1.72.29,1.64.44a36.71,36.71,0,0,1,11.84,5.8,30,30,0,0,1,9,10.15,16.33,16.33,0,0,1,.78,1.63l.61,1.78a17,17,0,0,1,.76,3.77l.06.48v.06c0,.31,0-.61,0,.71v.08l0,.18-.08.7a3.52,3.52,0,0,1,0,.43l-.17.73c-.13.49-.27,1-.44,1.45a5.21,5.21,0,0,1-.5,1.09l-.49.89a11.82,11.82,0,0,1-1,1.54,30.22,30.22,0,0,1-4.51,4.74q-2.33,2-4.73,3.73c-3.2,2.31-6.47,4.37-9.78,6.33-13.27,7.72-27,14.07-40.85,20.13C589.24,541.86,588.63,540.23,590.71,539.08Z"/>
          <path class="cls-18" d="M587.39,540.78c-13.84-6.07-27.57-12.42-40.84-20.12-3.31-2-6.59-4-9.79-6.31-1.61-1.14-3.18-2.38-4.74-3.72a30.13,30.13,0,0,1-4.51-4.73,11.82,11.82,0,0,1-1-1.54l-.49-.88-.24-.44c-.08-.16-.18-.44-.26-.66-.17-.47-.31-1-.44-1.44l-.16-.73a3.34,3.34,0,0,1-.06-.41l-.08-.71v-.21c0,.56,0-.82,0-.7l0-.12.06-.48a17.05,17.05,0,0,1,.75-3.76l.6-1.78a15.32,15.32,0,0,1,.79-1.63,30,30,0,0,1,9-10.16,36.86,36.86,0,0,1,11.84-5.82l1.64-.44,1.72-.29c.58-.09,1.15-.2,1.74-.26l1.82-.08a19.9,19.9,0,0,1,3.74.2l1,.12c.36.08.76.19,1.14.29.76.22,1.53.46,2.27.72.17.07.41.14.52.2l.32.16.63.32.63.32.31.16.08,0,0,0,.56.33.17.12a32.84,32.84,0,0,1,2.73,2,29.56,29.56,0,0,1,2.47,2.23c.81.77,1.53,1.57,2.23,2.38a55.88,55.88,0,0,1,7,10.35,96.76,96.76,0,0,1,8.16,22.25,132.16,132.16,0,0,1,3.49,22.91c.15,2.43-5.43,3.2-6,1-1.85-7.16-4.05-14.26-6.55-21.13a120.69,120.69,0,0,0-8.89-19.55,52,52,0,0,0-5.87-8.21c-.54-.61-1.09-1.2-1.66-1.73a22.76,22.76,0,0,0-1.73-1.56c-.57-.53-1.21-.88-1.8-1.35l-.11-.08c1,.58.26.15.48.27l0,0-.08,0-.32-.16-.62-.33-.63-.32-.31-.16c-.08,0-.1,0-.15,0a1.12,1.12,0,0,1-.45-.06c-.08,0-.12-.06-.23-.09l-.46,0a8.16,8.16,0,0,0-1.89-.14h-1l-1.06.14-1.08.14-1.1.26A27.64,27.64,0,0,0,542,489a21,21,0,0,0-6.36,6.18,8.43,8.43,0,0,0-.89,1.74,7.67,7.67,0,0,0-.52,1.72l-.06.22v0c-.35-.26.76.62-.78-.57l.12.08.23.16a4.2,4.2,0,0,1,.44.33v.35c0,.09,0,.32,0,.28l0-.06a.08.08,0,0,0,0-.1c-.06-.08,0,.06.07.19l.16.37a4.9,4.9,0,0,0,.47.84,22.38,22.38,0,0,0,3,3.7c1.18,1.24,2.46,2.47,3.82,3.65,2.7,2.38,5.61,4.65,8.58,6.85a371.42,371.42,0,0,0,38,24C590.47,540.21,589.6,541.72,587.39,540.78Z"/>
        </g>
        <g>
          <path class="cls-19" d="M943.35,594.94c0-.1,0-.2,0-.3,0-18.63-13.47-35.68-33.72-35.68-16.1,0-25.43,11.57-28.61,22.39h0C877.84,570.53,868.51,559,852.42,559c-20.26,0-33.73,17-33.73,35.68,0,.1,0,.2,0,.3-.11,4,0,45.28,62.31,78.89h0C943.36,640.22,943.46,599,943.35,594.94Z"/>
          <path class="cls-20" d="M858.57,659.57A176.42,176.42,0,0,0,881,673.83h0c62.31-33.61,62.41-74.84,62.3-78.89,0-.1,0-.2,0-.3a38.26,38.26,0,0,0-.64-7C923.08,635,884.09,652.87,858.57,659.57Z"/>
          <path class="cls-21" d="M822.14,598.88s-.43-35.48,36.43-35.91C858.57,563,833.48,569.06,822.14,598.88Z"/>
        </g>
        <g>
          <circle class="cls-22" cx="877.83" cy="505.78" r="34.96"/>
          <path d="M866.87,491.71h22.27v4.86l-14.3,26.79H867.7l14.35-26H866.87Z"/>
        </g>
        <g>
          <ellipse class="cls-22" cx="589.94" cy="738.47" rx="37.32" ry="34.96"/>
          <path d="M602.37,743.21a9.79,9.79,0,0,1-1,4.44,10.67,10.67,0,0,1-2.73,3.52,13.2,13.2,0,0,1-4,2.26,14.32,14.32,0,0,1-4.8.82,14.08,14.08,0,0,1-4.87-.84,12.23,12.23,0,0,1-4-2.32,10.71,10.71,0,0,1-2.61-3.51,10.15,10.15,0,0,1-1-4.35,12.66,12.66,0,0,1,3-7.73L591,722.18h7.64l-8.77,10.71a11.88,11.88,0,0,1,1.55-.09,11.6,11.6,0,0,1,4.15.75,11.13,11.13,0,0,1,3.49,2.07,9.48,9.48,0,0,1,2.42,3.29A10.59,10.59,0,0,1,602.37,743.21Zm-6.6-.16a5.23,5.23,0,0,0-1.63-4.08,6.19,6.19,0,0,0-4.42-1.59,5.88,5.88,0,0,0-4.28,1.6,5.47,5.47,0,0,0-1.71,4A5.21,5.21,0,0,0,585.3,747a6,6,0,0,0,4.35,1.54A6.33,6.33,0,0,0,594,747,5.15,5.15,0,0,0,595.77,743.05Z"/>
        </g>
        <g>
          <ellipse class="cls-22" cx="582.62" cy="410.03" rx="37.32" ry="34.96"/>
          <path d="M582,404.86q13,0,13,10a10.33,10.33,0,0,1-3.27,8,12.31,12.31,0,0,1-8.63,3,15.13,15.13,0,0,1-6-1.17,10.38,10.38,0,0,1-4.39-3.49,9,9,0,0,1-1.66-5.33,9.65,9.65,0,0,1,.14-1.58l6.69-.28a8.46,8.46,0,0,0-.16,1.4,4.11,4.11,0,0,0,1.52,3.49,6,6,0,0,0,3.76,1.17,5.38,5.38,0,0,0,3.93-1.34,4.85,4.85,0,0,0,1.38-3.63,4.39,4.39,0,0,0-1.68-3.7c-1.13-.86-3-1.29-5.66-1.29H572l1.4-16.37h19.94v5.63H579.45l-.44,5.5Z"/>
        </g>
        <rect class="cls-22" x="779.69" y="364.91" width="196.29" height="79.11" rx="12"/>
        <rect class="cls-22" x="164.9" y="800.23" width="539.46" height="146.88" rx="27.11"/>
        <rect class="cls-22" x="110.62" y="539.52" width="324" height="153.51" rx="21.48"/>
        <g>
          <path d="M832.6,391.62H820.07v10.1h11v3.53h-11v10.07H832.6v3.57H816.06V388.05H832.6Z"/>
          <path d="M849.3,396.94a7.49,7.49,0,0,1,5.42,1.95,7.28,7.28,0,0,1,2,5.5v14.5H853V405.25a5.08,5.08,0,0,0-1.32-3.86,4.71,4.71,0,0,0-3.37-1.25,5.21,5.21,0,0,0-3.84,1.48,6,6,0,0,0-1.51,4.39v12.88h-3.79V397.36h3.79v2.76A7.19,7.19,0,0,1,849.3,396.94Z"/>
          <path d="M873,419.29a10.37,10.37,0,0,1-7.71-3.09,12.26,12.26,0,0,1,0-16.17,11.2,11.2,0,0,1,14-1.2,9.51,9.51,0,0,1,3.63,5.23l-3.55.57A6.44,6.44,0,0,0,873,400.1a6.36,6.36,0,0,0-5,2.21,9.56,9.56,0,0,0,0,11.6,6.38,6.38,0,0,0,5,2.2,6.44,6.44,0,0,0,6.33-4.53l3.55.59a9.49,9.49,0,0,1-3.65,5.22A10.37,10.37,0,0,1,873,419.29Z"/>
          <path d="M893.42,419.31a7.28,7.28,0,0,1-4.72-1.48,5.3,5.3,0,0,1-1.85-4.41,6.23,6.23,0,0,1,.59-2.82,4.91,4.91,0,0,1,1.75-2,10.57,10.57,0,0,1,2.53-1.22,24.86,24.86,0,0,1,3.27-.77l3.49-.57c1.27-.24,1.9-.9,1.9-2a3.75,3.75,0,0,0-1.34-3.2,6.25,6.25,0,0,0-6.78,0,4.13,4.13,0,0,0-1.6,3l-3.42-.73a6.59,6.59,0,0,1,2.69-4.61A10.09,10.09,0,0,1,895.8,397a11.83,11.83,0,0,1,3.13.38,8.68,8.68,0,0,1,2.6,1.2,5.46,5.46,0,0,1,1.87,2.33,8.72,8.72,0,0,1,.66,3.53v8.9a3.59,3.59,0,0,0,.5,2.24,2.12,2.12,0,0,0,1.7.58h.35v2.74h-1.89q-3.48,0-4.07-2.91h-.18A8.22,8.22,0,0,1,893.42,419.31Zm.87-3.07a5.75,5.75,0,0,0,4.63-2.08,8.6,8.6,0,0,0,1.75-5.69l-5.7,1.09a7.79,7.79,0,0,0-3.34,1.19,2.8,2.8,0,0,0-1.08,2.36,2.74,2.74,0,0,0,1,2.37A4.43,4.43,0,0,0,894.29,416.24Z"/>
          <path d="M907,429v-3.22a6.29,6.29,0,0,0,3.09-.61,3.35,3.35,0,0,0,1.44-2.11,17.49,17.49,0,0,0,.42-4.44V397.36h3.83v21.23q0,5.69-2,8T907,429Zm6.9-36.67a2.58,2.58,0,0,1-2.56-2.56,2.44,2.44,0,0,1,.75-1.8,2.49,2.49,0,0,1,1.81-.75,2.47,2.47,0,0,1,1.79.75,2.56,2.56,0,0,1-1.79,4.36Z"/>
          <path d="M942.36,407.7l-.05,1H925.49a7.61,7.61,0,0,0,2.06,5.51,6.74,6.74,0,0,0,4.91,1.91,6.44,6.44,0,0,0,3.57-1,6.67,6.67,0,0,0,2.45-2.84l3.42.72a9.7,9.7,0,0,1-3.68,4.62,10,10,0,0,1-5.72,1.69,10.43,10.43,0,0,1-7.76-3,12.8,12.8,0,0,1,0-16.37,10.25,10.25,0,0,1,7.63-3,9.72,9.72,0,0,1,7.24,2.76Q942.36,402.46,942.36,407.7Zm-10-7.84a6.68,6.68,0,0,0-4.48,1.52,7,7,0,0,0-2.27,4.43h12.91a6.4,6.4,0,0,0-1.89-4.43A6.05,6.05,0,0,0,932.39,399.86Z"/>
        </g>
        <line class="cls-23" x1="877.83" y1="444.02" x2="877.83" y2="470.82"/>
        <line class="cls-23" x1="587.58" y1="773.43" x2="587.58" y2="800.23"/>
        <line class="cls-23" x1="582.62" y1="346.64" x2="582.62" y2="373.44"/>
        <g>
          <ellipse class="cls-22" cx="279.05" cy="477.23" rx="37.32" ry="34.96"/>
          <path d="M292.13,481v5.63h-4.07v6h-6.73v-6H265.78v-5.65l12-20h10.31v20ZM272,481h9.31V464.73Z"/>
        </g>
        <line class="cls-23" x1="276.7" y1="512.19" x2="276.7" y2="538.99"/>
        <g>
          <path d="M304.41,854.9l-2.65-7.38H287.81l-2.63,7.38h-4.1l11.37-30.85h4.69l11.37,30.85Zm-15.35-10.84h11.48L294.8,828Z"/>
          <path d="M313.68,854.9V821.25h3.83V854.9Z"/>
          <path d="M327.15,828.3a2.58,2.58,0,0,1-2.56-2.56,2.39,2.39,0,0,1,.76-1.79,2.52,2.52,0,0,1,3.59,0,2.42,2.42,0,0,1,.75,1.79,2.49,2.49,0,0,1-.75,1.81A2.47,2.47,0,0,1,327.15,828.3Zm-1.92,26.6V833.37H329V854.9Z"/>
          <path d="M350.18,833.37h4.05l-8.76,21.53h-3.22l-8.72-21.53h4l6.31,17.13Z"/>
          <path d="M360.65,828.3a2.56,2.56,0,0,1-2.56-2.56,2.42,2.42,0,0,1,.75-1.79,2.48,2.48,0,0,1,1.81-.75,2.44,2.44,0,0,1,1.78.75,2.39,2.39,0,0,1,.76,1.79,2.58,2.58,0,0,1-2.54,2.56Zm-1.93,26.6V833.37h3.81V854.9Z"/>
          <path d="M375.22,855.32a7.34,7.34,0,0,1-4.72-1.48,5.31,5.31,0,0,1-1.86-4.42,6.16,6.16,0,0,1,.6-2.81,4.84,4.84,0,0,1,1.75-2,10.57,10.57,0,0,1,2.53-1.22,23.25,23.25,0,0,1,3.27-.78l3.49-.57c1.27-.23,1.9-.89,1.9-2a3.78,3.78,0,0,0-1.34-3.21,5.5,5.5,0,0,0-3.41-1,5.56,5.56,0,0,0-3.37,1,4.1,4.1,0,0,0-1.6,3l-3.42-.72a6.57,6.57,0,0,1,2.69-4.61A10.07,10.07,0,0,1,377.6,833a11.82,11.82,0,0,1,3.13.39,8.22,8.22,0,0,1,2.6,1.2,5.34,5.34,0,0,1,1.86,2.32,8.57,8.57,0,0,1,.67,3.54v8.89a3.62,3.62,0,0,0,.5,2.25,2.09,2.09,0,0,0,1.69.58h.35v2.74h-1.88q-3.48,0-4.07-2.91h-.18A8.24,8.24,0,0,1,375.22,855.32Zm.87-3.07a5.75,5.75,0,0,0,4.63-2.08,8.63,8.63,0,0,0,1.75-5.7l-5.7,1.1a7.67,7.67,0,0,0-3.34,1.19,2.78,2.78,0,0,0-1.08,2.36,2.72,2.72,0,0,0,1,2.36A4.43,4.43,0,0,0,376.09,852.25Z"/>
          <path d="M409.22,821.25H413V854.9h-3.66l-.09-4.18a7.92,7.92,0,0,1-3.07,3.39,8.55,8.55,0,0,1-4.55,1.25,9.81,9.81,0,0,1-7.11-3,10.31,10.31,0,0,1-2.17-3.56,12.91,12.91,0,0,1-.8-4.63,11.31,11.31,0,0,1,2.92-8.08,9.47,9.47,0,0,1,7.16-3.11,8.49,8.49,0,0,1,4.5,1.22,8,8,0,0,1,3.08,3.29Zm-6.8,30.82a6.45,6.45,0,0,0,5-2.26,8.89,8.89,0,0,0,0-11.32,6.44,6.44,0,0,0-5-2.28,6.56,6.56,0,0,0-5,2.21,9.05,9.05,0,0,0,0,11.45A6.55,6.55,0,0,0,402.42,852.07Z"/>
          <path d="M429.79,855.32a11.33,11.33,0,0,1-5.52-1.34,9.64,9.64,0,0,1-3.89-3.91,12,12,0,0,1-1.44-6A11,11,0,0,1,422,836a11.47,11.47,0,0,1,15.58,0,12.35,12.35,0,0,1,0,16.26A10.52,10.52,0,0,1,429.79,855.32Zm0-3.16a6.63,6.63,0,0,0,5.1-2.21,9.38,9.38,0,0,0,0-11.63,6.61,6.61,0,0,0-5.1-2.22,6.52,6.52,0,0,0-5.05,2.22,9.45,9.45,0,0,0,0,11.63A6.54,6.54,0,0,0,429.76,852.16Z"/>
          <path d="M450.27,837.16a6.52,6.52,0,0,1,2.67-2.9,8.14,8.14,0,0,1,4.14-1.14v3.58a7.1,7.1,0,0,0-5,1.59q-1.72,1.61-1.72,5.11v11.5h-3.79V833.37h3.7Z"/>
          <path d="M480.11,843.71l-.05,1H463.24a7.56,7.56,0,0,0,2.06,5.5,6.74,6.74,0,0,0,4.9,1.92,6.4,6.4,0,0,0,3.57-1,6.6,6.6,0,0,0,2.46-2.85l3.42.73a9.82,9.82,0,0,1-3.69,4.62,10,10,0,0,1-5.71,1.69,10.38,10.38,0,0,1-7.76-3,12.77,12.77,0,0,1,0-16.36,10.29,10.29,0,0,1,7.64-3,9.72,9.72,0,0,1,7.24,2.76C479.2,837.55,480.11,840.21,480.11,843.71Zm-10-7.85a6.69,6.69,0,0,0-4.48,1.53,7,7,0,0,0-2.27,4.43h12.9a6.35,6.35,0,0,0-1.88-4.43A6.06,6.06,0,0,0,470.14,835.86Z"/>
          <path d="M492.85,855.32a10.18,10.18,0,0,1-5.8-1.56,6.45,6.45,0,0,1-2.83-4.43l3.31-.94a4.54,4.54,0,0,0,1.77,3,5.7,5.7,0,0,0,3.53,1.07,7,7,0,0,0,2.07-.29,3.32,3.32,0,0,0,1.59-1.06,2.86,2.86,0,0,0,.64-2,3.13,3.13,0,0,0-.18-.89,3.61,3.61,0,0,0-.35-.71A2.16,2.16,0,0,0,496,847a7,7,0,0,0-.75-.46,8.06,8.06,0,0,0-1-.41l-1-.35-1.21-.35-1.25-.36a23.53,23.53,0,0,1-2.23-.79,9.53,9.53,0,0,1-1.82-1,4.08,4.08,0,0,1-1.41-1.7,6.26,6.26,0,0,1,.58-5.85,5.88,5.88,0,0,1,2.73-2,10.77,10.77,0,0,1,3.82-.63,9.35,9.35,0,0,1,5.25,1.41,6,6,0,0,1,2.61,4.2l-3.11.79a4.13,4.13,0,0,0-1.64-2.73,5.78,5.78,0,0,0-6-.15,2.54,2.54,0,0,0-1.21,2.31,2.28,2.28,0,0,0,.32,1.19,3.85,3.85,0,0,0,.65.85,3.93,3.93,0,0,0,1.18.64c.57.23,1,.38,1.27.46s.8.22,1.58.41l.33.09c.84.22,1.53.41,2.07.58a12.94,12.94,0,0,1,1.86.79A5.91,5.91,0,0,1,499.3,845a5.77,5.77,0,0,1,1.05,1.66,5.94,5.94,0,0,1,.43,2.33,6.29,6.29,0,0,1-.64,2.9,5.05,5.05,0,0,1-1.76,2,8.7,8.7,0,0,1-2.51,1.08A11.57,11.57,0,0,1,492.85,855.32Z"/>
          <path d="M534.3,821.25h3.79V854.9h-3.66l-.08-4.18a7.92,7.92,0,0,1-3.07,3.39,8.58,8.58,0,0,1-4.56,1.25,9.76,9.76,0,0,1-3.9-.8,10,10,0,0,1-3.21-2.23,10.45,10.45,0,0,1-2.16-3.56,12.91,12.91,0,0,1-.8-4.63,11.31,11.31,0,0,1,2.92-8.08,9.45,9.45,0,0,1,7.15-3.11,8.49,8.49,0,0,1,4.5,1.22,7.94,7.94,0,0,1,3.08,3.29Zm-6.79,30.82a6.45,6.45,0,0,0,5-2.26,8.92,8.92,0,0,0,0-11.32,6.46,6.46,0,0,0-5-2.28,6.6,6.6,0,0,0-5,2.21,9.09,9.09,0,0,0,0,11.45A6.59,6.59,0,0,0,527.51,852.07Z"/>
          <path d="M564.64,843.71l0,1H547.78a7.56,7.56,0,0,0,2.05,5.5,6.77,6.77,0,0,0,4.91,1.92,6.4,6.4,0,0,0,3.57-1,6.6,6.6,0,0,0,2.46-2.85l3.41.73a9.74,9.74,0,0,1-3.68,4.62,10.07,10.07,0,0,1-5.72,1.69,10.37,10.37,0,0,1-7.75-3A12.77,12.77,0,0,1,547,836a10.29,10.29,0,0,1,7.64-3,9.74,9.74,0,0,1,7.24,2.76C563.73,837.55,564.64,840.21,564.64,843.71Zm-10-7.85a6.67,6.67,0,0,0-4.48,1.53,7,7,0,0,0-2.27,4.43h12.9a6.35,6.35,0,0,0-1.88-4.43A6.08,6.08,0,0,0,554.68,835.86Z"/>
          <path d="M212.75,878.27h-.83c-.16,0-.43,0-.78,0a5.47,5.47,0,0,0-.79.11c-.17,0-.4.12-.68.22a1.66,1.66,0,0,0-.65.37c-.14.15-.31.33-.5.56a2.42,2.42,0,0,0-.43.79,9.22,9.22,0,0,0-.24,1,7.91,7.91,0,0,0-.1,1.35v4.44h5v3h-5v18.51H204V890.23h-4.16v-3H204v-4.51a12.7,12.7,0,0,1,.23-2.51,8.22,8.22,0,0,1,.62-1.89,4.31,4.31,0,0,1,1-1.37,5.67,5.67,0,0,1,1.32-.93,6.23,6.23,0,0,1,1.63-.55,15.58,15.58,0,0,1,1.85-.27c.61-.06,1.31-.08,2.1-.08Z"/>
          <path d="M220.83,891a6.55,6.55,0,0,1,2.67-2.89,8.14,8.14,0,0,1,4.14-1.14v3.57a7.1,7.1,0,0,0-5,1.6q-1.72,1.61-1.72,5.11v11.5h-3.79V887.2h3.7Z"/>
          <path d="M245.5,887.2h3.79v21.54h-3.64l-.09-2.85a6.7,6.7,0,0,1-2.67,2.42,8.26,8.26,0,0,1-3.77.84,7.49,7.49,0,0,1-5.42-1.95,7.27,7.27,0,0,1-2-5.49V887.2h3.79v13.65a5.15,5.15,0,0,0,1.33,3.86,4.71,4.71,0,0,0,3.38,1.27,5.18,5.18,0,0,0,3.83-1.49,6.12,6.12,0,0,0,1.5-4.41Z"/>
          <path d="M263.81,909.15a10.15,10.15,0,0,1-5.8-1.55,6.41,6.41,0,0,1-2.83-4.43l3.31-.94a4.59,4.59,0,0,0,1.76,3,5.7,5.7,0,0,0,3.54,1.06,7.05,7.05,0,0,0,2.07-.28,3.32,3.32,0,0,0,1.59-1.06,2.87,2.87,0,0,0,.63-2,2.82,2.82,0,0,0-.17-.89,4.27,4.27,0,0,0-.35-.71,2.08,2.08,0,0,0-.62-.59,6.07,6.07,0,0,0-.74-.46,6.91,6.91,0,0,0-1-.41c-.43-.15-.77-.27-1-.35l-1.2-.35-1.25-.36c-.91-.28-1.65-.54-2.24-.79a10,10,0,0,1-1.81-1,4.25,4.25,0,0,1-1.42-1.7,5.82,5.82,0,0,1-.47-2.41,5.58,5.58,0,0,1,1-3.44,5.93,5.93,0,0,1,2.73-2,10.81,10.81,0,0,1,3.82-.63,9.38,9.38,0,0,1,5.25,1.4,6,6,0,0,1,2.62,4.21l-3.11.79a4.17,4.17,0,0,0-1.64-2.73,5.24,5.24,0,0,0-3.09-.91,5.31,5.31,0,0,0-2.9.76,2.53,2.53,0,0,0-1.2,2.31,2.31,2.31,0,0,0,.32,1.19,3.84,3.84,0,0,0,.64.85,4,4,0,0,0,1.19.64c.57.23,1,.38,1.27.46s.8.22,1.57.41l.33.08c.85.22,1.54.42,2.07.59a11.9,11.9,0,0,1,1.86.78,6.13,6.13,0,0,1,1.68,1.18,5.26,5.26,0,0,1,1.05,1.66,5.92,5.92,0,0,1,.44,2.32,6.18,6.18,0,0,1-.65,2.91,5,5,0,0,1-1.76,2,8.47,8.47,0,0,1-2.51,1.08A12,12,0,0,1,263.81,909.15Z"/>
          <path d="M284.58,908.74a5.67,5.67,0,0,1-4.21-1.55,5.84,5.84,0,0,1-1.53-4.3V890.23h-4.41v-3h1.63a3.12,3.12,0,0,0,2.37-.75,3.73,3.73,0,0,0,.69-2.53V880h3.53v7.18h5v3h-5v12.26a3.25,3.25,0,0,0,.82,2.38,2.89,2.89,0,0,0,2.16.84h2v3Z"/>
          <path d="M296.78,891a6.55,6.55,0,0,1,2.67-2.89,8.14,8.14,0,0,1,4.14-1.14v3.57a7.1,7.1,0,0,0-5,1.6q-1.72,1.61-1.72,5.11v11.5h-3.79V887.2h3.7Z"/>
          <path d="M312.75,909.15a7.3,7.3,0,0,1-4.72-1.48,5.27,5.27,0,0,1-1.85-4.41,6.16,6.16,0,0,1,.59-2.81,4.92,4.92,0,0,1,1.75-2,10.38,10.38,0,0,1,2.53-1.22,23.42,23.42,0,0,1,3.28-.78l3.48-.57c1.27-.23,1.91-.9,1.91-2a3.76,3.76,0,0,0-1.35-3.21,5.5,5.5,0,0,0-3.41-1,5.56,5.56,0,0,0-3.37,1,4.09,4.09,0,0,0-1.6,3l-3.42-.72a6.55,6.55,0,0,1,2.7-4.61,10,10,0,0,1,5.87-1.55,12.12,12.12,0,0,1,3.12.38,8.63,8.63,0,0,1,2.61,1.21,5.49,5.49,0,0,1,1.86,2.32,8.73,8.73,0,0,1,.67,3.54v8.89a3.65,3.65,0,0,0,.49,2.25,2.12,2.12,0,0,0,1.7.58h.35v2.74h-1.89q-3.48,0-4.07-2.92h-.18A8.21,8.21,0,0,1,312.75,909.15Zm.88-3.06a5.77,5.77,0,0,0,4.62-2.08,8.57,8.57,0,0,0,1.75-5.7l-5.7,1.1A7.59,7.59,0,0,0,311,900.6a3.16,3.16,0,0,0,0,4.72A4.46,4.46,0,0,0,313.63,906.09Z"/>
          <path d="M339.78,909.13a10.37,10.37,0,0,1-7.71-3.09,12.27,12.27,0,0,1,0-16.16,10.36,10.36,0,0,1,7.72-3.09,10.47,10.47,0,0,1,6.23,1.88,9.53,9.53,0,0,1,3.63,5.24l-3.55.57a6.43,6.43,0,0,0-6.33-4.54,6.37,6.37,0,0,0-5,2.21,9.56,9.56,0,0,0,0,11.6,6.37,6.37,0,0,0,5,2.21,6.46,6.46,0,0,0,6.33-4.54l3.55.59a9.54,9.54,0,0,1-3.65,5.23A10.43,10.43,0,0,1,339.78,909.13Z"/>
          <path d="M357.15,882.14a2.58,2.58,0,0,1-2.56-2.56,2.43,2.43,0,0,1,.76-1.8,2.55,2.55,0,1,1,3.59,3.61A2.45,2.45,0,0,1,357.15,882.14Zm-1.92,26.6V887.2H359v21.54Z"/>
          <path d="M375.82,909.15a11.33,11.33,0,0,1-5.52-1.33,9.76,9.76,0,0,1-3.89-3.91A12,12,0,0,1,365,898a11,11,0,0,1,3.06-8.12,11.49,11.49,0,0,1,15.59,0,12.38,12.38,0,0,1,0,16.26A10.59,10.59,0,0,1,375.82,909.15Zm0-3.15a6.63,6.63,0,0,0,5.09-2.21,9.36,9.36,0,0,0,0-11.64,6.63,6.63,0,0,0-5.09-2.21,6.53,6.53,0,0,0-5.05,2.21,9.43,9.43,0,0,0,0,11.64A6.53,6.53,0,0,0,375.8,906Z"/>
          <path d="M402.76,886.79a7.5,7.5,0,0,1,5.43,2,7.27,7.27,0,0,1,2,5.5v14.5h-3.79V895.09a5.13,5.13,0,0,0-1.31-3.86,4.71,4.71,0,0,0-3.38-1.24,5.22,5.22,0,0,0-3.83,1.47,6,6,0,0,0-1.51,4.4v12.88H392.6V887.2h3.79V890A7.2,7.2,0,0,1,402.76,886.79Z"/>
          <path d="M436.37,897.54l-.05,1H419.5a7.63,7.63,0,0,0,2.06,5.51,6.75,6.75,0,0,0,4.91,1.92,6.44,6.44,0,0,0,3.57-1,6.76,6.76,0,0,0,2.45-2.85l3.42.72a9.78,9.78,0,0,1-3.68,4.63,10.08,10.08,0,0,1-5.72,1.68,10.39,10.39,0,0,1-7.75-3,12.77,12.77,0,0,1,0-16.36,10.27,10.27,0,0,1,7.63-3,9.72,9.72,0,0,1,7.24,2.76Q436.37,892.31,436.37,897.54Zm-10-7.84a6.75,6.75,0,0,0-4.48,1.52,7,7,0,0,0-2.27,4.44h12.91a6.44,6.44,0,0,0-1.89-4.44A6.1,6.1,0,0,0,426.4,889.7Z"/>
          <path d="M449.12,909.15a10.21,10.21,0,0,1-5.81-1.55,6.4,6.4,0,0,1-2.82-4.43l3.31-.94a4.59,4.59,0,0,0,1.76,3,5.7,5.7,0,0,0,3.54,1.06,7.05,7.05,0,0,0,2.07-.28,3.32,3.32,0,0,0,1.59-1.06,2.92,2.92,0,0,0,.63-2,2.82,2.82,0,0,0-.17-.89,3.62,3.62,0,0,0-.36-.71,2,2,0,0,0-.61-.59,6.05,6.05,0,0,0-1.72-.87l-1-.35-1.2-.35-1.25-.36c-.91-.28-1.65-.54-2.24-.79a10.45,10.45,0,0,1-1.82-1,4.31,4.31,0,0,1-1.41-1.7,5.82,5.82,0,0,1-.47-2.41,5.58,5.58,0,0,1,1-3.44,5.88,5.88,0,0,1,2.73-2,10.81,10.81,0,0,1,3.82-.63,9.38,9.38,0,0,1,5.25,1.4,6,6,0,0,1,2.62,4.21l-3.11.79a4.18,4.18,0,0,0-1.65-2.73,5.2,5.2,0,0,0-3.09-.91,5.3,5.3,0,0,0-2.89.76,2.53,2.53,0,0,0-1.2,2.31,2.21,2.21,0,0,0,.32,1.19,3.84,3.84,0,0,0,.64.85,3.93,3.93,0,0,0,1.18.64c.57.23,1,.38,1.28.46s.8.22,1.57.41l.33.08c.85.22,1.54.42,2.07.59a12.76,12.76,0,0,1,1.86.78,6.13,6.13,0,0,1,1.68,1.18,5.26,5.26,0,0,1,1.05,1.66,5.92,5.92,0,0,1,.44,2.32,6.3,6.3,0,0,1-.65,2.91,5.05,5.05,0,0,1-1.76,2,8.59,8.59,0,0,1-2.51,1.08A12,12,0,0,1,449.12,909.15Z"/>
          <path d="M483.73,909.15a11.38,11.38,0,0,1-5.52-1.33,9.76,9.76,0,0,1-3.89-3.91,12,12,0,0,1-1.43-5.95,11,11,0,0,1,3.05-8.12,11.49,11.49,0,0,1,15.59,0,12.38,12.38,0,0,1,0,16.26A10.57,10.57,0,0,1,483.73,909.15Zm0-3.15a6.63,6.63,0,0,0,5.09-2.21,9.36,9.36,0,0,0,0-11.64,6.63,6.63,0,0,0-5.09-2.21,6.54,6.54,0,0,0-5,2.21,9.47,9.47,0,0,0,0,11.64A6.54,6.54,0,0,0,483.71,906Z"/>
          <path d="M528.07,875.09h3.79v33.65H528.2l-.09-4.19a7.86,7.86,0,0,1-3.06,3.4,8.58,8.58,0,0,1-4.56,1.25,9.76,9.76,0,0,1-3.9-.8,9.63,9.63,0,0,1-3.21-2.24,10.43,10.43,0,0,1-2.17-3.56,13,13,0,0,1-.8-4.62,11.32,11.32,0,0,1,2.93-8.08,9.41,9.41,0,0,1,7.15-3.11A8.58,8.58,0,0,1,525,888a8,8,0,0,1,3.08,3.3Zm-6.79,30.82a6.41,6.41,0,0,0,5-2.27,8.87,8.87,0,0,0,0-11.31,6.42,6.42,0,0,0-5-2.28,6.62,6.62,0,0,0-5,2.2,9.07,9.07,0,0,0,0,11.46A6.59,6.59,0,0,0,521.28,905.91Z"/>
          <path d="M548.64,909.15a11.38,11.38,0,0,1-5.52-1.33,9.76,9.76,0,0,1-3.89-3.91A12.1,12.1,0,0,1,537.8,898a11,11,0,0,1,3.05-8.12,11.49,11.49,0,0,1,15.59,0,12.38,12.38,0,0,1,0,16.26A10.59,10.59,0,0,1,548.64,909.15Zm0-3.15a6.63,6.63,0,0,0,5.09-2.21,9.36,9.36,0,0,0,0-11.64,6.63,6.63,0,0,0-5.09-2.21,6.54,6.54,0,0,0-5,2.21,9.43,9.43,0,0,0,0,11.64A6.54,6.54,0,0,0,548.62,906Z"/>
          <path d="M565.42,908.74V875.09h3.83v33.65Z"/>
          <path d="M586,909.15a11.38,11.38,0,0,1-5.52-1.33,9.74,9.74,0,0,1-3.88-3.91,12,12,0,0,1-1.44-5.95,11,11,0,0,1,3.06-8.12,11.47,11.47,0,0,1,15.58,0,12.35,12.35,0,0,1,0,16.26A10.56,10.56,0,0,1,586,909.15Zm0-3.15a6.63,6.63,0,0,0,5.1-2.21,9.39,9.39,0,0,0,0-11.64,6.63,6.63,0,0,0-5.1-2.21,6.54,6.54,0,0,0-5,2.21,9.47,9.47,0,0,0,0,11.64A6.54,6.54,0,0,0,586,906Z"/>
          <path d="M606.52,891a6.55,6.55,0,0,1,2.67-2.89,8.14,8.14,0,0,1,4.14-1.14v3.57a7.14,7.14,0,0,0-5,1.6q-1.71,1.61-1.71,5.11v11.5h-3.79V887.2h3.7Z"/>
          <path d="M636.35,897.54l0,1H619.49a7.55,7.55,0,0,0,2.06,5.51,6.73,6.73,0,0,0,4.9,1.92,6.4,6.4,0,0,0,3.57-1,6.71,6.71,0,0,0,2.46-2.85l3.41.72a9.72,9.72,0,0,1-3.68,4.63,10.05,10.05,0,0,1-5.71,1.68,10.41,10.41,0,0,1-7.76-3,12.77,12.77,0,0,1,0-16.36,10.29,10.29,0,0,1,7.64-3,9.72,9.72,0,0,1,7.24,2.76C635.45,891.39,636.35,894.05,636.35,897.54Zm-10-7.84a6.72,6.72,0,0,0-4.48,1.52,7,7,0,0,0-2.27,4.44h12.9a6.39,6.39,0,0,0-1.88-4.44A6.11,6.11,0,0,0,626.39,889.7Z"/>
          <path d="M649.1,909.15a10.17,10.17,0,0,1-5.8-1.55,6.45,6.45,0,0,1-2.83-4.43l3.31-.94a4.59,4.59,0,0,0,1.76,3,5.72,5.72,0,0,0,3.54,1.06,7.05,7.05,0,0,0,2.07-.28,3.32,3.32,0,0,0,1.59-1.06,2.88,2.88,0,0,0,.64-2,3.13,3.13,0,0,0-.18-.89,3.61,3.61,0,0,0-.35-.71,2.16,2.16,0,0,0-.61-.59,7,7,0,0,0-.75-.46,6.69,6.69,0,0,0-1-.41l-1-.35-1.21-.35-1.25-.36a23.53,23.53,0,0,1-2.23-.79,10.1,10.1,0,0,1-1.82-1,4.14,4.14,0,0,1-1.41-1.7,5.67,5.67,0,0,1-.47-2.41,5.58,5.58,0,0,1,1-3.44,5.9,5.9,0,0,1,2.72-2,10.87,10.87,0,0,1,3.83-.63,9.37,9.37,0,0,1,5.24,1.4,6,6,0,0,1,2.62,4.21l-3.11.79a4.13,4.13,0,0,0-1.64-2.73,5.2,5.2,0,0,0-3.09-.91,5.25,5.25,0,0,0-2.89.76,2.52,2.52,0,0,0-1.21,2.31,2.31,2.31,0,0,0,.32,1.19,3.85,3.85,0,0,0,.65.85,3.93,3.93,0,0,0,1.18.64c.57.23,1,.38,1.27.46s.8.22,1.58.41l.33.08c.84.22,1.53.42,2.07.59a12.76,12.76,0,0,1,1.86.78,5.91,5.91,0,0,1,1.67,1.18,5.46,5.46,0,0,1,1.06,1.66,5.92,5.92,0,0,1,.43,2.32,6.3,6.3,0,0,1-.64,2.91,5,5,0,0,1-1.77,2,8.53,8.53,0,0,1-2.5,1.08A12.08,12.08,0,0,1,649.1,909.15Z"/>
        </g>
        <g>
          <ellipse class="cls-22" cx="1186.87" cy="738.47" rx="37.32" ry="34.96"/>
          <path d="M1186.81,754.27q-6.32,0-9.22-2.89t-2.9-8.85l6.9-.29a21.53,21.53,0,0,0,.11,2.33,7.66,7.66,0,0,0,.42,1.79,3.13,3.13,0,0,0,.89,1.35,4,4,0,0,0,1.52.78,8,8,0,0,0,2.28.28,5.68,5.68,0,0,0,4-1.27,4.88,4.88,0,0,0,.06-6.76,5.23,5.23,0,0,0-3.58-1.17H1186v-4.91h1.22a3.78,3.78,0,0,0,2.79-1.11,3.87,3.87,0,0,0,1.12-2.83,3.11,3.11,0,0,0-1.22-2.63,5.19,5.19,0,0,0-3.2-.92,5,5,0,0,0-1.83.3,3.67,3.67,0,0,0-1.23.75,3.46,3.46,0,0,0-.72,1.16,5.6,5.6,0,0,0-.35,1.38,12.06,12.06,0,0,0-.08,1.54l-6.81-.31q0-5,2.9-7.61c1.93-1.76,4.62-2.64,8-2.64a12,12,0,0,1,7.71,2.42,7.39,7.39,0,0,1,3,6,6.53,6.53,0,0,1-1.3,4.08,7.32,7.32,0,0,1-3,2.41,8.3,8.3,0,0,1,2.15.9,8.49,8.49,0,0,1,1.88,1.51,6.64,6.64,0,0,1,1.39,2.3,9.37,9.37,0,0,1-2.83,10.22A13.77,13.77,0,0,1,1186.81,754.27Z"/>
        </g>
        <rect class="cls-22" x="1059.44" y="800.23" width="351.67" height="146.88" rx="21.89"/>
        <line class="cls-23" x1="1184.51" y1="773.43" x2="1184.51" y2="800.23"/>
        <g>
          <path d="M1116.66,827.63H1104V837.7h11v3.55h-11V854.9h-4V824.05h16.68Z"/>
          <path d="M1126,837.16a6.52,6.52,0,0,1,2.67-2.9,8.14,8.14,0,0,1,4.14-1.14v3.58a7.1,7.1,0,0,0-5,1.59q-1.72,1.61-1.72,5.11v11.5h-3.79V833.37h3.7Z"/>
          <path d="M1150.65,833.37h3.79V854.9h-3.63l-.09-2.85a6.7,6.7,0,0,1-2.67,2.42,8.27,8.27,0,0,1-3.77.85,7.49,7.49,0,0,1-5.42-2,7.29,7.29,0,0,1-2-5.5v-14.5h3.79V847a5.09,5.09,0,0,0,1.33,3.86,4.67,4.67,0,0,0,3.38,1.27,5.15,5.15,0,0,0,3.82-1.49,6,6,0,0,0,1.5-4.4Z"/>
          <path d="M1169,855.32a10.21,10.21,0,0,1-5.81-1.56,6.43,6.43,0,0,1-2.82-4.43l3.31-.94a4.57,4.57,0,0,0,1.76,3,5.71,5.71,0,0,0,3.54,1.07,7,7,0,0,0,2.07-.29,3.32,3.32,0,0,0,1.59-1.06,2.86,2.86,0,0,0,.63-2,2.82,2.82,0,0,0-.17-.89,4.27,4.27,0,0,0-.35-.71,2.21,2.21,0,0,0-.62-.59,6.94,6.94,0,0,0-.74-.46,8.34,8.34,0,0,0-1-.41l-1-.35-1.2-.35-1.25-.36c-.91-.28-1.65-.54-2.24-.79a9.47,9.47,0,0,1-1.81-1,4.18,4.18,0,0,1-1.42-1.7,5.79,5.79,0,0,1-.47-2.41,5.58,5.58,0,0,1,1-3.44,5.88,5.88,0,0,1,2.73-2,10.81,10.81,0,0,1,3.82-.63,9.31,9.31,0,0,1,5.25,1.41,6,6,0,0,1,2.62,4.2l-3.11.79a4.18,4.18,0,0,0-1.65-2.73,5.78,5.78,0,0,0-6-.15,2.53,2.53,0,0,0-1.2,2.31,2.19,2.19,0,0,0,.32,1.19,3.84,3.84,0,0,0,.64.85,3.88,3.88,0,0,0,1.19.64,12.92,12.92,0,0,0,1.27.46c.27.08.8.22,1.57.41l.33.09c.85.22,1.54.41,2.07.58a12.94,12.94,0,0,1,1.86.79,5.91,5.91,0,0,1,1.68,1.17,5.38,5.38,0,0,1,1,1.66,5.94,5.94,0,0,1,.44,2.33,6.29,6.29,0,0,1-.65,2.9,5.05,5.05,0,0,1-1.76,2A8.59,8.59,0,0,1,1172,855,11.55,11.55,0,0,1,1169,855.32Z"/>
          <path d="M1189.74,854.9a5.69,5.69,0,0,1-4.21-1.54,5.86,5.86,0,0,1-1.53-4.31V836.39h-4.41v-3h1.62a3.13,3.13,0,0,0,2.38-.76,3.72,3.72,0,0,0,.69-2.53v-3.9h3.53v7.19h5v3h-5v12.27a3.24,3.24,0,0,0,.82,2.37,2.86,2.86,0,0,0,2.16.85h2v3Z"/>
          <path d="M1201.94,837.16a6.52,6.52,0,0,1,2.67-2.9,8.14,8.14,0,0,1,4.14-1.14v3.58a7.1,7.1,0,0,0-5,1.59q-1.73,1.61-1.72,5.11v11.5h-3.79V833.37h3.7Z"/>
          <path d="M1217.91,855.32a7.36,7.36,0,0,1-4.72-1.48,5.31,5.31,0,0,1-1.85-4.42,6.16,6.16,0,0,1,.59-2.81,4.92,4.92,0,0,1,1.75-2,10.57,10.57,0,0,1,2.53-1.22,23.42,23.42,0,0,1,3.28-.78l3.48-.57c1.27-.23,1.91-.89,1.91-2a3.76,3.76,0,0,0-1.35-3.21,5.5,5.5,0,0,0-3.41-1,5.56,5.56,0,0,0-3.37,1,4.1,4.1,0,0,0-1.6,3l-3.42-.72a6.55,6.55,0,0,1,2.7-4.61,10,10,0,0,1,5.87-1.55,11.69,11.69,0,0,1,3.12.39,8.22,8.22,0,0,1,2.6,1.2,5.43,5.43,0,0,1,1.87,2.32,8.74,8.74,0,0,1,.66,3.54v8.89a3.62,3.62,0,0,0,.5,2.25,2.12,2.12,0,0,0,1.7.58h.35v2.74h-1.89q-3.48,0-4.07-2.91H1225A8.21,8.21,0,0,1,1217.91,855.32Zm.87-3.07a5.75,5.75,0,0,0,4.63-2.08,8.57,8.57,0,0,0,1.75-5.7l-5.7,1.1a7.72,7.72,0,0,0-3.34,1.19,2.78,2.78,0,0,0-1.08,2.36,2.72,2.72,0,0,0,1,2.36A4.45,4.45,0,0,0,1218.78,852.25Z"/>
          <path d="M1244.94,855.29a10.4,10.4,0,0,1-7.71-3.08,12.26,12.26,0,0,1,0-16.17,10.36,10.36,0,0,1,7.72-3.09,10.47,10.47,0,0,1,6.23,1.88,9.53,9.53,0,0,1,3.63,5.24l-3.55.57a6.46,6.46,0,0,0-6.33-4.54,6.37,6.37,0,0,0-5,2.22,9.56,9.56,0,0,0,0,11.6,6.41,6.41,0,0,0,5,2.2,6.64,6.64,0,0,0,3.9-1.19,6.54,6.54,0,0,0,2.43-3.35l3.55.59a9.51,9.51,0,0,1-3.65,5.23A10.43,10.43,0,0,1,1244.94,855.29Z"/>
          <path d="M1262.31,828.3a2.58,2.58,0,0,1-2.56-2.56,2.39,2.39,0,0,1,.76-1.79,2.52,2.52,0,0,1,3.59,0,2.42,2.42,0,0,1,.75,1.79,2.49,2.49,0,0,1-.75,1.81A2.47,2.47,0,0,1,1262.31,828.3Zm-1.93,26.6V833.37h3.82V854.9Z"/>
          <path d="M1281,855.32a11.33,11.33,0,0,1-5.52-1.34,9.64,9.64,0,0,1-3.89-3.91,12,12,0,0,1-1.44-6,11,11,0,0,1,3.06-8.12,11.49,11.49,0,0,1,15.59,0,12.38,12.38,0,0,1,0,16.26A10.56,10.56,0,0,1,1281,855.32Zm0-3.16a6.63,6.63,0,0,0,5.09-2.21,9.34,9.34,0,0,0,0-11.63,6.6,6.6,0,0,0-5.09-2.22,6.5,6.5,0,0,0-5,2.22,9.42,9.42,0,0,0,0,11.63A6.53,6.53,0,0,0,1281,852.16Z"/>
          <path d="M1307.92,833a7.47,7.47,0,0,1,5.42,1.95,7.24,7.24,0,0,1,2,5.5v14.5h-3.79V841.25a5.09,5.09,0,0,0-1.31-3.85,4.68,4.68,0,0,0-3.38-1.25,5.19,5.19,0,0,0-3.83,1.48,6,6,0,0,0-1.51,4.39V854.9h-3.79V833.37h3.79v2.76A7.18,7.18,0,0,1,1307.92,833Z"/>
          <path d="M1341.53,843.71l0,1h-16.82a7.56,7.56,0,0,0,2.06,5.5,6.75,6.75,0,0,0,4.91,1.92,6.44,6.44,0,0,0,3.57-1,6.64,6.64,0,0,0,2.45-2.85l3.42.73a9.8,9.8,0,0,1-3.68,4.62,10.09,10.09,0,0,1-5.72,1.69,10.4,10.4,0,0,1-7.76-3,12.78,12.78,0,0,1,0-16.36,10.25,10.25,0,0,1,7.63-3,9.72,9.72,0,0,1,7.24,2.76C1340.62,837.55,1341.53,840.21,1341.53,843.71Zm-10-7.85a6.71,6.71,0,0,0-4.48,1.53,7,7,0,0,0-2.27,4.43h12.91a6.4,6.4,0,0,0-1.89-4.43A6.06,6.06,0,0,0,1331.56,835.86Z"/>
          <path d="M1354.28,855.32a10.21,10.21,0,0,1-5.81-1.56,6.4,6.4,0,0,1-2.82-4.43l3.3-.94a4.62,4.62,0,0,0,1.77,3,5.71,5.71,0,0,0,3.54,1.07,7.14,7.14,0,0,0,2.07-.29,3.25,3.25,0,0,0,1.58-1.06,2.86,2.86,0,0,0,.64-2,2.82,2.82,0,0,0-.18-.89,3.61,3.61,0,0,0-.35-.71,2,2,0,0,0-.61-.59,8.11,8.11,0,0,0-.74-.46,8.34,8.34,0,0,0-1-.41l-1-.35-1.21-.35-1.24-.36c-.91-.28-1.65-.54-2.24-.79a9.84,9.84,0,0,1-1.82-1,4.08,4.08,0,0,1-1.41-1.7,5.79,5.79,0,0,1-.47-2.41,5.58,5.58,0,0,1,1-3.44,5.88,5.88,0,0,1,2.73-2,10.81,10.81,0,0,1,3.82-.63,9.35,9.35,0,0,1,5.25,1.41,6,6,0,0,1,2.62,4.2l-3.12.79a4.13,4.13,0,0,0-1.64-2.73,5.78,5.78,0,0,0-6-.15,2.53,2.53,0,0,0-1.2,2.31,2.27,2.27,0,0,0,.31,1.19,4.18,4.18,0,0,0,.65.85,3.93,3.93,0,0,0,1.18.64c.57.23,1,.38,1.27.46l1.58.41.33.09c.85.22,1.54.41,2.07.58a12.94,12.94,0,0,1,1.86.79,5.91,5.91,0,0,1,1.68,1.17,5.38,5.38,0,0,1,1,1.66,5.94,5.94,0,0,1,.44,2.33,6.29,6.29,0,0,1-.65,2.9,5.05,5.05,0,0,1-1.76,2,8.59,8.59,0,0,1-2.51,1.08A11.55,11.55,0,0,1,1354.28,855.32Z"/>
          <path d="M1148.49,909.15a11.33,11.33,0,0,1-5.52-1.33,9.7,9.7,0,0,1-3.89-3.91,12,12,0,0,1-1.44-5.95,11,11,0,0,1,3.06-8.12,11.49,11.49,0,0,1,15.59,0,12.36,12.36,0,0,1,0,16.26A10.55,10.55,0,0,1,1148.49,909.15Zm0-3.15a6.63,6.63,0,0,0,5.1-2.21,9.39,9.39,0,0,0,0-11.64,6.63,6.63,0,0,0-5.1-2.21,6.51,6.51,0,0,0-5,2.21,9.43,9.43,0,0,0,0,11.64A6.51,6.51,0,0,0,1148.46,906Z"/>
          <path d="M1192.83,875.09h3.79v33.65H1193l-.09-4.19a8,8,0,0,1-3.07,3.4,8.55,8.55,0,0,1-4.55,1.25,9.77,9.77,0,0,1-7.11-3,10.13,10.13,0,0,1-2.17-3.56,12.81,12.81,0,0,1-.8-4.62,11.31,11.31,0,0,1,2.92-8.08,9.43,9.43,0,0,1,7.16-3.11,8.58,8.58,0,0,1,4.5,1.21,8,8,0,0,1,3.08,3.3Zm-6.8,30.82a6.43,6.43,0,0,0,5-2.27,8.87,8.87,0,0,0,0-11.31,6.44,6.44,0,0,0-5-2.28,6.59,6.59,0,0,0-5,2.2,9.07,9.07,0,0,0,0,11.46A6.55,6.55,0,0,0,1186,905.91Z"/>
          <path d="M1213.4,909.15a11.33,11.33,0,0,1-5.52-1.33,9.7,9.7,0,0,1-3.89-3.91,12,12,0,0,1-1.44-5.95,11,11,0,0,1,3.06-8.12,11.47,11.47,0,0,1,15.58,0,12.35,12.35,0,0,1,0,16.26A10.55,10.55,0,0,1,1213.4,909.15Zm0-3.15a6.63,6.63,0,0,0,5.1-2.21,9.39,9.39,0,0,0,0-11.64,6.63,6.63,0,0,0-5.1-2.21,6.54,6.54,0,0,0-5,2.21,9.47,9.47,0,0,0,0,11.64A6.54,6.54,0,0,0,1213.37,906Z"/>
          <path d="M1230.18,908.74V875.09H1234v33.65Z"/>
          <path d="M1250.79,909.15a11.38,11.38,0,0,1-5.52-1.33,9.76,9.76,0,0,1-3.89-3.91A12,12,0,0,1,1240,898a11,11,0,0,1,3-8.12,11.49,11.49,0,0,1,15.59,0,12.38,12.38,0,0,1,0,16.26A10.59,10.59,0,0,1,1250.79,909.15Zm0-3.15a6.63,6.63,0,0,0,5.09-2.21,9.36,9.36,0,0,0,0-11.64,6.63,6.63,0,0,0-5.09-2.21,6.53,6.53,0,0,0-5,2.21,9.43,9.43,0,0,0,0,11.64A6.53,6.53,0,0,0,1250.77,906Z"/>
          <path d="M1271.27,891a6.52,6.52,0,0,1,2.68-2.89,8.14,8.14,0,0,1,4.14-1.14v3.57a7.14,7.14,0,0,0-5,1.6q-1.72,1.61-1.72,5.11v11.5h-3.79V887.2h3.7Z"/>
          <path d="M1301.11,897.54l0,1h-16.83a7.63,7.63,0,0,0,2.06,5.51,6.77,6.77,0,0,0,4.91,1.92,6.44,6.44,0,0,0,3.57-1,6.76,6.76,0,0,0,2.45-2.85l3.42.72a9.72,9.72,0,0,1-3.68,4.63,10.08,10.08,0,0,1-5.72,1.68,10.39,10.39,0,0,1-7.75-3,12.77,12.77,0,0,1,0-16.36,10.27,10.27,0,0,1,7.63-3,9.72,9.72,0,0,1,7.24,2.76Q1301.11,892.31,1301.11,897.54Zm-10-7.84a6.75,6.75,0,0,0-4.48,1.52,7,7,0,0,0-2.27,4.44h12.91a6.44,6.44,0,0,0-1.89-4.44A6.1,6.1,0,0,0,1291.14,889.7Z"/>
          <path d="M1313.86,909.15a10.21,10.21,0,0,1-5.81-1.55,6.43,6.43,0,0,1-2.82-4.43l3.31-.94a4.59,4.59,0,0,0,1.76,3,5.7,5.7,0,0,0,3.54,1.06,7.05,7.05,0,0,0,2.07-.28,3.32,3.32,0,0,0,1.59-1.06,2.87,2.87,0,0,0,.63-2,2.82,2.82,0,0,0-.17-.89,4.27,4.27,0,0,0-.35-.71,2.21,2.21,0,0,0-.62-.59,6.05,6.05,0,0,0-1.72-.87l-1-.35-1.2-.35-1.25-.36c-.91-.28-1.65-.54-2.24-.79a10,10,0,0,1-1.81-1,4.25,4.25,0,0,1-1.42-1.7,5.82,5.82,0,0,1-.47-2.41,5.58,5.58,0,0,1,1.05-3.44,5.88,5.88,0,0,1,2.73-2,10.81,10.81,0,0,1,3.82-.63,9.38,9.38,0,0,1,5.25,1.4,6,6,0,0,1,2.62,4.21l-3.11.79a4.14,4.14,0,0,0-1.65-2.73,5.19,5.19,0,0,0-3.08-.91,5.31,5.31,0,0,0-2.9.76,2.53,2.53,0,0,0-1.2,2.31,2.21,2.21,0,0,0,.32,1.19,3.84,3.84,0,0,0,.64.85,4.06,4.06,0,0,0,1.18.64c.58.23,1,.38,1.28.46s.8.22,1.57.41l.33.08c.85.22,1.54.42,2.07.59a11.9,11.9,0,0,1,1.86.78,6.13,6.13,0,0,1,1.68,1.18,5.26,5.26,0,0,1,1,1.66,5.92,5.92,0,0,1,.44,2.32,6.3,6.3,0,0,1-.65,2.91,5.05,5.05,0,0,1-1.76,2,8.59,8.59,0,0,1-2.51,1.08A12,12,0,0,1,1313.86,909.15Z"/>
        </g>
        <rect class="cls-22" x="192.58" y="198.14" width="539.46" height="146.88" rx="27.11"/>
        <g>
          <path d="M337.85,253.22a16.34,16.34,0,0,1-6.07-1.11,14.45,14.45,0,0,1-4.87-3.11,13.8,13.8,0,0,1-3.25-5,19.26,19.26,0,0,1,0-13.25,13.9,13.9,0,0,1,8.11-8.11,16.54,16.54,0,0,1,6.07-1.1,15.63,15.63,0,0,1,8.2,2.17,13.46,13.46,0,0,1,5.42,6l-3.61,1.49a10.23,10.23,0,0,0-4-4.39,11.59,11.59,0,0,0-6-1.54,12.23,12.23,0,0,0-4.49.81,10.74,10.74,0,0,0-3.64,2.32,10.46,10.46,0,0,0-2.44,3.81,15.26,15.26,0,0,0,0,10.27,10.42,10.42,0,0,0,2.44,3.82,10.91,10.91,0,0,0,3.64,2.33,12,12,0,0,0,4.49.82,11.59,11.59,0,0,0,6-1.54,10.23,10.23,0,0,0,4-4.37l3.61,1.47a13.42,13.42,0,0,1-5.41,6A15.7,15.7,0,0,1,337.85,253.22Z"/>
          <path d="M360.92,235.06a6.5,6.5,0,0,1,2.67-2.89,8,8,0,0,1,4.14-1.14v3.57a7.1,7.1,0,0,0-5,1.6c-1.14,1.06-1.72,2.77-1.72,5.1v11.5h-3.79V231.27h3.71Z"/>
          <path d="M390.75,241.61l0,1H373.88a7.65,7.65,0,0,0,2.06,5.51,6.76,6.76,0,0,0,4.91,1.91,6.44,6.44,0,0,0,3.57-1,6.6,6.6,0,0,0,2.45-2.84l3.42.72a9.65,9.65,0,0,1-3.68,4.62,10,10,0,0,1-5.72,1.69,10.4,10.4,0,0,1-7.75-3,12.78,12.78,0,0,1,0-16.37,10.27,10.27,0,0,1,7.63-3,9.71,9.71,0,0,1,7.24,2.76Q390.75,236.37,390.75,241.61Zm-10-7.84a6.7,6.7,0,0,0-4.48,1.52,6.94,6.94,0,0,0-2.26,4.43h12.9a6.39,6.39,0,0,0-1.88-4.43A6.08,6.08,0,0,0,380.78,233.77Z"/>
          <path d="M401.66,253.22a7.3,7.3,0,0,1-4.72-1.48,5.33,5.33,0,0,1-1.85-4.41,6.37,6.37,0,0,1,.59-2.82,5.06,5.06,0,0,1,1.75-2,10.75,10.75,0,0,1,2.53-1.22,25.44,25.44,0,0,1,3.28-.77l3.48-.57c1.27-.24,1.91-.9,1.91-2a3.76,3.76,0,0,0-1.35-3.21,6.27,6.27,0,0,0-6.78,0,4.12,4.12,0,0,0-1.6,3l-3.42-.72a6.57,6.57,0,0,1,2.7-4.61,10,10,0,0,1,5.87-1.54,11.7,11.7,0,0,1,3.12.38,8.85,8.85,0,0,1,2.61,1.2,5.52,5.52,0,0,1,1.86,2.33,8.55,8.55,0,0,1,.67,3.53v8.9a3.6,3.6,0,0,0,.49,2.24,2.13,2.13,0,0,0,1.7.58h.35v2.74H413q-3.5,0-4.08-2.91h-.17A8.24,8.24,0,0,1,401.66,253.22Zm.88-3.07a5.74,5.74,0,0,0,4.62-2.08,8.56,8.56,0,0,0,1.75-5.69l-5.69,1.09a7.74,7.74,0,0,0-3.34,1.19,3.16,3.16,0,0,0-.05,4.73A4.48,4.48,0,0,0,402.54,250.15Z"/>
          <path d="M435.66,219.15h3.79V252.8h-3.66l-.09-4.18a7.84,7.84,0,0,1-3.06,3.39,8.5,8.5,0,0,1-4.56,1.25,9.81,9.81,0,0,1-7.11-3,10.52,10.52,0,0,1-2.17-3.56,13.11,13.11,0,0,1-.8-4.62,11.34,11.34,0,0,1,2.93-8.09,9.45,9.45,0,0,1,7.15-3.11,8.58,8.58,0,0,1,4.5,1.22,8,8,0,0,1,3.08,3.3ZM428.87,250a6.47,6.47,0,0,0,5-2.27,8.91,8.91,0,0,0,0-11.32,6.45,6.45,0,0,0-5-2.27,6.59,6.59,0,0,0-5,2.2,9.07,9.07,0,0,0,0,11.46A6.62,6.62,0,0,0,428.87,250Z"/>
          <path d="M456.23,253.22a11.39,11.39,0,0,1-5.52-1.34,9.7,9.7,0,0,1-3.89-3.91,12.07,12.07,0,0,1-1.43-5.95,11,11,0,0,1,3.05-8.11,11.46,11.46,0,0,1,15.59,0,12.36,12.36,0,0,1,0,16.25A10.54,10.54,0,0,1,456.23,253.22Zm0-3.16a6.59,6.59,0,0,0,5.09-2.21,9.34,9.34,0,0,0,0-11.63,6.59,6.59,0,0,0-5.09-2.21,6.51,6.51,0,0,0-5,2.21,9.45,9.45,0,0,0,0,11.63A6.51,6.51,0,0,0,456.21,250.06Z"/>
          <path d="M476.71,235.06a6.46,6.46,0,0,1,2.68-2.89,8,8,0,0,1,4.14-1.14v3.57a7.1,7.1,0,0,0-5,1.6c-1.15,1.06-1.72,2.77-1.72,5.1v11.5H473V231.27h3.7Z"/>
          <path d="M506.55,241.61l0,1H489.68a7.65,7.65,0,0,0,2.06,5.51,6.76,6.76,0,0,0,4.91,1.91,6.44,6.44,0,0,0,3.57-1,6.6,6.6,0,0,0,2.45-2.84l3.42.72a9.65,9.65,0,0,1-3.68,4.62,10,10,0,0,1-5.72,1.69,10.39,10.39,0,0,1-7.75-3,12.78,12.78,0,0,1,0-16.37,10.27,10.27,0,0,1,7.63-3,9.72,9.72,0,0,1,7.24,2.76Q506.55,236.37,506.55,241.61Zm-10-7.84a6.7,6.7,0,0,0-4.48,1.52,6.94,6.94,0,0,0-2.26,4.43h12.9a6.4,6.4,0,0,0-1.89-4.43A6.05,6.05,0,0,0,496.58,233.77Z"/>
          <path d="M519.3,253.22a10.21,10.21,0,0,1-5.81-1.56,6.41,6.41,0,0,1-2.82-4.42l3.31-.94a4.62,4.62,0,0,0,1.76,3,5.7,5.7,0,0,0,3.54,1.06,7,7,0,0,0,2.07-.29,3.25,3.25,0,0,0,1.59-1.06,2.86,2.86,0,0,0,.63-2,2.82,2.82,0,0,0-.17-.89,4.7,4.7,0,0,0-.35-.71,2.36,2.36,0,0,0-.62-.59,7.63,7.63,0,0,0-.74-.46,7.1,7.1,0,0,0-1-.4c-.43-.16-.77-.27-1-.36l-1.2-.35-1.25-.36a21.29,21.29,0,0,1-2.24-.79,9,9,0,0,1-1.81-1,4.22,4.22,0,0,1-1.42-1.69,5.82,5.82,0,0,1-.47-2.41,5.56,5.56,0,0,1,1.05-3.44,5.9,5.9,0,0,1,2.73-2,10.82,10.82,0,0,1,3.82-.62,9.3,9.3,0,0,1,5.25,1.4,6,6,0,0,1,2.62,4.2l-3.11.79a4.1,4.1,0,0,0-1.65-2.72,5.19,5.19,0,0,0-3.08-.91,5.4,5.4,0,0,0-2.9.75,2.56,2.56,0,0,0-1.2,2.31,2.25,2.25,0,0,0,.32,1.2,3.54,3.54,0,0,0,.64.84,4,4,0,0,0,1.19.65c.57.22,1,.38,1.27.46s.8.21,1.57.4l.33.09c.85.22,1.54.41,2.07.58a12.06,12.06,0,0,1,1.86.79,6.33,6.33,0,0,1,1.68,1.17,5.31,5.31,0,0,1,1,1.67,5.89,5.89,0,0,1,.44,2.32,6.29,6.29,0,0,1-.65,2.9,5,5,0,0,1-1.76,2,8.49,8.49,0,0,1-2.51,1.09A12,12,0,0,1,519.3,253.22Z"/>
          <path d="M560.75,219.15h3.79V252.8h-3.66l-.09-4.18a7.86,7.86,0,0,1-3.07,3.39,8.44,8.44,0,0,1-4.55,1.25,9.81,9.81,0,0,1-7.11-3,10.37,10.37,0,0,1-2.17-3.56,13.11,13.11,0,0,1-.8-4.62A11.34,11.34,0,0,1,546,234a9.45,9.45,0,0,1,7.15-3.11,8.58,8.58,0,0,1,4.5,1.22,8,8,0,0,1,3.08,3.3ZM554,250a6.45,6.45,0,0,0,5-2.27,8.89,8.89,0,0,0,0-11.32,6.46,6.46,0,0,0-5-2.27,6.59,6.59,0,0,0-5,2.2,9.07,9.07,0,0,0,0,11.46A6.62,6.62,0,0,0,554,250Z"/>
          <path d="M591.09,241.61l-.05,1H574.22a7.65,7.65,0,0,0,2.06,5.51,6.74,6.74,0,0,0,4.91,1.91,6.44,6.44,0,0,0,3.57-1,6.67,6.67,0,0,0,2.45-2.84l3.42.72a9.7,9.7,0,0,1-3.68,4.62,10,10,0,0,1-5.72,1.69,10.39,10.39,0,0,1-7.75-3,12.78,12.78,0,0,1,0-16.37,10.27,10.27,0,0,1,7.63-3,9.72,9.72,0,0,1,7.24,2.76Q591.09,236.37,591.09,241.61Zm-10-7.84a6.7,6.7,0,0,0-4.48,1.52,7,7,0,0,0-2.27,4.43h12.91a6.4,6.4,0,0,0-1.89-4.43A6.05,6.05,0,0,0,581.12,233.77Z"/>
          <path d="M262.74,307.06a7.36,7.36,0,0,1-4.72-1.48,5.33,5.33,0,0,1-1.85-4.42,6.32,6.32,0,0,1,.59-2.81,5,5,0,0,1,1.75-2,10.75,10.75,0,0,1,2.53-1.22,22.49,22.49,0,0,1,3.28-.77l3.48-.57c1.27-.24,1.91-.9,1.91-2a3.76,3.76,0,0,0-1.35-3.21,5.48,5.48,0,0,0-3.41-1,5.58,5.58,0,0,0-3.37,1,4.1,4.1,0,0,0-1.6,3l-3.42-.72a6.57,6.57,0,0,1,2.7-4.61,10,10,0,0,1,5.87-1.55,11.69,11.69,0,0,1,3.12.39,8.37,8.37,0,0,1,2.61,1.2,5.49,5.49,0,0,1,1.86,2.32,8.77,8.77,0,0,1,.67,3.54v8.9a3.6,3.6,0,0,0,.49,2.24,2.13,2.13,0,0,0,1.7.58h.35v2.74h-1.88q-3.49,0-4.08-2.91h-.17A8.24,8.24,0,0,1,262.74,307.06Zm.88-3.07a5.74,5.74,0,0,0,4.62-2.08,8.57,8.57,0,0,0,1.75-5.7l-5.69,1.1A7.62,7.62,0,0,0,261,298.5a3.15,3.15,0,0,0,0,4.72A4.48,4.48,0,0,0,263.62,304Z"/>
          <path d="M281.27,306.64V273h3.84v33.65Z"/>
          <path d="M311.66,295.45l-.05,1H294.79a7.65,7.65,0,0,0,2.06,5.51,6.78,6.78,0,0,0,4.91,1.91,6.44,6.44,0,0,0,3.57-1,6.64,6.64,0,0,0,2.45-2.85l3.42.73a9.7,9.7,0,0,1-3.68,4.62,10.09,10.09,0,0,1-5.72,1.69,10.39,10.39,0,0,1-7.75-3,12.78,12.78,0,0,1,0-16.37,10.27,10.27,0,0,1,7.63-3,9.72,9.72,0,0,1,7.24,2.76Q311.66,290.21,311.66,295.45Zm-10-7.85a6.71,6.71,0,0,0-4.48,1.53,7,7,0,0,0-2.27,4.43h12.91a6.4,6.4,0,0,0-1.89-4.43A6.06,6.06,0,0,0,301.69,287.6Z"/>
          <path d="M333.19,285.11h3.68v20.44c0,3.63-.92,6.43-2.78,8.39a10.12,10.12,0,0,1-7.71,2.93q-7.81,0-10.45-6.59l3.13-1.54a7.13,7.13,0,0,0,7.21,5,6.16,6.16,0,0,0,5.05-2.11,9,9,0,0,0,1.74-5.87v-4a7.63,7.63,0,0,1-3.07,3.1A8.93,8.93,0,0,1,325.5,306a9.2,9.2,0,0,1-7-3,11.6,11.6,0,0,1,0-15.29,9.31,9.31,0,0,1,7-3,8.64,8.64,0,0,1,4.51,1.21,7.8,7.8,0,0,1,3.05,3.17Zm-6.83,17.7a6.51,6.51,0,0,0,5-2.22,7.8,7.8,0,0,0,0-10.53,6.49,6.49,0,0,0-5-2.22,6.56,6.56,0,0,0-5,2.15,7.49,7.49,0,0,0-2,5.35,7.41,7.41,0,0,0,2.05,5.31A6.55,6.55,0,0,0,326.36,302.81Z"/>
          <path d="M348.29,288.9A6.52,6.52,0,0,1,351,286a8,8,0,0,1,4.14-1.13v3.57a7.1,7.1,0,0,0-5,1.6c-1.14,1.06-1.72,2.76-1.72,5.1v11.5h-3.79V285.11h3.71Z"/>
          <path d="M359.55,306.64V285.11h3.81v21.53Zm.48-25.26,5.5-7.14,2,1.47-4.9,5.67Z"/>
          <path d="M376,307.06a7.38,7.38,0,0,1-4.72-1.48,5.33,5.33,0,0,1-1.85-4.42,6.32,6.32,0,0,1,.59-2.81,5,5,0,0,1,1.75-2,10.75,10.75,0,0,1,2.53-1.22,22.49,22.49,0,0,1,3.28-.77l3.48-.57c1.27-.24,1.91-.9,1.91-2a3.76,3.76,0,0,0-1.35-3.21,5.47,5.47,0,0,0-3.4-1,5.59,5.59,0,0,0-3.38,1,4.14,4.14,0,0,0-1.6,3l-3.42-.72a6.6,6.6,0,0,1,2.7-4.61,10,10,0,0,1,5.87-1.55,11.69,11.69,0,0,1,3.12.39,8.37,8.37,0,0,1,2.61,1.2,5.41,5.41,0,0,1,1.86,2.32,8.6,8.6,0,0,1,.67,3.54v8.9a3.6,3.6,0,0,0,.49,2.24,2.13,2.13,0,0,0,1.7.58h.35v2.74h-1.88c-2.33,0-3.68-1-4.08-2.91h-.17A8.24,8.24,0,0,1,376,307.06Zm.88-3.07a5.74,5.74,0,0,0,4.62-2.08,8.57,8.57,0,0,0,1.75-5.7l-5.69,1.1a7.62,7.62,0,0,0-3.34,1.19,3.15,3.15,0,0,0-.05,4.72A4.48,4.48,0,0,0,376.92,304Z"/>
          <path d="M401.39,307.06a10.21,10.21,0,0,1-5.81-1.56,6.4,6.4,0,0,1-2.82-4.42l3.3-.95a4.62,4.62,0,0,0,1.77,3,5.71,5.71,0,0,0,3.54,1.07,7,7,0,0,0,2.07-.29,3.25,3.25,0,0,0,1.58-1.06,2.86,2.86,0,0,0,.64-2,2.57,2.57,0,0,0-.18-.89,3.13,3.13,0,0,0-.35-.71,2.16,2.16,0,0,0-.61-.59c-.28-.19-.53-.34-.74-.46a8.34,8.34,0,0,0-1-.41l-1-.35-1.2-.35-1.25-.36c-.91-.28-1.65-.54-2.24-.79a9.84,9.84,0,0,1-1.82-1,4.24,4.24,0,0,1-1.41-1.7,5.79,5.79,0,0,1-.47-2.41,5.6,5.6,0,0,1,1.05-3.44,5.88,5.88,0,0,1,2.73-2,10.81,10.81,0,0,1,3.82-.63,9.33,9.33,0,0,1,5.25,1.41,6,6,0,0,1,2.62,4.2l-3.11.79a4.18,4.18,0,0,0-1.65-2.73,5.27,5.27,0,0,0-3.09-.91,5.39,5.39,0,0,0-2.89.76,2.53,2.53,0,0,0-1.2,2.31,2.27,2.27,0,0,0,.31,1.19,4.18,4.18,0,0,0,.65.85,3.93,3.93,0,0,0,1.18.64c.57.23,1,.38,1.27.46s.81.22,1.58.41l.33.09c.85.22,1.54.41,2.07.58a12.94,12.94,0,0,1,1.86.79,6.11,6.11,0,0,1,1.68,1.17,5.38,5.38,0,0,1,1.05,1.66,5.94,5.94,0,0,1,.44,2.33,6.29,6.29,0,0,1-.65,2.9,5.05,5.05,0,0,1-1.76,2,8.88,8.88,0,0,1-2.51,1.09A12,12,0,0,1,401.39,307.06Z"/>
          <path d="M436,307.06a11.39,11.39,0,0,1-5.52-1.34,9.7,9.7,0,0,1-3.89-3.91,12,12,0,0,1-1.43-5.95,11,11,0,0,1,3-8.11,11.46,11.46,0,0,1,15.59,0,12.36,12.36,0,0,1,0,16.25A10.54,10.54,0,0,1,436,307.06Zm0-3.16a6.59,6.59,0,0,0,5.09-2.21,9.34,9.34,0,0,0,0-11.63,6.6,6.6,0,0,0-5.09-2.22,6.52,6.52,0,0,0-5.05,2.22,9.45,9.45,0,0,0,0,11.63A6.51,6.51,0,0,0,436,303.9Z"/>
          <path d="M475.85,284.69A9.4,9.4,0,0,1,483,287.8,12.75,12.75,0,0,1,483,304a9.38,9.38,0,0,1-7.14,3.11,8.64,8.64,0,0,1-4.59-1.25,7.88,7.88,0,0,1-3.08-3.39l-.09,4.18h-3.65V273h3.76l0,16.24a7.87,7.87,0,0,1,3.07-3.32A8.68,8.68,0,0,1,475.85,284.69ZM475,303.81a6.55,6.55,0,0,0,5-2.2,9.05,9.05,0,0,0,0-11.45,6.56,6.56,0,0,0-5-2.21,6.44,6.44,0,0,0-5,2.28,8.89,8.89,0,0,0,0,11.32A6.45,6.45,0,0,0,475,303.81Z"/>
          <path d="M510.68,295.45l0,1H493.81a7.65,7.65,0,0,0,2.06,5.51,6.8,6.8,0,0,0,4.91,1.91,6.44,6.44,0,0,0,3.57-1A6.57,6.57,0,0,0,506.8,300l3.42.73a9.65,9.65,0,0,1-3.68,4.62,10.09,10.09,0,0,1-5.72,1.69,10.39,10.39,0,0,1-7.75-3,12.78,12.78,0,0,1,0-16.37,10.27,10.27,0,0,1,7.63-3,9.72,9.72,0,0,1,7.24,2.76Q510.68,290.21,510.68,295.45Zm-10-7.85a6.71,6.71,0,0,0-4.48,1.53,6.94,6.94,0,0,0-2.26,4.43h12.9a6.4,6.4,0,0,0-1.89-4.43A6.06,6.06,0,0,0,500.71,287.6Z"/>
          <path d="M526.78,284.69a7.47,7.47,0,0,1,5.42,1.95,7.28,7.28,0,0,1,2,5.5v14.5h-3.79V293a5.09,5.09,0,0,0-1.31-3.85,4.69,4.69,0,0,0-3.38-1.25,5.19,5.19,0,0,0-3.83,1.48,6,6,0,0,0-1.51,4.39v12.88h-3.79V285.11h3.79v2.76A7.18,7.18,0,0,1,526.78,284.69Z"/>
          <path d="M560.39,295.45l0,1H543.52a7.61,7.61,0,0,0,2.06,5.51,6.78,6.78,0,0,0,4.91,1.91,6.44,6.44,0,0,0,3.57-1,6.64,6.64,0,0,0,2.45-2.85l3.42.73a9.7,9.7,0,0,1-3.68,4.62,10.09,10.09,0,0,1-5.72,1.69,10.41,10.41,0,0,1-7.76-3,12.81,12.81,0,0,1,0-16.37,10.29,10.29,0,0,1,7.64-3,9.72,9.72,0,0,1,7.24,2.76Q560.39,290.21,560.39,295.45Zm-10-7.85a6.69,6.69,0,0,0-4.48,1.53,7,7,0,0,0-2.27,4.43h12.9a6.35,6.35,0,0,0-1.88-4.43A6.06,6.06,0,0,0,550.42,287.6Z"/>
          <path d="M567.44,280.59a12.52,12.52,0,0,1,.23-2.5,8.32,8.32,0,0,1,.61-1.9,4.63,4.63,0,0,1,1-1.37,5.94,5.94,0,0,1,1.33-.93,6.62,6.62,0,0,1,1.63-.55,15.29,15.29,0,0,1,1.85-.27c.61-.05,1.3-.08,2.09-.08v3.18h-.82c-.17,0-.43,0-.79,0a5.94,5.94,0,0,0-.79.11l-.68.22a1.74,1.74,0,0,0-.64.37c-.15.15-.32.34-.5.56a2.1,2.1,0,0,0-.43.79,6.3,6.3,0,0,0-.24,1.05,7.91,7.91,0,0,0-.1,1.35v4.45h5v3h-5v18.51h-3.77V288.13h-4.16v-3h4.16Zm15.07-.54a2.5,2.5,0,0,1-1.81-.76,2.48,2.48,0,0,1-.75-1.81,2.42,2.42,0,0,1,.75-1.79,2.49,2.49,0,0,1,1.81-.75,2.47,2.47,0,0,1,1.79.75,2.42,2.42,0,0,1,.75,1.79,2.58,2.58,0,0,1-2.54,2.57Zm-1.93,26.59V285.11h3.82v21.53Z"/>
          <path d="M601.05,307a10.38,10.38,0,0,1-7.72-3.09,12.29,12.29,0,0,1,0-16.17,10.38,10.38,0,0,1,7.73-3.09,10.49,10.49,0,0,1,6.23,1.88,9.5,9.5,0,0,1,3.62,5.24l-3.55.57a6.47,6.47,0,0,0-2.43-3.35,6.6,6.6,0,0,0-3.9-1.19,6.36,6.36,0,0,0-5,2.22,9.56,9.56,0,0,0,0,11.6,6.41,6.41,0,0,0,5,2.2,6.66,6.66,0,0,0,3.9-1.18,6.5,6.5,0,0,0,2.43-3.36l3.55.6a9.47,9.47,0,0,1-3.64,5.22A10.48,10.48,0,0,1,601.05,307Z"/>
          <path d="M618.42,280.05a2.6,2.6,0,0,1-2.57-2.57,2.43,2.43,0,0,1,.76-1.79,2.48,2.48,0,0,1,1.81-.75,2.44,2.44,0,0,1,1.78.75,2.39,2.39,0,0,1,.76,1.79,2.6,2.6,0,0,1-2.54,2.57Zm-1.93,26.59V285.11h3.81v21.53Z"/>
          <path d="M637.08,307.06a11.39,11.39,0,0,1-5.52-1.34,9.76,9.76,0,0,1-3.89-3.91,12.1,12.1,0,0,1-1.43-5.95,11,11,0,0,1,3-8.11,11.46,11.46,0,0,1,15.59,0,12.33,12.33,0,0,1,0,16.25A10.54,10.54,0,0,1,637.08,307.06Zm0-3.16a6.59,6.59,0,0,0,5.09-2.21,9.34,9.34,0,0,0,0-11.63,6.6,6.6,0,0,0-5.09-2.22,6.52,6.52,0,0,0-5,2.22,9.45,9.45,0,0,0,0,11.63A6.51,6.51,0,0,0,637.06,303.9Z"/>
          <path d="M660.68,307.06a10.19,10.19,0,0,1-5.81-1.56,6.45,6.45,0,0,1-2.83-4.42l3.31-.95a4.61,4.61,0,0,0,1.76,3,5.75,5.75,0,0,0,3.54,1.07,7,7,0,0,0,2.07-.29,3.32,3.32,0,0,0,1.59-1.06,2.86,2.86,0,0,0,.64-2,3.13,3.13,0,0,0-.18-.89,3.61,3.61,0,0,0-.35-.71,2.3,2.3,0,0,0-.61-.59c-.28-.19-.53-.34-.75-.46a8.06,8.06,0,0,0-1-.41l-1-.35-1.21-.35-1.25-.36a23.53,23.53,0,0,1-2.23-.79,9.84,9.84,0,0,1-1.82-1,4.08,4.08,0,0,1-1.41-1.7,6.26,6.26,0,0,1,.58-5.85,5.88,5.88,0,0,1,2.73-2,10.77,10.77,0,0,1,3.82-.63,9.35,9.35,0,0,1,5.25,1.41,6,6,0,0,1,2.61,4.2l-3.11.79a4.13,4.13,0,0,0-1.64-2.73,5.27,5.27,0,0,0-3.09-.91,5.36,5.36,0,0,0-2.89.76,2.54,2.54,0,0,0-1.21,2.31,2.28,2.28,0,0,0,.32,1.19,3.85,3.85,0,0,0,.65.85,3.93,3.93,0,0,0,1.18.64c.57.23,1,.38,1.27.46s.81.22,1.58.41l.33.09c.84.22,1.53.41,2.07.58a12.94,12.94,0,0,1,1.86.79,6.11,6.11,0,0,1,1.68,1.17,5.77,5.77,0,0,1,1,1.66,5.94,5.94,0,0,1,.44,2.33,6.29,6.29,0,0,1-.65,2.9,5.05,5.05,0,0,1-1.76,2,9,9,0,0,1-2.51,1.09A12,12,0,0,1,660.68,307.06Z"/>
        </g>
        <g>
          <ellipse class="cls-22" cx="1193.42" cy="410.03" rx="37.32" ry="34.96"/>
          <path d="M1190.88,419.76h14.41v5.63h-23.83v-4.76l13.44-12.86c1.95-1.84,2.93-3.65,2.93-5.45a3.73,3.73,0,0,0-1.21-2.94,5,5,0,0,0-3.4-1.07c-3.2,0-4.79,1.7-4.79,5.11v2.34l-6.71-.64v-1.57a9.58,9.58,0,0,1,3.08-7.62,12.37,12.37,0,0,1,8.37-2.68,12.93,12.93,0,0,1,8.15,2.43,8,8,0,0,1,3.15,6.68,9,9,0,0,1-1.07,4.34,18.12,18.12,0,0,1-3.38,4.23Z"/>
        </g>
        <line class="cls-23" x1="1193.42" y1="346.64" x2="1193.42" y2="373.44"/>
        <rect class="cls-22" x="1047.95" y="198.14" width="290.95" height="146.88" rx="19.91"/>
        <g>
          <path d="M1127.63,252.8l-2.65-7.38h-14l-2.63,7.38h-4.1L1115.67,222h4.69l11.37,30.84ZM1112.28,242h11.48L1118,225.9Z"/>
          <path d="M1136.9,252.8V219.15h3.83V252.8Z"/>
          <path d="M1167.28,241.61l0,1h-16.82a7.57,7.57,0,0,0,2.06,5.51,6.73,6.73,0,0,0,4.9,1.91,6.4,6.4,0,0,0,3.57-1,6.63,6.63,0,0,0,2.46-2.84l3.41.72a9.65,9.65,0,0,1-3.68,4.62,10,10,0,0,1-5.71,1.69,10.41,10.41,0,0,1-7.76-3,12.78,12.78,0,0,1,0-16.37,10.29,10.29,0,0,1,7.64-3,9.72,9.72,0,0,1,7.24,2.76C1166.38,235.45,1167.28,238.12,1167.28,241.61Zm-10-7.84a6.68,6.68,0,0,0-4.48,1.52,7,7,0,0,0-2.27,4.43h12.9a6.35,6.35,0,0,0-1.88-4.43A6.07,6.07,0,0,0,1157.32,233.77Z"/>
          <path d="M1188.82,231.27h3.68v20.44q0,5.44-2.78,8.39A10.15,10.15,0,0,1,1182,263q-7.83,0-10.45-6.59l3.13-1.53a7.12,7.12,0,0,0,7.21,5,6.21,6.21,0,0,0,5-2.1,9,9,0,0,0,1.74-5.88v-4a7.63,7.63,0,0,1-3.07,3.1,8.93,8.93,0,0,1-4.49,1.17,9.26,9.26,0,0,1-7-3,10.74,10.74,0,0,1-2.87-7.66,10.62,10.62,0,0,1,2.88-7.64,9.36,9.36,0,0,1,7-3,8.67,8.67,0,0,1,4.52,1.21,7.78,7.78,0,0,1,3,3.17ZM1182,249a6.54,6.54,0,0,0,5-2.21,7.84,7.84,0,0,0,0-10.54,6.77,6.77,0,0,0-9.94-.07,8,8,0,0,0,0,10.66A6.58,6.58,0,0,0,1182,249Z"/>
          <path d="M1203.91,235.06a6.46,6.46,0,0,1,2.68-2.89,8,8,0,0,1,4.14-1.14v3.57a7.1,7.1,0,0,0-5,1.6c-1.15,1.06-1.72,2.77-1.72,5.1v11.5h-3.79V231.27h3.7Z"/>
          <path d="M1215.17,252.8V231.27H1219V252.8Zm.48-25.26,5.5-7.14,2,1.47-4.91,5.67Z"/>
          <path d="M1231.67,253.22a7.3,7.3,0,0,1-4.72-1.48,5.3,5.3,0,0,1-1.85-4.41,6.23,6.23,0,0,1,.59-2.82,5,5,0,0,1,1.75-2,10.57,10.57,0,0,1,2.53-1.22,24.66,24.66,0,0,1,3.28-.77l3.48-.57c1.27-.24,1.9-.9,1.9-2a3.76,3.76,0,0,0-1.34-3.21,6.27,6.27,0,0,0-6.78,0,4.12,4.12,0,0,0-1.6,3l-3.42-.72a6.59,6.59,0,0,1,2.69-4.61,10.1,10.1,0,0,1,5.88-1.54,11.7,11.7,0,0,1,3.12.38,8.68,8.68,0,0,1,2.6,1.2,5.46,5.46,0,0,1,1.87,2.33,8.72,8.72,0,0,1,.66,3.53v8.9a3.59,3.59,0,0,0,.5,2.24,2.12,2.12,0,0,0,1.7.58h.35v2.74H1243q-3.48,0-4.07-2.91h-.18A8.21,8.21,0,0,1,1231.67,253.22Zm.87-3.07a5.75,5.75,0,0,0,4.63-2.08,8.56,8.56,0,0,0,1.75-5.69l-5.7,1.09a7.85,7.85,0,0,0-3.34,1.19,2.8,2.8,0,0,0-1.08,2.36,2.74,2.74,0,0,0,1,2.37A4.43,4.43,0,0,0,1232.54,250.15Z"/>
          <path d="M1270.93,253.22a11.4,11.4,0,0,1-5.53-1.34,9.67,9.67,0,0,1-3.88-3.91,12,12,0,0,1-1.44-5.95,11,11,0,0,1,3.06-8.11,11.45,11.45,0,0,1,15.58,0,12.33,12.33,0,0,1,0,16.25A10.52,10.52,0,0,1,1270.93,253.22Zm0-3.16a6.6,6.6,0,0,0,5.1-2.21,9.38,9.38,0,0,0,0-11.63,6.6,6.6,0,0,0-5.1-2.21,6.51,6.51,0,0,0-5.05,2.21,9.45,9.45,0,0,0,0,11.63A6.51,6.51,0,0,0,1270.9,250.06Z"/>
          <path d="M1109.45,284.69a9.38,9.38,0,0,1,7.12,3.11,12.75,12.75,0,0,1,0,16.19,9.36,9.36,0,0,1-7.14,3.11,8.69,8.69,0,0,1-4.59-1.25,7.94,7.94,0,0,1-3.08-3.39l-.08,4.18H1098V273h3.77l0,16.24a7.83,7.83,0,0,1,3.08-3.32A8.65,8.65,0,0,1,1109.45,284.69Zm-.83,19.12a6.59,6.59,0,0,0,5-2.2,9.09,9.09,0,0,0,0-11.45,6.6,6.6,0,0,0-5-2.21,6.46,6.46,0,0,0-5,2.28,8.92,8.92,0,0,0,0,11.32A6.45,6.45,0,0,0,1108.62,303.81Z"/>
          <path d="M1144.28,295.45l0,1h-16.82a7.6,7.6,0,0,0,2,5.51,6.8,6.8,0,0,0,4.91,1.91,6.4,6.4,0,0,0,3.57-1,6.6,6.6,0,0,0,2.46-2.85l3.41.73a9.65,9.65,0,0,1-3.68,4.62,10.06,10.06,0,0,1-5.71,1.69,10.41,10.41,0,0,1-7.76-3,12.78,12.78,0,0,1,0-16.37,10.29,10.29,0,0,1,7.64-3,9.74,9.74,0,0,1,7.24,2.76Q1144.27,290.21,1144.28,295.45Zm-10-7.85a6.67,6.67,0,0,0-4.48,1.53,7,7,0,0,0-2.27,4.43h12.9a6.35,6.35,0,0,0-1.88-4.43A6.08,6.08,0,0,0,1134.32,287.6Z"/>
          <path d="M1160.38,284.69a7.5,7.5,0,0,1,5.43,1.95,7.27,7.27,0,0,1,2,5.5v14.5H1164V293a5.09,5.09,0,0,0-1.31-3.85,4.68,4.68,0,0,0-3.38-1.25,5.19,5.19,0,0,0-3.83,1.48,6,6,0,0,0-1.51,4.39v12.88h-3.79V285.11H1154v2.76A7.19,7.19,0,0,1,1160.38,284.69Z"/>
          <path d="M1194,295.45l0,1h-16.83a7.65,7.65,0,0,0,2.06,5.51,6.78,6.78,0,0,0,4.91,1.91,6.44,6.44,0,0,0,3.57-1,6.64,6.64,0,0,0,2.45-2.85l3.42.73a9.65,9.65,0,0,1-3.68,4.62,10.09,10.09,0,0,1-5.72,1.69,10.39,10.39,0,0,1-7.75-3,12.78,12.78,0,0,1,0-16.37,10.27,10.27,0,0,1,7.63-3,9.72,9.72,0,0,1,7.24,2.76Q1194,290.21,1194,295.45Zm-10-7.85a6.71,6.71,0,0,0-4.48,1.53,7,7,0,0,0-2.27,4.43h12.91a6.4,6.4,0,0,0-1.89-4.43A6.06,6.06,0,0,0,1184,287.6Z"/>
          <path d="M1201,280.59a12.52,12.52,0,0,1,.23-2.5,8.31,8.31,0,0,1,.62-1.9,4.31,4.31,0,0,1,1-1.37,5.67,5.67,0,0,1,1.32-.93,6.62,6.62,0,0,1,1.63-.55,15.58,15.58,0,0,1,1.85-.27c.61-.05,1.31-.08,2.1-.08v3.18H1209c-.16,0-.43,0-.78,0a5.47,5.47,0,0,0-.79.11l-.68.22a1.79,1.79,0,0,0-.65.37l-.5.56a2.42,2.42,0,0,0-.43.79,9.22,9.22,0,0,0-.24,1.05,7.91,7.91,0,0,0-.1,1.35v4.45h5v3h-5v18.51H1201V288.13h-4.16v-3H1201Zm15.07-.54a2.6,2.6,0,0,1-2.56-2.57,2.39,2.39,0,0,1,.76-1.79,2.52,2.52,0,0,1,3.59,0,2.43,2.43,0,0,1,.76,1.79,2.49,2.49,0,0,1-.76,1.81A2.46,2.46,0,0,1,1216.11,280.05Zm-1.92,26.59V285.11H1218v21.53Z"/>
          <path d="M1234.65,307a10.37,10.37,0,0,1-7.71-3.09,12.26,12.26,0,0,1,0-16.17,10.34,10.34,0,0,1,7.72-3.09,10.49,10.49,0,0,1,6.23,1.88,9.57,9.57,0,0,1,3.63,5.24l-3.55.57a6.46,6.46,0,0,0-6.33-4.54,6.37,6.37,0,0,0-5,2.22,9.56,9.56,0,0,0,0,11.6,6.41,6.41,0,0,0,5,2.2,6.71,6.71,0,0,0,3.9-1.18,6.61,6.61,0,0,0,2.43-3.36l3.55.6a9.54,9.54,0,0,1-3.65,5.22A10.48,10.48,0,0,1,1234.65,307Z"/>
          <path d="M1252,280.05a2.5,2.5,0,0,1-1.81-.76,2.48,2.48,0,0,1-.75-1.81,2.42,2.42,0,0,1,.75-1.79,2.49,2.49,0,0,1,1.81-.75,2.43,2.43,0,0,1,1.78.75,2.39,2.39,0,0,1,.76,1.79,2.6,2.6,0,0,1-2.54,2.57Zm-1.93,26.59V285.11h3.81v21.53Z"/>
          <path d="M1270.68,307.06a11.39,11.39,0,0,1-5.52-1.34,9.67,9.67,0,0,1-3.88-3.91,12,12,0,0,1-1.44-5.95,10.94,10.94,0,0,1,3.06-8.11,11.45,11.45,0,0,1,15.58,0,12.33,12.33,0,0,1,0,16.25A10.54,10.54,0,0,1,1270.68,307.06Zm0-3.16a6.61,6.61,0,0,0,5.1-2.21,9.38,9.38,0,0,0,0-11.63,6.62,6.62,0,0,0-5.1-2.22,6.52,6.52,0,0,0-5.05,2.22,9.45,9.45,0,0,0,0,11.63A6.51,6.51,0,0,0,1270.66,303.9Z"/>
          <path d="M1294.28,307.06a10.21,10.21,0,0,1-5.81-1.56,6.4,6.4,0,0,1-2.82-4.42l3.3-.95a4.62,4.62,0,0,0,1.77,3,5.71,5.71,0,0,0,3.54,1.07,7.14,7.14,0,0,0,2.07-.29,3.25,3.25,0,0,0,1.58-1.06,2.86,2.86,0,0,0,.64-2,2.82,2.82,0,0,0-.18-.89,3.61,3.61,0,0,0-.35-.71,2.16,2.16,0,0,0-.61-.59c-.28-.19-.53-.34-.74-.46a8.34,8.34,0,0,0-1-.41l-1-.35-1.21-.35-1.24-.36c-.91-.28-1.65-.54-2.24-.79a9.84,9.84,0,0,1-1.82-1,4.08,4.08,0,0,1-1.41-1.7,5.79,5.79,0,0,1-.47-2.41,5.6,5.6,0,0,1,1-3.44,5.88,5.88,0,0,1,2.73-2,10.81,10.81,0,0,1,3.82-.63,9.35,9.35,0,0,1,5.25,1.41,6,6,0,0,1,2.62,4.2l-3.12.79a4.13,4.13,0,0,0-1.64-2.73,5.27,5.27,0,0,0-3.09-.91,5.36,5.36,0,0,0-2.89.76,2.53,2.53,0,0,0-1.2,2.31,2.27,2.27,0,0,0,.31,1.19,4.18,4.18,0,0,0,.65.85,3.93,3.93,0,0,0,1.18.64c.57.23,1,.38,1.27.46s.81.22,1.58.41l.33.09c.85.22,1.54.41,2.07.58a12.94,12.94,0,0,1,1.86.79,6.11,6.11,0,0,1,1.68,1.17,5.38,5.38,0,0,1,1,1.66,5.94,5.94,0,0,1,.44,2.33,6.29,6.29,0,0,1-.65,2.9,5.05,5.05,0,0,1-1.76,2,8.88,8.88,0,0,1-2.51,1.09A12,12,0,0,1,1294.28,307.06Z"/>
        </g>
        <g>
          <path d="M185.81,571.31a9.17,9.17,0,0,1,4.83,1.28,8.68,8.68,0,0,1,3.24,3.43,10.09,10.09,0,0,1,1.13,4.75,9.37,9.37,0,0,1-2.55,6.72,8.75,8.75,0,0,1-6.65,2.68h-7.76v12h-3.92V571.31Zm-.57,15.44a5.62,5.62,0,0,0,4.29-1.65,6.87,6.87,0,0,0,0-8.72,5.56,5.56,0,0,0-4.29-1.67h-7.19v12Z"/>
          <path d="M204.6,584.41a6.46,6.46,0,0,1,2.68-2.89,8,8,0,0,1,4.14-1.14V584a7.1,7.1,0,0,0-5,1.6q-1.72,1.61-1.72,5.1v11.51H200.9V580.62h3.7Z"/>
          <path d="M224.67,602.57a11.38,11.38,0,0,1-5.52-1.33,9.82,9.82,0,0,1-3.89-3.91,12,12,0,0,1-1.43-6,11,11,0,0,1,3-8.12,11.49,11.49,0,0,1,15.59,0,12.38,12.38,0,0,1,0,16.26A10.59,10.59,0,0,1,224.67,602.57Zm0-3.15a6.63,6.63,0,0,0,5.09-2.21,9.36,9.36,0,0,0,0-11.64,6.63,6.63,0,0,0-5.09-2.21,6.54,6.54,0,0,0-5.05,2.21,9.43,9.43,0,0,0,0,11.64A6.54,6.54,0,0,0,224.65,599.42Z"/>
          <path d="M257.35,568.51h3.79v33.65h-3.65L257.4,598a8,8,0,0,1-3.07,3.4,8.57,8.57,0,0,1-4.55,1.25,9.77,9.77,0,0,1-7.11-3A10.22,10.22,0,0,1,240.5,596a12.85,12.85,0,0,1-.8-4.62,11.3,11.3,0,0,1,2.92-8.08,9.43,9.43,0,0,1,7.16-3.11,8.58,8.58,0,0,1,4.5,1.21,7.94,7.94,0,0,1,3.07,3.3Zm-6.79,30.82a6.46,6.46,0,0,0,5-2.27,8.87,8.87,0,0,0,0-11.31,6.44,6.44,0,0,0-5-2.28,6.55,6.55,0,0,0-5,2.2,9.07,9.07,0,0,0,0,11.46A6.55,6.55,0,0,0,250.56,599.33Z"/>
          <path d="M282.26,580.62h3.79v21.54h-3.63l-.09-2.85a6.7,6.7,0,0,1-2.67,2.42,8.26,8.26,0,0,1-3.77.84,7.47,7.47,0,0,1-5.42-2,7.24,7.24,0,0,1-2-5.5v-14.5h3.79v13.65a5.1,5.1,0,0,0,1.32,3.85,4.71,4.71,0,0,0,3.39,1.28,5.15,5.15,0,0,0,3.82-1.49,6,6,0,0,0,1.5-4.41Z"/>
          <path d="M302.7,602.55a10.37,10.37,0,0,1-7.71-3.09,12.29,12.29,0,0,1,0-16.17,11.24,11.24,0,0,1,13.95-1.2,9.53,9.53,0,0,1,3.63,5.24l-3.55.56a6.44,6.44,0,0,0-6.33-4.53,6.36,6.36,0,0,0-5,2.21,9.56,9.56,0,0,0,0,11.6,6.35,6.35,0,0,0,5,2.2,6.44,6.44,0,0,0,6.33-4.53l3.55.59a9.54,9.54,0,0,1-3.65,5.23A10.43,10.43,0,0,1,302.7,602.55Z"/>
          <path d="M325,602.16a5.65,5.65,0,0,1-4.2-1.55,5.84,5.84,0,0,1-1.54-4.3V583.64h-4.4v-3h1.62a3.13,3.13,0,0,0,2.38-.75,3.75,3.75,0,0,0,.69-2.54v-3.89h3.53v7.18h4.95v3H323.1v12.27a3.26,3.26,0,0,0,.82,2.38,2.89,2.89,0,0,0,2.16.84h2v3Z"/>
          <path d="M342.33,602.57a11.38,11.38,0,0,1-5.52-1.33,9.82,9.82,0,0,1-3.89-3.91,12.1,12.1,0,0,1-1.43-6,11,11,0,0,1,3.05-8.12,11.49,11.49,0,0,1,15.59,0,12.38,12.38,0,0,1,0,16.26A10.57,10.57,0,0,1,342.33,602.57Zm0-3.15a6.63,6.63,0,0,0,5.09-2.21,9.36,9.36,0,0,0,0-11.64,6.63,6.63,0,0,0-5.09-2.21,6.54,6.54,0,0,0-5.05,2.21,9.47,9.47,0,0,0,0,11.64A6.54,6.54,0,0,0,342.31,599.42Z"/>
          <path d="M365.92,602.57a10.25,10.25,0,0,1-5.8-1.55,6.47,6.47,0,0,1-2.83-4.43l3.31-.94a4.62,4.62,0,0,0,1.76,3,5.74,5.74,0,0,0,3.54,1.06,7.05,7.05,0,0,0,2.07-.28,3.34,3.34,0,0,0,1.59-1.07,2.84,2.84,0,0,0,.64-2,3.06,3.06,0,0,0-.18-.88,4,4,0,0,0-.35-.72,2.3,2.3,0,0,0-.61-.59c-.28-.19-.53-.34-.75-.46a8.34,8.34,0,0,0-1-.4c-.43-.16-.78-.27-1-.35l-1.21-.35-1.25-.36a23.53,23.53,0,0,1-2.23-.79,10.1,10.1,0,0,1-1.82-1,4.14,4.14,0,0,1-1.41-1.7,5.67,5.67,0,0,1-.47-2.41,5.56,5.56,0,0,1,1-3.44,5.9,5.9,0,0,1,2.73-2,11,11,0,0,1,3.82-.62,9.37,9.37,0,0,1,5.24,1.4,6,6,0,0,1,2.62,4.21l-3.11.79a4.09,4.09,0,0,0-1.64-2.73,5.2,5.2,0,0,0-3.09-.91,5.36,5.36,0,0,0-2.89.75,2.55,2.55,0,0,0-1.21,2.32,2.33,2.33,0,0,0,.32,1.19,3.55,3.55,0,0,0,.65.84,3.9,3.9,0,0,0,1.18.65c.57.23,1,.38,1.27.46s.8.22,1.58.4a1.68,1.68,0,0,0,.33.09c.84.22,1.53.41,2.07.58a12.94,12.94,0,0,1,1.86.79,6.11,6.11,0,0,1,1.67,1.17,5.64,5.64,0,0,1,1.06,1.67,5.92,5.92,0,0,1,.43,2.32,6.26,6.26,0,0,1-.64,2.9,5.16,5.16,0,0,1-1.76,2,8.7,8.7,0,0,1-2.51,1.08A12.08,12.08,0,0,1,365.92,602.57Z"/>
          <path d="M184.59,634.46h4l-12.46,31.68h-3.92l4.31-10.67-8.37-21h4.21l6.07,16.76Z"/>
          <path d="M211.62,656.41a10.18,10.18,0,0,1-5.8-1.56,6.43,6.43,0,0,1-2.83-4.42l3.31-.94a4.59,4.59,0,0,0,1.77,3,5.69,5.69,0,0,0,3.53,1.06,6.73,6.73,0,0,0,2.07-.29,3.25,3.25,0,0,0,1.59-1.06,2.86,2.86,0,0,0,.64-2,3.2,3.2,0,0,0-.18-.89,3.91,3.91,0,0,0-.35-.71,2.3,2.3,0,0,0-.61-.59c-.28-.19-.53-.34-.75-.46a6.87,6.87,0,0,0-1-.4c-.43-.16-.78-.27-1-.35l-1.21-.36-1.25-.36c-.9-.27-1.65-.54-2.23-.78a9.61,9.61,0,0,1-1.82-1.05,4.12,4.12,0,0,1-1.41-1.69,5.67,5.67,0,0,1-.47-2.41,5.56,5.56,0,0,1,1-3.44,5.9,5.9,0,0,1,2.73-2,10.78,10.78,0,0,1,3.82-.62,9.35,9.35,0,0,1,5.25,1.4,6,6,0,0,1,2.61,4.21l-3.11.78a4.09,4.09,0,0,0-1.64-2.72,5.2,5.2,0,0,0-3.09-.91,5.36,5.36,0,0,0-2.89.75,2.56,2.56,0,0,0-1.21,2.31,2.34,2.34,0,0,0,.32,1.2,3.55,3.55,0,0,0,.65.84,3.9,3.9,0,0,0,1.18.65c.57.22,1,.38,1.27.46l1.58.4a1.68,1.68,0,0,0,.33.09c.84.22,1.53.41,2.07.58a12.94,12.94,0,0,1,1.86.79,6.33,6.33,0,0,1,1.68,1.17,5.77,5.77,0,0,1,1.48,4,6.29,6.29,0,0,1-.64,2.9,5.05,5.05,0,0,1-1.76,2,8.46,8.46,0,0,1-2.51,1.09A12,12,0,0,1,211.62,656.41Z"/>
          <path d="M244.35,644.8l0,1H227.49a7.6,7.6,0,0,0,2,5.51,6.76,6.76,0,0,0,4.91,1.91,6.47,6.47,0,0,0,3.57-1,6.71,6.71,0,0,0,2.46-2.85l3.41.72a9.65,9.65,0,0,1-3.68,4.62,10,10,0,0,1-5.71,1.69,10.41,10.41,0,0,1-7.76-3,12.78,12.78,0,0,1,0-16.37,10.29,10.29,0,0,1,7.64-3,9.74,9.74,0,0,1,7.24,2.76Q244.35,639.56,244.35,644.8Zm-10-7.84a6.66,6.66,0,0,0-4.48,1.52,7,7,0,0,0-2.27,4.44h12.9a6.35,6.35,0,0,0-1.88-4.44A6.07,6.07,0,0,0,234.39,637Z"/>
          <path d="M254,638.25a6.5,6.5,0,0,1,2.67-2.89,8,8,0,0,1,4.14-1.14v3.57a7.07,7.07,0,0,0-5,1.6c-1.15,1.06-1.72,2.77-1.72,5.1V656h-3.79V634.46H254Z"/>
          <path d="M279.12,634.46h4.05L274.41,656h-3.22l-8.72-21.53h4l6.31,17.13Z"/>
          <path d="M289.59,629.4a2.58,2.58,0,0,1-2.56-2.56,2.44,2.44,0,0,1,.75-1.8,2.49,2.49,0,0,1,1.81-.75,2.47,2.47,0,0,1,1.79.75,2.56,2.56,0,0,1-1.79,4.36ZM287.66,656V634.46h3.81V656Z"/>
          <path d="M308.12,656.39a10.37,10.37,0,0,1-7.71-3.09,12.29,12.29,0,0,1,0-16.17,11.21,11.21,0,0,1,14-1.2,9.49,9.49,0,0,1,3.62,5.23l-3.55.57a6.51,6.51,0,0,0-2.43-3.35,6.59,6.59,0,0,0-3.9-1.18,6.38,6.38,0,0,0-5,2.21,9.56,9.56,0,0,0,0,11.6,6.38,6.38,0,0,0,5,2.2A6.59,6.59,0,0,0,312,652a6.51,6.51,0,0,0,2.43-3.35l3.55.59a9.49,9.49,0,0,1-3.65,5.22A10.37,10.37,0,0,1,308.12,656.39Z"/>
          <path d="M325.5,629.4a2.55,2.55,0,0,1-1.81-4.36,2.54,2.54,0,1,1,3.59,3.6A2.41,2.41,0,0,1,325.5,629.4ZM323.57,656V634.46h3.81V656Z"/>
          <path d="M344.16,656.41a11.36,11.36,0,0,1-5.52-1.34,9.7,9.7,0,0,1-3.89-3.91,12,12,0,0,1-1.43-5.94,11,11,0,0,1,3.05-8.12,11.46,11.46,0,0,1,15.59,0,12.36,12.36,0,0,1,0,16.25A10.56,10.56,0,0,1,344.16,656.41Zm0-3.16a6.59,6.59,0,0,0,5.09-2.21,9.34,9.34,0,0,0,0-11.63,6.63,6.63,0,0,0-5.09-2.21,6.54,6.54,0,0,0-5.05,2.21,9.42,9.42,0,0,0,0,11.63A6.51,6.51,0,0,0,344.14,653.25Z"/>
          <path d="M367.75,656.41a10.18,10.18,0,0,1-5.8-1.56,6.43,6.43,0,0,1-2.83-4.42l3.31-.94a4.62,4.62,0,0,0,1.76,3,5.72,5.72,0,0,0,3.54,1.06,6.73,6.73,0,0,0,2.07-.29,3.25,3.25,0,0,0,1.59-1.06,2.86,2.86,0,0,0,.64-2,3.2,3.2,0,0,0-.18-.89,3.91,3.91,0,0,0-.35-.71,2.3,2.3,0,0,0-.61-.59c-.28-.19-.53-.34-.75-.46a6.87,6.87,0,0,0-1-.4c-.43-.16-.78-.27-1-.35l-1.21-.36-1.25-.36c-.9-.27-1.65-.54-2.23-.78a9.61,9.61,0,0,1-1.82-1.05,4.12,4.12,0,0,1-1.41-1.69,5.67,5.67,0,0,1-.47-2.41,5.56,5.56,0,0,1,1.05-3.44,5.92,5.92,0,0,1,2.72-2,10.88,10.88,0,0,1,3.83-.62,9.29,9.29,0,0,1,5.24,1.4,6,6,0,0,1,2.62,4.21l-3.11.78a4.09,4.09,0,0,0-1.64-2.72,5.2,5.2,0,0,0-3.09-.91,5.34,5.34,0,0,0-2.89.75,2.54,2.54,0,0,0-1.21,2.31,2.34,2.34,0,0,0,.32,1.2,3.55,3.55,0,0,0,.65.84,3.9,3.9,0,0,0,1.18.65c.57.22,1,.38,1.27.46l1.58.4a1.68,1.68,0,0,0,.33.09c.84.22,1.53.41,2.07.58a12.94,12.94,0,0,1,1.86.79,6.27,6.27,0,0,1,1.67,1.17,5.43,5.43,0,0,1,1.05,1.67,5.72,5.72,0,0,1,.44,2.32A6.29,6.29,0,0,1,375,653a5,5,0,0,1-1.77,2,8.29,8.29,0,0,1-2.5,1.09A12.08,12.08,0,0,1,367.75,656.41Z"/>
        </g>
        <rect class="cls-22" x="1341.15" y="531.91" width="324" height="153.51" rx="21.48"/>
        <g>
          <ellipse class="cls-22" cx="1509.58" cy="469.62" rx="37.32" ry="34.96"/>
          <path d="M1508.66,453.33h6.4V485h-6.71V459.81l-7.76,6.77V460.1Z"/>
        </g>
        <line class="cls-23" x1="1507.23" y1="504.58" x2="1507.23" y2="531.38"/>
        <g>
          <path d="M1440.75,563.7v3.57h-7.91v27.28h-3.9V567.27H1421V563.7Z"/>
          <path d="M1446.84,576.8a6.52,6.52,0,0,1,2.68-2.89,8.14,8.14,0,0,1,4.14-1.14v3.57a7.14,7.14,0,0,0-5,1.6q-1.73,1.6-1.72,5.11v11.5h-3.79V573h3.7Z"/>
          <path d="M1462.81,595a7.32,7.32,0,0,1-4.72-1.48,5.3,5.3,0,0,1-1.85-4.41,6.37,6.37,0,0,1,.59-2.82,5.08,5.08,0,0,1,1.76-2,10.47,10.47,0,0,1,2.52-1.21,23.77,23.77,0,0,1,3.28-.78l3.48-.57c1.27-.23,1.91-.9,1.91-2a3.76,3.76,0,0,0-1.35-3.21,5.47,5.47,0,0,0-3.4-1,5.59,5.59,0,0,0-3.38,1,4.12,4.12,0,0,0-1.6,3l-3.42-.72a6.6,6.6,0,0,1,2.7-4.62,10.12,10.12,0,0,1,5.87-1.54,12.12,12.12,0,0,1,3.12.38,8.63,8.63,0,0,1,2.61,1.21,5.41,5.41,0,0,1,1.86,2.32,8.57,8.57,0,0,1,.67,3.54V589a3.65,3.65,0,0,0,.49,2.25,2.13,2.13,0,0,0,1.7.58h.35v2.74h-1.88c-2.33,0-3.68-1-4.08-2.92h-.17A8.24,8.24,0,0,1,1462.81,595Zm.88-3.06a5.75,5.75,0,0,0,4.62-2.09,8.53,8.53,0,0,0,1.75-5.69l-5.69,1.09a7.61,7.61,0,0,0-3.34,1.2,3.15,3.15,0,0,0,0,4.72A4.48,4.48,0,0,0,1463.69,591.9Z"/>
          <path d="M1492.76,572.6a9.36,9.36,0,0,1,7.12,3.11,12.75,12.75,0,0,1,0,16.19,9.38,9.38,0,0,1-7.14,3.11,8.66,8.66,0,0,1-4.59-1.25,7.91,7.91,0,0,1-3.08-3.4l-.09,4.19h-3.65V560.9h3.76l0,16.23a7.93,7.93,0,0,1,3.07-3.32A8.68,8.68,0,0,1,1492.76,572.6Zm-.83,19.12a6.59,6.59,0,0,0,5-2.2,9.1,9.1,0,0,0,0-11.46,6.59,6.59,0,0,0-5-2.2,6.46,6.46,0,0,0-5,2.28,8.87,8.87,0,0,0,0,11.31A6.46,6.46,0,0,0,1491.93,591.72Z"/>
          <path d="M1513.72,595a7.32,7.32,0,0,1-4.72-1.48,5.3,5.3,0,0,1-1.85-4.41,6.37,6.37,0,0,1,.59-2.82,5.08,5.08,0,0,1,1.76-2,10.36,10.36,0,0,1,2.53-1.21,23.25,23.25,0,0,1,3.27-.78l3.48-.57c1.27-.23,1.91-.9,1.91-2a3.76,3.76,0,0,0-1.35-3.21,5.47,5.47,0,0,0-3.4-1,5.59,5.59,0,0,0-3.38,1,4.12,4.12,0,0,0-1.6,3l-3.41-.72a6.59,6.59,0,0,1,2.69-4.62,10.14,10.14,0,0,1,5.87-1.54,12.12,12.12,0,0,1,3.12.38,8.52,8.52,0,0,1,2.61,1.21,5.34,5.34,0,0,1,1.86,2.32,8.57,8.57,0,0,1,.67,3.54V589a3.65,3.65,0,0,0,.49,2.25,2.13,2.13,0,0,0,1.7.58h.35v2.74H1525q-3.48,0-4.08-2.92h-.17A8.24,8.24,0,0,1,1513.72,595Zm.88-3.06a5.75,5.75,0,0,0,4.62-2.09,8.53,8.53,0,0,0,1.75-5.69l-5.69,1.09a7.61,7.61,0,0,0-3.34,1.2,2.79,2.79,0,0,0-1.09,2.35,2.76,2.76,0,0,0,1,2.37A4.48,4.48,0,0,0,1514.6,591.9Z"/>
          <path d="M1527.31,604.62V601.4a6.11,6.11,0,0,0,3.08-.61,3.36,3.36,0,0,0,1.45-2.1,17.63,17.63,0,0,0,.42-4.45V573h3.83v21.23q0,5.7-2,8C1532.77,603.84,1530.5,604.62,1527.31,604.62Zm6.9-36.67a2.48,2.48,0,0,1-1.81-.75,2.5,2.5,0,0,1-.76-1.81,2.46,2.46,0,0,1,.76-1.8,2.51,2.51,0,0,1,1.81-.74,2.47,2.47,0,0,1,1.78.74,2.43,2.43,0,0,1,.76,1.8,2.58,2.58,0,0,1-2.54,2.56Z"/>
          <path d="M1552.89,595a11.38,11.38,0,0,1-5.52-1.33,9.82,9.82,0,0,1-3.89-3.91,12.1,12.1,0,0,1-1.43-6,11,11,0,0,1,3-8.12,11.49,11.49,0,0,1,15.59,0,12.35,12.35,0,0,1,0,16.26A10.57,10.57,0,0,1,1552.89,595Zm0-3.15a6.61,6.61,0,0,0,5.09-2.21,9.36,9.36,0,0,0,0-11.64,6.61,6.61,0,0,0-5.09-2.21,6.54,6.54,0,0,0-5,2.21,9.47,9.47,0,0,0,0,11.64A6.54,6.54,0,0,0,1552.87,591.81Z"/>
          <path d="M1576.49,595a10.26,10.26,0,0,1-5.81-1.55,6.45,6.45,0,0,1-2.83-4.43l3.31-.94a4.61,4.61,0,0,0,1.77,3,5.69,5.69,0,0,0,3.53,1.06,7.05,7.05,0,0,0,2.07-.28,3.39,3.39,0,0,0,1.59-1.06,2.88,2.88,0,0,0,.64-2,3.06,3.06,0,0,0-.18-.89,3.61,3.61,0,0,0-.35-.71,2.05,2.05,0,0,0-.61-.6c-.28-.18-.53-.34-.75-.46a8.34,8.34,0,0,0-1-.4l-1-.35-1.21-.35-1.25-.36c-.9-.28-1.64-.54-2.23-.79a10.45,10.45,0,0,1-1.82-1,4.14,4.14,0,0,1-1.41-1.7,5.82,5.82,0,0,1-.47-2.41,5.58,5.58,0,0,1,1-3.44,6,6,0,0,1,2.73-2,11,11,0,0,1,3.82-.62,9.43,9.43,0,0,1,5.25,1.4,6,6,0,0,1,2.61,4.21l-3.11.79a4.11,4.11,0,0,0-1.64-2.73,5.2,5.2,0,0,0-3.09-.91,5.28,5.28,0,0,0-2.89.76,2.53,2.53,0,0,0-1.2,2.31,2.3,2.3,0,0,0,.31,1.19,3.55,3.55,0,0,0,.65.84,3.9,3.9,0,0,0,1.18.65c.57.23,1,.38,1.27.46l1.58.41.33.08c.85.22,1.54.42,2.07.58a14.19,14.19,0,0,1,1.86.79,6.33,6.33,0,0,1,1.68,1.17,5.43,5.43,0,0,1,1,1.67,5.92,5.92,0,0,1,.44,2.32,6.23,6.23,0,0,1-.65,2.9,5.08,5.08,0,0,1-1.76,2,8.59,8.59,0,0,1-2.51,1.08A12,12,0,0,1,1576.49,595Z"/>
          <path d="M1416.7,614.74h3.79v33.64h-3.66l-.09-4.18a8,8,0,0,1-3.06,3.4,8.58,8.58,0,0,1-4.56,1.24,9.81,9.81,0,0,1-7.11-3,10.52,10.52,0,0,1-2.17-3.56,13.11,13.11,0,0,1-.8-4.62,11.34,11.34,0,0,1,2.93-8.09,9.45,9.45,0,0,1,7.15-3.11,8.58,8.58,0,0,1,4.5,1.22,8,8,0,0,1,3.08,3.3Zm-6.79,30.82a6.45,6.45,0,0,0,5-2.27,8.87,8.87,0,0,0,0-11.31,6.42,6.42,0,0,0-5-2.28,6.59,6.59,0,0,0-5,2.2,9.07,9.07,0,0,0,0,11.46A6.62,6.62,0,0,0,1409.91,645.56Z"/>
          <path d="M1447,637.19l0,1h-16.83a7.63,7.63,0,0,0,2.06,5.51,6.77,6.77,0,0,0,4.91,1.92,6.53,6.53,0,0,0,3.57-1,6.76,6.76,0,0,0,2.45-2.85l3.42.72a9.65,9.65,0,0,1-3.68,4.62,10,10,0,0,1-5.72,1.69,10.39,10.39,0,0,1-7.75-3,12.77,12.77,0,0,1,0-16.36,10.24,10.24,0,0,1,7.63-3,9.72,9.72,0,0,1,7.24,2.76Q1447,631.95,1447,637.19Zm-10-7.84a6.75,6.75,0,0,0-4.48,1.52,7,7,0,0,0-2.26,4.44h12.9a6.42,6.42,0,0,0-1.89-4.44A6.1,6.1,0,0,0,1437.07,629.35Z"/>
          <path d="M1453,648.38V614.74h3.83v33.64Z"/>
          <path d="M1485.11,648.78a10.37,10.37,0,0,1-7.71-3.09,12.29,12.29,0,0,1,0-16.17,11.21,11.21,0,0,1,14-1.2,9.49,9.49,0,0,1,3.62,5.23l-3.55.57a6.51,6.51,0,0,0-2.43-3.35,6.59,6.59,0,0,0-3.9-1.18,6.38,6.38,0,0,0-5,2.21,9.56,9.56,0,0,0,0,11.6,6.38,6.38,0,0,0,5,2.2,6.59,6.59,0,0,0,3.9-1.18,6.51,6.51,0,0,0,2.43-3.35l3.55.59a9.49,9.49,0,0,1-3.65,5.22A10.37,10.37,0,0,1,1485.11,648.78Z"/>
          <path d="M1500.56,648.38V614.74h3.83v33.64Z"/>
          <path d="M1514,621.79a2.58,2.58,0,1,1,1.79-.76A2.44,2.44,0,0,1,1514,621.79Zm-1.93,26.59V626.85h3.81v21.53Z"/>
          <path d="M1542.47,637.19l0,1H1525.6a7.59,7.59,0,0,0,2.06,5.51,6.74,6.74,0,0,0,4.9,1.92,6.48,6.48,0,0,0,3.57-1,6.71,6.71,0,0,0,2.46-2.85l3.42.72a9.72,9.72,0,0,1-3.69,4.62,10,10,0,0,1-5.71,1.69,10.41,10.41,0,0,1-7.76-3,12.77,12.77,0,0,1,0-16.36,10.26,10.26,0,0,1,7.64-3,9.72,9.72,0,0,1,7.24,2.76Q1542.47,631.95,1542.47,637.19Zm-10-7.84a6.73,6.73,0,0,0-4.48,1.52,7,7,0,0,0-2.27,4.44h12.9a6.37,6.37,0,0,0-1.88-4.44A6.1,6.1,0,0,0,1532.5,629.35Z"/>
          <path d="M1558.57,626.43a7.49,7.49,0,0,1,5.42,2,7.29,7.29,0,0,1,2,5.5v14.5h-3.79V634.74a5.08,5.08,0,0,0-1.31-3.86,4.71,4.71,0,0,0-3.37-1.25,5.21,5.21,0,0,0-3.84,1.48,6,6,0,0,0-1.51,4.39v12.88h-3.79V626.85h3.79v2.76A7.19,7.19,0,0,1,1558.57,626.43Z"/>
          <path d="M1580.21,648.38a5.68,5.68,0,0,1-4.21-1.54,5.84,5.84,0,0,1-1.53-4.3V629.87h-4.4v-3h1.62a3.1,3.1,0,0,0,2.38-.76,3.7,3.7,0,0,0,.69-2.53v-3.89h3.52v7.18h5v3h-5v12.27a3.3,3.3,0,0,0,.82,2.38,2.89,2.89,0,0,0,2.16.84h2v3Z"/>
          <path d="M1607.29,637.19l0,1h-16.82a7.59,7.59,0,0,0,2.06,5.51,6.74,6.74,0,0,0,4.9,1.92,6.54,6.54,0,0,0,3.58-1,6.76,6.76,0,0,0,2.45-2.85l3.42.72a9.7,9.7,0,0,1-3.68,4.62,10,10,0,0,1-5.72,1.69,10.41,10.41,0,0,1-7.76-3,12.8,12.8,0,0,1,0-16.36,10.26,10.26,0,0,1,7.64-3,9.72,9.72,0,0,1,7.24,2.76Q1607.29,631.95,1607.29,637.19Zm-10-7.84a6.73,6.73,0,0,0-4.48,1.52,7,7,0,0,0-2.27,4.44h12.9a6.37,6.37,0,0,0-1.88-4.44A6.1,6.1,0,0,0,1597.32,629.35Z"/>
        </g>
        <polygon class="cls-24" points="789.6 607.35 762.25 591.56 762.25 606.47 708.71 606.47 708.71 639.8 762.25 639.8 762.25 654.72 789.6 638.92 816.95 623.14 789.6 607.35"/>
        <polygon class="cls-24" points="974.71 638.92 1002.05 654.72 1002.05 639.8 1055.6 639.8 1055.6 606.47 1002.05 606.47 1002.05 591.56 974.71 607.35 947.36 623.14 974.71 638.92"/>
        <g>
          <path d="M350.76,151h-6.55l-2.08-23.86-8,23.86h-4.25l-8-23.86L319.74,151h-6.57l2.65-31.66h9.38l6.74,19.87,6.84-19.87h9.37Z"/>
          <path d="M378.82,151l-2.3-6.53H363.23l-2.3,6.53H354.2l11.65-31.66h8L385.55,151Zm-13.67-12h9.44l-4.71-13.43Z"/>
          <path d="M403.47,119.3a9.54,9.54,0,0,1,7.29,3,10.24,10.24,0,0,1,2.76,7.28,10,10,0,0,1-2.74,7.24,9.65,9.65,0,0,1-7.31,2.84h-6.6V151H390.3V119.3Zm-1.1,14.81a4.83,4.83,0,0,0,3.62-1.24,5.41,5.41,0,0,0,0-6.81,4.8,4.8,0,0,0-3.61-1.26h-5.5v9.31Z"/>
          <path d="M437.05,151l-2.3-6.53h-13.3l-2.3,6.53h-6.72l11.65-31.66h8L443.78,151Zm-13.67-12h9.44l-4.71-13.43Z"/>
          <path d="M460.18,151V119.3h11.46a17.89,17.89,0,0,1,6.61,1.14,12.26,12.26,0,0,1,4.73,3.23,14.08,14.08,0,0,1,2.8,5,22.28,22.28,0,0,1,0,12.94,14.08,14.08,0,0,1-2.8,5,12.26,12.26,0,0,1-4.73,3.23,17.89,17.89,0,0,1-6.61,1.14Zm6.58-5.81h4.55q4.31,0,6.4-2.57c1.4-1.72,2.1-4.2,2.1-7.46s-.7-5.74-2.1-7.46-3.53-2.57-6.4-2.57h-4.55Z"/>
          <path d="M511.25,125.09H499.51v7.18h10.4V138h-10.4v7.16h11.74V151H492.89V119.3h18.36Z"/>
          <path d="M549.8,119.3h7L545.09,151h-7.23L526.23,119.3h7l8.3,24Z"/>
          <path d="M580,151l-2.3-6.53h-13.3l-2.3,6.53h-6.73L567,119.3h8L586.67,151Zm-13.67-12h9.44L571,125.5Z"/>
          <path d="M598,145.15h9.92V151H591.43V119.3H598Z"/>
          <path d="M626.32,151.4a17.13,17.13,0,0,1-8.31-2,14.32,14.32,0,0,1-5.77-5.7,18.56,18.56,0,0,1,0-17.19,14.27,14.27,0,0,1,5.77-5.68,18.51,18.51,0,0,1,16.62,0,14.31,14.31,0,0,1,5.76,5.68,18.64,18.64,0,0,1,0,17.19,14.38,14.38,0,0,1-5.77,5.7A17.09,17.09,0,0,1,626.32,151.4Zm-6.92-8.8a10,10,0,0,0,13.85,0,11.64,11.64,0,0,0,0-14.93,10.07,10.07,0,0,0-13.85,0,11.64,11.64,0,0,0,0,14.93Z"/>
          <path d="M665.25,151,657,137h-1.9V151h-6.57V119.3H660a13.29,13.29,0,0,1,4.6.74,8,8,0,0,1,3.18,2,8.7,8.7,0,0,1,1.8,3,11,11,0,0,1,.6,3.71,7.7,7.7,0,0,1-1.73,5.2,8.73,8.73,0,0,1-5,2.73L673,151Zm-10.14-26.2v7.56H659c3.28,0,4.93-1.26,4.93-3.77a3.44,3.44,0,0,0-1.21-2.78,5.66,5.66,0,0,0-3.72-1Z"/>
        </g>
        <g>
          <path d="M1042.71,119.3a9.55,9.55,0,0,1,7.3,3,10.24,10.24,0,0,1,2.76,7.28,10,10,0,0,1-2.74,7.24,9.69,9.69,0,0,1-7.32,2.84h-6.59V151h-6.57V119.3Zm-1.09,14.81a4.8,4.8,0,0,0,3.61-1.24,5.38,5.38,0,0,0,0-6.81,4.78,4.78,0,0,0-3.6-1.26h-5.5v9.31Z"/>
          <path d="M1076.65,125.09H1064.9v7.18h10.41V138H1064.9v7.16h11.75V151h-18.36V119.3h18.36Z"/>
          <path d="M1100.13,151,1091.89,137H1090V151h-6.57V119.3h11.47a13.21,13.21,0,0,1,4.6.74,8,8,0,0,1,3.19,2,8.7,8.7,0,0,1,1.8,3,11,11,0,0,1,.6,3.71,7.75,7.75,0,0,1-1.73,5.2,8.73,8.73,0,0,1-5,2.73l9.53,14.26ZM1090,124.76v7.56h3.87q4.94,0,4.93-3.77a3.43,3.43,0,0,0-1.2-2.78,5.69,5.69,0,0,0-3.73-1Z"/>
          <path d="M1131.39,125.09h-12.05v7.18h10.41V138h-10.41v13h-6.61V119.3h18.66Z"/>
          <path d="M1137,151V119.3h6.57V151Z"/>
          <path d="M1158.31,145.15h9.93V151h-16.5V119.3h6.57Z"/>
          <path d="M1198.93,151.4a17.72,17.72,0,0,1-6.45-1.16,15.18,15.18,0,0,1-5.14-3.25,14.41,14.41,0,0,1-3.37-5.15,17.86,17.86,0,0,1-1.23-6.72,17.18,17.18,0,0,1,2.1-8.6,14.36,14.36,0,0,1,5.78-5.68,17.18,17.18,0,0,1,8.31-2,16.81,16.81,0,0,1,9.29,2.56,14,14,0,0,1,5.67,7l-6.13,2.24a8.67,8.67,0,0,0-3.4-4.28,9.7,9.7,0,0,0-5.43-1.53,9.3,9.3,0,0,0-6.92,2.76,11.56,11.56,0,0,0,0,14.91,9.28,9.28,0,0,0,6.91,2.77,9.74,9.74,0,0,0,5.42-1.54,8.71,8.71,0,0,0,3.41-4.29l6.13,2.24a14,14,0,0,1-5.67,7.06A16.74,16.74,0,0,1,1198.93,151.4Z"/>
          <path d="M1225.85,145.15h9.93V151h-16.5V119.3h6.57Z"/>
          <path d="M1240.79,151V119.3h6.57V151Z"/>
          <path d="M1273.89,125.09h-11.74v7.18h10.41V138h-10.41v7.16h11.74V151h-18.35V119.3h18.35Z"/>
          <path d="M1302.28,119.3h6.56V151h-7.61l-14-22.63V151h-6.55V119.3h7.52l14.1,22.5Z"/>
          <path d="M1335.38,119.3v5.79h-7.51V151h-6.5V125.09h-7.56V119.3Z"/>
          <path d="M1358.72,125.09H1347v7.18h10.41V138H1347v7.16h11.75V151h-18.36V119.3h18.36Z"/>
        </g>
      </g>
    </g>
  </g>
</svg>
