<svg xmlns="http://www.w3.org/2000/svg" width="440" height="255.073" viewBox="0 0 440 255.073">
  <g id="Grupo_27022" data-name="Grupo 27022" transform="translate(-370 -8582)">
    <g id="Grupo_27021" data-name="Grupo 27021" transform="translate(139 6710)">
      <path id="Trazado_21239" data-name="Trazado 21239" d="M232.542,781H427.458a144,144,0,1,0-194.916,0Z" transform="translate(119 1345.073)" fill="#1283b3" opacity="0.2" style="mix-blend-mode: multiply;isolation: isolate"/>
      <g id="Grupo_26927" data-name="Grupo 26927" transform="translate(119 1345.073)" style="isolation: isolate">
        <g id="Grupo_26924" data-name="Grupo 26924">
          <path id="Trazado_21240" data-name="Trazado 21240" d="M172.088,638.066l-1.959-.4q.3-1.479.638-2.951l1.95.442Q172.389,636.607,172.088,638.066Z" fill="#7d58bd"/>
        </g>
        <g id="Grupo_26925" data-name="Grupo 26925">
          <path id="Trazado_21241" data-name="Trazado 21241" d="M174.158,629.308l-1.933-.516c.521-1.95,1.088-3.922,1.687-5.861l1.911.589C175.232,625.435,174.672,627.382,174.158,629.308Zm3.553-11.505-1.886-.664c.671-1.907,1.388-3.829,2.134-5.713l1.859.735C179.082,614.022,178.373,615.92,177.711,617.8Zm4.431-11.2-1.831-.806c.816-1.849,1.68-3.71,2.569-5.531l1.8.877C183.8,602.943,182.947,604.78,182.142,606.6Zm5.28-10.819-1.761-.946c.959-1.787,1.964-3.576,2.988-5.316l1.724,1.014C189.363,592.255,188.37,594.021,187.422,595.786Zm6.1-10.378-1.683-1.08c1.093-1.7,2.233-3.409,3.39-5.068l1.641,1.145C195.728,582.042,194.6,583.726,193.523,585.408Zm6.887-9.872-1.6-1.207c1.223-1.615,2.492-3.226,3.774-4.789l1.547,1.269C202.87,572.352,201.617,573.942,200.41,575.536Zm7.632-9.3-1.5-1.328c1.346-1.516,2.738-3.024,4.135-4.479l1.442,1.385C210.745,563.246,209.372,564.734,208.042,566.231Zm8.334-8.68-1.388-1.44c1.46-1.406,2.965-2.8,4.472-4.142l1.33,1.494C219.3,554.788,217.817,556.163,216.376,557.551Zm8.984-8-1.27-1.545c1.558-1.281,3.166-2.552,4.781-3.777l1.209,1.592C228.486,547.032,226.9,548.287,225.36,549.552Zm9.58-7.272-1.146-1.639c1.65-1.154,3.352-2.3,5.058-3.393l1.083,1.682C238.249,540.013,236.569,541.141,234.94,542.28Zm10.121-6.508-1.016-1.722c1.739-1.025,3.526-2.032,5.313-2.995l.948,1.76C248.542,533.766,246.777,534.761,245.061,535.772Z" fill="#7d58bd"/>
        </g>
        <g id="Grupo_26926" data-name="Grupo 26926">
          <path id="Trazado_21242" data-name="Trazado 21242" d="M255.739,530.025l-.879-1.8q1.352-.662,2.723-1.3l.846,1.812Q257.076,529.372,255.739,530.025Z" fill="#7d58bd"/>
        </g>
      </g>
      <g id="Grupo_26931" data-name="Grupo 26931" transform="translate(119 1345.073)" style="isolation: isolate">
        <g id="Grupo_26928" data-name="Grupo 26928">
          <path id="Trazado_21243" data-name="Trazado 21243" d="M488.027,638.067q-.3-1.461-.629-2.914l1.952-.44q.33,1.471.636,2.95Z" fill="#7d58bd"/>
        </g>
        <g id="Grupo_26929" data-name="Grupo 26929">
          <path id="Trazado_21244" data-name="Trazado 21244" d="M485.958,629.308c-.519-1.941-1.079-3.888-1.666-5.787l1.91-.591c.6,1.924,1.163,3.9,1.688,5.862ZM482.4,617.8c-.663-1.886-1.372-3.783-2.107-5.64l1.859-.737c.745,1.881,1.463,3.8,2.135,5.714Zm-4.43-11.2c-.809-1.833-1.663-3.67-2.536-5.461l1.8-.877c.885,1.814,1.749,3.675,2.569,5.53Zm-5.281-10.82c-.94-1.752-1.933-3.518-2.95-5.249l1.725-1.013c1.029,1.753,2.035,3.541,2.987,5.316Zm-6.1-10.378c-1.078-1.682-2.2-3.365-3.348-5l1.641-1.145c1.158,1.659,2.3,3.365,3.39,5.069Zm-6.886-9.872c-1.209-1.6-2.463-3.187-3.727-4.727l1.547-1.269c1.28,1.561,2.549,3.171,3.774,4.789Zm-7.633-9.3c-1.32-1.488-2.694-2.976-4.082-4.422l1.444-1.385c1.4,1.465,2.8,2.971,4.134,4.479Zm-8.333-8.679c-1.438-1.385-2.924-2.76-4.415-4.088l1.33-1.494c1.511,1.345,3.016,2.739,4.472,4.141Zm-8.984-8c-1.544-1.27-3.132-2.525-4.72-3.73l1.209-1.592c1.608,1.22,3.217,2.491,4.781,3.777Zm-9.58-7.272c-1.629-1.139-3.31-2.267-4.994-3.35l1.082-1.682c1.706,1.1,3.408,2.239,5.058,3.393Zm-10.121-6.508c-1.718-1.012-3.483-2.007-5.246-2.957l.949-1.76c1.785.962,3.573,1.969,5.312,2.995Z" fill="#7d58bd"/>
        </g>
        <g id="Grupo_26930" data-name="Grupo 26930">
          <path id="Trazado_21245" data-name="Trazado 21245" d="M404.377,530.025q-1.337-.654-2.691-1.286l.846-1.812q1.371.639,2.724,1.3Z" fill="#7d58bd"/>
        </g>
      </g>
      <g id="Grupo_26945" data-name="Grupo 26945" transform="translate(119 1345.073)">
        <rect id="Rectángulo_4118" data-name="Rectángulo 4118" width="196" height="132" rx="8" transform="translate(232 645)" fill="#00314d"/>
        <rect id="Rectángulo_4119" data-name="Rectángulo 4119" width="176" height="54" transform="translate(242 656)" fill="#ff5c5c"/>
        <path id="Trazado_21246" data-name="Trazado 21246" d="M440.5,776a6.022,6.022,0,0,1-6,6h-208a6.022,6.022,0,0,1-6-6,6.049,6.049,0,0,1,.35-2h219.3A6.049,6.049,0,0,1,440.5,776Z" fill="#fff"/>
        <rect id="Rectángulo_4120" data-name="Rectángulo 4120" width="20" height="5" transform="translate(320 774)" fill="#bdc3c7"/>
        <path id="Trazado_21247" data-name="Trazado 21247" d="M438.96,780a5.949,5.949,0,0,1-4.46,2h-208a5.947,5.947,0,0,1-4.46-2Z" fill="#bdc3c7"/>
        <rect id="Rectángulo_4121" data-name="Rectángulo 4121" width="176" height="57" transform="translate(242 710)" fill="#fff"/>
        <g id="Grupo_26938" data-name="Grupo 26938">
          <g id="Grupo_26932" data-name="Grupo 26932">
            <rect id="Rectángulo_4122" data-name="Rectángulo 4122" width="28" height="2" transform="translate(375 753)" fill="#bdc3c7"/>
          </g>
          <g id="Grupo_26933" data-name="Grupo 26933">
            <rect id="Rectángulo_4123" data-name="Rectángulo 4123" width="28" height="2" transform="translate(375 749)" fill="#bdc3c7"/>
          </g>
          <g id="Grupo_26934" data-name="Grupo 26934">
            <rect id="Rectángulo_4124" data-name="Rectángulo 4124" width="28" height="2" transform="translate(375 745)" fill="#bdc3c7"/>
          </g>
          <g id="Grupo_26935" data-name="Grupo 26935">
            <rect id="Rectángulo_4125" data-name="Rectángulo 4125" width="28" height="2" transform="translate(375 741)" fill="#bdc3c7"/>
          </g>
          <g id="Grupo_26936" data-name="Grupo 26936">
            <rect id="Rectángulo_4126" data-name="Rectángulo 4126" width="28" height="2" transform="translate(375 737)" fill="#bdc3c7"/>
          </g>
          <g id="Grupo_26937" data-name="Grupo 26937">
            <rect id="Rectángulo_4127" data-name="Rectángulo 4127" width="28" height="2" transform="translate(375 733)" fill="#bdc3c7"/>
          </g>
        </g>
        <rect id="Rectángulo_4128" data-name="Rectángulo 4128" width="28" height="12" transform="translate(375 717)" fill="#fcb614"/>
        <g id="Grupo_26943" data-name="Grupo 26943">
          <g id="Grupo_26942" data-name="Grupo 26942">
            <g id="Grupo_26939" data-name="Grupo 26939">
              <path id="Trazado_21248" data-name="Trazado 21248" d="M336.741,749.144,315.9,734.117l-20.768,14.978L274.3,737.077,253.75,748.934l-.5-.867L274.3,735.923l20.772,11.982L315.9,732.883l20.758,14.973,24.5-22.723.68.734Z" fill="#00314d"/>
            </g>
            <g id="Grupo_26941" data-name="Grupo 26941">
              <g id="Grupo_26940" data-name="Grupo 26940">
                <path id="Trazado_21249" data-name="Trazado 21249" d="M365.642,721.659l-8.048,3.028,3.6,1.1.826,3.668Z" fill="#00314d"/>
              </g>
            </g>
          </g>
          <circle id="Elipse_957" data-name="Elipse 957" cx="2" cy="2" r="2" transform="translate(272.5 735)" fill="#00314d"/>
          <circle id="Elipse_958" data-name="Elipse 958" cx="2" cy="2" r="2" transform="translate(313.5 732)" fill="#00314d"/>
        </g>
        <ellipse id="Elipse_959" data-name="Elipse 959" cx="36" cy="4.8" rx="36" ry="4.8" transform="translate(294.5 694.2)" fill="#333" opacity="0.3" style="mix-blend-mode: multiply;isolation: isolate"/>
        <g id="Grupo_26944" data-name="Grupo 26944">
          <path id="Trazado_21250" data-name="Trazado 21250" d="M393.5,634a62.818,62.818,0,0,1-17.563,43.6c-.576.63-1.207,1.261-1.835,1.84A62.976,62.976,0,1,1,393.5,634Z" fill="#fff"/>
          <circle id="Elipse_960" data-name="Elipse 960" cx="52.5" cy="52.5" r="52.5" transform="translate(278 581.5)" fill="#fcb614"/>
          <circle id="Elipse_961" data-name="Elipse 961" cx="42" cy="42" r="42" transform="translate(288.5 592)" fill="#fff"/>
          <circle id="Elipse_962" data-name="Elipse 962" cx="31.5" cy="31.5" r="31.5" transform="translate(299 602.5)" fill="#fcb614"/>
          <circle id="Elipse_963" data-name="Elipse 963" cx="21" cy="21" r="21" transform="translate(309.5 613)" fill="#fff"/>
          <circle id="Elipse_964" data-name="Elipse 964" cx="10.5" cy="10.5" r="10.5" transform="translate(320 623.5)" fill="#fcb614"/>
          <path id="Trazado_21251" data-name="Trazado 21251" d="M385.24,581.115l-1.855-1.855-44.822,44.819-1.508-5.685L330.5,634l15.609-6.553-5.693-1.51Z" fill="#2e2e2e"/>
          <path id="Trazado_21252" data-name="Trazado 21252" d="M375.937,677.6c-.576.63-1.207,1.261-1.835,1.84L338.56,643.921l-1.5,5.7L330.5,634l15.619,6.563-5.7,1.5Z" fill="#333" opacity="0.2" style="mix-blend-mode: multiply;isolation: isolate"/>
        </g>
      </g>
      <g id="Grupo_26946" data-name="Grupo 26946" transform="translate(119 1345.073)">
        <rect id="Rectángulo_4129" data-name="Rectángulo 4129" width="38" height="30" transform="translate(436 654)" fill="#fff"/>
        <rect id="Rectángulo_4130" data-name="Rectángulo 4130" width="38" height="2" transform="translate(436 678)" fill="#ff5c5c"/>
        <path id="Trazado_21253" data-name="Trazado 21253" d="M452,662.67l8.66,5-8.66,5Z" fill="#ff5c5c"/>
      </g>
      <g id="Grupo_26953" data-name="Grupo 26953" transform="translate(119 1345.073)">
        <rect id="Rectángulo_4131" data-name="Rectángulo 4131" width="41" height="31" transform="translate(139 751)" fill="#335a71"/>
        <rect id="Rectángulo_4132" data-name="Rectángulo 4132" width="33" height="45" transform="translate(143 730)" fill="#f1f1f1"/>
        <path id="Trazado_21254" data-name="Trazado 21254" d="M180,782H139V751l20.5,16L180,751v31Z" fill="#00314d"/>
        <g id="Grupo_26952" data-name="Grupo 26952">
          <g id="Grupo_26947" data-name="Grupo 26947">
            <rect id="Rectángulo_4133" data-name="Rectángulo 4133" width="20" height="1" transform="translate(150.5 749)" fill="#ff5c5c"/>
          </g>
          <g id="Grupo_26948" data-name="Grupo 26948">
            <rect id="Rectángulo_4134" data-name="Rectángulo 4134" width="20" height="1" transform="translate(150.5 746)" fill="#ff5c5c"/>
          </g>
          <g id="Grupo_26949" data-name="Grupo 26949">
            <rect id="Rectángulo_4135" data-name="Rectángulo 4135" width="20" height="1" transform="translate(150.5 743)" fill="#ff5c5c"/>
          </g>
          <g id="Grupo_26950" data-name="Grupo 26950">
            <rect id="Rectángulo_4136" data-name="Rectángulo 4136" width="20" height="1" transform="translate(150.5 740)" fill="#ff5c5c"/>
          </g>
          <g id="Grupo_26951" data-name="Grupo 26951">
            <rect id="Rectángulo_4137" data-name="Rectángulo 4137" width="20" height="1" transform="translate(150.5 737)" fill="#ff5c5c"/>
          </g>
        </g>
      </g>
      <g id="Grupo_26960" data-name="Grupo 26960" transform="translate(119 1345.073)">
        <path id="Trazado_21255" data-name="Trazado 21255" d="M219,658H184v26h26.5l7,7-3.5-7h5Z" fill="#fff"/>
        <g id="Grupo_26959" data-name="Grupo 26959">
          <g id="Grupo_26954" data-name="Grupo 26954">
            <rect id="Rectángulo_4138" data-name="Rectángulo 4138" width="20" height="1" transform="translate(192.5 676)" fill="#8cc63f"/>
          </g>
          <g id="Grupo_26955" data-name="Grupo 26955">
            <rect id="Rectángulo_4139" data-name="Rectángulo 4139" width="20" height="1" transform="translate(192.5 673)" fill="#8cc63f"/>
          </g>
          <g id="Grupo_26956" data-name="Grupo 26956">
            <rect id="Rectángulo_4140" data-name="Rectángulo 4140" width="20" height="1" transform="translate(192.5 670)" fill="#8cc63f"/>
          </g>
          <g id="Grupo_26957" data-name="Grupo 26957">
            <rect id="Rectángulo_4141" data-name="Rectángulo 4141" width="20" height="1" transform="translate(192.5 667)" fill="#8cc63f"/>
          </g>
          <g id="Grupo_26958" data-name="Grupo 26958">
            <rect id="Rectángulo_4142" data-name="Rectángulo 4142" width="20" height="1" transform="translate(192.5 664)" fill="#8cc63f"/>
          </g>
        </g>
      </g>
      <g id="Grupo_26962" data-name="Grupo 26962" transform="translate(119 1345.073)">
        <circle id="Elipse_965" data-name="Elipse 965" cx="17" cy="17" r="17" transform="translate(190.5 715)" fill="#00314d"/>
        <circle id="Elipse_966" data-name="Elipse 966" cx="14" cy="14" r="14" transform="translate(193.5 718)" fill="#0093e3"/>
        <rect id="Rectángulo_4143" data-name="Rectángulo 4143" width="4" height="4" transform="translate(205 748)" fill="#00314d"/>
        <rect id="Rectángulo_4144" data-name="Rectángulo 4144" width="8" height="6" transform="translate(203 752)" fill="#fff"/>
        <path id="Trazado_21256" data-name="Trazado 21256" d="M203,778c0,5.33,8,5.33,8,0V758h-8Z" fill="#00314d"/>
        <g id="Grupo_26961" data-name="Grupo 26961">
          <path id="Trazado_21257" data-name="Trazado 21257" d="M196.5,732.5a.5.5,0,0,1-.5-.5,11.513,11.513,0,0,1,11.5-11.5.5.5,0,0,1,0,1A10.512,10.512,0,0,0,197,732,.5.5,0,0,1,196.5,732.5Z" fill="#fff"/>
        </g>
        <circle id="Elipse_967" data-name="Elipse 967" cx="1" cy="1" r="1" transform="translate(214.5 737)" fill="#fff"/>
      </g>
      <g id="Grupo_26978" data-name="Grupo 26978" transform="translate(119 1345.073)">
        <rect id="Rectángulo_4145" data-name="Rectángulo 4145" width="41" height="48" transform="translate(447 734)" fill="#f1f1f1"/>
        <g id="Grupo_26963" data-name="Grupo 26963">
          <rect id="Rectángulo_4146" data-name="Rectángulo 4146" width="4" height="8" transform="translate(456 750)" fill="#8cc63f"/>
          <rect id="Rectángulo_4147" data-name="Rectángulo 4147" width="4" height="16" transform="translate(462 742)" fill="#00314d"/>
          <rect id="Rectángulo_4148" data-name="Rectángulo 4148" width="4" height="12" transform="translate(468 746)" fill="#fcb614"/>
          <rect id="Rectángulo_4149" data-name="Rectángulo 4149" width="4" height="20" transform="translate(474 738)" fill="#ff5c5c"/>
        </g>
        <rect id="Rectángulo_4150" data-name="Rectángulo 4150" width="22" height="1" transform="translate(456 759)" fill="#00314d"/>
        <g id="Grupo_26970" data-name="Grupo 26970">
          <g id="Grupo_26964" data-name="Grupo 26964">
            <rect id="Rectángulo_4151" data-name="Rectángulo 4151" width="10" height="1" transform="translate(455 773)" fill="#bdc3c7"/>
          </g>
          <g id="Grupo_26965" data-name="Grupo 26965">
            <rect id="Rectángulo_4152" data-name="Rectángulo 4152" width="10" height="1" transform="translate(455 771)" fill="#bdc3c7"/>
          </g>
          <g id="Grupo_26966" data-name="Grupo 26966">
            <rect id="Rectángulo_4153" data-name="Rectángulo 4153" width="10" height="1" transform="translate(455 769)" fill="#bdc3c7"/>
          </g>
          <g id="Grupo_26967" data-name="Grupo 26967">
            <rect id="Rectángulo_4154" data-name="Rectángulo 4154" width="10" height="1" transform="translate(455 767)" fill="#bdc3c7"/>
          </g>
          <g id="Grupo_26968" data-name="Grupo 26968">
            <rect id="Rectángulo_4155" data-name="Rectángulo 4155" width="10" height="1" transform="translate(455 765)" fill="#bdc3c7"/>
          </g>
          <g id="Grupo_26969" data-name="Grupo 26969">
            <rect id="Rectángulo_4156" data-name="Rectángulo 4156" width="10" height="1" transform="translate(455 763)" fill="#bdc3c7"/>
          </g>
        </g>
        <g id="Grupo_26977" data-name="Grupo 26977">
          <g id="Grupo_26971" data-name="Grupo 26971">
            <rect id="Rectángulo_4157" data-name="Rectángulo 4157" width="10" height="1" transform="translate(469 773)" fill="#bdc3c7"/>
          </g>
          <g id="Grupo_26972" data-name="Grupo 26972">
            <rect id="Rectángulo_4158" data-name="Rectángulo 4158" width="10" height="1" transform="translate(469 771)" fill="#bdc3c7"/>
          </g>
          <g id="Grupo_26973" data-name="Grupo 26973">
            <rect id="Rectángulo_4159" data-name="Rectángulo 4159" width="10" height="1" transform="translate(469 769)" fill="#bdc3c7"/>
          </g>
          <g id="Grupo_26974" data-name="Grupo 26974">
            <rect id="Rectángulo_4160" data-name="Rectángulo 4160" width="10" height="1" transform="translate(469 767)" fill="#bdc3c7"/>
          </g>
          <g id="Grupo_26975" data-name="Grupo 26975">
            <rect id="Rectángulo_4161" data-name="Rectángulo 4161" width="10" height="1" transform="translate(469 765)" fill="#bdc3c7"/>
          </g>
          <g id="Grupo_26976" data-name="Grupo 26976">
            <rect id="Rectángulo_4162" data-name="Rectángulo 4162" width="10" height="1" transform="translate(469 763)" fill="#bdc3c7"/>
          </g>
        </g>
      </g>
      <g id="Grupo_26987" data-name="Grupo 26987" transform="translate(119 1345.073)">
        <g id="Grupo_26980" data-name="Grupo 26980">
          <circle id="Elipse_968" data-name="Elipse 968" cx="10" cy="10" r="10" transform="translate(151.5 694)" fill="#fcb614"/>
          <circle id="Elipse_969" data-name="Elipse 969" cx="8" cy="8" r="8" transform="translate(153.5 696)" fill="#fdd372"/>
          <g id="Grupo_26979" data-name="Grupo 26979">
            <path id="Trazado_21258" data-name="Trazado 21258" d="M164.151,705.573a1.668,1.668,0,0,1-.6,1.316,3.085,3.085,0,0,1-1.67.653V708.9h-.756v-1.306a7.773,7.773,0,0,1-1.272-.1,3.974,3.974,0,0,1-1.007-.284v-.914a5.655,5.655,0,0,0,1.122.354,5.488,5.488,0,0,0,1.157.138v-2.578a4.059,4.059,0,0,1-1.685-.885,1.8,1.8,0,0,1-.483-1.3,1.561,1.561,0,0,1,.595-1.259,2.893,2.893,0,0,1,1.573-.6V699.1h.756v1.054a5.951,5.951,0,0,1,2.08.434l-.305.767a5.968,5.968,0,0,0-1.775-.41v2.543a6.68,6.68,0,0,1,1.377.572,1.944,1.944,0,0,1,.674.638A1.676,1.676,0,0,1,164.151,705.573Zm-4.2-3.562a.978.978,0,0,0,.264.715,2.533,2.533,0,0,0,.914.509v-2.267a1.669,1.669,0,0,0-.879.366A.88.88,0,0,0,159.95,702.011Zm3.205,3.638a.922.922,0,0,0-.261-.682,2.769,2.769,0,0,0-1.01-.519v2.28Q163.155,706.551,163.155,705.649Z" fill="#bd890f"/>
          </g>
        </g>
        <g id="Grupo_26982" data-name="Grupo 26982">
          <circle id="Elipse_970" data-name="Elipse 970" cx="10" cy="10" r="10" transform="translate(209.5 624)" fill="#fcb614"/>
          <circle id="Elipse_971" data-name="Elipse 971" cx="8" cy="8" r="8" transform="translate(211.5 626)" fill="#fdd372"/>
          <g id="Grupo_26981" data-name="Grupo 26981">
            <path id="Trazado_21259" data-name="Trazado 21259" d="M222.151,635.573a1.667,1.667,0,0,1-.6,1.316,3.085,3.085,0,0,1-1.67.653V638.9h-.756v-1.306a7.773,7.773,0,0,1-1.272-.1,3.974,3.974,0,0,1-1.007-.284v-.914a5.655,5.655,0,0,0,1.122.354,5.488,5.488,0,0,0,1.157.138v-2.578a4.059,4.059,0,0,1-1.685-.885,1.8,1.8,0,0,1-.483-1.3,1.561,1.561,0,0,1,.595-1.259,2.893,2.893,0,0,1,1.573-.6V629.1h.756v1.054a5.951,5.951,0,0,1,2.08.434l-.305.768a5.94,5.94,0,0,0-1.775-.411v2.543a6.68,6.68,0,0,1,1.377.572,1.944,1.944,0,0,1,.674.638A1.678,1.678,0,0,1,222.151,635.573Zm-4.2-3.562a.978.978,0,0,0,.264.715,2.533,2.533,0,0,0,.914.509v-2.267a1.669,1.669,0,0,0-.879.366A.88.88,0,0,0,217.95,632.011Zm3.205,3.638a.922.922,0,0,0-.261-.682,2.769,2.769,0,0,0-1.01-.519v2.28Q221.155,636.551,221.155,635.649Z" fill="#bd890f"/>
          </g>
        </g>
        <g id="Grupo_26984" data-name="Grupo 26984">
          <circle id="Elipse_972" data-name="Elipse 972" cx="10" cy="10" r="10" transform="translate(452.5 697)" fill="#fcb614"/>
          <circle id="Elipse_973" data-name="Elipse 973" cx="8" cy="8" r="8" transform="translate(454.5 699)" fill="#fdd372"/>
          <g id="Grupo_26983" data-name="Grupo 26983">
            <path id="Trazado_21260" data-name="Trazado 21260" d="M465.151,708.573a1.668,1.668,0,0,1-.6,1.316,3.085,3.085,0,0,1-1.67.653V711.9h-.756v-1.306a7.773,7.773,0,0,1-1.272-.1,3.974,3.974,0,0,1-1.007-.284v-.914a5.655,5.655,0,0,0,1.122.354,5.488,5.488,0,0,0,1.157.138v-2.578a4.059,4.059,0,0,1-1.685-.885,1.8,1.8,0,0,1-.483-1.3,1.561,1.561,0,0,1,.6-1.259,2.893,2.893,0,0,1,1.573-.6V702.1h.756v1.054a5.951,5.951,0,0,1,2.08.434l-.3.767a5.968,5.968,0,0,0-1.775-.41v2.543a6.679,6.679,0,0,1,1.377.572,1.944,1.944,0,0,1,.674.638A1.676,1.676,0,0,1,465.151,708.573Zm-4.2-3.562a.978.978,0,0,0,.264.715,2.533,2.533,0,0,0,.914.509v-2.267a1.669,1.669,0,0,0-.879.366A.88.88,0,0,0,460.95,705.011Zm3.2,3.638a.922.922,0,0,0-.261-.682,2.769,2.769,0,0,0-1.01-.519v2.28Q464.154,709.551,464.155,708.649Z" fill="#bd890f"/>
          </g>
        </g>
        <g id="Grupo_26986" data-name="Grupo 26986">
          <circle id="Elipse_974" data-name="Elipse 974" cx="10" cy="10" r="10" transform="translate(427.5 621)" fill="#fcb614"/>
          <circle id="Elipse_975" data-name="Elipse 975" cx="8" cy="8" r="8" transform="translate(429.5 623)" fill="#fdd372"/>
          <g id="Grupo_26985" data-name="Grupo 26985">
            <path id="Trazado_21261" data-name="Trazado 21261" d="M440.151,632.573a1.667,1.667,0,0,1-.6,1.316,3.085,3.085,0,0,1-1.67.653V635.9h-.756v-1.306a7.773,7.773,0,0,1-1.272-.1,3.974,3.974,0,0,1-1.007-.284v-.914a5.655,5.655,0,0,0,1.122.354,5.488,5.488,0,0,0,1.157.138v-2.578a4.059,4.059,0,0,1-1.685-.885,1.8,1.8,0,0,1-.483-1.3,1.561,1.561,0,0,1,.6-1.259,2.893,2.893,0,0,1,1.573-.6V626.1h.756v1.054a5.951,5.951,0,0,1,2.08.434l-.3.768a5.94,5.94,0,0,0-1.775-.411v2.543a6.679,6.679,0,0,1,1.377.572,1.944,1.944,0,0,1,.674.638A1.678,1.678,0,0,1,440.151,632.573Zm-4.2-3.562a.978.978,0,0,0,.264.715,2.533,2.533,0,0,0,.914.509v-2.267a1.669,1.669,0,0,0-.879.366A.88.88,0,0,0,435.95,629.011Zm3.2,3.638a.922.922,0,0,0-.261-.682,2.769,2.769,0,0,0-1.01-.519v2.28Q439.154,633.551,439.155,632.649Z" fill="#bd890f"/>
          </g>
        </g>
      </g>
      <g id="Grupo_27001" data-name="Grupo 27001" transform="translate(119 1345.073)">
        <g id="Grupo_26988" data-name="Grupo 26988">
          <rect id="Rectángulo_4163" data-name="Rectángulo 4163" width="2" height="10" transform="translate(329 541)" fill="#fff"/>
        </g>
        <g id="Grupo_26989" data-name="Grupo 26989">
          <rect id="Rectángulo_4164" data-name="Rectángulo 4164" width="2" height="10" transform="matrix(0.966, -0.259, 0.259, 0.966, 305.43, 544.169)" fill="#fff"/>
        </g>
        <g id="Grupo_26990" data-name="Grupo 26990">
          <rect id="Rectángulo_4165" data-name="Rectángulo 4165" width="2" height="10" transform="translate(283 553.46) rotate(-29.999)" fill="#fff"/>
        </g>
        <g id="Grupo_26991" data-name="Grupo 26991">
          <rect id="Rectángulo_4166" data-name="Rectángulo 4166" width="2" height="10" transform="matrix(0.707, -0.707, 0.707, 0.707, 263.739, 568.239)" fill="#fff"/>
        </g>
        <g id="Grupo_26992" data-name="Grupo 26992">
          <rect id="Rectángulo_4167" data-name="Rectángulo 4167" width="2" height="10" transform="translate(248.96 587.5) rotate(-60)" fill="#fff"/>
        </g>
        <g id="Grupo_26993" data-name="Grupo 26993">
          <rect id="Rectángulo_4168" data-name="Rectángulo 4168" width="2" height="10" transform="translate(239.669 609.93) rotate(-75.002)" fill="#fff"/>
        </g>
        <g id="Grupo_26994" data-name="Grupo 26994">
          <rect id="Rectángulo_4169" data-name="Rectángulo 4169" width="10" height="2" transform="translate(236 632)" fill="#fff"/>
        </g>
        <g id="Grupo_26995" data-name="Grupo 26995">
          <rect id="Rectángulo_4170" data-name="Rectángulo 4170" width="10" height="2" transform="translate(412 634)" fill="#fff"/>
        </g>
        <g id="Grupo_26996" data-name="Grupo 26996">
          <rect id="Rectángulo_4171" data-name="Rectángulo 4171" width="10" height="2" transform="translate(409.672 612.518) rotate(-15.001)" fill="#fff"/>
        </g>
        <g id="Grupo_26997" data-name="Grupo 26997">
          <rect id="Rectángulo_4172" data-name="Rectángulo 4172" width="10" height="2" transform="translate(401.38 592.5) rotate(-29.995)" fill="#fff"/>
        </g>
        <g id="Grupo_26998" data-name="Grupo 26998">
          <rect id="Rectángulo_4173" data-name="Rectángulo 4173" width="10" height="2" transform="translate(388.189 575.31) rotate(-44.998)" fill="#fff"/>
        </g>
        <g id="Grupo_26999" data-name="Grupo 26999">
          <rect id="Rectángulo_4174" data-name="Rectángulo 4174" width="10.001" height="2" transform="matrix(0.5, -0.866, 0.866, 0.5, 371, 562.121)" fill="#fff"/>
        </g>
        <g id="Grupo_27000" data-name="Grupo 27000">
          <rect id="Rectángulo_4175" data-name="Rectángulo 4175" width="10.001" height="2" transform="translate(350.982 553.829) rotate(-75)" fill="#fff"/>
        </g>
      </g>
      <path id="Trazado_21262" data-name="Trazado 21262" d="M172.764,657.546a2.426,2.426,0,0,0-2.621,3.433l-8.852,6.175a4.007,4.007,0,0,0-2.349-1.361,4.054,4.054,0,1,0-1.422,7.982,4,4,0,0,0,2.151-.216l4.361,6.25a2.462,2.462,0,1,0,.553-.625l-4.181-5.992a4,4,0,0,0,1.352-5.373l8.85-6.174a2.431,2.431,0,1,0,2.158-4.1Z" transform="translate(119 1345.073)" fill="#7d58bd"/>
      <g id="Grupo_27002" data-name="Grupo 27002" transform="translate(119 1345.073)">
        <path id="Trazado_21263" data-name="Trazado 21263" d="M504,700v-2h-3.579a6.957,6.957,0,0,0-1.32-3.187l2.884-2.884-1.414-1.414-3.135,2.884A5.217,5.217,0,0,0,494,692.08V688h-2v4.08a6.935,6.935,0,0,0-2.937,1.319l-2.759-2.884-1.352,1.414,2.916,2.885A6.907,6.907,0,0,0,486.579,698H482v2h4.579a6.948,6.948,0,0,0,1.32,3.186l-2.884,2.885,1.414,1.414,2.633-2.884A6.932,6.932,0,0,0,492,705.92V710h2v-4.08a5.217,5.217,0,0,0,3.436-1.319l3.01,2.884,1.477-1.414-2.854-2.885A7.94,7.94,0,0,0,500.421,700Zm-14.038,2.533a5,5,0,0,1,0-7.066l.005-.005a5,5,0,1,1,0,7.076Z" fill="#7d58bd"/>
        <circle id="Elipse_976" data-name="Elipse 976" cx="3" cy="3" r="3" transform="translate(490.5 696)" fill="#7d58bd"/>
      </g>
      <g id="Grupo_27010" data-name="Grupo 27010" transform="translate(119 1345.073)">
        <rect id="Rectángulo_4176" data-name="Rectángulo 4176" width="32" height="57" rx="2" transform="translate(500 725)" fill="#00314d"/>
        <rect id="Rectángulo_4177" data-name="Rectángulo 4177" width="28" height="42" transform="translate(502 733)" fill="#8cc63f"/>
        <g id="Grupo_27003" data-name="Grupo 27003">
          <path id="Trazado_21264" data-name="Trazado 21264" d="M520.358,747h4.073c-.494-3.945-3.431-7-8.431-7v4A4.483,4.483,0,0,1,520.358,747Z" fill="#fff"/>
          <path id="Trazado_21265" data-name="Trazado 21265" d="M512.25,748a4.848,4.848,0,0,1,2.75-3.858v-4.073c-3,.494-6.75,3.852-6.75,7.931a8.064,8.064,0,0,0,1.685,4.732l2.84-2.9A4.008,4.008,0,0,1,512.25,748Z" fill="#4af5ff"/>
          <path id="Trazado_21266" data-name="Trazado 21266" d="M520.5,748a3.987,3.987,0,0,1-6.961,2.668L510.7,753.5a7.994,7.994,0,0,0,13.8-5.5Z" fill="#f5ff00"/>
        </g>
        <circle id="Elipse_977" data-name="Elipse 977" cx="1" cy="1" r="1" transform="translate(515.5 777)" fill="#335a71"/>
        <path id="Trazado_21267" data-name="Trazado 21267" d="M520,730.5a.5.5,0,0,1-.5.5h-8a.5.5,0,0,1-.5-.5h0a.5.5,0,0,1,.5-.5h8a.5.5,0,0,1,.5.5Z" fill="#335a71"/>
        <g id="Grupo_27004" data-name="Grupo 27004">
          <rect id="Rectángulo_4178" data-name="Rectángulo 4178" width="20" height="2" transform="translate(506 767)" fill="#00314d"/>
        </g>
        <g id="Grupo_27005" data-name="Grupo 27005">
          <rect id="Rectángulo_4179" data-name="Rectángulo 4179" width="13" height="2" transform="translate(506 767)" fill="#f5ff00"/>
        </g>
        <g id="Grupo_27006" data-name="Grupo 27006">
          <rect id="Rectángulo_4180" data-name="Rectángulo 4180" width="20" height="2" transform="translate(506 763)" fill="#00314d"/>
        </g>
        <g id="Grupo_27007" data-name="Grupo 27007">
          <rect id="Rectángulo_4181" data-name="Rectángulo 4181" width="6" height="2" transform="translate(506 763)" fill="#fff"/>
        </g>
        <g id="Grupo_27008" data-name="Grupo 27008">
          <rect id="Rectángulo_4182" data-name="Rectángulo 4182" width="20" height="2" transform="translate(506 759)" fill="#00314d"/>
        </g>
        <g id="Grupo_27009" data-name="Grupo 27009">
          <rect id="Rectángulo_4183" data-name="Rectángulo 4183" width="9" height="2" transform="translate(506 759)" fill="#4af5ff"/>
        </g>
      </g>
      <path id="Trazado_21268" data-name="Trazado 21268" d="M527.362,709.361h-2.725v-2.723a.638.638,0,1,0-1.275,0v2.723h-2.725a.637.637,0,0,0,0,1.275h2.725v2.726a.638.638,0,1,0,1.275,0v-2.726h2.725a.637.637,0,1,0,0-1.275Z" transform="translate(119 1345.073)" fill="#7d58bd"/>
      <path id="Trazado_21269" data-name="Trazado 21269" d="M121.362,746.361h-2.725v-2.723a.638.638,0,1,0-1.275,0v2.723h-2.725a.637.637,0,0,0,0,1.275h2.725v2.726a.638.638,0,1,0,1.275,0v-2.726h2.725a.637.637,0,1,0,0-1.275Z" transform="translate(119 1345.073)" fill="#7d58bd"/>
      <path id="Trazado_21270" data-name="Trazado 21270" d="M551.362,763.361h-2.725v-2.723a.638.638,0,1,0-1.275,0v2.723h-2.725a.637.637,0,0,0,0,1.275h2.725v2.726a.638.638,0,1,0,1.275,0v-2.726h2.725a.637.637,0,1,0,0-1.275Z" transform="translate(119 1345.073)" fill="#7d58bd"/>
      <path id="Trazado_21271" data-name="Trazado 21271" d="M138.362,672.361h-2.725v-2.723a.637.637,0,1,0-1.275,0v2.723h-2.725a.637.637,0,0,0,0,1.275h2.725v2.726a.637.637,0,1,0,1.275,0v-2.726h2.725a.637.637,0,1,0,0-1.275Z" transform="translate(119 1345.073)" fill="#7d58bd"/>
      <circle id="Elipse_978" data-name="Elipse 978" cx="2" cy="2" r="2" transform="translate(321 1990.073)" fill="#fff"/>
      <circle id="Elipse_979" data-name="Elipse 979" cx="2" cy="2" r="2" transform="translate(247 2070.073)" fill="#7d58bd"/>
      <circle id="Elipse_980" data-name="Elipse 980" cx="2" cy="2" r="2" transform="translate(661 2075.073)" fill="#7d58bd"/>
      <circle id="Elipse_981" data-name="Elipse 981" cx="2" cy="2" r="2" transform="translate(575 1981.073)" fill="#fff"/>
      <g id="Grupo_27015" data-name="Grupo 27015" transform="translate(119 1345.073)">
        <g id="Grupo_27011" data-name="Grupo 27011">
          <rect id="Rectángulo_4184" data-name="Rectángulo 4184" width="28" height="1" transform="translate(486 673)" fill="#7d58bd"/>
        </g>
        <g id="Grupo_27012" data-name="Grupo 27012">
          <rect id="Rectángulo_4185" data-name="Rectángulo 4185" width="28" height="1" transform="translate(486 670)" fill="#7d58bd"/>
        </g>
        <g id="Grupo_27013" data-name="Grupo 27013">
          <rect id="Rectángulo_4186" data-name="Rectángulo 4186" width="28" height="1" transform="translate(486 667)" fill="#7d58bd"/>
        </g>
        <g id="Grupo_27014" data-name="Grupo 27014">
          <rect id="Rectángulo_4187" data-name="Rectángulo 4187" width="28" height="1" transform="translate(486 664)" fill="#7d58bd"/>
        </g>
      </g>
      <g id="Grupo_27020" data-name="Grupo 27020" transform="translate(119 1345.073)">
        <g id="Grupo_27016" data-name="Grupo 27016">
          <rect id="Rectángulo_4188" data-name="Rectángulo 4188" width="28" height="1" transform="translate(112 708)" fill="#7d58bd"/>
        </g>
        <g id="Grupo_27017" data-name="Grupo 27017">
          <rect id="Rectángulo_4189" data-name="Rectángulo 4189" width="28" height="1" transform="translate(112 705)" fill="#7d58bd"/>
        </g>
        <g id="Grupo_27018" data-name="Grupo 27018">
          <rect id="Rectángulo_4190" data-name="Rectángulo 4190" width="28" height="1" transform="translate(112 702)" fill="#7d58bd"/>
        </g>
        <g id="Grupo_27019" data-name="Grupo 27019">
          <rect id="Rectángulo_4191" data-name="Rectángulo 4191" width="28" height="1" transform="translate(112 699)" fill="#7d58bd"/>
        </g>
      </g>
    </g>
  </g>
</svg>
