<svg xmlns="http://www.w3.org/2000/svg" width="155.555" height="142.667" viewBox="0 0 155.555 142.667">
  <g id="Grupo_30322" data-name="Grupo 30322" transform="translate(-5012.333 -1300.832)">
    <path id="Trazado_24873" data-name="Trazado 24873" d="M416.778,506.165H290.111V363.5H416.778l28.889,71.333Z" transform="translate(4722.222 937.333)" fill="#9f69c3"/>
    <path id="Trazado_24874" data-name="Trazado 24874" d="M341.4,461.051q-8.314,0-12.767-6.145t-4.452-18.27q0-12.159,4.436-18.271t12.783-6.112q8.313,0,12.749,6.112t4.436,18.271q0,12.125-4.452,18.27T341.4,461.051Zm0-8.544q3.68,0,5.7-3.894t2.021-11.977q0-8.083-2.038-11.978t-5.684-3.894q-7.756,0-7.755,15.872T341.4,452.507Z" transform="translate(4722.222 937.333)" fill="#fff"/>
    <path id="Trazado_24875" data-name="Trazado 24875" d="M381.621,461.051q-7.525,0-12.4-3.976a13.063,13.063,0,0,1-4.88-10.68,13.309,13.309,0,0,1,1.988-7.278,13.624,13.624,0,0,1,5.5-4.913,12.017,12.017,0,0,1-3.927-4.042,10.435,10.435,0,0,1-1.429-5.389,11.139,11.139,0,0,1,4.239-9.053,16.675,16.675,0,0,1,10.91-3.467,16.4,16.4,0,0,1,10.761,3.467,11.156,11.156,0,0,1,4.223,9.053,10.636,10.636,0,0,1-1.38,5.373,12.126,12.126,0,0,1-3.812,4.058,13.564,13.564,0,0,1,5.455,4.913,13.393,13.393,0,0,1,1.971,7.278,13.644,13.644,0,0,1-2.267,7.8,14.263,14.263,0,0,1-6.161,5.11A21.315,21.315,0,0,1,381.621,461.051Zm0-8.478a7.932,7.932,0,0,0,5.553-2.005,6.931,6.931,0,0,0,2.2-5.389,6.741,6.741,0,0,0-2.217-5.274,7.992,7.992,0,0,0-5.537-1.988,8.082,8.082,0,0,0-5.6,1.988,6.738,6.738,0,0,0-2.218,5.274,6.9,6.9,0,0,0,2.218,5.389A8.037,8.037,0,0,0,381.621,452.573Zm0-21.129a6.315,6.315,0,0,0,4.5-1.775A5.747,5.747,0,0,0,388,425.332a5.61,5.61,0,0,0-1.873-4.272,6.753,6.753,0,0,0-9.054,0,5.632,5.632,0,0,0-1.856,4.272,5.757,5.757,0,0,0,1.856,4.354A6.372,6.372,0,0,0,381.621,431.444Z" transform="translate(4722.222 937.333)" fill="#fff"/>
  </g>
</svg>
