<svg id="Слой_1" data-name="Слой 1" xmlns="http://www.w3.org/2000/svg" width="3200" height="1676.22" viewBox="0 0 3200 1676.22">
  <defs>
    <style>
      .cls-1 {
        fill: #ebf3fa;
      }

      .cls-2 {
        fill: #dfedfb;
      }

      .cls-3 {
        fill: #cde3fd;
      }

      .cls-4 {
        fill: #233862;
      }

      .cls-5 {
        fill: #213f7a;
      }

      .cls-6 {
        fill: #f99746;
      }

      .cls-7 {
        fill: #ffb27d;
      }

      .cls-8 {
        fill: #e2915a;
      }

      .cls-9 {
        fill: #ed7d2b;
      }

      .cls-10 {
        fill: #c8dbf4;
      }

      .cls-11 {
        fill: #d4e4f8;
      }

      .cls-12 {
        fill: #163560;
      }

      .cls-13 {
        fill: #2a4e96;
      }

      .cls-14 {
        fill: #f9ddbf;
      }

      .cls-15 {
        fill: #f4a269;
      }

      .cls-16 {
        fill: #2e3552;
      }

      .cls-17 {
        fill: #fff;
      }

      .cls-18 {
        fill: #ffb93e;
      }

      .cls-19 {
        fill: #ffeac5;
      }

      .cls-20 {
        fill: #f2ccaa;
      }

      .cls-21 {
        fill: #e8945b;
      }

      .cls-22 {
        fill: #b5453c;
      }

      .cls-23 {
        fill: #95c0f4;
      }

      .cls-24 {
        fill: #b0d4ff;
      }

      .cls-25 {
        fill: #2b478b;
      }

      .cls-26 {
        fill: #ed975d;
      }

      .cls-27 {
        fill: #9ec3f6;
      }
    </style>
  </defs>
  <g>
    <path class="cls-1" d="M327.4,1595S128.06,1371.29,226.59,939.29c62-271.73,325.07-439.1,671.31-393.49,320.55,42.22,315.16-127.24,595.61-289,599.89-345.94,1467.64-199,1260,579.12-100.51,376.56,316.12,382.59,109.06,759Z"/>
    <path class="cls-2" d="M2027.16,186.29l-28-1.27-.66,0a6.68,6.68,0,0,0-6.89,5.64l-3.6,23.13a5.69,5.69,0,0,1-.26,1.1,6.56,6.56,0,0,1-5.7,4.44,116.74,116.74,0,0,0-44.36,12.78,7.54,7.54,0,0,1-1.78.62,6.83,6.83,0,0,1-6.32-2.15l-12.84-14.71a6.79,6.79,0,0,0-6.75-2.05,7.38,7.38,0,0,0-2.14,1l-23.45,16.41a6.83,6.83,0,0,0-2,9l13,22.47a6.62,6.62,0,0,1-.29,7.08c-2.07,3.06-4,6.19-5.82,9.48a116.6,116.6,0,0,0-8.32,18.9v0a6.74,6.74,0,0,1-6.14,4.62l-26.37,1.06-1.32.06a6.6,6.6,0,0,0-6.34,6.29l-1.31,28.62a6.88,6.88,0,0,0,5.8,7.09l25.74,4a6.64,6.64,0,0,1,5.57,5.49,117.17,117.17,0,0,0,11.69,34.18,6.72,6.72,0,0,1-1.55,8.12L1869.41,413a6.81,6.81,0,0,0-1.08,9.06l16.46,23.56a6.53,6.53,0,0,0,8.61,1.9l26.44-15.3a6.81,6.81,0,0,1,7.19.21q4,2.64,8.27,5a118.89,118.89,0,0,0,16.41,7.47,6.48,6.48,0,0,1,4.36,5.92l1.24,31.69a6.72,6.72,0,0,0,6.39,6.43l28.72,1.33a6.73,6.73,0,0,0,6.67-4.7,4.61,4.61,0,0,0,.22-.94l4.46-28.56a6.63,6.63,0,0,1,4.9-5.48,4.26,4.26,0,0,1,.69-.15c.71-.11,1.36-.2,2.07-.38a116.32,116.32,0,0,0,24-6.84,6.46,6.46,0,0,1,7.41,1.8L2059,463.37a6.82,6.82,0,0,0,9,1.07l5.22-3.64L2091.39,448a6.72,6.72,0,0,0,2-8.88L2080.51,417a6.46,6.46,0,0,1,.63-7.41,118.13,118.13,0,0,0,12.29-18.15,115.8,115.8,0,0,0,6.88-14.93l5.53-.21,22.7-.92a6.49,6.49,0,0,0,6-4.58,5.93,5.93,0,0,0,.29-1.69l1.38-28.82a6.76,6.76,0,0,0-5.67-6.9L2113,330.7a6.7,6.7,0,0,1-5.61-5.92,117.38,117.38,0,0,0-9.19-35.88,6.47,6.47,0,0,1,1.67-7.6l22-19.28a6.46,6.46,0,0,0,1-8.53l-16.68-23.79a6.53,6.53,0,0,0-8.67-1.93L2070,243.7a6.65,6.65,0,0,1-7.48-.52,113.19,113.19,0,0,0-15-9.81q-4.32-2.37-8.74-4.35a6.75,6.75,0,0,1-4-5.81l-1.2-30.39A6.8,6.8,0,0,0,2027.16,186.29ZM1940.2,299a72.23,72.23,0,0,1,17.44-17.25,41.92,41.92,0,0,1,5.3-3.15c8.49-4.22,20-7,28.24-6.61,63.15,3.26,85.65,78.22,35.86,115.74-.83.6-1.65,1.21-2.5,1.8-7.94,5.55-22.47,9.72-32.13,9.33a77.3,77.3,0,0,1-14.42-1.95C1932.72,386.11,1914.79,335.06,1940.2,299Z"/>
    <path class="cls-3" d="M2406.89,385.58l-42.65-7.32-1-.17a10.31,10.31,0,0,0-11.63,7.32l-9.94,34.74a10.68,10.68,0,0,1-.62,1.64,10.16,10.16,0,0,1-9.58,5.71A180.13,180.13,0,0,0,2261,438.58a11.36,11.36,0,0,1-2.83.6,10.49,10.49,0,0,1-9.27-4.5l-16.86-25a10.52,10.52,0,0,0-10-4.43,11.3,11.3,0,0,0-3.45,1.11L2179.59,427a10.55,10.55,0,0,0-4.75,13.45l15.68,36.93a10.18,10.18,0,0,1-1.8,10.78c-3.75,4.3-7.34,8.72-10.74,13.41a180.49,180.49,0,0,0-16.36,27.36l0,.05a10.4,10.4,0,0,1-10.29,5.89l-40.6-3.43-2-.15a10.16,10.16,0,0,0-10.91,8.41l-7.5,43.6a10.63,10.63,0,0,0,7.52,12l38.67,11.07a10.29,10.29,0,0,1,7.49,9.48,180.8,180.8,0,0,0,11.34,54.6,10.35,10.35,0,0,1-3.93,12.15l-29.59,20.05a10.52,10.52,0,0,0-3.4,13.67l20.71,39.25a10.06,10.06,0,0,0,12.83,4.55l43.43-18.37a10.57,10.57,0,0,1,11,1.7q5.61,4.83,11.71,9.25a182.9,182.9,0,0,0,23.71,14.59,10,10,0,0,1,5.54,9.9l-4.18,48.79a10.36,10.36,0,0,0,8.55,11.07l43.75,7.55a10.41,10.41,0,0,0,11.13-5.92,7.75,7.75,0,0,0,.51-1.4l12.3-42.89a10.25,10.25,0,0,1,8.57-7.46,5.67,5.67,0,0,1,1.09-.1,32.11,32.11,0,0,0,3.23-.18,179.92,179.92,0,0,0,38.05-5.89,10,10,0,0,1,11,4.19l21.2,31.24a10.51,10.51,0,0,0,13.63,3.37l8.69-4.58,30.31-16.06a10.37,10.37,0,0,0,4.71-13.22l-15.44-36.38a10,10,0,0,1,2.39-11.23,182.76,182.76,0,0,0,22.31-25.46,180.19,180.19,0,0,0,13.4-21.54l8.52.73,34.94,2.94a10,10,0,0,0,10.07-5.86,9,9,0,0,0,.77-2.54l7.64-43.88a10.43,10.43,0,0,0-7.36-11.66l-26.44-7.52a10.35,10.35,0,0,1-7.45-10.15,181.4,181.4,0,0,0-7.21-56.73,10,10,0,0,1,4-11.31l37.41-25.33a10,10,0,0,0,3.19-12.87l-21-39.64a10.07,10.07,0,0,0-12.91-4.62l-45.19,19.12a10.26,10.26,0,0,1-11.36-2.22A175.3,175.3,0,0,0,2429,461.6q-6.15-4.46-12.55-8.34a10.38,10.38,0,0,1-4.95-9.66l4-46.78A10.49,10.49,0,0,0,2406.89,385.58Zm-154.82,156a111.36,111.36,0,0,1,30-23.09,62.19,62.19,0,0,1,8.71-3.81c13.83-4.85,32-6.94,44.55-4.72,96.11,17.1,116.21,136.25,32.74,184.18-1.38.78-2.76,1.55-4.18,2.29-13.23,7-36.28,10.58-51,8.13a120,120,0,0,1-21.71-5.75C2223.9,673.59,2206.22,591.94,2252.07,541.54Z"/>
    <path class="cls-2" d="M989.6,695.57c-2.4-59.5,47.47-85.93,98.46-85.93s106.48,13.21,111.29,92.32c3.09,50.9-24,82.22-102.17,82.22-26.35,0-46.83-4.16-62.51-11.57l-39.06,34.7,19.2-48C997.81,743.54,990.64,721.24,989.6,695.57Z"/>
    <g>
      <path class="cls-4" d="M504.47,1592.13s-2.11-16.49-7-26.3-36.1-3.56-36.1-3.56-6.24,5.35-7.57,30.31Z"/>
      <path class="cls-4" d="M610.77,1591.91c-7.33-4.48-3.16-37.86-3.16-37.86s34.16-27.33,38.86-6.4,32.45,30.31,48.25,32.88c10.9,1.76,14.28,7.8,15.33,11.38Z"/>
      <path class="cls-5" d="M540,1349.12a157.09,157.09,0,0,1,2.51,18.45c3.18,61.94,52.14,203.57,60.9,206.87,13.55,5.12,34.89-5.75,46.06-9.31,4.62-1.48,7.74-6.14,6.71-10.88-24.24-111.47-33.16-272-36.4-367-1.64-47.87-9.85-80.94-9.85-80.94s-119.43-31.86-120.13,8.45C489.18,1150.4,529.36,1290.28,540,1349.12Z"/>
      <path class="cls-4" d="M540,1349.12l79.78-161.89c-1.64-47.87-9.85-80.94-9.85-80.94s-119.43-31.86-120.13,8.45C489.18,1150.4,529.36,1290.28,540,1349.12Z"/>
      <path class="cls-5" d="M566.59,1114.88l-63.14,457.56s-27.72,6.68-49.28,1.33c0,0-18.49-243.35-16.95-302.18s-13.26-157.42,3.38-168.3S566.59,1114.88,566.59,1114.88Z"/>
      <path class="cls-6" d="M436.17,997.4l-7.87,109.85a8.75,8.75,0,0,0,6.32,9c8.81,2.56,19,4.34,38.54,8.4a373.4,373.4,0,0,0,73.54,7.38c48.36.31,66.67-16.36,66.67-16.36,2.08,0-1.1-10.08-4-58.2-1-16.3-1.91-37-2.58-63.08-.61-23.5-1-51.41-1.06-84.53,0-39.84-61.72-82.7-62.86-82.7v0c0,5.74-9,16.32-23,17.24-16.53,1.08-36.81-7.15-36.81-16.67,0-.09-29.87,47.8-40.48,98.82-1.35,6.47-2.4,13.3-3.23,20.48l0,.33c-.16,1.31-.3,2.63-.44,4,0,.23,0,.47-.07.7-.12,1.21-.24,2.43-.35,3.66l-.09,1c-.1,1.13-.2,2.25-.29,3.39,0,.1,0,.2,0,.3-.08.85-.13,1.7-.2,2.54,0,.6-.09,1.21-.13,1.82-.07,1-.14,2-.21,3,0,.51-.06,1-.1,1.52-.05.95-.11,1.91-.17,2.88,0,.42-.05.85-.08,1.28-.07,1.39-.15,2.79-.22,4.21,0,.11,0,.22,0,.34-.07,1.36-.14,2.73-.2,4.1,0,.34,0,.68,0,1q-.11,1.93-.18,3.9c0,.19,0,.39,0,.58-.14,3.19-.26,6.44-.38,9.73,0,.08,0,.17,0,.25Z"/>
      <path class="cls-6" d="M542.9,827.21s57.34-.48,71.14,18.87,44.06,123.47,28.27,158.11S597,989.86,580.58,968.64,542.9,827.21,542.9,827.21Z"/>
      <path class="cls-7" d="M543.49,818.46l0,5.93s1.61,18.54-21.22,21.24-39.74-3.52-39.12-17.83c2.06-11.07,3.94-22.38,4.09-31.55a65.63,65.63,0,0,0-.81-11.1l44.23-.88,13,2.13Z"/>
      <path class="cls-8" d="M543.66,786.4l-.17,32.06a37.34,37.34,0,0,1-16,3.52c-20.32,0-33.46-14.91-40.33-25.73a65.63,65.63,0,0,0-.81-11.1l44.23-.88Z"/>
      <path class="cls-7" d="M483,778c5.13,27.62,40.77,26.71,56.17,25,4.33-.48,7.06-1,7.06-1,4.89-1.31,7.61-9,8.88-19.09,2.52-19.95-.66-49.25-4-56.74-5.07-11.27-14.63-23.46-50.52-14.67S476.42,742.65,483,778Z"/>
      <path class="cls-9" d="M601.54,904.81s22.18,49,21.53,63.65a76.76,76.76,0,0,0-21.53,2.77C584.2,976.4,601.54,904.81,601.54,904.81Z"/>
      <path class="cls-4" d="M562.1,699.86a118.69,118.69,0,0,1-34.43-9.31c-15.12-6.58-34.2.66-40.39,3.93a9.08,9.08,0,0,1,1.51-3.73s-2.78,2-3.19,4.73c-.29.21-.42.35-.34.4s-3.16-.57-5.18.34c0,0,1.42-.21,1.92.71a1.34,1.34,0,0,0,.23.25c-23.59,11.4-25.77,48.68-18.18,57.31,9.13,10.37,20.09,33.75,20.09,33.75s4-5.52,2.33-14.66,6.23-9.13,16.19-13.28,1.66-15.78,10.38-22.84,40.69-2.9,40.27-8.3C565.18,724.84,562.1,701.08,562.1,699.86Z"/>
      <path class="cls-9" d="M475.78,996.55c9.36,37.59,110.61,57,133.62,61-1-16.3-1.91-37-2.58-63.08Z"/>
      <path class="cls-7" d="M498,1008.77c-1,0-22.5-3.22-26.36-5.15s-21.51-27-9.95-33.43,42.58,19.29,42.58,19.29Z"/>
      <path class="cls-6" d="M629,1016.22s-83.32,4.52-139.23-7.45c0,0-1.41-16.15,16.16-23.33,0,0,87.15-18.47,108.08-13.33S629,1016.22,629,1016.22Z"/>
      <path class="cls-6" d="M437.69,950.83c17.29,20.85,39.9,37.88,64.82,41.86h0a46.43,46.43,0,0,0,6.17-27.83,55.73,55.73,0,0,0-9.07-25.54,55.81,55.81,0,0,1-4.9-9.88C481.1,894.72,483.12,827.8,483.12,827.8s-57.78,6.05-75.79,31.78C396.3,875.33,410.37,917.87,437.69,950.83Z"/>
      <path class="cls-8" d="M539.18,803c4.33-.48,7.06-1,7.06-1,4.89-1.31,7.61-9,8.88-19.09-9.16,2.26-13.36,9.34-15.11,12.35C539.22,796.6,539.06,799.64,539.18,803Z"/>
      <path class="cls-7" d="M562.46,818.64s20-32.94,4.44-34.37-21.76,9.07-24,12.93.59,21.26.59,21.26Z"/>
      <path class="cls-6" d="M486.4,963.75a43,43,0,0,0,3.4,11.44,54.65,54.65,0,0,0,12.71,17.5h0c51.83-23.4,62.32-103.74,64.08-147.88.7-17.74,0-29.64,0-29.64-23.38-7.74-30,5.71-30,5.71S509,886.53,494.71,929.44C489.23,945.86,485.7,959,486.4,963.75Z"/>
      <path class="cls-9" d="M437.69,950.83c17.29,20.85,39.9,37.88,64.82,41.86h0c51.83-23.4,62.32-103.74,64.08-147.88,0,0-24.53,89-57.91,120.05-6,5.63-12.36,9.36-18.88,10.33,0,0-42.1-11.9-50.93-23.1A4.87,4.87,0,0,0,437.69,950.83Z"/>
    </g>
    <g>
      <g>
        <g>
          <path class="cls-10" d="M2092.46,1237.49s32.93-38.64,1.86-63c0,0-22.68-13.65-41.14-12.49,0,0,26.28,43.8,17.83,48.19s-25.77-50.92-25.77-50.92-51.54-4.85-68.1,3.16c0,0,44.15,35.93,34.88,38.1s-57-33.08-57-33.08-47.94,8.3-45.3,37.55,19.19,38.24,26.45,37.44,49.7-17.13,50.64-11.19-24.58,25.47-42.48,26.43c0,0,33.91,37.2,56.36,26.38s24.31-27.89,38.3-34.33,25.95-6.45,20.19.09-31.11,13-39.08,27.15-15.13,23.76,8.11,20.2,61-20.68,62.59-40.16Z"/>
          <g>
            <path class="cls-10" d="M1933.33,1205.69s130.26-5.38,159.13,31.8c0,0,6.42,19,26,36.33l3.08,8.31s-22.64-23.74-30.73-25.15C2090.85,1257,2103.36,1210.79,1933.33,1205.69Z"/>
            <path class="cls-10" d="M2118.5,1273.82s28,20.61,30.06,57.55l-5.07.47s-9-38.18-25.22-53.08S2118.5,1273.82,2118.5,1273.82Z"/>
          </g>
        </g>
        <g>
          <path class="cls-10" d="M2267.17,1135.61s-52.64-29.28-28.23-69.29c0,0,19.56-24.58,40.56-31,0,0-11,59.6.17,61s7.52-67.3,7.52-67.3,55.29-26.78,77-24.74c0,0-34.18,58.26-23,56.83s49.59-60.4,49.59-60.4,56.73-10.67,65.93,22.94-5.46,50.47-13.87,52.6-62.36,1.57-60.94,8.57,37.89,18.12,58.2,11.75c0,0-22.27,55.43-51.71,52.7s-38.6-20.91-56.83-22.26-31.52,3.59-22.4,8.47,39.95,1.49,54.7,14,26.68,20.14-.63,25.82-76.38,2.32-86.25-18.68Z"/>
          <g>
            <path class="cls-10" d="M2430.87,1034.25s-147,48.06-163.7,101.36c0,0,.76,23.83-13.88,51.2l0,10.51s15.32-35.78,23.71-40.71C2277,1156.61,2244,1110.45,2430.87,1034.25Z"/>
            <path class="cls-10" d="M2253.29,1186.81s-22.6,34.52-9.54,76.44l5.83-1.59s-5.79-46.19,6-69.46S2253.29,1186.81,2253.29,1186.81Z"/>
          </g>
        </g>
        <g>
          <path class="cls-11" d="M2183.44,1095.25s69.17-39,36.7-91.55c0,0-26-32.26-53.69-40.49,0,0,15,78.47.22,80.36s-10.41-88.65-10.41-88.65-73.07-34.9-101.7-32c0,0,45.48,76.55,30.69,74.74s-65.8-79.26-65.8-79.26-74.86-13.65-86.75,30.72,7.58,66.49,18.67,69.23,82.22,1.62,80.39,10.86-49.81,24.16-76.62,15.92c0,0,29.76,72.89,68.55,69.09s50.72-27.85,74.74-29.77,41.58,4.51,29.59,11-52.65,2.26-72,18.81-35,26.75,1,34,100.7,2.49,113.55-25.26Z"/>
          <g>
            <path class="cls-11" d="M1966.92,962.83s194.16,62.28,216.52,132.42c0,0-.84,31.41,18.66,67.39l0,13.85s-20.45-47-31.56-53.49C2170.58,1123,2213.83,1061.92,1966.92,962.83Z"/>
            <path class="cls-11" d="M2202.1,1162.64s30,45.34,13.14,100.69l-7.7-2s7.3-60.93-8.44-91.52S2202.1,1162.64,2202.1,1162.64Z"/>
          </g>
        </g>
      </g>
      <g>
        <path class="cls-6" d="M2635.08,1584.08l-568.81,1.41c-84.61-96.87-93.22-227.82,19.18-338.1,14.13-13.86,41.24-23.69,70.46-30.62,53.87-12.77,115-15.69,115.43-15.94.18-.07,32.29-26.08,51.61-49.46C2383,1078.75,2434,1085,2434,1085c61.17-11.88,113.34-15.35,152,6.19v0c35.82,20,60.06,61.47,69.1,137.68q2.58,21.61,3.5,47c2.19,61.86,14.36,116.88,21.58,163.46,0,0,0,0,0,0C2690.7,1506.92,2690.77,1556.74,2635.08,1584.08Z"/>
        <path class="cls-9" d="M2555.7,1167.54c-37.12,20.2-41.25,86.79-99.35,104s-156.69,15.57-212.65,76.22c-54,58.51-113.43-90.43-87.79-132.31,53.87-12.76,115-15.68,115.43-15.94.18-.07,32.29-26.08,51.61-49.46,60-72.62,111.08-66.36,111.08-66.36,61.17-11.87,113.34-15.35,152,6.2v0C2605.67,1111.29,2592.82,1147.34,2555.7,1167.54Z"/>
        <g>
          <path class="cls-4" d="M2327.88,1186.59s-186.25-2.44-211.06,13.43,25.58,268.1,25.58,268.1,48.17,1.4,52-11.36c0,0-9-118.22-1.47-138.67s2.78-48.75,2.78-48.75,94.25,14.12,124.15,7S2327.88,1186.59,2327.88,1186.59Z"/>
          <path class="cls-7" d="M2371,1056.23c0,.14-26.21,61.09-39,67.58s-59,59.63-68.95,58.7,11.6,8.07,11.6,8.07,80.84-37.26,85.54-39.59,29.46-43.06,32.86-63.74S2371,1056.23,2371,1056.23Z"/>
          <path class="cls-7" d="M2200.31,1486.93c-6.21,12-7.61,34-9.46,41.47s-34.39,32.86-37.19,31.59c-7.12-3.22-.32-15.62,4-24.69.18-.36.35-.73.51-1.08,4.29-9.14.6-29.54,2.82-40.07s-8.45-38.89-8.45-38.89l18-22.72s12.63,24,21.67,28.42a22.2,22.2,0,0,1,4.41,2.81C2202.76,1468.82,2205.41,1477.08,2200.31,1486.93Z"/>
          <path class="cls-7" d="M2137.1,1557.08c-12.46,5.13-27.74,21.06-34,25.58s-47.48,2.91-48.8.14c-3.5-7.33,10.92-12.54,20.09-16.76l.41-.19,0,0c9.06-4.56,19.21-22.07,27.58-28.59s18.62-35.16,18.62-35.16l28.39-5.76s-5.85,26.53-1.76,35.7a22.45,22.45,0,0,1,1,2.62C2151.26,1543.16,2148.4,1552.42,2137.1,1557.08Z"/>
          <path class="cls-12" d="M2424.48,1029.17c-3.79-4.38,56.1-22.43,68.87,26.72,0,0,110.23-29.31,42.47-78.42-23.46-17-25.82-35.14-29.21-51.74s-26.8-64.31-67.43-40.64c0,0-18.56.08-30.3,10.26C2382.17,918.49,2353,1065.57,2424.48,1029.17Z"/>
          <path class="cls-13" d="M2405.69,1195.24s-193.14,19.63-210.11,39.34-83.71,276.06-83.71,276.06,19.71,11,37.63.72c0,0,51.1-87,73.71-114.26s31.08-111.59,34.81-112.45,124.76,16.9,166.44-15.09S2405.69,1195.24,2405.69,1195.24Z"/>
          <path class="cls-14" d="M2513.26,1020s-46.06-20.58-104.48-11.17c-11.94,1.92-22.69,5.84-31.23,19.9-12.07,19.86-17.71,30.53-17.71,30.53s1.16,9.21,17.63,16.54c-4.49,16.47,4.1,45.23-3.81,56.39s-57,38.84-59.44,54.23c-4.46,28.28,83.87,79.56,110.22,74.09C2500.24,1244.75,2551.74,1041.66,2513.26,1020Z"/>
          <path class="cls-12" d="M2487.2,961.72s9.08-17.87,10.29-32.53c.86-10.47-8-48.14-45.81-39a52.45,52.45,0,0,0-20.84,10.2c-7.79,6.41-18.67,19.68-2.1,51.72l4.55,10.92Z"/>
          <g>
            <path class="cls-7" d="M2435.33,1022c-3.83,4-2.33,17.45,15.58,16.44,11.75-.65,36.94-15.18,34.58-25.22-1.12-4.78-10.15-17.09-12.27-45.41l-2.14.6-35.87,10.08s1.73,11.4,2.6,22.2C2438.55,1009.75,2436.91,1020.32,2435.33,1022Z"/>
            <path class="cls-15" d="M2435.21,978.48s1.73,11.4,2.6,22.2c20.35-2.17,29.67-21.62,33.27-32.28Z"/>
            <path class="cls-7" d="M2434.44,995.06s46.94-11.8,39.14-40.92-7-50.26-37.3-44-33.12,19-32.88,29.33S2422,997.38,2434.44,995.06Z"/>
            <path class="cls-12" d="M2414.8,915.2s15.76,30,45.5,33.27c17.4,1.89,22.17,13.36,22.17,13.36s-5.22-32.78-14-52.83C2468.5,909,2420.08,896.34,2414.8,915.2Z"/>
            <path class="cls-12" d="M2420.18,919.17s-10.28,10.49-13.45,17.89c-4.7,11,4.46,34,8.24,39,0,0-21.84-37.06-14.54-53.11C2408.17,905.93,2420.18,919.17,2420.18,919.17Z"/>
          </g>
          <path class="cls-7" d="M2277,1189.5s-9.35,9.89-10.48,10.43c-6.18,2.89-14,1.2-17.77,2.15s-3.12-1.4-.34-3.3,9.63-1.16,6.83-1.86-17.91-3.51-23.6-2c-9,2.41-16.11-.42-16.68-1.34s20.57-11.25,26.61-10.9,23.39-.49,23.39-.49Z"/>
          <path class="cls-7" d="M2529.14,1038.25s5.61,137.69-10.57,157-114.59-2.13-114.59-2.13l-6.83-10.06s87.45-12.8,93.32-14.46c8.45-2.39,2.57-97.2,2.57-97.2Z"/>
          <path class="cls-14" d="M2507.42,1017.83c1.4,0,18.81,5.75,31.3,30.49,12.28,24.31,16.75,36.11,16.75,36.11s-54.47,42.2-76.13,26.66S2487.44,1017.31,2507.42,1017.83Z"/>
          <path class="cls-7" d="M2404,1193.11s-7.84,7.94-10.82,12-23.82,11.4-24.29,9.23,9.32-8.78,10.21-11.25,11.56-14.85,18.07-16.26S2404,1193.11,2404,1193.11Z"/>
          <path class="cls-7" d="M2397.15,1183.05s-32.13,7.43-37.58,9.66-17,18.59-12.43,21c2.9,1.55,15.58-5.15,22-6.54s24.66,1.77,33-14.71C2403.11,1190.65,2397.15,1183.05,2397.15,1183.05Z"/>
          <path class="cls-16" d="M2137.1,1557.08c-12.46,5.13-27.74,21.06-34,25.58s-47.48,2.91-48.8.14c-3.5-7.33,10.92-12.54,20.09-16.76l.41-.19,0,0,1.29-.42s17.79,6.35,32.58,0c11.54-5,28.64-23.31,39.93-30.77C2151.26,1543.16,2148.4,1552.42,2137.1,1557.08Z"/>
          <path class="cls-16" d="M2200.31,1486.93c-6.21,12-7.61,34-9.46,41.47s-34.39,32.86-37.19,31.59c-7.12-3.22-.32-15.62,4-24.69a20.23,20.23,0,0,0,9.94-3.69c8.13-5.43,21.93-25.88,23.16-38,1-9.83.38-23.93,5.84-29.88C2202.76,1468.82,2205.41,1477.08,2200.31,1486.93Z"/>
          <g>
            <g>
              <polygon class="cls-6" points="2355.72 1217.91 2215.77 1217.91 2173.68 1113.22 2313.41 1113.22 2355.72 1217.91"/>
              <polygon class="cls-9" points="2214.14 1213.83 2398.94 1213.83 2398.94 1217.91 2215.77 1217.91 2214.14 1213.83"/>
            </g>
            <path class="cls-17" d="M2251.1,1165.57c-1-3.68,1.07-6.67,4.76-6.67a9.56,9.56,0,0,1,8.57,6.67c1.05,3.68-1.07,6.66-4.75,6.66A9.56,9.56,0,0,1,2251.1,1165.57Z"/>
          </g>
        </g>
        <path class="cls-6" d="M2515.92,1217.27s-18.3,17.13-94.86,19.56-176.41,87-177.36,110.89,154.14,60.24,156.54,56.82,98.38-85.8,98.38-85.8Z"/>
        <path class="cls-9" d="M2680.23,1438.07c-41.23-74.22-135.36,28.14-158.76-6.49s33.08-78.59,84-116.46c49.9-37.11,49.69-85.6,49.66-87.57q2.58,21.62,3.5,47.06C2660.84,1336.46,2673,1391.48,2680.23,1438.07Z"/>
      </g>
    </g>
    <g>
      <path class="cls-18" d="M2014.82,401.66a331.31,331.31,0,0,1-75.45,213c-40.94,49.85-64,112-64,176.52v93a106.7,106.7,0,0,1-25.48,69.21,108,108,0,0,1-74.75,38.12c-2.41.16-4.65,0-7.1,0H1596.28c-2.31,0-4.81.15-7.09,0C1533.34,987.93,1489,940.9,1489,884.18V791.34a277.29,277.29,0,0,0-63.69-176.28,331.39,331.39,0,0,1-75.77-211.39C1349.5,219.13,1499.31,71,1682.17,71A332,332,0,0,1,2014.82,401.66Z"/>
      <path class="cls-9" d="M1775.13,991.51c-.86,6.66-15.34,117.84-15.48,118.9-2.39,18.35-23.37,32.37-48.45,32.37h-56.52c-24.85,0-45.79-13.8-48.42-32-2.74-19.18-13.27-92.69-17.07-119.24Z"/>
      <g>
        <path class="cls-6" d="M1752.69,991.51h-32c-51.54,14.9-102.67,29.63-126.36,36.32l1.24,8.68,0,.2,1.26,8.8c19.19-5.31,65.24-18.51,177.84-51.14l.37-2.86Z"/>
        <path class="cls-6" d="M1603,1087.68h0l0,.19v0l1.27,8.83c22.19-6.23,68-19.36,163.29-47l1.26-9.59v-.08l1.24-9.53c-60.24,17.44-133.15,38.5-168.32,48.49Z"/>
        <path class="cls-6" d="M1624.17,1134.88l.31.18a54.72,54.72,0,0,0,13.16,5.47h0c26.14-7.49,64.95-18.7,122.67-35.41l1.24-9.61v-.08l1.25-9.53c-51.55,14.92-110.69,32-147.22,42.46A44.11,44.11,0,0,0,1624.17,1134.88Z"/>
      </g>
      <g>
        <polygon class="cls-19" points="1614.89 991.51 1543 567.16 1557.84 564.65 1630.14 991.51 1614.89 991.51"/>
        <polygon class="cls-19" points="1742.77 991.51 1727.41 991.51 1804.39 571.26 1819.19 573.97 1742.77 991.51"/>
        <path class="cls-19" d="M1721.86,643.11a29.31,29.31,0,0,1-6.49-.8c-4-.91-6.58-3.7-7.38-8.06-1.71-9.41,5.67-26.65,16-41.27-5.41-9.45-12.62-17.25-20.18-19.54-11.17-3.39-28.31,6.93-40.25,20.1a89.37,89.37,0,0,1,5.87,9.57c6.12,11.54,10.51,26.31,4.5,33.14-2.23,2.53-6.78,4.82-15.81,1.42-11.27-4.25-15.32-13.8-11.11-26.2a60.18,60.18,0,0,1,10.68-18.26c-9.24-12.06-21.6-21.22-33.77-19.69a37.41,37.41,0,0,0-16.72,6.31c7.79,14.49,9.58,32.87,4.18,42.74-3.68,6.72-10.11,8.84-18.11,6-5.74-2.05-8.74-10-7.63-20.14a46.49,46.49,0,0,1,15.61-29.78,38.71,38.71,0,0,0-8.65-9.7c-21-16.28-38.32,1.19-39,1.95l-3.27-3.18c.21-.21,21-21.12,45.11-2.37a43,43,0,0,1,9.48,10.53,41.92,41.92,0,0,1,18.48-6.89c13.65-1.71,27.27,7.92,37.38,20.73,13-14.11,31.48-24.54,44.39-20.65,8.16,2.47,15.85,10.34,21.73,20,5.48-7.11,11.58-13.3,17.51-17.22,9.5-6.3,15.7-4.85,19.21-2.54a34.49,34.49,0,0,1,9.23,9.23,50.93,50.93,0,0,1,8.83-5.69c11-5.49,21.12-5.08,28.47,1.13l-2.94,3.48c-7.93-6.71-18.13-3.21-23.5-.53a47.74,47.74,0,0,0-8.47,5.47c7.33,13.22,8.76,30.45,4.56,38.79-2.65,5.24-7.37,7.07-12.89,5-9.94-3.64-12.37-10.49-12.66-15.6-.54-9.77,6.23-20.89,15.08-29.08a29.93,29.93,0,0,0-8.21-8.44c-4.3-2.83-10.1-.19-14.2,2.52-5.92,3.92-12.12,10.37-17.6,17.7,6.83,13,10.37,28.14,7.78,37.9C1735.81,636,1732.21,643.1,1721.86,643.11Zm4.52-45.67c-9,13.15-15.36,28-13.91,36,.46,2.53,1.71,3.94,3.9,4.44,8.92,2,14.41-.58,16.3-7.74C1734.86,621.86,1732,608.93,1726.38,597.44Zm-65.85-.33a54.21,54.21,0,0,0-9.19,15.82c-3.46,10.18-.62,17.07,8.41,20.48,3.64,1.37,8.47,2.45,10.78-.17,3.58-4.06,1.48-15.58-5.1-28A86.38,86.38,0,0,0,1660.53,597.11Zm-56.93-14.42a41.93,41.93,0,0,0-13.42,26.24c-.84,7.77,1.07,14.08,4.64,15.35,5.79,2.06,10,.75,12.58-3.9C1612,611.93,1610.35,595.67,1603.6,582.69Zm168,2.9c-7.91,7.6-13.28,17.34-12.87,24.84.31,5.45,3.56,9.34,9.68,11.58,3.36,1.24,5.66.34,7.25-2.82C1779.22,612.2,1777.72,597.24,1771.64,585.59Z"/>
      </g>
      <path class="cls-19" d="M1853.88,198.93c27.35,25.76,23.92,73.17-11.26,83.72-26.52,8-66.07-2.67-85.61-36.52s-10.53-61.68,13.44-75.52S1825.43,172.12,1853.88,198.93Z"/>
    </g>
    <g>
      <path class="cls-12" d="M827.8,904.57c-3.19-6.16,69.72-28.36,70.88,32.47,0,0,136.59-3.36,71.37-79.49-22.58-26.36-20.25-48.15-19.58-68.43s-14.06-79.25-64.62-73.32c0,0-13.24-5.38-29.76,3.19C818.51,738.48,734.33,927,827.8,904.57Z"/>
      <path class="cls-7" d="M1051.11,972.58s8.9-13.54,16.06-13.81,20.44-4,19.37-1.32-9.28,2.92-10.08,4.51,12.21,4,15.92,4.24,12.48,0,12.21,1.86-15.78,9.56-26.73,8.5-24.49,3.18-24.49,3.18Z"/>
      <path class="cls-14" d="M922.53,977a133.15,133.15,0,0,0,13.6,20.57c10.56,13.23,26.85,28.52,47.31,31.54,9.77,1.44,19.32-.66,28.1-4.57h0c24.84-11,43.52-36.39,43.52-36.39,4.37-11.94-2.79-20-2.79-20s-50.16,11.28-54.94,8.89-32.64-82.67-39.27-92.75-29.26-15.33-29.26-15.33Z"/>
      <path class="cls-20" d="M936.13,997.52c10.56,13.23,26.85,28.52,47.31,31.54,9.77,1.44,19.32-.66,28.1-4.57-1,.13-25.78,3.2-35.67-14.49-10.08-18-21-46.72-36-37.16C933.43,977,933.72,987.21,936.13,997.52Z"/>
      <path class="cls-4" d="M735.39,1518.41s-15.3,14-12.32,23.89,16.8,16.54,18.67,28.67,9.33,18.75,16,18.75h32s4.94-8.54-7-11.11-16.45-16.83-15.71-30.06-1.12-30.88-1.12-30.88l-25.38-5.88Z"/>
      <path class="cls-4" d="M864.94,1524.34s-5.51,59.17,1.21,62.48l86-.18s0-9.92-13.81-12.13-38.08-10.29-42.19-28.3S864.94,1524.34,864.94,1524.34Z"/>
      <path class="cls-7" d="M803.66,1099.81c17.69-39.68,28.52-51.08,26.45-63.39-1.53-9.17,4.69-170.94,4.69-170.94,2.1-.65,6.31-1.23,8.61-1.74A21.59,21.59,0,0,0,859.18,850c3-8.44,5.4-20.89,5.35-36.5l2.26.44,38.12,7.55s-.87,12-.89,23.3v.28a21.91,21.91,0,0,0,15.82,21.19c4.81,1.4,9,2.58,9,2.58s14,40,16.67,81-25.45,58.88.21,140.91C971.92,1174.57,793.88,1121.74,803.66,1099.81Z"/>
      <path class="cls-21" d="M904.91,821.52s-.87,12-.89,23.3c-21.33-.6-32.61-20.06-37.23-30.85Z"/>
      <path class="cls-7" d="M912,832.22s-50.46.83-50.5-30.6-6.57-52.5,25.65-54.36,38.49,10.13,41.06,20.62S925.16,831.19,912,832.22Z"/>
      <path class="cls-12" d="M910.16,746.49s-13.81,36.88-35,42.33-30.4-.23-30.4-.23,16.27-12.92,19.64-35.47C864.38,753.12,899.74,728.94,910.16,746.49Z"/>
      <path class="cls-12" d="M906.74,749.49s10.25,3.83,14.46,11.3A50.72,50.72,0,0,1,928,789.65s10.41-25.07-1.28-39.25C914.33,735.36,906.74,749.49,906.74,749.49Z"/>
      <path class="cls-1" d="M901.05,812.72A12.68,12.68,0,0,0,911.5,817a9.28,9.28,0,0,0,7.78-5.13S909,809.36,901.05,812.72Z"/>
      <path class="cls-14" d="M798.79,937a340.31,340.31,0,0,0,0,39.75c.85,14.37,15.39,33.62,17.45,38.38,5.17,11.94,11,13.89,11,13.89l45.15,11.06,15.88,3.89,50.06-15s22.81-63.65,13.65-99.48-23.15-60.71-23.15-60.71-40.85,40-94-3.39Z"/>
      <path class="cls-20" d="M812,982.65c.85,14.38,2.18,27.76,4.24,32.52,5.17,11.94,11,13.89,11,13.89l45.15,11.06,19.61-5.76s-65.46-9.92-58.21-66.24Z"/>
      <path class="cls-9" d="M935.16,1038.72s24.79,77.17,26.38,103.44-47.39,373.25-49.36,385.36c-1.86,11.41-16,18.69-16,18.69s-6.52,3.84-15.82,1.21c-12.9-3.64-17-8-17-8S844.05,1292,856,1203.56a1400.25,1400.25,0,0,0,12.08-164.84Z"/>
      <path class="cls-6" d="M830.11,1036.42s-37.82,50.74-41.34,85-5.53,154.79-13,188.24-35.11,97.79-35.11,202.09c0,0,2.87,6,11.72,9.16a95.37,95.37,0,0,0,10.32,2.85,16.2,16.2,0,0,0,18.13-8.6c18.66-37.57,78.09-158.73,81.14-183.88,2.15-17.8,20.92-135.6,61.85-204.72,9.83-16.6-6-82.59-6-82.59Z"/>
      <path class="cls-17" d="M902.17,813.56s.88,3.71,10.09,3.13c0,0,7.74-.47,7.5-4.55C919.76,812.14,912.26,809.25,902.17,813.56Z"/>
      <path class="cls-4" d="M939.12,1026.8s-10,7.88-29.73,8.28c-23.62.47-82.14-6-82.14-6a48.38,48.38,0,0,0-2.49,14.94s71.47,18,112.89,2.63C937.65,1046.62,943,1036.57,939.12,1026.8Z"/>
      <path class="cls-17" d="M904.28,1043.23c0-6.72,4.84-12.2,10.78-12.2s10.78,5.48,10.78,12.2-4.84,12.2-10.78,12.2S904.28,1050,904.28,1043.23Zm3.57,0c0,4.76,3.24,8.63,7.21,8.63s7.2-3.87,7.2-8.63-3.23-8.62-7.2-8.62S907.85,1038.48,907.85,1043.23Z"/>
      <rect class="cls-22" x="782.01" y="956.07" width="97.1" height="132.91" transform="translate(785.46 2339.1) rotate(-138.95)"/>
      <path class="cls-7" d="M843.77,1041s26.83,3.14,26.75,9.5-6.69,19.46-10,20-21.84-17.69-21.84-17.69Z"/>
      <path class="cls-14" d="M834.8,865.48S799,868,785.24,901.37s-39.78,89.43-39.78,98.85,14.55,38.5,92.71,55.21c0,0,8.08-8.51,7.6-15.23,0,0-48.79-41.91-48.66-46.8.25-9.27,8-21.5,50.83-64.35C859.59,917.4,834.8,865.48,834.8,865.48Z"/>
    </g>
    <g>
      <g>
        <g>
          <path class="cls-23" d="M1144.52,1587.89h-.34a3.56,3.56,0,0,1-3.56-3.65l5.4-234.31,15.93-1.86-13.58,236.19A3.86,3.86,0,0,1,1144.52,1587.89Z"/>
          <path class="cls-24" d="M1400.59,1587.89h.34a3.58,3.58,0,0,0,3.57-3.65l-5.41-234.31-15.92-1.86,13.58,236.19A3.84,3.84,0,0,0,1400.59,1587.89Z"/>
          <path class="cls-24" d="M1134,1335.4V1174.84a51.15,51.15,0,0,1,51.15-51.16h115.69a51.15,51.15,0,0,1,51.15,51.16v166.69Z"/>
          <path class="cls-23" d="M1134,1335.4h238.72a0,0,0,0,1,0,0v25.35a0,0,0,0,1,0,0H1149.33a15.36,15.36,0,0,1-15.36-15.36v-10A0,0,0,0,1,1134,1335.4Z"/>
          <rect class="cls-24" x="1219.12" y="1335.4" width="191.69" height="25.35" rx="11.36"/>
        </g>
        <g>
          <path class="cls-4" d="M1392.89,1295.39c-16.57,28.84-37.41,40-37.41,40h-86.72S1405.54,1273.39,1392.89,1295.39Z"/>
          <g>
            <path class="cls-7" d="M1326.29,1518.56a8,8,0,0,0-1.43,8.57.05.05,0,0,0,0,0c2.06,5.72,8.9,12.1,16.83,18.47,1,.82,1.92,1.57,2.71,2.26l.6.54.47.42c7.4,6.83,4.62,8.39,17.91,22.23,15.16,15.78,25.6,16.06,28.57,14.63,2.52-1.23-2.59-9.6-8.24-19-.28-.45-.55-.91-.83-1.37l-2.25-3.78c-6.63-11.32-4.92-16.63-3.35-33.47,1.27-13.69,21.29-76.47,21.29-76.47l-29.06-5s-8.75,50-18.39,57.69c-5.15,4.1-10.92,4.15-15.88,7.2-.35.21-.69.42-1,.65A38.07,38.07,0,0,0,1326.29,1518.56Z"/>
            <path class="cls-4" d="M1326.29,1518.56a8,8,0,0,0-1.43,8.57.05.05,0,0,0,0,0c2.53,5.71,9.19,12.06,16.86,18.42,1,.83,1.89,1.59,2.68,2.31l.6.54.47.42c7.4,6.83,4.62,8.39,17.91,22.23,15.16,15.78,25.6,16.06,28.57,14.63,2.52-1.23-2.59-9.6-8.24-19a64.49,64.49,0,0,1-27-19.92c-9.13-11.64-15.22-26.61-21.44-35.28-.35.21-.69.42-1,.65A38.07,38.07,0,0,0,1326.29,1518.56Z"/>
            <path class="cls-7" d="M1560.58,1500.41c1.79,9,14.58,7.47,28.86,4s10.89.66,31.22-1.59,26.48-9.83,27.1-12.85c.56-2.68-9.49-3.63-20.26-4.87-1.36-.15-2.72-.32-4.08-.49-12.16-1.52-21.07-9.37-32.12-15.82-10.46-6.11-26.08-31-26.08-31l-27.88,2.2s14.63,22.22,20.29,31.88c3.33,5.69,3.15,13.2,2.73,19A35.88,35.88,0,0,0,1560.58,1500.41Z"/>
            <path class="cls-4" d="M1589.44,1504.39c14.28-3.49,10.89.66,31.22-1.59s26.48-9.83,27.1-12.85c.56-2.68-9.49-3.63-20.26-4.87l-.1.21a57.28,57.28,0,0,1-29.11,9c-13.79.34-28.4-3.61-37.93-3.46a35.88,35.88,0,0,0,.22,9.54C1562.37,1509.38,1575.16,1507.88,1589.44,1504.39Z"/>
            <path class="cls-4" d="M1453.74,1322.15l-26.06,70.13-34,91.56a55.16,55.16,0,0,1-18.07-1.65c-8.15-2.35-17.49-8.51-17.49-8.51s9.45-98.31,27.08-154.75c4.51-14.48,9.57-26.2,15.16-32.8C1427.66,1253.84,1453.74,1322.15,1453.74,1322.15Z"/>
            <path class="cls-25" d="M1427.25,1210.78c-17.08-5.5-65.77,1.57-114.69,11.14L1302.32,1205l-105.66-8.25s-34.86,77.32-15.77,126.58c2.8,7.24,8.38,11.89,17.88,12h1.54l83.31,0c52.54,0,111.2-36.12,118.79-37.64,12.42-2.48,17.39,22.36,29.81,48.44S1549,1461.67,1549,1461.67s16,.16,22.65-2.32c7.13-2.68,9.73-6.15,9.73-6.15S1465.75,1223.2,1427.25,1210.78Z"/>
            <path class="cls-22" d="M1298.16,897.38c-13.53-7.11-34.12-8.07-37.47-8.52-40-5.38-64.13,52.8-65.55,70.42-2.61,32.5-19.8,37.45-44,57.8-48.51,40.8-34.28,88.21-7.76,105.83,15.92,10.57,44,0,44,0,.4.28,76.73-42.67,114.35-63.38C1358.1,1051.51,1332.66,915.49,1298.16,897.38Z"/>
            <path class="cls-7" d="M1270.16,1041.89c.17.11-18.51,6.48-31,.95-11.74-5.19-20.64-24.52-20.47-24.53,5.34-.24,11.21-4.92,15.73-35.58l2.28.82L1275,997.32s-2.77,12.28-4.56,24C1268.89,1031.1,1268.08,1040.5,1270.16,1041.89Z"/>
            <path class="cls-26" d="M1275,997.32s-2.77,12.28-4.56,24c-22-4-30.61-25.86-33.7-37.74Z"/>
            <path class="cls-7" d="M1280.66,1009.5s-52.35-7-47.48-39.56,1.41-55.35,35-52.24,38.25,16.49,39.27,27.75S1294.41,1010.49,1280.66,1009.5Z"/>
            <path class="cls-22" d="M1305.58,927.62s-33.51,28.88-56.31,31.21-31.43-5-31.43-5a89.1,89.1,0,0,0,21.53-29.16,16,16,0,0,1,13.21-9.45C1268.86,913.82,1299.72,913.18,1305.58,927.62Z"/>
            <path class="cls-22" d="M1284.63,925s11.21,10.84,14.74,18.88c3.41,7.76,4.43,26.32,1.72,33.69,0,0,17.47-34,7.58-50.47C1298.18,909.63,1284.63,925,1284.63,925Z"/>
            <path class="cls-14" d="M1314.25,1119c-1.58,106-.43,83.84-12,93.89-2.79,2.42-10.64,3.87-21,4.55-32.49,2.16-89.62-3.2-91.79-9.2-7.5-20.78-2.21-27.24-8.46-59-.65-3.38-1.46-7-2.4-11-5.22-21.85-10.29-29.28,8.2-64.38,16.78-31.8,34.21-57.61,35.78-56.68,44.25,26.28,47.82,4.19,47.82,4.19S1315,1067.32,1314.25,1119Z"/>
            <path class="cls-25" d="M1427.68,1392.28l-34,91.56a55.16,55.16,0,0,1-18.07-1.65c-8.15-2.35-17.49-8.51-17.49-8.51s9.45-98.31,27.08-154.75Z"/>
            <path class="cls-14" d="M1270.4,1021.29s45.54,7.72,50.89,27.33,36.81,134.88,36.81,134.88-23.15,4.16-33.84-6.54-37.22-99.23-37.22-99.23Z"/>
            <path class="cls-20" d="M1281.24,1217.45c-32.49,2.16-89.62-3.2-91.79-9.2-7.5-20.78-2.21-27.24-8.46-59l15.67-44.14s-2.59,49.15,11.91,62.08,59.34,24.95,66.39,35.75C1278.36,1208.08,1280.59,1213.28,1281.24,1217.45Z"/>
            <path class="cls-7" d="M1244,1196.78s32.06-7.14,37.23-4.29,17.82,13.2,19.4,16.81-11.52-2.74-15.78-3.88c-2.76-.74-10,1.78-13.62,3-15.13,5-24.4,2.45-24.4,2.45Z"/>
            <path class="cls-14" d="M1222.54,1017.08s-43,2.65-58,23.44c-21,29.25-62.59,153.94-38.74,170.57,26.86,18.73,122.23,4.9,122.23,4.9s3.18-14.83-1.24-22-76.18-18.77-79.49-22.08,41.4-64.59,41.4-74.53S1222.54,1017.08,1222.54,1017.08Z"/>
            <path class="cls-7" d="M1282.79,1201.41s6.72,8.66,8.92,9.7a6.6,6.6,0,0,0,3.63.77l-4.53-8.14Z"/>
            <path class="cls-7" d="M1281.24,1192.49l19.53,9.48a3.47,3.47,0,0,1-3.23,1.25c-2.41-.11-8.47-2.33-8.47-2.33Z"/>
          </g>
          <g>
            <g>
              <polygon class="cls-6" points="1291.71 1224.38 1446.2 1224.38 1492.68 1108.81 1338.42 1108.81 1291.71 1224.38"/>
              <polygon class="cls-9" points="1448.02 1219.88 1244.01 1219.88 1244.01 1224.38 1446.2 1224.38 1448.02 1219.88"/>
            </g>
            <path class="cls-17" d="M1407.21,1166.6c1.16-4.07-1.19-7.36-5.25-7.36a10.55,10.55,0,0,0-9.47,7.36c-1.16,4.06,1.19,7.35,5.25,7.35A10.55,10.55,0,0,0,1407.21,1166.6Z"/>
          </g>
        </g>
      </g>
      <g>
        <path class="cls-4" d="M1781.23,1591.11h.45a5,5,0,0,0,4.72-5.32l-7.15-341.88-21.06-2.71,18,344.61A5.33,5.33,0,0,0,1781.23,1591.11Z"/>
        <path class="cls-4" d="M1249.13,1591.11h-.45a5,5,0,0,1-4.71-5.32l7.14-341.88,21.06-2.71-18,344.61A5.34,5.34,0,0,1,1249.13,1591.11Z"/>
        <rect class="cls-4" x="1213.94" y="1224.38" width="610.39" height="24.46" rx="8.52"/>
      </g>
    </g>
    <rect class="cls-16" x="194.02" y="1584.5" width="2811.96" height="10.46" rx="3.77"/>
    <g>
      <polygon class="cls-27" points="2244.09 283.79 2359.92 302.13 2283.69 248.44 2279.52 265.22 2251.21 269.9 2244.09 283.79"/>
      <polygon class="cls-17" points="2359.92 302.13 2264.08 250.84 2169.47 244.64 2359.92 302.13"/>
      <polygon class="cls-17" points="2283.69 248.44 2359.92 302.13 2301.54 219.15 2283.69 248.44"/>
    </g>
    <g>
      <polygon class="cls-27" points="1133.2 397.62 982.39 440.97 1074.82 357.17 1083.11 378.76 1121.47 380.33 1133.2 397.62"/>
      <polygon class="cls-1" points="982.39 440.97 1101.25 357.14 1225.86 333.38 982.39 440.97"/>
      <polygon class="cls-1" points="1074.82 357.17 982.39 440.97 1046.31 321.21 1074.82 357.17"/>
    </g>
  </g>
</svg>
