<svg id="Слой_2" data-name="Слой 2" xmlns="http://www.w3.org/2000/svg" width="4000" height="1575.11" viewBox="0 0 4000 1575.11">
  <defs>
    <style>
      .cls-1 {
        fill: #eaf1f8;
      }

      .cls-2 {
        fill: #acd29a;
      }

      .cls-3 {
        fill: #4a75cb;
      }

      .cls-4 {
        fill: #699ff0;
      }

      .cls-5 {
        fill: #ebf2f9;
      }

      .cls-6 {
        fill: #adcbf9;
      }

      .cls-7 {
        fill: #f1a34f;
      }

      .cls-28, .cls-29, .cls-8 {
        fill: #d86713;
      }

      .cls-9 {
        fill: #ee9849;
      }

      .cls-10 {
        fill: #fff;
      }

      .cls-11 {
        fill: #c95c12;
      }

      .cls-12 {
        fill: #163560;
      }

      .cls-13 {
        fill: #b77446;
      }

      .cls-14 {
        fill: #365da4;
      }

      .cls-15 {
        fill: #285493;
      }

      .cls-16 {
        fill: #d9935c;
      }

      .cls-17 {
        fill: #80bdcc;
      }

      .cls-18 {
        fill: #5f9aa8;
      }

      .cls-19 {
        fill: #a86337;
      }

      .cls-20 {
        fill: #ca5f00;
      }

      .cls-21 {
        fill: #e69d43;
      }

      .cls-22 {
        fill: #cc7c46;
      }

      .cls-23 {
        fill: #b84c42;
      }

      .cls-24 {
        fill: #b74b42;
      }

      .cls-25 {
        fill: #e58638;
      }

      .cls-26 {
        fill: #a6c7f9;
      }

      .cls-27 {
        fill: #a6d9f1;
      }

      .cls-28 {
        opacity: 0.4;
      }

      .cls-29 {
        opacity: 0.2;
      }

      .cls-30 {
        fill: #3b76ca;
      }

      .cls-31 {
        fill: #466aa5;
      }

      .cls-32 {
        fill: #699dee;
      }

      .cls-33 {
        fill: #e49963;
      }

      .cls-34 {
        fill: #d38957;
      }

      .cls-35 {
        fill: #2f5791;
      }

      .cls-36 {
        fill: #c65447;
      }

      .cls-37 {
        fill: #ffb27d;
      }

      .cls-38 {
        fill: #e58d5c;
      }

      .cls-39 {
        fill: #cc620a;
      }

      .cls-40 {
        fill: #d68d5d;
      }

      .cls-41 {
        fill: #992b25;
      }

      .cls-42 {
        fill: #739af0;
      }

      .cls-43 {
        fill: #373480;
      }

      .cls-44 {
        fill: #575b9f;
      }

      .cls-45 {
        fill: #e2e7f2;
      }

      .cls-46 {
        fill: #ced4ea;
      }

      .cls-47 {
        fill: #bcc5dd;
      }

      .cls-48 {
        fill: #1c468a;
      }

      .cls-49 {
        fill: #283250;
      }
    </style>
  </defs>
  <g>
    <path class="cls-1" d="M286.45,1459.48S92.81,845,409.41,637.27c305.33-200.3,605.19-24.61,715-260.51,70.8-152.16,485.79-294.49,702.62,14.92s403.22,307.84,552.83,250.61c171.57-65.64,260.64-288.17,529.2-246.4,310.4,48.29,290.68,333.06,483.88,315,351.31-32.82,648.45,427.56,252.65,752.43Z"/>
    <g>
      <path class="cls-2" d="M1550.32,1458.21s-65.22-183,189-182.25c309.75.92,118.83-151.32,331.8-227.6,177.69-63.65,363.8,108.69,363.8,108.69s206.91-562.15,479.26-402.39-92.12,462.6-92.12,462.6,183.51,114.3,197.89,244.34Z"/>
      <path class="cls-2" d="M2921.77,1416.49s193.54-5,178.68-62.65S2921.77,1416.49,2921.77,1416.49Z"/>
      <path class="cls-2" d="M2948.88,1381.49s121.84-63.23,94.47-95.38S2948.88,1381.49,2948.88,1381.49Z"/>
      <path class="cls-2" d="M1866.87,1344.44s-56-313.77-152.24-325.83S1683.47,1150.91,1866.87,1344.44Z"/>
      <path class="cls-2" d="M1798.59,1310.82s-106.07-165.65-163.81-149.76S1648.29,1243.84,1798.59,1310.82Z"/>
    </g>
    <g>
      <g>
        <rect class="cls-3" x="2299.71" y="119.12" width="706.13" height="1339.85" rx="36.13"/>
        <rect class="cls-4" x="2231.27" y="119.12" width="706.13" height="1339.85" rx="36.13"/>
        <rect class="cls-5" x="2258.01" y="226.24" width="654.13" height="1085.7"/>
        <g>
          <path class="cls-3" d="M2664.41,169.83H2480.85a7.15,7.15,0,0,0,0,14.29h183.56a7.15,7.15,0,0,0,0-14.29Z"/>
          <path class="cls-3" d="M2697,169.83h0a7.15,7.15,0,1,0,0,14.29h0a7.15,7.15,0,0,0,0-14.29Z"/>
        </g>
        <path class="cls-3" d="M2569.8,1357.85a36.58,36.58,0,1,0,36.58,36.58A36.58,36.58,0,0,0,2569.8,1357.85Z"/>
      </g>
      <rect class="cls-6" x="2255.42" y="929.55" width="656.72" height="394.28"/>
      <g>
        <path class="cls-4" d="M2561.17,1253.18c-72.06,0-130.69-58.62-130.69-130.68a130.69,130.69,0,0,1,261.38,0C2691.86,1194.56,2633.23,1253.18,2561.17,1253.18Zm0-244.31a113.63,113.63,0,1,0,113.62,113.63A113.75,113.75,0,0,0,2561.17,1008.87Z"/>
        <path class="cls-7" d="M2473,1103.08s57.27,66.32,91.31,96.54c0,0,65.85-135.46,144.89-230.21,0,0-91.49,67.81-168.26,153.47C2541,1122.88,2519.61,1119.83,2473,1103.08Z"/>
      </g>
      <g>
        <polygon class="cls-8" points="2469.36 426 2776.37 426 2815.66 720.07 2559.99 720.07 2469.36 426"/>
        <g>
          <path class="cls-8" d="M2669.7,458.19h-.07a4.57,4.57,0,0,1-4.5-4.64c1-64.51-9.08-107.47-29.93-127.69-10.42-10.11-23.32-14.65-39.43-13.91-61,2.81-65.67,140.41-65.71,141.8a4.57,4.57,0,1,1-9.14-.26c.17-6,5-147.47,74.43-150.67,18.52-.86,34.05,4.69,46.21,16.48,23.06,22.35,33.75,66.31,32.71,134.39A4.57,4.57,0,0,1,2669.7,458.19Z"/>
          <polygon class="cls-9" points="2712.09 426 2427.67 426 2367.64 720.07 2680.2 720.07 2712.09 426"/>
          <path class="cls-10" d="M2553.46,532.43a48,48,0,0,1-15.81,22.72q-11.49,9.38-24.87,9.38-13.19,0-18.77-9.38t-1.24-22.72a49.43,49.43,0,0,1,16.1-23.3q11.64-9.57,25.22-9.57t18.9,9.86Q2557.93,518.71,2553.46,532.43ZM2518,548.63a17.59,17.59,0,0,0,12.1-5,26.35,26.35,0,0,0,7-11.37q2.21-6.75.4-11.38c-1.28-3.6-4.13-5.4-8.52-5.4a17,17,0,0,0-12.16,5.21,26.88,26.88,0,0,0-7.06,11.57q-2.07,6.36,0,11.37T2518,548.63Zm91.11-42.87q-.95,2.91-4.86,7.75l-53.94,66.1q-4.37,5.61-13.48,16.84-11.16,13.6-33.33,41-6.47,7.95-13.06,7.95A6.19,6.19,0,0,1,2485,643q-1.74-2.41-.54-6.11.95-2.91,5.81-8.92l98.85-121.59q6.78-8.34,12.79-8.34Q2611.59,498,2609.06,505.76ZM2600,611.85a47.92,47.92,0,0,1-16,22.88q-11.57,9.32-24.94,9.31-13,0-18.53-9.5t-1.26-22.69a50.08,50.08,0,0,1,16-23.47q11.43-9.5,25.2-9.5,14,0,19.05,9.4T2600,611.85Zm-16.49-.58q2.2-6.79.42-11.45-2.25-5-8.83-5t-12,5.43a27.47,27.47,0,0,0-7,11.44q-2.09,6.4-.1,11.06,2.17,5.24,8.38,5.23,6.58,0,12.18-5.23A26.73,26.73,0,0,0,2583.51,611.27Z"/>
          <path class="cls-8" d="M2640.11,458.19H2640a4.57,4.57,0,0,1-4.49-4.64c1-64.51-9.08-107.47-29.93-127.69-10.42-10.11-23.32-14.65-39.43-13.91-61,2.81-65.67,140.41-65.71,141.8a4.57,4.57,0,1,1-9.14-.26c.17-6,5-147.47,74.43-150.67,18.52-.86,34,4.69,46.21,16.48,23.05,22.35,33.75,66.31,32.7,134.39A4.56,4.56,0,0,1,2640.11,458.19Z"/>
        </g>
        <polygon class="cls-11" points="2744.97 437.18 2719.49 719.96 2790.18 719.96 2744.97 437.18"/>
      </g>
      <g>
        <path class="cls-6" d="M2356.36,804.92l183.66-.4a7,7,0,1,0,0-14.06l-183.66.4a7.05,7.05,0,0,0-7,7h0A7.05,7.05,0,0,0,2356.36,804.92Z"/>
        <path class="cls-6" d="M2330.71,805h.51a7,7,0,1,0,0-14.06h-.5a7,7,0,0,0,0,14.06Z"/>
        <path class="cls-6" d="M2356.41,829.74l183.67-.4a7,7,0,0,0,0-14.06l-183.67.4a7.05,7.05,0,0,0-7,7.05h0A7.05,7.05,0,0,0,2356.41,829.74Z"/>
        <path class="cls-6" d="M2330.77,829.8h.5a7,7,0,1,0,0-14.07h-.5a7,7,0,1,0,0,14.06Z"/>
        <path class="cls-6" d="M2540.1,840.1l-183.66.4a7,7,0,1,0,0,14.06l183.66-.4a7,7,0,1,0,0-14.06Z"/>
        <path class="cls-6" d="M2331.29,840.55h-.5a7.06,7.06,0,0,0-7,7.05h0a7.05,7.05,0,0,0,7.05,7h.5a7,7,0,1,0,0-14.07Z"/>
      </g>
    </g>
    <g>
      <path class="cls-12" d="M1293.87,585.36s-62.29-27.17-72.67,36.64c-5,30.75,22,61.68,15.26,77.56s-32.36,50.07-15.87,66c0,0-1.22-15.26,8.55-26.87,0,0-13.11,42.23,14.2,47.68s72.51-19,69.46-61.72S1293.87,585.36,1293.87,585.36Z"/>
      <path class="cls-12" d="M1338.45,595.13s-13.44-18.32-48.86-12.21-24.46,79.28,5.79,91.85Z"/>
      <path class="cls-13" d="M1485,1450.1c-.75,2.27-5,6.8-16,8.86H1440.9c-6-1-7.65-2.27-17.54-1-15.09,1.86-28.39,1.86-29.16-7.57a37.09,37.09,0,0,1,.93-9.81c1.13-5.91,5.93-10.42,5-17.17-2-15-21.21-60.9-21.21-60.9l33-6.17s8.38,53.51,17.55,65.26a55.48,55.48,0,0,0,31.08,20.12c1.38.34,2.75.67,4.13,1C1475.68,1445.23,1485.88,1447.41,1485,1450.1Z"/>
      <path class="cls-14" d="M1485,1450.1c-.75,2.27-5,6.8-16,8.86H1440.9c-6-1-7.65-2.27-17.54-1-15.09,1.86-28.39,1.86-29.16-7.57a37.09,37.09,0,0,1,.93-9.81c9.8,1,24.32,6.81,38.53,8.12a59.24,59.24,0,0,0,31-5.79l.13-.2C1475.68,1445.23,1485.88,1447.41,1485,1450.1Z"/>
      <path class="cls-14" d="M1423.75,1394.83s-8.66,5.73-16.8,7.21c-12.2,2.21-17.87-.25-17.87-.25s-58.7-147.4-55.35-197.21c.08-1.2.12-2.47.14-3.81.09-8.64-1.15-20.16-3.29-33.42-.8-4.86-1.71-9.95-2.72-15.22-2.35-12.28-5.27-25.52-8.47-39-1.41-5.95-2.88-11.95-4.37-17.94-14.76-58.94-32.79-117-32.79-117s105.93-34.61,111.93-2.27c2.3,12.42,9.95,62.08,6.51,138-2.78,61.14-1,108.82,4.29,164.16A906.13,906.13,0,0,0,1423.75,1394.83Z"/>
      <path class="cls-15" d="M1333.87,1200.77c.09-8.64-1.15-20.16-3.29-33.42-.8-4.86-1.71-9.95-2.72-15.22-2.35-12.28-5.27-25.52-8.47-39-1.41-5.95-2.88-11.95-4.37-17.94,2.09-18,3.78-30.32,3.78-30.32S1362.78,1124.58,1333.87,1200.77Z"/>
      <path class="cls-13" d="M1351.34,1450.1c-.75,2.27-5,6.8-16,8.86h-28.07c-6-1-7.65-2.27-17.54-1-15.08,1.86-28.39,1.86-29.15-7.57a36.67,36.67,0,0,1,.92-9.81c1.13-5.91,5-10.36,5-17.17,0-20.22-4.68-57-4.68-57l31.07,11.1s-7,36.52,3,44c10.57,8,18.78,17.09,31.08,20.12l4.13,1C1342,1445.23,1352.23,1447.41,1351.34,1450.1Z"/>
      <path class="cls-14" d="M1351.34,1450.1c-.75,2.27-5,6.8-16,8.86h-28.07c-6-1-7.65-2.27-17.54-1-15.08,1.86-28.39,1.86-29.15-7.57a36.67,36.67,0,0,1,.92-9.81c9.8,1,24.33,6.81,38.53,8.12a59.24,59.24,0,0,0,31-5.79l.13-.2C1342,1445.23,1352.23,1447.41,1351.34,1450.1Z"/>
      <path class="cls-14" d="M1346,966.61s-34.47,171.78-40.29,265.27-13.09,170.9-13.09,170.9a45.64,45.64,0,0,1-16.15,2.22,59.45,59.45,0,0,1-16.34-3.33s-34.16-140.67-22.84-197,1.89-108.24-3.54-154.94c-7.79-67,22.17-98.09,43.09-119.31C1298.05,909,1346,966.61,1346,966.61Z"/>
      <path class="cls-16" d="M1353.57,741.8l-16.51,24.76-33.27-1.63-15.36-39.73s4.74-.89,7-50.43l41.52,12.67a80.86,80.86,0,0,0,.73,27C1339.68,724.22,1344.17,734.69,1353.57,741.8Z"/>
      <path class="cls-16" d="M1358.2,724.32c-2.14,0-41.25-13.08-97.1,9.66,0,0,26.51,151.7,15.12,180.65a305.33,305.33,0,0,0-15.71,54.65l123.55,1.53s-1.73-99.37,4-134.54S1358.2,724.32,1358.2,724.32Z"/>
      <path class="cls-17" d="M1563.41,826.39c-.37-4.32-1.73-5.3-1.73-5.3-39.5,5.8-65.68,5.47-78.51,8-10.07,2-14.19,2.24-15.93-.2C1412.67,752.12,1374.05,728,1374.05,728s-4.12-2.45-20.23-4.67c0,0-2.32,29.18-17.31,31.66-25.94,4.27-46.84-19.48-52.94-29,0,0-29.78,7.52-38.52,17.49-6.28,7.16-5.46,24.29-3.6,35.06a48.18,48.18,0,0,0,1.89,7.81c1.85,4.88,8.82,40.65,12,54.89.08.36.15.7.22,1,.22.95.41,1.79.59,2.48a.13.13,0,0,1,0,.06c.19.76.34,1.36.47,1.74l.22.7,0,0c4.59,14.65,7.36,29.57,5.73,47.88a51.73,51.73,0,0,1-1.42,7.68c-4.15,21.27-21.39,63.21-25,82.47,2.06,4.35,6.73,7.79,12.42,10.53,7.42,3.58,16.54,6,23.81,7.64a231.88,231.88,0,0,0,24.24,3.86c5.29.59,11,1.09,16.73,1.43l2.43.13c37.22,1.85,78.9.93,84.33-16.76,2.6-8.5-7.77-59.55-9.16-74.72-2.41-26.65,1.53-63.14,3.31-91.39,30.54,33.66,62.07,45.77,62.07,45.77a152.47,152.47,0,0,0,25.33-3.8c9.77-2.18,20-5.08,29.78-8.19a492.45,492.45,0,0,0,53.68-21S1564.23,835.93,1563.41,826.39Z"/>
      <path class="cls-18" d="M1342.26,951.82c-7,23.91-11.14,43.6-28.85,56.91-5.77-.34-11.44-.84-16.73-1.43a231.88,231.88,0,0,1-24.24-3.86c-7.27-1.67-16.39-4.06-23.81-7.64-5.69-2.74-10.36-6.18-12.42-10.53,3.58-19.26,20.82-61.2,25-82.47a49.94,49.94,0,0,0,.82-5.58c1.54-19.06-.93-34.71-5.13-50l0,0-.69-2.44a.13.13,0,0,0,0-.06c-.15-.52-.35-1.37-.59-2.48-.07-.31-.14-.65-.22-1-2.84-13.49-10.27-55.84-12.17-61.36a56.84,56.84,0,0,1-1.85-8.43l14.87-14.32s85.36,36.45,104.16,86.72S1352.39,917.51,1342.26,951.82Z"/>
      <path class="cls-18" d="M1511.5,859.77c-18.89,6-39.45,11.24-55.11,12,0,0-31.34-11.6-62.07-45.77-1.3-5.81-3.16-16.22,3.88-13.41,9.86,3.95,46.36,50.8,60.17,51.78C1468.25,865.07,1496.35,861.73,1511.5,859.77Z"/>
      <path class="cls-17" d="M1444.09,846.43s-42.07,21.13-78.55,29.87c-10.49,2.52-20.61,4.3-29.23,4.71,0,0-39.5-11.87-69.17-54-54.81-77.84-13.18-89.74-13.18-89.74s38.63,24.1,93.19,100.83c1.91,2.69,6.71,2.08,19.12-.43,13.25-2.67,39.64-2.36,76.07-7.7,0,0,.61,1.35,1,5.67C1444.14,845.18,1444.09,846.43,1444.09,846.43Z"/>
      <path class="cls-19" d="M1565.18,838.75a492.45,492.45,0,0,1-53.68,21c-9.78,3.11-20,6-29.78,8.19-3.92-17.44-1.21-31,1.45-38.9,12.83-2.5,40.24-2.66,79.75-8.46Z"/>
      <path class="cls-19" d="M1553.05,823.05a82.69,82.69,0,0,0,18.32-6.1c8.33-4.17,30.53-6.94,35.25-2.5s-5,22.48-25.26,23-26.09,3.88-26.09,3.88Z"/>
      <g>
        <path class="cls-20" d="M1589.08,761.59l-113,22a11.48,11.48,0,0,0-9,10.74v78.07c0,4.94,4,8.2,9,7.24l113-22a11.49,11.49,0,0,0,9-10.74V768.84C1598.07,763.89,1594,760.63,1589.08,761.59Z"/>
        <path class="cls-21" d="M1593.58,761.59l-113,22a11.48,11.48,0,0,0-9,10.74v78.07c0,4.94,4,8.2,9,7.24l113-22a11.49,11.49,0,0,0,9-10.74V768.84C1602.57,763.89,1598.52,760.63,1593.58,761.59Z"/>
        <path class="cls-20" d="M1482.49,789.65a4.69,4.69,0,0,0-3.69,4.41,3,3,0,0,0,3.69,3,4.69,4.69,0,0,0,3.69-4.41A3,3,0,0,0,1482.49,789.65Z"/>
      </g>
      <path class="cls-13" d="M1495.08,820.46c-5-4.74-28.74-1.78-37.63,2.67a81.47,81.47,0,0,1-14.92,5.42v-.06c-36.42,5.35-63,6.51-76.25,9.18a42.92,42.92,0,0,1-.73,38.63c34.84-8.35,75.67-27,79.26-28.64,4.09-1,11.34-2.28,23.32-2.61C1489.75,844.46,1500.12,825.2,1495.08,820.46Z"/>
      <path class="cls-22" d="M1337.63,714.41c-17.16-1.38-42.25-39.64-42.25-39.64l41.52,12.67A80.86,80.86,0,0,0,1337.63,714.41Z"/>
      <path class="cls-16" d="M1347.77,690.25s-49.72,10-55.46-21.07-16-50.69,15.48-58.38,39.88,3,44.31,12.92S1360.56,686.85,1347.77,690.25Z"/>
      <path class="cls-12" d="M1323.48,603.05s.87,10.53-15.49,28.41-7.06,46-7.06,46-33-48-18.24-64.56S1323.48,603.05,1323.48,603.05Z"/>
      <path class="cls-12" d="M1303.48,589.34s24.72-8.27,49.25,15.9c10.57,10.41,9,30.88,3.31,42.76,0,0-8.69-25.45-24.51-31S1303.48,589.34,1303.48,589.34Z"/>
      <path class="cls-10" d="M1332.28,675s1.33,3.68,10.69,2c0,0,7.86-1.4,7.14-5.54C1350.11,671.44,1342.09,669.36,1332.28,675Z"/>
    </g>
    <g>
      <path class="cls-16" d="M1794.43,800.79l-7.49,12.14c-3.9,4.48-4.94,7-8,8.49-7.45,3.67-21.19,13.07-22.23,32.81,0,0,.23,11.18,7.73,7.56s4.22-3.29,14.87-8.17,14.6-20.4,15.53-25.69l8.69-11.41Z"/>
      <g>
        <path class="cls-16" d="M2269,622.92s7.95-19.48,16.69-20.27,36.57-5.17,38.55-1.19,0,18.28-6,23.44-42.92,13.52-42.92,13.52Z"/>
        <path class="cls-16" d="M2134.84,1446.65c-1,3-6.63,9.17-21.43,12h-38.7c-5.11-.94-8-1.9-15-1.44l-.8.06-1,.09c-1.33.12-2.82.3-4.47.51-2.2.3-4.38.56-6.5.78l-2.84.27h-16c-.58-.08-1.14-.17-1.69-.27a22.57,22.57,0,0,1-4.94-1.45l-.06,0c-3.84-1.68-6.27-4.5-6.68-8.88s.33-8.74,1.08-13c.09-.51.2-1,.31-1.53,1.55-7.27,5.56-9.65,6.3-18,1.36-15.71-11.64-70.24-11.64-70.24h49.54s-1.34,49.36,4.33,66c5.34,15.69,21.51,20.52,37.83,24.35l5.49,1.25,2,.44C2123.67,1440.61,2135.92,1443.25,2134.84,1446.65Z"/>
        <path class="cls-17" d="M1957.09,914.83c4.18,23.47,10.15,47.73,15.33,72.95,8.32,40.57,14.6,83.66,8.17,130.06a162.72,162.72,0,0,0-1.36,19.65c-1.25,82,35.39,230.64,35.39,230.64s10,4.3,26.64,3.47c8.58-.42,21.76-6,21.76-6s3.47-92.15,3.68-216.08c.15-89.83,17.79-208.1,21.35-277.61,2.16-42.06-2.52-98.09-2.52-98.09s-73.05-58.74-99.29-28.69C1960.32,774.87,1941.44,827,1957.09,914.83Z"/>
        <path class="cls-18" d="M1980.59,1117.84a162.72,162.72,0,0,0-1.36,19.65c54.7-79.26,66.8-252.09,66.8-252.09l-60.09,29.16s-6.59,32.41-13.52,73.22C1980.74,1028.35,1987,1071.44,1980.59,1117.84Z"/>
        <path class="cls-16" d="M1976.8,1447.28c-.91,2.83-5.87,8.35-18.52,11.41h-44.84a39,39,0,0,0-11.74-.81l-.8.06-1,.08c-1.33.12-2.82.3-4.47.52-.39,0-31.23-.36-32-.67l-.06,0c-3.85-1.69-6.27-4.5-6.68-8.88s.33-8.74,1.08-13c.09-.51.19-1,.31-1.53,1.54-7.27,5.8-11.89,6.55-20.28,1.36-15.71-1.49-71.08-1.49-71.08l45.9,3.82s-8.11,48.6-2.44,65.24c5.35,15.69,21.52,20.52,37.84,24.35,1.83.41,3.66.84,5.48,1.24l2,.45C1965.62,1441.23,1977.87,1443.87,1976.8,1447.28Z"/>
        <path class="cls-17" d="M1863.17,1372.33s11.8,5.58,20.29,7.28,26.14-1.62,26.14-1.62c3.19-35.69,10.58-91.49,25-154.46,16.37-71.69,40.72-156.41,74.67-236.64,7.25-17.13,37.16-98.23,42.23-118.7,15.35-61.84-.06-55.18-.06-55.18l-134.12-15.73s-16.53,8.49-24.14,95.81c-2.27,26.15-2.55,139.07-6,160.47-3.25,20.28-7.05,37.13-11.51,48.08C1850.71,1162.8,1863.17,1372.33,1863.17,1372.33Z"/>
        <path class="cls-23" d="M1976.8,1447.42c-.91,2.87-5.87,8.45-18.52,11.54h-44.84a39,39,0,0,0-11.74-.82l-.8.06-1,.09c-1.36.1-2.85.25-4.5.44l-2,.23h-27.06a22.68,22.68,0,0,1-2.85-.83l-.06,0c-3.85-1.71-6.27-4.55-6.68-9s.33-8.83,1.08-13.13c.09-.52.19-1,.31-1.55,13.51,1.9,32.74,9.53,51.58,11.36a81.9,81.9,0,0,0,42.26-7.58C1965.62,1441.31,1977.87,1444,1976.8,1447.42Z"/>
        <path class="cls-23" d="M2134.84,1446.81c-1,3.08-6.63,9.28-21.43,12.19h-38.7c-5.11-1-8-1.93-15-1.46l-.8.06-1,.09c-1.36.1-2.84.24-4.5.45-2.86.34-5.67.63-8.4.86a86.22,86.22,0,0,1-17,0,30.85,30.85,0,0,1-6.49-1.47l-.06,0c-3.84-1.7-6.27-4.56-6.68-9s.33-8.85,1.08-13.15c.09-.51.2-1,.31-1.55,13.51,1.91,32.74,9.55,51.58,11.37a81.68,81.68,0,0,0,42.26-7.58C2123.67,1440.7,2135.92,1443.37,2134.84,1446.81Z"/>
        <path class="cls-24" d="M2068.39,395.67c4.54-37-7-96.21-80.86-86.75s-97.12,82-82.23,114.3-21.44,40-32.84,74.76c-9.8,29.81-13.22,66.82-29.07,83.43C1792.27,635,1892.47,717.32,1952.87,700c110-31.63,124.2-36.35,120.29-122.8-2-44.29-36.46-61.45-14.58-74.27C2111.43,471.93,2058.14,479.38,2068.39,395.67Z"/>
        <path class="cls-16" d="M1959.85,492.51l20.35,52.57,43.9,2.14L2046,514.51c-13.83-10.52-19.67-26.29-21.81-40.4a115.17,115.17,0,0,1-.78-27.06c.29-2.83.59-4.48.59-4.48l-54.72-16.65-.19-.1c-.68,14.51-1.46,25.9-2.34,34.76C1963.65,491.83,1959.85,492.51,1959.85,492.51Z"/>
        <path class="cls-16" d="M2046.2,490.66c-2.83,0-50.78-9.76-131.77,11,0,0,44.35,203.2,29.29,241.51a404.52,404.52,0,0,0-20.8,72.29l163.46,2s-2.29-131.47,5.25-178S2046.2,490.66,2046.2,490.66Z"/>
        <path class="cls-21" d="M2269.7,613.15s-93.14,35-102.4,35.67c-20.16,1.44-40.68-95.88-59.53-128.32-12.76-22-55.77-29-61.18-29.76l-.39-.08v0l-.16,0,.12.5c-.42,4.45-4.17,37.74-22.68,40.79-34.31,5.67-62-25.76-70-38.41h0s-38.88,1.53-56.9,18.31c-20.39,19-50.74,135-58.92,191.46,0,0-41.15,78.41-54.25,109.52a25,25,0,0,0,7.36,7.46,35.64,35.64,0,0,0,10.76,4.34s74.23-82.85,79.11-96c2.31-6.22,20-34.94,37.39-75.1,6.15,19.51,9.88,39.36,7.71,63.74-2.39,26.9-27.52,88.37-22.09,101.46,5.7,13.75,13.62,20.71,30.94,24.69,11.93,2.75,28.33,4.08,51.55,5.23,49.24,2.45,102-3.74,109.19-27.15,3.45-11.24,2.12-54.71.3-74.78-2.4-26.38-.08-60,2.22-91l.34.51c5.38,8.17,11.47,16.94,17.75,25.05,9.44,12.2,19.29,22.9,27.72,27.77a21.39,21.39,0,0,0,5.86,2.46c6.45,1.53,18.26-2,32.28-8.19,5-2.18,10.22-4.69,15.61-7.41,38.89-19.65,84.88-50.45,84.88-50.45C2285.21,627.69,2269.7,613.15,2269.7,613.15Z"/>
        <path class="cls-25" d="M1903.6,818.78c5.7,13.75,13.62,20.71,30.94,24.69,23.15-4.45,38.41-47.05,46.27-68,9.06-24.16-38.13-148.37-51.16-147.24-9.68.84-11.54,16.69-11.85,24.77,6.26,19.7,10.09,39.7,7.89,64.33C1923.3,744.22,1898.17,805.69,1903.6,818.78Z"/>
        <path class="cls-25" d="M2098.14,656.29c5.38,8.17,11.47,16.94,17.75,25.05,9,11.08,18.93,21.79,27.72,27.77a21.39,21.39,0,0,0,5.86,2.46c6.45,1.53,18.26-2,32.28-8.19a156.13,156.13,0,0,1-24.6-.37c-14.11-1.2-18.21-16.48-40.51-39.39C2103.3,649.93,2099.25,652,2098.14,656.29Z"/>
        <path class="cls-22" d="M1969.29,425.92c8.28,13.53,28.24,41.38,54.91,48.19a115.17,115.17,0,0,1-.78-27.06c.29-2.83.59-4.48.59-4.48Z"/>
        <path class="cls-16" d="M2038.37,446.29S1972.6,459.5,1965,418.41s-21.2-67.06,20.47-77.23,52.76,4,58.63,17.1S2055.28,441.79,2038.37,446.29Z"/>
        <path class="cls-24" d="M2006.23,330.93s1.15,13.93-20.48,37.58S1968.33,440,1968.33,440s-35.51-74.19-16.06-96.07S2006.23,330.93,2006.23,330.93Z"/>
        <path class="cls-24" d="M1979.78,312.79s32.7-10.94,65.15,21c14,13.77,11.86,40.85,4.38,56.56,0,0-11.5-33.67-32.43-41S1979.78,312.79,1979.78,312.79Z"/>
        <path class="cls-10" d="M2017.88,426.07s1.76,4.88,14.14,2.66c0,0,10.4-1.85,9.44-7.33C2041.46,421.4,2030.85,418.66,2017.88,426.07Z"/>
      </g>
    </g>
    <path class="cls-26" d="M1041.25,1272.37H334.5c-9.85,0-17.92,7.76-17.92,17.24h0c0,9.48,8.07,17.24,17.92,17.24h16.28v141a11.23,11.23,0,0,0,11.4,11H429a11.23,11.23,0,0,0,11.4-11v-141h463.7v141a11.29,11.29,0,0,0,11.47,11h66.63a11.29,11.29,0,0,0,11.47-11v-141h47.63c9.85,0,17.91-7.76,17.91-17.24h0C1059.16,1280.13,1051.1,1272.37,1041.25,1272.37Z"/>
    <g>
      <g>
        <rect class="cls-27" x="1351.4" y="147.1" width="338.03" height="307.58" rx="82.63"/>
        <path class="cls-8" d="M1431.9,284.66s-65,32.34-66.19,40.42l135.79.33s32-6.39,38.42-31.67c9.6-38,26.44-35.74,26.44-35.74l-.86,67.56,19.33.05s29-100.54,29-120.37-8.2-25.36-8.2-25.36-50.68,3.73-110.39,95.57C1495.27,275.45,1483.51,286.62,1431.9,284.66Z"/>
        <g>
          <path class="cls-7" d="M1483.51,345.44s-58,43.66-57.7,51.82l133.57-24.47s30.32-12.12,32-38.15c2.51-39.1,19.47-40,19.47-40l11.5,66.58,19-3.48s10.14-104.14,6.57-123.65-12.7-23.43-12.7-23.43-49.15,12.93-91.08,114.12C1544.13,324.81,1534.61,337.94,1483.51,345.44Z"/>
          <path class="cls-5" d="M1462,334.89s5.46,20.26-5.77,27.15a58.17,58.17,0,0,1-20.26,7.87s32.59-1.58,40,26.87c0,0-9.92-30.19,19.54-36.9C1495.49,359.88,1474.64,368.09,1462,334.89Z"/>
        </g>
      </g>
      <g>
        <path class="cls-27" d="M1504.68,606.57a5.19,5.19,0,1,0,6.81,2.75A5.19,5.19,0,0,0,1504.68,606.57Z"/>
        <path class="cls-27" d="M1542.15,563.65a9.83,9.83,0,1,0,12.9,5.21A9.83,9.83,0,0,0,1542.15,563.65Z"/>
        <path class="cls-27" d="M1585.53,500.92a15.61,15.61,0,1,0-8.27,20.48A15.61,15.61,0,0,0,1585.53,500.92Z"/>
      </g>
    </g>
    <g>
      <g>
        <rect class="cls-9" x="512.12" y="628.02" width="207.86" height="189.13" rx="50.81"/>
        <g>
          <path class="cls-25" d="M601.92,687a28.55,28.55,0,0,1-7.14,19.56q-7.14,8.1-18.47,8.09a23.79,23.79,0,0,1-18.47-8.09A28.13,28.13,0,0,1,550.53,687,29.42,29.42,0,0,1,557.76,667a23.71,23.71,0,0,1,18.71-8.25,23.42,23.42,0,0,1,18.72,8.5Q601.92,675.2,601.92,687Zm-25.61,14a10.53,10.53,0,0,0,8.86-4.33,16.14,16.14,0,0,0,2.79-9.78,16.69,16.69,0,0,0-2.79-9.81,9.91,9.91,0,0,0-8.7-4.64,10.18,10.18,0,0,0-8.87,4.48q-2.77,3.81-2.78,10a16.18,16.18,0,0,0,3.12,9.78A9.79,9.79,0,0,0,576.31,701Zm65.33-36.92a16.68,16.68,0,0,1-2,6.67l-27.5,56.93q-2.14,4.83-6.77,14.51-5.7,11.72-16.94,35.31-3.29,6.85-8.86,6.86a7.27,7.27,0,0,1-5.26-2.1,7,7,0,0,1-2.13-5.26q0-2.51,2.46-7.68L624.9,664.55q3.45-7.18,8.54-7.18Q641.63,657.37,641.64,664.05Zm21.51,91.37q0,11.69-7.22,19.72a23.85,23.85,0,0,1-18.55,8,23.49,23.49,0,0,1-18.3-8.2,28.28,28.28,0,0,1-7.31-19.54q0-12,7.06-20.21T637.54,727q11.82,0,18.72,8.1T663.15,755.42Zm-14.12-.5a16.73,16.73,0,0,0-2.79-9.85,10.52,10.52,0,0,0-8.86-4.35,9.87,9.87,0,0,0-8.7,4.69,16.7,16.7,0,0,0-2.79,9.84,15.63,15.63,0,0,0,3,9.53,10.15,10.15,0,0,0,8.54,4.51,10.41,10.41,0,0,0,8.86-4.51A16.3,16.3,0,0,0,649,754.92Z"/>
          <g>
            <path class="cls-10" d="M666,735.13q-6.9-8.1-18.72-8.1-11.65,0-18.71,8.18t-7.06,20.21A28.28,28.28,0,0,0,628.83,775a23.49,23.49,0,0,0,18.3,8.2,23.85,23.85,0,0,0,18.55-8q7.23-8,7.22-19.72Q672.9,743.24,666,735.13Zm-10,29.65a10.41,10.41,0,0,1-8.86,4.51,10.15,10.15,0,0,1-8.54-4.51,15.63,15.63,0,0,1-3-9.53,16.7,16.7,0,0,1,2.79-9.84,9.87,9.87,0,0,1,8.7-4.69,10.52,10.52,0,0,1,8.86,4.35,16.73,16.73,0,0,1,2.79,9.85A16.3,16.3,0,0,1,656,764.78Z"/>
            <path class="cls-10" d="M604.53,706.58A28.55,28.55,0,0,0,611.67,687q0-11.84-6.73-19.82a23.42,23.42,0,0,0-18.72-8.5A23.71,23.71,0,0,0,567.51,667,29.42,29.42,0,0,0,560.28,687a28.13,28.13,0,0,0,7.31,19.56,23.79,23.79,0,0,0,18.47,8.09Q597.39,714.67,604.53,706.58Zm-26.84-9.94a16.18,16.18,0,0,1-3.12-9.78q0-6.17,2.78-10a10.18,10.18,0,0,1,8.87-4.48,9.91,9.91,0,0,1,8.7,4.64,16.69,16.69,0,0,1,2.79,9.81,16.14,16.14,0,0,1-2.79,9.78,10.53,10.53,0,0,1-8.86,4.33A9.79,9.79,0,0,1,577.69,696.64Z"/>
            <path class="cls-10" d="M649.42,670.72a16.68,16.68,0,0,0,2-6.67q0-6.67-8.2-6.68-5.09,0-8.54,7.18L584.42,769.29Q582,774.47,582,777a7,7,0,0,0,2.13,5.26,7.27,7.27,0,0,0,5.26,2.1q5.56,0,8.86-6.86,11.24-23.58,16.94-35.31,4.62-9.67,6.77-14.51Z"/>
          </g>
        </g>
      </g>
      <g>
        <path class="cls-9" d="M606.38,911.14a3.19,3.19,0,1,0,4.18,1.69A3.19,3.19,0,0,0,606.38,911.14Z"/>
        <path class="cls-9" d="M629.41,884.75a6,6,0,1,0,7.94,3.2A6.05,6.05,0,0,0,629.41,884.75Z"/>
        <path class="cls-9" d="M656.09,846.18A9.6,9.6,0,1,0,651,858.77,9.61,9.61,0,0,0,656.09,846.18Z"/>
      </g>
    </g>
    <g>
      <rect class="cls-27" x="3298.99" y="556.48" width="339.04" height="308.5" rx="82.88"/>
      <g>
        <path class="cls-27" d="M3452.73,1018.29a5.2,5.2,0,1,0,6.83,2.75A5.2,5.2,0,0,0,3452.73,1018.29Z"/>
        <path class="cls-27" d="M3490.31,975.23a9.87,9.87,0,1,0,12.94,5.23A9.87,9.87,0,0,0,3490.31,975.23Z"/>
        <path class="cls-27" d="M3533.83,912.32a15.66,15.66,0,1,0-8.29,20.54A15.66,15.66,0,0,0,3533.83,912.32Z"/>
      </g>
      <g>
        <path class="cls-21" d="M3593.69,663.88l-228.82-44.22a8.07,8.07,0,0,0-9.43,6.37l-24.28,125.59a8.07,8.07,0,0,0,6.38,9.43l228.82,44.23a8.07,8.07,0,0,0,9.43-6.38l24.28-125.59A8.07,8.07,0,0,0,3593.69,663.88Z"/>
        <rect class="cls-8" x="3458.26" y="552.2" width="28.5" height="249.16" transform="translate(2149.05 3957.76) rotate(-79.06)"/>
        <rect class="cls-28" x="3425.91" y="627.75" width="22.41" height="152.45" transform="translate(2093.71 3945.04) rotate(-79.06)"/>
        <path class="cls-8" d="M3381.32,722.78l-18.59-3.59a6.07,6.07,0,0,0-7.12,4.82l-3.1,16a6.08,6.08,0,0,0,4.81,7.12l18.59,3.59A6.08,6.08,0,0,0,3383,746l3.1-16A6.08,6.08,0,0,0,3381.32,722.78Z"/>
        <g>
          <path class="cls-29" d="M3563,753.69l-147-28.42a2.36,2.36,0,0,0-2.77,1.87l-.43,2.26a2.36,2.36,0,0,0,1.86,2.76l147,28.41a2.36,2.36,0,0,0,2.76-1.86l.43-2.26A2.34,2.34,0,0,0,3563,753.69Z"/>
          <path class="cls-29" d="M3560.53,766.76l-147.09-28.42a2.33,2.33,0,0,0-2.73,1.84l-.41,2.16a2.32,2.32,0,0,0,1.84,2.73l147.09,28.42a2.33,2.33,0,0,0,2.73-1.84l.41-2.16A2.33,2.33,0,0,0,3560.53,766.76Z"/>
          <path class="cls-29" d="M3558.12,778.83l-146.94-28.4a2.42,2.42,0,0,0-2.82,1.91l-.47,2.44a2.41,2.41,0,0,0,1.91,2.82L3556.74,786a2.39,2.39,0,0,0,2.81-1.9l.47-2.44A2.4,2.4,0,0,0,3558.12,778.83Z"/>
        </g>
      </g>
    </g>
    <g>
      <polygon class="cls-30" points="285.26 1314.75 403.26 1314.75 418.36 1461.32 320.1 1461.32 285.26 1314.75"/>
      <g>
        <path class="cls-31" d="M362.26,1330.6h0c-1.07,0-1.93-.49-1.92-1.08.41-17.55-4-28.87-13.08-33.64-3.68-1.93-8-2.77-13.37-2.63-19.34.6-24.68,26.41-25.1,36.31,0,.58-1,1.1-2,1s-1.92-.51-1.89-1.09c.07-1.53,1.92-37.55,28.76-38.37a32,32,0,0,1,16.26,3.21c10,5.27,14.7,16.78,14.28,35.2C364.18,1330.13,363.31,1330.6,362.26,1330.6Z"/>
        <polygon class="cls-32" points="269.24 1314.75 246.17 1461.32 366.3 1461.32 378.56 1314.75 269.24 1314.75"/>
        <path class="cls-31" d="M350.89,1330.6h0c-1.07,0-1.92-.49-1.91-1.08.41-17.55-4-28.87-13.08-33.64-3.68-1.93-8-2.77-13.37-2.63-19.35.6-24.68,26.41-25.1,36.31,0,.58-.82,1.1-2,1s-1.91-.51-1.88-1.09c.07-1.53,1.91-37.55,28.76-38.37a32,32,0,0,1,16.26,3.21c10,5.27,14.7,16.78,14.28,35.2C352.81,1330.13,351.94,1330.6,350.89,1330.6Z"/>
      </g>
    </g>
    <g>
      <polygon class="cls-8" points="685.94 1172.5 790.67 1172.5 804.07 1272.81 716.86 1272.81 685.94 1172.5"/>
      <g>
        <path class="cls-8" d="M754.28,1183.48h0a1.58,1.58,0,0,1-1.54-1.59c.34-22-3.1-36.66-10.21-43.55-3.55-3.45-8-5-13.45-4.75-20.82,1-22.4,47.9-22.41,48.37a1.58,1.58,0,0,1-1.61,1.52,1.56,1.56,0,0,1-1.51-1.61c.06-2,1.7-50.3,25.39-51.4,6.31-.29,11.61,1.61,15.76,5.63,7.87,7.62,11.52,22.62,11.16,45.84A1.56,1.56,0,0,1,754.28,1183.48Z"/>
        <polygon class="cls-21" points="671.72 1172.5 651.24 1272.81 757.86 1272.81 768.74 1172.5 671.72 1172.5"/>
        <path class="cls-8" d="M695,1183.48h0a1.58,1.58,0,0,1-1.52-1.61c.06-2,1.7-50.3,25.39-51.4,6.31-.29,11.62,1.61,15.77,5.63,7.86,7.62,11.51,22.62,11.15,45.84a1.55,1.55,0,0,1-1.55,1.54h0a1.56,1.56,0,0,1-1.53-1.59c.33-22-3.1-36.66-10.21-43.55-3.56-3.45-8-5-13.45-4.75-10.68.49-16.21,13.41-19,24.16a126.05,126.05,0,0,0-3.46,24.21A1.56,1.56,0,0,1,695,1183.48Z"/>
      </g>
      <polygon class="cls-11" points="779.96 1176.31 771.26 1272.77 795.38 1272.77 779.96 1176.31"/>
    </g>
    <g>
      <path class="cls-33" d="M586.88,1134.8s12-7.45,17.16-6.32,19.42,5.19,19.87,11.06-20.32,15.13-35.67,9.93S586.88,1134.8,586.88,1134.8Z"/>
      <path class="cls-34" d="M523.44,1447.11a6.11,6.11,0,0,0,3.5,5.65h0c4.07,2.24,10.57.52,18.35.18,1,0,2.53,1.88,3.33,1.88h1.1c7.7.19,6.89,2.5,21.51,3.75,16.67,1.42,22.81-3.68,23.79-6,.83-2-6.32-4.21-14.32-6.76l-1.16-.37-3.2-1c-9.51-3.16-18.88-6.91-21.22-16.54-2.48-10.22,5-38.73,5-38.73l-26.41-2.85s-2.55,29.8-4.21,39.09c-.89,5-3.14,8.9-4.45,13.15-.1.29-.19.59-.27.89A29.32,29.32,0,0,0,523.44,1447.11Z"/>
      <g>
        <path class="cls-35" d="M523.44,1447.11a6.11,6.11,0,0,0,3.5,5.65h0c5.9,3.8,16.38-1.48,33.44,6.39.74.34,6.47-.05,10.44-.11,5.18-.07,12.65.39,14.4.11,8-1.3,9.25-5.27,9.8-6.57.83-2-6.32-4.21-14.32-6.76a49.3,49.3,0,0,1-25.57,2.18c-11.12-2.09-22.17-7.63-30.11-9.47-.1.29-.19.59-.27.89A29.32,29.32,0,0,0,523.44,1447.11Z"/>
        <polygon class="cls-35" points="526.1 1451.68 529.99 1458.96 538.46 1458.96 538.46 1453.63 526.1 1451.68"/>
      </g>
      <path class="cls-24" d="M387,1193.07l85.51-8.15s130.87.59,143.06,17.87c0,0,23.37,16.19-3,83.14s-57.43,133.85-57.43,133.85a60.42,60.42,0,0,1-18.74,1.32,72.72,72.72,0,0,1-10-1.8s6-99.9,19.17-138.77,17.27-31.31-6.1-29.15-98.54,19.43-133.08,15.11S387,1193.07,387,1193.07Z"/>
      <path class="cls-33" d="M856.32,1447.11a6.11,6.11,0,0,1-3.5,5.65h0c-4.07,2.24-11.22,2.47-19,2.13-1,0-1.89-.07-2.69-.07H830c-7.7.19-6.89,2.5-21.51,3.75-16.67,1.42-22.81-3.68-23.79-6-.83-2,6.32-4.21,14.32-6.76l1.16-.37,3.2-1c9.51-3.16,18.88-6.91,21.22-16.54,2.48-10.22-5-38.73-5-38.73l26.41-2.85s2.55,29.8,4.21,39.09c.89,5,3.14,8.9,4.45,13.15.1.29.19.59.27.89A29.32,29.32,0,0,1,856.32,1447.11Z"/>
      <path class="cls-36" d="M856.32,1447.11a6.11,6.11,0,0,1-3.5,5.65h0c-4.34,2-11.37,2.3-19,2.08-1,0-1.89,0-2.7,0H830c-7.7.19-6.89,2.5-21.51,3.75-16.67,1.42-22.81-3.68-23.79-6-.83-2,6.32-4.21,14.32-6.76A49.32,49.32,0,0,0,824.6,1448c11.12-2.09,22.17-7.63,30.11-9.47.1.29.19.59.27.89A29.32,29.32,0,0,1,856.32,1447.11Z"/>
      <path class="cls-33" d="M507,1447.11a6.11,6.11,0,0,0,3.5,5.65h0c4.07,2.24,10.57.52,18.35.18,1,0,2.53,1.88,3.33,1.88h1.1c7.7.19,6.89,2.5,21.51,3.75,16.67,1.42,22.81-3.68,23.79-6,.83-2-6.32-4.21-14.32-6.76l-1.16-.37-3.2-1c-9.51-3.16-18.88-6.91-21.22-16.54-2.48-10.22,5-38.73,5-38.73l-26.41-2.85s-2.55,29.8-4.21,39.09c-.89,5-3.14,8.9-4.45,13.15-.1.29-.19.59-.27.89A29.32,29.32,0,0,0,507,1447.11Z"/>
      <path class="cls-33" d="M684.93,1413.39c-1.47,7.34-11.93,6.12-23.61,3.26s-8.91.54-25.53-1.3-21.67-8-22.17-10.51c-.46-2.2,7.76-3,16.57-4l3.33-.39c10-1.25,17.24-7.67,26.28-13,8.56-5,21.33-25.34,21.33-25.34l22.8,1.81s-12,18.17-16.59,26.07c-2.72,4.65-2.58,10.8-2.24,15.54A29.12,29.12,0,0,1,684.93,1413.39Z"/>
      <path class="cls-36" d="M661.32,1416.65c-11.68-2.85-8.91.54-25.53-1.3s-21.67-8-22.17-10.51c-.46-2.2,7.76-3,16.57-4l.08.17a46.92,46.92,0,0,0,23.81,7.41c11.28.27,23.23-3,31-2.84a29.12,29.12,0,0,1-.17,7.8C683.46,1420.73,673,1419.51,661.32,1416.65Z"/>
      <path class="cls-37" d="M735.66,1078.49s-5.43-13.31-11.41-13.86-25-3.53-26.35-.81,0,12.49,4.08,16,29.34,9.23,29.34,9.23Z"/>
      <path class="cls-14" d="M772.31,1267.59l49.14,132.25a45.11,45.11,0,0,0,14.79-1.35c6.66-1.92,14.29-7,14.29-7s-12.19-127-34.54-153.4S772.31,1267.59,772.31,1267.59Z"/>
      <path class="cls-31" d="M966.68,1214.09S825.47,1166.34,794,1176.5s-126.05,198.28-126.05,198.28,2.13,2.84,8,5c5.42,2,18.53,1.9,18.53,1.9s85.34-73.14,95.5-94.48,14.22-41.65,24.38-39.62,131.05,49.78,158.48,21.34S993,1203.54,993,1203.54Z"/>
      <path class="cls-24" d="M880.39,992c-2.26-4.66-4.78-12.93-6-27.67.19,1.46,2.73,20.06,9.88,30.58,29.36,19.28,85.65,83.66,84.54,95.86,0,0,19.83-33.63,20.17-33.83,0,0,36.57-46.51-6.78-73.15-22-13.54-21.91-30.91-21-46s-6-80.07-50.14-63.07c0,0-7.08-3.15-10.26-2.68a8.71,8.71,0,0,1,3.91,1.86c-5.11-.3-12.43.08-18.53,3.55C870,886.6,855.52,969.08,880.39,992Z"/>
      <path class="cls-37" d="M886,995.84c-.15.07,14.18,7.5,25,4.56,10.14-2.77,16.76-15.91,16.62-15.94-4.29-.85-5.53-6.75-5.44-32.1l-1.94.38-32.63,6.46s.74,10.27.77,19.95C888.35,987.27,887.86,995,886,995.84Z"/>
      <path class="cls-38" d="M887.56,959.2s.74,10.27.77,19.95c18.26-.52,27.91-17.17,31.86-26.41Z"/>
      <path class="cls-24" d="M923.56,949.19s9.57-15.12,11.87-28.05c1.64-9.23-3.06-43.44-37.44-38.51A46.63,46.63,0,0,0,878.62,890c-7.47,5-18.24,15.93-6.2,45.78l3.13,10.09Z"/>
      <path class="cls-37" d="M881.46,968.36s43.2.72,43.23-26.19,5.63-44.94-22-46.54-33,8.67-35.15,17.65S870.23,967.49,881.46,968.36Z"/>
      <path class="cls-24" d="M883.06,895s11.83,31.58,30,36.24,26-.19,26-.19a51.41,51.41,0,0,1-16.81-30.37S892,880,883.06,895Z"/>
      <path class="cls-24" d="M886,897.54s-8.84,7.05-11,13.9-3.12,21-7.24,20.48c0,0-8.91-21.46,1.11-33.6C879.5,885.45,886,897.54,886,897.54Z"/>
      <path class="cls-32" d="M982.19,1112.06c4.26-17.87-10.23-52.54-25.36-81.24-13.73-26-28-47.12-29.26-46.36-36.21,21.49-39.48,3.62-39.48,3.62s-32.89,4.37-42.2,20.4c-12.88,22.17-26.91,88.69-40.69,87.71-6.33-.45-70-24.38-70-24.38s-10.61,9.94-8.58,22.13c0,0,31.44,21,58,34.48,14.06,7.1,26.77,12.07,32.74,10.67,12.11-2.86,31-30.93,41.25-47.46l.07-.11c13,73.85-4.7,90.66,4.28,98.45,9.48,8.22,23-3.91,52.83,9,19.55,8.48,46.67,20.74,64.93,22.87,9.58,1.13,16.72-.54,19-7C1006.58,1196,974.07,1146.12,982.19,1112.06Z"/>
      <path class="cls-10" d="M891.07,952.05s-.81,3.42-9.31,2.89c0,0-7.14-.44-6.92-4.19C874.84,950.75,881.76,948.07,891.07,952.05Z"/>
      <path class="cls-30" d="M999.8,1214.83c-2.33,6.47-9.47,8.14-19,7-12.64-5.5-67.23-26.65-66.62-41,.9-21.22,10.49-21.89,3.72-48.08-5.44-21,45-60.14,53.06-68.64,15.13,28.71,15.54,30.06,11.28,47.93C974.07,1146.12,1006.58,1196,999.8,1214.83Z"/>
      <path class="cls-30" d="M858.64,1091.63c-10.22,16.53-29.14,44.6-41.25,47.46-6,1.4-18.68-3.57-32.74-10.67,10.26,2.65,20.23,2.57,29.92,1.64,10.49-1,13.54-13.89,30.14-33.19C855.47,1084.35,858.11,1087.5,858.64,1091.63Z"/>
      <g>
        <path class="cls-39" d="M905.56,1151.16,893,1119.41a2.8,2.8,0,0,0-2.79-1.61l-17.81,2a1.62,1.62,0,0,0-1.27.83h0l-1.71,2.25,15.83,34.81,17.11-2,1.1-.54,2-2.63h0A1.46,1.46,0,0,0,905.56,1151.16Z"/>
        <path class="cls-9" d="M903.68,1153.67l-12.55-31.75a2.8,2.8,0,0,0-2.78-1.61l-17.81,2a1.48,1.48,0,0,0-1.32,2.09l12.55,31.74a2.79,2.79,0,0,0,2.78,1.62l17.81-2A1.48,1.48,0,0,0,903.68,1153.67Z"/>
        <path class="cls-39" d="M877.48,1124.49a1.54,1.54,0,0,0-1.52-.94l-4.19.36a.83.83,0,0,0-.77,1.14,1.56,1.56,0,0,0,1.52.94l4.2-.36A.82.82,0,0,0,877.48,1124.49Z"/>
      </g>
      <path class="cls-37" d="M909.22,1132.26s-9.15-7.11-17.78-5.42-12.87,7.62-12.53,10.33,4.91,10.33,11.51,11,25.4-4.06,25.4-4.06Z"/>
      <path class="cls-32" d="M927.57,984.46s35.21,2.17,47.4,19.17c17.16,23.93,47,121.63,38.83,144l-107.12-.45s-2.6-12.14,1-18,62.31-15.35,65-18.06-33.86-52.83-33.86-60.95S927.57,984.46,927.57,984.46Z"/>
      <path class="cls-36" d="M375,1199.14l80.19-6.77s130.87.57,143.06,17.3c0,0,19.78,12.39-6.64,77.23s-53.16,136.19-53.16,136.19a67.65,67.65,0,0,1-13.1.23c-9-.73-12-3.66-12-3.66s1.87-88.72,15.07-126.37,18.29-33.82-5.08-31.72S434.27,1280,389,1271.37C354.8,1264.83,375,1199.14,375,1199.14Z"/>
      <path class="cls-12" d="M460,874.68S433.14,861,420.72,896.17c0,0,12-14.9,18.29-14.23S460,874.68,460,874.68Z"/>
      <g>
        <path class="cls-14" d="M507,1447.11a6.11,6.11,0,0,0,3.5,5.65h0c5.9,3.8,16.38-1.48,33.44,6.39.74.34,6.46-.05,10.44-.11,5.18-.07,12.65.39,14.4.11,8.05-1.3,9.25-5.27,9.8-6.57.83-2-6.32-4.21-14.32-6.76a49.32,49.32,0,0,1-25.57,2.18c-11.12-2.09-22.17-7.63-30.11-9.47-.1.29-.19.59-.27.89A29.32,29.32,0,0,0,507,1447.11Z"/>
        <polygon class="cls-14" points="509.62 1451.68 513.51 1458.96 521.98 1458.96 521.98 1453.63 509.62 1451.68"/>
      </g>
      <path class="cls-9" d="M592.73,1150.27a8.57,8.57,0,0,1-.65,2.14c-3.38,7.45-73.82,16.93-82.63,12.19-3.93-2.12-9.65-37.64-14.77-76.26-6.34-47.75-11.76-100.26-11.76-100.26s29.24,9.23,32.63,24.81,4.06,111.75,12.87,116.49,46.05.68,58.92,2.71C587.34,1132.09,594.07,1142.74,592.73,1150.27Z"/>
      <path class="cls-12" d="M484.84,877.41c-5.47-4.4-13.42-3.85-18.53-3.55a8.66,8.66,0,0,1,3.91-1.86c-3.18-.47-10.26,2.68-10.26,2.68-44.13-17-49.4,63-11.47,72.17C463.19,950.39,540.94,922.47,484.84,877.41Z"/>
      <path class="cls-33" d="M485,995.84c.15.07-14.18,7.5-24.95,4.56-10.14-2.77-16.76-15.91-16.62-15.94,4.29-.85,5.53-6.75,5.44-32.1l1.94.38,32.63,6.46s-.75,10.27-.77,19.95C482.67,987.27,483.16,995,485,995.84Z"/>
      <path class="cls-40" d="M483.46,959.2s-.75,10.27-.77,19.95c-18.26-.52-27.91-17.17-31.86-26.41Z"/>
      <path class="cls-12" d="M447.46,949.19s-9.57-15.12-11.87-28.05c-1.64-9.23,3.06-43.44,37.44-38.51A46.63,46.63,0,0,1,492.4,890c7.47,5,18.24,15.93,6.19,45.78l-3.12,10.09Z"/>
      <path class="cls-33" d="M489.55,968.36s-43.2.72-43.23-26.19-5.62-44.94,22-46.54,33,8.67,35.15,17.65S500.79,967.49,489.55,968.36Z"/>
      <path class="cls-12" d="M488,895s-11.83,31.58-30,36.24-26-.19-26-.19a51.41,51.41,0,0,0,16.81-30.37S479,880,488,895Z"/>
      <path class="cls-25" d="M500.12,1027.94c-.76-3.06,5.71-5.37,7.3-2.64,3,5.12,3.55,11.57,4.74,16.71,3.38,14.67,0,34.77,0,34.77Z"/>
      <path class="cls-12" d="M485,897.54s8.84,7.05,11,13.9,3.12,21,7.23,20.48c0,0,8.92-21.46-1.1-33.6C491.52,885.45,485,897.54,485,897.54Z"/>
      <path class="cls-10" d="M480,952.05s.81,3.42,9.31,2.89c0,0,7.14-.44,6.92-4.19C496.18,950.75,489.26,948.07,480,952.05Z"/>
      <path class="cls-25" d="M592.73,1150.27a8.57,8.57,0,0,1-.65,2.14c-3.38,7.45-73.82,16.93-82.63,12.19-3.93-2.12-10.84-46.28-5.87-85.79,5.32,22.59,6.94,68.93,19.41,71.11C537.14,1152.4,574.25,1147.67,592.73,1150.27Z"/>
      <path class="cls-9" d="M514.8,1078.58c-17.51,84.41-2.86,97.36-12,105.66,0,0-8.07,3.51-8.12,3.56-9.49,8.22-9.72-1.74-39.52,11.17-14.2,6.16-32.4,14.31-48.29,19.13a98.75,98.75,0,0,1-16.64,3.74c-9.58,1.13-16.73-.54-19.06-7-6.77-18.79,25.74-68.71,17.61-102.77-.07-.29-.13-.59-.19-.88a37.46,37.46,0,0,1-.4-10.15c1.52-19,13.52-46.63,26-70.21,13.73-26,28-47.12,29.26-46.36,36.2,21.49,39.47,3.62,39.47,3.62S520.77,1049.8,514.8,1078.58Z"/>
      <path class="cls-25" d="M497.6,1186.61h0c-9.49,8.22-12.6-.55-42.4,12.36-14.2,6.16-32.4,14.31-48.29,19.13-7.22,2.41-13,3.59-16.64,3.74-9.58,1.13-16.73-.54-19.06-7-6.77-18.79,25.74-68.71,17.61-102.77-.07-.29,11.75-41.14,23.78-64,.4-14.33,68.47-1.36,54.18,82.62C462.4,1156.48,493.84,1166.63,497.6,1186.61Z"/>
      <path class="cls-33" d="M494.66,1190.9s13.32-3.16,19.42-.68,18.28,8.81,17.15,12.19-15.57,5.2-21.67,1.81-10.61.9-18.06-1.58S494.66,1190.9,494.66,1190.9Z"/>
      <path class="cls-9" d="M443.45,984.46s-49.13.66-57.94,24.36-6.09,107,6.77,132.07,86,58.93,94.15,60.28,13.2-11.17,12.87-12.53-76.88-63.32-76.54-69.76S443.45,984.46,443.45,984.46Z"/>
      <g>
        <path class="cls-41" d="M619.55,1109.57h0a2.13,2.13,0,0,0-1.94-.73l-24.4,2.46a3.81,3.81,0,0,0-3.25,3l-7.49,46.1a2,2,0,0,0,.59,1.86v0l3.41,2.93,1.63.4,23.44-2.37,11-51.14Z"/>
        <path class="cls-36" d="M620.83,1111.65l-24.4,2.46a3.86,3.86,0,0,0-3.25,3l-7.49,46.09a2,2,0,0,0,2.37,2.41l24.4-2.46a3.84,3.84,0,0,0,3.25-3l7.49-46.09A2,2,0,0,0,620.83,1111.65Z"/>
        <path class="cls-41" d="M619.64,1114.08l-5.71.75a2.12,2.12,0,0,0-1.76,1.7,1.13,1.13,0,0,0,1.36,1.3l5.71-.75a2.12,2.12,0,0,0,1.76-1.7A1.13,1.13,0,0,0,619.64,1114.08Z"/>
      </g>
    </g>
    <g>
      <path class="cls-12" d="M3673,1458s65.15,5.59,67.93-6.76c.37-1.65,9.53-63.33,9.53-63.33l11.24-78.81s-19.05-2.3-26.48,20.12-29.32,58.54-61.82,68C3639.17,1407.13,3673,1458,3673,1458Z"/>
      <path class="cls-33" d="M3363.52,1139.26l5.8,2.06s15.2-25.71,46.27-15.31c0,0,12.41,5.19,5,12s-5.54,3.28-15.7,13-24.05,14.67-33.6,11.37l-10.6-3.73Z"/>
      <path class="cls-12" d="M3101.73,1354.56s216.6-165.5,278.22-167.31S3641.44,1459,3641.44,1459H3566.6s-131.89-70.19-178.28-136.89a11.37,11.37,0,0,0-19,.53c-24,38.32-86.69,132.32-127.23,136.36C3198.58,1463.35,3101.73,1354.56,3101.73,1354.56Z"/>
      <path class="cls-33" d="M3122.46,904.21s-1.36,10.85-3.12,24.23c-2.35,17.4-5.47,39-7.53,45.73l-65.17,16.51-4.79-47.38s16.32-32.74,16.22-79Z"/>
      <path class="cls-3" d="M3065.78,1002.85l92.61,113.44,32.38,39.67s58,10.86,88.45,13.5c22,1.9,92.12-7,92.12-7l-2-21.09s-43.53-18.51-64.21-22.85c-21.09-4.42-74.39-16.45-74.39-16.45-20.15-7.33-96.72-106.31-96.72-106.31Z"/>
      <path class="cls-42" d="M3005.36,1407.92l189.39-15.46s.52-3.79,1.4-10.16a55.11,55.11,0,0,0,.48-6.19c.43-18.91-7-44.42-10.2-69.49-2.12-16.55-2.39-32.91,2.67-47.06,5.83-16.33,8.52-47.32,9.7-76.78,1.49-36.9.63-71.38.65-71.62,1.9-23.5-3.69-49.59-13-74.41-18.48-48.92-52.92-76.62-69.11-93,0,0-19.76,4.88-71.14-10.54-1.53-.46-5.94,6-7.9,9.78,0,0-22.23,28.13-31.37,96.74C2998.7,1101.11,3005.36,1407.92,3005.36,1407.92Z"/>
      <path class="cls-3" d="M3052.75,1067.85c.37,8.61,76.57,251.18,67.24,269.08-45.19,86.57,68.73,47.57,74.91,25.24-2.2-14.91-5.61-83.44-.23-103.64,4.45-16.75,2.95-46.29,4.13-75.75-1.91-10.75-6.37-21.85-12.4-32.58C3158.08,1145.77,3049.91,1001.06,3052.75,1067.85Z"/>
      <g>
        <path class="cls-43" d="M3431.53,1115.15,3408,1099a2.63,2.63,0,0,0-.63-.31h0l-4.43-1.81-21.61,68.25,18.9,15.3,3.4,1.48h0l0,0h0c1.53.63,3.48-.36,4.3-2.36l24.47-60A3.7,3.7,0,0,0,3431.53,1115.15Z"/>
        <path class="cls-44" d="M3427.44,1113.49,3404,1097.36c-1.6-1.1-3.89-.09-4.79,2.11l-23.39,57.32a3.78,3.78,0,0,0,.75,4.31l22.42,18.76c1.58,1.32,4,.35,5-2l24.47-60A3.69,3.69,0,0,0,3427.44,1113.49Z"/>
        <polygon class="cls-45" points="3380.16 1153.75 3402.24 1172.23 3424.43 1117.85 3401.29 1101.96 3380.16 1153.75"/>
        <path class="cls-43" d="M3387.89,1163.65c-.84-.35-1.78.26-2.09,1.35a2.16,2.16,0,0,0,1,2.6c.85.35,1.78-.26,2.09-1.35A2.15,2.15,0,0,0,3387.89,1163.65Z"/>
        <polygon class="cls-46" points="3402.3 1105.61 3382.82 1152.3 3401.95 1167.22 3421.08 1118.86 3402.3 1105.61"/>
        <polygon class="cls-47" points="3403.01 1112.39 3389.36 1145.1 3402.76 1155.55 3416.17 1121.67 3403.01 1112.39"/>
      </g>
      <path class="cls-33" d="M3366.25,1172.34l11.91-.39s11.87-24.62,39.05-13c0,0,10.9,5.69,4.89,12s-4.61,3-12.89,12.12-20,13.34-28.35,9.65l-9.28-4.16Z"/>
      <path class="cls-42" d="M3070.35,944.12s46.5,19.64,70.65,61.6c16.09,28,43.8,75.52,60.5,104.15a63.14,63.14,0,0,0,41,29.85l56.43,12.42,79.25,19.81a16.63,16.63,0,0,1,1.42,8.85c-.65,7.8-5.75,9.36-5.75,9.36s-74,17.81-100.34,19.79c-64.9,4.88-95.66-3.62-105.19-7.13a20.08,20.08,0,0,1-5.79-3.35c-9.94-8.07-48.07-40-68.15-70.54-19.53-29.69-73.38-106.85-73.38-106.85Z"/>
      <path class="cls-48" d="M3005.36,1334.59s-20,124.42,37.3,124.42H3673s17.41-11.75,18.63-34.14c1.3-23.75-6.21-32.17-6.21-32.17s-225.63-7.85-271.44-23.2C3184.31,1292.55,3005.36,1334.59,3005.36,1334.59Z"/>
      <path class="cls-40" d="M3122.46,904.21s-1.36,10.85-3.12,24.23c-60.22-17.56-61.27-64.19-61.27-64.19Z"/>
      <path class="cls-33" d="M3131.94,907.69s-73.19,2.17-73.84-43.43-10.53-76,36.17-79.34,56,14,59.95,29.12S3151,906,3131.94,907.69Z"/>
      <path class="cls-48" d="M3058.1,864.26s19-62,84.08-58.73c38.46,1.91,33.09-42.65,33.09-42.65S3123.79,751,3082,762.6C3010.37,782.39,3051.69,854.5,3058.1,864.26Z"/>
    </g>
    <rect class="cls-49" x="177.22" y="1458.97" width="3642.78" height="7.79" rx="3.55"/>
  </g>
</svg>
