<svg id="Слой_2" data-name="Слой 2" xmlns="http://www.w3.org/2000/svg" xmlns:xlink="http://www.w3.org/1999/xlink" width="3243.02" height="1645.14" viewBox="0 0 3243.02 1645.14">
  <defs>
    <style>
      .cls-1, .cls-2 {
        fill: #a6d9f1;
      }

      .cls-2 {
        opacity: 0.3;
      }

      .cls-3 {
        fill: #b77446;
      }

      .cls-4 {
        fill: #365da4;
      }

      .cls-5 {
        fill: #285493;
      }

      .cls-6 {
        fill: #aa443e;
      }

      .cls-7 {
        fill: #d9935c;
      }

      .cls-8 {
        fill: #80bdcc;
      }

      .cls-9 {
        fill: #5f9aa8;
      }

      .cls-10 {
        fill: #a86337;
      }

      .cls-11, .cls-15 {
        fill: #ca5f00;
      }

      .cls-12 {
        fill: #e69d43;
      }

      .cls-13 {
        fill: #cc7c46;
      }

      .cls-14 {
        fill: #fff;
      }

      .cls-15 {
        opacity: 0.4;
      }

      .cls-16 {
        clip-path: url(#clip-path);
      }

      .cls-17 {
        fill: #d5e7f7;
      }

      .cls-18 {
        fill: #c4d9ed;
      }

      .cls-19 {
        fill: #415da5;
      }

      .cls-20 {
        fill: #355493;
      }

      .cls-21 {
        fill: #163560;
      }

      .cls-22 {
        fill: #ebba56;
      }

      .cls-23 {
        fill: #e7a329;
      }

      .cls-24 {
        fill: #e58638;
      }

      .cls-25 {
        fill: #9e3a38;
      }

      .cls-26 {
        fill: #db772c;
      }

      .cls-27 {
        fill: #3b76ca;
      }

      .cls-28 {
        fill: #699dee;
      }

      .cls-29 {
        fill: #cff1ff;
      }

      .cls-30 {
        fill: #e49963;
      }

      .cls-31 {
        fill: #b74b42;
      }

      .cls-32 {
        fill: #d68d5d;
      }

      .cls-33 {
        fill: #c45446;
      }

      .cls-34 {
        fill: #e37970;
      }

      .cls-35 {
        fill: #d6716b;
      }

      .cls-36 {
        fill: #b84c42;
      }

      .cls-37 {
        fill: #283250;
      }
    </style>
    <clipPath id="clip-path" transform="translate(-179.28 -98.7)">
      <rect class="cls-1" x="984.77" y="278.11" width="693.81" height="1280.74"/>
    </clipPath>
  </defs>
  <g>
    <path class="cls-2" d="M2807,1736.19s314.34-7.47,448.66-197.71C3499,1193.84,3389.29,891.61,2956.07,914.1c-484.64,25.17-556-877.34-1395.17-363C1378.68,662.82,722.16,392.4,755.72,719.81,766.54,825.35,667,844,338,966.6c-307.1,114.47-121.15,772,156,774.48S2807,1736.19,2807,1736.19Z" transform="translate(-179.28 -98.7)"/>
    <g>
      <path class="cls-3" d="M493.83,1726.27c.94,11.55,17.25,11.56,35.75,9.27s13.61,2.44,39.54,2.61,34.8-8.46,36-12.18c1.09-3.29-11.42-6-24.8-9.12q-2.52-.58-5.06-1.22a68,68,0,0,1-38.1-24.66c-11.25-14.41-21.53-80-21.53-80l-40.51,7.56s23.58,56.23,26,74.68c1.09,8.27-4.8,13.8-6.18,21A45.45,45.45,0,0,0,493.83,1726.27Z" transform="translate(-179.28 -98.7)"/>
      <path class="cls-4" d="M528.25,1737.28c18.5-2.29,14.94.7,40.87.87s34.8-8.46,36-12.18c1.09-3.29-11.42-6-24.8-9.12l-.15.25a72.67,72.67,0,0,1-38,7.09c-17.42-1.62-35.23-8.75-47.24-10a45.45,45.45,0,0,0-1.14,12C494.77,1737.82,509.75,1739.56,528.25,1737.28Z" transform="translate(-179.28 -98.7)"/>
      <path class="cls-4" d="M530.06,1657.57s-10.62,7-20.59,8.84c-15,2.72-21.92-.3-21.92-.3s-72-180.74-67.87-241.81c.1-1.47.16-3,.17-4.68.12-10.59-1.4-24.71-4-41-1-6-2.09-12.2-3.33-18.65-2.89-15.06-6.46-31.31-10.39-47.87-1.72-7.29-3.53-14.65-5.36-22-18.09-72.27-40.21-143.48-40.21-143.48s129.9-42.43,137.25-2.77c2.82,15.22,12.2,76.11,8,169.23-3.41,75-1.21,133.42,5.27,201.28C512.72,1574,522.47,1625.25,530.06,1657.57Z" transform="translate(-179.28 -98.7)"/>
      <path class="cls-5" d="M419.85,1419.62c.12-10.59-1.4-24.71-4-41-1-6-2.09-12.2-3.33-18.65-2.89-15.06-6.46-31.31-10.39-47.87-1.72-7.29-3.53-14.65-5.36-22,2.57-22.05,4.64-37.18,4.64-37.18S455.31,1326.21,419.85,1419.62Z" transform="translate(-179.28 -98.7)"/>
      <path class="cls-3" d="M330,1726.27c.94,11.55,17.25,11.56,35.75,9.27s13.62,2.44,39.54,2.61,34.8-8.46,36-12.18c1.09-3.29-11.41-6-24.8-9.12q-2.52-.58-5.06-1.22c-15.09-3.71-25.14-14.91-38.1-24.66-12.28-9.23-3.69-54-3.69-54l-38.09-13.6s5.74,45,5.74,69.84c0,8.34-4.8,13.8-6.18,21A45.45,45.45,0,0,0,330,1726.27Z" transform="translate(-179.28 -98.7)"/>
      <path class="cls-4" d="M363.69,1737.4c18.5-2.28,15.64.58,41.56.75s34.8-8.46,36-12.18c1.09-3.29-11.41-6-24.8-9.12l-.15.25a72.67,72.67,0,0,1-38,7.09c-17.42-1.62-35.22-8.75-47.24-10a45.45,45.45,0,0,0-1.14,12C330.9,1737.82,345.19,1739.69,363.69,1737.4Z" transform="translate(-179.28 -98.7)"/>
      <path class="cls-4" d="M434.78,1132.52s-42.26,210.62-49.4,325.26-16.05,209.54-16.05,209.54a56,56,0,0,1-19.8,2.72,72.88,72.88,0,0,1-20-4.08s-41.89-172.48-28-241.51,2.32-132.72-4.34-190c-9.55-82.11,27.19-120.28,52.84-146.29C375.94,1061.85,434.78,1132.52,434.78,1132.52Z" transform="translate(-179.28 -98.7)"/>
      <path class="cls-6" d="M464.73,746.75c4.2-34.29-6.51-89.16-75-80.4s-90,76-76.21,105.94-19.87,37.12-30.44,69.28c-9.08,27.63-12.25,61.94-26.94,77.33-47.38,49.64,45.49,126,101.47,109.87,102-29.32,115.11-33.69,111.49-113.81-1.86-41.06-33.8-57-13.52-68.84C504.62,817.43,455.23,824.34,464.73,746.75Z" transform="translate(-179.28 -98.7)"/>
      <path class="cls-7" d="M444,856.87l-20.24,30.36-40.79-2-18.84-48.71s5.81-1.1,8.52-61.83l50.91,15.53a99.07,99.07,0,0,0,.9,33.07C427,835.32,432.49,848.15,444,856.87Z" transform="translate(-179.28 -98.7)"/>
      <path class="cls-7" d="M449.69,835.44c-2.62,0-50.58-16-119.06,11.85,0,0,32.51,186,18.54,221.5a375.23,375.23,0,0,0-19.27,67l151.5,1.88s-2.12-121.84,4.86-165S449.69,835.44,449.69,835.44Z" transform="translate(-179.28 -98.7)"/>
      <path class="cls-8" d="M701.3,960.6c-.45-5.3-2.12-6.51-2.12-6.51-48.43,7.11-80.53,6.71-96.26,9.78-12.36,2.39-17.41,2.74-19.53-.25C516.48,869.53,469.12,840,469.12,840s-5.05-3-24.8-5.72c0,0-2.84,35.77-21.23,38.81-31.8,5.24-55.58-23.91-63.06-35.64,0,0-38.36,9.24-49.08,21.46-7.7,8.78-6.7,29.79-4.41,43a58.53,58.53,0,0,0,2.32,9.58c2.26,6,10.81,49.84,14.71,67.3.09.45.18.86.27,1.24.27,1.17.5,2.19.72,3,0,0,0,.05,0,.08.23.93.42,1.66.57,2.13l.27.85a.14.14,0,0,0,0,.06c5.63,18,9,36.26,7,58.71a63.41,63.41,0,0,1-1.74,9.4c-5.09,26.09-26.23,77.52-30.62,101.13,2.53,5.33,8.26,9.55,15.24,12.91,9.09,4.39,20.28,7.32,29.18,9.36a281.32,281.32,0,0,0,29.73,4.74c6.48.72,13.43,1.34,20.51,1.75,1,.06,2,.12,3,.16,45.64,2.27,96.74,1.15,103.4-20.55,3.19-10.41-9.53-73-11.23-91.61-3-32.67,1.87-77.41,4.05-112.06,37.46,41.28,76.11,56.12,76.11,56.12a186,186,0,0,0,31.06-4.66c12-2.67,24.52-6.23,36.52-10a604.08,604.08,0,0,0,65.81-25.77S702.3,972.29,701.3,960.6Z" transform="translate(-179.28 -98.7)"/>
      <path class="cls-9" d="M430.15,1114.38c-8.65,29.33-13.67,53.46-35.38,69.78-7.08-.41-14-1-20.51-1.75a281.32,281.32,0,0,1-29.73-4.74c-8.9-2-20.09-5-29.18-9.36-7-3.36-12.71-7.58-15.24-12.91,4.39-23.61,25.53-75,30.62-101.13a63.79,63.79,0,0,0,1-6.84c1.88-23.36-1.15-42.55-6.3-61.27a.14.14,0,0,1,0-.06l-.84-3s0,0,0-.08c-.18-.64-.43-1.68-.72-3-.09-.38-.18-.79-.27-1.24-3.48-16.54-12.6-68.46-14.92-75.23a68.7,68.7,0,0,1-2.27-10.34l18.24-17.56S429.27,920.32,452.32,982,442.56,1072.31,430.15,1114.38Z" transform="translate(-179.28 -98.7)"/>
      <path class="cls-9" d="M637.66,1001.52c-23.17,7.35-48.37,13.79-67.58,14.7,0,0-38.42-14.21-76.11-56.12-1.59-7.12-3.87-19.89,4.76-16.44,12.1,4.84,56.84,62.29,73.78,63.49C584.62,1008,619.07,1003.92,637.66,1001.52Z" transform="translate(-179.28 -98.7)"/>
      <path class="cls-8" d="M555,985.16s-51.58,25.91-96.31,36.63c-12.87,3.09-25.27,5.27-35.84,5.77,0,0-48.1-14.79-84.81-66.21-70.9-99.32-16.16-110-16.16-110S369.24,880.87,436.14,975c2.34,3.3,8.22,2.55,23.44-.52,16.26-3.29,48.61-2.9,93.27-9.45,0,0,.75,1.66,1.21,6.95C555.06,983.63,555,985.16,555,985.16Z" transform="translate(-179.28 -98.7)"/>
      <path class="cls-10" d="M703.47,975.75a604.08,604.08,0,0,1-65.81,25.77c-12,3.81-24.55,7.37-36.52,10-4.81-21.38-1.49-38,1.78-47.69,15.73-3.07,49.34-3.27,97.78-10.38Z" transform="translate(-179.28 -98.7)"/>
      <path class="cls-10" d="M688.6,956.5s12.25-2.38,22.46-7.49,37.44-8.51,43.22-3.06-6.12,27.57-31,28.25-32,4.76-32,4.76Z" transform="translate(-179.28 -98.7)"/>
      <g>
        <path class="cls-11" d="M732.77,881.14,594.26,908.06c-6.06,1.18-11,7.11-11,13.17V1017c0,6.07,5,10.07,11,8.89l138.51-26.93c6.07-1.18,11-7.1,11-13.17V890C743.8,884,738.84,880,732.77,881.14Z" transform="translate(-179.28 -98.7)"/>
        <path class="cls-12" d="M738.29,881.14,599.78,908.06c-6.06,1.18-11,7.11-11,13.17V1017c0,6.07,5,10.07,11,8.89l138.51-26.93c6.06-1.18,11-7.1,11-13.17V890C749.32,884,744.35,880,738.29,881.14Z" transform="translate(-179.28 -98.7)"/>
        <path class="cls-11" d="M602.08,915.54a5.78,5.78,0,0,0-4.53,5.41,3.63,3.63,0,0,0,4.53,3.65,5.78,5.78,0,0,0,4.53-5.41A3.63,3.63,0,0,0,602.08,915.54Z" transform="translate(-179.28 -98.7)"/>
      </g>
      <path class="cls-3" d="M617.53,953.32c-6.18-5.81-35.24-2.18-46.14,3.27a99.94,99.94,0,0,1-18.3,6.65v-.08c-44.66,6.56-77.24,8-93.5,11.27,5.09,11,8.93,27.94-.89,47.36,42.72-10.24,92.77-33.09,97.19-35.12,5-1.28,13.89-2.79,28.59-3.2C611,982.75,623.7,959.13,617.53,953.32Z" transform="translate(-179.28 -98.7)"/>
      <path class="cls-13" d="M424.47,823.29c-21.05-1.7-51.81-48.6-51.81-48.6l50.91,15.53A99.07,99.07,0,0,0,424.47,823.29Z" transform="translate(-179.28 -98.7)"/>
      <path class="cls-7" d="M436.9,793.66s-61,12.25-68-25.83-19.65-62.15,19-71.58,48.89,3.7,54.33,15.84S452.58,789.5,436.9,793.66Z" transform="translate(-179.28 -98.7)"/>
      <path class="cls-6" d="M443,689.43c-30.07-29.63-57.79-14.81-53.37-8.85-10.42.33-23.42,3.19-32.72,13.65-18,20.28,15.61,83.67,15.61,83.67S367.87,739,387.92,717c7.95-8.69,12.57-16,15.26-21.58a44.6,44.6,0,0,0,13.8,8.39c19.4,6.8,30.06,38,30.06,38C454,727.3,455.94,702.2,443,689.43Z" transform="translate(-179.28 -98.7)"/>
      <path class="cls-14" d="M417.91,774.93s1.63,4.52,13.11,2.47c0,0,9.63-1.72,8.75-6.8C439.77,770.6,429.94,768.06,417.91,774.93Z" transform="translate(-179.28 -98.7)"/>
    </g>
    <g>
      <g>
        <rect class="cls-11" x="655.14" y="53.85" width="834.5" height="1583.42" rx="42.7"/>
        <rect class="cls-12" x="736.03" y="53.85" width="834.5" height="1583.42" rx="42.7"/>
        <g>
          <path class="cls-15" d="M1454.86,212.49H1237.93a8.47,8.47,0,0,0-8.44,8.44h0a8.47,8.47,0,0,0,8.44,8.44h216.93a8.47,8.47,0,0,0,8.44-8.44h0A8.47,8.47,0,0,0,1454.86,212.49Z" transform="translate(-179.28 -98.7)"/>
          <path class="cls-15" d="M1199.4,212.49a8.47,8.47,0,0,0-8.44,8.44h0a8.44,8.44,0,1,0,16.88,0h0A8.47,8.47,0,0,0,1199.4,212.49Z" transform="translate(-179.28 -98.7)"/>
        </g>
        <path class="cls-15" d="M1342.9,1594.05a54.44,54.44,0,1,0,54.43,54.44A54.44,54.44,0,0,0,1342.9,1594.05Z" transform="translate(-179.28 -98.7)"/>
      </g>
      <g>
        <g>
          <rect class="cls-1" x="805.49" y="179.41" width="693.81" height="1280.74"/>
          <g class="cls-16">
            <rect class="cls-17" x="805.49" y="179.41" width="693.81" height="176.05"/>
            <circle class="cls-18" cx="1076.02" cy="364.41" r="55.9" transform="translate(-238.78 300.46) rotate(-20.46)"/>
            <path class="cls-18" d="M1505.66,362.39h-325a19.7,19.7,0,0,1-19.65-19.65h0a19.7,19.7,0,0,1,19.65-19.65h325a19.7,19.7,0,0,1,19.65,19.65h0A19.7,19.7,0,0,1,1505.66,362.39Z" transform="translate(-179.28 -98.7)"/>
            <path class="cls-18" d="M1367.38,409.75H1171.86A11.86,11.86,0,0,1,1160,397.92h0a11.86,11.86,0,0,1,11.82-11.82h195.52a11.86,11.86,0,0,1,11.82,11.82h0A11.86,11.86,0,0,1,1367.38,409.75Z" transform="translate(-179.28 -98.7)"/>
            <g>
              <path class="cls-7" d="M1582.73,930.12s-6.06-29.28,3.63-37.15,39.05-35.08,44.54-32,14.49,21.57,11.56,32.4-39.94,50-39.94,50Z" transform="translate(-179.28 -98.7)"/>
              <path class="cls-19" d="M1389.93,1327.92c-3.09,60.15-13.58,146-21.37,232.74H1237c-2.83-23.26-6.94-45.93-11.48-68.06-7.37-35.86-15.85-70.35-21.79-103.72-12-67.17-9.73-119.67.64-160.41,8.89-35,23.78-61.29,40.8-80.79,37.3-42.73,141.16,40.78,141.16,40.78S1393,1268.12,1389.93,1327.92Z" transform="translate(-179.28 -98.7)"/>
              <path class="cls-20" d="M1330.18,1347s0,.43-.09,1.26c-.94,12.34-9.22,113.39-35.22,212.36H1237c-2.83-23.26-6.94-45.93-11.48-68.06,9.86-58,19.23-104.1,19.23-104.1Z" transform="translate(-179.28 -98.7)"/>
              <path class="cls-19" d="M1337.89,1322.58c-1.42,5.7-4.19,14.72-7.8,25.72-14.84,45.09-43.94,123.45-52.23,143-9.7,22.92-18.85,46.1-27.47,69.33h-144c3-55.85,3.7-171.81,6.39-202.69,10.82-124.14,34.31-136.22,34.31-136.22l57.26,6.72,133.43,15.66S1359.71,1234.66,1337.89,1322.58Z" transform="translate(-179.28 -98.7)"/>
              <path class="cls-21" d="M1362,650.77c6.44-52.6-10-136.77-115-123.32S1108.94,644.08,1130.11,690s-30.48,56.94-46.7,106.28c-13.93,42.38-18.78,95-41.32,118.62-72.68,76.14,69.77,193.22,155.65,168.53,156.42-45,176.57-51.68,171-174.58-2.85-63-51.84-87.37-20.73-105.59C1423.17,759.19,1347.41,769.8,1362,650.77Z" transform="translate(-179.28 -98.7)"/>
              <path class="cls-7" d="M1330.21,819.64l-31.14,46.67-62.47-3-28.9-74.77s5.38-1,9.78-45.41c1.08-11.67,2.16-26.3,3.14-44.7a.12.12,0,0,1,0-.18c0-1.53.09-3.05.18-4.58l8.08,2.42,70,21.37s-.36,2.33-.81,6.37a157.52,157.52,0,0,0,2.07,44.16C1303.92,786.43,1312.35,806.17,1330.21,819.64Z" transform="translate(-179.28 -98.7)"/>
              <path class="cls-7" d="M1330.42,785.83c-4,0-72.19-13.88-187.33,15.58,0,0,63.06,288.9,41.63,343.35a575.26,575.26,0,0,0-29.56,102.78l232.39,2.89s-3.25-186.91,7.46-253.05S1330.42,785.83,1330.42,785.83Z" transform="translate(-179.28 -98.7)"/>
              <path class="cls-22" d="M1581.52,901s-74.22,100.71-87.33,99.72c-14.09-1.17-49.45-126.28-76.2-172.42-18.75-32.2-83.34-41.82-87.56-42.42h0l-.21,0,.16.63c-.56,6-5.82,53.74-32.27,58.11-48.77,8.05-88.07-36.64-99.56-54.62,0,0-56,14.13-72.45,32.88-15.58,17.74,5.73,149.22,10.46,161.82,4.09,10.82,8,21.39,11.32,32,8.91,28,14.35,56.44,11.22,91.46-3.39,38.24-39.12,125.63-31.39,144.24,8.09,19.55,19.35,29.45,44,35.1,17,3.92,40.29,5.8,73.3,7.44,70,3.48,145-5.32,155.24-38.6,4.9-16,3-77.78.42-106.32-3.41-37.5-.12-85.37,3.16-129.35l.47.72a.09.09,0,0,0,.09.09c7.54,11.58,16.25,24,25.13,35.54,13.46,17.33,27.47,32.5,39.4,39.5a32.42,32.42,0,0,0,8.35,3.5c7.9,1.88,23.43,1.88,38.5-6.73a58.82,58.82,0,0,0,7.36-4.94c44-34.91,83.12-144,83.12-144C1610.42,918.9,1581.52,901,1581.52,901Z" transform="translate(-179.28 -98.7)"/>
              <path class="cls-23" d="M1127.7,1252.32c8.09,19.55,19.35,29.45,44,35.1,32.91-6.32,54.62-66.88,65.79-96.69,12.89-34.34-40.12-195.42-58.64-193.81-13.76,1.19-26.9,20.3-27.36,31.8,8.91,28,10.76,44.34,7.63,79.36C1155.7,1146.32,1120,1233.71,1127.7,1252.32Z" transform="translate(-179.28 -98.7)"/>
              <path class="cls-23" d="M1515.73,1093.21c-15.07,8.61-30.6,8.61-38.5,6.73a32.42,32.42,0,0,1-8.35-3.5c-11.93-7-25.94-22.17-39.4-39.5-8.88-11.57-17.59-24-25.13-35.54,1.71-6.28,7.9-9.24,27.91,11.31,33.66,34.56,39.85,57.71,61.22,59.51C1500.84,1092.85,1508.29,1093.21,1515.73,1093.21Z" transform="translate(-179.28 -98.7)"/>
              <path class="cls-13" d="M1300.15,767.94c-22.17,6.1-76.3-65.25-79.53-69.56l-.18-.18h.18l8.26-2.16,70,21.37s-.36,2.33-.81,6.37A157.52,157.52,0,0,0,1300.15,767.94Z" transform="translate(-179.28 -98.7)"/>
              <path class="cls-7" d="M1319.29,722.74s-93.51,18.78-104.31-39.63-30.14-95.34,29.11-109.8,75,5.68,83.35,24.3S1343.34,716.35,1319.29,722.74Z" transform="translate(-179.28 -98.7)"/>
              <path class="cls-21" d="M1328.62,562.85c-46.13-45.46-86.49-18.81-76.46-6.65-16.64-.28-39.46,3.19-55.28,21-27.65,31.1,22.84,136.58,22.84,136.58s-6-68,24.76-101.61c14.66-16,22-28.9,25.57-38A65.34,65.34,0,0,0,1288.74,585c29.75,10.44,46.1,58.31,46.1,58.31C1345.49,620.94,1348.49,582.44,1328.62,562.85Z" transform="translate(-179.28 -98.7)"/>
              <path class="cls-7" d="M1218.85,1159.31l20.84,10c9.22,2.71,12.83,5.21,18.36,4.59,13.37-1.49,40.36-.65,59,25.41,0,0,9.44,15.47-4,17.07s-8.63-.8-27.44,1.83-37.75-15.12-43.64-21.54l-21.83-8Z" transform="translate(-179.28 -98.7)"/>
              <path class="cls-22" d="M1198.54,789.92s-55.28,2.18-80.91,26c-29,27-81,190.55-81,293.27,0,0-1,56.58,195.81,94.7,0,0,9.43-7.81,13-15.36,6.27-13.36,6.26-22.55,6.26-22.55s-115.43-65.47-119.59-86.08C1126.6,1052.43,1205.62,945.32,1198.54,789.92Z" transform="translate(-179.28 -98.7)"/>
            </g>
          </g>
        </g>
        <g>
          <path class="cls-6" d="M1818.75,791.14s-163-32.53-357.93-29.9l-11.28-53.12-12.38-58.2s203.66-49.4,337.08-143.75Z" transform="translate(-179.28 -98.7)"/>
          <path class="cls-24" d="M1818.75,791.14h0a24.82,24.82,0,0,0,21.87-29L1796.7,518.84c-2.12-11.79-10.68-15.53-22.46-12.67Z" transform="translate(-179.28 -98.7)"/>
          <path class="cls-25" d="M1629.51,767c111.87,8.74,189.24,24.18,189.24,24.18s-185.44-89.06-369.21-83l11.28,53.12c34.54-.46,68.09.17,99.9,1.54-.06,1-.08,2,0,3l4.81,167.52a34.48,34.48,0,0,0,35.36,33.38h0a34.49,34.49,0,0,0,33.39-35.36Z" transform="translate(-179.28 -98.7)"/>
          <path class="cls-24" d="M1514.51,761.39l-52.73.41c.77.17-49.17,1.43-57.63-44.53a36,36,0,0,1-1.44-9.86c-3.11-56,27.9-61,27.9-61l70.29-14.75,8.17,78.38-.06.26Z" transform="translate(-179.28 -98.7)"/>
          <path class="cls-26" d="M1514.51,761.39l-52.73.41c.77.17-49.17,1.43-57.63-44.53,32.59-16.37,104.92-7.22,104.92-7.22l-.06.26Z" transform="translate(-179.28 -98.7)"/>
        </g>
      </g>
      <g>
        <rect class="cls-17" x="805.49" y="1258.14" width="693.81" height="202.1"/>
        <g>
          <path class="cls-18" d="M1625.85,1415.81H1035.19a12,12,0,0,1-12-12h0a12,12,0,0,1,12-11.95h590.66a12,12,0,0,1,12,11.95h0A12,12,0,0,1,1625.85,1415.81Z" transform="translate(-179.28 -98.7)"/>
          <path class="cls-18" d="M1625.85,1459.63H1035.19a12,12,0,0,1-12-12h0a12,12,0,0,1,12-12h590.66a12,12,0,0,1,12,12h0A12,12,0,0,1,1625.85,1459.63Z" transform="translate(-179.28 -98.7)"/>
          <path class="cls-18" d="M1625.85,1505.44H1035.19a12,12,0,0,1-12-12h0a12,12,0,0,1,12-12h590.66a12,12,0,0,1,12,12h0A12,12,0,0,1,1625.85,1505.44Z" transform="translate(-179.28 -98.7)"/>
        </g>
      </g>
    </g>
    <g>
      <rect class="cls-27" x="2186.52" y="1096.27" width="960" height="544.75" rx="21.34"/>
      <rect class="cls-28" x="2141.54" y="1096.27" width="960" height="544.75" rx="21.34"/>
      <rect class="cls-1" x="2169.06" y="1121.59" width="826.29" height="494.07"/>
      <rect class="cls-27" x="3029.53" y="1307.6" width="43.73" height="122.09" rx="19.83"/>
      <polygon class="cls-29" points="2995.35 1121.59 2995.35 1615.66 2423.58 1615.66 2798.07 1121.59 2995.35 1121.59"/>
      <polygon class="cls-29" points="2696.91 1121.59 2288.09 1615.66 2233.17 1615.66 2651.51 1121.59 2696.91 1121.59"/>
      <polygon class="cls-29" points="2293.73 1121.59 2169.06 1259.19 2169.06 1121.59 2293.73 1121.59"/>
    </g>
    <g>
      <path class="cls-30" d="M2773.51,1459.28c0,4.06-2,6.85-5.41,8.72l0,0c-6.29,3.46-17.32,3.81-29.33,3.29-1.54-.07-2.92-.11-4.16-.11h-1.7c-11.89.3-10.63,3.85-33.22,5.79-25.74,2.2-35.23-5.68-36.75-9.27-1.27-3,9.77-6.5,22.12-10.44l1.8-.58c1.64-.52,3.29-1.06,4.94-1.6,14.69-4.88,29.16-10.68,32.77-25.55,3.83-15.78-7.68-59.81-7.68-59.81l40.8-4.41s3.94,46,6.5,60.38c1.38,7.65,4.85,13.74,6.88,20.3.15.46.28.92.41,1.38A44.94,44.94,0,0,1,2773.51,1459.28Z" transform="translate(-179.28 -98.7)"/>
      <path class="cls-25" d="M2773.51,1459.28c0,4.06-2,6.85-5.41,8.72l0,0c-6.69,3.1-17.55,3.55-29.31,3.21-1.54,0-2.92,0-4.18,0h-1.7c-11.89.3-10.63,3.85-33.22,5.79-25.74,2.2-35.23-5.68-36.75-9.27-1.27-3,9.77-6.5,22.12-10.44a76.3,76.3,0,0,0,39.5,3.37c17.18-3.24,34.24-11.78,46.51-14.64.15.46.28.92.41,1.38A44.94,44.94,0,0,1,2773.51,1459.28Z" transform="translate(-179.28 -98.7)"/>
      <path class="cls-30" d="M2508.77,1407.2c-2.27,11.33-18.42,9.44-36.46,5s-13.76.83-39.44-2-33.46-12.42-34.25-16.24c-.7-3.39,12-4.58,25.6-6.15,1.72-.19,3.44-.4,5.15-.61,15.37-1.93,26.63-11.85,40.58-20,13.23-7.72,33-39.15,33-39.15l35.22,2.79s-18.48,28.07-25.63,40.28c-4.21,7.18-4,16.67-3.46,24C2509.31,1399.14,2509.57,1403.21,2508.77,1407.2Z" transform="translate(-179.28 -98.7)"/>
      <path class="cls-25" d="M2472.31,1412.23c-18-4.41-13.76.83-39.44-2s-33.46-12.42-34.25-16.24c-.7-3.39,12-4.58,25.6-6.15l.13.26a72.38,72.38,0,0,0,36.78,11.43c17.42.43,35.88-4.56,47.91-4.37.27,4,.53,8.06-.27,12C2506.5,1418.53,2490.35,1416.64,2472.31,1412.23Z" transform="translate(-179.28 -98.7)"/>
      <path class="cls-30" d="M2587.14,889.9s-8.39-20.56-17.63-21.4-38.6-5.45-40.69-1.25,0,19.3,6.29,24.75,45.31,14.27,45.31,14.27Z" transform="translate(-179.28 -98.7)"/>
      <path class="cls-25" d="M2643.74,1182l75.91,204.28a69.5,69.5,0,0,0,22.84-2.09c10.28-3,22.07-10.75,22.07-10.75s-18.83-196.15-53.35-236.94S2643.74,1182,2643.74,1182Z" transform="translate(-179.28 -98.7)"/>
      <path class="cls-31" d="M2944,1099.35s-218.11-73.75-266.75-58.06-194.7,306.27-194.7,306.27,3.3,4.39,12.29,7.76c8.37,3.14,28.63,2.94,28.63,2.94s131.81-113,147.5-145.93,22-64.34,37.66-61.2S2911,1228,2953.38,1184.08s31.29-101,31.29-101Z" transform="translate(-179.28 -98.7)"/>
      <path class="cls-21" d="M2810.68,756.26c-3.48-7.19-7.38-20-9.28-42.73.29,2.26,4.22,31,15.26,47.23C2862,790.54,2949,890,2947.24,908.83c0,0,30.63-52,31.15-52.26,0,0,56.49-71.83-10.46-113-34-20.91-33.85-47.75-32.43-71.07s-9.28-123.68-77.45-97.42c0,0-10.94-4.86-15.84-4.13,0,0,4,.77,6,2.87-7.9-.47-19.2.11-28.63,5.47C2794.63,593.51,2772.27,720.91,2810.68,756.26Z" transform="translate(-179.28 -98.7)"/>
      <path class="cls-30" d="M2819.34,762.24c-.22.11,21.9,11.6,38.55,7,15.66-4.26,25.89-24.57,25.67-24.61-6.63-1.32-8.54-10.43-8.4-49.58l-3,.59-50.4,10s1.15,15.86,1.18,30.8C2823,749,2822.22,760.9,2819.34,762.24Z" transform="translate(-179.28 -98.7)"/>
      <path class="cls-32" d="M2821.76,705.66s1.15,15.86,1.18,30.8c28.21-.79,43.11-26.52,49.22-40.78Z" transform="translate(-179.28 -98.7)"/>
      <path class="cls-21" d="M2877.37,690.19s14.78-23.35,18.32-43.32c2.54-14.26-4.73-67.1-57.83-59.49a72.17,72.17,0,0,0-29.92,11.31c-11.53,7.79-28.17,24.6-9.56,70.71l4.83,15.58Z" transform="translate(-179.28 -98.7)"/>
      <path class="cls-30" d="M2812.34,719.81s66.73,1.1,66.78-40.47,8.68-69.41-33.92-71.87-50.89,13.39-54.28,27.26S2795,718.45,2812.34,719.81Z" transform="translate(-179.28 -98.7)"/>
      <path class="cls-21" d="M2814.81,606.45s18.27,48.76,46.31,56,40.2-.3,40.2-.3-21.51-17.09-26-46.91C2875.35,615.21,2828.59,583.24,2814.81,606.45Z" transform="translate(-179.28 -98.7)"/>
      <path class="cls-21" d="M2819.34,610.41s-13.64,10.88-17,21.47-4.82,32.37-11.17,31.63c0,0-13.77-33.14,1.7-51.89C2809.3,591.73,2819.34,610.41,2819.34,610.41Z" transform="translate(-179.28 -98.7)"/>
      <path class="cls-28" d="M2967.93,941.76c6.58-27.6-15.81-81.15-39.18-125.48-21.2-40.19-43.21-72.78-45.19-71.61-55.93,33.19-61,5.6-61,5.6s-50.8,6.74-65.18,31.5c-19.9,34.25-41.57,137-62.86,135.48-9.77-.7-108.1-37.66-108.1-37.66s-16.39,15.35-13.25,34.18c0,0,48.55,32.51,89.61,53.26,21.72,11,41.35,18.65,50.57,16.47,18.71-4.4,47.93-47.77,63.71-73.29l.11-.17c20.15,114.06-7.25,140,6.62,152.06,14.65,12.7,35.57-6,81.6,13.9,30.19,13.1,72.09,32,100.29,35.33,14.79,1.74,25.83-.84,29.43-10.83C3005.59,1071.47,2955.38,994.37,2967.93,941.76Z" transform="translate(-179.28 -98.7)"/>
      <path class="cls-14" d="M2827.18,694.61s-1.25,5.28-14.38,4.47c0,0-11-.69-10.69-6.49C2802.11,692.59,2812.8,688.46,2827.18,694.61Z" transform="translate(-179.28 -98.7)"/>
      <path class="cls-27" d="M2995.13,1100.5c-3.6,10-14.64,12.57-29.43,10.83-19.52-8.51-103.85-41.18-102.91-63.31,1.41-32.78,16.22-33.82,5.76-74.28-8.4-32.48,69.52-92.88,81.95-106,23.37,44.34,24,46.43,17.43,74C2955.38,994.37,3005.59,1071.47,2995.13,1100.5Z" transform="translate(-179.28 -98.7)"/>
      <path class="cls-27" d="M2777.08,910.21c-15.78,25.53-45,68.89-63.71,73.29-9.22,2.18-28.85-5.5-50.57-16.47,15.85,4.09,31.25,4,46.21,2.53,16.22-1.57,20.92-21.45,46.55-51.26C2772.19,899,2776.27,903.83,2777.08,910.21Z" transform="translate(-179.28 -98.7)"/>
      <g>
        <path class="cls-33" d="M2831.42,969.17c-2.1-1.3-6.2-.79-9.17-.17v-4.29a21.74,21.74,0,0,0-.18-2.81h-44.52a23.68,23.68,0,0,0-.18,2.81v8.73a22.41,22.41,0,0,0,39.27,14.81h0s10.6-2.61,13.92-6.56S2835,971.36,2831.42,969.17Zm-2.35,8.08c-1.12,2.91-6.17,4.47-8.66,5.08a22.56,22.56,0,0,0,1.79-7.39c1.53-2.1,4-3.34,5.74-3C2829.53,972.22,2830.49,973.58,2829.07,977.25Z" transform="translate(-179.28 -98.7)"/>
        <path class="cls-34" d="M2781,964.71v8.73a22.52,22.52,0,0,0,22.44,22.45,20.16,20.16,0,0,0,3-.22,22.5,22.5,0,0,1-19.42-22.23v-8.73a21.74,21.74,0,0,1,.18-2.81h-6A21.74,21.74,0,0,0,2781,964.71Z" transform="translate(-179.28 -98.7)"/>
        <rect class="cls-33" x="2611.35" y="895.22" width="18.32" height="2.74"/>
      </g>
      <path class="cls-30" d="M2855.21,973s-14.12-11-27.46-8.37-19.88,11.77-19.36,15.95,7.59,16,17.79,17,39.23-6.28,39.23-6.28Z" transform="translate(-179.28 -98.7)"/>
      <path class="cls-28" d="M2883.56,744.67s54.39,3.35,73.21,29.61c26.5,37,90.11,201.38,60,222.39-33.93,23.66-165.46-.7-165.46-.7s-4-18.74,1.57-27.81,96.24-23.71,100.43-27.89S2901,858.67,2901,846.11,2883.56,744.67,2883.56,744.67Z" transform="translate(-179.28 -98.7)"/>
    </g>
    <g>
      <rect class="cls-1" x="2286.57" y="216.84" width="280.3" height="255.04" rx="68.52"/>
      <g>
        <polygon class="cls-12" points="2313.71 290.75 2507.52 274.02 2406.29 339.77 2313.71 290.75"/>
        <polygon class="cls-11" points="2412.94 444 2507.52 274.02 2406.09 339.47 2412.94 444"/>
      </g>
    </g>
    <g>
      <path class="cls-11" d="M2577.35,845.69l-33.47-9a3,3,0,0,0-2.86.58l-.05,0-4.68,2.83,3.74,73.82,32.15,8.61,2.37-.18L2580,919v0a2.83,2.83,0,0,0,1.25-2.46v-66A5.4,5.4,0,0,0,2577.35,845.69Z" transform="translate(-179.28 -98.7)"/>
      <path class="cls-12" d="M2572.18,922.55l-33.47-9a5.41,5.41,0,0,1-3.85-4.89v-66a2.86,2.86,0,0,1,3.85-2.82l33.47,9a5.41,5.41,0,0,1,3.85,4.89v66A2.87,2.87,0,0,1,2572.18,922.55Z" transform="translate(-179.28 -98.7)"/>
      <path class="cls-11" d="M2547.5,850.16l-7.8-2.33a3,3,0,0,1-2.06-2.77h0a1.59,1.59,0,0,1,2.18-1.51l7.8,2.34a3,3,0,0,1,2.06,2.77h0A1.59,1.59,0,0,1,2547.5,850.16Z" transform="translate(-179.28 -98.7)"/>
    </g>
    <g>
      <path class="cls-1" d="M2715.88,705.55a5.37,5.37,0,1,1,5.37,5.38A5.37,5.37,0,0,1,2715.88,705.55Z" transform="translate(-179.28 -98.7)"/>
      <path class="cls-1" d="M2658,684.63a10.18,10.18,0,1,1,10.18,10.18A10.19,10.19,0,0,1,2658,684.63Z" transform="translate(-179.28 -98.7)"/>
      <path class="cls-1" d="M2601.48,632.24a16.16,16.16,0,1,1,16.16,16.16A16.16,16.16,0,0,1,2601.48,632.24Z" transform="translate(-179.28 -98.7)"/>
    </g>
    <g>
      <rect class="cls-1" x="1993.13" y="98.7" width="275.78" height="250.94" rx="67.42" transform="translate(4082.75 349.64) rotate(180)"/>
      <path class="cls-12" d="M2197,156.22H2065.08a37.54,37.54,0,0,0-37.43,37.43V226A37.42,37.42,0,0,0,2061.6,263l-15.95,46.39,83.36-46H2197A37.54,37.54,0,0,0,2234.38,226V193.65A37.54,37.54,0,0,0,2197,156.22Z" transform="translate(-179.28 -98.7)"/>
      <rect class="cls-11" x="1869.37" y="90.11" width="160.85" height="15.96" rx="7.79"/>
      <rect class="cls-11" x="1869.37" y="115.95" width="160.85" height="15.96" rx="7.79"/>
    </g>
    <g>
      <path class="cls-1" d="M2227.08,529.27a5.7,5.7,0,1,0-.22,8.07A5.71,5.71,0,0,0,2227.08,529.27Z" transform="translate(-179.28 -98.7)"/>
      <path class="cls-1" d="M2256.39,470.9a10.81,10.81,0,1,0-.41,15.28A10.81,10.81,0,0,0,2256.39,470.9Z" transform="translate(-179.28 -98.7)"/>
      <path class="cls-1" d="M2261.71,389.26a17.16,17.16,0,1,0-.66,24.25A17.16,17.16,0,0,0,2261.71,389.26Z" transform="translate(-179.28 -98.7)"/>
    </g>
    <g>
      <rect class="cls-1" x="252.64" y="141.78" width="341.22" height="310.48" rx="83.41"/>
      <path class="cls-35" d="M693.22,393.18c-9.48,25-90.73,90.59-90.73,90.59s-26.49-21.52-51-44.69c-18.36-17.15-35.51-35.21-39.58-45.9-9.63-24.82.61-60.33,36.12-66.35s54.47,31,54.47,31,19.11-37,54.61-31a48.31,48.31,0,0,1,16.26,5.72C695.47,344.89,701,372.72,693.22,393.18Z" transform="translate(-179.28 -98.7)"/>
      <path class="cls-6" d="M693.22,393.18c-9.48,25-90.73,90.59-90.73,90.59s-26.49-21.52-51-44.69C648.23,412,669,356,673.36,332.55,695.47,344.89,701,372.72,693.22,393.18Z" transform="translate(-179.28 -98.7)"/>
    </g>
    <g>
      <path class="cls-1" d="M586.66,704.3a5.24,5.24,0,1,0,6.87,2.77A5.25,5.25,0,0,0,586.66,704.3Z" transform="translate(-179.28 -98.7)"/>
      <path class="cls-1" d="M624.48,661a9.93,9.93,0,1,0,13,5.26A9.93,9.93,0,0,0,624.48,661Z" transform="translate(-179.28 -98.7)"/>
      <path class="cls-1" d="M668.28,597.65a15.77,15.77,0,1,0-8.35,20.67A15.78,15.78,0,0,0,668.28,597.65Z" transform="translate(-179.28 -98.7)"/>
    </g>
    <g>
      <path class="cls-7" d="M2335.54,1060.72l7.72,12.51c4,4.6,5.08,7.17,8.25,8.73,7.66,3.78,21.82,13.45,22.89,33.78,0,0-.25,11.51-8,7.78s-4.34-3.38-15.31-8.41-15-21-16-26.44l-8.94-11.75Z" transform="translate(-179.28 -98.7)"/>
      <g>
        <path class="cls-7" d="M1847,877.61s-8.19-20.05-17.19-20.86-37.63-5.32-39.68-1.23,0,18.82,6.14,24.14,44.18,13.91,44.18,13.91Z" transform="translate(-179.28 -98.7)"/>
        <path class="cls-7" d="M2107.63,1713.79c.77,4.37,1.53,8.85,1.11,13.35s-7,8.85-7.07,8.85c-4.29,1.87-10.14,2.12-17.05,1.87-2-.07-4.17-.14-6.33-.33-3-.26-6.16-.13-9.38-.56-1.7-.22-3.23-.41-4.6-.53l-1.07-.09c-.28,0-.56,0-.82-.06-7.82-.51-10.65.7-16.89,1.75h-36.94c-16.31-2.82-22.45-9.41-23.48-12.64-1.11-3.5,11.5-6.21,25.6-9.34l2-.45c1.88-.41,3.77-.85,5.64-1.28,16.81-3.93,33.45-8.9,38.95-25,5.84-17.09,4.46-67.8,4.46-67.8h51s-13.39,56-12,72.17c.76,8.62,4.89,11.08,6.48,18.54C2107.43,1712.75,2107.53,1713.27,2107.63,1713.79Z" transform="translate(-179.28 -98.7)"/>
        <path class="cls-8" d="M2168.09,1178.12c-4.3,24.17-10.45,49.14-15.78,75.11-8.57,41.76-15,86.12-8.42,133.89a165.41,165.41,0,0,1,1.41,20.23c1.29,84.43-36.44,237.43-36.44,237.43s-10.24,4.42-27.41,3.57c-8.85-.44-22.41-6.14-22.41-6.14s-3.57-94.86-3.79-222.44c-.15-92.48-18.31-214.24-22-285.79-2.22-43.3,2.6-101,2.6-101s75.2-60.47,102.21-29.53C2164.76,1034,2184.2,1087.72,2168.09,1178.12Z" transform="translate(-179.28 -98.7)"/>
        <path class="cls-9" d="M2143.89,1387.12a165.41,165.41,0,0,1,1.41,20.23c-56.31-81.6-68.77-259.53-68.77-259.53l61.86,30s6.78,33.36,13.92,75.38C2143.74,1295,2137.27,1339.35,2143.89,1387.12Z" transform="translate(-179.28 -98.7)"/>
        <path class="cls-7" d="M2271.44,1726.8c-.42,4.49-2.92,7.37-6.88,9.09l-.06,0a28.28,28.28,0,0,1-8.9,2,75.43,75.43,0,0,1-11.26,0c-4-.24-8.33-.72-12.73-1.31-1.7-.22-3.23-.41-4.6-.53l-1.07-.09c-.28,0-.56,0-.83-.06-8.44-.55-11.07.9-18.44,2h-33.84c-17.46-2.64-24-9.53-25-12.84-1.12-3.49,11.49-6.2,25.59-9.31l2.06-.46c1.87-.41,3.76-.85,5.64-1.27,16.81-3.92,33.45-8.88,39-25,5.84-17-2.5-66.8-2.5-66.8l47.25-3.93s-2.93,56.72-1.53,72.81c.76,8.6,5.15,13.33,6.74,20.77.12.53.22,1,.31,1.56C2271.1,1717.85,2271.86,1722.31,2271.44,1726.8Z" transform="translate(-179.28 -98.7)"/>
        <path class="cls-8" d="M2264.78,1649.1s-12.15,5.75-20.89,7.5-26.91-1.67-26.91-1.67c-3.28-36.74-10.9-94.19-25.69-159-16.85-73.81-41.92-161-76.87-243.61-7.46-17.64-38.25-101.13-43.47-122.2-15.8-63.66.06-56.8.06-56.8l138.08-16.2s17,8.74,24.84,98.63c2.35,26.93,2.63,143.17,6.17,165.2,3.34,20.87,7.26,38.22,11.85,49.5C2277.6,1433.4,2264.78,1649.1,2264.78,1649.1Z" transform="translate(-179.28 -98.7)"/>
        <path class="cls-36" d="M2271.44,1727.16c-.42,4.5-2.92,7.4-6.88,9.12l-.06,0c-3.88,1.38-8.85,1.93-14.49,1.93a158.06,158.06,0,0,1-18.37-1.32c-1.7-.2-3.24-.35-4.63-.45l-1.07-.09c-.28,0-.56,0-.83-.06-8.25-.53-11,.84-18,1.92h-34.83c-17.07-2.71-23.46-9.51-24.51-12.81-1.12-3.5,11.49-6.21,25.59-9.34a85.22,85.22,0,0,0,43.51,7.7c19.39-1.85,39.19-9.61,53.1-11.54.12.53.22,1,.31,1.57C2271.1,1718.18,2271.86,1722.66,2271.44,1727.16Z" transform="translate(-179.28 -98.7)"/>
        <path class="cls-36" d="M2108.74,1727.14c-.42,4.5-2.92,7.4-6.88,9.12l-.06,0c-3.88,1.38-8.85,1.93-14.49,1.93a158.06,158.06,0,0,1-18.37-1.32c-1.7-.2-3.23-.35-4.63-.45l-1.07-.09c-.28,0-.56,0-.82-.06-8.25-.54-11,.84-18,1.92h-34.82c-17.08-2.72-23.47-9.51-24.52-12.81-1.11-3.5,11.5-6.21,25.6-9.34a85.14,85.14,0,0,0,43.5,7.7c19.39-1.85,39.19-9.6,53.1-11.54.12.53.22,1,.32,1.57C2108.4,1718.16,2109.16,1722.64,2108.74,1727.14Z" transform="translate(-179.28 -98.7)"/>
        <path class="cls-31" d="M2053.51,643.66c-4.67-38.08,7.23-99,83.25-89.29s100,84.45,84.64,117.67,22.07,41.23,33.82,77c10.08,30.69,13.6,68.79,29.92,85.89,52.63,55.13-50.52,139.91-112.71,122-113.26-32.57-127.85-37.43-123.83-126.42,2.06-45.6,37.53-63.27,15-76.46C2009.2,722.17,2064.06,729.85,2053.51,643.66Z" transform="translate(-179.28 -98.7)"/>
        <path class="cls-7" d="M2165.25,743.36l-20.95,54.12-45.2,2.2L2076.55,766c14.24-10.83,20.25-27.06,22.45-41.59a117.79,117.79,0,0,0,.8-27.86c-.3-2.91-.6-4.61-.6-4.61l56.33-17.14.2-.1c.7,14.93,1.5,26.66,2.4,35.78C2161.34,742.66,2165.25,743.36,2165.25,743.36Z" transform="translate(-179.28 -98.7)"/>
        <path class="cls-7" d="M2076.36,741.46c2.91,0,52.27-10.05,135.65,11.28,0,0-45.66,209.19-30.15,248.62a416.39,416.39,0,0,1,21.4,74.42L2035,1077.87s2.36-135.33-5.4-183.23S2076.36,741.46,2076.36,741.46Z" transform="translate(-179.28 -98.7)"/>
        <path class="cls-12" d="M2208.54,908.57c2.44-7.68,5.24-15.33,8.2-23.17,3.43-9.13,18.85-104.32,7.58-117.17-11.91-13.58-52.47-23.81-52.47-23.81-8.31,13-36.77,45.38-72.09,39.55-19.05-3.15-22.92-37.39-23.36-42l.13-.51-.17,0v0l-.41.08c-5.56.82-49.84,8-63,30.64-19.4,33.39-40.52,133.58-61.28,132.1-9.53-.69-105.42-36.72-105.42-36.72s-16,15-12.91,33.32c0,0,47.34,31.7,87.38,51.93,5.55,2.81,11,5.39,16.07,7.63,14.44,6.34,26.6,10,33.24,8.44a22.58,22.58,0,0,0,6-2.53c8.68-5,18.82-16,28.54-28.59,6.45-8.36,12.73-17.39,18.27-25.79l.34-.53c2.38,31.85,4.76,66.51,2.29,93.67-1.87,20.66-3.24,65.42.3,77,7.4,24.09,61.72,30.47,112.42,28,23.9-1.19,40.78-2.56,53.07-5.39,17.83-4.09,26-11.26,31.84-25.42,5.6-13.47-20.27-76.75-22.73-104.44C2198.15,949.44,2202.09,928.85,2208.54,908.57Z" transform="translate(-179.28 -98.7)"/>
        <path class="cls-12" d="M2171.86,744.42s40,1.58,58.58,18.85c21,19.53,52.23,139,60.65,197.1,0,0,42.36,80.73,55.85,112.75a25.77,25.77,0,0,1-7.58,7.68,36.77,36.77,0,0,1-11.08,4.47s-76.41-85.29-81.43-98.78S2166.72,856.94,2171.86,744.42Z" transform="translate(-179.28 -98.7)"/>
        <path class="cls-24" d="M2223.15,1079.24c-5.86,14.16-14,21.33-31.84,25.42-23.83-4.58-39.55-48.43-47.64-70-9.33-24.87,39.26-152.74,52.66-151.58,10,.86,11.89,17.18,12.21,25.5-6.45,20.28-10.39,40.87-8.12,66.23C2202.88,1002.49,2228.75,1065.77,2223.15,1079.24Z" transform="translate(-179.28 -98.7)"/>
        <path class="cls-24" d="M2022.89,912c-5.54,8.4-11.82,17.43-18.27,25.79-9.26,11.4-19.5,22.43-28.54,28.59a22.58,22.58,0,0,1-6,2.53c-6.64,1.57-18.8-2.1-33.24-8.44a159.24,159.24,0,0,0,25.32-.38c14.53-1.23,18.75-17,41.71-40.54C2017.57,905.42,2021.74,907.59,2022.89,912Z" transform="translate(-179.28 -98.7)"/>
        <path class="cls-13" d="M2155.53,674.81c-8.52,13.93-29.07,42.59-56.53,49.61a117.79,117.79,0,0,0,.8-27.86c-.3-2.91-.6-4.61-.6-4.61Z" transform="translate(-179.28 -98.7)"/>
        <path class="cls-7" d="M2084.42,695.78s67.71,13.59,75.53-28.7,21.82-69-21.08-79.5-54.31,4.11-60.35,17.59S2067,691.15,2084.42,695.78Z" transform="translate(-179.28 -98.7)"/>
        <path class="cls-31" d="M2173.06,590.38c-11.46-12.89-28-15.4-40-15.19,7.26-8.81-21.95-28.11-55.35,4.81-14.39,14.18-12.22,42.06-4.51,58.24,0,0,11.84-34.67,33.38-42.23a46.9,46.9,0,0,0,13.53-7.82c2.63,6.59,7.9,15.91,18.52,27.52,22.27,24.34,17.93,73.57,17.93,73.57S2193.08,612.91,2173.06,590.38Z" transform="translate(-179.28 -98.7)"/>
        <path class="cls-14" d="M2105.51,675s-1.81,5-14.56,2.74c0,0-10.7-1.91-9.71-7.55C2081.24,670.16,2092.15,667.33,2105.51,675Z" transform="translate(-179.28 -98.7)"/>
      </g>
    </g>
    <rect class="cls-37" x="11.76" y="1639.5" width="3231.26" height="5.64" rx="2.69"/>
  </g>
</svg>
