<svg xmlns="http://www.w3.org/2000/svg" xmlns:xlink="http://www.w3.org/1999/xlink" width="418.1" height="376.313" viewBox="0 0 418.1 376.313">
  <defs>
    <linearGradient id="linear-gradient" x1="0.074" y1="0.554" x2="1.205" y2="0.41" gradientUnits="objectBoundingBox">
      <stop offset="0" stop-color="#fff"/>
      <stop offset="1" stop-color="#cae6f9"/>
    </linearGradient>
  </defs>
  <g id="Grupo_29041" data-name="Grupo 29041" transform="translate(-299.669 -79.931)">
    <g id="Grupo_28978" data-name="Grupo 28978">
      <g id="Grupo_28973" data-name="Grupo 28973">
        <path id="Trazado_22842" data-name="Trazado 22842" d="M587.537,417.107l-183.6-106c-5.261-3.037-5.288-7.947-.06-10.965l107.335-62.366c5.228-3.018,13.732-3,18.993.035l183.6,106c5.262,3.037,5.288,7.947.06,10.965L606.53,417.142C601.3,420.16,592.8,420.145,587.537,417.107Z" fill="#dce5f2" style="mix-blend-mode: multiply;isolation: isolate"/>
        <path id="Trazado_22843" data-name="Trazado 22843" d="M366.239,325.069V317.9h5.6l-1.635,5.654Z" fill="#b3bcce"/>
        <path id="Trazado_22844" data-name="Trazado 22844" d="M684,361.392v7.386h-4.871v-4.5Z" fill="#b3bcce"/>
        <path id="Trazado_22845" data-name="Trazado 22845" d="M553.8,436.552l-183.6-106c-5.261-3.037-5.288-7.947-.059-10.966l107.334-62.365c5.229-3.018,13.732-3,18.993.035l183.6,106c5.261,3.037,5.288,7.947.059,10.965L572.793,436.586C567.564,439.605,559.061,439.59,553.8,436.552Z" fill="#a0b7cf"/>
        <path id="Trazado_22846" data-name="Trazado 22846" d="M553.8,429.552l-183.6-106c-5.261-3.037-5.288-7.947-.059-10.966l107.334-62.365c5.229-3.018,13.732-3,18.993.035l183.6,106c5.261,3.037,5.288,7.947.059,10.965L572.793,429.586C567.564,432.605,559.061,432.59,553.8,429.552Z" fill="#d5edff"/>
      </g>
      <g id="Grupo_28974" data-name="Grupo 28974">
        <path id="Trazado_22847" data-name="Trazado 22847" d="M512.254,96.267,505.6,98.451l4.159,2.077,2.5-3.587Z" fill="#b3bcce"/>
        <path id="Trazado_22848" data-name="Trazado 22848" d="M683.3,361.53l6.376-2.04-.918-4-4.083,1Z" fill="#b3bcce"/>
        <path id="Trazado_22849" data-name="Trazado 22849" d="M684.1,358.385l-183.6-106c-5.261-3.038-9.527-10.395-9.527-16.432l17.321-133.1c0-6.037,4.265-8.469,9.526-5.431l183.6,106c5.261,3.037,9.526,10.394,9.526,16.431l-17.321,133.1C692.588,359.153,689.357,361.422,684.1,358.385Z" fill="#aec8e3"/>
        <path id="Trazado_22850" data-name="Trazado 22850" d="M678.005,360.385l-183.6-106c-5.262-3.038-9.527-10.395-9.527-16.432l17.321-133.1c.636-6.455,4.265-8.469,9.526-5.431l183.6,106c5.261,3.037,9.526,10.394,9.526,16.431l-17.321,133.1C686.5,360.986,683.266,363.422,678.005,360.385Z" fill="#e6eff8"/>
        <path id="Trazado_22851" data-name="Trazado 22851" d="M674.149,352.333,499.066,251.249c-5.017-2.9-9.084-9.912-9.084-15.669L506.5,113.651c.88-5.79,4.067-8.076,9.085-5.179L690.667,209.556c5.017,2.9,9.084,9.912,9.084,15.669L683.234,347.154C682.088,352.486,679.167,355.23,674.149,352.333Z" fill="#403dad"/>
        <path id="Trazado_22852" data-name="Trazado 22852" d="M674.149,352.333,499.066,251.249c-5.017-2.9-9.084-9.912-9.084-15.669L506.5,113.651c.589-5.748,4.067-8.076,9.085-5.179L690.667,209.556c5.017,2.9,9.084,9.912,9.084,15.669L683.234,347.154C682.338,352.569,679.167,355.23,674.149,352.333Z" fill="#3c335a"/>
        <path id="Trazado_22853" data-name="Trazado 22853" d="M675.594,345.5,495.8,241.62,513.14,116.309l179.8,103.877Z" fill="url(#linear-gradient)"/>
      </g>
      <g id="Grupo_28977" data-name="Grupo 28977">
        <path id="Trazado_22854" data-name="Trazado 22854" d="M489.345,263.739l-8.236-4.756c-.675-.389-.591-1.07.189-1.52l2.485-1.435a2.925,2.925,0,0,1,2.633-.109l8.237,4.756c.675.389.59,1.07-.189,1.52l-2.485,1.435A2.934,2.934,0,0,1,489.345,263.739Z" fill="#98cffb"/>
        <path id="Trazado_22855" data-name="Trazado 22855" d="M500.977,270.454,492.74,265.7c-.675-.39-.59-1.071.189-1.52l2.485-1.435a2.925,2.925,0,0,1,2.633-.109l8.237,4.755c.675.39.591,1.07-.189,1.52l-2.485,1.435A2.925,2.925,0,0,1,500.977,270.454Z" fill="#98cffb"/>
        <path id="Trazado_22856" data-name="Trazado 22856" d="M512.609,277.17l-8.237-4.756c-.675-.389-.59-1.07.189-1.52l2.485-1.435a2.925,2.925,0,0,1,2.633-.109l8.237,4.756c.675.389.59,1.07-.189,1.52l-2.485,1.435A2.928,2.928,0,0,1,512.609,277.17Z" fill="#98cffb"/>
        <path id="Trazado_22857" data-name="Trazado 22857" d="M524.24,283.885,516,279.13c-.675-.39-.591-1.071.189-1.52l2.485-1.435a2.925,2.925,0,0,1,2.633-.109l8.237,4.755c.675.39.59,1.071-.189,1.521l-2.485,1.434A2.927,2.927,0,0,1,524.24,283.885Z" fill="#98cffb"/>
        <path id="Trazado_22858" data-name="Trazado 22858" d="M535.872,290.6l-8.237-4.756c-.675-.389-.59-1.07.189-1.52l2.485-1.435a2.931,2.931,0,0,1,2.633-.109l8.237,4.756c.675.389.591,1.07-.189,1.52l-2.485,1.435A2.925,2.925,0,0,1,535.872,290.6Z" fill="#98cffb"/>
        <path id="Trazado_22859" data-name="Trazado 22859" d="M547.5,297.317l-8.237-4.756c-.675-.39-.59-1.07.189-1.52l2.485-1.435a2.925,2.925,0,0,1,2.633-.109l8.237,4.755c.675.39.59,1.071-.189,1.521l-2.485,1.434A2.928,2.928,0,0,1,547.5,297.317Z" fill="#98cffb"/>
        <path id="Trazado_22860" data-name="Trazado 22860" d="M559.135,304.032l-8.236-4.756c-.675-.389-.591-1.07.189-1.52l2.485-1.434a2.928,2.928,0,0,1,2.633-.11l8.237,4.756c.675.39.59,1.07-.189,1.52l-2.485,1.435A2.927,2.927,0,0,1,559.135,304.032Z" fill="#98cffb"/>
        <path id="Trazado_22861" data-name="Trazado 22861" d="M570.767,310.747l-8.237-4.755c-.675-.39-.59-1.07.189-1.52l2.485-1.435a2.925,2.925,0,0,1,2.633-.109l8.237,4.755c.675.39.591,1.071-.189,1.521l-2.485,1.434A2.925,2.925,0,0,1,570.767,310.747Z" fill="#98cffb"/>
        <path id="Trazado_22862" data-name="Trazado 22862" d="M582.4,317.463l-8.237-4.755c-.675-.39-.59-1.071.189-1.521l2.485-1.434a2.925,2.925,0,0,1,2.633-.109l8.237,4.755c.675.39.59,1.07-.189,1.52l-2.485,1.435A2.925,2.925,0,0,1,582.4,317.463Z" fill="#98cffb"/>
        <path id="Trazado_22863" data-name="Trazado 22863" d="M594.03,324.179l-8.236-4.756c-.675-.39-.591-1.07.189-1.52l2.485-1.435a2.925,2.925,0,0,1,2.633-.109l8.237,4.755c.675.39.59,1.071-.189,1.521l-2.485,1.434A2.93,2.93,0,0,1,594.03,324.179Z" fill="#98cffb"/>
        <path id="Trazado_22864" data-name="Trazado 22864" d="M605.662,330.894l-8.237-4.755c-.675-.39-.59-1.071.189-1.521l2.485-1.434a2.925,2.925,0,0,1,2.633-.109l8.237,4.755c.675.39.591,1.07-.189,1.52l-2.485,1.435A2.925,2.925,0,0,1,605.662,330.894Z" fill="#98cffb"/>
        <path id="Trazado_22865" data-name="Trazado 22865" d="M617.294,337.61l-8.237-4.756c-.675-.389-.59-1.07.189-1.52l2.485-1.435a2.925,2.925,0,0,1,2.633-.109l8.237,4.756c.675.389.59,1.07-.189,1.52l-2.485,1.435A2.928,2.928,0,0,1,617.294,337.61Z" fill="#98cffb"/>
        <path id="Trazado_22866" data-name="Trazado 22866" d="M628.925,344.325l-8.236-4.755c-.675-.39-.591-1.071.189-1.521l2.485-1.434a2.925,2.925,0,0,1,2.633-.109l8.237,4.755c.675.39.59,1.071-.189,1.52l-2.485,1.435A2.927,2.927,0,0,1,628.925,344.325Z" fill="#98cffb"/>
        <path id="Trazado_22867" data-name="Trazado 22867" d="M640.557,351.041l-8.237-4.756c-.675-.389-.59-1.07.189-1.52l2.485-1.435a2.928,2.928,0,0,1,2.633-.109l8.237,4.756c.675.389.591,1.07-.189,1.52l-2.485,1.435A2.925,2.925,0,0,1,640.557,351.041Z" fill="#98cffb"/>
        <path id="Trazado_22868" data-name="Trazado 22868" d="M652.189,357.756,643.952,353c-.675-.39-.59-1.07.189-1.521l2.485-1.434a2.925,2.925,0,0,1,2.633-.109l8.237,4.755c.675.39.59,1.071-.189,1.52l-2.485,1.435A2.925,2.925,0,0,1,652.189,357.756Z" fill="#98cffb"/>
        <path id="Trazado_22869" data-name="Trazado 22869" d="M663.82,364.472l-8.236-4.756c-.675-.389-.591-1.07.189-1.52l2.485-1.435a2.928,2.928,0,0,1,2.633-.109l8.237,4.756c.675.39.59,1.07-.189,1.52l-2.485,1.435A2.927,2.927,0,0,1,663.82,364.472Z" fill="#98cffb"/>
        <path id="Trazado_22870" data-name="Trazado 22870" d="M476.5,270.568l-7.225-4.171c-.954-.551-.835-1.513.268-2.15l6.623-3.823a4.137,4.137,0,0,1,3.724-.155l7.224,4.171c.955.551.835,1.514-.267,2.15l-6.623,3.824A4.137,4.137,0,0,1,476.5,270.568Z" fill="#98cffb"/>
        <path id="Trazado_22871" data-name="Trazado 22871" d="M488.135,277.284l-7.224-4.171c-.955-.551-.835-1.514.267-2.15l6.623-3.824a4.14,4.14,0,0,1,3.724-.154l7.225,4.171c.954.551.834,1.513-.268,2.15l-6.623,3.824A4.14,4.14,0,0,1,488.135,277.284Z" fill="#98cffb"/>
        <path id="Trazado_22872" data-name="Trazado 22872" d="M499.767,284l-7.224-4.171c-.955-.551-.835-1.513.267-2.149l6.623-3.824a4.137,4.137,0,0,1,3.724-.155l7.224,4.171c.955.551.835,1.514-.267,2.15l-6.623,3.824A4.137,4.137,0,0,1,499.767,284Z" fill="#98cffb"/>
        <path id="Trazado_22873" data-name="Trazado 22873" d="M511.4,290.715l-7.225-4.171c-.954-.551-.835-1.514.268-2.15l6.623-3.824a4.14,4.14,0,0,1,3.724-.154l7.224,4.171c.955.551.835,1.514-.267,2.15l-6.623,3.824A4.141,4.141,0,0,1,511.4,290.715Z" fill="#98cffb"/>
        <path id="Trazado_22874" data-name="Trazado 22874" d="M523.03,297.431l-7.224-4.171c-.955-.551-.835-1.514.267-2.15l6.623-3.824a4.137,4.137,0,0,1,3.724-.155l7.225,4.171c.954.551.834,1.514-.268,2.15l-6.623,3.824A4.137,4.137,0,0,1,523.03,297.431Z" fill="#98cffb"/>
        <path id="Trazado_22875" data-name="Trazado 22875" d="M534.662,304.146l-7.224-4.171c-.955-.551-.835-1.514.267-2.15L534.328,294a4.14,4.14,0,0,1,3.724-.154l7.224,4.171c.955.551.835,1.514-.267,2.15l-6.623,3.824A4.14,4.14,0,0,1,534.662,304.146Z" fill="#98cffb"/>
        <path id="Trazado_22876" data-name="Trazado 22876" d="M546.294,310.862l-7.225-4.171c-.954-.551-.835-1.514.268-2.15l6.623-3.824a4.137,4.137,0,0,1,3.724-.154l7.224,4.171c.955.551.835,1.513-.267,2.149l-6.623,3.824A4.138,4.138,0,0,1,546.294,310.862Z" fill="#98cffb"/>
        <path id="Trazado_22877" data-name="Trazado 22877" d="M557.925,317.577l-7.224-4.171c-.955-.551-.835-1.514.267-2.15l6.623-3.824a4.14,4.14,0,0,1,3.724-.154l7.225,4.171c.954.551.834,1.514-.268,2.15l-6.623,3.824A4.14,4.14,0,0,1,557.925,317.577Z" fill="#98cffb"/>
        <path id="Trazado_22878" data-name="Trazado 22878" d="M569.557,324.293l-7.224-4.171c-.955-.551-.835-1.514.267-2.15l6.623-3.824a4.137,4.137,0,0,1,3.724-.154l7.224,4.171c.955.551.835,1.513-.267,2.15l-6.623,3.823A4.137,4.137,0,0,1,569.557,324.293Z" fill="#98cffb"/>
        <path id="Trazado_22879" data-name="Trazado 22879" d="M581.189,331.008l-7.225-4.171c-.954-.551-.835-1.513.268-2.15l6.623-3.824a4.14,4.14,0,0,1,3.724-.154l7.224,4.171c.954.551.835,1.514-.267,2.15l-6.623,3.824A4.141,4.141,0,0,1,581.189,331.008Z" fill="#98cffb"/>
        <path id="Trazado_22880" data-name="Trazado 22880" d="M592.82,337.724l-7.224-4.171c-.955-.551-.835-1.514.267-2.15l6.623-3.824a4.14,4.14,0,0,1,3.724-.154l7.225,4.171c.954.551.834,1.513-.268,2.15l-6.623,3.823A4.137,4.137,0,0,1,592.82,337.724Z" fill="#98cffb"/>
        <path id="Trazado_22881" data-name="Trazado 22881" d="M604.452,344.439l-7.224-4.171c-.955-.551-.835-1.513.267-2.15l6.623-3.823a4.137,4.137,0,0,1,3.724-.155l7.224,4.171c.955.551.835,1.514-.267,2.15l-6.623,3.824A4.14,4.14,0,0,1,604.452,344.439Z" fill="#98cffb"/>
        <path id="Trazado_22882" data-name="Trazado 22882" d="M616.084,351.155l-7.225-4.171c-.954-.551-.835-1.514.268-2.15l6.623-3.824a4.14,4.14,0,0,1,3.724-.154l7.224,4.171c.954.551.835,1.513-.267,2.15L619.808,351A4.141,4.141,0,0,1,616.084,351.155Z" fill="#98cffb"/>
        <path id="Trazado_22883" data-name="Trazado 22883" d="M627.715,357.871l-7.224-4.172c-.955-.551-.835-1.513.267-2.15l6.623-3.823a4.137,4.137,0,0,1,3.724-.155l7.225,4.171c.954.551.834,1.514-.268,2.15l-6.623,3.824A4.137,4.137,0,0,1,627.715,357.871Z" fill="#98cffb"/>
        <path id="Trazado_22884" data-name="Trazado 22884" d="M650.979,371.3,632.5,360.63c-.955-.551-.835-1.513.267-2.15l6.623-3.823a4.137,4.137,0,0,1,3.724-.155l18.483,10.671c.954.552.835,1.514-.267,2.15l-6.623,3.824A4.141,4.141,0,0,1,650.979,371.3Z" fill="#98cffb"/>
        <path id="Trazado_22885" data-name="Trazado 22885" d="M427.162,299.056l-7.225-4.171c-.954-.551-.835-1.514.267-2.15l6.623-3.824a4.14,4.14,0,0,1,3.724-.154l7.225,4.171c.954.551.835,1.514-.268,2.15l-6.623,3.824A4.138,4.138,0,0,1,427.162,299.056Z" fill="#98cffb"/>
        <path id="Trazado_22886" data-name="Trazado 22886" d="M438.793,305.772l-7.224-4.171c-.955-.551-.835-1.514.267-2.15l6.623-3.824a4.137,4.137,0,0,1,3.724-.155l7.224,4.172c.955.551.835,1.513-.267,2.149l-6.623,3.824A4.137,4.137,0,0,1,438.793,305.772Z" fill="#98cffb"/>
        <path id="Trazado_22887" data-name="Trazado 22887" d="M450.425,312.487l-7.225-4.171c-.954-.551-.834-1.514.268-2.15l6.623-3.824a4.14,4.14,0,0,1,3.724-.154l7.224,4.171c.955.551.835,1.514-.267,2.15l-6.623,3.824A4.14,4.14,0,0,1,450.425,312.487Z" fill="#98cffb"/>
        <path id="Trazado_22888" data-name="Trazado 22888" d="M462.057,319.2l-7.225-4.171c-.954-.551-.835-1.514.267-2.15l6.623-3.824a4.141,4.141,0,0,1,3.724-.154l7.225,4.171c.954.551.835,1.513-.268,2.15l-6.623,3.823A4.135,4.135,0,0,1,462.057,319.2Z" fill="#98cffb"/>
        <g id="Grupo_28975" data-name="Grupo 28975">
          <path id="Trazado_22889" data-name="Trazado 22889" d="M527.437,356.951l-60.973-35.2c-.955-.551-.835-1.513.267-2.15l6.623-3.824a4.14,4.14,0,0,1,3.724-.154l60.974,35.2c.954.551.835,1.514-.268,2.15l-6.623,3.824A4.137,4.137,0,0,1,527.437,356.951Z" fill="#98cffb"/>
          <path id="Trazado_22890" data-name="Trazado 22890" d="M531.846,359.5l-7.224-4.171c-.954-.551-.835-1.514.267-2.15l6.623-3.824a4.14,4.14,0,0,1,3.724-.154l7.225,4.171c.954.551.835,1.513-.268,2.15l-6.623,3.824A4.14,4.14,0,0,1,531.846,359.5Z" fill="#98cffb"/>
        </g>
        <path id="Trazado_22891" data-name="Trazado 22891" d="M543.478,366.212l-7.224-4.171c-.955-.552-.835-1.514.267-2.15l6.623-3.824a4.138,4.138,0,0,1,3.724-.155l7.224,4.171c.955.552.835,1.514-.267,2.15l-6.623,3.824A4.137,4.137,0,0,1,543.478,366.212Z" fill="#98cffb"/>
        <path id="Trazado_22892" data-name="Trazado 22892" d="M555.11,372.927l-7.225-4.171c-.954-.551-.834-1.514.268-2.15l6.623-3.824a4.14,4.14,0,0,1,3.724-.154l7.224,4.171c.955.551.835,1.514-.267,2.15l-6.623,3.824A4.14,4.14,0,0,1,555.11,372.927Z" fill="#98cffb"/>
        <path id="Trazado_22893" data-name="Trazado 22893" d="M566.741,379.643l-7.224-4.171c-.954-.551-.835-1.514.267-2.15l6.623-3.824a4.137,4.137,0,0,1,3.724-.154l7.225,4.17c.954.552.835,1.514-.268,2.151l-6.623,3.823A4.137,4.137,0,0,1,566.741,379.643Z" fill="#98cffb"/>
        <path id="Trazado_22894" data-name="Trazado 22894" d="M578.373,386.358l-7.224-4.171c-.955-.551-.835-1.513.267-2.15l6.623-3.824a4.14,4.14,0,0,1,3.724-.154l7.224,4.171c.955.551.835,1.514-.267,2.15L582.1,386.2A4.14,4.14,0,0,1,578.373,386.358Z" fill="#98cffb"/>
        <path id="Trazado_22895" data-name="Trazado 22895" d="M601.636,399.789l-7.224-4.171c-.954-.551-.835-1.513.267-2.15l6.623-3.823a4.138,4.138,0,0,1,3.724-.155l7.225,4.171c.954.551.835,1.514-.268,2.15l-6.623,3.824A4.14,4.14,0,0,1,601.636,399.789Z" fill="#98cffb"/>
        <path id="Trazado_22896" data-name="Trazado 22896" d="M590.005,393.074,582.78,388.9c-.954-.551-.834-1.514.268-2.15l6.623-3.824a4.14,4.14,0,0,1,3.724-.154l7.224,4.171c.955.551.835,1.513-.267,2.15l-6.623,3.823A4.138,4.138,0,0,1,590.005,393.074Z" fill="#98cffb"/>
        <path id="Trazado_22897" data-name="Trazado 22897" d="M613.972,392.667,595.489,382c-.954-.551-.835-1.513.268-2.15l6.623-3.824a4.14,4.14,0,0,1,3.724-.154l18.482,10.671c.955.551.835,1.514-.267,2.15l-6.623,3.824A4.137,4.137,0,0,1,613.972,392.667Z" fill="#98cffb"/>
        <path id="Trazado_22898" data-name="Trazado 22898" d="M571.853,368.35l7.224,4.171a4.137,4.137,0,0,0,3.724-.155l6.623-3.823c1.1-.637,1.222-1.6.267-2.15l-7.224-4.172a4.144,4.144,0,0,0-3.724.155L572.12,366.2C571.018,366.836,570.9,367.8,571.853,368.35Z" fill="#98cffb"/>
        <path id="Trazado_22899" data-name="Trazado 22899" d="M548.589,354.919l7.225,4.171a4.138,4.138,0,0,0,3.724-.155l6.623-3.823c1.1-.637,1.222-1.6.267-2.151L559.2,348.79a4.137,4.137,0,0,0-3.724.155l-6.623,3.824C547.754,353.4,547.635,354.368,548.589,354.919Z" fill="#98cffb"/>
        <path id="Trazado_22900" data-name="Trazado 22900" d="M536.958,348.2l7.224,4.171a4.14,4.14,0,0,0,3.724-.154l6.623-3.824c1.1-.636,1.222-1.6.267-2.15l-7.224-4.171a4.14,4.14,0,0,0-3.724.154l-6.623,3.824C536.123,346.689,536,347.652,536.958,348.2Z" fill="#98cffb"/>
        <path id="Trazado_22901" data-name="Trazado 22901" d="M525.326,341.487l7.224,4.172a4.141,4.141,0,0,0,3.724-.155l6.623-3.824c1.1-.636,1.222-1.6.268-2.15l-7.225-4.171a4.138,4.138,0,0,0-3.724.155l-6.623,3.823C524.491,339.974,524.371,340.936,525.326,341.487Z" fill="#98cffb"/>
        <path id="Trazado_22902" data-name="Trazado 22902" d="M513.694,334.772l7.225,4.171a4.141,4.141,0,0,0,3.724-.154l6.623-3.824c1.1-.637,1.222-1.6.267-2.15l-7.224-4.171a4.14,4.14,0,0,0-3.724.154l-6.623,3.824C512.859,333.258,512.74,334.221,513.694,334.772Z" fill="#98cffb"/>
        <path id="Trazado_22903" data-name="Trazado 22903" d="M502.063,328.056l7.224,4.172a4.137,4.137,0,0,0,3.724-.155l6.623-3.824c1.1-.636,1.222-1.6.267-2.15l-7.224-4.171a4.137,4.137,0,0,0-3.724.155l-6.623,3.823C501.228,326.543,501.108,327.505,502.063,328.056Z" fill="#98cffb"/>
        <path id="Trazado_22904" data-name="Trazado 22904" d="M490.431,321.341l7.224,4.171a4.14,4.14,0,0,0,3.724-.154L508,321.534c1.1-.637,1.222-1.6.268-2.15l-7.225-4.171a4.14,4.14,0,0,0-3.724.154l-6.623,3.824C489.6,319.827,489.476,320.79,490.431,321.341Z" fill="#98cffb"/>
        <path id="Trazado_22905" data-name="Trazado 22905" d="M478.8,314.625l7.225,4.171a4.14,4.14,0,0,0,3.724-.154l6.623-3.824c1.1-.636,1.222-1.6.267-2.15l-7.224-4.171a4.14,4.14,0,0,0-3.724.154l-6.623,3.824C477.964,313.112,477.845,314.074,478.8,314.625Z" fill="#98cffb"/>
        <path id="Trazado_22906" data-name="Trazado 22906" d="M467.168,307.91l7.224,4.171a4.137,4.137,0,0,0,3.724-.155l6.623-3.823c1.1-.637,1.222-1.6.267-2.15l-7.224-4.171a4.14,4.14,0,0,0-3.724.154l-6.623,3.824C466.333,306.4,466.213,307.359,467.168,307.91Z" fill="#98cffb"/>
        <path id="Trazado_22907" data-name="Trazado 22907" d="M455.536,301.194l7.224,4.171a4.14,4.14,0,0,0,3.724-.154l6.623-3.824c1.1-.636,1.222-1.6.268-2.15l-7.225-4.171a4.141,4.141,0,0,0-3.724.154l-6.623,3.824C454.7,299.681,454.581,300.643,455.536,301.194Z" fill="#98cffb"/>
        <path id="Trazado_22908" data-name="Trazado 22908" d="M432.273,287.763l18.482,10.671a4.14,4.14,0,0,0,3.724-.154l6.623-3.824c1.1-.636,1.222-1.6.268-2.15l-18.483-10.671a4.14,4.14,0,0,0-3.724.154l-6.623,3.824C431.438,286.249,431.318,287.212,432.273,287.763Z" fill="#98cffb"/>
        <path id="Trazado_22909" data-name="Trazado 22909" d="M619.787,367.537l7.224,4.171a4.14,4.14,0,0,0,3.724-.154l6.623-3.824c1.1-.637,1.222-1.6.268-2.15l-7.225-4.171a4.141,4.141,0,0,0-3.724.154l-6.623,3.824C618.952,366.023,618.833,366.986,619.787,367.537Z" fill="#98cffb"/>
        <path id="Trazado_22910" data-name="Trazado 22910" d="M608.155,360.821l7.225,4.171a4.14,4.14,0,0,0,3.724-.154l6.623-3.824c1.1-.636,1.222-1.6.267-2.15l-7.224-4.171a4.137,4.137,0,0,0-3.724.155l-6.623,3.823C607.321,359.308,607.2,360.27,608.155,360.821Z" fill="#98cffb"/>
        <path id="Trazado_22911" data-name="Trazado 22911" d="M596.524,354.106l7.224,4.171a4.137,4.137,0,0,0,3.724-.155l6.623-3.823c1.1-.637,1.222-1.6.267-2.15l-7.224-4.171a4.14,4.14,0,0,0-3.724.154l-6.623,3.824C595.689,352.592,595.569,353.555,596.524,354.106Z" fill="#98cffb"/>
        <path id="Trazado_22912" data-name="Trazado 22912" d="M584.892,347.39l7.224,4.171a4.14,4.14,0,0,0,3.724-.154l6.623-3.824c1.1-.636,1.222-1.6.268-2.15l-7.225-4.171a4.141,4.141,0,0,0-3.724.154l-6.623,3.824C584.057,345.877,583.938,346.839,584.892,347.39Z" fill="#98cffb"/>
        <path id="Trazado_22913" data-name="Trazado 22913" d="M573.26,340.675l7.225,4.171a4.138,4.138,0,0,0,3.724-.155l6.623-3.823c1.1-.637,1.222-1.6.267-2.15l-7.224-4.171a4.14,4.14,0,0,0-3.724.154l-6.623,3.824C572.426,339.161,572.306,340.124,573.26,340.675Z" fill="#98cffb"/>
        <path id="Trazado_22914" data-name="Trazado 22914" d="M561.629,333.959l7.224,4.171a4.14,4.14,0,0,0,3.724-.154l6.623-3.824c1.1-.636,1.222-1.6.267-2.15l-7.224-4.171a4.14,4.14,0,0,0-3.724.154l-6.623,3.824C560.794,332.445,560.674,333.408,561.629,333.959Z" fill="#98cffb"/>
        <path id="Trazado_22915" data-name="Trazado 22915" d="M550,327.244l7.224,4.171a4.137,4.137,0,0,0,3.724-.155l6.623-3.824c1.1-.636,1.222-1.6.268-2.149l-7.225-4.172a4.138,4.138,0,0,0-3.724.155l-6.623,3.824C549.162,325.73,549.043,326.693,550,327.244Z" fill="#98cffb"/>
        <path id="Trazado_22916" data-name="Trazado 22916" d="M538.365,320.528l7.225,4.171a4.14,4.14,0,0,0,3.724-.154l6.623-3.824c1.1-.636,1.222-1.6.267-2.15L548.98,314.4a4.14,4.14,0,0,0-3.724.154l-6.623,3.824C537.531,319.014,537.411,319.977,538.365,320.528Z" fill="#98cffb"/>
        <path id="Trazado_22917" data-name="Trazado 22917" d="M526.734,313.813l7.224,4.171a4.137,4.137,0,0,0,3.724-.155l6.623-3.824c1.1-.636,1.222-1.6.267-2.15l-7.224-4.171a4.138,4.138,0,0,0-3.724.155L527,311.663C525.9,312.3,525.779,313.262,526.734,313.813Z" fill="#98cffb"/>
        <path id="Trazado_22918" data-name="Trazado 22918" d="M515.1,307.1l7.224,4.171a4.14,4.14,0,0,0,3.724-.154l6.623-3.824c1.1-.636,1.222-1.6.268-2.15l-7.225-4.171a4.141,4.141,0,0,0-3.724.154l-6.623,3.824C514.267,305.583,514.148,306.546,515.1,307.1Z" fill="#98cffb"/>
        <path id="Trazado_22919" data-name="Trazado 22919" d="M503.47,300.381l7.225,4.171a4.137,4.137,0,0,0,3.724-.154l6.623-3.824c1.1-.636,1.222-1.6.267-2.15l-7.224-4.171a4.138,4.138,0,0,0-3.724.155l-6.623,3.823C502.636,298.868,502.516,299.83,503.47,300.381Z" fill="#98cffb"/>
        <path id="Trazado_22920" data-name="Trazado 22920" d="M491.839,293.666l7.224,4.171a4.14,4.14,0,0,0,3.724-.154l6.623-3.824c1.1-.637,1.222-1.6.267-2.15l-7.224-4.171a4.14,4.14,0,0,0-3.724.154l-6.623,3.824C491,292.152,490.884,293.115,491.839,293.666Z" fill="#98cffb"/>
        <path id="Trazado_22921" data-name="Trazado 22921" d="M480.207,286.95l7.224,4.171a4.137,4.137,0,0,0,3.724-.154l6.623-3.824c1.1-.636,1.222-1.6.268-2.15l-7.225-4.171a4.138,4.138,0,0,0-3.724.155l-6.623,3.823C479.372,285.437,479.253,286.4,480.207,286.95Z" fill="#98cffb"/>
        <path id="Trazado_22922" data-name="Trazado 22922" d="M456.944,273.519l18.483,10.671a4.138,4.138,0,0,0,3.723-.154l6.623-3.824c1.1-.636,1.222-1.6.268-2.15l-18.483-10.671a4.138,4.138,0,0,0-3.724.155l-6.623,3.823C456.109,272.006,455.989,272.968,456.944,273.519Z" fill="#98cffb"/>
        <g id="Grupo_28976" data-name="Grupo 28976">
          <path id="Trazado_22923" data-name="Trazado 22923" d="M625.394,377.731l7.225,4.171a4.138,4.138,0,0,0,3.724-.155l12.647-7.3c1.1-.636,1.222-1.6.267-2.15l-7.224-4.171a4.137,4.137,0,0,0-3.724.155l-12.647,7.3C624.56,376.217,624.44,377.18,625.394,377.731Z" fill="#98cffb"/>
          <path id="Trazado_22924" data-name="Trazado 22924" d="M619.083,381.374l7.225,4.171a4.138,4.138,0,0,0,3.723-.154l6.624-3.824c1.1-.636,1.221-1.6.267-2.15l-7.225-4.171a4.136,4.136,0,0,0-3.723.155l-6.624,3.823C618.248,379.861,618.129,380.823,619.083,381.374Z" fill="#98cffb"/>
          <path id="Trazado_22925" data-name="Trazado 22925" d="M607.451,374.659,621.6,382.83a4.137,4.137,0,0,0,3.724-.155l6.623-3.823c1.1-.637,1.222-1.6.267-2.15l-14.152-8.171a4.14,4.14,0,0,0-3.724.154l-6.623,3.824C606.617,373.145,606.5,374.108,607.451,374.659Z" fill="#98cffb"/>
        </g>
        <path id="Trazado_22926" data-name="Trazado 22926" d="M595.82,367.943l7.224,4.171a4.14,4.14,0,0,0,3.724-.154l6.623-3.824c1.1-.636,1.222-1.6.268-2.15l-7.225-4.171a4.14,4.14,0,0,0-3.724.154l-6.623,3.824C594.985,366.43,594.865,367.392,595.82,367.943Z" fill="#98cffb"/>
        <path id="Trazado_22927" data-name="Trazado 22927" d="M584.188,361.228l7.225,4.171a4.138,4.138,0,0,0,3.723-.154l6.624-3.824c1.1-.637,1.221-1.6.267-2.15L594.8,355.1a4.138,4.138,0,0,0-3.723.154l-6.624,3.824C583.353,359.714,583.234,360.677,584.188,361.228Z" fill="#98cffb"/>
        <path id="Trazado_22928" data-name="Trazado 22928" d="M572.556,354.512l7.225,4.171a4.14,4.14,0,0,0,3.724-.154l6.623-3.824c1.1-.636,1.222-1.6.267-2.15l-7.224-4.171a4.14,4.14,0,0,0-3.724.154l-6.623,3.824C571.722,353,571.6,353.961,572.556,354.512Z" fill="#98cffb"/>
        <path id="Trazado_22929" data-name="Trazado 22929" d="M560.925,347.8l7.224,4.171a4.137,4.137,0,0,0,3.724-.155l6.623-3.824c1.1-.636,1.222-1.6.268-2.149l-7.225-4.172a4.138,4.138,0,0,0-3.724.155l-6.623,3.824C560.09,346.283,559.97,347.246,560.925,347.8Z" fill="#98cffb"/>
        <path id="Trazado_22930" data-name="Trazado 22930" d="M549.293,341.081l7.225,4.171a4.138,4.138,0,0,0,3.723-.154l6.624-3.824c1.1-.636,1.221-1.6.267-2.15l-7.225-4.171a4.138,4.138,0,0,0-3.723.154l-6.624,3.824C548.458,339.567,548.339,340.53,549.293,341.081Z" fill="#98cffb"/>
        <path id="Trazado_22931" data-name="Trazado 22931" d="M537.661,334.366l7.225,4.171a4.137,4.137,0,0,0,3.724-.155l6.623-3.824c1.1-.636,1.222-1.6.267-2.15l-7.224-4.171a4.137,4.137,0,0,0-3.724.155l-6.623,3.824C536.827,332.852,536.707,333.815,537.661,334.366Z" fill="#98cffb"/>
        <path id="Trazado_22932" data-name="Trazado 22932" d="M526.03,327.65l7.224,4.171a4.14,4.14,0,0,0,3.724-.154l6.623-3.824c1.1-.636,1.222-1.6.268-2.15l-7.225-4.171a4.14,4.14,0,0,0-3.724.154L526.3,325.5C525.2,326.136,525.075,327.1,526.03,327.65Z" fill="#98cffb"/>
        <path id="Trazado_22933" data-name="Trazado 22933" d="M514.4,320.934l7.225,4.172a4.138,4.138,0,0,0,3.723-.155l6.624-3.824c1.1-.636,1.221-1.6.267-2.15l-7.225-4.171a4.136,4.136,0,0,0-3.723.155l-6.623,3.823C513.563,319.421,513.444,320.383,514.4,320.934Z" fill="#98cffb"/>
        <path id="Trazado_22934" data-name="Trazado 22934" d="M502.766,314.219l7.225,4.171a4.14,4.14,0,0,0,3.724-.154l6.623-3.824c1.1-.637,1.222-1.6.267-2.15l-7.224-4.171a4.14,4.14,0,0,0-3.724.154l-6.623,3.824C501.932,312.7,501.812,313.668,502.766,314.219Z" fill="#98cffb"/>
        <path id="Trazado_22935" data-name="Trazado 22935" d="M491.135,307.5l7.224,4.171a4.137,4.137,0,0,0,3.724-.154l6.623-3.824c1.1-.636,1.222-1.6.268-2.15l-7.225-4.171a4.138,4.138,0,0,0-3.724.155l-6.623,3.823C490.3,305.99,490.18,306.952,491.135,307.5Z" fill="#98cffb"/>
        <path id="Trazado_22936" data-name="Trazado 22936" d="M479.5,300.788l7.225,4.171a4.138,4.138,0,0,0,3.723-.154l6.624-3.824c1.1-.637,1.221-1.6.267-2.15l-7.225-4.171a4.138,4.138,0,0,0-3.723.154l-6.623,3.824C478.668,299.274,478.549,300.237,479.5,300.788Z" fill="#98cffb"/>
        <path id="Trazado_22937" data-name="Trazado 22937" d="M444.608,280.641l29.741,17.171a4.14,4.14,0,0,0,3.724-.154l6.623-3.824c1.1-.636,1.222-1.6.268-2.15l-29.742-17.171a4.138,4.138,0,0,0-3.723.154l-6.623,3.824C443.773,279.128,443.654,280.09,444.608,280.641Z" fill="#98cffb"/>
        <path id="Trazado_22938" data-name="Trazado 22938" d="M499.432,390.469l-60.341-34.837c-1.664-.961-1.455-2.639.466-3.748l32.2-18.591a7.216,7.216,0,0,1,6.492-.269l60.34,34.837c1.664.961,1.455,2.639-.466,3.748l-32.2,18.591A7.211,7.211,0,0,1,499.432,390.469Z" fill="#98cffb"/>
      </g>
    </g>
    <ellipse id="Elipse_1008" data-name="Elipse 1008" cx="23.917" cy="12.847" rx="23.917" ry="12.847" transform="translate(351.667 363.037)" fill="#dce5f2" style="mix-blend-mode: multiply;isolation: isolate"/>
    <ellipse id="Elipse_1009" data-name="Elipse 1009" cx="15.343" cy="28.146" rx="15.343" ry="28.146" transform="translate(446.107 305.573) rotate(-83.936)" fill="#dce5f2" style="mix-blend-mode: multiply;isolation: isolate"/>
    <ellipse id="Elipse_1010" data-name="Elipse 1010" cx="26.205" cy="14.076" rx="26.205" ry="14.076" transform="translate(532.928 391.643)" fill="#dce5f2" style="mix-blend-mode: multiply;isolation: isolate"/>
    <ellipse id="Elipse_1011" data-name="Elipse 1011" cx="52.932" cy="28.613" rx="52.932" ry="28.613" transform="translate(396.393 399.018)" fill="#dce5f2" style="mix-blend-mode: multiply;isolation: isolate"/>
    <g id="Grupo_29021" data-name="Grupo 29021">
      <g id="Grupo_28982" data-name="Grupo 28982">
        <path id="Trazado_22939" data-name="Trazado 22939" d="M563.087,277.486l-7.021-4.053,4.5-34.111,7.021,4.053Z" fill="#5ebaf9"/>
        <path id="Trazado_22940" data-name="Trazado 22940" d="M572.917,283.161l-7.021-4.053,6.513-49.415,7.021,4.053Z" fill="#3c335a"/>
        <path id="Trazado_22941" data-name="Trazado 22941" d="M553.257,271.811l-7.021-4.053,2.935-22.272,7.021,4.053Z" fill="#3c335a"/>
        <path id="Trazado_22942" data-name="Trazado 22942" d="M582.747,288.837l-7.021-4.053,7.905-59.982,7.021,4.053Z" fill="#5ebaf9"/>
        <g id="Grupo_28981" data-name="Grupo 28981">
          <g id="Grupo_28979" data-name="Grupo 28979">
            <rect id="Rectángulo_4389" data-name="Rectángulo 4389" width="50.975" height="3.939" transform="matrix(0.934, -0.357, 0.357, 0.934, 540.641, 260.014)" fill="#ffe262"/>
          </g>
          <g id="Grupo_28980" data-name="Grupo 28980">
            <path id="Trazado_22943" data-name="Trazado 22943" d="M589.486,250.186l7.924-9.757L585,238.443Z" fill="#ffe262"/>
          </g>
        </g>
      </g>
      <g id="Grupo_28989" data-name="Grupo 28989">
        <g id="Grupo_28984" data-name="Grupo 28984">
          <path id="Trazado_22944" data-name="Trazado 22944" d="M640.288,269.343c-11.913-6.878-22.927-2.155-24.6,10.548s6.626,28.578,18.539,35.456,22.928,2.155,24.6-10.548S652.2,276.221,640.288,269.343Zm-5.268,39.971c-8.788-5.074-14.911-16.785-13.676-26.156s9.361-12.856,18.149-7.782,14.912,16.785,13.677,26.156S643.809,314.387,635.02,309.314Z" fill="#ffe262"/>
          <g id="Grupo_28983" data-name="Grupo 28983">
            <path id="Trazado_22945" data-name="Trazado 22945" d="M638.8,280.656c-6.055-3.5-11.652-1.1-12.5,5.36s3.367,14.523,9.421,18.018,11.652,1.1,12.5-5.36S644.852,284.151,638.8,280.656Zm-2.678,20.312c-4.466-2.578-7.578-8.529-6.95-13.292s4.757-6.533,9.223-3.954,7.578,8.529,6.951,13.292S640.587,303.547,636.12,300.968Z" fill="#3c335a"/>
          </g>
          <path id="Trazado_22946" data-name="Trazado 22946" d="M653.17,301.532c-.919,6.97-5.649,10.679-11.628,10.038l1.523,6.835c8.1.869,14.517-4.159,15.762-13.606a25.85,25.85,0,0,0,.206-3.874l-5.712-2.251A19.277,19.277,0,0,1,653.17,301.532Z" fill="#5ebaf9"/>
          <path id="Trazado_22947" data-name="Trazado 22947" d="M642.935,318.393l-1.489-6.832a16.78,16.78,0,0,1-6.426-2.247,25.115,25.115,0,0,1-5.212-4.067l-2.648,4.587a33.954,33.954,0,0,0,7.065,5.513A22.743,22.743,0,0,0,642.935,318.393Z" fill="#3c335a"/>
          <path id="Trazado_22948" data-name="Trazado 22948" d="M622.69,278.6c2.906-5.8,9.633-7.361,16.8-3.222a25.439,25.439,0,0,1,5.813,4.693l2.862-4.365a34.473,34.473,0,0,0-7.88-6.361c-9.719-5.611-18.838-3.5-22.777,4.367Z" fill="#e568e3"/>
        </g>
        <g id="Grupo_28985" data-name="Grupo 28985">
          <path id="Trazado_22949" data-name="Trazado 22949" d="M654.326,289.856l-.268-.625,12.317-5.282,8.887,5.132-.34.588-8.592-4.96Z" fill="#3c335a"/>
        </g>
        <g id="Grupo_28986" data-name="Grupo 28986">
          <path id="Trazado_22950" data-name="Trazado 22950" d="M669.891,338.566l-8.838-5.1-.045-.1L652.256,312.7l.627-.266,8.707,20.553,8.641,4.987Z" fill="#3c335a"/>
        </g>
        <g id="Grupo_28987" data-name="Grupo 28987">
          <path id="Trazado_22951" data-name="Trazado 22951" d="M623.653,272.244,614.535,254.8l-8.653-5,.34-.589,8.825,5.095,9.21,17.615Z" fill="#3c335a"/>
        </g>
        <g id="Grupo_28988" data-name="Grupo 28988">
          <path id="Trazado_22952" data-name="Trazado 22952" d="M607.146,302.341l-8.921-5.151.34-.588,8.556,4.94,12.4-8.228.377.566Z" fill="#3c335a"/>
        </g>
        <path id="Trazado_22953" data-name="Trazado 22953" d="M614.943,250.545l-8.388-4.843.208-1.579,8.388,4.843Z" fill="#b8cbe9"/>
        <path id="Trazado_22954" data-name="Trazado 22954" d="M612.808,251.983l-6.581-3.8.208-1.579,6.581,3.8Z" fill="#b8cbe9"/>
        <path id="Trazado_22955" data-name="Trazado 22955" d="M670.554,334.4l-8.388-4.843.208-1.579,8.388,4.843Z" fill="#b8cbe9"/>
        <path id="Trazado_22956" data-name="Trazado 22956" d="M668.419,335.843l-6.581-3.8.208-1.579,6.581,3.8Z" fill="#b8cbe9"/>
        <path id="Trazado_22957" data-name="Trazado 22957" d="M607.278,297.986l-8.388-4.843.208-1.579,8.388,4.843Z" fill="#b8cbe9"/>
        <path id="Trazado_22958" data-name="Trazado 22958" d="M606.951,300.468l-8.388-4.843.208-1.579,8.388,4.843Z" fill="#b8cbe9"/>
        <path id="Trazado_22959" data-name="Trazado 22959" d="M675.595,285.563l-8.388-4.843.208-1.579,8.388,4.843Z" fill="#b8cbe9"/>
        <path id="Trazado_22960" data-name="Trazado 22960" d="M675.268,288.044l-8.388-4.843.208-1.579,8.388,4.843Z" fill="#b8cbe9"/>
      </g>
      <g id="Grupo_28994" data-name="Grupo 28994">
        <path id="Trazado_22961" data-name="Trazado 22961" d="M551.916,185.459l-39.088-22.567.209-1.584,39.088,22.567Z" fill="#5ebaf9"/>
        <path id="Trazado_22962" data-name="Trazado 22962" d="M551.558,188.174,512.47,165.607l.209-1.584,39.088,22.567Z" fill="#b8cbe9"/>
        <path id="Trazado_22963" data-name="Trazado 22963" d="M551.2,190.89l-39.088-22.567.209-1.584,39.088,22.567Z" fill="#b8cbe9"/>
        <path id="Trazado_22964" data-name="Trazado 22964" d="M544.9,190.175l-33.145-19.136.209-1.584,33.145,19.136Z" fill="#b8cbe9"/>
        <g id="Grupo_28990" data-name="Grupo 28990">
          <path id="Trazado_22965" data-name="Trazado 22965" d="M557.812,192.9c-.247,1.872-1.034,2.53-2.177,1.87-1.009-.583-1.559-1.985-1.334-3.816.243-1.847,1.123-2.432,2.171-1.827C557.56,189.754,558.044,191.145,557.812,192.9ZM555,191.365c-.189,1.432.118,2.484.753,2.851.715.412,1.174-.281,1.359-1.687.178-1.355-.03-2.432-.753-2.85C555.746,189.326,555.2,189.865,555,191.365Z" fill="#3c335a"/>
          <path id="Trazado_22966" data-name="Trazado 22966" d="M558.367,195.325a4.025,4.025,0,0,0,1.1,1.008c.9.518,1.256.068,1.307-.394a2.072,2.072,0,0,0-1.188-1.872l-.389-.224.074-.559.388.225c.509.293,1.189.385,1.275-.268a1.382,1.382,0,0,0-.8-1.352,1.712,1.712,0,0,0-1.08-.232l-.112-.648a2.628,2.628,0,0,1,2.71,2.522.839.839,0,0,1-1.124.745,2.486,2.486,0,0,1,.964,2.1c-.116.882-.861,1.281-2.1.566a4.434,4.434,0,0,1-1.294-1.148Z" fill="#3c335a"/>
        </g>
        <path id="Trazado_22967" data-name="Trazado 22967" d="M549.768,201.754l-39.088-22.567.209-1.584,39.088,22.567Z" fill="#5ebaf9"/>
        <path id="Trazado_22968" data-name="Trazado 22968" d="M549.41,204.47,510.323,181.9l.209-1.584,39.088,22.567Z" fill="#b8cbe9"/>
        <path id="Trazado_22969" data-name="Trazado 22969" d="M549.053,207.186l-39.088-22.567.209-1.584L549.261,205.6Z" fill="#b8cbe9"/>
        <path id="Trazado_22970" data-name="Trazado 22970" d="M542.752,206.47l-33.145-19.136.209-1.584,33.145,19.136Z" fill="#b8cbe9"/>
        <g id="Grupo_28991" data-name="Grupo 28991">
          <path id="Trazado_22971" data-name="Trazado 22971" d="M555.665,209.194c-.247,1.872-1.034,2.53-2.178,1.87-1.009-.583-1.558-1.985-1.334-3.816.243-1.847,1.123-2.432,2.171-1.827C555.413,206.049,555.9,207.44,555.665,209.194Zm-2.814-1.534c-.19,1.432.118,2.484.752,2.85.715.413,1.174-.28,1.359-1.686.179-1.355-.03-2.432-.753-2.85C553.6,205.621,553.048,206.16,552.851,207.66Z" fill="#3c335a"/>
          <path id="Trazado_22972" data-name="Trazado 22972" d="M558.1,213.626l.2-1.5-2.4-1.385.065-.491,2.767-2.186.754.435-.451,3.423.723.417-.077.585-.723-.418-.2,1.5Zm.275-2.084.242-1.838q.057-.432.138-.85c-.225.216-.383.38-.56.552l-1.51,1.143C556.684,210.566,558.375,211.542,558.375,211.542Z" fill="#3c335a"/>
        </g>
        <path id="Trazado_22973" data-name="Trazado 22973" d="M556.211,152.868,517.124,130.3l.209-1.584,39.088,22.567Z" fill="#5ebaf9"/>
        <path id="Trazado_22974" data-name="Trazado 22974" d="M555.853,155.584l-39.088-22.567.209-1.584L556.062,154Z" fill="#b8cbe9"/>
        <path id="Trazado_22975" data-name="Trazado 22975" d="M555.5,158.3l-39.088-22.567.209-1.584L555.7,156.715Z" fill="#b8cbe9"/>
        <path id="Trazado_22976" data-name="Trazado 22976" d="M549.195,157.585,516.05,138.448l.209-1.584L549.4,156Z" fill="#b8cbe9"/>
        <g id="Grupo_28992" data-name="Grupo 28992">
          <path id="Trazado_22977" data-name="Trazado 22977" d="M562.107,160.309c-.246,1.872-1.034,2.53-2.177,1.87-1.009-.583-1.559-1.986-1.334-3.816.243-1.847,1.124-2.432,2.172-1.827C561.856,157.164,562.339,158.555,562.107,160.309Zm-2.814-1.534c-.189,1.432.118,2.484.753,2.85.715.413,1.174-.279,1.359-1.685.179-1.356-.03-2.434-.753-2.851C560.041,156.736,559.49,157.275,559.293,158.775Z" fill="#3c335a"/>
          <path id="Trazado_22978" data-name="Trazado 22978" d="M564.533,159.558c-.015-.009-.98-.011-.98-.011l-.061-.645,1.213.007.595.344-.726,5.507-.675-.39Z" fill="#3c335a"/>
        </g>
        <path id="Trazado_22979" data-name="Trazado 22979" d="M554.064,169.163,514.976,146.6l.209-1.584,39.088,22.567Z" fill="#5ebaf9"/>
        <path id="Trazado_22980" data-name="Trazado 22980" d="M553.706,171.879l-39.088-22.567.209-1.584,39.088,22.567Z" fill="#b8cbe9"/>
        <path id="Trazado_22981" data-name="Trazado 22981" d="M553.348,174.6,514.26,152.028l.209-1.584,39.088,22.567Z" fill="#b8cbe9"/>
        <path id="Trazado_22982" data-name="Trazado 22982" d="M547.047,173.88,513.9,154.744l.209-1.584L547.256,172.3Z" fill="#b8cbe9"/>
        <g id="Grupo_28993" data-name="Grupo 28993">
          <path id="Trazado_22983" data-name="Trazado 22983" d="M559.96,176.6c-.246,1.873-1.034,2.53-2.178,1.87-1.009-.583-1.558-1.985-1.334-3.816.243-1.847,1.124-2.432,2.172-1.827C559.709,173.458,560.191,174.85,559.96,176.6Zm-2.815-1.534c-.188,1.432.119,2.484.753,2.851.715.412,1.174-.28,1.36-1.687.178-1.355-.031-2.432-.753-2.85C557.894,173.03,557.343,173.57,557.145,175.069Z" fill="#3c335a"/>
          <path id="Trazado_22984" data-name="Trazado 22984" d="M560.236,179.789l.061-.458.622-.251c1.494-.578,2.184-.945,2.3-1.771a1.618,1.618,0,0,0-.882-1.667,1.48,1.48,0,0,0-1.158-.167l-.154-.654a2,2,0,0,1,1.536.285,2.585,2.585,0,0,1,1.369,2.513c-.134,1.017-.934,1.44-2.169,1.93l-.465.168c0,.017,2.315,1.356,2.315,1.356l-.081.618Z" fill="#3c335a"/>
        </g>
      </g>
      <g id="Grupo_28998" data-name="Grupo 28998">
        <g id="Grupo_28997" data-name="Grupo 28997">
          <g id="Grupo_28995" data-name="Grupo 28995">
            <path id="Trazado_22985" data-name="Trazado 22985" d="M516.9,204.364c-.14,1.057-1.056,1.45-2.047.878a3.242,3.242,0,0,1-1.542-2.95c.139-1.057,1.055-1.449,2.046-.877A3.24,3.24,0,0,1,516.9,204.364Z" fill="#5ebaf9"/>
            <path id="Trazado_22986" data-name="Trazado 22986" d="M511.5,207.819c.26-1.978,1.415-3.037,3.27-1.967a5.127,5.127,0,0,1,2.325,5.2Z" fill="#5ebaf9"/>
          </g>
          <g id="Grupo_28996" data-name="Grupo 28996">
            <path id="Trazado_22987" data-name="Trazado 22987" d="M516.783,213.149a6,6,0,0,1-2.959-.871c-3.246-1.874-5.514-6.218-5.056-9.685a4.286,4.286,0,0,1,2.226-3.474,5,5,0,0,1,4.693.483c3.246,1.874,5.514,6.218,5.058,9.685a4.3,4.3,0,0,1-2.226,3.475A3.909,3.909,0,0,1,516.783,213.149ZM512.73,199.23a3.407,3.407,0,0,0-1.515.337,3.807,3.807,0,0,0-1.951,3.091c-.434,3.284,1.724,7.406,4.81,9.187a4.519,4.519,0,0,0,4.223.468,3.808,3.808,0,0,0,1.952-3.091c.433-3.284-1.726-7.406-4.812-9.187A5.49,5.49,0,0,0,512.73,199.23Z" fill="#3c335a"/>
          </g>
        </g>
        <path id="Trazado_22988" data-name="Trazado 22988" d="M516.436,216.038l-8.539-4.93.114-.864,8.539,4.93Z" fill="#e568e3"/>
        <path id="Trazado_22989" data-name="Trazado 22989" d="M519.151,219.466l-11.481-6.629.114-.864,11.481,6.629Z" fill="#b8cbe9"/>
      </g>
      <g id="Grupo_29002" data-name="Grupo 29002">
        <g id="Grupo_29001" data-name="Grupo 29001">
          <g id="Grupo_28999" data-name="Grupo 28999">
            <path id="Trazado_22990" data-name="Trazado 22990" d="M537.049,215.609c-.139,1.056-1.055,1.449-2.046.877a3.238,3.238,0,0,1-1.542-2.949c.139-1.057,1.055-1.45,2.046-.878A3.239,3.239,0,0,1,537.049,215.609Z" fill="#5ebaf9"/>
            <path id="Trazado_22991" data-name="Trazado 22991" d="M531.652,219.063c.261-1.978,1.415-3.037,3.27-1.966a5.126,5.126,0,0,1,2.326,5.2Z" fill="#5ebaf9"/>
          </g>
          <g id="Grupo_29000" data-name="Grupo 29000">
            <path id="Trazado_22992" data-name="Trazado 22992" d="M536.937,224.394a6,6,0,0,1-2.959-.871c-3.245-1.874-5.512-6.219-5.056-9.686a4.292,4.292,0,0,1,2.225-3.474,5,5,0,0,1,4.7.484c3.245,1.873,5.512,6.218,5.056,9.685a4.287,4.287,0,0,1-2.225,3.474A3.9,3.9,0,0,1,536.937,224.394Zm-4.052-13.919a3.407,3.407,0,0,0-1.516.336,3.811,3.811,0,0,0-1.951,3.092c-.433,3.284,1.726,7.4,4.81,9.187a4.521,4.521,0,0,0,4.224.468,3.807,3.807,0,0,0,1.951-3.092c.433-3.284-1.725-7.406-4.81-9.187A5.5,5.5,0,0,0,532.885,210.475Z" fill="#3c335a"/>
          </g>
        </g>
        <path id="Trazado_22993" data-name="Trazado 22993" d="M536.591,227.282l-8.539-4.93.114-.864,8.539,4.93Z" fill="#e568e3"/>
        <path id="Trazado_22994" data-name="Trazado 22994" d="M539.306,230.711l-11.482-6.629.114-.864,11.482,6.629Z" fill="#b8cbe9"/>
      </g>
      <g id="Grupo_29006" data-name="Grupo 29006">
        <g id="Grupo_29005" data-name="Grupo 29005">
          <g id="Grupo_29003" data-name="Grupo 29003">
            <path id="Trazado_22995" data-name="Trazado 22995" d="M512.784,226.205c-.139,1.057-1.055,1.45-2.046.878a3.242,3.242,0,0,1-1.543-2.95c.14-1.056,1.056-1.449,2.047-.877A3.241,3.241,0,0,1,512.784,226.205Z" fill="#5ebaf9"/>
            <path id="Trazado_22996" data-name="Trazado 22996" d="M507.387,229.66c.261-1.978,1.415-3.037,3.27-1.966a5.124,5.124,0,0,1,2.326,5.2Z" fill="#5ebaf9"/>
          </g>
          <g id="Grupo_29004" data-name="Grupo 29004">
            <path id="Trazado_22997" data-name="Trazado 22997" d="M512.672,234.99a5.978,5.978,0,0,1-2.958-.871c-3.246-1.873-5.514-6.218-5.057-9.685a4.289,4.289,0,0,1,2.227-3.474,5,5,0,0,1,4.693.483c3.245,1.874,5.514,6.219,5.058,9.685a4.293,4.293,0,0,1-2.228,3.475A3.9,3.9,0,0,1,512.672,234.99Zm-4.052-13.918a3.407,3.407,0,0,0-1.516.336,3.812,3.812,0,0,0-1.951,3.091c-.433,3.285,1.725,7.406,4.811,9.187a4.52,4.52,0,0,0,4.222.468,3.809,3.809,0,0,0,1.953-3.091c.432-3.284-1.726-7.4-4.812-9.187A5.491,5.491,0,0,0,508.62,221.072Z" fill="#3c335a"/>
          </g>
        </g>
        <path id="Trazado_22998" data-name="Trazado 22998" d="M512.325,237.879l-8.539-4.93.114-.864,8.539,4.93Z" fill="#e568e3"/>
        <path id="Trazado_22999" data-name="Trazado 22999" d="M515.04,241.307l-11.482-6.629.114-.864,11.482,6.629Z" fill="#b8cbe9"/>
      </g>
      <g id="Grupo_29010" data-name="Grupo 29010">
        <g id="Grupo_29009" data-name="Grupo 29009">
          <g id="Grupo_29007" data-name="Grupo 29007">
            <path id="Trazado_23000" data-name="Trazado 23000" d="M532.939,237.45c-.14,1.056-1.056,1.449-2.047.877a3.241,3.241,0,0,1-1.542-2.949c.139-1.057,1.056-1.45,2.047-.878A3.241,3.241,0,0,1,532.939,237.45Z" fill="#5ebaf9"/>
            <path id="Trazado_23001" data-name="Trazado 23001" d="M527.542,240.9c.261-1.978,1.415-3.037,3.27-1.966a5.125,5.125,0,0,1,2.325,5.2Z" fill="#5ebaf9"/>
          </g>
          <g id="Grupo_29008" data-name="Grupo 29008">
            <path id="Trazado_23002" data-name="Trazado 23002" d="M532.827,246.234a5.985,5.985,0,0,1-2.959-.871c-3.245-1.873-5.513-6.218-5.057-9.685a4.291,4.291,0,0,1,2.226-3.474,5,5,0,0,1,4.7.484c3.245,1.873,5.513,6.218,5.057,9.685a4.291,4.291,0,0,1-2.226,3.474A3.9,3.9,0,0,1,532.827,246.234Zm-4.053-13.918a3.4,3.4,0,0,0-1.515.336,3.807,3.807,0,0,0-1.951,3.092c-.433,3.284,1.725,7.4,4.81,9.187a4.52,4.52,0,0,0,4.224.467,3.808,3.808,0,0,0,1.951-3.091c.433-3.284-1.726-7.405-4.811-9.187A5.488,5.488,0,0,0,528.774,232.316Z" fill="#3c335a"/>
          </g>
        </g>
        <path id="Trazado_23003" data-name="Trazado 23003" d="M532.48,249.124l-8.539-4.93.114-.864,8.539,4.93Z" fill="#e568e3"/>
        <path id="Trazado_23004" data-name="Trazado 23004" d="M535.2,252.552l-11.482-6.629.114-.864,11.482,6.629Z" fill="#b8cbe9"/>
      </g>
      <g id="Grupo_29020" data-name="Grupo 29020">
        <g id="Grupo_29014" data-name="Grupo 29014">
          <g id="Grupo_29011" data-name="Grupo 29011">
            <path id="Trazado_23005" data-name="Trazado 23005" d="M676.935,270.84,568.086,208l5.494-41.684.4.053-5.459,41.417,108.617,62.71Z" fill="#3c335a"/>
          </g>
          <g id="Grupo_29012" data-name="Grupo 29012">
            <path id="Trazado_23006" data-name="Trazado 23006" d="M572.157,167.263l1.557-.432,1.392.821-1.014-3.69Z" fill="#3c335a"/>
          </g>
          <g id="Grupo_29013" data-name="Grupo 29013">
            <path id="Trazado_23007" data-name="Trazado 23007" d="M675.315,271.39l1.291-.972.2-1.6,2.31,3.051Z" fill="#3c335a"/>
          </g>
        </g>
        <g id="Grupo_29015" data-name="Grupo 29015">
          <path id="Trazado_23008" data-name="Trazado 23008" d="M642.972,212.176a2.592,2.592,0,0,1-1.3-.35l-63.6-36.721a2.612,2.612,0,1,1,2.612-4.523l63.6,36.722a2.611,2.611,0,0,1-1.308,4.872Z" fill="#e568e3"/>
        </g>
        <g id="Grupo_29016" data-name="Grupo 29016">
          <path id="Trazado_23009" data-name="Trazado 23009" d="M655.034,227.5a2.6,2.6,0,0,1-1.3-.35l-76.69-44.276a2.611,2.611,0,0,1,2.611-4.523l76.691,44.277a2.611,2.611,0,0,1-1.308,4.872Z" fill="#5ebaf9"/>
        </g>
        <g id="Grupo_29017" data-name="Grupo 29017">
          <path id="Trazado_23010" data-name="Trazado 23010" d="M621.028,216.232a2.6,2.6,0,0,1-1.3-.35l-43.709-25.236a2.611,2.611,0,1,1,2.611-4.522l43.709,25.235a2.611,2.611,0,0,1-1.309,4.873Z" fill="#e568e3"/>
        </g>
        <g id="Grupo_29018" data-name="Grupo 29018">
          <path id="Trazado_23011" data-name="Trazado 23011" d="M632.656,231.307a2.608,2.608,0,0,1-1.3-.35l-56.36-32.54A2.611,2.611,0,1,1,577.6,193.9l56.361,32.54a2.611,2.611,0,0,1-1.308,4.872Z" fill="#ffe262"/>
        </g>
        <g id="Grupo_29019" data-name="Grupo 29019">
          <path id="Trazado_23012" data-name="Trazado 23012" d="M663.472,257.461a2.592,2.592,0,0,1-1.3-.35l-88.2-50.922a2.611,2.611,0,0,1,2.611-4.523l88.2,50.922a2.611,2.611,0,0,1-1.307,4.873Z" fill="#5ebaf9"/>
        </g>
      </g>
    </g>
    <g id="Grupo_29026" data-name="Grupo 29026">
      <path id="Trazado_23013" data-name="Trazado 23013" d="M537.884,336.742a10.652,10.652,0,0,1,.917,4.083c0,2.167,1.331,7.087,3.457,7.919s-.32-7.9,0-8.752,2.293.75,2.293.75l-2.833-7.167Z" fill="#ffaa83"/>
      <path id="Trazado_23014" data-name="Trazado 23014" d="M572.759,328.764h-29l-1.445-37.514c-.3-4.606-2.017-9.508,6.972-9.508H565.3c8.147,0,6.353,10.288,6.177,14.352Z" fill="#f1f9fe"/>
      <g id="Grupo_29023" data-name="Grupo 29023">
        <path id="Trazado_23015" data-name="Trazado 23015" d="M577.68,299.756H560.513l2.18-24.917H579.86Z" fill="#f9f9f9"/>
        <path id="Trazado_23016" data-name="Trazado 23016" d="M571.366,280.2h-7.557l.108-1.233h7.557Z" fill="#3c335a"/>
        <path id="Trazado_23017" data-name="Trazado 23017" d="M573.459,278.173h-9.472l.108-1.233h9.472Z" fill="#3c335a"/>
        <path id="Trazado_23018" data-name="Trazado 23018" d="M569.29,282.228h-5.658l.108-1.233H569.4Z" fill="#3c335a"/>
        <path id="Trazado_23019" data-name="Trazado 23019" d="M567.712,284.256h-4.257l.108-1.233h4.257Z" fill="#9a87d6"/>
        <path id="Trazado_23020" data-name="Trazado 23020" d="M575.46,291.715h-5.151l.054-.617h5.151Z" fill="#9a87d6"/>
        <path id="Trazado_23021" data-name="Trazado 23021" d="M575.359,292.867h-5.151l.054-.617h5.151Z" fill="#9a87d6"/>
        <path id="Trazado_23022" data-name="Trazado 23022" d="M575.249,294.127H570.1l.054-.616H575.3Z" fill="#9a87d6"/>
        <path id="Trazado_23023" data-name="Trazado 23023" d="M575.148,295.279H570l.054-.617H575.2Z" fill="#9a87d6"/>
        <g id="Grupo_29022" data-name="Grupo 29022">
          <path id="Trazado_23024" data-name="Trazado 23024" d="M577.441,286.082a3.475,3.475,0,0,0-3.517-3.854,4.29,4.29,0,0,0-4.191,3.854,3.475,3.475,0,0,0,3.517,3.853A4.291,4.291,0,0,0,577.441,286.082Z" fill="#ffe262"/>
          <path id="Trazado_23025" data-name="Trazado 23025" d="M573.587,286.082l-3.867.43a3.476,3.476,0,0,0,1.261,2.633l2.5-1.849Z" fill="#4cb602"/>
          <path id="Trazado_23026" data-name="Trazado 23026" d="M573.587,286.082l-2.8,2.89a3.53,3.53,0,0,0,2.464.963,4.233,4.233,0,0,0,3.147-1.46Z" fill="#ffe262"/>
          <path id="Trazado_23027" data-name="Trazado 23027" d="M576.927,283.856l-3.34,2.226,2.283,2.9a4.248,4.248,0,0,0,1.571-2.9A3.6,3.6,0,0,0,576.927,283.856Z" fill="#5ebaf9"/>
          <path id="Trazado_23028" data-name="Trazado 23028" d="M573.587,286.082l3.677-1.514a3.409,3.409,0,0,0-1.2-1.65Z" fill="#5ebaf9"/>
          <path id="Trazado_23029" data-name="Trazado 23029" d="M573.587,286.082l2.68-3a3.543,3.543,0,0,0-2.343-.853,4,4,0,0,0-1.168.176Z" fill="#e568e3"/>
        </g>
      </g>
      <path id="Trazado_23030" data-name="Trazado 23030" d="M543.828,400.784s-1.621-2.709-4.25-1.417c-2.181,1.071,1.389,8.891,2.543,11.656a4.442,4.442,0,0,0,4.873,2.761,2.557,2.557,0,0,0,1.75-1.834c.5-1.583.25-3.08-.916-5.457A36.677,36.677,0,0,0,543.828,400.784Z" fill="#e568e3"/>
      <path id="Trazado_23031" data-name="Trazado 23031" d="M544.051,403.617c-.125.375-.687,3.749-.687,3.749a2.664,2.664,0,0,0,2.849,2.656c.109-.007.222-.017.338-.03a2.3,2.3,0,0,0,2-2.055l0-4.32Z" fill="#ffaa83"/>
      <path id="Trazado_23032" data-name="Trazado 23032" d="M574.586,400.784s1.977-2.273,4.25-1.417c1.882.708-1.388,8.891-2.542,11.656a4.444,4.444,0,0,1-4.874,2.761,2.557,2.557,0,0,1-1.75-1.834c-.5-1.583-.25-3.08.916-5.457A36.677,36.677,0,0,1,574.586,400.784Z" fill="#e568e3"/>
      <path id="Trazado_23033" data-name="Trazado 23033" d="M574.363,403.617c.125.375.688,3.749.688,3.749a2.665,2.665,0,0,1-2.85,2.656c-.109-.007-.222-.017-.338-.03a2.3,2.3,0,0,1-2-2.055l-.149-4.737Z" fill="#ffaa83"/>
      <path id="Trazado_23034" data-name="Trazado 23034" d="M548.286,282.742s-6.849-1.833-9.042,3.167-6.693,22.7-7.026,28.352,5.026,23.648,5.026,23.648,4.807.09,6.307-3.667l-3.307-19.981,5.474-20.563Z" fill="#f1f9fe"/>
      <path id="Trazado_23035" data-name="Trazado 23035" d="M548.286,282.742a12.275,12.275,0,0,0-3.193-.316l-1.9,9.1-5.473,23.1,3.295,22.362a5.285,5.285,0,0,0,2.535-2.744l-3.307-19.981,5.474-20.563Z" fill="#cee8f4"/>
      <path id="Trazado_23036" data-name="Trazado 23036" d="M543.759,327.764s-1.375,10.811-1.541,17.645,1.708,20.833.771,27-.959,21.5-.782,25.666c.118,2.77.4,5.834.581,7.578a2,2,0,0,0,1.667,1.771,11.567,11.567,0,0,0,2.322.163,2.8,2.8,0,0,0,2.664-2.5c.583-5.361,2.11-20.454,2.11-31.511,0,0,8.5-23.666,7.5-47s-14.5,1.189-14.5,1.189Z" fill="#3c335a"/>
      <path id="Trazado_23037" data-name="Trazado 23037" d="M543.554,399.653c-.177-4.247-.156-19.877.781-26.163s-.937-20.557-.77-27.522,1.541-17.987,1.541-17.987h.792s5.554-10.283,9.8-11.381c-4.3-1.267-11.148,11.164-11.148,11.164h-.792s-1.375,10.811-1.541,17.645,1.708,20.833.771,27-.959,21.5-.782,25.666c.118,2.77.4,5.834.581,7.578a1.978,1.978,0,0,0,1.34,1.66C543.95,405.526,543.671,402.445,543.554,399.653Z" fill="#292344"/>
      <path id="Trazado_23038" data-name="Trazado 23038" d="M577.876,297.517l-1.479-1.525a38.736,38.736,0,0,0-.13-6.057c-.341-2.318.387-2.193.8-1.568a8.6,8.6,0,0,1,1.312,3.348c-.067.773.77-8.8.77-8.8s2.961,2.512,1.711,7.887-.625,7-.625,7Z" fill="#ffaa83"/>
      <path id="Trazado_23039" data-name="Trazado 23039" d="M572.371,327.488s.863,10.738,1.339,17.557-.764,20.889.452,27.007,1.931,21.435,1.943,25.605c.006,2.19-.084,4.568-.171,6.332a3.5,3.5,0,0,1-3.169,3.339,8.876,8.876,0,0,1-1.862-.023,1.857,1.857,0,0,1-1.589-1.561c-.7-4.471-3.091-20.284-3.641-31.885a1.767,1.767,0,0,0-.091-.488c-.874-2.6-8.67-26.417-8.724-48.462-.058-23.355,15.722,2.615,15.722,2.615Z" fill="#3c335a"/>
      <path id="Trazado_23040" data-name="Trazado 23040" d="M574.162,372.052c-1.216-6.118.024-20.188-.452-27.007s-1.339-17.557-1.339-17.557l.209.036s-8.495-13.98-13-12.2c4.646,1.43,11.207,12.322,11.207,12.322l-.209-.036s.867,10.84,1.346,17.723-.754,21.086.464,27.262,1.94,21.637,1.954,25.847c.007,2.21-.082,4.61-.168,6.391a3.581,3.581,0,0,1-1.139,2.446,3.5,3.5,0,0,0,2.9-3.289c.087-1.764.177-4.142.171-6.332C576.093,393.487,575.378,378.17,574.162,372.052Z" fill="#292344"/>
      <path id="Trazado_23041" data-name="Trazado 23041" d="M579.218,314.575l2.354-3.208-.793-14.788-3.429.03Z" fill="#afd5e2"/>
      <path id="Trazado_23042" data-name="Trazado 23042" d="M564.608,265.91c-.878,6.964-4.282,13.092-6.741,13.313-3.329.3-9.487-5.647-9.7-11.458s3.4-10.662,8.077-10.836S565.335,260.14,564.608,265.91Z" fill="#ffaa83"/>
      <path id="Trazado_23043" data-name="Trazado 23043" d="M556.421,273.453l-3.9,3.019v5.551s5.356,2.181,8.784,0l-.623-6.7Z" fill="#ffaa83"/>
      <path id="Trazado_23044" data-name="Trazado 23044" d="M550.894,269.985a1.992,1.992,0,0,1-1.245,2.466c-.9.165-1.815-.673-2.033-1.871a1.994,1.994,0,0,1,1.245-2.467C549.766,267.949,550.676,268.787,550.894,269.985Z" fill="#ffaa83"/>
      <path id="Trazado_23045" data-name="Trazado 23045" d="M560.679,275.323l-4.258-1.87-3.9,3.019v2.31a4.862,4.862,0,0,0,2.216,1.235c1.271.061,4.7.4,5.633-.782.14-.177.353-.442.6-.773Z" fill="#ce7c56"/>
      <path id="Trazado_23046" data-name="Trazado 23046" d="M561.533,269.985a1.992,1.992,0,0,0,1.245,2.466c.9.165,1.815-.673,2.032-1.871a1.993,1.993,0,0,0-1.245-2.467C562.66,267.949,561.75,268.787,561.533,269.985Z" fill="#ffaa83"/>
      <path id="Trazado_23047" data-name="Trazado 23047" d="M556.421,256.159c-3.151-.366-8.945,1.681-8.83,9.115.14,9.023,5.873,12.888,7.143,12.949s4.7.4,5.633-.782a18.261,18.261,0,0,0,4.32-13.18C564.107,256.938,558.287,256.376,556.421,256.159Z" fill="#541e06"/>
      <path id="Trazado_23048" data-name="Trazado 23048" d="M568.227,283.035s4.491-1.293,7.157,7.04,5.333,14.861,6.105,20.042c.232,1.56.047,4.688-1.438,6.144-2.7,2.648-7.167.481-9.5-14.352s-2.324-18.917-2.324-18.917Z" fill="#f1f9fe"/>
      <g id="Grupo_29024" data-name="Grupo 29024">
        <path id="Trazado_23049" data-name="Trazado 23049" d="M572.233,300.142c-1.8-9.678-2.462-14.765-2.707-17.122a3.37,3.37,0,0,0-1.3.015c.007.459.124,4.885,2.324,18.874,2.333,14.833,6.8,17,9.5,14.352a4.023,4.023,0,0,0,.784-1.164C578.188,316.05,574.567,312.7,572.233,300.142Z" fill="#cee8f4"/>
      </g>
      <path id="Trazado_23050" data-name="Trazado 23050" d="M557.765,347.749s-.05-1.361,1.368-.017,1.918-1.49,1.918-3.49-3.378-6.333-3.378-6.333-2.955,3.338-2.955,5.086S557.765,347.749,557.765,347.749Z" fill="#3c335a"/>
      <path id="Trazado_23051" data-name="Trazado 23051" d="M569.718,408.867s-.322-1.16,2.208-.5a4.77,4.77,0,0,0,4.179-.773s-.618,3.023-1.054,3.086-4.5.437-4.5.437Z" fill="#e568e3"/>
      <path id="Trazado_23052" data-name="Trazado 23052" d="M548.995,408.274s.1-1.2-2.263-.074a4.769,4.769,0,0,1-4.25.029s1.177,2.853,1.618,2.832,4.5-.42,4.5-.42Z" fill="#e568e3"/>
      <path id="Trazado_23053" data-name="Trazado 23053" d="M547.591,265.274c.071,4.585,1.656,5.435,3.342,5.945a1.927,1.927,0,0,0,2.5-1.967c-.263-3.178-1.47-6.643-1.46-9.423a6.414,6.414,0,0,0-.408-2.56C549.378,258.558,547.525,261.04,547.591,265.274Z" fill="#7a3b1c"/>
      <path id="Trazado_23054" data-name="Trazado 23054" d="M559.62,270.282a10.313,10.313,0,0,0,5.1-5.343c-.01-.226-.011-.447-.029-.678-.58-7.323-6.4-7.885-8.266-8.1a8.021,8.021,0,0,0-4.21.764s.307,2.858.307,3.767c0,2.272,1.292,6.541,1.6,8.4C554.541,271.587,557.075,271.228,559.62,270.282Z" fill="#7a3b1c"/>
      <path id="Trazado_23055" data-name="Trazado 23055" d="M544.251,282.034a92.657,92.657,0,0,1-1.695,23.543l1.2,23.187a56.925,56.925,0,0,0,29,0l-.743-24.68-2.726-21.856-8.019-.538S548,281.388,544.251,282.034Z" fill="#ffe262"/>
      <g id="Grupo_29025" data-name="Grupo 29025">
        <path id="Trazado_23056" data-name="Trazado 23056" d="M543.759,328.764a39.222,39.222,0,0,0,5.074,1.114,23.205,23.205,0,0,1-2.129-5.213c-1.5-5.769-2.548-23.232-2.823-28.214-.282,2.757-.7,5.818-1.325,9.126Z" fill="#e2b90e"/>
        <path id="Trazado_23057" data-name="Trazado 23057" d="M570.925,295.341a225.061,225.061,0,0,1-.139,27.47,23.614,23.614,0,0,1-1.33,6.711c1.086-.216,2.187-.464,3.3-.758l-.743-24.68Z" fill="#e2b90e"/>
      </g>
      <path id="Trazado_23058" data-name="Trazado 23058" d="M552.518,280.2l-2.461,1.542a8.081,8.081,0,0,0,6.477,2.994,10.056,10.056,0,0,0,7.1-2.888l-2.5-1.648A8.924,8.924,0,0,1,552.518,280.2Z" fill="#f1f9fe"/>
    </g>
    <g id="Grupo_29030" data-name="Grupo 29030">
      <g id="Grupo_29027" data-name="Grupo 29027">
        <path id="Trazado_23059" data-name="Trazado 23059" d="M464.563,99.6l-34.085,19.679V248.32l34.085-19.679Z" fill="#b638ba"/>
        <path id="Trazado_23060" data-name="Trazado 23060" d="M430.478,119.278,396.393,99.6V228.641l34.085,19.679Z" fill="#e568e3"/>
        <path id="Trazado_23061" data-name="Trazado 23061" d="M430.6,79.93,396.429,99.66l33.961,19.607,34.174-19.73Z" fill="#ea8ced"/>
      </g>
      <g id="Grupo_29028" data-name="Grupo 29028">
        <path id="Trazado_23062" data-name="Trazado 23062" d="M416.206,166.986l-34.085,19.679v89.043l34.085-19.679Z" fill="#e2b90e"/>
        <path id="Trazado_23063" data-name="Trazado 23063" d="M382.121,186.665l-34.085-19.679v89.043l34.085,19.679Z" fill="#ffe262"/>
        <path id="Trazado_23064" data-name="Trazado 23064" d="M382.245,147.317l-34.174,19.73,33.961,19.607,34.174-19.73Z" fill="#ffeea4"/>
      </g>
      <g id="Grupo_29029" data-name="Grupo 29029">
        <path id="Trazado_23065" data-name="Trazado 23065" d="M367.839,225.9l-34.085,19.679V304.62l34.085-19.679Z" fill="#37a5e2"/>
        <path id="Trazado_23066" data-name="Trazado 23066" d="M333.754,245.577,299.669,225.9V284.94l34.085,19.679Z" fill="#5ebaf9"/>
        <path id="Trazado_23067" data-name="Trazado 23067" d="M333.878,206.229,299.7,225.96l33.961,19.607,34.174-19.73Z" fill="#94d9ff"/>
      </g>
    </g>
    <g id="Grupo_29035" data-name="Grupo 29035">
      <path id="Trazado_23068" data-name="Trazado 23068" d="M375.412,256.266s.375-2.125-1-3.187-.629-1.8-.629-1.8,3.011.269,4-2.078,1.5-1.765,2.087-.768.833-.336,1.333.58,1.084,1.334,1,2.084-3.583,5.166-3.583,5.166Z" fill="#ffaa83"/>
      <g id="Grupo_29031" data-name="Grupo 29031">
        <path id="Trazado_23069" data-name="Trazado 23069" d="M375.632,256.266a3.845,3.845,0,0,0-.178-.779,4.512,4.512,0,0,1-.042.779Z" fill="#ce7c56"/>
        <path id="Trazado_23070" data-name="Trazado 23070" d="M373.986,252.446s3.011.269,4-2.079,1.5-1.765,2.086-.768.834-.336,1.334.581c.256.469.532.807.731,1.126a.817.817,0,0,0,.066-.206c.084-.75-.5-1.167-1-2.084s-.75.417-1.333-.58-1.1-1.58-2.087.768-4,2.078-4,2.078-.5.509.113,1.287A.653.653,0,0,1,373.986,252.446Z" fill="#ce7c56"/>
      </g>
      <path id="Trazado_23071" data-name="Trazado 23071" d="M355.829,295.48a27.075,27.075,0,0,0,2,19.536l1.708,14.25a20.255,20.255,0,0,1,0,5.75c-.5,2.25-2.934,9.25-2.467,16.75s1.467,19,1.467,19h4s3.5-33.25,3.75-35.75,2.583-35.75,2.583-35.75Z" fill="#ffaa83"/>
      <path id="Trazado_23072" data-name="Trazado 23072" d="M360.872,297.136s-3.3,10.585,3.637,19.2l6.295,13.311a20.239,20.239,0,0,1,1.07,5.649c-.072,2.3-1.16,9.635.7,16.917s5.537,27.3,5.537,27.3l3.931-.745s-2.3-34.268-2-42a207.107,207.107,0,0,0-2.648-38.337Z" fill="#ffaa83"/>
      <path id="Trazado_23073" data-name="Trazado 23073" d="M373.162,274.641l1.75-19.125H379.3l-1.517,24.875Z" fill="#523da5"/>
      <path id="Trazado_23074" data-name="Trazado 23074" d="M357.07,292.766a24.926,24.926,0,0,0-2.7,14.834c1,8.833,3.2,11.177,3.315,17.661.079,4.61.219,5.928.219,5.928s23.784,17.84,24.307,9.077c0,0,2.992-31.833-1.674-40.5S357.07,292.766,357.07,292.766Z" fill="#684cbf"/>
      <path id="Trazado_23075" data-name="Trazado 23075" d="M359.27,336.066c1.4,1.008,3.762,2.654,6.455,4.355.3-2.83.507-4.857.562-5.4.25-2.5,2.583-35.75,2.583-35.75l-9.41-2.732c-1.475.034-2.39.114-2.39.114a21.5,21.5,0,0,0-2.215,5.964,25.91,25.91,0,0,0,2.974,12.4l1.708,14.25a20.255,20.255,0,0,1,0,5.75C359.474,335.3,359.382,335.649,359.27,336.066Z" fill="#ce7c56"/>
      <path id="Trazado_23076" data-name="Trazado 23076" d="M380.218,346.506c-.171-4.261-.257-7.82-.181-9.74a205.285,205.285,0,0,0-2.313-36.255,17.174,17.174,0,0,0-5.125-2.457l-11.727-.918s-3.3,10.585,3.637,19.2l6.295,13.311a20.239,20.239,0,0,1,1.07,5.649c-.043,1.383-.449,4.583-.368,8.491C374.942,345.575,378.213,346.831,380.218,346.506Z" fill="#ce7c56"/>
      <path id="Trazado_23077" data-name="Trazado 23077" d="M357.07,292.766a24.926,24.926,0,0,0-2.7,14.834c1,8.833,3.2,11.177,3.315,17.661.079,4.61.219,5.928.219,5.928s23.784,17.84,24.307,9.077c0,0,2.992-31.833-1.674-40.5S357.07,292.766,357.07,292.766Z" fill="#684cbf"/>
      <path id="Trazado_23078" data-name="Trazado 23078" d="M380.537,299.766c-3.881-7.206-17.524-7.268-22.014-7.084,5.93.233,14.66,1.553,17.639,7.084,4.666,8.667,1.674,40.5,1.674,40.5a2.4,2.4,0,0,1-.936,1.948c2.983.9,5.157.631,5.311-1.948C382.211,340.266,385.2,308.433,380.537,299.766Z" fill="#4d38a5"/>
      <path id="Trazado_23079" data-name="Trazado 23079" d="M372.016,258.433,358.07,252.1s-2.867-1.657-4.2,2.254.9,12.246,4.2,20.746-3.033,19-3.033,19,.333,3.333,10.666,6.333,15.5,0,15.5,0-2.173-16.167-2.42-20,.664-5.839,1.471-9.667C382.2,261.516,372.016,258.433,372.016,258.433Z" fill="#7d5ace"/>
      <path id="Trazado_23080" data-name="Trazado 23080" d="M378.783,280.433c-.246-3.833.664-5.839,1.471-9.667,1.949-9.25-8.238-12.333-8.238-12.333L358.07,252.1a2.709,2.709,0,0,0-2.881.178l12.5,5.676s10.188,3.083,8.239,12.333c-.807,3.828-1.718,5.834-1.471,9.667s2.42,20,2.42,20-2.563,1.474-7.666,1.314c7.993,1.481,11.994-.835,11.994-.835S379.03,284.266,378.783,280.433Z" fill="#6348b7"/>
      <path id="Trazado_23081" data-name="Trazado 23081" d="M372.38,251.018v7.5l-3.51-.625v-10.25l4.292,1.375Z" fill="#ffaa83"/>
      <path id="Trazado_23082" data-name="Trazado 23082" d="M368.87,250.975c1.172.607,2.377,5.008,3.515,5.291l-.005-5.249.782-2-4.292-1.375Z" fill="#ce7c56"/>
      <path id="Trazado_23083" data-name="Trazado 23083" d="M377.358,236.788c1.848,6.473,1.153,13.159-.932,14.28-2.824,1.517-10.494-1.408-12.872-6.452s-1.016-10.684,3.044-12.6S375.827,231.426,377.358,236.788Z" fill="#ffaa83"/>
      <path id="Trazado_23084" data-name="Trazado 23084" d="M374.05,231.34s4.781,1.821,2.391,6.6-6.035,5.379-6.575,7.322c-.769,2.769.7,3.263,1.27,7.769.953,7.564-.614,10.762.045,11.756.385.58.917.244,1.225-.12,0,0-.086,4.449-10.384.616l-.149-2.092-.225,1.943-2.988-1.793s-1.28-23.62,4.538-29.447C364.812,232.28,367.625,229.818,374.05,231.34Z" fill="#570507"/>
      <path id="Trazado_23085" data-name="Trazado 23085" d="M377.177,238.678a7.041,7.041,0,0,0,.409-1.015c-.073-.292-.145-.584-.228-.875a8.18,8.18,0,0,0-1.775-3.295,5.1,5.1,0,0,1-.394,4.126c-2.391,5.011-6.035,5.637-6.575,7.673-.522,1.971-.011,2.845.549,4.681a15.08,15.08,0,0,0,2.11.893c-.6-2.033-1.231-2.849-.67-4.866C371.142,244.057,374.786,243.46,377.177,238.678Z" fill="#ce7c56"/>
      <g id="Grupo_29034" data-name="Grupo 29034">
        <g id="Grupo_29032" data-name="Grupo 29032">
          <path id="Trazado_23086" data-name="Trazado 23086" d="M359.884,263.347l-.075.685.127.076Z" fill="#2c0000"/>
        </g>
        <g id="Grupo_29033" data-name="Grupo 29033">
          <path id="Trazado_23087" data-name="Trazado 23087" d="M374.05,231.34l-.1-.021c1,1.087,1.784,2.876.5,5.564-2.39,5.011-6.034,5.637-6.574,7.673-.77,2.9.7,3.42,1.27,8.143.953,7.927-.615,11.279.045,12.32.385.608.917.256,1.225-.126a2.3,2.3,0,0,1-1.588,1.946c3.53,0,3.576-2.17,3.576-2.17-.308.364-.84.7-1.225.12-.659-.994.908-4.192-.045-11.756-.567-4.506-2.039-5-1.27-7.769.54-1.943,4.184-2.54,6.575-7.322S374.05,231.34,374.05,231.34Z" fill="#2c0000"/>
        </g>
      </g>
      <path id="Trazado_23088" data-name="Trazado 23088" d="M380.911,298.766a30.639,30.639,0,0,1-.128-3.286c0-1.755-.621-1.339-1,1.036s-.875,4,0,6.375,1.675,3.163,2.337,1.394S380.911,298.766,380.911,298.766Z" fill="#ffaa83"/>
      <path id="Trazado_23089" data-name="Trazado 23089" d="M369.119,244.218c0-1.238.6-2.242,1.345-2.242s1.345,1,1.345,2.242-.6,2.241-1.345,2.241S369.119,245.455,369.119,244.218Z" fill="#ffaa83"/>
      <path id="Trazado_23090" data-name="Trazado 23090" d="M373.783,259.159s5.141,3.159,11.587,11.554c6.749,8.79,12.167,14.314,11.833,17.767s-15.079,15.8-15.079,15.8a9.078,9.078,0,0,1-1.546-3.019,14.965,14.965,0,0,1-.15-2.637l9.275-10.991L377.783,275.6Z" fill="#7d5ace"/>
      <path id="Trazado_23091" data-name="Trazado 23091" d="M383.8,300.626a14.965,14.965,0,0,1-.15-2.637L392.922,287,381,274.96l-3.026-12.436a31,31,0,0,0-4.193-3.365l4,16.441,11.92,12.038-9.275,10.991a14.965,14.965,0,0,0,.15,2.637,9.078,9.078,0,0,0,1.546,3.019s.933-.782,2.334-2.005A6.162,6.162,0,0,1,383.8,300.626Z" fill="#6348b7"/>
      <path id="Trazado_23092" data-name="Trazado 23092" d="M377.02,250.907s-.1.658.876,1.008a.741.741,0,0,0,.807.685.862.862,0,0,0,.6.479.837.837,0,0,0,.9.6s-.66.339-.949-.214c0,0-.6-.093-.644-.593a.881.881,0,0,1-.827-.8A1.025,1.025,0,0,1,377.02,250.907Z" fill="#ce7c56"/>
      <path id="Trazado_23093" data-name="Trazado 23093" d="M358.537,370.766v7.75a3.476,3.476,0,0,0,2.625,1.25c1.5-.125,6.625-5.452,7.125-9.163s-2.25-.664-3.125,0a38.012,38.012,0,0,0-3.3,3.682l.676-3.519Z" fill="#ffaa83"/>
      <path id="Trazado_23094" data-name="Trazado 23094" d="M362.342,371.777s3.945-3.2,5.445-2.981.6,4.667-1.917,7.387-7.272,6.4-7.917,1.917a18.967,18.967,0,0,1-.011-2.441S361.725,376.809,362.342,371.777Z" fill="#e568e3"/>
      <path id="Trazado_23095" data-name="Trazado 23095" d="M377.409,378.112s.128,4.488.878,4.821,10.172-.5,12.833-4.167c3.1-4.273-7.083-1.083-7.5-1.166a2.508,2.508,0,0,0-1.143.258S378.782,379.707,377.409,378.112Z" fill="#e568e3"/>
      <path id="Trazado_23096" data-name="Trazado 23096" d="M363.2,233.9c-5.818,5.827-4.538,29.447-4.538,29.447l.49.294a37.414,37.414,0,0,0,4.718-12.091c1.122-6.579,1.791-7.093,6.6-13.793a9.853,9.853,0,0,0,2.1-6.7C367.185,230.22,364.681,232.411,363.2,233.9Z" fill="#78181a"/>
    </g>
    <g id="Grupo_29039" data-name="Grupo 29039">
      <path id="Trazado_23097" data-name="Trazado 23097" d="M413.4,403.753l-9.5-12.5v32.766l9.5-12.836Z" fill="#b638ba"/>
      <path id="Trazado_23098" data-name="Trazado 23098" d="M483.893,405.3a48.74,48.74,0,0,0-10.33-4.377l-19.07,21.35,24.318,19.649a44.31,44.31,0,0,0,5.267-2.568C500.314,429.977,500.232,414.731,483.893,405.3Z" fill="#e2b90e"/>
      <path id="Trazado_23099" data-name="Trazado 23099" d="M471.6,447.28l-24.318-19.649-40.181,6.3c1.87,3.906,5.457,7.6,10.782,10.674C432.558,453.077,455.347,453.973,471.6,447.28Z" fill="#37a5e2"/>
      <path id="Trazado_23100" data-name="Trazado 23100" d="M496.126,401.639V421.42l-7.764-1.668V408.336Z" fill="#e2b90e"/>
      <g id="Grupo_29036" data-name="Grupo 29036">
        <path id="Trazado_23101" data-name="Trazado 23101" d="M464.67,401.981c-15.731-4.728-35.519-3.313-48.654,4.27-10.944,6.318-14.462,15.3-10.6,23.38l40.181-6.3Z" fill="#b638ba"/>
      </g>
      <path id="Trazado_23102" data-name="Trazado 23102" d="M405.42,429.631v-32.25l40.181-6.3,19.07-21.35v32.25L446.4,406.628Z" fill="#b638ba"/>
      <g id="Grupo_29037" data-name="Grupo 29037">
        <path id="Trazado_23103" data-name="Trazado 23103" d="M464.67,401.981c-15.731-4.728-35.519-3.313-48.654,4.27-10.944,6.318-14.462,15.3-10.6,23.38l40.181-6.3Z" fill="#b638ba"/>
      </g>
      <g id="Grupo_29038" data-name="Grupo 29038">
        <path id="Trazado_23104" data-name="Trazado 23104" d="M464.67,369.731c-15.731-4.728-35.519-3.313-48.654,4.27-10.944,6.318-14.462,15.3-10.6,23.38l40.181-6.3Z" fill="#e568e3"/>
      </g>
      <path id="Trazado_23105" data-name="Trazado 23105" d="M483.893,383.13a48.686,48.686,0,0,0-10.33-4.376l-19.07,21.35,24.318,19.648a44.156,44.156,0,0,0,5.267-2.568C500.314,407.81,500.232,392.563,483.893,383.13Z" fill="#ffe262"/>
      <path id="Trazado_23106" data-name="Trazado 23106" d="M412.778,436.468l-5.675-2.537v-17.4l25.05,13.6,39.449-.247v17.4l-33.2-4.652Z" fill="#37a5e2"/>
      <path id="Trazado_23107" data-name="Trazado 23107" d="M454.493,400.1v22.168l12.368-2.519,1.2-8.687Z" fill="#e2b90e"/>
      <path id="Trazado_23108" data-name="Trazado 23108" d="M471.6,429.881l-24.318-19.648-40.181,6.3c1.87,3.9,5.457,7.6,10.782,10.674C432.558,435.678,455.347,436.575,471.6,429.881Z" fill="#5ebaf9"/>
    </g>
    <g id="Grupo_29040" data-name="Grupo 29040">
      <path id="Trazado_23109" data-name="Trazado 23109" d="M458.526,212.789a12.3,12.3,0,0,1-.693,4.163c-.693,1.412-.77,6.541.347,7.358s.808-.891.808-.891-.539,1.932.539,2.007.385-2.007.385-2.007-.162,2.48.556,2.378,2.071-7.136,2.071-7.136l1.223-5.872Z" fill="#ffaa83"/>
      <path id="Trazado_23110" data-name="Trazado 23110" d="M522.005,202.683s.859.492,3.213.078,4.079.657,5.926.724c1.757.064.336,1.492-1.361,1.552-.753.027-1.469-.174-1.519.579-.034.527,6.51,1.294,6.817,2.3.291.962-6.71-.4-6.71-.4s6.983.9,6.752,1.974c-.158.74-5.616-.305-5.616-.305s4.872.851,4.667,1.664c-.172.681-5.461-.139-5.461-.139a8.734,8.734,0,0,1,1.817.741c3.756,1.808-6.607.428-9.268-2.53a7.274,7.274,0,0,0-3.184-1.867l.73-4.821Z" fill="#ffaa83"/>
      <path id="Trazado_23111" data-name="Trazado 23111" d="M466.555,163.265s-4.949-.034-5.864,10.2c-1.017,11.393-1.129,22.038-2.34,25.4s-.749,14.9-.749,14.9,3.983,2.735,6.727,1.174,6.9-31.666,6.9-31.666Z" fill="#afd5e2"/>
      <path id="Trazado_23112" data-name="Trazado 23112" d="M485.1,282.618l2.148,9.855,3.388-1.531.96-3.857-.96-6.93Z" fill="#ffaa83"/>
      <path id="Trazado_23113" data-name="Trazado 23113" d="M461.837,276.3s.65,5.236-1.369,7.083,7.99,0,7.99,0V274.92Z" fill="#ffaa83"/>
      <path id="Trazado_23114" data-name="Trazado 23114" d="M481.4,156.215v11.547l-6.938-.577v-9.47l4.889,1.27Z" fill="#ffaa83"/>
      <path id="Trazado_23115" data-name="Trazado 23115" d="M474.461,162.642c1.083.562,5.887-2.715,6.939-2.453v-3.974l-2.05,1.846-4.889-.346Z" fill="#f29875"/>
      <path id="Trazado_23116" data-name="Trazado 23116" d="M469.548,146.016c-1.9,6.67-1.189,13.561.96,14.716,2.91,1.564,10.814-1.451,13.265-6.649s1.047-11.01-3.137-12.983S471.125,140.49,469.548,146.016Z" fill="#ffaa83"/>
      <path id="Trazado_23117" data-name="Trazado 23117" d="M464.347,204.32s-3.434,22.712-3.742,30.411c-.508,12.691-.265,12.7,0,43.882,0,0-.174,4.312,9,1.848,0,0,3.146-30.654,2.771-33.69s12.721-39.14,12.721-39.14Z" fill="#3c335a"/>
      <path id="Trazado_23118" data-name="Trazado 23118" d="M485.1,207.631l-20.748-3.311s-.116.767-.306,2.058l16.81,2.683s-13.1,36.1-12.72,39.14c.341,2.767-2.241,28.465-2.7,33a20.811,20.811,0,0,0,4.174-.738s3.146-30.654,2.771-33.69S485.1,207.631,485.1,207.631Z" fill="#292344"/>
      <path id="Trazado_23119" data-name="Trazado 23119" d="M472.374,205.879s3.12,44.631,4.691,50.174,6.608,29.8,6.608,29.8,2.558,1.481,6.939-.817a4.791,4.791,0,0,0,2.473-4.986l-5.072-27.627,2.618-43.021Z" fill="#3c335a"/>
      <path id="Trazado_23120" data-name="Trazado 23120" d="M493.085,280.049l-5.072-27.627,2.618-43.021-18.257-3.522s.039.556.11,1.547l14.373,2.917-2.618,45.241,5.072,29.052a5.294,5.294,0,0,1,.045.972,13.014,13.014,0,0,0,1.257-.573A4.792,4.792,0,0,0,493.085,280.049Z" fill="#292344"/>
      <path id="Trazado_23121" data-name="Trazado 23121" d="M479.949,158.414a11.584,11.584,0,0,0,3.824-4.331,12.409,12.409,0,0,0,1.195-4.823,14.963,14.963,0,0,0-.693-3.938,7.014,7.014,0,0,0-1.109-2.175c-.075-.1-.157-.186-.236-.278a6.3,6.3,0,0,0-4.846-2.063,9.9,9.9,0,0,0-5.48.739,7.909,7.909,0,0,0-3.056,4.471c-.023.081-.041.162-.064.244,1.617,2.377,8.6,3.372,8.6,3.372s.068,5.426,1.083,4.253,2.269-.994,2.063,1.084A14.778,14.778,0,0,1,479.949,158.414Z" fill="#f29875"/>
      <path id="Trazado_23122" data-name="Trazado 23122" d="M478.084,139.934s-5.257-1.026-8.393,3.079,8.393,5.747,8.393,5.747.068,5.426,1.083,4.252,2.269-.993,2.063,1.085-2.725,4.956-.629,4.428,5.969-6.841,3.674-14.076A6.175,6.175,0,0,0,478.084,139.934Z" fill="#541e06"/>
      <path id="Trazado_23123" data-name="Trazado 23123" d="M464.531,188.383c-.239-6-2.791-21.025,1.267-24.656s27.374,4.1,27.835,8.489-2.88,42.886-2.88,42.886-16.388,2.86-28.214-5.455C462.539,209.647,464.691,192.374,464.531,188.383Z" fill="#f1f9fe"/>
      <path id="Trazado_23124" data-name="Trazado 23124" d="M465.8,163.727c-4.058,3.631-1.506,18.651-1.267,24.656.094,2.339-.607,9.24-1.2,14.553,2.391,4.852,7.192,10.455,14.78,1.534,8.691-10.218,10.33-28.23,10.612-36.441C481.536,164.367,468.71,161.122,465.8,163.727Z" fill="#fff"/>
      <path id="Trazado_23125" data-name="Trazado 23125" d="M493.634,172.216c-.115-1.084-2.605,18.31-4.873,17.04.071,7.411-1.192,17.975-1.795,26.233a37.543,37.543,0,0,0,3.787-.387S494.1,176.6,493.634,172.216Z" fill="#cee8f4"/>
      <path id="Trazado_23126" data-name="Trazado 23126" d="M476.711,163.265l-2.25-.623s-1.079,2.43,0,3.26,4.483,2.656,6.939-.25l-2.395-2.387Z" fill="#ffaa83"/>
      <path id="Trazado_23127" data-name="Trazado 23127" d="M474.173,166.672s.514,1.255,2.538,1.09,0-2.136,0-2.136a1.93,1.93,0,0,1-1.522-.719C474.348,164.074,474.173,166.672,474.173,166.672Z" fill="#afd5e2"/>
      <path id="Trazado_23128" data-name="Trazado 23128" d="M474.173,168.939l1.928-3.461a4.145,4.145,0,0,1-2.007-2.25,14.849,14.849,0,0,0-1.72-.257C472.143,163.673,470.406,167.066,474.173,168.939Z" fill="#cee8f4"/>
      <path id="Trazado_23129" data-name="Trazado 23129" d="M484.065,166a16.222,16.222,0,0,0-2.541-.888,8.59,8.59,0,0,1-5.423.363v4.185S483,170.326,484.065,166Z" fill="#cee8f4"/>
      <path id="Trazado_23130" data-name="Trazado 23130" d="M474.461,162.642l-1.839.74s-1.242,3.367,1.839,4.984l1.511-2.862A2.771,2.771,0,0,1,474.461,162.642Z" fill="#f1f9fe"/>
      <path id="Trazado_23131" data-name="Trazado 23131" d="M475.972,165.5v3.478s6.344,1.11,7.7-2.765l-2.273-2.49S480.581,166.428,475.972,165.5Z" fill="#f1f9fe"/>
      <path id="Trazado_23132" data-name="Trazado 23132" d="M461.5,281.4s-2.816,2.5-5.37,4.435-5.191,1.407-5.575,3.731,8.357,1.106,12.5.659,6.925-.233,6.858-2.234a57.485,57.485,0,0,0-1.154-6.834S467.115,284.35,461.5,281.4Z" fill="#3c335a"/>
      <path id="Trazado_23133" data-name="Trazado 23133" d="M492.963,170.822s2.473,2.515,4.135,12.249c1.617,9.47,6.467,13.4,6.467,13.4l18.016,4.851s-.837,5.928-.837,8.067c0,0-18.1-1.369-22.26-5.065s-9.723-15.064-9.723-15.064Z" fill="#f1f9fe"/>
      <path id="Trazado_23134" data-name="Trazado 23134" d="M499.618,201.275c-3.852-3.424-9.548-15.025-10.552-17l-.305,4.984s5.565,11.369,9.723,15.064,22.26,5.065,22.26,5.065c0-.729.1-1.9.226-3.123C517.264,205.93,503.218,204.475,499.618,201.275Z" fill="#cee8f4"/>
      <path id="Trazado_23135" data-name="Trazado 23135" d="M486.243,287.884s-1.262,5.983-1.608,7.681c-.952,4.674-1.54,10.6,1.158,10.6,4.743,0,5.912-8.1,7-14.2s-1.2-6.733-1.2-6.733S487.276,290.229,486.243,287.884Z" fill="#3c335a"/>
      <path id="Trazado_23136" data-name="Trazado 23136" d="M475.331,169.9l-4.655,21.675,2.637,7.075,3.4-6.075-.583-23.257Z" fill="#cee8f4"/>
      <path id="Trazado_23137" data-name="Trazado 23137" d="M475.533,169.371h-.812l-4.655,21.675,2.637,7.075,3.4-6.075Z" fill="#e568e3"/>
      <path id="Trazado_23138" data-name="Trazado 23138" d="M475.972,165.5l-1.8,3.435.676,1.883,1.252-1.159Z" fill="#b638ba"/>
      <path id="Trazado_23139" data-name="Trazado 23139" d="M483.8,143.306a6.178,6.178,0,0,0-5.716-3.372s-5.257-1.026-8.393,3.079a2.429,2.429,0,0,0-.521,1.155c.815,1.071,3.045,2.191,8.987,1.715C481.326,145.629,483,144.608,483.8,143.306Z" fill="#7a3b1c"/>
      <path id="Trazado_23140" data-name="Trazado 23140" d="M484.292,144.514c-2.017,1.191-4.511,3.045-4.617,5.357-.119,2.583,2.368,1.444,2.368,1.444,1.835.11,1.319,1.881,1.62,3.689A14.63,14.63,0,0,0,484.292,144.514Z" fill="#7a3b1c"/>
    </g>
  </g>
</svg>
