<svg id="_Layer_" data-name="&lt;Layer&gt;" xmlns="http://www.w3.org/2000/svg" width="3071" height="1434.44" viewBox="0 0 3071 1434.44">
  <defs>
    <style>
      .cls-1, .cls-29 {
        fill: #d2e4ff;
      }

      .cls-1 {
        opacity: 0.6;
      }

      .cls-2 {
        fill: #bdd8ff;
      }

      .cls-3 {
        opacity: 0.5;
      }

      .cls-4 {
        fill: #9fc1f4;
      }

      .cls-5 {
        fill: #77a4e5;
      }

      .cls-6 {
        fill: #ffb27d;
      }

      .cls-7 {
        fill: #2c3a64;
      }

      .cls-8 {
        fill: #2b478b;
      }

      .cls-9 {
        fill: #233862;
      }

      .cls-10 {
        fill: #ed985f;
      }

      .cls-11 {
        fill: #ff9843;
      }

      .cls-12 {
        fill: #ed7d2b;
      }

      .cls-13 {
        fill: #fff;
      }

      .cls-14 {
        fill: #99332b;
      }

      .cls-15 {
        fill: #c65447;
      }

      .cls-16 {
        fill: #c4453b;
      }

      .cls-17 {
        fill: #659bdb;
      }

      .cls-18 {
        fill: #7ca8e8;
      }

      .cls-19 {
        opacity: 0.4;
      }

      .cls-20 {
        fill: #dfe5f4;
      }

      .cls-21 {
        fill: #8cb3ed;
      }

      .cls-22 {
        fill: #afcdfb;
      }

      .cls-23 {
        fill: #89b2ef;
      }

      .cls-24 {
        fill: #89b0e8;
      }

      .cls-25 {
        fill: #7c1818;
      }

      .cls-26 {
        fill: #aa413e;
      }

      .cls-27 {
        fill: #74acbe;
      }

      .cls-28 {
        fill: #5e97a5;
      }

      .cls-30 {
        fill: #d86713;
      }

      .cls-31 {
        fill: #ee9849;
      }

      .cls-32 {
        fill: #e57970;
      }

      .cls-33 {
        fill: #599dad;
      }

      .cls-34 {
        fill: #6bb7bf;
      }

      .cls-35 {
        fill: #2e3552;
      }

      .cls-36 {
        fill: #d9935c;
      }

      .cls-37 {
        fill: #163560;
      }

      .cls-38 {
        fill: #1c468a;
      }

      .cls-39 {
        fill: #cb7d45;
      }

      .cls-40 {
        fill: #3675c1;
      }

      .cls-41 {
        fill: #4a84d8;
      }

      .cls-42 {
        fill: #699ff0;
      }

      .cls-43 {
        fill: #f1a34f;
      }

      .cls-44 {
        fill: #ba550f;
      }

      .cls-45 {
        fill: #ffc48a;
      }
    </style>
  </defs>
  <g>
    <path class="cls-1" d="M2771.86,1351c-.13.09-541.08,2.06-541.08,2.06l-291.9-1-197.23-.64-138.9-.46-5.15,0-51.2-.17h-1.86l-251.23-.81-11.14,0-203.58-.67-68.65-.22-96.1-.32-67-.22L683.46,1348l-47.14-.16-64.31-.21-114.12-.37-176.15-.58s-6.09-10.71-15.1-30c-6.68-14.29-15-33.27-23.55-56.12h0c-1.6-4.25-3.22-8.63-4.83-13.14q-3.39-9.5-6.78-19.73-1.26-3.79-2.5-7.68c-5-15.53-9.81-32.21-14.28-49.86-.31-1.22-.62-2.46-.93-3.7q-2.49-10.12-4.83-20.68-1.29-5.85-2.51-11.82l-.17-.82c-.3-1.47-.59-2.95-.88-4.43a730.64,730.64,0,0,1-12.14-90.12q-.59-8.33-1-16.79c-.27-5.68-.45-11.42-.56-17.19a600.5,600.5,0,0,1,7.86-110.74c2.47-14.79,5.56-29.68,9.36-44.6q4.16-16.37,9.44-32.77c.66-2,1.31-4.07,2-6.11a522.09,522.09,0,0,1,30.81-72.89c1.11-2.16,2.25-4.35,3.42-6.53a538.08,538.08,0,0,1,31.75-52.17c1.21-1.77,2.44-3.52,3.7-5.28q10.38-14.71,22.11-29.23,17.08-21.16,37.17-41.78,27.83-28.54,55.19-51.9Q415.8,540.9,427,532.08q9.57-7.61,19.08-14.58c.35-.27.73-.53,1.09-.79q22-16.17,43.61-29.36,4.41-2.7,8.81-5.3,21.2-12.48,42-22.39,4.53-2.18,9-4.23c73.9-33.64,143.6-44.47,207.58-44.22,3,0,6,0,9,.11,15,.29,29.58,1.17,43.87,2.49,60.11,5.52,114.18,18.71,160.68,28.1,3.05.61,6.07,1.22,9.06,1.8,30.27,5.88,57.15,9.75,80.22,8.25,36.82-2.4,66.83-24.78,99.09-57.77q3.52-3.6,7.09-7.37c18.8-19.87,38.57-43,61-67.7q6.14-6.75,12.58-13.64,12.72-13.62,26.7-27.62c1.44-1.44,2.89-2.87,4.35-4.31q4.74-4.65,9.65-9.32l4.35-4.11q15.93-14.94,33.73-29.83c51.34-42.67,115.59-83.81,200.6-115.27l.12,0a841.91,841.91,0,0,1,119.45-34,1257.63,1257.63,0,0,1,153.27-22.1q19.23-1.61,38.67-2.64,20.84-1.11,41.82-1.56,12.57-.26,25.17-.27c20.76,0,41.52.46,62.17,1.52q11,.54,21.91,1.31c89.31,6.26,175.35,23.17,248,53.39,50.92,21.17,242.78,115.94,299.07,276.24,17.78,50.59,22,107.71,4.12,171.12-63.44,224.34,33.15,252.26,154,359.17C2849.31,1059.79,2901.25,1252.31,2771.86,1351Z"/>
    <path class="cls-2" d="M654.74,881.18a2,2,0,0,0-1.23-2.47L642,874.89,633.28,872a1.11,1.11,0,0,0-1.39.69l-11,33.06a1.11,1.11,0,0,0,.69,1.39l4.51,1.49h0c-8.2,4-24,7.77-34.45,10-1.38-10.83-2.45-20.78-2.64-28.89,0-.16,0-.32.07-.49.11-.65.2-1.28.3-1.92s.23-1.51.33-2.25c.07-.48.13-.95.19-1.42.13-1,.25-1.9.36-2.83,0-.18,0-.35,0-.53a139,139,0,0,0,.92-19c-.5-21.5-6.72-33.7-11.61-38.78l-.24-.25c-1.4-1.07-2.8-1.74-8.4-2.71-1.1-1.07-12.47-1.79-12.47-1.79h0s-1.19-.13-1.84-.17l-1.43-.14c-1.59-.84-2-7.53-2-14.58,0-1.06,0-2.13,0-3.18s0-2.1.08-3.12c0-1.18.08-2.32.13-3.4,3.46.3,5.77.26,5.77.26,6.48-.5,10.52-17.87,12-31.9h0s7.8-18.78-1-29.4A17.07,17.07,0,0,0,565.7,728c-.4-.4-.8-.78-1.2-1.13-6-6.69-30.52-31.76-46.59-17.26-.42-1.44-5.68-17.79-31.18-12.36,0,0,12.77-1.61,16.27,3.3,0,0-10.12-4.63-16.46-.75s-7.37,16.92-6.43,20.9,7.95,15.79,12.58,15.79A13.83,13.83,0,0,0,498,735.2a60.35,60.35,0,0,0-1.88,6.89c-4.93,23.15,10.47,40.75,18.43,36.4,5.11-2.79,9,6.15,9,6.15l0,0a80.22,80.22,0,0,1-3.42,20.75c-7.48-2.7-18.95-4.48-36-2.18-38.55,5.2-42.45,18.19-45.91,41.58s-9.1,130.38-6.07,137.75c.84,2,4.17,3.85,9,5.25-3.74,13.1-7.95,27-11.88,36.77-1,2.19-3.78,7.67-6.63,9.47-3.59,2.27-8.7,7.75-7.75,12.1s1.89,11.16,6.43,11.16,15.13-20,16.45-23.83,2.46-4.54,2.46-4.54h0s11.3-18.74,22-38.31a106.76,106.76,0,0,0,11.4-.33c-2.44,10.47-4.24,19.23-4.53,25.12a17.06,17.06,0,0,0,.44,5.68,7.12,7.12,0,0,0,3.29,4.12c-.5,5.12-.82,10.49-1,16-1.87,56.61,11.44,130.42,13.43,141.09v0a3.64,3.64,0,0,1-.47,2.38c-14.15,28-16.19,60.07-13.54,88.51a185.36,185.36,0,0,0,14.47,56.48l-.07-.08a7.9,7.9,0,0,0-1.84,2.48,8.36,8.36,0,0,0-.72,5.19c.5,3-1.13,8.71-2.43,12.54-.79,2.32-1.45,4-1.45,4s-.38,1.91,6.47,2.77h8c2.67-.42,4.63-1.2,7.37-1.55,4.15-.55,6.06,1.16,6.44,1.55l.08.08h33.81a2.37,2.37,0,0,0,.35-1.33c.57-.11,1.16-.22,1.8-.3,4.15-.55,6.06,1.16,6.44,1.55l.08.08h33.81c.85-1.22,0-4-.77-6.1a4.81,4.81,0,0,0-3.16-2.9c-3.59-1-10.66-2-17.13-7.82-3.64-3.29-17.59-12.1-17.59-12.1l-.07,0H545a382.32,382.32,0,0,1-3-50.86c.25-27.48,3.65-60,14.5-91,25.33-72.34,30.69-131.31,31.51-161.72,5.64-3.33,9.57-8.09,10.49-14.76,2.5-18.18-.65-44.28-4-69.07,21-9.48,39.83-24.52,39.83-24.52s2.19-1,5.12-2.71l2.31.77a1.94,1.94,0,0,0,2.46-1.23l1.07-3.2a32.72,32.72,0,0,0,6.79-6c4-5.09,2.67-14,1.09-17.68Zm-143.23,398a385.61,385.61,0,0,0,16.6,50.38,8,8,0,0,0-1.81,2.46,8.42,8.42,0,0,0-.73,5.19,17.4,17.4,0,0,1-.53,6,27.49,27.49,0,0,1-4.75-3.45c-3.64-3.29-17.59-12.1-17.59-12.1l-.06,0c1.83-12.22,4.09-28.43,6-45.69.37-3.31.75-6.64,1.14-10C510.34,1274.44,510.92,1276.85,511.51,1279.22Z"/>
    <g class="cls-3">
      <rect class="cls-4" x="659.74" y="754.73" width="819.08" height="35.12" rx="9.35"/>
      <g>
        <path class="cls-4" d="M905.1,826.89c-14.44-9.25-42.93-24.71-73.09-25.65V775.42c0-2.78-1.36-8.13-6.48-8.44a7.31,7.31,0,0,1-5.13-2.63,8.3,8.3,0,0,1-2.07-5.78c.51-5.48,4.16-8.89,9.52-8.89,6.44,0,7.06,11.57,7.06,11.7a2,2,0,0,0,4-.17,27.92,27.92,0,0,0-1.46-7.38c-2.38-6.71-6.51-8.11-9.56-8.11-7.48,0-12.76,4.9-13.46,12.49a12.23,12.23,0,0,0,3,8.71,11.25,11.25,0,0,0,7.9,4c2.69.16,2.75,4.32,2.76,4.49V801.2c-28.86.36-57.11,15.06-71.61,23.94a7.54,7.54,0,0,0,4,14H901.52a6.63,6.63,0,0,0,3.58-12.21Zm-3,5.75a.56.56,0,0,1-.6.45H760.4a1.47,1.47,0,0,1-1.47-1.12,1.42,1.42,0,0,1,.66-1.7c14.14-8.66,41.84-23.07,69.63-23.07h1.12c29.25.41,57.36,15.68,71.52,24.74A.56.56,0,0,1,902.12,832.64Z"/>
        <path class="cls-4" d="M781.61,811.67s22,19.6,53.67,18.42,46.74-17,46.74-17,25,12.68,30.11,19.81,7.52,80,7.52,80-12.28,4.76-24.95,4.36l-5.15-15.45,15.61,259.12s-19.31.79-30.93-5.87c-11.19-6.42-28.06,2.13-43.11,4.15s-23.7-9.44-38.48-4.68c-23.07,7.41-40.94,3.17-40.94,3.17L775.45,901l-6.43,15s-22.07,0-29.2-7.53c0,0,8.45-77.51,13.2-82.26S781.61,811.67,781.61,811.67Z"/>
      </g>
      <g>
        <path class="cls-5" d="M1002.34,826.89A192.26,192.26,0,0,0,976,812.74a157.89,157.89,0,0,0-15.71-5.92,115.43,115.43,0,0,0-31-5.59h0V775.42c0-2.78-1.36-8.13-6.49-8.44a7.29,7.29,0,0,1-5.12-2.63,8.3,8.3,0,0,1-2.07-5.78c.51-5.48,4.15-8.89,9.52-8.89,6.44,0,7,11.57,7.06,11.7a2,2,0,0,0,4-.17,28.64,28.64,0,0,0-1.47-7.38c-2.37-6.71-6.51-8.11-9.55-8.11-7.48,0-12.76,4.9-13.46,12.49a12.23,12.23,0,0,0,3,8.71,11.25,11.25,0,0,0,7.89,4c2.7.16,2.76,4.32,2.77,4.49v25.77c-11.92.16-23.73,2.75-34.51,6.37-5,1.68-9.78,3.58-14.25,5.56a197.5,197.5,0,0,0-22.85,12,7.54,7.54,0,0,0,4,14H998.76a6.63,6.63,0,0,0,3.58-12.21Zm-3,5.76a.56.56,0,0,1-.6.44H857.64a1.47,1.47,0,0,1-1.48-1.13,1.42,1.42,0,0,1,.67-1.69A189.24,189.24,0,0,1,879,818.59c4.43-2,9.18-3.84,14.13-5.48,10.46-3.47,21.86-5.9,33.29-5.9h1.11a108.78,108.78,0,0,1,30.72,5.29,155.51,155.51,0,0,1,17.18,6.61A188.08,188.08,0,0,1,999.1,832,.56.56,0,0,1,999.36,832.65Z"/>
        <path class="cls-5" d="M970.09,923.84c-.53-18.89,6.88-37.49,8.46-55.71S975,839.89,975,839.89c0-.27-.08-.53-.11-.79a55.76,55.76,0,0,1-.44-6,78.19,78.19,0,0,1,1.06-14c.54-3.29,1.08-5.37,1.08-5.37a7.93,7.93,0,0,0-.59-1,157.89,157.89,0,0,0-15.71-5.92c-.65,2-1.31,3.86-2,5.68a176.59,176.59,0,0,1-8.75,20.59q-1.66,3.27-3.29,6c-10.94,18.63-19.61,19.8-19.61,19.8-6.59-.79-13.8-9.52-20.1-19.8-1.21-2-2.38-4-3.51-6-4-7.19-7.44-14.51-9.86-20-1-2.19-1.78-4.08-2.39-5.55-5,1.68-9.78,3.58-14.25,5.56a13.07,13.07,0,0,1,2.51,5.47c1.11,4.51,1.07,10.15.78,14.5-.17,2.7-.44,4.9-.59,6-.08.51-.12.79-.12.79-11.09,40,12.56,63.8,11.77,84s-35,190.15-35,190.15c33.69,7,49.94-11.51,55.08-2.54,7.7,13.45,26.16,12.37,43,1.85,3.08-1.91,17.95-6.61,32.21-1.85a23.11,23.11,0,0,0,23.63-5.38C1009,1075.17,970.8,949.22,970.09,923.84Zm-90.48-83.63,2.75,1.75C881.08,841.18,880.14,840.57,879.61,840.21Z"/>
      </g>
      <g>
        <path class="cls-4" d="M1101.39,826.89c-14.44-9.25-42.93-24.71-73.09-25.65V775.42c0-2.78-1.36-8.13-6.48-8.44a7.31,7.31,0,0,1-5.13-2.63,8.39,8.39,0,0,1-2.07-5.78c.51-5.48,4.16-8.89,9.52-8.89,6.45,0,7.06,11.57,7.07,11.7a2,2,0,0,0,4-.17,27.92,27.92,0,0,0-1.46-7.38c-2.38-6.71-6.51-8.11-9.56-8.11-7.48,0-12.76,4.9-13.46,12.49a12.23,12.23,0,0,0,3,8.71,11.27,11.27,0,0,0,7.9,4c2.69.16,2.76,4.32,2.76,4.49V801.2c-28.86.36-57.11,15.06-71.6,23.94a7.54,7.54,0,0,0,4,14h141.12a6.63,6.63,0,0,0,3.58-12.21Zm-3,5.75a.56.56,0,0,1-.6.45H956.69a1.47,1.47,0,0,1-1.47-1.12,1.42,1.42,0,0,1,.66-1.7c14.14-8.66,41.84-23.07,69.63-23.07h1.12c29.25.41,57.36,15.68,71.52,24.74A.56.56,0,0,1,1098.41,832.64Z"/>
        <path class="cls-4" d="M977.9,811.67s22,19.6,53.67,18.42,46.74-17,46.74-17,25,12.68,30.11,19.81,7.52,80,7.52,80-12.28,4.76-25,4.36l-5.15-15.45,15.61,259.12s-19.31.79-30.93-5.87c-11.19-6.42-28.06,2.13-43.11,4.15s-23.7-9.44-38.48-4.68c-23.07,7.41-40.94,3.17-40.94,3.17L971.74,901l-6.43,15s-22.07,0-29.2-7.53c0,0,8.45-77.51,13.2-82.26S977.9,811.67,977.9,811.67Z"/>
      </g>
      <g>
        <path class="cls-5" d="M1170.82,826.89a191.47,191.47,0,0,0-26.37-14.15,159,159,0,0,0-15.72-5.92,115.29,115.29,0,0,0-31-5.59h0V775.42c0-2.78-1.35-8.13-6.48-8.44a7.31,7.31,0,0,1-5.13-2.63,8.33,8.33,0,0,1-2.06-5.78c.5-5.48,4.15-8.89,9.51-8.89,6.45,0,7.06,11.57,7.07,11.7a2,2,0,0,0,4-.17,28.64,28.64,0,0,0-1.47-7.38c-2.38-6.71-6.51-8.11-9.56-8.11-7.47,0-12.76,4.9-13.46,12.49a12.28,12.28,0,0,0,3,8.71,11.25,11.25,0,0,0,7.89,4c2.7.16,2.76,4.32,2.76,4.49v25.77c-11.91.16-23.73,2.75-34.51,6.37-5,1.68-9.77,3.58-14.24,5.56a197.5,197.5,0,0,0-22.85,12,7.54,7.54,0,0,0,3.95,14h141.13a6.62,6.62,0,0,0,3.57-12.21Zm-3,5.76a.55.55,0,0,1-.59.44H1026.12a1.47,1.47,0,0,1-1.47-1.13,1.42,1.42,0,0,1,.67-1.69,188.43,188.43,0,0,1,22.21-11.68c4.43-2,9.17-3.84,14.12-5.48,10.46-3.47,21.87-5.9,33.29-5.9h1.12a108.91,108.91,0,0,1,30.72,5.29,156.28,156.28,0,0,1,17.18,6.61A187.15,187.15,0,0,1,1167.58,832,.54.54,0,0,1,1167.84,832.65Z"/>
        <path class="cls-5" d="M1138.58,923.84c-.53-18.89,6.87-37.49,8.46-55.71s-3.59-28.24-3.59-28.24c0-.27-.08-.53-.11-.79a55.76,55.76,0,0,1-.44-6,78.19,78.19,0,0,1,1.06-14c.54-3.29,1.08-5.37,1.08-5.37a9.34,9.34,0,0,0-.59-1,159,159,0,0,0-15.72-5.92c-.65,2-1.31,3.86-2,5.68a178.33,178.33,0,0,1-8.75,20.59c-1.12,2.18-2.21,4.18-3.29,6-11,18.63-19.61,19.8-19.61,19.8-6.6-.79-13.8-9.52-20.1-19.8-1.21-2-2.39-4-3.51-6-4-7.19-7.44-14.51-9.87-20-1-2.19-1.77-4.08-2.39-5.55-5,1.68-9.77,3.58-14.24,5.56a13.07,13.07,0,0,1,2.51,5.47c1.11,4.51,1.07,10.15.78,14.5-.18,2.7-.45,4.9-.6,6-.07.51-.12.79-.12.79-11.09,40,12.57,63.8,11.77,84s-35,190.15-35,190.15c33.69,7,49.94-11.51,55.07-2.54,7.71,13.45,26.16,12.37,43,1.85,3.07-1.91,18-6.61,32.21-1.85a23.11,23.11,0,0,0,23.63-5.38C1177.52,1075.17,1139.29,949.22,1138.58,923.84Zm-90.49-83.63,2.76,1.75C1049.57,841.18,1048.62,840.57,1048.09,840.21Z"/>
      </g>
      <g>
        <path class="cls-4" d="M1241.79,826.89c-14.44-9.25-42.93-24.71-73.09-25.65V775.42c0-2.78-1.35-8.13-6.48-8.44a7.31,7.31,0,0,1-5.13-2.63,8.33,8.33,0,0,1-2.06-5.78c.5-5.48,4.15-8.89,9.51-8.89,6.45,0,7.06,11.57,7.07,11.7a2,2,0,1,0,4-.17,27.92,27.92,0,0,0-1.46-7.38c-2.38-6.71-6.51-8.11-9.56-8.11-7.47,0-12.76,4.9-13.46,12.49a12.24,12.24,0,0,0,3,8.71,11.25,11.25,0,0,0,7.89,4c2.69.16,2.76,4.32,2.76,4.49V801.2c-28.86.36-57.11,15.06-71.6,23.94a7.54,7.54,0,0,0,3.95,14h141.12a6.63,6.63,0,0,0,3.58-12.21Zm-3,5.75a.56.56,0,0,1-.6.45H1097.09a1.47,1.47,0,0,1-1.47-1.12,1.43,1.43,0,0,1,.66-1.7c14.14-8.66,41.84-23.07,69.63-23.07H1167c29.25.41,57.36,15.68,71.52,24.74A.55.55,0,0,1,1238.81,832.64Z"/>
        <path class="cls-4" d="M1118.3,811.67s22,19.6,53.67,18.42,46.75-17,46.75-17,25,12.68,30.1,19.81,7.53,80,7.53,80-12.28,4.76-25,4.36l-5.15-15.45,15.61,259.12s-19.31.79-30.92-5.87c-11.2-6.42-28.07,2.13-43.12,4.15s-23.69-9.44-38.48-4.68c-23.06,7.41-40.93,3.17-40.93,3.17L1112.14,901l-6.43,15s-22.07,0-29.2-7.53c0,0,8.45-77.51,13.21-82.26S1118.3,811.67,1118.3,811.67Z"/>
      </g>
      <g>
        <path class="cls-5" d="M1311.22,826.89a191.47,191.47,0,0,0-26.37-14.15,159,159,0,0,0-15.72-5.92,115.29,115.29,0,0,0-31-5.59h0V775.42c0-2.78-1.35-8.13-6.48-8.44a7.26,7.26,0,0,1-5.12-2.63,8.3,8.3,0,0,1-2.07-5.78c.51-5.48,4.15-8.89,9.51-8.89,6.45,0,7.06,11.57,7.07,11.7a2,2,0,0,0,4-.17,28.64,28.64,0,0,0-1.47-7.38c-2.38-6.71-6.51-8.11-9.56-8.11-7.47,0-12.75,4.9-13.46,12.49a12.28,12.28,0,0,0,3,8.71,11.25,11.25,0,0,0,7.89,4c2.7.16,2.76,4.32,2.76,4.49v25.77c-11.91.16-23.72,2.75-34.51,6.37-5,1.68-9.77,3.58-14.24,5.56a197.5,197.5,0,0,0-22.85,12,7.54,7.54,0,0,0,4,14h141.12a6.62,6.62,0,0,0,3.57-12.21Zm-3,5.76a.56.56,0,0,1-.6.44H1166.53a1.47,1.47,0,0,1-1.48-1.13,1.42,1.42,0,0,1,.67-1.69,189.24,189.24,0,0,1,22.21-11.68c4.43-2,9.18-3.84,14.13-5.48,10.45-3.47,21.86-5.9,33.29-5.9h1.11a108.78,108.78,0,0,1,30.72,5.29,156.28,156.28,0,0,1,17.18,6.61A187.15,187.15,0,0,1,1308,832,.55.55,0,0,1,1308.25,832.65Z"/>
        <path class="cls-5" d="M1279,923.84c-.53-18.89,6.88-37.49,8.46-55.71s-3.59-28.24-3.59-28.24c0-.27-.08-.53-.11-.79a55.76,55.76,0,0,1-.44-6,78.19,78.19,0,0,1,1.06-14c.54-3.29,1.08-5.37,1.08-5.37a9.34,9.34,0,0,0-.59-1,159,159,0,0,0-15.72-5.92c-.65,2-1.3,3.86-2,5.68a178.33,178.33,0,0,1-8.75,20.59c-1.12,2.18-2.21,4.18-3.29,6-11,18.63-19.61,19.8-19.61,19.8-6.59-.79-13.8-9.52-20.1-19.8-1.21-2-2.39-4-3.51-6-4-7.19-7.44-14.51-9.86-20-1-2.19-1.78-4.08-2.4-5.55-5,1.68-9.77,3.58-14.24,5.56a13.07,13.07,0,0,1,2.51,5.47c1.11,4.51,1.07,10.15.78,14.5-.18,2.7-.45,4.9-.6,6l-.11.79c-11.1,40,12.56,63.8,11.77,84s-35,190.15-35,190.15c33.69,7,49.94-11.51,55.08-2.54,7.7,13.45,26.16,12.37,43,1.85,3.07-1.91,18-6.61,32.21-1.85a23.11,23.11,0,0,0,23.63-5.38C1317.92,1075.17,1279.69,949.22,1279,923.84Zm-90.49-83.63,2.76,1.75C1190,841.18,1189,840.57,1188.49,840.21Z"/>
      </g>
      <g>
        <path class="cls-4" d="M1472.21,1297.09h-81a7,7,0,0,0,1.41-4.19v-496a7,7,0,0,0-14,0v496a7,7,0,0,0,1.41,4.19H666.35a6.64,6.64,0,0,0-6.61,6.61V1308a6.63,6.63,0,0,0,6.61,6.61h805.86a6.62,6.62,0,0,0,6.61-6.61v-4.34A6.63,6.63,0,0,0,1472.21,1297.09Z"/>
        <circle class="cls-4" cx="1386.73" cy="1328.62" r="13.97"/>
        <circle class="cls-4" cx="752.85" cy="1328.62" r="13.97"/>
      </g>
    </g>
    <path class="cls-2" d="M1068.66,1004.59H215.4a10.06,10.06,0,0,0-10,10v114.06c.29,1.49.58,3,.88,4.44l.17.82q1.23,6,2.5,11.82,2.34,10.54,4.84,20.68l.93,3.71c4.47,17.64,9.31,34.32,14.28,49.85q1.25,3.88,2.5,7.68,3.38,10.21,6.78,19.73c1.61,4.51,3.23,8.89,4.83,13.14h0c8.59,22.84,16.87,41.83,23.55,56.12,9,19.3,15.1,30,15.1,30l176.15.58,178.43.58,47.13.15,163.39.53,67,.22,96.12.32,68.64.22a7.71,7.71,0,0,0,.1-1.28V1014.62A10.06,10.06,0,0,0,1068.66,1004.59Z"/>
    <g>
      <path class="cls-6" d="M1241.51,694.94a60.91,60.91,0,0,0-5.41-18.67,49.11,49.11,0,0,0-11.68-15.63,8.8,8.8,0,0,0-2-1.69c-1.17-1-2.32-1.83-3.42-2.58a37.4,37.4,0,0,0-9.3-4.83c-3-.66-5.76,1.28-8.29,5.21a103,103,0,0,0-5.85,13.39c-.09.15-.19.28-.18.39-.39,1.15-.75,2.42-1.23,3.82a3.51,3.51,0,0,0-.31.89c-.33,1.23-.67,2.48-1,3.75-.45,1.73-.89,3.49-1.32,5.3-8.67,33.68-15.38,83.54-25.5,99.86-4.37,7-27.19,23.35-45.44,35.75-6.36,4.28-12.16,8.06-16.46,10.83-5.23,1.76-21.52,7-29.87,6.13-10.16-1.13-25.33,12.71-25.33,12.71s-1.35,4,5.35,5.85,16.8,10.26,30.51,2.87a223.42,223.42,0,0,1,25.5-11.21c.64-.2,1.19-.38,1.64-.54,6.08-1.53,14.24-3.65,23-6.22,20.75-5.89,45.15-14.13,54-22.08,13.53-12,33.35-45,44.48-76.32a19.43,19.43,0,0,0,.79-2.29C1240,723,1243.19,707,1241.51,694.94Z"/>
      <path class="cls-7" d="M1276.93,490c.38-2.09,5.3-24.5,40-20.68,0,0-17.26-.43-21.27,6.6,0,0,12.89-7.54,21.86-3.21s12.11,21.61,11.38,27-8.49,22.14-14.68,22.76a18.25,18.25,0,0,1-7.23-1,80.82,80.82,0,0,1,3.43,8.94c9.67,30.25-8.53,55.81-19.74,51.06-7.19-3-11.16,9.41-11.16,9.41l-64.07-69.31S1250.09,470.29,1276.93,490Z"/>
      <path class="cls-8" d="M1193.46,1324.84l15.59,5.81s67.68-93.88,76-176.47c1.49-14.74,1-29-2.22-42.22,0,0,.66-3.78,1.82-10.46.53-3.11,1.19-6.87,1.94-11.17,2.2-12.61,5.23-29.86,8.69-49.5,8-45.2,18.28-103,26.3-145.46l-4.2-1.35L1272,879.36l-9.39-29.82-33.83-8.9s-7.55,14.78-14.31,84.61c-1.25,9.16-2.38,19.26-3.23,30.22a598.41,598.41,0,0,0,3.22,122.32c1.55,12.13,3.51,24.67,5.94,37.54,1.78,9.44,2.05,22.3,1.3,37.07C1218.25,1219.92,1193.46,1324.84,1193.46,1324.84Z"/>
      <path class="cls-9" d="M1211.2,955.47l73.46,146c.53-3.11,1.19-6.87,1.94-11.17,2.2-12.61,5.23-29.86,8.69-49.5,8-45.2,18.28-103,26.3-145.46l-4.2-1.35L1272,879.36l-9.39-29.82-33.83-8.9s-7.55,14.78-14.31,84.61C1213.18,934.41,1212.05,944.51,1211.2,955.47Z"/>
      <path class="cls-8" d="M1243.51,859.38l1.7-14.58c28.49,7.56,104.61-21.15,104.61-21.15s27.6,24.26,24,82.42c-1.77,28.38-5,149-8.37,184.69-1.22,12.93-2.29,22.14-2.73,25.81a.08.08,0,0,0,0,0,5.13,5.13,0,0,0,.83,3.16A167,167,0,0,1,1376,1146c33.12,88.26-5.1,196.94-5.1,196.94l-9.91-4s-21.75-121-39.43-174.38c-3-9.07-5.87-16.19-8.51-20.45-7.68-12.4-14.81-32.66-21.28-56.76-12.24-45.56-22.08-104.84-28.64-150.59C1262.2,936.76,1243.51,859.38,1243.51,859.38Z"/>
      <path class="cls-6" d="M1218.78,682.4c8.26,5.38,18.54,9.73,31.37,12.31,48.08,9.69,65.25-31.2,71.35-59.11a40.94,40.94,0,0,0-16.33-4.52c-3.46-.31-7.1-.48-10.11-.54-5.48-4-14-20.55-16.45-46.61l-2.23.67L1239,596s2.07,11.92,3.23,23.21c.9,8.84,1.24,17.29-.37,19.41-2.92.72-4.68,1.19-4.68,1.19l0,0A243.32,243.32,0,0,0,1218.78,682.4Z"/>
      <path class="cls-10" d="M1239,596s2.07,11.91,3.23,23.21c21.27-2.74,30.6-23.33,34.14-34.58Z"/>
      <path class="cls-6" d="M1233,607.38s50.55-4.22,47.44-35.66,1.31-53.16-31.09-51.8-37.49,14-39,24.73S1219.73,607.67,1233,607.38Z"/>
      <path class="cls-11" d="M1346.49,786.68a43.81,43.81,0,0,1-3.68-6.84,43.24,43.24,0,0,1-3.57-19c1-25.8,5.48-49.47,7.36-64h0c-2.39-2.36-4.7-4.56-6.85-6.65a68.36,68.36,0,0,1-8.2-9.08c-2.23-3.16-3.47-6.23-3.19-9.45a45.94,45.94,0,0,1,1.26-7.35c.28-1.16.6-2.31,1-3.45A100.88,100.88,0,0,1,1341,638.45c-12.24-7.15-35.83-7.37-35.83-7.37s-.16,1.29-.45,3.39c-1.15,8.46-4.38,30.14-7.68,33.86-4.13,4.62-69.33,18-71.6,10.61s11.23-38,11.73-39.14l0,0c-19.69,4.61-28.48,9.72-30.06,10.71-2,.92-3.87,3.42-5.7,6.27a103,103,0,0,0-5.85,13.39c-.09.15-.19.28-.18.39-.39,1.15-.75,2.42-1.23,3.82a3.51,3.51,0,0,0-.31.89c-.33,1.23-.67,2.48-1,3.75a53.63,53.63,0,0,1,11.5,3.12c-2.63,9.23-4.68,19.6-2.32,30.33.22,1,.49,2,.79,3.06,8.44,28.22,15.27,141,15.27,141-6.1,19.22,148.54,17.61,151.53-.26C1377.72,838,1357.93,804,1346.49,786.68Z"/>
      <path class="cls-7" d="M1210.06,527c6.85-10.23,13-8.75,16.55-6.24,26.06-17.92,46.08,2.72,46.08,2.72,5.64,22.22,23.2,33.51,23.2,33.51s-8.63,6.61-30.38,3.28c-6.65-1-12.89-5-18.37-10.14a118.12,118.12,0,0,0,22.74,22.72c-26.5-9.17-40.2-43.38-41.59-47-2.8,3.08-8.27,9.7-9.53,15.77-1.72,8.26-1.2,24.85-6.06,24.77C1212.7,566.4,1199.78,542.38,1210.06,527Z"/>
      <path class="cls-12" d="M1264.16,825.65c29.87,4,59.62-23.3,78.65-45.81a43.24,43.24,0,0,1-3.57-19c1-25.8,5.48-49.47,7.36-64h0c-2.39-2.36-4.7-4.56-6.85-6.65a68.36,68.36,0,0,1-8.2-9.08C1301.13,718.87,1223.65,820.2,1264.16,825.65Z"/>
      <path class="cls-9" d="M1313.21,1351h78.49s1.88-12-2.22-21c-3.93-8.71-10.08-12.67-8.61-23.2-5,5.13-13.12,10.88-24.46,9.36-1.39,2.25-9,14.31-13.62,17.65C1337.66,1337.46,1314.79,1336.15,1313.21,1351Z"/>
      <path class="cls-9" d="M1144.7,1351h78.48s2.94-12.52-2.22-21c-4.56-7.54-2.81-11.83.57-18.07a30.45,30.45,0,0,1-13.22,2.49c-3.91-.22-8-2-11.67-4.1-3.38,3.85-17.84,20.24-22.36,23.49C1169.15,1337.46,1146.28,1336.15,1144.7,1351Z"/>
      <path class="cls-13" d="M1245,589.2s-.71,4.16-11,4.17c0,0-8.6,0-8.62-4.51C1225.44,588.86,1233.55,585.13,1245,589.2Z"/>
      <g>
        <path class="cls-14" d="M1145.36,789.39l-22.88,10.55a69.71,69.71,0,0,0-11.7-11.82c-10.79-8.44-21.75-10.67-31.68-6.45-10.12,4.3-15,14.25-14.15,28.82a75.79,75.79,0,0,0,2.47,14.84L1050.85,833,1068.92,889a18.43,18.43,0,0,0,25.27,11.08l57.26-26.4Zm-73.85,34.05c-2.6-10.24-5.83-31.29,9.32-37.71,16.65-7.07,32.19,9.53,37.52,16.11Z"/>
        <path class="cls-15" d="M1184,831.8l-38.59-42.41-87.16,40.19,37.91,49.26a23.8,23.8,0,0,0,28.83,7.09l53-24.43A18.78,18.78,0,0,0,1184,831.8Z"/>
        <path class="cls-16" d="M1145.36,789.39l-15.94,7.35a69.58,69.58,0,0,0-11.69-11.82c-10.8-8.44-21.76-10.67-31.69-6.45-10.11,4.3-15,14.25-14.15,28.82a76.55,76.55,0,0,0,2.47,14.84l-16.16,7.45s39.91,10.15,68.17-4.1S1145.36,789.39,1145.36,789.39Zm-66.91,30.85c-2.6-10.24-5.83-31.29,9.32-37.71,16.65-7.08,32.2,9.52,37.52,16.11Z"/>
      </g>
      <path class="cls-9" d="M1398.85,832.58l-8.72-37.05a11,11,0,0,0-13.15-8.14l-60.27,14.19a11,11,0,0,0-8.14,13.15l8.72,37a11,11,0,0,0,13.15,8.14l60.27-14.18A11,11,0,0,0,1398.85,832.58Z"/>
      <path class="cls-9" d="M1317.6,812.11a286,286,0,0,1-21.09-62.26c-4.26-20.3-5.48-39.05-3.62-55.71,2.33-20.93,9.53-38.61,21.41-52.56a23,23,0,0,1,18.17-8.12,22.74,22.74,0,0,1,17.52,8.85c23.55,30.56,28.48,99.29,28.47,151.56h-2.73c0-93.94-15.17-133.36-27.91-149.9a20,20,0,0,0-15.42-7.77,20.32,20.32,0,0,0-16,7.15c-14.42,16.94-29.11,49.06-17.21,105.88A283.82,283.82,0,0,0,1320,810.88Z"/>
      <path class="cls-11" d="M1315.57,663.36c23.16-4.27,39.07,14.9,39.07,14.9,2.67-34-13.85-40.16-13.85-40.16C1334.22,634.69,1325.3,645.8,1315.57,663.36Z"/>
      <path class="cls-6" d="M1316.69,661.3c-.39.66-.77,1.33-1.16,2-8,14.57-16.76,33.58-25,52.51-4.57,10.37-9,20.76-13.4,30.32-2.52,5.82-5,11.29-7.34,16.29-4.5,9.55-8.48,17.26-11.86,22.05-2.16,3.13-8,7.25-15.58,11.79-13.23,8-32.39,17.31-49,24.86-6.91,3.19-13.42,6.06-18.84,8.43-4.28,1.89-7.84,3.44-10.36,4.53-2.13.29-5.54.55-9.47,1a23.15,23.15,0,0,1-5.63-2c-4.87-2.6-20.77,1.58-19.24,3.69s10.45-.48,11.28.72h0a35.13,35.13,0,0,0-7.12,2.71c-11.54,6.18-24.35,6-19.47,12.59,4.15,5.62,15.1,14.2,29.22,7.64a224.9,224.9,0,0,1,26.13-9.66l1.14-.29,5.41-.53c2.51-.25,3.94-.48,3.94-.48,6.7-.72,14.72-1.8,23.46-2.93h.12c15-2.24,31.8-5,46.08-8.54,10-2.56,18.82-5.47,24.89-8.61a13.31,13.31,0,0,0,1.74-1c14.62-8.79,33.5-36.74,48.92-67.12,2.14-4.2,4.16-8.4,6.17-12.49a322.16,322.16,0,0,0,17.27-43.48,125.67,125.67,0,0,0,5-21,53.46,53.46,0,0,0,.64-6c.08-1.08.15-2.14.2-3.17C1348.89,670,1335.27,660.29,1316.69,661.3Z"/>
    </g>
    <g>
      <polygon class="cls-17" points="2482.41 899.68 2479.46 1026.44 2526.05 1026.44 2526.05 899.68 2482.41 899.68"/>
      <polygon class="cls-18" points="2560.51 899.68 2490.5 899.68 2494.72 1026.44 2566.61 1026.44 2560.51 899.68"/>
      <g class="cls-19">
        <path class="cls-20" d="M2527.85,928.06c-9.84,0-15-5.87-17.7-10.89a32.65,32.65,0,0,1-3.44-11.39.67.67,0,0,1,.62-.72.66.66,0,0,1,.72.61,32,32,0,0,0,3.3,10.91c3.74,7,9.62,10.44,17.5,10.12,5.35-.22,9.35-2,11.9-5.24,4.78-6.09,2.93-15.51,2.92-15.6a.66.66,0,0,1,.52-.79.67.67,0,0,1,.79.52c.09.41,2,10.1-3.17,16.69-2.8,3.59-7.14,5.52-12.91,5.76C2528.55,928.06,2528.2,928.06,2527.85,928.06Z"/>
      </g>
      <polygon class="cls-21" points="2520.65 937.63 2516.4 1026.33 2583.45 1026.33 2583.45 937.63 2520.65 937.63"/>
      <polygon class="cls-4" points="2633.04 937.63 2532.29 937.63 2538.36 1026.44 2641.81 1026.44 2633.04 937.63"/>
      <path class="cls-18" d="M2586,964.77c-9.85,0-15.05-5.87-17.71-10.89a32.57,32.57,0,0,1-3.43-11.39.67.67,0,0,1,1.34-.11,31.63,31.63,0,0,0,3.3,10.9c3.73,7.05,9.62,10.45,17.49,10.13,5.35-.22,9.36-2,11.91-5.24,4.77-6.1,2.93-15.51,2.91-15.6a.67.67,0,0,1,1.32-.27c.08.41,2,10.1-3.17,16.69-2.8,3.58-7.15,5.52-12.91,5.76C2586.7,964.77,2586.35,964.77,2586,964.77Z"/>
      <polygon class="cls-18" points="2532.29 937.63 2527.59 937.72 2527.59 1026.33 2538.36 1026.33 2532.29 937.63"/>
      <g>
        <path class="cls-18" d="M2589.5,987.93a2.42,2.42,0,0,0-2.42-2.57,2.57,2.57,0,1,0,2.42,2.57Zm-3.37,0c0-.69.31-1.26.92-1.26s.95.59.95,1.26-.32,1.27-.92,1.27S2586.13,988.61,2586.13,987.93Z"/>
        <polygon class="cls-18" points="2592.97 985.48 2585.63 995.53 2587.34 995.53 2594.68 985.48 2592.97 985.48"/>
        <path class="cls-18" d="M2593.25,990.5a2.58,2.58,0,1,0,2.43,2.57A2.45,2.45,0,0,0,2593.25,990.5Zm0,3.84c-.57,0-.94-.59-.94-1.27s.31-1.26.91-1.26,1,.59,1,1.26S2593.86,994.34,2593.25,994.34Z"/>
        <path class="cls-18" d="M2610.85,1003a2.57,2.57,0,1,0,2.43,2.57A2.44,2.44,0,0,0,2610.85,1003Zm0,3.83c-.58,0-.95-.59-.95-1.26s.31-1.27.92-1.27.95.59.95,1.27S2611.45,1006.81,2610.85,1006.81Z"/>
        <polygon class="cls-18" points="2610.56 997.95 2603.22 1008 2604.93 1008 2612.27 997.95 2610.56 997.95"/>
        <path class="cls-18" d="M2607.1,1000.4a2.45,2.45,0,1,0-2.46,2.58A2.46,2.46,0,0,0,2607.1,1000.4Zm-3.38,0c0-.69.32-1.26.92-1.26s1,.59,1,1.26-.32,1.27-.92,1.27S2603.72,1001.08,2603.72,1000.4Z"/>
        <polygon class="cls-18" points="2604.93 982.43 2612.27 972.38 2610.56 972.38 2603.22 982.43 2604.93 982.43"/>
        <path class="cls-18" d="M2604.64,977.4a2.57,2.57,0,1,0-2.43-2.57A2.42,2.42,0,0,0,2604.64,977.4Zm0-3.83c.58,0,1,.59,1,1.26s-.32,1.27-.92,1.27-1-.59-1-1.27S2604,973.57,2604.64,973.57Z"/>
        <path class="cls-18" d="M2608.39,980a2.43,2.43,0,0,0,2.43,2.57,2.46,2.46,0,0,0,2.46-2.57,2.45,2.45,0,1,0-4.89,0Zm3.38,0c0,.67-.32,1.26-.92,1.26s-.95-.59-.95-1.26.31-1.27.92-1.27S2611.77,979.3,2611.77,980Z"/>
        <path class="cls-18" d="M2572.37,974.83a2.45,2.45,0,1,0-2.46,2.57A2.43,2.43,0,0,0,2572.37,974.83Zm-3.38,0c0-.69.32-1.26.92-1.26s1,.59,1,1.26-.32,1.27-.92,1.27S2569,975.51,2569,974.83Z"/>
        <polygon class="cls-18" points="2577.54 972.38 2575.83 972.38 2568.49 982.43 2570.2 982.43 2577.54 972.38"/>
        <path class="cls-18" d="M2573.66,980a2.43,2.43,0,0,0,2.43,2.57,2.46,2.46,0,0,0,2.45-2.57,2.42,2.42,0,0,0-2.42-2.58A2.45,2.45,0,0,0,2573.66,980Zm3.38,0c0,.67-.32,1.26-.92,1.26s-.95-.59-.95-1.26.32-1.27.92-1.27S2577,979.3,2577,980Z"/>
        <polygon class="cls-18" points="2577.66 997.95 2570.32 1008 2572.03 1008 2579.37 997.95 2577.66 997.95"/>
        <path class="cls-18" d="M2574.2,1000.4a2.44,2.44,0,1,0-2.46,2.58A2.46,2.46,0,0,0,2574.2,1000.4Zm-3.38,0c0-.69.32-1.26.92-1.26s1,.59,1,1.26-.31,1.27-.92,1.27S2570.82,1001.08,2570.82,1000.4Z"/>
        <path class="cls-18" d="M2578,1003a2.57,2.57,0,1,0,2.43,2.57A2.44,2.44,0,0,0,2578,1003Zm0,3.83c-.57,0-.95-.59-.95-1.26s.32-1.27.92-1.27.95.59.95,1.27S2578.55,1006.81,2578,1006.81Z"/>
      </g>
      <rect class="cls-4" x="2532.08" y="1171.46" width="187.33" height="179.26"/>
      <rect class="cls-2" x="2486.12" y="1171.46" width="187.33" height="179.25"/>
      <rect class="cls-4" x="2465.81" y="1026.13" width="151.87" height="145.33"/>
      <rect class="cls-2" x="2503.08" y="1026.13" width="151.87" height="145.33"/>
      <polygon class="cls-22" points="2654.94 1171.46 2486.12 1250.21 2486.12 1171.46 2654.94 1171.46"/>
      <path class="cls-18" d="M2675.33,1151.62l-6.79-56.17H2651a72.7,72.7,0,0,0-3.82-13.94c-5.14-13-13.38-19.77-23.94-19.45-10.36.31-19,6.67-25,18.37a66.54,66.54,0,0,0-5.45,15h-24.21l28.62,76h60.57A17.72,17.72,0,0,0,2675.33,1151.62Zm-78.2-56.17c2-7.89,8.88-28.63,26.25-29.15,15.8-.5,21.45,19.17,23.3,29.15Z"/>
      <path class="cls-4" d="M2643.66,1095.45a71.86,71.86,0,0,0-3.81-13.94c-5.14-13-13.39-19.77-23.94-19.45-10.36.31-19,6.67-25,18.37a67,67,0,0,0-5.45,15h-16.86L2551.94,1148a18,18,0,0,0,17.21,23.48h56.06a22.86,22.86,0,0,0,22.29-17.79l13.27-58.22Zm-53.88,0c2-7.89,8.88-28.63,26.26-29.15,15.79-.5,21.45,19.17,23.3,29.15Z"/>
      <path class="cls-23" d="M2568.55,1095.45s.7,22.79,31.09,23.85,61.13-23.85,61.13-23.85Z"/>
    </g>
    <g>
      <g>
        <path class="cls-2" d="M2132.94,923.87c-2.11-2.16-17.55-6.15-17.55-6.15h0s-24.66-50.1-40.27-76c-5.35-8.89-9-43.33-12.77-62.08h0s-2.24-16.57-10.07-25.76c-5.23-6.13-33.26-9.07-33.26-9.07v.05l-2.61-.54c-2.72-.55-5.28-2.13-5.58-4.88,0-.14,0-.28,0-.42a86.26,86.26,0,0,1-.38-9.84V729c.08-4.9.45-8.54.45-8.54h-.09l-29.37-4.72c-.4,9.17-.93,16-1.49,21.09a8.06,8.06,0,0,1-7.51,7.16l-1.77.11h0s-18.93-.73-26.17,1.48c-8.16,2.49-26.25,22.21-26.25,22.21l.1.08c-21.71,21.32-44.9,51.62-43.61,57.4,1.81,8.14,32.59,54.39,43.76,62.91h11.17s-24.76-56.48-25.09-61c-.27-3.94,21.22-18.48,39-31.21a5.09,5.09,0,0,1-.37,3.25h0c-1.56,4.33-5.91,11.11-2.57,22,8.17,26.68,7.64,30.29,7.64,30.29.17.14.36.26.54.39.42,3.53.94,7.22,1.62,11.13,0,0-1.52,3.78-15.27,17.86l41.52,17.29,63,2.05s-3-8.39-6.12-17c-2.85-7.88-5.81-15.92-6.61-17.76-.38-.85-.46-3.66-.32-7.84.63-.11,7.3-20,11.6-33.54a29.08,29.08,0,0,0,1.3-5.42v0c3.73,18,8.4,35.87,13.5,45,9.83,17.48,53.24,62.27,53.24,62.27h0c1.79,3.85,10.05,5.59,15.84,12,0,0,5.83,5.93,16.89,5.13C2141.1,942.76,2135.05,926,2132.94,923.87Z"/>
        <path class="cls-2" d="M1985.11,1249.84s8.78-93.53-2.68-145.33c0,0-4.1-13.22,3.91-39,13.32-42.79,9.62-112.86,4.61-122.68-1.89-3.69-7.4-8-14.61-12.49-21.58-13.33-56.57-26.83-56.57-26.83s-24.35,39.19-24.23,63.63c.12,23.43,40.52,132.8,42.07,149.62s2.36,61.64,29.52,133.07c0,0-1,11.73-2.53,14.14s-7.84,10.56-15.08,13.28-28,1.31-29.57,8.83h73s1-11.28-1.81-18.7S1985.11,1249.84,1985.11,1249.84Z"/>
        <path class="cls-22" d="M2010.79,739c-12.21-1.65-29.39-23.24-29.39-23.24l29.46,3.91s0,.29-.09.81a76.09,76.09,0,0,0-.36,8.55v.13A86.26,86.26,0,0,0,2010.79,739Z"/>
        <path class="cls-2" d="M2019.63,721.14s-34.31,11.45-41.12-10-15.81-34.47,5.81-42.68,28.5-1.38,32.51,5.23S2028.38,717.61,2019.63,721.14Z"/>
        <path class="cls-22" d="M1986.34,1065.52c-45.63-28.72-80.16-118.93-80.16-118.93l70.16-16.24c7.21,4.45,12.72,8.8,14.61,12.49C1996,952.66,1990.54,1020.9,1986.34,1065.52Z"/>
        <path class="cls-2" d="M2099.35,1262.78c-2-4.43-10.17-15.58-10.17-15.58-20.52-124.57-47.07-126.45-47.54-140.93-.15-4.77,2.21-20.07,5.28-39.19,6.22-38.82,15.32-93.43,12.09-107.88-1.47-6.54-3.83-14.55-6.4-22.54-5.92-18.3-13-36.46-13-36.46l-80.78,25.15s25.29,142.87,28.68,179.07c2.71,28.94,81.45,142.78,81.45,142.78-1,6.54,4.23,18,3.82,24s3.22,14.87,3.22,14.87,35.4.16,37,0S2101.36,1267.2,2099.35,1262.78Z"/>
        <path class="cls-22" d="M2046.92,1067.08c-15.24-29.1-37.37-104.46-37.37-104.46s25.24-11.68,43.06-26c2.57,8,4.93,16,6.4,22.54C2062.24,973.65,2053.14,1028.26,2046.92,1067.08Z"/>
        <path class="cls-4" d="M2059,959.21a236.48,236.48,0,0,0-48.27,7.4c-16,4.39-32.06,11.35-40.9,22.36,0,0-23-24.84-50.35-31h0a48.94,48.94,0,0,0-23,0s.68-25.38,33.19-69.78q3.22-4.41,6.9-9.08s31.2,18,82.37,6.83c4.67-1,9.52-2.28,14.51-3.83,0,0,11.74,28.3,15.51,39.66C2051.55,929.67,2059,959.21,2059,959.21Z"/>
        <path class="cls-24" d="M1933.09,882.91s22.06,16.6,45.45,17.27,54.88-14.83,54.88-14.83Z"/>
        <path class="cls-2" d="M1918.46,888.17s-11.18,14.12-11.18,16.68,2.26,13.28,5,13.43,3.62-8.75,5.73-10.41,9.65-4.78,10.71-7.67.93-12,.93-12Z"/>
        <path class="cls-4" d="M1952.24,744.35s-34.47,1.79-77.59,30.86c0,0-11.07,5.22-5.85,14.91S1885.92,805,1885.92,805s5.25,19.22,24.81,20.15c0,0,6.15,3.91,15.66,1.12,0,0,10.44-11.93,11-13.79,0,0,12.68,49.2,11,50.87s-20.53,11.13-18.75,15.73,32.17,17.63,54.91,16.14,55.72-5.59,51.25-14.35-9.23-21.52-8.67-22.27S2038.77,827,2038.77,827s-5.78,31.87-2.8,34.85,27.57,1.18,33.36-9.5c0,0,11.74-1.12,19.85-9,0,0,15.94-4.84,20-14.91,0,0-39.5-83.33-69.7-84.16s-34.1,7.85-48.36,7S1965.84,742.16,1952.24,744.35Z"/>
        <g>
          <rect class="cls-4" x="1759.77" y="1170.53" width="120.77" height="115.56"/>
          <rect class="cls-2" x="1730.14" y="1170.53" width="120.77" height="115.55"/>
          <rect class="cls-4" x="1717.05" y="909.24" width="97.91" height="261.29"/>
          <rect class="cls-2" x="1741.07" y="909.24" width="97.91" height="261.29"/>
          <polygon class="cls-22" points="1838.98 1170.54 1730.14 1221.3 1730.14 1170.54 1838.98 1170.54"/>
        </g>
        <g>
          <path class="cls-5" d="M1792.39,851.17a51.46,51.46,0,0,0-4.15-11.43c-4.58-8.9-11.18-13.74-19.06-14-8-.24-14.31,4.88-18.22,14.8a55.43,55.43,0,0,0-2.91,10.61h-13.34l-5.17,42.76a13.48,13.48,0,0,0,13.39,15.1H1789l21.78-57.86Zm-41,0c1.4-7.59,5.71-22.56,17.73-22.18,13.22.4,18.46,16.18,20,22.18Z"/>
          <path class="cls-4" d="M1823.45,891.15l-12.64-40H1798a51,51,0,0,0-4.15-11.43c-4.58-8.9-11.18-13.74-19.06-14-8-.24-14.31,4.88-18.22,14.8a55.43,55.43,0,0,0-2.91,10.61h-13l10.09,44.32a17.4,17.4,0,0,0,17,13.54h42.66A13.74,13.74,0,0,0,1823.45,891.15Zm-66.51-40c1.4-7.59,5.71-22.56,17.73-22.18,13.22.4,18.46,16.18,20,22.18Z"/>
        </g>
        <g>
          <path class="cls-5" d="M1833.07,1112.68a50.81,50.81,0,0,0-4.14-11.43c-4.59-8.91-11.18-13.75-19.07-14s-14.31,4.88-18.22,14.81a55.12,55.12,0,0,0-2.9,10.61h-13.35l-5.16,42.75a13.48,13.48,0,0,0,13.38,15.1h46.11l21.78-57.85Zm-41,0c1.41-7.6,5.71-22.57,17.73-22.19,13.23.4,18.47,16.18,20,22.19Z"/>
          <path class="cls-4" d="M1864.14,1152.65l-12.64-40h-12.84a50.81,50.81,0,0,0-4.14-11.43c-4.59-8.91-11.18-13.75-19.07-14s-14.3,4.88-18.22,14.81a55.12,55.12,0,0,0-2.9,10.61h-13l10.1,44.31a17.39,17.39,0,0,0,17,13.54H1851A13.75,13.75,0,0,0,1864.14,1152.65Zm-66.52-40c1.41-7.6,5.71-22.57,17.74-22.19,13.22.4,18.46,16.18,20,22.19Z"/>
        </g>
      </g>
      <path class="cls-5" d="M1729.42,1109.62s-31.08,23.11-37.14,21.7,22.71-24.94,22.71-24.94c-10.82-5.21-44.48-1.94-44.48-1.94s-11.21,36.15-16.74,33.3,11.56-31.51,11.56-31.51c-12.06-.72-26.85,8.23-26.85,8.23-20.25,16,1.33,41.17,1.33,41.17s-4.15,12.44-16.94,23.77c0,0-18.26,13.51-19.53,37.64l3.32.3s5.31-22.71,14.95-33.27l1.43-1.45c1.54-1.43,2.62-2.51,3.36-3.31,4.75-4.57,11.33-10.4,14.5-11a6.12,6.12,0,0,1-.14-1.59c0,.51.09,1,.14,1.59,1.08,12.72,25.76,23.83,40.95,26.12s10.49-4,5.26-13.21-21.79-13.4-25.57-17.66,4-4.27,13.18-.1,10.4,15.33,25.08,22.35,36.76-17.32,36.76-17.32c-11.69-.6-28.4-13.3-27.79-17.19s28.35,6.71,33.09,7.22,15.54-5.39,17.21-24.5S1729.42,1109.62,1729.42,1109.62Z"/>
      <path class="cls-5" d="M1564.37,1124s34.32-19.23,18.31-45.31c0,0-12.82-16-26.55-20.14,0,0,7.32,38.9,0,39.82s-5-43.94-5-43.94-36.16-17.39-50.35-16c0,0,22.43,38,15.11,37.07s-32.5-39.36-32.5-39.36-37.07-6.86-43,15.11,3.66,33,9.15,34.32,40.74.92,39.82,5.49-24.71,11.9-38,7.78c0,0,14.65,36.16,33.87,34.33s25.17-13.73,37.07-14.65,20.6,2.29,14.65,5.5-26.09,1-35.7,9.22-17.39,13.2.46,16.86,49.88,1.38,56.29-12.35c.28-.6.55-1.17.8-1.72a7.13,7.13,0,0,1-.8,1.72c3.3,1.92,8.25,11.1,11.67,18.13.49,1.2,1.25,2.83,2.39,5.06.41.89.75,1.64,1,2.21,6.42,15.7,3.06,43.16,3.06,43.16l3.81,1c8.45-27.4-6.37-49.9-6.37-49.9C1563.91,1139.53,1564.37,1124,1564.37,1124Z"/>
      <path class="cls-4" d="M1782.47,1001.53c-7.84-29-56.71-19.91-56.71-19.91s-33.18,50.68-42.83,51.89,19.9-48.87,19.9-48.87c-18.7-1.81-66.36,21.12-66.36,21.12s3,59.12-6.63,57.91,0-52.48,0-52.48c-18.1,5.43-35,26.54-35,26.54-21.11,34.39,24.14,59.73,24.14,59.73s.6,20.51-12.07,44c0,0-19.54,29.67-8.4,65.78l5-1.35s-4.4-35.83,3.9-56.58c.34-.77.83-1.87,1.45-3.22,1.5-3,2.52-5.12,3.16-6.7,4.52-9.26,11-21.34,15.37-23.87a9.76,9.76,0,0,1-1.05-2.27l1.05,2.27c8.45,18.09,50.68,21.11,74.21,16.28s13.27-11.46.6-22.23-39.21-7.93-47.06-12.15,3.62-8.45,19.31-7.24,23.53,16.89,48.87,19.3,44.64-45.24,44.64-45.24c-17.49,5.42-48.87-4.23-50.07-10.26s45.24-5.43,52.48-7.24S1790.31,1030.49,1782.47,1001.53Z"/>
      <g>
        <path class="cls-4" d="M1706.08,1197.54a88.65,88.65,0,0,1-72.24,87.11,86.37,86.37,0,0,1-11,1.35c-1.79.11-3.59.16-5.4.16a88.63,88.63,0,0,1-88.63-88.62Z"/>
        <path class="cls-22" d="M1633.84,1284.65a86.37,86.37,0,0,1-11,1.35,88.63,88.63,0,0,1-83.23-88.46h22A88.68,88.68,0,0,0,1633.84,1284.65Z"/>
      </g>
      <rect class="cls-4" x="1525.91" y="1196.97" width="182.19" height="2.72"/>
    </g>
    <g>
      <path class="cls-25" d="M1001.86,990.4s-16.54-6.32-25.69-7.87-14.53-48.78-15.51-54.76S948.86,912,948.86,912l6.74,71.89L970.69,1002h27.36Z"/>
      <path class="cls-26" d="M1010.7,1004.55s0,0,0,.06H958.46c-4.19-6.79-10.15-36.54-14.64-42.45q-.44-.58-1-1.35l-.45,43.8h-4.77c-.06-6.19-.54-40.86-3.35-59.77-2.86-6.45-4.9-12.71-4-15.35C932.13,924,948.86,912,948.86,912a.18.18,0,0,0,0,0c.36,2.26,12.1,74.39,19.09,76.46,16.9,5,33.9,1.91,33.9,1.91S1014.14,997.44,1010.7,1004.55Z"/>
    </g>
    <g>
      <path class="cls-25" d="M970.69,990.4s-16.54-6.32-25.69-7.87-14.53-48.78-15.51-54.76S917.69,912,917.69,912l6.74,71.89L939.52,1002h27.36Z"/>
      <path class="cls-26" d="M979.53,1004.55l0,.06H927.29c-4.19-6.79-10.15-36.54-14.64-42.45q-.43-.58-1-1.35l-.45,43.8h-4.77c-.06-6.19-.54-40.86-3.35-59.77-2.86-6.45-4.9-12.71-4-15.35C901,924,917.69,912,917.69,912a.18.18,0,0,0,0,0c.36,2.26,12.1,74.39,19.09,76.46,16.9,5,33.9,1.91,33.9,1.91S983,997.44,979.53,1004.55Z"/>
    </g>
    <g>
      <path class="cls-27" d="M646.79,1007.84s-21,.81-16.73-15.2c2.18-8.19,11.68-8.54,25.6-8.54H871.75S883,988,883,995.93s-4.5,9.86-8.09,11.82S646.79,1007.84,646.79,1007.84Z"/>
      <path class="cls-28" d="M646.79,986.51s-21,.81-16.73-15.2c2.18-8.19,11.68-8.54,25.6-8.54H871.75S883,966.65,883,974.6s-4.5,9.86-8.09,11.82S646.79,986.51,646.79,986.51Z"/>
      <path class="cls-27" d="M646.79,962s-21,.8-16.73-15.2c2.18-8.2,11.68-8.54,25.6-8.54H871.75S883,942.11,883,950.05s-4.5,9.86-8.09,11.82S646.79,962,646.79,962Z"/>
    </g>
    <g>
      <rect class="cls-29" x="1882.58" y="467.27" width="211.45" height="65.6" rx="5.34"/>
      <g>
        <path class="cls-4" d="M1940.26,488h5.66L1959,505.19V488h6V515.9h-5.22l-13.49-17.72V515.9h-6.06Z"/>
        <path class="cls-4" d="M1971.72,488h21v5.45h-14.93v5.66H1991v5.45h-13.14v5.86h15.13v5.45h-21.22Z"/>
        <path class="cls-4" d="M1996.24,488h6.57l5.78,18.87,6.25-18.95h5.26l6.25,18.95,5.77-18.87h6.41L2029,516.1h-5.34l-6.29-18.24-6.29,18.24h-5.34Z"/>
      </g>
    </g>
    <g>
      <rect class="cls-29" x="1824.66" y="553.46" width="327.3" height="65.6" rx="6.65"/>
      <g>
        <path class="cls-4" d="M1854.29,588.16a14.16,14.16,0,0,1,14.53-14.42,14,14,0,0,1,10.79,4.54L1876,582.5c-2.15-2-4-3.1-7.17-3.1-4.7,0-8.08,3.9-8.08,8.76s3.3,8.76,8.08,8.76c3.19,0,5.14-1.28,7.33-3.27l3.9,4.18c-2.87,3.07-6,4.74-11.43,4.74A14.08,14.08,0,0,1,1854.29,588.16Z"/>
        <path class="cls-4" d="M1882.88,588.16c0-7.93,6.25-14.42,14.85-14.42s14.77,6.41,14.77,14.42-6.25,14.41-14.85,14.41S1882.88,596.16,1882.88,588.16Zm23.21,0a8.47,8.47,0,0,0-8.44-8.76c-4.94,0-8.36,3.9-8.36,8.76a8.47,8.47,0,0,0,8.44,8.76C1902.66,596.92,1906.09,593,1906.09,588.16Z"/>
        <path class="cls-4" d="M1918,574.22h6.13v22.3H1938v5.57h-20Z"/>
        <path class="cls-4" d="M1942.6,574.22h6.13v22.3h13.9v5.57h-20Z"/>
        <path class="cls-4" d="M1967.24,574.22h21v5.46h-14.93v5.65h13.14v5.45h-13.14v5.86h15.13v5.45h-21.23Z"/>
        <path class="cls-4" d="M1992.69,588.16a14.16,14.16,0,0,1,14.53-14.42,14,14,0,0,1,10.79,4.54l-3.66,4.22c-2.15-2-4-3.1-7.17-3.1-4.7,0-8.08,3.9-8.08,8.76s3.3,8.76,8.08,8.76c3.19,0,5.14-1.28,7.33-3.27l3.9,4.18c-2.87,3.07-6.05,4.74-11.43,4.74A14.08,14.08,0,0,1,1992.69,588.16Z"/>
        <path class="cls-4" d="M2029.79,579.87h-8.48v-5.65h23.1v5.65h-8.48v22.22h-6.14Z"/>
        <path class="cls-4" d="M2049.38,574.22h6.14v27.87h-6.14Z"/>
        <path class="cls-4" d="M2061.25,588.16c0-7.93,6.25-14.42,14.85-14.42s14.77,6.41,14.77,14.42-6.25,14.41-14.85,14.41S2061.25,596.16,2061.25,588.16Zm23.21,0a8.46,8.46,0,0,0-8.44-8.76c-4.94,0-8.36,3.9-8.36,8.76a8.47,8.47,0,0,0,8.44,8.76C2081,596.92,2084.46,593,2084.46,588.16Z"/>
        <path class="cls-4" d="M2096.33,574.22H2102L2115,591.38V574.22h6.05v27.87h-5.21l-13.5-17.72v17.72h-6.05Z"/>
      </g>
    </g>
    <g>
      <rect class="cls-29" x="829.18" y="631.55" width="251.94" height="78.16" rx="6.37"/>
      <g>
        <path class="cls-4" d="M892.72,684.65l4.32-5.17c3,2.47,6.12,4,9.91,4,3,0,4.79-1.19,4.79-3.23,0-1.85-1.14-2.8-6.69-4.22-6.69-1.71-11-3.56-11-10.25,0-6,4.83-10,11.62-10A19.21,19.21,0,0,1,918,660l-3.79,5.5c-2.94-2-5.84-3.27-8.64-3.27s-4.27,1.28-4.27,3c0,2.18,1.43,2.89,7.17,4.36,6.74,1.76,10.53,4.18,10.53,10.06,0,6.6-5,10.3-12.19,10.3A21.12,21.12,0,0,1,892.72,684.65Z"/>
        <path class="cls-4" d="M936,656.05h6.74L957,689.49h-7.64l-3-7.45H932.28l-3,7.45H921.8Zm7.69,19.54-4.42-10.77-4.41,10.77Z"/>
        <path class="cls-4" d="M962.12,656.28h7.31v26.57H986v6.64H962.12Z"/>
        <path class="cls-4" d="M991.49,656.28h25v6.5H998.74v6.74h15.66V676H998.74v7h18v6.5H991.49Z"/>
      </g>
    </g>
    <path class="cls-4" d="M562.61,1004.59H191.72q.17,8.65.56,17.19t1,16.79a730.47,730.47,0,0,0,12.14,90.11c.29,1.49.58,3,.88,4.44l.17.82q1.23,6,2.5,11.82,2.34,10.54,4.84,20.68l.93,3.71c4.47,17.64,9.31,34.32,14.28,49.85q1.25,3.88,2.5,7.68,3.38,10.21,6.78,19.73c1.61,4.51,3.23,8.89,4.83,13.14h0c8.59,22.84,16.87,41.83,23.55,56.12,9,19.3,15.1,30,15.1,30l176.15.58,114.12.37V1015.75C572,1009.61,567.78,1004.59,562.61,1004.59Z"/>
    <rect class="cls-4" x="230.55" y="1186.88" width="848.14" height="10.77" rx="1.72"/>
    <g>
      <path class="cls-14" d="M625.05,1084.62l-9.13,75.57a23.84,23.84,0,0,0,23.66,26.69h81.49l38.5-102.26Z"/>
      <path class="cls-14" d="M653.36,1092.21c0-.48,4.14-47.7,32.44-46.81,28.74.87,36.15,42.83,36.22,43.26l5.62-1a88.46,88.46,0,0,0-8-23.29c-8.1-15.75-19.76-24.3-33.7-24.72-14.19-.43-25.28,8.62-32.2,26.17a101,101,0,0,0-6.1,25.89Z"/>
      <path class="cls-15" d="M759.57,1084.62H635.51L653.35,1163a30.77,30.77,0,0,0,30,23.93h75.41a24.29,24.29,0,0,0,23.15-31.6Z"/>
      <path class="cls-16" d="M759.57,1084.62s-1,30.66-41.83,32.08-82.23-32.08-82.23-32.08Z"/>
      <path class="cls-16" d="M663.24,1092.21c0-.48,4.14-47.7,32.45-46.81,28.73.87,36.14,42.83,36.21,43.26l5.63-1a88.7,88.7,0,0,0-8-23.29c-8.1-15.75-19.75-24.3-33.69-24.72-14.2-.43-25.29,8.62-32.21,26.17a100.22,100.22,0,0,0-6.09,25.89Z"/>
    </g>
    <g>
      <path class="cls-30" d="M693.31,826.82l-10,82.43a26,26,0,0,0,25.81,29.11H798l42-111.54Z"/>
      <path class="cls-14" d="M796.51,804.79c-8.84-17.18-21.55-26.5-36.75-27-15.49-.46-27.58,9.4-35.12,28.54A109.35,109.35,0,0,0,718,834.61l6.21.49c0-.52,4.51-52,35.38-51.05,31.34,1,39.42,46.72,39.5,47.18l6.14-1A97,97,0,0,0,796.51,804.79Z"/>
      <path class="cls-31" d="M864.39,903.9,840,826.82H704.72l19.46,85.44a33.55,33.55,0,0,0,32.71,26.1h82.25A26.48,26.48,0,0,0,864.39,903.9Z"/>
      <path class="cls-16" d="M704.72,826.82s45.1,36.55,89.69,35,45.62-35,45.62-35Z"/>
      <path class="cls-16" d="M807.29,804.79c-8.84-17.18-21.55-26.5-36.75-27-15.49-.46-27.58,9.4-35.13,28.54a109.58,109.58,0,0,0-6.65,28.24l6.21.49c0-.52,4.51-52,35.38-51.05,31.34,1,39.42,46.72,39.5,47.18l6.14-1A97,97,0,0,0,807.29,804.79Z"/>
    </g>
    <g>
      <path class="cls-28" d="M865.17,1084.45,856,1160a23.83,23.83,0,0,0,23.66,26.7h81.49l38.5-102.27Z"/>
      <path class="cls-28" d="M893.48,1092.05c0-.48,4.14-47.7,32.44-46.81,28.73.87,36.14,42.83,36.22,43.25l5.62-1a89,89,0,0,0-8-23.28c-8.11-15.75-19.76-24.3-33.7-24.72-14.2-.43-25.29,8.62-32.2,26.16a100.11,100.11,0,0,0-6.1,25.9Z"/>
      <path class="cls-27" d="M999.69,1084.45H875.63l17.84,78.33a30.77,30.77,0,0,0,30,23.94h75.41a24.28,24.28,0,0,0,23.15-31.6Z"/>
      <path class="cls-27" d="M903.36,1092.05c0-.48,4.14-47.7,32.44-46.81,28.74.87,36.15,42.83,36.22,43.25l5.62-1a88.58,88.58,0,0,0-8-23.28c-8.1-15.75-19.76-24.3-33.7-24.72-14.19-.43-25.28,8.62-32.2,26.16a101.07,101.07,0,0,0-6.1,25.9Z"/>
    </g>
    <g>
      <g>
        <path class="cls-14" d="M908.64,1341.36s4.68-4.43,2.34-8.46-6.07-4.78-13.31-4.78H785.31s-5.84,2.17-5.84,6.62,2.33,5.52,4.2,6.62S908.64,1341.36,908.64,1341.36Z"/>
        <path class="cls-14" d="M902.28,1328.17s10.92.45,8.7-8.51c-1.13-4.59-6.07-4.78-13.31-4.78H785.31s-5.84,2.17-5.84,6.62,2.33,5.52,4.2,6.62S902.28,1328.17,902.28,1328.17Z"/>
        <path class="cls-14" d="M902.28,1314.43s10.92.45,8.7-8.52c-1.13-4.59-6.07-4.78-13.31-4.78H785.31s-5.84,2.17-5.84,6.62,2.33,5.53,4.2,6.62S902.28,1314.43,902.28,1314.43Z"/>
        <path class="cls-14" d="M895.43,1300.94s10.92.45,8.7-8.51c-1.14-4.59-6.08-4.79-13.32-4.79H778.46s-5.84,2.18-5.84,6.63,2.33,5.52,4.2,6.62S895.43,1300.94,895.43,1300.94Z"/>
        <path class="cls-14" d="M902.28,1287.45s10.92.45,8.7-8.51c-1.13-4.59-6.07-4.78-13.31-4.78H785.31s-5.84,2.17-5.84,6.62,2.33,5.52,4.2,6.62S902.28,1287.45,902.28,1287.45Z"/>
        <path class="cls-14" d="M902.28,1273.71s10.92.45,8.7-8.52c-1.13-4.58-6.07-4.78-13.31-4.78H785.31s-5.84,2.17-5.84,6.62,2.33,5.53,4.2,6.63S902.28,1273.71,902.28,1273.71Z"/>
        <path class="cls-14" d="M895.43,1260.48s10.92.45,8.7-8.51c-1.14-4.59-6.08-4.79-13.32-4.79H778.46s-5.84,2.18-5.84,6.63,2.33,5.52,4.2,6.62S895.43,1260.48,895.43,1260.48Z"/>
        <path class="cls-14" d="M902.28,1246.74s10.92.44,8.7-8.52c-1.13-4.59-6.07-4.78-13.31-4.78H785.31s-5.84,2.17-5.84,6.62,2.33,5.52,4.2,6.62S902.28,1246.74,902.28,1246.74Z"/>
      </g>
      <g>
        <path class="cls-16" d="M978.15,1341.36s4.68-4.43,2.34-8.46-6.07-4.78-13.31-4.78H854.82s-5.84,2.17-5.84,6.62,2.33,5.52,4.2,6.62S978.15,1341.36,978.15,1341.36Z"/>
        <path class="cls-16" d="M971.79,1328.17s10.92.45,8.7-8.51c-1.14-4.59-6.07-4.78-13.31-4.78H854.82s-5.84,2.17-5.84,6.62,2.33,5.52,4.2,6.62S971.79,1328.17,971.79,1328.17Z"/>
        <path class="cls-32" d="M971.79,1314.43s10.92.45,8.7-8.52c-1.14-4.59-6.07-4.78-13.31-4.78H854.82s-5.84,2.17-5.84,6.62,2.33,5.53,4.2,6.62S971.79,1314.43,971.79,1314.43Z"/>
        <path class="cls-16" d="M964.93,1300.94s10.93.45,8.71-8.51c-1.14-4.59-6.08-4.79-13.32-4.79H848s-5.84,2.18-5.84,6.63,2.34,5.52,4.21,6.62S964.93,1300.94,964.93,1300.94Z"/>
        <path class="cls-15" d="M971.79,1287.45s10.92.45,8.7-8.51c-1.14-4.59-6.07-4.78-13.31-4.78H854.82s-5.84,2.17-5.84,6.62,2.33,5.52,4.2,6.62S971.79,1287.45,971.79,1287.45Z"/>
        <path class="cls-16" d="M971.79,1273.71s10.92.45,8.7-8.52c-1.14-4.58-6.07-4.78-13.31-4.78H854.82S849,1262.58,849,1267s2.33,5.53,4.2,6.63S971.79,1273.71,971.79,1273.71Z"/>
        <path class="cls-15" d="M964.93,1260.48s10.93.45,8.71-8.51c-1.14-4.59-6.08-4.79-13.32-4.79H848s-5.84,2.18-5.84,6.63,2.34,5.52,4.21,6.62S964.93,1260.48,964.93,1260.48Z"/>
        <path class="cls-32" d="M971.79,1246.74s10.92.44,8.7-8.52c-1.14-4.59-6.07-4.78-13.31-4.78H854.82s-5.84,2.17-5.84,6.62,2.33,5.52,4.2,6.62S971.79,1246.74,971.79,1246.74Z"/>
      </g>
    </g>
    <g>
      <g>
        <path class="cls-14" d="M748.26,1341.36s4.67-4.43,2.33-8.46-6.07-4.78-13.31-4.78H624.92s-5.84,2.17-5.84,6.62,2.34,5.52,4.21,6.62S748.26,1341.36,748.26,1341.36Z"/>
        <path class="cls-14" d="M741.89,1328.17s10.92.45,8.7-8.51c-1.13-4.59-6.07-4.78-13.31-4.78H624.92s-5.84,2.17-5.84,6.62,2.34,5.52,4.21,6.62S741.89,1328.17,741.89,1328.17Z"/>
        <path class="cls-14" d="M741.89,1314.43s10.92.45,8.7-8.52c-1.13-4.59-6.07-4.78-13.31-4.78H624.92s-5.84,2.17-5.84,6.62,2.34,5.53,4.21,6.62S741.89,1314.43,741.89,1314.43Z"/>
        <path class="cls-14" d="M735,1300.94s10.92.45,8.7-8.51c-1.13-4.59-6.07-4.79-13.31-4.79H618.07s-5.84,2.18-5.84,6.63,2.33,5.52,4.2,6.62S735,1300.94,735,1300.94Z"/>
        <path class="cls-14" d="M741.89,1287.45s10.92.45,8.7-8.51c-1.13-4.59-6.07-4.78-13.31-4.78H624.92s-5.84,2.17-5.84,6.62,2.34,5.52,4.21,6.62S741.89,1287.45,741.89,1287.45Z"/>
        <path class="cls-14" d="M741.89,1273.71s10.92.45,8.7-8.52c-1.13-4.58-6.07-4.78-13.31-4.78H624.92s-5.84,2.17-5.84,6.62,2.34,5.53,4.21,6.63S741.89,1273.71,741.89,1273.71Z"/>
        <path class="cls-14" d="M735,1260.48s10.92.45,8.7-8.51c-1.13-4.59-6.07-4.79-13.31-4.79H618.07s-5.84,2.18-5.84,6.63,2.33,5.52,4.2,6.62S735,1260.48,735,1260.48Z"/>
        <path class="cls-14" d="M741.89,1246.74s10.92.44,8.7-8.52c-1.13-4.59-6.07-4.78-13.31-4.78H624.92s-5.84,2.17-5.84,6.62,2.34,5.52,4.21,6.62S741.89,1246.74,741.89,1246.74Z"/>
      </g>
      <g>
        <path class="cls-16" d="M817.77,1341.36s4.67-4.43,2.33-8.46-6.07-4.78-13.31-4.78H694.43s-5.84,2.17-5.84,6.62,2.34,5.52,4.21,6.62S817.77,1341.36,817.77,1341.36Z"/>
        <path class="cls-16" d="M811.4,1328.17s10.92.45,8.7-8.51c-1.13-4.59-6.07-4.78-13.31-4.78H694.43s-5.84,2.17-5.84,6.62,2.34,5.52,4.21,6.62S811.4,1328.17,811.4,1328.17Z"/>
        <path class="cls-32" d="M811.4,1314.43s10.92.45,8.7-8.52c-1.13-4.59-6.07-4.78-13.31-4.78H694.43s-5.84,2.17-5.84,6.62,2.34,5.53,4.21,6.62S811.4,1314.43,811.4,1314.43Z"/>
        <path class="cls-16" d="M804.55,1300.94s10.92.45,8.7-8.51c-1.13-4.59-6.07-4.79-13.31-4.79H687.58s-5.84,2.18-5.84,6.63,2.33,5.52,4.2,6.62S804.55,1300.94,804.55,1300.94Z"/>
        <path class="cls-15" d="M811.4,1287.45s10.92.45,8.7-8.51c-1.13-4.59-6.07-4.78-13.31-4.78H694.43s-5.84,2.17-5.84,6.62,2.34,5.52,4.21,6.62S811.4,1287.45,811.4,1287.45Z"/>
        <path class="cls-16" d="M811.4,1273.71s10.92.45,8.7-8.52c-1.13-4.58-6.07-4.78-13.31-4.78H694.43s-5.84,2.17-5.84,6.62,2.34,5.53,4.21,6.63S811.4,1273.71,811.4,1273.71Z"/>
        <path class="cls-15" d="M804.55,1260.48s10.92.45,8.7-8.51c-1.13-4.59-6.07-4.79-13.31-4.79H687.58s-5.84,2.18-5.84,6.63,2.33,5.52,4.2,6.62S804.55,1260.48,804.55,1260.48Z"/>
        <path class="cls-32" d="M811.4,1246.74s10.92.44,8.7-8.52c-1.13-4.59-6.07-4.78-13.31-4.78H694.43s-5.84,2.17-5.84,6.62,2.34,5.52,4.21,6.62S811.4,1246.74,811.4,1246.74Z"/>
      </g>
    </g>
    <g>
      <g>
        <path class="cls-14" d="M422.6,982.51c-3,9,11.89,8.52,11.89,8.52h2.06c-7.17.25-11.25,1.31-13.95,4.72-3.19,4,3.19,8.46,3.19,8.46s168.2,1.1,170.76,0,5.74-2.17,5.74-6.62c0-3.77-5.71-5.9-7.46-6.47a10.28,10.28,0,0,0,1.72-.15c2.55-1.1,5.74-2.18,5.74-6.63s-8-6.62-8-6.62H440.8C430.9,977.73,424.15,977.93,422.6,982.51Z"/>
        <path class="cls-14" d="M603.67,950.5h-11.3a32.93,32.93,0,0,0,4.18-.24c2.55-1.1,5.74-2.18,5.74-6.63s-8-6.62-8-6.62H440.8c-9.9,0-16.65.2-18.2,4.78-3,9,11.89,8.52,11.89,8.52s13.83.09,33.39.19H450.16c-9.9,0-16.64.19-18.2,4.78-3,9,11.9,8.52,11.9,8.52s13.82.09,33.38.19H440.8c-9.9,0-16.65.19-18.2,4.78-3,9,11.89,8.51,11.89,8.51s68.7.45,116.64.45c25.12,0,44.54-.12,45.42-.5,2.55-1.1,5.74-2.17,5.74-6.62,0-3.85-6-6-7.57-6.5,6.68-.08,10.8-.2,11.19-.37,2.55-1.1,5.74-2.17,5.74-6.62S603.67,950.5,603.67,950.5Z"/>
        <path class="cls-14" d="M602.29,929.89c0-3.39-4.63-5.46-6.84-6.25,6.25-.08,10.08-.19,10.46-.36,2.55-1.1,5.74-2.17,5.74-6.62s-8-6.62-8-6.62H450.16c-9.9,0-16.64.19-18.2,4.78-2.27,6.74,5.59,8.16,9.64,8.45h-.8c-9.9,0-16.65.19-18.2,4.78-3,9,11.89,8.52,11.89,8.52s68.7.45,116.64.44c25.12,0,44.54-.12,45.42-.5C599.1,935.41,602.29,934.34,602.29,929.89Z"/>
        <path class="cls-14" d="M602.29,902.92c0-4.45-8-6.63-8-6.63H440.8c-9.9,0-16.65.2-18.2,4.79-3,9,11.89,8.51,11.89,8.51s68.7.45,116.64.45c25.12,0,44.54-.12,45.42-.5C599.1,908.44,602.29,907.36,602.29,902.92Z"/>
      </g>
      <g>
        <path class="cls-16" d="M330.82,1004.22s-6.38-4.44-3.19-8.46,8.3-4.78,18.19-4.78H499.34s8,2.17,8,6.62-3.19,5.52-5.75,6.62S330.82,1004.22,330.82,1004.22Z"/>
        <path class="cls-16" d="M339.52,991s-14.92.45-11.89-8.52c1.55-4.58,8.3-4.78,18.19-4.78H499.34s8,2.17,8,6.62-3.19,5.53-5.75,6.63S339.52,991,339.52,991Z"/>
        <path class="cls-32" d="M339.52,977.28s-14.92.45-11.89-8.51c1.55-4.59,8.3-4.78,18.19-4.78H499.34s8,2.17,8,6.62-3.19,5.52-5.75,6.62S339.52,977.28,339.52,977.28Z"/>
        <path class="cls-16" d="M348.88,963.8s-14.92.45-11.89-8.52c1.55-4.59,8.3-4.78,18.2-4.78H508.7s8,2.17,8,6.62-3.19,5.52-5.74,6.62S348.88,963.8,348.88,963.8Z"/>
        <path class="cls-15" d="M339.52,950.31s-14.92.45-11.89-8.52c1.55-4.58,8.3-4.78,18.19-4.78H499.34s8,2.18,8,6.62-3.19,5.53-5.75,6.63S339.52,950.31,339.52,950.31Z"/>
        <path class="cls-16" d="M339.52,936.57s-14.92.44-11.89-8.52c1.55-4.59,8.3-4.78,18.19-4.78H499.34s8,2.17,8,6.62-3.19,5.52-5.75,6.62S339.52,936.57,339.52,936.57Z"/>
        <path class="cls-15" d="M348.88,923.34s-14.92.44-11.89-8.52c1.55-4.59,8.3-4.78,18.2-4.78H508.7s8,2.17,8,6.62-3.19,5.52-5.74,6.62S348.88,923.34,348.88,923.34Z"/>
        <path class="cls-32" d="M339.52,909.59s-14.92.45-11.89-8.51c1.55-4.59,8.3-4.79,18.19-4.79H499.34s8,2.18,8,6.63-3.19,5.52-5.75,6.62S339.52,909.59,339.52,909.59Z"/>
      </g>
    </g>
    <g>
      <path class="cls-33" d="M243.09,1260.56c8.59,22.84,16.87,41.83,23.55,56.12,3.39-2.67,1.45-11.34-.15-21.79C264.51,1281.94,251.29,1269.68,243.09,1260.56Z"/>
      <path class="cls-33" d="M375.3,1207.85s-62.39,17.72-71.05,11.93,50.39-25.57,50.39-25.57c-13.86-14.58-68.49-29.47-68.49-29.47s-39,50-46,42.21S277,1164.48,277,1164.48c-18.45-8.3-46.93-3.06-46.93-3.06a38.51,38.51,0,0,0-15.34,8.73c4.47,17.64,9.31,34.32,14.28,49.85q1.25,3.88,2.5,7.68,3.38,10.21,6.78,19.73c3.53-.32,11.55,4.39,19.39,12.32,11.84,12,7.18,30.17,26,49.89s67.85-5.28,67.85-5.28c-18-7.89-36.57-37.7-33.31-43.43s40.41,27.35,47.53,31,27.53.79,41.5-28.13S375.3,1207.85,375.3,1207.85Z"/>
    </g>
    <g>
      <path class="cls-34" d="M438.44,977.26c-13.63,3.41-101.11,2.27-98.85,13.64s61.36,29.54,94.31,19.31c0,0-36.36,89.76-84.08,85.21s-62.49-34.08-92-36.35-51.13,5.68-36.36,13.63,64.76,2.61,88.63,22.9,43.17,32.77-1.14,41.87c-28.42,5.83-71.33,5.58-102.66-4.35a733.59,733.59,0,0,1-13-94.55q-.59-8.33-1-16.79t-.56-17.19a601.38,601.38,0,0,1,7.86-110.74c26.37-11.8,84.79-36.21,111.61-33.61,0,0-55.67,94.3-37.49,92s80.67-97.72,80.67-97.72,92-17,106.8,37.5S452.08,973.86,438.44,977.26Z"/>
      <path class="cls-33" d="M419.09,909.11c-130.18,52.66-194.66,96.53-225.85,129.46q-.59-8.33-1-16.79C266.89,958.77,416.17,910.06,419.09,909.11Z"/>
    </g>
    <path class="cls-29" d="M2529.85,386.82H1167.27c18.8-19.86,38.57-43,61-67.7q6.14-6.75,12.58-13.64c8.48-9.08,17.36-18.32,26.7-27.62,1.44-1.44,2.89-2.87,4.35-4.31q4.74-4.65,9.65-9.32c1.44-1.37,2.89-2.75,4.35-4.11q15.93-14.94,33.73-29.83a668.45,668.45,0,0,1,168.26-102.43q8.44-3.6,17.19-7,7.45-2.94,15.15-5.79l.12,0c49.67-16.4,105.45-30.54,168.5-41.42,33.49-5.78,68.39-10.72,104.22-14.73q19.23-1.61,38.67-2.64,20.84-1.11,41.82-1.56,12.57-.26,25.17-.27h.31q8.6,0,17.18.1c14.92.19,29.84.66,44.67,1.42q11,.54,21.92,1.31c89.31,6.26,175.35,23.17,248,53.38a663.58,663.58,0,0,1,73.68,37.12q8.39,4.86,17.19,10.25C2397.27,204.39,2492.85,281.45,2529.85,386.82Z"/>
    <path class="cls-4" d="M1536.84,1286.16h599.3a10.94,10.94,0,0,1,10.94,10.94v46.34a10.94,10.94,0,0,1-10.94,10.94h-599.3a10.94,10.94,0,0,1-10.94-10.94V1297.1A10.93,10.93,0,0,1,1536.84,1286.16Z"/>
    <rect class="cls-35" x="165.61" y="1350.72" width="2758.39" height="7.32" rx="3.13"/>
    <g>
      <path class="cls-29" d="M1763.51,775.65H1528v-332h235.47Zm-228.74-6.72h222V450.34h-222Z"/>
      <rect class="cls-1" x="1541.75" y="455.48" width="205.91" height="306.8"/>
    </g>
    <g>
      <path class="cls-29" d="M2460.86,775.65H2225.39v-332h235.47Zm-228.74-6.72h222V450.34h-222Z"/>
      <rect class="cls-1" x="2239.1" y="455.48" width="205.91" height="306.8"/>
    </g>
    <g>
      <path class="cls-36" d="M2373.46,1035.54c-2.79,1.26-6.25,2.82-9.36,4.24a54.14,54.14,0,0,0-3.45-5.48s-40.44-68.22-43.8-84.17c-1.09-5.2-3.77-15.59-6.91-27.23-6.49-24.12-14.87-53.62-14.87-53.62l-2.75-11.94-9.4-40.74s18,1.84,28.54,6.24c3.48,1.46,6.15,3.19,7.08,5.24,7.73,17,15.46,60,20.89,90.59,3,17.07,5.34,30.33,6.54,33.14,3.36,7.83,13.63,51,22.4,72.22C2368.37,1024,2370.73,1031.48,2373.46,1035.54Z"/>
      <path class="cls-36" d="M2364.06,1040.1s-.48,4.19,1,6.72,6.88,6.22,7.8,4.37C2374.06,1048.72,2364.06,1040.1,2364.06,1040.1Z"/>
      <path class="cls-37" d="M2332.75,1330s-13.95,10.85-19.62,12.92-13.38,4-13.38,7.85h27s7.33-3.4,10.4-1.93c5,2.37,9.12,2,12.54,2s3.65-11.48.76-15.48a47,47,0,0,1-5-10.17Z"/>
      <path class="cls-36" d="M2222.8,832.35c-1.23-3.8-2.16-6.56-2.63-7.92l-.32-1a12.54,12.54,0,0,0-1,1.13c-3.82,4.79-16.94,25.39-7.08,73.06,1.45,7,3.4,14.62,5.94,22.84,0,0-36.33-6.41-46.59-13.25-.43-1.07-5.77-16.88-9.83-19s-11.54-4.49-13.25-3.64-4.92,12.83,0,19,17.52,12.18,17.52,12.18,40.61,32.49,68.82,31.63C2258,946.71,2232,860.62,2222.8,832.35Z"/>
      <path class="cls-9" d="M2350.94,801.69c-15.84-9.74,7.17-31.4,0-62.8s-33.12-25.48-52.25-35.55c-13.92-7.33-23.8.09-28.15,4.67-17.25-1.27-37.38,22.93-37.38,22.93l33.39,44.25-1.27,53.75s28.76,42.8,56.54,41.62S2379.14,819,2350.94,801.69Z"/>
      <path class="cls-37" d="M2260,1277.15c-12.87,36.29-21,48.69-21,48.69l-16.29,1s4.2-16.3,7.52-54.94c2.32-27,2-59.24-5.77-90.71-26.71-108.15-13.56-183.77-13.56-183.77l68.16,14.6,3.17.68c-2.71,31.68-6,74.74-8.45,108.41-2.23,30.28-3.83,53-3.83,53C2280.52,1203.92,2271.89,1243.75,2260,1277.15Z"/>
      <path class="cls-38" d="M2337.88,1245.42a352.19,352.19,0,0,1,7.51,79.73s-2.85,3.85-5.41,4.4a36,36,0,0,1-7.23.4s-7.44-34.77-24.7-66.17c-17.77-32.31-33.29-60.6-39.1-71.53-23.09-43.36-24.06-202.71-24.06-202.71l70.2-3.49c7.06,11.87,10.13,31.34,10.87,53.47,1.84,55.86-11.29,128.7-13.25,139.23a0,0,0,0,1,0,0,3.75,3.75,0,0,0,.46,2.35C2327.13,1208.78,2332,1217.86,2337.88,1245.42Z"/>
      <path class="cls-36" d="M2214.24,1005.42c17.65-.21,65.67-1.12,77.22-5,14.22-4.75,17.48-18.66,17.48-20.14,0-.33-1.17-6.86-3-17-3.68-7.75-5.52-12.41-5.64-17.35a28.47,28.47,0,0,1,1-7.79c1.53-5.94,4.69-13.76,9.38-26.7a71.83,71.83,0,0,0,3.48-14c4.7-31.65-7.26-69.94-21.67-78.85-1.69-1-5.71-1-7.72-1.39-3.72-1-10-14.44-9.95-36.11l-1.68.33L2245,787.1s.64,8.87.66,17.23c0,6.95-.4,13.56-2,14.39l-3.23.3-.08.11c-5.37.35-19.61,1.62-21.5,5.47l5.21,15.81,1.51,4.61a120.76,120.76,0,0,0-9.54,28.5A74.9,74.9,0,0,0,2215,882a59.51,59.51,0,0,0-.06,6.92c1.13,25.82,17.37,41.42-.1,97.27C2212.3,994.2,2212.31,1000.52,2214.24,1005.42Z"/>
      <path class="cls-31" d="M2214.24,1005.42c8.79,11.91,60.64,11.91,72.18,8.06,14.22-4.74,22.52-31.69,22.52-33.17,0-.33-1.17-6.86-3-17-1.26-7-2.85-15.64-4.6-25.14-7.69-41.74-18.41-99.48-18.41-99.48s-23.33,20.2-38.9,16-19.79-14.81-19.79-14.81,0,.18-.16.51c-1,3.31-6.69,21.73-7.84,31.19,0,.44-.11,1.08-.19,1.92-.27,3-.66,8.42-1.13,15.41,1.13,25.82,17.37,41.42-.1,97.27C2212.3,994.2,2212.31,1000.52,2214.24,1005.42Z"/>
      <path class="cls-39" d="M2245,787.1s.64,8.87.66,17.23c15.77-.45,24.1-14.84,27.52-22.81Z"/>
      <path class="cls-9" d="M2276.07,778.45s8.26-13.06,10.25-24.22c1.41-8-2.64-37.52-32.34-33.27a40.33,40.33,0,0,0-16.73,6.33c-6.45,4.35-15.75,13.75-5.35,39.54l2.71,8.71Z"/>
      <path class="cls-36" d="M2239.71,795s37.31.62,37.34-22.62,4.86-38.82-19-40.19-28.46,7.48-30.36,15.24S2230,794.25,2239.71,795Z"/>
      <path class="cls-9" d="M2267,762.93c15.68,4,22.48-.17,22.48-.17a44.44,44.44,0,0,1-14.53-26.23s-16-12.88-33.53-5.37c-2.44-2.1-6.8-3.64-12.57,3.36-8.65,10.48-1,29-1,29,3.55.42,4.39-11.77,6.25-17.68,1.37-4.36,5.86-8.8,8.13-10.85.73,2.69,8.24,28.79,27,37.46a86.79,86.79,0,0,1-15-18.3C2257.92,758.29,2262.2,761.69,2267,762.93Z"/>
      <path class="cls-30" d="M2260.89,1089.61c3.15,27.4,4.73,94.9-4.12,120.36,28.16-2.9,79.11-21.06,94.17-36.59-8-30.36-16-66.46-18-95.79-.47-7-1.21-15.6-2.14-25.35C2327,1012.62,2320,954,2313.91,905.52c-5.95-47.64-10.95-85.4-10.95-85.4l-13.68-2.47s-19.61,16-22.79,70.53S2256.22,1048.81,2260.89,1089.61Z"/>
      <path class="cls-30" d="M2240.43,819c.12-.07-15.18.29-20.58,4.44-5.25,4-19.39,30.82-17.32,70.88-1.54,6.61-3,13.38-4.29,20.19-3.78.93-9.2-.46-9.2-.46s-2.89,27.35,3,46.67q-.28,4.38-.42,8.61c-1.77,59.24,20.07,142.56,20.07,142.56s7.43-66.82,10.59-140.49c2.17-50.45-5.33-81.76,3.33-108.19C2229.69,850.84,2240.43,819,2240.43,819Z"/>
      <path class="cls-37" d="M2222.74,1326.88s-15.47,13.92-21.14,16-13.37,4-13.37,7.85h26.95s7.34-3.4,10.41-1.93c5,2.37,9.11,2,12.53,2s3.65-11.48.76-15.48.15-9.48.15-9.48Z"/>
      <g>
        <path class="cls-40" d="M2375.76,1044.61c12.62-1.59,20.72,8.92,25.34,18.2a89.35,89.35,0,0,1,7.18,21.45c.12.71-.15,1.38-.62,1.5s-.95-.37-1.07-1.08a87.34,87.34,0,0,0-6.89-20.53c-6.5-13-14.87-18.64-24.88-16.74-6.8,1.29-11.51,5.34-14,12-4.64,12.54,0,30.43.06,30.61a1.41,1.41,0,0,1-.48,1.62c-.45.2-1-.2-1.14-.89s-5-19.2,0-32.76c2.72-7.38,7.81-11.82,15.14-13.21C2374.87,1044.74,2375.32,1044.67,2375.76,1044.61Z"/>
        <polygon class="cls-41" points="2380 1075.85 2323.7 1078.57 2327.76 1242.29 2387.88 1239.4 2380 1075.85"/>
        <path class="cls-42" d="M2424.46,1073.71l-15.1.73a81.18,81.18,0,0,0-4.64-11.63c-4.62-9.28-12.73-19.79-25.34-18.2-.44.06-.89.13-1.35.22-7.32,1.39-12.42,5.83-15.14,13.21-2.19,6-2.5,12.82-2.14,18.74l-26.62,1.28,13.32,163.28,92.75-4.46Zm-60-14.25c2.48-6.71,7.18-10.76,14-12,10-1.9,18.39,3.73,24.89,16.74a76.87,76.87,0,0,1,4.2,10.38l-45,2.17C2362.19,1071.18,2362.47,1064.83,2364.45,1059.46Z"/>
        <polygon class="cls-40" points="2334.13 1078.06 2329.93 1078.42 2337.79 1241.81 2347.45 1241.34 2334.13 1078.06"/>
      </g>
      <g>
        <path class="cls-43" d="M2177.47,899.88l-11.9-35.73a1.11,1.11,0,0,0-1.4-.71l-15.79,5.26a1.11,1.11,0,0,0-.7,1.41l11.9,35.73a1.11,1.11,0,0,0,1.4.7l15.79-5.26A1.11,1.11,0,0,0,2177.47,899.88Z"/>
        <path class="cls-30" d="M2173.79,900.2l-11.36-34.1a2,2,0,0,0-2.49-1.25l-14.15,4.71a2,2,0,0,0-1.25,2.5l11.35,34.1a2,2,0,0,0,2.5,1.24l14.15-4.71A2,2,0,0,0,2173.79,900.2Z"/>
      </g>
      <path class="cls-36" d="M2147.07,886.19s3.21-6.63,9.09-4,3.31,12.72-.11,16.25a34,34,0,0,0-4.38,5.13Z"/>
      <path class="cls-44" d="M2330.79,1052.24C2327,1012.62,2320,954,2313.91,905.52a33.69,33.69,0,0,0-10.21-5.42S2270.36,996.69,2330.79,1052.24Z"/>
      <path class="cls-30" d="M2303,820.11s13.5,2.94,20.2,12.68c8.8,12.81,23.1,108.86,30.65,125.3s11.11,23.55,11.11,23.55,4,25.51-21.33,40.53c0,0-30.65-55.64-34.65-63.64S2292.09,837.21,2303,820.11Z"/>
      <path class="cls-36" d="M2373.46,1035.54s11.47,8,12.37,10.78-3.32,10.23-6.91,10.1-2.65-5.88-4.7-7.74-11.39-3.82-10.12-8.9S2373.46,1035.54,2373.46,1035.54Z"/>
    </g>
    <path class="cls-4" d="M1086.86,1341.55H273.09a4.59,4.59,0,0,0,0,9.17h813.77a4.59,4.59,0,0,0,0-9.17Z"/>
    <g>
      <path class="cls-4" d="M1505.1,120.81v129a8,8,0,0,1-8,8h-1.16a8,8,0,0,1-8-8V127.86Q1496.36,124.26,1505.1,120.81Z"/>
      <path class="cls-11" d="M1492,212.05c-62.65,0-113.44,53.7-113.44,119.94h226.87C1605.46,265.75,1554.67,212.05,1492,212.05Z"/>
      <path class="cls-45" d="M1501.06,213.51a46.68,46.68,0,0,0-10-1.08c-40.82,0-73.9,53.53-73.9,119.56h19.92C1437.12,271.43,1465,221.38,1501.06,213.51Z"/>
    </g>
    <g>
      <path class="cls-4" d="M1899.06,54.36v195.4a8,8,0,0,0,8,8h1.15a8,8,0,0,0,8-8V54.46Q1907.65,54.34,1899.06,54.36Z"/>
      <path class="cls-11" d="M1903.17,212.05c-62.64,0-113.43,53.7-113.43,119.94h226.87C2016.61,265.75,1965.82,212.05,1903.17,212.05Z"/>
      <path class="cls-45" d="M1912.21,213.51a46.75,46.75,0,0,0-10-1.08c-40.82,0-73.91,53.53-73.91,119.56h19.92C1848.26,271.43,1876.1,221.38,1912.21,213.51Z"/>
    </g>
    <g>
      <path class="cls-4" d="M2321.65,157.94v91.82a8,8,0,0,1-8,8h-1.17a8,8,0,0,1-8-8V147.69Q2312.85,152.55,2321.65,157.94Z"/>
      <path class="cls-11" d="M2308.58,212.05c-62.65,0-113.43,53.7-113.43,119.94H2422C2422,265.75,2371.23,212.05,2308.58,212.05Z"/>
      <path class="cls-45" d="M2317.62,213.51a46.77,46.77,0,0,0-10-1.08c-40.81,0-73.9,53.53-73.9,119.56h19.92C2253.67,271.43,2281.51,221.38,2317.62,213.51Z"/>
    </g>
    <g>
      <path class="cls-2" d="M603.51,590.33H484c0-34.13,25.59-61.94,57.59-63.15V459.66c3-1.45,6-2.86,9.06-4.23v72.13C580.39,531.17,603.51,557.9,603.51,590.33Z"/>
      <path class="cls-2" d="M820.14,590.33H700.6c0-37.35,25.6-67.78,57.61-69.1v-110c3,0,6,0,9,.11V521.64C797,525.59,820.14,554.83,820.14,590.33Z"/>
      <path class="cls-2" d="M1033.74,590.33H914.21c0-34.13,25.6-61.94,57.6-63.15V441.91q4.58.93,9.06,1.8v83.85C1010.63,531.17,1033.74,557.9,1033.74,590.33Z"/>
    </g>
  </g>
</svg>
