<svg xmlns="http://www.w3.org/2000/svg" width="731.814" height="341.725" viewBox="0 0 731.814 341.725">
  <g id="Grupo_26253" data-name="Grupo 26253" transform="translate(-335 -994.438)">
    <g id="Grupo_26244" data-name="Grupo 26244" transform="translate(-1797.186 93.027)">
      <path id="Trazado_20266" data-name="Trazado 20266" d="M2296.3,1488.238s-40.074-103.677,18.551-165.584c75.616-79.848,173.333-13.1,210-15.051s38.731-78.56,148.284-87.711c84.707-7.076,223.82-7.633,194.142,117.54-22.564,95.167,102.977,45.873,78.533,151.007Z" transform="translate(-117.393 -246.065)" fill="#ebf2f9"/>
      <rect id="Rectángulo_3785" data-name="Rectángulo 3785" width="731.814" height="2.031" rx="1.016" transform="translate(2132.186 1241.105)" fill="#2e3552"/>
      <g id="Grupo_26227" data-name="Grupo 26227" transform="translate(2177.721 1016.903)">
        <g id="Grupo_26224" data-name="Grupo 26224" transform="translate(14.177 44.644)">
          <path id="Trazado_20267" data-name="Trazado 20267" d="M2720.762,1836.423l2.437,1.978s6.665-2.39,8.168,5.53c0,0,.4,3.375-1.738,3.381s-1.256-.369-4.283-.28-5.537-1.508-5.98-3.964l-1.448-2.081Z" transform="translate(-2648.044 -1789.698)" fill="#ea8e50"/>
          <path id="Trazado_20268" data-name="Trazado 20268" d="M2474.531,1676.2c1.944-2.03,1.787-3.53,1.787-3.53s-22.508-18.427-24.79-19.929c-1.555-1.023-18.131-15.718-25.879-24.677-3.844-4.444-8.6-2.72-14.051-1.157l-4.486,1.287c-5.416,1.554-6.825,9.129-2.38,12.81,12.516,10.367,33.337,22.028,37.232,24.478,9.671,6.084,28.6,13.313,28.6,13.313A12,12,0,0,0,2474.531,1676.2Z" transform="translate(-2402.09 -1625.228)" fill="#1e3d70"/>
        </g>
        <path id="Trazado_20269" data-name="Trazado 20269" d="M2820.321,2367.349s5.462,4.093,13.832,1.93c0,0,6.748-1.538,8.228,1.828,0,0-10.35,5.258-12.968,6.7a31.322,31.322,0,0,0-5.49,4.116,2.715,2.715,0,0,1-3.93-.3c-.456-.56-.976-1.227-1.547-2-1.6-2.163-5.314-9.148-5.314-9.148Z" transform="translate(-2708.017 -2158.52)" fill="#233862"/>
        <path id="Trazado_20270" data-name="Trazado 20270" d="M2563.686,2014.419s-3.326,7.669-11,6.259c0,0-15.666-12.938-26.413-26.378a59.689,59.689,0,0,1-8.208-12.827c-7.126-16.5-26.36-41.107-38.589-53.579l30.6-11.069s9.8,19.714,22.839,43.929C2542.3,1978.2,2553.381,1997.986,2563.686,2014.419Z" transform="translate(-2448.175 -1807.669)" fill="#2b478b"/>
        <g id="Grupo_26225" data-name="Grupo 26225" transform="translate(33.371 11.111)">
          <path id="Trazado_20271" data-name="Trazado 20271" d="M2572.769,1523.684a36.839,36.839,0,0,0,.178-5.629,2.107,2.107,0,0,1,1.213-2.01l9.036-4.193a2.062,2.062,0,0,0,1.07-2.576l-3.119-8.574a2.008,2.008,0,0,0-2.366-1.264l-8.912,2.187a2.065,2.065,0,0,1-2.252-.933,36.712,36.712,0,0,0-7.568-8.827,2.082,2.082,0,0,1-.514-2.506l2.464-5.014a2.087,2.087,0,0,0-.756-2.684l-7.641-4.843a2.07,2.07,0,0,0-2.755.495l-5.362,7.046a36.9,36.9,0,0,0-11.951-1.016,2.04,2.04,0,0,1-2.015-1.171l-3.382-7.288a2.112,2.112,0,0,0-2.638-1.1l-8.422,3.064a2.138,2.138,0,0,0-1.345,2.519l1.828,7.449a2.071,2.071,0,0,1-.881,2.235,36.726,36.726,0,0,0-6.548,5.393,2.1,2.1,0,0,1-2.441.424l-8.134-4a2.1,2.1,0,0,0-2.7.759l-4.823,7.61a2.1,2.1,0,0,0,.5,2.8l7.92,6.028a2.064,2.064,0,0,1,.74,2.18,36.724,36.724,0,0,0-1.04,5.563q-.165,1.518-.2,3.018a2.153,2.153,0,0,1-1.242,1.9l-8.679,4.028a2.05,2.05,0,0,0-1.063,2.561l3.081,8.471a2.143,2.143,0,0,0,2.525,1.349l7.062-1.733a2.089,2.089,0,0,1,2.355,1.064,36.714,36.714,0,0,0,6.689,9.144,2.115,2.115,0,0,1,.412,2.43l-3.6,7.335a2.149,2.149,0,0,0,.778,2.761l7.593,4.813a2.073,2.073,0,0,0,2.759-.5l5.26-6.911a2.136,2.136,0,0,1,2.3-.75,36.7,36.7,0,0,0,6.342,1.257q1.76.191,3.5.212a2.089,2.089,0,0,1,1.867,1.209l3.432,7.395a2.135,2.135,0,0,0,2.666,1.107l8.435-3.068a2.1,2.1,0,0,0,1.322-2.474l-1.459-5.944a2.1,2.1,0,0,1,1.062-2.357,36.715,36.715,0,0,0,11.252-9.1,2.074,2.074,0,0,1,2.511-.534l6.582,3.234a2.09,2.09,0,0,0,2.687-.757l4.82-7.6a2.116,2.116,0,0,0-.506-2.815l-7.6-5.783a2.087,2.087,0,0,1-.782-2.058Q2572.6,1525.223,2572.769,1523.684Zm-28.587,14.4c-18.979,6.785-34.75-12.943-23.842-30.005a19.3,19.3,0,0,1,8.179-6.579c19-7,34.893,12.636,24.2,29.72A19.518,19.518,0,0,1,2544.181,1538.081Z" transform="translate(-2488.846 -1473.659)" fill="#afcdfb"/>
        </g>
        <path id="Trazado_20272" data-name="Trazado 20272" d="M2532.907,1960.754l-6.638,33.545a59.689,59.689,0,0,1-8.208-12.827c-7.126-16.5-26.36-41.107-38.589-53.579l30.6-11.069S2519.868,1936.539,2532.907,1960.754Z" transform="translate(-2448.175 -1807.669)" fill="#233862"/>
        <path id="Trazado_20273" data-name="Trazado 20273" d="M2569.216,2375.659s-.333,6.12,7.085,6.936c0,0,4.477.091,4.489,3.986h-21.8a16.767,16.767,0,0,1-.778-4.937c-.117-2.584,2.5-9.339,2.5-9.339Z" transform="translate(-2509.492 -2162.379)" fill="#233862"/>
        <path id="Trazado_20274" data-name="Trazado 20274" d="M2467.783,1912.046s13.63,14.977,22.283,41.96c4.708,14.681-8.629,51.592-11.228,64.417,0,0-8.946.759-15.063-1.606,0,0-.465-26.488,3.113-46.9,2-11.426-17.947-24.436-26.664-45.081-5.93-14.045,1.284-13.807,10.15-14.144Z" transform="translate(-2415.925 -1802.89)" fill="#2b478b"/>
        <path id="Trazado_20275" data-name="Trazado 20275" d="M2419.943,1549.737c-7.583,4.282-23.108.333-23.108.333s6.3-7.208,3.44-18.816l5.954,3.024,6.4,3.248a53.065,53.065,0,0,1,.7,5.733c.073.948.138,2.007.184,3.165A19.89,19.89,0,0,1,2419.943,1549.737Z" transform="translate(-2383.82 -1507.401)" fill="#ffb07b"/>
        <path id="Trazado_20276" data-name="Trazado 20276" d="M2427.639,1668.052c0,1.333-1.535,1.971-1.861,2.036-3.059.559-11.6,3.881-19.293,4.643a61.692,61.692,0,0,1-19.1-1.293c-.875-.176-2.929-.729-3.075-1.568-.182-.916-25.487-51.587-5.815-73.352.461-.511,4.345.409,7.9,1.252a14.578,14.578,0,0,0,8.974-.733l3.33,1.752c4.09,2.279,11.828,10.375,12.733,16.728.46,3.231,2.307,5.623,2.842,8.465q.3,1.577.607,3.079.6,2.944,1.246,5.607c1.157,4.8,2.379,8.942,3.578,12.515,1.276,3.794,2.528,6.95,3.646,9.59,1.451,3.423,2.676,5.982,3.442,7.941A9.778,9.778,0,0,1,2427.639,1668.052Z" transform="translate(-2363.709 -1559.669)" fill="#2a4e96"/>
        <path id="Trazado_20277" data-name="Trazado 20277" d="M2453.847,1725.246c-35.721-16.829-48.092-49.146-48.092-49.146s29.022,10.706,36.181,13.493q.6,2.944,1.246,5.607c1.156,4.8,2.378,8.942,3.578,12.515,1.276,3.794,2.528,6.95,3.646,9.59C2451.856,1720.729,2453.081,1723.287,2453.847,1725.246Z" transform="translate(-2390.767 -1620.202)" fill="#1e3d70"/>
        <g id="Grupo_26226" data-name="Grupo 26226" transform="translate(10.195 46.241)">
          <path id="Trazado_20278" data-name="Trazado 20278" d="M2711.926,1853.46l3.087,1.132s6.181-4.371,10.03,2.738c0,0,1.392,3.105-.812,3.78s-1.4.04-4.5,1.071-6.148.288-7.318-1.924l-2.1-1.539Z" transform="translate(-2638.143 -1804.41)" fill="#ffb07b"/>
          <path id="Trazado_20279" data-name="Trazado 20279" d="M2460.417,1685.863c1.141-2.978,1.662-4.327,1.662-4.327s-23.324-19.012-25.7-20.642c-1.619-1.111-17.742-13.163-25.6-22.555a16.449,16.449,0,0,0-15.992-5.542l-4.9,1.027a7.282,7.282,0,0,0-3.247,12.655c12.916,11.073,34.7,23.916,38.764,26.587,10.084,6.632,32.387,15.924,32.387,15.924A5.74,5.74,0,0,0,2460.417,1685.863Z" transform="translate(-2384.093 -1632.447)" fill="#2a4e96"/>
        </g>
        <path id="Trazado_20280" data-name="Trazado 20280" d="M2428.053,1553.9c-7.457.418-12.307-5.738-12.307-5.738a59.276,59.276,0,0,0,5.21-3.242l6.4,3.248A53.121,53.121,0,0,1,2428.053,1553.9Z" transform="translate(-2398.548 -1518.045)" fill="#ea8e50"/>
        <path id="Trazado_20281" data-name="Trazado 20281" d="M2406.58,1483.942s-11.3,8.109-16.24.995-9.728-10.859-2.722-16.337,10.307-3.747,12.535-1.774S2409.392,1481.649,2406.58,1483.942Z" transform="translate(-2373.897 -1455.741)" fill="#ffb07b"/>
        <path id="Trazado_20282" data-name="Trazado 20282" d="M2365.457,1428.1a18.222,18.222,0,0,0-1.316-4.659s-.709,2.937-6.077,2.532-13.876.528-16.712,6.645a12.871,12.871,0,0,0-.484,1.2,14.157,14.157,0,0,1-.637-3.389,10.444,10.444,0,0,0,0,5.927h0c-.015.1-.028.193-.042.289-1.185,1-2.18,4.115-2.18,4.115a3.727,3.727,0,0,1,2.007-1.784c-.024,4.76,1.906,9.413,5.294,10.8,4.955,2.026,4.915.481,9.9,3.785,0,0,1.337-1.658.425-2.772s-4.355-2.735-2.431-4.356,2.634.2,3.343-.911-2.836-4.355,1.722-7.394S2365.862,1430.831,2365.457,1428.1Z" transform="translate(-2338.009 -1423.437)" fill="#233862"/>
      </g>
      <g id="Grupo_26229" data-name="Grupo 26229" transform="translate(2674.23 1021.471)">
        <path id="Trazado_20283" data-name="Trazado 20283" d="M4842.942,2380.618s.609,9.818,2.508,9.958c.252.019,9.634.019,9.634.019h11.989a3.952,3.952,0,0,0-3.593-3.565c-3.5-.61-9.359-3.07-11.48-7.7C4849.77,2374.467,4842.942,2380.618,4842.942,2380.618Z" transform="translate(-4785.264 -2170.962)" fill="#163560"/>
        <path id="Trazado_20284" data-name="Trazado 20284" d="M4602.226,1931a82.292,82.292,0,0,0,5.725,9.135c6.3,8.867,13.156,16.179,14.35,23.09a34.064,34.064,0,0,0,1.107,4.423c.5,1.583,1.115,3.248,1.827,4.969a158.094,158.094,0,0,0,10.661,20.324c6.9,11.4,13.387,20.913,13.387,20.913l11.9-.565c-.477-1.33-5.666-17.071-12.607-36.307-2.819-7.809-5.816-16.116-8.708-24.126q-.579-1.6-1.152-3.191c-.884-2.451-1.754-4.864-2.6-7.214-6.518-18.063-11.709-32.447-11.709-32.447s-26.051-11.005-28.756-3.874C4593.413,1912.013,4595.229,1917.773,4602.226,1931Z" transform="translate(-4591.977 -1802.038)" fill="#599dad"/>
        <path id="Trazado_20285" data-name="Trazado 20285" d="M4714.746,2336.9s-4.357,4.039-3.507,6.908,4.783,4.782,5.314,8.29,2.657,5.42,4.57,5.42h9.121s1.408-2.468-1.993-3.212-4.683-4.865-4.471-8.691a68.5,68.5,0,0,0-.319-8.927l-7.228-1.7Z" transform="translate(-4682.613 -2137.889)" fill="#233862"/>
        <path id="Trazado_20286" data-name="Trazado 20286" d="M4632.6,1925.984s27.413,44.466,27.413,48c0,7.825-20.712,52.879-20.712,52.879s-10.994-5.808-10.553-9.886c0,0,6.6-31.627,8.514-36.711s-34.646-24.236-36.563-47.377Z" transform="translate(-4596.612 -1819.37)" fill="#6bb7bf"/>
        <path id="Trazado_20287" data-name="Trazado 20287" d="M4798.188,1822.632s5.653,3.215,7.236,3.214,7.795-1.2,9.527-.316,4.865,4.445,5.454,5.608c1.058,2.091-4.258,1.167-6.77-.614a1.583,1.583,0,0,0-1.255-.259c-1.3.284-4,.775-5.309.292-1.755-.65-11-1.371-11-1.371Z" transform="translate(-4748.762 -1738.883)" fill="#e49963"/>
        <path id="Trazado_20288" data-name="Trazado 20288" d="M4611.225,1604.263s5.86,41.653,15.565,45.384c4.788,1.841,25.95,6.014,32.21,6.433,0,0,1.533-1.244,1.16-6.307,0,0-22.171-8.14-25.321-12.567-4.687-6.588,2.91-26.914-2.972-33.1S4616.077,1595.257,4611.225,1604.263Z" transform="translate(-4604.812 -1564.297)" fill="#ed7d2b"/>
        <path id="Trazado_20289" data-name="Trazado 20289" d="M4641.5,1549.245c-7.834,2.025-20.82-5.233-20.82-5.233a19.224,19.224,0,0,0,6.912-10.834c.1-.375.179-.76.256-1.154l4.023-.853,5.983,5.36a51.554,51.554,0,0,1-.885,6.052q-.194,1-.451,2.147A18.451,18.451,0,0,1,4641.5,1549.245Z" transform="translate(-4612.171 -1511.905)" fill="#e49963"/>
        <path id="Trazado_20290" data-name="Trazado 20290" d="M4582.446,1616c1.122,15.092-.354,38.045.919,42.019,1.1,3.43,13.616,1.391,18.612.246,1.849-.424,4.088-1.029,6.4-1.745,6.453-2,13.484-4.852,14.239-6.969a1.771,1.771,0,0,0,.07-.244,1.937,1.937,0,0,0-.014-.888c-.251-1.079-1.221-2.248-1.334-4.921-.128-2.985-.108-6.5-.221-10.279-.006-.426-.012-.89-.058-1.314l0-.155-.006-.242c-.108-4.215-.329-8.646-.584-13.042-.163-2.76-.35-5.494-.567-8.112a108.528,108.528,0,0,0-2.325-16.574,26.613,26.613,0,0,0-8.55-13.2l-2.381-2.043a13.769,13.769,0,0,1-8.641-1.151c-3.076-1.46-4.138-2.507-4.673-2.112C4586.229,1580.76,4581.121,1597.552,4582.446,1616Z" transform="translate(-4582.236 -1546.189)" fill="#f99746"/>
        <path id="Trazado_20291" data-name="Trazado 20291" d="M4635.77,1737.763c6.453-2,13.485-4.852,14.239-6.969a1.838,1.838,0,0,0,.069-.244c0-.3-.008-.592-.014-.888-.251-1.079-1.221-2.248-1.334-4.921-.127-2.985-.108-6.5-.221-10.279-.006-.426-.011-.89-.058-1.314l0-.155c0-.081,0-.161-.006-.242l-26.087-33.236S4604.82,1716.032,4635.77,1737.763Z" transform="translate(-4609.626 -1627.43)" fill="#ed7d2b"/>
        <path id="Trazado_20292" data-name="Trazado 20292" d="M4662.179,1536.531a51.554,51.554,0,0,1-.885,6.052c-5.843-1.889-8.493-7.167-9.378-9.405.1-.375.18-.76.257-1.154l4.023-.853Z" transform="translate(-4636.5 -1511.905)" fill="#d68d5d"/>
        <path id="Trazado_20293" data-name="Trazado 20293" d="M4661.693,1490.89s-12.742-2.127-11.3-10.042.776-13.52,8.973-12.5,9.221,4.331,9.381,7.091S4665.045,1491.239,4661.693,1490.89Z" transform="translate(-4635.228 -1462.889)" fill="#e49963"/>
        <g id="Grupo_26228" data-name="Grupo 26228" transform="translate(45.288 66.299)">
          <rect id="Rectángulo_3786" data-name="Rectángulo 3786" width="1.182" height="30.938" transform="matrix(-0.951, -0.309, 0.309, -0.951, 32.455, 29.787)" fill="#4a75cb"/>
          <rect id="Rectángulo_3787" data-name="Rectángulo 3787" width="32.466" height="1.942" transform="matrix(-1, -0.021, 0.021, -1, 32.458, 29.788)" fill="#4a75cb"/>
        </g>
        <path id="Trazado_20294" data-name="Trazado 20294" d="M4789.875,1861.5s10.429,2.75,14.34,2.461,7.164-2.149,7.656-3.12,1.526-2.693-1.137-2.375-6.3.884-6.41.372,2.17-.463,2.17-.463.69-1-.179-1.04-3.4-.724-4.346-.253-1.811,2.209-2.5,2.136-8.727-3.621-8.727-3.621Z" transform="translate(-4743.938 -1764.554)" fill="#e49963"/>
        <path id="Trazado_20295" data-name="Trazado 20295" d="M4622.914,1615.386s1.232,42.045,10.466,46.823c4.556,2.358,25.129,8.838,31.3,9.945,0,0,1.662-1.068,1.848-6.141,0,0-21.139-10.534-23.781-15.281-3.933-7.065,5.859-26.429.7-33.228S4628.73,1606.97,4622.914,1615.386Z" transform="translate(-4613.915 -1573.711)" fill="#f99746"/>
        <path id="Trazado_20296" data-name="Trazado 20296" d="M4642.461,1465.36a6.027,6.027,0,0,1,1.529-4.272s-.583-2.723.494-3.172,1.3,1.84,1.795,1.481a11.008,11.008,0,0,0,3.635-4.578c.942-2.513,9.568.531,10.573.983s4.237-1.208,4.865-2.554a18.9,18.9,0,0,1-2.6-2.513c-.808-1.077-6.463-8.348-14.361-6.283s-8.976,5.834-8.527,9.065S4639.226,1464.275,4642.461,1465.36Z" transform="translate(-4627.045 -1444.086)" fill="#2b478b"/>
      </g>
      <g id="Grupo_26230" data-name="Grupo 26230" transform="translate(2398.505 968.723)">
        <path id="Trazado_20297" data-name="Trazado 20297" d="M3614.479,1370.918l-24.686-14.875a6.386,6.386,0,0,1-3.019-5.943q.378-4.575.377-9.246a107.262,107.262,0,0,0-1.289-16.949,6.3,6.3,0,0,1,2.988-6.447l25.786-15.566a6.187,6.187,0,0,0,2.359-8.081l-12.138-24.717a6.118,6.118,0,0,0-7.547-3.05l-26.069,9.465a6.143,6.143,0,0,1-7.075-2.076,111.367,111.367,0,0,0-25.6-24.025,6.342,6.342,0,0,1-2.359-7.358l5.787-15.849a6.407,6.407,0,0,0-3.145-7.862l-24.56-12.013a5.6,5.6,0,0,0-1.541-.534,6.146,6.146,0,0,0-6.541,2.893l-11.133,18.428-2.7,4.5a110.2,110.2,0,0,0-15.534-1.1,111.774,111.774,0,0,0-20.692,1.918,6.142,6.142,0,0,1-6.447-2.862l-12.516-20.786a6.366,6.366,0,0,0-8.27-2.421l-18.9,9.276-5.409,2.673a6.449,6.449,0,0,0-3.239,7.988l7.893,21.792a6.134,6.134,0,0,1-1.887,6.981,110.525,110.525,0,0,0-16.635,16.793,19.232,19.232,0,0,0-1.257,1.541,3.394,3.394,0,0,1-.44.5,6.285,6.285,0,0,1-6.793,1.572l-25.754-9.339a4.6,4.6,0,0,0-.881-.252,6.392,6.392,0,0,0-6.949,3.4l-12.013,24.465a6.36,6.36,0,0,0,2.422,8.239l25.755,15.5a6.147,6.147,0,0,1,2.925,6.321,112.406,112.406,0,0,0-1.29,17.044q0,4.623.378,9.151a6.48,6.48,0,0,1-3.113,6.069l-24.78,14.969a6.183,6.183,0,0,0-2.359,8.019l12.044,24.434a6.462,6.462,0,0,0,8.019,3.239l20.629-7.484a6.348,6.348,0,0,1,7.453,2.422,111.056,111.056,0,0,0,23.051,25.315,6.308,6.308,0,0,1,2.012,7.138l-8.427,23.208a6.525,6.525,0,0,0,3.239,8.05l24.371,11.981a6.236,6.236,0,0,0,8.113-2.39l.661-1.069,12.925-21.415a6.377,6.377,0,0,1,6.635-2.987h.031a110.465,110.465,0,0,0,19.5,1.729c3.553,0,7.044-.188,10.535-.5a6.255,6.255,0,0,1,6.006,2.988l12.7,21.1a6.472,6.472,0,0,0,8.4,2.484l24.339-11.981a6.982,6.982,0,0,0,1.793-1.321,6.446,6.446,0,0,0,1.384-6.541l-6.353-17.39a6.437,6.437,0,0,1,1.1-6.226,6.9,6.9,0,0,1,1.321-1.2,110.668,110.668,0,0,0,30.881-31.006,6.228,6.228,0,0,1,6.289-2.7,6.38,6.38,0,0,1,1.037.283l20.85,7.578a6.334,6.334,0,0,0,7.83-3.144l.283-.566,11.729-23.836A6.448,6.448,0,0,0,3614.479,1370.918ZM3419.6,1323.9a74.11,74.11,0,0,1,4.969-12.862c4.088-8.207,14.182-18.365,22.422-22.421.881-.44,1.761-.849,2.642-1.258,53.9-24.214,105.881,28.711,79.749,82.642-3.428,7.044-11.006,15.314-18.4,20.44a39.275,39.275,0,0,1-5.031,2.956,68.416,68.416,0,0,1-22.3,6.6C3442.088,1404.628,3407.874,1366.421,3419.6,1323.9Z" transform="translate(-3335.952 -1205.66)" fill="#afcdfb"/>
      </g>
      <g id="Grupo_26231" data-name="Grupo 26231" transform="translate(2617.33 1180.322)">
        <path id="Trazado_20298" data-name="Trazado 20298" d="M4387.209,2198.975l-5.509-3.32a1.427,1.427,0,0,1-.674-1.326q.084-1.021.084-2.063a23.906,23.906,0,0,0-.288-3.783,1.406,1.406,0,0,1,.667-1.439l5.755-3.474a1.38,1.38,0,0,0,.527-1.8l-2.709-5.517a1.365,1.365,0,0,0-1.685-.681l-5.818,2.113a1.37,1.37,0,0,1-1.579-.463,24.869,24.869,0,0,0-5.713-5.362,1.415,1.415,0,0,1-.526-1.643l1.292-3.537a1.43,1.43,0,0,0-.7-1.754l-5.481-2.681a1.248,1.248,0,0,0-.344-.119,1.372,1.372,0,0,0-1.46.646l-2.484,4.113-.6,1a24.626,24.626,0,0,0-3.467-.245,24.932,24.932,0,0,0-4.618.428,1.37,1.37,0,0,1-1.438-.639l-2.793-4.639a1.42,1.42,0,0,0-1.845-.541l-4.218,2.07-1.207.6a1.44,1.44,0,0,0-.723,1.782l1.762,4.864a1.369,1.369,0,0,1-.421,1.558,24.682,24.682,0,0,0-3.712,3.748,4.3,4.3,0,0,0-.281.344.772.772,0,0,1-.1.112,1.4,1.4,0,0,1-1.516.351l-5.748-2.084a1.057,1.057,0,0,0-.2-.056,1.427,1.427,0,0,0-1.551.758l-2.681,5.46a1.42,1.42,0,0,0,.541,1.839l5.748,3.46a1.372,1.372,0,0,1,.653,1.411,25.077,25.077,0,0,0-.288,3.8q0,1.032.084,2.042a1.446,1.446,0,0,1-.694,1.355l-5.531,3.341a1.38,1.38,0,0,0-.526,1.79l2.688,5.453a1.443,1.443,0,0,0,1.79.723l4.6-1.67a1.416,1.416,0,0,1,1.663.54,24.792,24.792,0,0,0,5.145,5.649,1.408,1.408,0,0,1,.449,1.593l-1.881,5.18a1.457,1.457,0,0,0,.723,1.8l5.439,2.674a1.392,1.392,0,0,0,1.811-.533l.147-.239,2.885-4.779a1.423,1.423,0,0,1,1.481-.667h.007a24.636,24.636,0,0,0,4.352.386c.793,0,1.572-.042,2.351-.112a1.4,1.4,0,0,1,1.341.667l2.835,4.709a1.445,1.445,0,0,0,1.874.554l5.432-2.674a1.556,1.556,0,0,0,.4-.295,1.438,1.438,0,0,0,.309-1.46l-1.418-3.881a1.437,1.437,0,0,1,.246-1.39,1.535,1.535,0,0,1,.294-.267,24.7,24.7,0,0,0,6.892-6.92,1.391,1.391,0,0,1,1.4-.6,1.487,1.487,0,0,1,.231.063l4.653,1.691a1.414,1.414,0,0,0,1.748-.7l.063-.126,2.618-5.32A1.439,1.439,0,0,0,4387.209,2198.975Zm-43.492-10.492a16.584,16.584,0,0,1,1.109-2.871,12.99,12.99,0,0,1,5-5c.2-.1.393-.189.59-.281,12.029-5.4,23.63,6.408,17.8,18.444a13.464,13.464,0,0,1-4.105,4.561,8.667,8.667,0,0,1-1.123.66,15.263,15.263,0,0,1-4.976,1.474A13.324,13.324,0,0,1,4343.717,2188.483Z" transform="translate(-4325.048 -2162.093)" fill="#f99746"/>
      </g>
      <g id="Grupo_26232" data-name="Grupo 26232" transform="translate(2767.042 1059.185)">
        <path id="Trazado_20299" data-name="Trazado 20299" d="M5094.908,1669.826l-8.257-4.975a2.135,2.135,0,0,1-1.01-1.988q.127-1.531.126-3.092a35.943,35.943,0,0,0-.431-5.669,2.107,2.107,0,0,1,1-2.156l8.625-5.207a2.07,2.07,0,0,0,.789-2.7l-4.061-8.267a2.046,2.046,0,0,0-2.524-1.02l-8.719,3.166a2.055,2.055,0,0,1-2.367-.694,37.254,37.254,0,0,0-8.562-8.036,2.121,2.121,0,0,1-.788-2.461l1.936-5.3a2.143,2.143,0,0,0-1.052-2.63l-8.214-4.018a1.9,1.9,0,0,0-.516-.179,2.055,2.055,0,0,0-2.187.968l-3.724,6.163-.9,1.5a36.823,36.823,0,0,0-5.2-.368,37.405,37.405,0,0,0-6.921.642,2.055,2.055,0,0,1-2.156-.957l-4.187-6.953a2.129,2.129,0,0,0-2.766-.81l-6.321,3.1-1.809.894a2.157,2.157,0,0,0-1.083,2.672l2.64,7.289a2.053,2.053,0,0,1-.631,2.335,36.92,36.92,0,0,0-5.564,5.617,6.423,6.423,0,0,0-.421.515,1.127,1.127,0,0,1-.147.168,2.1,2.1,0,0,1-2.272.526l-8.614-3.124a1.576,1.576,0,0,0-.295-.084,2.138,2.138,0,0,0-2.324,1.136l-4.018,8.183a2.127,2.127,0,0,0,.81,2.756l8.614,5.186a2.056,2.056,0,0,1,.979,2.114,37.552,37.552,0,0,0-.432,5.7q0,1.546.126,3.061a2.166,2.166,0,0,1-1.042,2.03l-8.288,5.007a2.067,2.067,0,0,0-.789,2.682l4.028,8.173a2.162,2.162,0,0,0,2.682,1.084l6.9-2.5a2.122,2.122,0,0,1,2.493.81,37.175,37.175,0,0,0,7.71,8.467,2.11,2.11,0,0,1,.673,2.388l-2.819,7.762a2.182,2.182,0,0,0,1.083,2.693l8.151,4.008a2.086,2.086,0,0,0,2.714-.8l.221-.358,4.323-7.163a2.132,2.132,0,0,1,2.219-1h.011a36.939,36.939,0,0,0,6.521.578c1.188,0,2.356-.063,3.523-.168a2.091,2.091,0,0,1,2.009,1l4.25,7.058a2.164,2.164,0,0,0,2.808.831l8.141-4.007a2.328,2.328,0,0,0,.6-.442,2.156,2.156,0,0,0,.463-2.188l-2.125-5.817a2.152,2.152,0,0,1,.368-2.082,2.281,2.281,0,0,1,.442-.4,37.005,37.005,0,0,0,10.329-10.371,2.083,2.083,0,0,1,2.1-.9,2.121,2.121,0,0,1,.347.094l6.974,2.535a2.119,2.119,0,0,0,2.619-1.052l.094-.19,3.924-7.973A2.157,2.157,0,0,0,5094.908,1669.826Zm-65.181-15.725a24.826,24.826,0,0,1,1.662-4.3,19.464,19.464,0,0,1,7.5-7.5c.294-.147.588-.284.883-.421,18.029-8.1,35.415,9.6,26.675,27.642a20.185,20.185,0,0,1-6.153,6.837,13.118,13.118,0,0,1-1.683.989,22.891,22.891,0,0,1-7.458,2.209A19.968,19.968,0,0,1,5029.727,1654.1Z" transform="translate(-5001.748 -1614.551)" fill="#ebf2f9"/>
      </g>
      <g id="Grupo_26233" data-name="Grupo 26233" transform="translate(2374.988 908.207)">
        <path id="Trazado_20300" data-name="Trazado 20300" d="M3324.953,983.381l-8.745-4.056a2.138,2.138,0,0,1-1.218-1.867q-.039-1.535-.208-3.088a35.879,35.879,0,0,0-1.04-5.59,2.106,2.106,0,0,1,.761-2.251l8.014-6.106a2.07,2.07,0,0,0,.493-2.773l-4.928-7.782a2.046,2.046,0,0,0-2.62-.742l-8.327,4.087a2.055,2.055,0,0,1-2.427-.435,37.25,37.25,0,0,0-9.378-7.066,2.122,2.122,0,0,1-1.05-2.362l1.353-5.479a2.142,2.142,0,0,0-1.329-2.5l-8.6-3.109a1.886,1.886,0,0,0-.531-.122,2.056,2.056,0,0,0-2.071,1.2l-3.038,6.529-.737,1.593a36.827,36.827,0,0,0-5.205.194,37.4,37.4,0,0,0-6.812,1.384,2.054,2.054,0,0,1-2.247-.719l-4.911-6.461a2.129,2.129,0,0,0-2.837-.507l-5.95,3.766-1.7,1.084a2.157,2.157,0,0,0-.789,2.773l3.41,6.962a2.053,2.053,0,0,1-.376,2.39,36.948,36.948,0,0,0-4.927,6.184,6.519,6.519,0,0,0-.363.558,1.151,1.151,0,0,1-.128.183,2.1,2.1,0,0,1-2.2.768l-8.9-2.177a1.548,1.548,0,0,0-.3-.052,2.138,2.138,0,0,0-2.188,1.38l-3.113,8.568a2.127,2.127,0,0,0,1.1,2.652l9.123,4.227a2.056,2.056,0,0,1,1.2,2,37.651,37.651,0,0,0,.186,5.714q.167,1.537.455,3.029a2.167,2.167,0,0,1-.816,2.13l-7.7,5.871a2.069,2.069,0,0,0-.5,2.752l4.886,7.691a2.161,2.161,0,0,0,2.783.788l6.59-3.232a2.123,2.123,0,0,1,2.566.536,37.158,37.158,0,0,0,8.577,7.587,2.11,2.11,0,0,1,.927,2.3l-1.966,8.021a2.183,2.183,0,0,0,1.367,2.56l8.536,3.105a2.086,2.086,0,0,0,2.612-1.087l.181-.379,3.525-7.587a2.133,2.133,0,0,1,2.1-1.232h.01a36.936,36.936,0,0,0,6.546-.128c1.182-.128,2.335-.317,3.485-.547a2.093,2.093,0,0,1,2.105.777l4.985,6.559a2.164,2.164,0,0,0,2.881.524l7.662-4.861a2.335,2.335,0,0,0,.548-.5,2.156,2.156,0,0,0,.224-2.225l-2.74-5.553a2.152,2.152,0,0,1,.142-2.11,2.306,2.306,0,0,1,.4-.445,37.02,37.02,0,0,0,9.151-11.424,2.07,2.07,0,0,1,2.349-1.069l7.206,1.769a2.12,2.12,0,0,0,2.491-1.328l.074-.2,3.041-8.349A2.157,2.157,0,0,0,3324.953,983.381Zm-66.5-8.607a24.751,24.751,0,0,1,1.188-4.456,19.465,19.465,0,0,1,6.647-8.264c.277-.178.555-.346.833-.514,17.05-9.995,36.243,5.73,29.5,24.606a20.177,20.177,0,0,1-5.381,7.46,13.153,13.153,0,0,1-1.566,1.164,22.882,22.882,0,0,1-7.176,3A19.968,19.968,0,0,1,3258.456,974.773Z" transform="translate(-3229.656 -932.129)" fill="#ebf2f9"/>
      </g>
      <g id="Grupo_26237" data-name="Grupo 26237" transform="translate(2450.981 1052.415)">
        <g id="Grupo_26234" data-name="Grupo 26234" transform="translate(0 0)">
          <path id="Trazado_20301" data-name="Trazado 20301" d="M3843.271,2219.8a1.807,1.807,0,0,1,.322,1.933.016.016,0,0,1,0,.01c-.466,1.288-2.006,2.726-3.794,4.163-.229.184-.432.352-.609.508-.047.041-.093.082-.137.123l-.106.095c-1.668,1.538-1.04,1.89-4.037,5.01-3.417,3.555-5.769,3.619-6.438,3.3-.566-.276.584-2.162,1.859-4.281.062-.1.122-.206.186-.309.17-.281.338-.568.507-.851,1.494-2.551,1.11-3.748.756-7.544-.288-3.084-4.8-17.232-4.8-17.232l6.548-1.128s1.972,11.266,4.145,13c1.162.925,2.463.937,3.579,1.622.079.047.156.1.232.147A8.6,8.6,0,0,1,3843.271,2219.8Z" transform="translate(-3770.819 -2066.501)" fill="#e49963"/>
          <path id="Trazado_20302" data-name="Trazado 20302" d="M3848,2271.27a1.806,1.806,0,0,1,.322,1.932.016.016,0,0,1,0,.01,13.921,13.921,0,0,1-3.8,4.149c-.226.188-.425.36-.6.521-.047.041-.093.082-.137.122l-.106.1c-1.668,1.538-1.04,1.89-4.037,5.01-3.417,3.555-5.769,3.619-6.438,3.3-.566-.276.584-2.162,1.859-4.281a14.558,14.558,0,0,0,6.091-4.488c2.057-2.625,3.43-6,4.831-7.953.079.047.156.1.232.147A8.589,8.589,0,0,1,3848,2271.27Z" transform="translate(-3775.547 -2117.973)" fill="#c65447"/>
          <path id="Trazado_20303" data-name="Trazado 20303" d="M3592.8,2208.693c-.405,2.021-3.286,1.684-6.5.9s-2.454.148-7.035-.358-5.969-2.215-6.109-2.9c-.125-.6,2.139-.818,4.567-1.1.305-.034.612-.073.918-.11,2.742-.344,4.749-2.113,7.239-3.565,2.359-1.376,5.878-6.982,5.878-6.982l6.283.5s-3.3,5.007-4.572,7.184a7.6,7.6,0,0,0-.617,4.281A8.065,8.065,0,0,1,3592.8,2208.693Z" transform="translate(-3573.146 -2059.486)" fill="#e49963"/>
          <path id="Trazado_20304" data-name="Trazado 20304" d="M3586.294,2247.106c-3.219-.787-2.454.148-7.035-.358s-5.969-2.216-6.109-2.9c-.125-.6,2.139-.818,4.567-1.1l.022.047a12.918,12.918,0,0,0,6.561,2.039c3.108.076,6.4-.815,8.546-.78a8.065,8.065,0,0,1-.048,2.149C3592.394,2248.229,3589.513,2247.892,3586.294,2247.106Z" transform="translate(-3573.146 -2097.002)" fill="#c65447"/>
          <path id="Trazado_20305" data-name="Trazado 20305" d="M3688.051,1825.962s-1.5-3.667-3.143-3.817-6.885-.973-7.26-.224a5.178,5.178,0,0,0,1.122,4.416c1.123.973,8.083,2.545,8.083,2.545Z" transform="translate(-3654.418 -1769.032)" fill="#e49963"/>
          <path id="Trazado_20306" data-name="Trazado 20306" d="M3770.8,2041.337l13.54,36.439a12.4,12.4,0,0,0,4.074-.373,17.569,17.569,0,0,0,3.938-1.918s-3.358-34.988-9.517-42.266S3770.8,2041.337,3770.8,2041.337Z" transform="translate(-3727.074 -1932.303)" fill="#aa413e"/>
          <path id="Trazado_20307" data-name="Trazado 20307" d="M3723.128,1972.325s-38.906-13.156-47.583-10.357-34.73,54.633-34.73,54.633a5.033,5.033,0,0,0,2.193,1.384,20.7,20.7,0,0,0,5.107.524s23.512-20.153,26.311-26.031,3.918-11.476,6.718-10.917,36.107,13.715,43.665,5.878,5.581-18.021,5.581-18.021Z" transform="translate(-3625.843 -1878.032)" fill="#c65447"/>
          <path id="Trazado_20308" data-name="Trazado 20308" d="M3892.434,1617.044a22.123,22.123,0,0,1-1.656-7.623c.052.4.753,5.526,2.723,8.426,8.091,5.312,23.6,23.051,23.293,26.412,0,0,5.463-9.265,5.557-9.321,0,0,10.077-12.814-1.866-20.154-6.07-3.73-6.039-8.518-5.785-12.677s-1.656-22.064-13.815-17.378a7.926,7.926,0,0,0-2.825-.737,2.387,2.387,0,0,1,1.077.511,9.436,9.436,0,0,0-5.107.977C3889.571,1588.012,3885.583,1610.738,3892.434,1617.044Z" transform="translate(-3818.926 -1583.953)" fill="#b5453c"/>
          <path id="Trazado_20309" data-name="Trazado 20309" d="M3912.389,1696.182c-.04.018,3.907,2.068,6.876,1.256,2.793-.762,4.617-4.383,4.579-4.391-1.183-.235-1.524-1.86-1.5-8.845l-.535.105-8.99,1.78s.2,2.829.21,5.494C3913.037,1693.82,3912.9,1695.942,3912.389,1696.182Z" transform="translate(-3837.335 -1662.023)" fill="#e49963"/>
          <path id="Trazado_20310" data-name="Trazado 20310" d="M3914.341,1686.458s.2,2.829.21,5.495c5.031-.142,7.69-4.731,8.78-7.275Z" transform="translate(-3838.856 -1662.394)" fill="#d68d5d"/>
          <path id="Trazado_20311" data-name="Trazado 20311" d="M3904.329,1615.23a26.437,26.437,0,0,0,3.269-7.728c.452-2.543-.843-11.969-10.316-10.612a12.87,12.87,0,0,0-5.337,2.018c-2.057,1.389-5.025,4.388-1.706,12.613l.862,2.779Z" transform="translate(-3818.925 -1593.925)" fill="#b5453c"/>
          <path id="Trazado_20312" data-name="Trazado 20312" d="M3892.792,1633.434s11.9.2,11.911-7.218,1.55-12.383-6.05-12.822-9.079,2.389-9.684,4.863S3889.7,1633.191,3892.792,1633.434Z" transform="translate(-3818.987 -1606.845)" fill="#e49963"/>
          <path id="Trazado_20313" data-name="Trazado 20313" d="M3908.736,1607.428s3.26,8.7,8.261,9.985,7.171-.054,7.171-.054a14.165,14.165,0,0,1-4.632-8.368S3911.195,1603.288,3908.736,1607.428Z" transform="translate(-3834.491 -1601.061)" fill="#b5453c"/>
          <path id="Trazado_20314" data-name="Trazado 20314" d="M3891.174,1610.932s-2.434,1.942-3.027,3.83-.86,5.775-1.993,5.643c0,0-2.456-5.912.3-9.257C3889.384,1607.6,3891.174,1610.932,3891.174,1610.932Z" transform="translate(-3816.12 -1603.858)" fill="#b5453c"/>
          <path id="Trazado_20315" data-name="Trazado 20315" d="M3784.084,1759.318c1.174-4.923-2.82-14.475-6.989-22.384-3.783-7.168-7.709-12.983-8.062-12.773-9.976,5.921-10.878,1-10.878,1s-9.062,1.2-11.628,5.621c-3.549,6.108-7.414,24.437-11.212,24.166-1.743-.125-19.284-6.718-19.284-6.718s-2.922,2.738-2.363,6.1a183.171,183.171,0,0,0,15.985,9.5c3.874,1.958,7.375,3.327,9.021,2.939,3.337-.786,8.549-8.521,11.365-13.074l.019-.03c3.594,20.346-1.292,24.979,1.181,27.125,2.613,2.265,6.345-1.079,14.556,2.48,5.385,2.336,12.859,5.714,17.891,6.3,2.638.31,4.608-.149,5.25-1.931C3790.8,1782.456,3781.845,1768.7,3784.084,1759.318Z" transform="translate(-3682.525 -1693.137)" fill="#699dee"/>
          <path id="Trazado_20316" data-name="Trazado 20316" d="M3902.959,1681.7s-.222.942-2.565.8c0,0-1.967-.122-1.907-1.157A6.33,6.33,0,0,1,3902.959,1681.7Z" transform="translate(-3826.508 -1659.603)" fill="#fff"/>
          <path id="Trazado_20317" data-name="Trazado 20317" d="M3971.026,1864.926c-.642,1.782-2.611,2.241-5.25,1.931-3.482-1.517-18.525-7.345-18.357-11.293.25-5.847,2.893-6.033,1.026-13.25-1.5-5.794,12.4-16.568,14.618-18.91,4.169,7.909,4.284,8.282,3.11,13.205C3963.934,1845.994,3972.892,1859.747,3971.026,1864.926Z" transform="translate(-3864.614 -1770.428)" fill="#4a75cb"/>
          <path id="Trazado_20318" data-name="Trazado 20318" d="M3806.56,1854.112c-2.816,4.553-8.028,12.288-11.365,13.074-1.646.388-5.146-.982-9.021-2.939a23.434,23.434,0,0,0,8.243.452c2.892-.28,3.732-3.826,8.3-9.144C3805.686,1852.106,3806.414,1852.974,3806.56,1854.112Z" transform="translate(-3739.044 -1793.559)" fill="#4a75cb"/>
          <path id="Trazado_20319" data-name="Trazado 20319" d="M3911.9,1902.738s-2.519-1.959-4.9-1.493-3.546,2.1-3.452,2.846a4.243,4.243,0,0,0,3.172,3.032c1.82.187,7-1.12,7-1.12Z" transform="translate(-3830.444 -1830.992)" fill="#e49963"/>
          <path id="Trazado_20320" data-name="Trazado 20320" d="M3943.027,1724.18s9.7.6,13.06,5.281c4.728,6.594,12.939,33.513,10.7,39.671l-29.516-.124s-.716-3.344.28-4.961,17.168-4.23,17.915-4.976-9.331-14.556-9.331-16.8S3943.027,1724.18,3943.027,1724.18Z" transform="translate(-3856.518 -1693.156)" fill="#699dee"/>
        </g>
        <g id="Grupo_26236" data-name="Grupo 26236" transform="translate(36.744 62.461)">
          <g id="Grupo_26235" data-name="Grupo 26235">
            <path id="Trazado_20321" data-name="Trazado 20321" d="M3774.909,1866.276H3739.23l6.442,22.464h35.733Z" transform="translate(-3739.23 -1866.276)" fill="#1c468a"/>
            <rect id="Rectángulo_3788" data-name="Rectángulo 3788" width="46.715" height="0.875" transform="translate(6.564 21.589)" fill="#163560"/>
          </g>
          <path id="Trazado_20322" data-name="Trazado 20322" d="M3822.291,1910.364a2.049,2.049,0,0,0-1.84-1.43,1.04,1.04,0,0,0-1.02,1.43,2.049,2.049,0,0,0,1.84,1.43A1.041,1.041,0,0,0,3822.291,1910.364Z" transform="translate(-3801.642 -1899.496)" fill="#163560"/>
        </g>
      </g>
      <g id="Grupo_26242" data-name="Grupo 26242" transform="translate(2249.935 924.228)">
        <g id="Grupo_26240" data-name="Grupo 26240" transform="translate(77.429 250.597)">
          <path id="Rectángulo_3789" data-name="Rectángulo 3789" d="M8.334,0H55.1a8.334,8.334,0,0,1,8.334,8.334v0A8.334,8.334,0,0,1,55.1,16.668H8.333A8.333,8.333,0,0,1,0,8.335v0A8.334,8.334,0,0,1,8.334,0Z" transform="translate(0.664)" fill="#f99746"/>
          <path id="Trazado_20323" data-name="Trazado 20323" d="M3080.827,2188.1v1.733a3.584,3.584,0,0,1-3.574,3.574h-56.284a3.584,3.584,0,0,1-3.574-3.574v-1.876H3079.8A3.741,3.741,0,0,1,3080.827,2188.1Z" transform="translate(-3016.731 -2176.738)" fill="#ed7d2b"/>
          <g id="Grupo_26238" data-name="Grupo 26238" transform="translate(0 16.582)">
            <path id="Trazado_20324" data-name="Trazado 20324" d="M3028.608,2212.285l-2.537,9.61,0,0-10.563,40h-1.111l6.1-33.184c.006-.033.015-.065.021-.1l3.02-16.412Z" transform="translate(-3014.394 -2212.199)" fill="#e8c6a7"/>
          </g>
          <path id="Trazado_20325" data-name="Trazado 20325" d="M3050.17,2212.285l-2.537,9.61,0,0c-.146.071-4.765,2.46-5.548,6.712l3.02-16.412Z" transform="translate(-3035.956 -2195.617)" fill="#c69d7b"/>
          <g id="Grupo_26239" data-name="Grupo 26239" transform="translate(49.882 16.582)">
            <path id="Trazado_20326" data-name="Trazado 20326" d="M3254.075,2261.9h-1.111l-8.607-32.583v-.006l-1.957-7.409,0,0-2.537-9.61,5.069-.086,1.727,9.384,1.292,7.028c.006.036.015.068.021.1Z" transform="translate(-3239.861 -2212.199)" fill="#e8c6a7"/>
          </g>
          <path id="Trazado_20327" data-name="Trazado 20327" d="M3226.449,2269.337c-.006,0-.012,0-.018-.012C3226.408,2269.284,3226.413,2269.293,3226.449,2269.337Z" transform="translate(-3179.509 -2240.084)" fill="#e8c6a7"/>
          <path id="Trazado_20328" data-name="Trazado 20328" d="M3246.657,2221.583a13.993,13.993,0,0,0-2.3,7.725l-1.957-7.409,0,0-2.537-9.61,5.069-.086Z" transform="translate(-3189.979 -2195.617)" fill="#c69d7b"/>
        </g>
        <g id="man" transform="translate(0)">
          <path id="Trazado_20329" data-name="Trazado 20329" d="M2977.7,1286.681c1.308-1.364,2.2-.851,2.2-.851s15.446,11.86,16.92,12.723,21.564,1.445,21.564,1.445,8.047-.091,10,4.04c1.7,3.59.5,6.681-1.252,8.952a8.316,8.316,0,0,1-8.917,2.875c-7.365-2.149-22.014-6.536-24.755-8.213-6.1-3.731-17.117-18.631-17.117-18.631A5.948,5.948,0,0,1,2977.7,1286.681Z" transform="translate(-2907.333 -1223.525)" fill="#599dad"/>
          <g id="Grupo_26241" data-name="Grupo 26241">
            <path id="Trazado_20330" data-name="Trazado 20330" d="M2751.435,1056.176l-7.713-4.647a2,2,0,0,1-.943-1.857q.118-1.429.118-2.889a33.471,33.471,0,0,0-.4-5.3,1.969,1.969,0,0,1,.933-2.014l8.057-4.863a1.933,1.933,0,0,0,.737-2.525l-3.792-7.722a1.912,1.912,0,0,0-2.358-.953l-8.145,2.958a1.92,1.92,0,0,1-2.211-.649,34.785,34.785,0,0,0-8-7.506,1.982,1.982,0,0,1-.737-2.3l1.808-4.952a2,2,0,0,0-.983-2.456l-7.673-3.753a1.746,1.746,0,0,0-.481-.167,1.921,1.921,0,0,0-2.044.9l-3.478,5.758-.845,1.4a34.43,34.43,0,0,0-4.854-.344,34.911,34.911,0,0,0-6.464.6,1.919,1.919,0,0,1-2.015-.894l-3.91-6.494a1.988,1.988,0,0,0-2.584-.757l-5.9,2.9-1.69.835a2.014,2.014,0,0,0-1.012,2.5l2.466,6.809a1.917,1.917,0,0,1-.59,2.181,34.519,34.519,0,0,0-5.2,5.246,5.966,5.966,0,0,0-.393.481,1.056,1.056,0,0,1-.138.157,1.963,1.963,0,0,1-2.122.491l-8.047-2.918a1.434,1.434,0,0,0-.275-.079,2,2,0,0,0-2.171,1.061l-3.753,7.644a1.987,1.987,0,0,0,.757,2.574l8.047,4.844a1.92,1.92,0,0,1,.914,1.975,35.09,35.09,0,0,0-.4,5.325q0,1.444.118,2.859a2.024,2.024,0,0,1-.972,1.9l-7.742,4.677a1.932,1.932,0,0,0-.737,2.505l3.763,7.634a2.019,2.019,0,0,0,2.506,1.012l6.445-2.338a1.982,1.982,0,0,1,2.328.757,34.694,34.694,0,0,0,7.2,7.909,1.971,1.971,0,0,1,.628,2.23l-2.633,7.251a2.039,2.039,0,0,0,1.012,2.515l7.614,3.743a1.949,1.949,0,0,0,2.535-.746l.206-.334,4.038-6.691a1.992,1.992,0,0,1,2.073-.933h.009a34.541,34.541,0,0,0,6.092.54c1.11,0,2.2-.059,3.292-.157a1.955,1.955,0,0,1,1.877.934l3.969,6.593a2.022,2.022,0,0,0,2.623.776l7.6-3.743a2.187,2.187,0,0,0,.56-.413,2.014,2.014,0,0,0,.432-2.044l-1.985-5.433a2.013,2.013,0,0,1,.344-1.946,2.159,2.159,0,0,1,.413-.373,34.583,34.583,0,0,0,9.648-9.687,1.946,1.946,0,0,1,1.965-.845,1.973,1.973,0,0,1,.324.088l6.514,2.368a1.979,1.979,0,0,0,2.446-.983l.088-.177,3.665-7.447A2.014,2.014,0,0,0,2751.435,1056.176Zm-60.885-14.688a23.111,23.111,0,0,1,1.552-4.018,18.183,18.183,0,0,1,7.005-7.005c.275-.137.55-.265.825-.393,16.84-7.565,33.08,8.97,24.916,25.82a18.858,18.858,0,0,1-5.748,6.386,12.237,12.237,0,0,1-1.572.923,21.362,21.362,0,0,1-6.966,2.063A18.652,18.652,0,0,1,2690.549,1041.488Z" transform="translate(-2664.414 -1004.544)" fill="#f99746"/>
          </g>
          <path id="Trazado_20331" data-name="Trazado 20331" d="M2883.055,1270.4s.023-5.7-.878-7.362-2.964-3.733-4.14-3.069-1.536,6.221-1.175,7.217a44.161,44.161,0,0,0,3.03,4.729Z" transform="translate(-2829.756 -1203.364)" fill="#ffb27d"/>
          <path id="Trazado_20332" data-name="Trazado 20332" d="M3157.7,2102.317c1.271-1.088.509-7.184.509-7.184s-6.547-5.238-7.448-1.228-6.22,5.811-9.248,6.3a3.275,3.275,0,0,0-2.915,2.11Z" transform="translate(-3033.688 -1851.72)" fill="#2c3a64"/>
          <path id="Trazado_20333" data-name="Trazado 20333" d="M3136.761,1723.088c-6.062.941-8.278-.5-8.278-.5.079-5.97-1.762-19.433-4.287-34.889-3.327-20.381-7.84-44.23-10.692-58.932-1.64-8.457-2.732-13.887-2.732-13.887l4.954-.1,24.708-.489s-1.849,27.346-1.344,40.852a25.232,25.232,0,0,0,.824,6.748C3144.126,1672.123,3136.761,1723.088,3136.761,1723.088Z" transform="translate(-3012.021 -1479.391)" fill="#35488b"/>
          <path id="Trazado_20334" data-name="Trazado 20334" d="M3148.71,1655.142c-3.357,6.281-11.765,22.459-14.895,32.554-3.327-20.381-7.84-44.23-10.692-58.932.141-5.557.806-10.413,2.222-13.984l24.708-.489S3148.2,1641.636,3148.71,1655.142Z" transform="translate(-3021.639 -1479.391)" fill="#2c3a64"/>
          <path id="Trazado_20335" data-name="Trazado 20335" d="M3063.631,2102.317c1.271-1.088.51-7.184.51-7.184s-6.548-5.238-7.448-1.228-6.22,5.811-9.248,6.3a3.276,3.276,0,0,0-2.916,2.11Z" transform="translate(-2960.433 -1851.72)" fill="#2c3a64"/>
          <path id="Trazado_20336" data-name="Trazado 20336" d="M3062.221,1614.25s9.707,89.812,7.784,107.924c0,0,2.075,1.625,8.2,1.251,0,0,11.088-51.74,8.74-60.112-1.633-5.822,4.871-46.933,4.871-46.933Z" transform="translate(-2974.211 -1479.36)" fill="#35488b"/>
          <path id="Trazado_20337" data-name="Trazado 20337" d="M3105.233,1269.784s-12.342,6.164-18.465,3.353a18.731,18.731,0,0,1,5.453-4.712c-.062-1.1-.1-2.089-.115-2.966-.054-2.92.092-4.564.092-4.564l5.323-3.872,3.611-2.627a23.394,23.394,0,0,0-.146,4.507A17.818,17.818,0,0,0,3105.233,1269.784Z" transform="translate(-2993.327 -1199.119)" fill="#ffb27d"/>
          <path id="Trazado_20338" data-name="Trazado 20338" d="M3119.733,1268.151s-2.879,5.738-8.879,6.557c-.054-2.92.092-4.564.092-4.564l5.323-3.872A11.99,11.99,0,0,1,3119.733,1268.151Z" transform="translate(-3012.075 -1208.367)" fill="#ed975d"/>
          <path id="Trazado_20339" data-name="Trazado 20339" d="M3100.738,1218.068s11.048,3.934,13.392-2.983,5.349-11.069-1.606-13.874-9.227-.631-10.571,1.487S3097.924,1216.866,3100.738,1218.068Z" transform="translate(-3003.244 -1156.663)" fill="#ffb27d"/>
          <path id="Trazado_20340" data-name="Trazado 20340" d="M3091.807,1376.133c-1.73,3.6-40.017,3.443-41.908.9-.77-1.033-1.651-11.368-2.157-23.384-.278-6.657-.443-13.83-.411-20.222.057-10.43.641-18.778,2.111-19.416,8.205-3.56,13.278-5.824,24-5.5a8.889,8.889,0,0,1,7.738,4.987,64.7,64.7,0,0,1,6.508,25.927C3088.118,1356.617,3093.985,1371.593,3091.807,1376.133Z" transform="translate(-2962.612 -1241.242)" fill="#6bb7bf"/>
          <path id="Trazado_20341" data-name="Trazado 20341" d="M3059.718,1389.175s-1.246,17.973-11.976,27.3c-.278-6.657-.443-13.83-.411-20.222C3050.537,1391.966,3054.766,1388.88,3059.718,1389.175Z" transform="translate(-2962.612 -1304.065)" fill="#599dad"/>
          <path id="Trazado_20342" data-name="Trazado 20342" d="M2935.162,1300.311s-11.775.073-15.47,3.505c-2.648,2.46-19.664,15.871-20.745,15.691s-12.036-22.05-12.036-22.05-5.4.457-6.3,2.8c0,0,5.094,27.3,16.085,33.241,0,0,27.784-5.27,36.028-14.46C2936.968,1314.3,2935.162,1300.311,2935.162,1300.311Z" transform="translate(-2832.778 -1232.654)" fill="#6bb7bf"/>
          <path id="Trazado_20343" data-name="Trazado 20343" d="M3107.257,1184.241s.654,6.6,2.635,8.4,1.458,4.281,1.675,4.642,2.268-.7,2.629-.092c.831,1.4-.467,2.414-1.287,2.752s2.092,6,4.231,6.211c3.7.361,9.408-9.863,9.891-12.86.63-3.919-1.589-10.031-7.951-9.73C3109.081,1184.039,3107.055,1181.87,3107.257,1184.241Z" transform="translate(-3009.273 -1143.604)" fill="#2b478b"/>
        </g>
      </g>
      <g id="Grupo_26243" data-name="Grupo 26243" transform="translate(2634.539 901.411)">
        <rect id="Rectángulo_3790" data-name="Rectángulo 3790" width="11.804" height="73.531" transform="translate(0 34.557)" fill="#afcdfb"/>
        <rect id="Rectángulo_3791" data-name="Rectángulo 3791" width="11.804" height="94.027" transform="translate(19.87 14.061)" fill="#afcdfb"/>
        <rect id="Rectángulo_3792" data-name="Rectángulo 3792" width="11.804" height="55.749" transform="translate(40.971 52.339)" fill="#afcdfb"/>
        <path id="Trazado_20344" data-name="Trazado 20344" d="M4504.231,901.411h-10a1.034,1.034,0,1,0,0,2.068h10a1.034,1.034,0,0,0,0-2.068Z" transform="translate(-4473.208 -901.411)" fill="#afcdfb"/>
        <path id="Trazado_20345" data-name="Trazado 20345" d="M4496.511,920.487a1.034,1.034,0,1,0,0-2.068h-2.277a1.034,1.034,0,1,0,0,2.068Z" transform="translate(-4473.208 -914.656)" fill="#afcdfb"/>
        <path id="Trazado_20346" data-name="Trazado 20346" d="M4598.464,1088.378h-10a1.037,1.037,0,0,0-1.034,1.034h0a1.037,1.037,0,0,0,1.034,1.034h10a1.037,1.037,0,0,0,1.034-1.034h0A1.037,1.037,0,0,0,4598.464,1088.378Z" transform="translate(-4546.593 -1047.014)" fill="#afcdfb"/>
        <path id="Trazado_20347" data-name="Trazado 20347" d="M4588.467,1107.456h2.277a1.034,1.034,0,0,0,0-2.068h-2.277a1.034,1.034,0,1,0,0,2.068Z" transform="translate(-4546.593 -1060.26)" fill="#afcdfb"/>
      </g>
    </g>
    <g id="Grupo_26252" data-name="Grupo 26252" transform="translate(377.844 781.135)">
      <g id="Grupo_26251" data-name="Grupo 26251" transform="translate(396.156 437.218)">
        <g id="Grupo_26248" data-name="Grupo 26248" transform="translate(0.042 0.035)">
          <g id="Grupo_26245" data-name="Grupo 26245">
            <path id="Trazado_20348" data-name="Trazado 20348" d="M465.513,549.8a4.823,4.823,0,0,0-3.708-4.682,4.508,4.508,0,0,0,.108-1.332,5.322,5.322,0,0,0-.668-2.133c-.912-1.7-2.648-2.771-4.277-3.809a16.409,16.409,0,0,1-4.69-3.986c-2.3-3.189-.4-6.754-1.713-10.158a4.772,4.772,0,0,0-4.349-3.369L446,518.412c5.456.13,9.567.093,9.975-.287.354-.33.694-2.842.8-6.741l7-1.6c2.228-.534-1.391-25.034-1.887-27.259a47.323,47.323,0,0,0-17.29-27.165,48.849,48.849,0,0,0-13.34-7.32c-.649-.234-4.8-.579-4.987-.824l-7.132-9.572c-.374-.5-1.228-.352-1.246.218l-.344,10.877a56.5,56.5,0,0,0-15.351,6.539l2.342,5.13c1.639,3.591-8.252,19.945-8.252,19.945l7.028,9.962s6.222.049,6.669-3.045a13.783,13.783,0,0,1,2.385-5.639l17.622-3.5-.512,2.951-17.657,25.929a1.319,1.319,0,0,0-.118,1.273l3.514,8.015a1.318,1.318,0,0,0,1.132.787c1.488.085,4.9.277,9.136.492l-.222,2.373a5.141,5.141,0,0,0-4.27,3.381c-1.3,3.408.607,6.967-1.68,10.163a16.411,16.411,0,0,1-4.677,4c-1.626,1.044-3.358,2.117-4.264,3.823a5.048,5.048,0,0,0-.576,3.867,4.824,4.824,0,0,0-3.742,4.707v.1a4.825,4.825,0,0,0,4.833,4.817l49.8-.08a4.825,4.825,0,0,0,4.817-4.833Z" transform="translate(-396.296 -437.336)" fill="#3b455a"/>
          </g>
          <g id="Grupo_26246" data-name="Grupo 26246" transform="translate(29.201 80.244)" opacity="0.16" style="mix-blend-mode: multiply;isolation: isolate">
            <path id="Trazado_20349" data-name="Trazado 20349" d="M493.9,705.557l20.507.831.213,1.918L493.9,706.245Z" transform="translate(-493.901 -705.557)"/>
          </g>
          <g id="Grupo_26247" data-name="Grupo 26247" transform="translate(23.449 16.742)" opacity="0.16" style="mix-blend-mode: multiply;isolation: isolate">
            <path id="Trazado_20350" data-name="Trazado 20350" d="M511.709,550.6c.467-.107-1.092-11.984-1.259-13.183a87.264,87.264,0,0,0-2.816-13.315c-2.691-8.89-7.206-17.478-14.608-23.292-5.132-4.031-11.6-7.584-18.352-7.513a48.262,48.262,0,0,1,15.205,2.154c8.6,2.8,14.363,10.992,18.4,18.641a64.729,64.729,0,0,1,7.061,23c.1.909,1.544,12.238.952,12.458Z" transform="translate(-474.674 -493.296)"/>
          </g>
        </g>
        <g id="Grupo_26250" data-name="Grupo 26250" transform="translate(0 0)">
          <g id="Grupo_26249" data-name="Grupo 26249">
            <path id="Trazado_20351" data-name="Trazado 20351" d="M410.8,554.762a4.869,4.869,0,0,1-4.868-4.852v-.1a4.832,4.832,0,0,1,3.733-4.732,5.133,5.133,0,0,1,.588-3.857,11.023,11.023,0,0,1,4.118-3.734l.159-.1a16.359,16.359,0,0,0,4.668-3.992c1.289-1.8,1.24-3.678,1.188-5.666a11.43,11.43,0,0,1,.488-4.49,5.138,5.138,0,0,1,4.271-3.4l.216-2.31c-4.107-.208-7.463-.4-9.1-.49a1.348,1.348,0,0,1-1.162-.808l-3.514-8.015a1.347,1.347,0,0,1,.121-1.306l17.652-25.922.5-2.894L412.3,481.579a13.835,13.835,0,0,0-2.371,5.612c-.439,3.04-6.432,3.075-6.686,3.075h-.036l-.01-.014-7.041-9.98.012-.019c.1-.164,9.863-16.379,8.25-19.913l-2.354-5.157.025-.017a57.064,57.064,0,0,1,15.337-6.537l.343-10.851a.61.61,0,0,1,.66-.557h0a.8.8,0,0,1,.649.319l7.132,9.572a14.182,14.182,0,0,0,2.624.445,19.6,19.6,0,0,1,2.346.368,48.834,48.834,0,0,1,13.35,7.326,47.624,47.624,0,0,1,10.964,11.964,47.061,47.061,0,0,1,6.339,15.221c.461,2.069,4.163,26.749,1.861,27.3l-2.426.555-.835.191-3.717.849c-.1,3.675-.427,6.381-.811,6.739-.263.245-1.932.364-5.1.364-1.35,0-2.985-.023-4.858-.067l.205,1.851a4.8,4.8,0,0,1,4.35,3.388,11.431,11.431,0,0,1,.5,4.488c-.045,1.988-.088,3.865,1.207,5.662a16.366,16.366,0,0,0,4.68,3.977l.16.1a11.02,11.02,0,0,1,4.129,3.72,5.331,5.331,0,0,1,.672,2.148,4.558,4.558,0,0,1-.1,1.309,4.84,4.84,0,0,1,3.7,4.707v.1a4.866,4.866,0,0,1-4.853,4.868Zm19.145-76.756-.527,3.016-17.657,25.929a1.277,1.277,0,0,0-.115,1.239l3.514,8.015a1.278,1.278,0,0,0,1.1.766c1.642.094,5.012.282,9.136.491l.036,0-.227,2.436-.026,0a5.08,5.08,0,0,0-4.244,3.359,11.38,11.38,0,0,0-.483,4.463c.05,1.912.1,3.888-1.2,5.708a16.419,16.419,0,0,1-4.687,4.01l-.159.1a10.968,10.968,0,0,0-4.094,3.708,5.049,5.049,0,0,0-.573,3.84l.01.036-.036.008A4.762,4.762,0,0,0,406,549.812v.1a4.8,4.8,0,0,0,4.79,4.783l49.805-.08a4.8,4.8,0,0,0,4.782-4.8v-.1a4.77,4.77,0,0,0-3.68-4.648l-.034-.008.008-.034a4.466,4.466,0,0,0,.107-1.322,5.253,5.253,0,0,0-.664-2.119,10.963,10.963,0,0,0-4.1-3.694l-.16-.1a16.425,16.425,0,0,1-4.7-4c-1.309-1.816-1.263-3.793-1.22-5.7a11.376,11.376,0,0,0-.5-4.462,4.744,4.744,0,0,0-4.321-3.347l-.027,0-.22-1.985h.04c1.89.045,3.537.068,4.9.068,3.108,0,4.808-.116,5.054-.346.3-.279.674-2.5.789-6.716v-.027l4.6-1.053,2.427-.555c.9-.215.916-4.817.051-12.957-.678-6.377-1.71-13.12-1.964-14.26a47,47,0,0,0-6.33-15.2A47.555,47.555,0,0,0,444.487,455.3a48.757,48.757,0,0,0-13.331-7.315,20.171,20.171,0,0,0-2.332-.364,10.529,10.529,0,0,1-2.671-.472l-7.132-9.572a.729.729,0,0,0-.593-.291.542.542,0,0,0-.59.489l-.345,10.9-.025.007a57.232,57.232,0,0,0-15.316,6.518l2.33,5.1c.685,1.5-.5,5.318-3.512,11.35-2.163,4.327-4.541,8.295-4.73,8.609l7,9.928c.266,0,6.186-.038,6.616-3.015a13.933,13.933,0,0,1,2.392-5.655l.008-.011.013,0Z" transform="translate(-396.156 -437.218)" fill="#6d6e71"/>
          </g>
        </g>
      </g>
    </g>
  </g>
</svg>
