<svg id="Grupo_20894" data-name="Grupo 20894" xmlns="http://www.w3.org/2000/svg" xmlns:xlink="http://www.w3.org/1999/xlink" width="349.664" height="419.651" viewBox="0 0 349.664 419.651">
  <defs>
    <radialGradient id="radial-gradient" cx="0.5" cy="0.5" r="2.098" gradientTransform="translate(0.355 -0.574) scale(0.238 0.238)" gradientUnits="objectBoundingBox">
      <stop offset="0" stop-color="#4a637e"/>
      <stop offset="0.099" stop-color="#647990"/>
      <stop offset="0.326" stop-color="#9aa8b7"/>
      <stop offset="0.539" stop-color="#c6ced6"/>
      <stop offset="0.728" stop-color="#e5e8ec"/>
      <stop offset="0.888" stop-color="#f8f9fa"/>
      <stop offset="1" stop-color="#fff"/>
    </radialGradient>
    <linearGradient id="linear-gradient" x1="-2.973" y1="1.815" x2="-1.931" y2="2.39" gradientUnits="objectBoundingBox">
      <stop offset="0" stop-color="#fff"/>
      <stop offset="1" stop-color="#e6ebf3"/>
    </linearGradient>
    <linearGradient id="linear-gradient-2" x1="0" y1="0.5" x2="1" y2="0.5" xlink:href="#linear-gradient"/>
  </defs>
  <ellipse id="Elipse_856" data-name="Elipse 856" cx="118.121" cy="28.149" rx="118.121" ry="28.149" transform="translate(0 329.988)" opacity="0.6" fill="url(#radial-gradient)" style="mix-blend-mode: multiply;isolation: isolate"/>
  <g id="Grupo_20893" data-name="Grupo 20893" transform="translate(41.204)">
    <g id="Grupo_20881" data-name="Grupo 20881" transform="translate(0 60.606)">
      <g id="Grupo_20875" data-name="Grupo 20875" transform="translate(0.001 0.011)">
        <path id="Trazado_18250" data-name="Trazado 18250" d="M220.5,217.21a217.912,217.912,0,0,0-21.1-42.224c-8.14-12.412-17.189-22.713-26.728-30.11-9.8-7.6-20.185-12.186-30.66-12.808a39.885,39.885,0,0,0-5.945.1c-.289.025-.574.058-.862.089-.374.043-.75.078-1.122.13q-1.152.158-2.286.383l0-.014-5.646,1.007,0,.015a42.084,42.084,0,0,0-20.113,9.8c-8.856,7.548-16.278,18.962-21.839,33.484C78.5,191.939,74.811,209.942,73.557,230.1A290.361,290.361,0,0,0,96.645,359.588c8.146,18.487,17.831,34.1,28.314,46.087,10.236,11.7,21.146,19.85,32.065,23.872a42.246,42.246,0,0,0,21.754,2.341v0l8.192-1.461,0-.026c.221-.047.443-.105.663-.156a39.624,39.624,0,0,0,7.129-2.34c9.616-4.2,17.772-12.092,24.344-22.615,6.394-10.237,11.327-23.03,14.674-37.49a217.965,217.965,0,0,0,5.207-46.913,287.506,287.506,0,0,0-4.571-52.671A287.562,287.562,0,0,0,220.5,217.21Z" transform="translate(-73.082 -132.003)" fill="url(#linear-gradient)"/>
      </g>
      <g id="Grupo_20876" data-name="Grupo 20876">
        <path id="Trazado_18251" data-name="Trazado 18251" d="M138.451,232.848a22.267,22.267,0,0,0-4.33,8.2,45.3,45.3,0,0,0-1.877,11.706,67.643,67.643,0,0,0,4.879,27.364,45.336,45.336,0,0,0,5.808,10.335,22.305,22.305,0,0,0,6.9,6.2,10.223,10.223,0,0,0,6.68,1.233l0,.011,6.652-1.186,0-.015c.159-.028.318-.051.476-.088a10.9,10.9,0,0,0,6.053-4.205,24.569,24.569,0,0,0,3.95-8.411,47.371,47.371,0,0,0,1.592-11.378,67.855,67.855,0,0,0-4.635-26,47.342,47.342,0,0,0-5.427-10.126,24.553,24.553,0,0,0-6.613-6.525,10.908,10.908,0,0,0-7.132-1.853c-.161.02-.318.054-.477.083l0-.011-6.653,1.186,0,.015A10.22,10.22,0,0,0,138.451,232.848Z" transform="translate(-62.226 -114.36)" fill="#b71b06"/>
        <path id="Trazado_18252" data-name="Trazado 18252" d="M176.459,362.955l0-.026a23.908,23.908,0,0,0,2.486-.683c6.059-2.03,11.274-6.426,15.535-12.578,4.188-6.048,7.468-13.816,9.739-22.757A129.982,129.982,0,0,0,207.9,297.35a180.914,180.914,0,0,0-11.837-66.384A130.017,130.017,0,0,0,182.386,204.5c-5.221-7.6-10.984-13.759-17-17.986-6.125-4.3-12.537-6.621-18.925-6.432-.549.015-1.092.057-1.632.11l-.014-.079-9.118,1.625,0,.02a26.648,26.648,0,0,0-13.31,7.438c-5.118,5.034-9.336,12.286-12.437,21.256a116.1,116.1,0,0,0-5.718,31.883A179.389,179.389,0,0,0,117.8,318.43a116.107,116.107,0,0,0,16.386,27.941c6.01,7.347,12.476,12.694,19.018,15.65a26.649,26.649,0,0,0,15.06,2.38l0,.015Zm-29.837-153.3a21.657,21.657,0,0,1,11.287,3.947,46.784,46.784,0,0,1,11.9,12.167,88.053,88.053,0,0,1,9.663,18.368,124.356,124.356,0,0,1,8.309,46.6,88.042,88.042,0,0,1-2.719,20.574,46.767,46.767,0,0,1-6.957,15.528,21.655,21.655,0,0,1-9.211,7.6,19.766,19.766,0,0,1-8.129-2.149c-4.441-2.186-8.807-5.968-12.848-11.062a81.4,81.4,0,0,1-10.941-19.068,123.53,123.53,0,0,1-9.127-51.183,81.416,81.416,0,0,1,3.676-21.678c2.031-6.176,4.821-11.235,8.232-14.821A19.8,19.8,0,0,1,146.622,209.652Z" transform="translate(-67.396 -123.167)" fill="#117099"/>
        <path id="Trazado_18253" data-name="Trazado 18253" d="M220.5,217.208a217.845,217.845,0,0,0-21.1-42.224c-8.138-12.414-17.189-22.714-26.728-30.111-9.8-7.6-20.185-12.186-30.66-12.808a39.342,39.342,0,0,0-10.213.711l0-.018-5.646,1.006,0,.015a42.091,42.091,0,0,0-20.113,9.8c-8.856,7.547-16.278,18.961-21.839,33.484C78.5,191.937,74.81,209.938,73.556,230.1A290.413,290.413,0,0,0,96.644,359.586c8.146,18.485,17.832,34.1,28.314,46.087,10.237,11.7,21.147,19.85,32.065,23.871a42.234,42.234,0,0,0,21.754,2.341v.006l8.192-1.461,0-.027a39.684,39.684,0,0,0,7.793-2.495c9.614-4.2,17.772-12.093,24.343-22.615,6.395-10.238,11.327-23.032,14.674-37.492a217.806,217.806,0,0,0,5.207-46.913,287.516,287.516,0,0,0-4.571-52.671A287.647,287.647,0,0,0,220.5,217.208ZM164.618,398.735c-8.7-3.571-17.346-10.378-25.42-19.931-8.227-9.735-15.8-22.255-22.168-36.951A234.932,234.932,0,0,1,98.814,239.688c.891-15.99,3.674-30.357,8.03-42.336,4.275-11.754,10.036-21.128,16.966-27.485a35.43,35.43,0,0,1,13.89-8.105c.9-.063,1.806-.1,2.725-.083,8.421.129,16.821,3.506,24.8,9.4,7.8,5.766,15.236,13.969,21.946,23.974a173.325,173.325,0,0,1,17.486,34.417,231.838,231.838,0,0,1,11.544,42,231.785,231.785,0,0,1,3.683,43.4,173.394,173.394,0,0,1-4.513,38.339c-2.838,11.709-6.98,21.976-12.307,30.083-5.448,8.291-12.163,14.364-20.022,17.4-.843.324-1.69.6-2.542.852A35.415,35.415,0,0,1,164.618,398.735Z" transform="translate(-73.081 -131.994)" fill="#1b3144"/>
      </g>
      <g id="Grupo_20877" data-name="Grupo 20877" transform="translate(6.488 0.031)">
        <path id="Trazado_18254" data-name="Trazado 18254" d="M188.522,399.521c-8.072,3.114-16.581,2.726-25.074-.76-8.7-3.571-17.346-10.377-25.419-19.929-8.228-9.735-15.8-22.255-22.168-36.952A234.956,234.956,0,0,1,97.643,239.714c.891-15.989,3.675-30.357,8.031-42.335,4.275-11.754,10.036-21.128,16.964-27.485,6.765-6.206,14.616-9.51,23.266-9.379,8.422.128,16.822,3.506,24.8,9.4,7.8,5.765,15.236,13.968,21.946,23.974a173.388,173.388,0,0,1,17.486,34.417,231.85,231.85,0,0,1,11.544,42,231.887,231.887,0,0,1,3.683,43.4,173.405,173.405,0,0,1-4.513,38.34c-2.838,11.708-6.98,21.976-12.307,30.083-5.448,8.29-12.163,14.363-20.022,17.394M140.837,132.093c-10.83-.643-20.728,3-29.321,10.324-8.856,7.548-16.278,18.962-21.839,33.484-5.693,14.871-9.385,32.872-10.639,53.036a290.4,290.4,0,0,0,23.088,129.484c8.146,18.487,17.831,34.1,28.314,46.087,10.236,11.7,21.146,19.85,32.065,23.872,10.594,3.9,21.143,3.9,31.082-.446,9.614-4.2,17.772-12.092,24.344-22.615,6.394-10.237,11.327-23.03,14.674-37.492a217.958,217.958,0,0,0,5.207-46.912,287.616,287.616,0,0,0-4.571-52.671,287.534,287.534,0,0,0-13.917-51.011,217.918,217.918,0,0,0-21.1-42.224C190.085,162.6,181.034,152.3,171.5,144.9c-9.8-7.6-20.185-12.186-30.66-12.808" transform="translate(-78.563 -132.021)" fill="#4a637e"/>
        <path id="Trazado_18255" data-name="Trazado 18255" d="M172.7,333.851a17.985,17.985,0,0,1-13.112-1.539c-4.441-2.187-8.806-5.969-12.848-11.062A81.421,81.421,0,0,1,135.8,302.182,123.582,123.582,0,0,1,126.673,251a81.454,81.454,0,0,1,3.676-21.676c2.032-6.177,4.822-11.235,8.233-14.822a17.986,17.986,0,0,1,11.772-5.976c4.373-.329,8.792,1.091,13.036,3.913a46.8,46.8,0,0,1,11.9,12.166,88.093,88.093,0,0,1,9.663,18.369,124.356,124.356,0,0,1,8.309,46.6,88.052,88.052,0,0,1-2.719,20.574,46.772,46.772,0,0,1-6.957,15.526c-3.008,4.114-6.662,6.975-10.881,8.177M145.287,180.11c-6.519.193-12.393,2.981-17.419,7.924-5.117,5.034-9.335,12.286-12.436,21.256a116.055,116.055,0,0,0-5.718,31.883,179.379,179.379,0,0,0,13.568,76.092,116.118,116.118,0,0,0,16.386,27.942c6.01,7.347,12.475,12.694,19.017,15.649,6.423,2.9,12.9,3.488,19.084,1.416,6.06-2.03,11.275-6.426,15.535-12.578,4.189-6.047,7.47-13.815,9.74-22.757a130.114,130.114,0,0,0,3.688-29.56,180.914,180.914,0,0,0-11.837-66.384,130.1,130.1,0,0,0-13.678-26.464c-5.221-7.606-10.985-13.759-17-17.986-6.124-4.3-12.537-6.622-18.925-6.433" transform="translate(-72.878 -123.194)" fill="#39a6e3"/>
        <path id="Trazado_18256" data-name="Trazado 18256" d="M150.251,228.137a10.908,10.908,0,0,1,7.133,1.852A24.57,24.57,0,0,1,164,236.515a47.345,47.345,0,0,1,5.426,10.126,67.884,67.884,0,0,1,4.636,26,47.288,47.288,0,0,1-1.593,11.377,24.584,24.584,0,0,1-3.948,8.412,10.906,10.906,0,0,1-6.053,4.2,10.079,10.079,0,0,1-7.156-1.145,22.308,22.308,0,0,1-6.9-6.2,45.391,45.391,0,0,1-5.807-10.336,67.633,67.633,0,0,1-4.879-27.362,45.3,45.3,0,0,1,1.877-11.706,22.3,22.3,0,0,1,4.328-8.2,10.088,10.088,0,0,1,6.319-3.546" transform="translate(-67.708 -114.386)" fill="#f13c19"/>
      </g>
      <g id="Grupo_20880" data-name="Grupo 20880" transform="translate(6.557 0.558)">
        <g id="Grupo_20878" data-name="Grupo 20878">
          <path id="Trazado_18257" data-name="Trazado 18257" d="M211.308,347.648c-2.838,11.709-6.98,21.977-12.307,30.083-5.448,8.291-12.164,14.364-20.022,17.4a31.575,31.575,0,0,1-5.253,1.515,31.493,31.493,0,0,0,6.515-1.74c7.858-3.031,14.574-9.1,20.021-17.4,5.327-8.106,9.47-18.374,12.307-30.083a173.322,173.322,0,0,0,4.514-38.339,231.8,231.8,0,0,0-3.685-43.4,231.863,231.863,0,0,0-11.542-42,173.345,173.345,0,0,0-17.488-34.415c-6.709-10.006-14.144-18.208-21.945-23.974-7.977-5.9-16.377-9.273-24.8-9.4a31.361,31.361,0,0,0-6.715.619,31.591,31.591,0,0,1,5.453-.394c8.422.128,16.822,3.5,24.8,9.4,7.8,5.765,15.236,13.968,21.946,23.974a173.408,173.408,0,0,1,17.486,34.415,231.89,231.89,0,0,1,11.544,42,231.89,231.89,0,0,1,3.683,43.4A173.385,173.385,0,0,1,211.308,347.648Z" transform="translate(-69.021 -128.165)" fill="#688daf"/>
          <path id="Trazado_18258" data-name="Trazado 18258" d="M163.825,428.061C152.906,424.04,142,415.895,131.76,404.19c-10.483-11.986-20.168-27.6-28.314-46.087A290.361,290.361,0,0,1,80.357,228.619C81.611,208.455,85.3,190.454,91,175.583c5.559-14.522,12.983-25.937,21.837-33.484a42.351,42.351,0,0,1,19.193-9.633,42,42,0,0,0-20.454,9.858c-8.856,7.548-16.278,18.962-21.839,33.484-5.693,14.871-9.386,32.872-10.639,53.036a290.361,290.361,0,0,0,23.088,129.484c8.146,18.485,17.831,34.1,28.314,46.087,10.236,11.7,21.146,19.85,32.065,23.871a42,42,0,0,0,22.6,2.181A42.344,42.344,0,0,1,163.825,428.061Z" transform="translate(-78.621 -132.466)" fill="#688daf"/>
        </g>
        <g id="Grupo_20879" data-name="Grupo 20879" transform="translate(36.648 56.637)">
          <path id="Trazado_18259" data-name="Trazado 18259" d="M160,360.58c-6.542-2.957-13.007-8.3-19.018-15.65A116.174,116.174,0,0,1,124.6,316.988a179.357,179.357,0,0,1-13.569-76.093,116.145,116.145,0,0,1,5.718-31.883c3.1-8.97,7.321-16.222,12.437-21.256a26.645,26.645,0,0,1,13.318-7.438,26.263,26.263,0,0,0-14.58,7.663c-5.117,5.034-9.335,12.286-12.436,21.256a116.057,116.057,0,0,0-5.718,31.884,179.379,179.379,0,0,0,13.568,76.092,116.139,116.139,0,0,0,16.386,27.942c6.01,7.345,12.475,12.693,19.017,15.65a26.267,26.267,0,0,0,16.33,2.153A26.646,26.646,0,0,1,160,360.58Z" transform="translate(-109.584 -180.318)" fill="#67ccf9"/>
          <path id="Trazado_18260" data-name="Trazado 18260" d="M184.419,305.769a46.79,46.79,0,0,1-6.957,15.528c-3.008,4.114-6.662,6.974-10.881,8.177-.327.094-.657.156-.986.228a16.358,16.358,0,0,0,2.248-.453c4.218-1.2,7.873-4.063,10.881-8.177a46.792,46.792,0,0,0,6.957-15.528,88.042,88.042,0,0,0,2.719-20.574,124.313,124.313,0,0,0-8.31-46.6A88,88,0,0,0,170.427,220a46.74,46.74,0,0,0-11.9-12.166c-4.244-2.822-8.663-4.242-13.036-3.913a15.976,15.976,0,0,0-2.265.352c.334-.046.665-.1,1-.127,4.373-.329,8.792,1.091,13.035,3.913a46.722,46.722,0,0,1,11.9,12.166,88.009,88.009,0,0,1,9.664,18.369,124.343,124.343,0,0,1,8.309,46.6A88.043,88.043,0,0,1,184.419,305.769Z" transform="translate(-103.406 -175.993)" fill="#67ccf9"/>
        </g>
        <path id="Trazado_18261" data-name="Trazado 18261" d="M156.629,295.242a22.285,22.285,0,0,1-6.9-6.2,45.335,45.335,0,0,1-5.807-10.335,67.67,67.67,0,0,1-4.88-27.362,45.346,45.346,0,0,1,1.877-11.706,22.308,22.308,0,0,1,4.33-8.2,10.456,10.456,0,0,1,5.218-3.333c-.053.006-.107,0-.161.012a10.083,10.083,0,0,0-6.319,3.546,22.29,22.29,0,0,0-4.328,8.2,45.3,45.3,0,0,0-1.877,11.706,67.643,67.643,0,0,0,4.879,27.362,45.382,45.382,0,0,0,5.807,10.335,22.278,22.278,0,0,0,6.9,6.2,10.079,10.079,0,0,0,7.156,1.146c.052-.012.1-.032.155-.045A10.453,10.453,0,0,1,156.629,295.242Z" transform="translate(-67.766 -114.907)" fill="#ff7866"/>
      </g>
    </g>
    <g id="Grupo_20892" data-name="Grupo 20892" transform="translate(94.037)">
      <g id="Grupo_20883" data-name="Grupo 20883" transform="translate(0 181.7)">
        <path id="Trazado_18262" data-name="Trazado 18262" d="M347.877,263.42H156.437a3.907,3.907,0,0,1-3.906-3.906h0a3.906,3.906,0,0,1,3.906-3.9h191.44Z" transform="translate(-152.531 -230.393)" fill="url(#linear-gradient-2)"/>
        <path id="Trazado_18263" data-name="Trazado 18263" d="M347.817,262.552H156.377a3.823,3.823,0,0,1-3.522-2.217H347.817Z" transform="translate(-152.472 -229.526)" fill="#adbac8"/>
        <g id="Grupo_20882" data-name="Grupo 20882" transform="translate(152.048)">
          <path id="Trazado_18264" data-name="Trazado 18264" d="M296.677,234.3l-15.682,29.121,15.682,29.121h46.692l-15.683-29.121L343.368,234.3Z" transform="translate(-280.994 -234.305)" fill="#f13c19"/>
          <path id="Trazado_18265" data-name="Trazado 18265" d="M280.994,258.908l15.682,29.121h46.692l-15.683-29.121Z" transform="translate(-280.994 -229.788)" fill="#b73018"/>
        </g>
      </g>
      <g id="Grupo_20885" data-name="Grupo 20885" transform="translate(0.001 206.916)">
        <path id="Trazado_18266" data-name="Trazado 18266" d="M320.281,358.616,154.489,262.9a3.905,3.905,0,0,1-1.43-5.335h0a3.905,3.905,0,0,1,5.334-1.429l165.792,95.72Z" transform="translate(-152.531 -255.609)" fill="url(#linear-gradient-2)"/>
        <path id="Trazado_18267" data-name="Trazado 18267" d="M320.282,358.057,154.49,262.337a3.822,3.822,0,0,1-1.941-3.68L321.39,356.138Z" transform="translate(-152.532 -255.05)" fill="#adbac8"/>
        <g id="Grupo_20884" data-name="Grupo 20884" transform="translate(131.227 60.599)">
          <path id="Trazado_18268" data-name="Trazado 18268" d="M292.524,306.808l-28.142,17.378-.979,33.061,40.436,23.346.979-33.06,28.142-17.378Z" transform="translate(-263.403 -306.808)" fill="#39a6e3"/>
          <path id="Trazado_18269" data-name="Trazado 18269" d="M264.382,321.49l-.979,33.061L303.839,377.9l.979-33.061Z" transform="translate(-263.403 -304.113)" fill="#3a76be"/>
        </g>
      </g>
      <g id="Grupo_20887" data-name="Grupo 20887" transform="translate(0 206.916)">
        <path id="Trazado_18270" data-name="Trazado 18270" d="M255.7,439.214,153.072,261.467a3.9,3.9,0,0,1,1.43-5.333h0a3.9,3.9,0,0,1,5.334,1.429L262.459,435.31Z" transform="translate(-152.528 -255.609)" fill="url(#linear-gradient-2)"/>
        <path id="Trazado_18271" data-name="Trazado 18271" d="M255.7,438.951,153.075,261.2a3.823,3.823,0,0,1,.159-4.158l104.384,180.8Z" transform="translate(-152.531 -255.346)" fill="#adbac8"/>
        <g id="Grupo_20886" data-name="Grupo 20886" transform="translate(67.523 143.178)">
          <path id="Trazado_18272" data-name="Trazado 18272" d="M260.018,376.578l-33.06.979L209.58,405.7l23.346,40.436L250.3,417.993l33.06-.979Z" transform="translate(-209.58 -376.578)" fill="#876ad1"/>
          <path id="Trazado_18273" data-name="Trazado 18273" d="M226.958,377.4,209.58,405.546l23.346,40.436L250.3,417.841Z" transform="translate(-209.58 -376.426)" fill="#5a429a"/>
        </g>
      </g>
      <g id="Grupo_20889" data-name="Grupo 20889" transform="translate(0.001 80.322)">
        <path id="Trazado_18274" data-name="Trazado 18274" d="M324.182,181.924,158.39,277.644a3.905,3.905,0,0,1-5.334-1.429h0a3.905,3.905,0,0,1,1.43-5.335l165.791-95.72Z" transform="translate(-152.532 -143.785)" fill="url(#linear-gradient-2)"/>
        <path id="Trazado_18275" data-name="Trazado 18275" d="M323.918,181.173l-165.792,95.72a3.821,3.821,0,0,1-4.158-.157l168.841-97.482Z" transform="translate(-152.268 -143.034)" fill="#adbac8"/>
        <g id="Grupo_20888" data-name="Grupo 20888" transform="translate(131.222)">
          <path id="Trazado_18276" data-name="Trazado 18276" d="M263.4,172l.979,33.06,28.142,17.378,40.436-23.346-28.142-17.378-.979-33.06Z" transform="translate(-263.399 -148.652)" fill="#ffb312"/>
          <path id="Trazado_18277" data-name="Trazado 18277" d="M264.226,199.93l28.142,17.378L332.8,193.962l-28.142-17.378Z" transform="translate(-263.247 -143.524)" fill="#e48500"/>
        </g>
      </g>
      <g id="Grupo_20891" data-name="Grupo 20891" transform="translate(0.001)">
        <path id="Trazado_18278" data-name="Trazado 18278" d="M263.588,109.3,159.818,289.039a3.9,3.9,0,0,1-5.333,1.429h0a3.9,3.9,0,0,1-1.43-5.333L256.825,105.4Z" transform="translate(-152.532 -76.271)" fill="url(#linear-gradient-2)"/>
        <path id="Trazado_18279" data-name="Trazado 18279" d="M263.028,108.871,159.259,288.6a3.822,3.822,0,0,1-3.68,1.941L261.108,107.763Z" transform="translate(-151.972 -75.837)" fill="#adbac8"/>
        <g id="Grupo_20890" data-name="Grupo 20890" transform="translate(68.648)">
          <path id="Trazado_18280" data-name="Trazado 18280" d="M210.531,121.226l17.378,28.142,33.061.979,23.346-40.436-33.06-.979L233.877,80.79Z" transform="translate(-210.531 -80.79)" fill="#8dca00"/>
          <path id="Trazado_18281" data-name="Trazado 18281" d="M225.213,145l33.061.979,23.346-40.436-33.06-.979Z" transform="translate(-207.835 -76.424)" fill="#76a313"/>
        </g>
      </g>
    </g>
  </g>
</svg>
