<svg id="Слой_1" data-name="Слой 1" xmlns="http://www.w3.org/2000/svg" width="2890.03" height="1409.49" viewBox="0 0 2890.03 1409.49">
  <defs>
    <style>
      .cls-1 {
        fill: #ebf3fa;
      }

      .cls-2 {
        fill: #b0d4ff;
      }

      .cls-3 {
        fill: #95c0f4;
      }

      .cls-4 {
        fill: #cae5ff;
      }

      .cls-5 {
        fill: #dfedfb;
      }

      .cls-6 {
        fill: #fff;
      }

      .cls-7 {
        fill: #ffa412;
      }

      .cls-8 {
        fill: #eef6ff;
      }

      .cls-9 {
        fill: #78acea;
      }

      .cls-10 {
        fill: #bae8e3;
      }

      .cls-11 {
        fill: #a1d6ce;
      }

      .cls-12 {
        fill: #f99746;
      }

      .cls-13 {
        fill: #c0d8fb;
      }

      .cls-14 {
        fill: #dfebfd;
      }

      .cls-15 {
        fill: #b7d3f3;
      }

      .cls-16 {
        fill: #ffb27d;
      }

      .cls-17 {
        fill: #233862;
      }

      .cls-18 {
        fill: #a9453d;
      }

      .cls-19 {
        fill: #ed975d;
      }

      .cls-20 {
        fill: #2a4e96;
      }

      .cls-21 {
        fill: #5f9aa8;
      }

      .cls-22 {
        fill: #1e3d70;
      }

      .cls-23 {
        fill: #ed7d2b;
      }

      .cls-24 {
        fill: #163560;
      }

      .cls-25 {
        fill: #b0d0ff;
      }

      .cls-26 {
        fill: #98baf4;
      }

      .cls-27 {
        fill: #e8945b;
      }

      .cls-28 {
        fill: #f2ccaa;
      }

      .cls-29 {
        fill: #b5453c;
      }

      .cls-30 {
        fill: #2b478b;
      }

      .cls-31 {
        fill: #ebf3ff;
      }

      .cls-32 {
        fill: #213f7a;
      }

      .cls-33 {
        fill: #e2915a;
      }

      .cls-34 {
        fill: #2e3552;
      }
    </style>
  </defs>
  <g>
    <path class="cls-1" d="M345.29,1517c.13.09,2521.51-.31,2521.51-.31,83-177.06,82.86-263.57,92.31-365.06,52.16-560.95-370.34-647.19-494.12-670.58-379-71.62-206.5-426-1194.08-359.51-90.51,6.1-303.93,55.29-377.48,87.17C841.85,231.07,647.49,331,590.46,500.1c-18,53.36-22.33,113.6-4.17,180.47,64.27,236.61-103.29,223-225.73,335.77C197.14,1166.83,214.22,1412.94,345.29,1517Z" transform="translate(-142.97 -113.31)"/>
    <g>
      <path class="cls-2" d="M1847.22,1516.87h.34a3.62,3.62,0,0,0,3.63-3.71l-5.5-238.4-16.2-1.9,13.81,240.32A3.92,3.92,0,0,0,1847.22,1516.87Z" transform="translate(-142.97 -113.31)"/>
      <path class="cls-3" d="M1941.63,1516.87h.35a3.63,3.63,0,0,0,3.63-3.71l-5.5-238.4-16.21-1.9,13.82,240.32A3.92,3.92,0,0,0,1941.63,1516.87Z" transform="translate(-142.97 -113.31)"/>
      <path class="cls-2" d="M1681.09,1516.87h-.34a3.62,3.62,0,0,1-3.63-3.71l5.5-238.4,16.2-1.9L1685,1513.18A3.92,3.92,0,0,1,1681.09,1516.87Z" transform="translate(-142.97 -113.31)"/>
      <path class="cls-2" d="M1952.37,1260V1096.6a52.05,52.05,0,0,0-52-52h-117.7a52.06,52.06,0,0,0-52,52v169.61Z" transform="translate(-142.97 -113.31)"/>
      <path class="cls-3" d="M1725.11,1260h227.26a0,0,0,0,1,0,0v25.79a0,0,0,0,1,0,0H1709.48a0,0,0,0,1,0,0V1275.6A15.63,15.63,0,0,1,1725.11,1260Z" transform="translate(3518.89 2432.42) rotate(180)"/>
      <rect class="cls-4" x="1670.69" y="1259.97" width="195.04" height="25.79" rx="11.56" transform="translate(3393.46 2432.42) rotate(180)"/>
    </g>
    <g>
      <rect class="cls-3" x="1256.93" y="286.83" width="678.53" height="585.74"/>
      <g>
        <rect class="cls-5" x="1269.84" y="296.58" width="652.42" height="564.3"/>
        <g>
          <polygon class="cls-6" points="1497.87 542.11 1354.91 542.11 1354.91 363.59 1379.15 341.73 1497.87 341.73 1497.87 542.11"/>
          <polygon class="cls-2" points="1354.91 363.59 1378.37 363.59 1379.15 341.73 1354.91 363.59"/>
          <rect class="cls-2" x="1403.5" y="359.11" width="45.77" height="2.18"/>
          <rect class="cls-2" x="1392.72" y="365.65" width="67.33" height="2.18"/>
          <rect class="cls-2" x="1371.83" y="407.65" width="111.79" height="2.8"/>
          <rect class="cls-2" x="1371.83" y="416.16" width="111.79" height="2.8"/>
          <rect class="cls-2" x="1371.83" y="424.67" width="111.79" height="2.8"/>
          <rect class="cls-2" x="1371.83" y="433.18" width="111.79" height="2.8"/>
          <rect class="cls-2" x="1371.83" y="524.27" width="111.79" height="2.8"/>
        </g>
        <g>
          <polygon class="cls-6" points="1662.95 789.78 1519.98 789.78 1519.98 611.26 1544.23 589.41 1662.95 589.41 1662.95 789.78"/>
          <polygon class="cls-2" points="1519.98 611.26 1543.45 611.26 1544.23 589.41 1519.98 611.26"/>
          <rect class="cls-2" x="1568.58" y="606.79" width="45.78" height="2.18"/>
          <rect class="cls-2" x="1557.8" y="613.33" width="67.33" height="2.18"/>
          <rect class="cls-2" x="1536.91" y="655.33" width="111.79" height="2.8"/>
          <rect class="cls-2" x="1536.91" y="663.84" width="111.79" height="2.8"/>
          <rect class="cls-2" x="1536.91" y="672.35" width="111.79" height="2.8"/>
          <rect class="cls-2" x="1536.91" y="680.86" width="111.79" height="2.8"/>
          <rect class="cls-2" x="1536.91" y="707.05" width="111.79" height="2.8"/>
          <rect class="cls-2" x="1536.91" y="715.56" width="111.79" height="2.8"/>
          <rect class="cls-2" x="1536.91" y="725.43" width="111.79" height="2.8"/>
        </g>
        <g>
          <rect class="cls-2" x="1664.68" y="341.73" width="78.94" height="69.6"/>
          <path class="cls-7" d="M1843.66,463.33a3.46,3.46,0,1,1,3.46,3.46A3.46,3.46,0,0,1,1843.66,463.33Z" transform="translate(-142.97 -113.31)"/>
        </g>
        <g>
          <rect class="cls-6" x="1807.65" y="549.17" width="78.94" height="69.6" transform="translate(-179.15 16.74) rotate(-3.99)"/>
          <path class="cls-2" d="M1842.13,562.07a3.45,3.45,0,1,1,3.68,3.21A3.44,3.44,0,0,1,1842.13,562.07Z" transform="translate(-142.97 -113.31)"/>
        </g>
        <g>
          <rect class="cls-6" x="1545.32" y="805.57" width="78.94" height="69.6" transform="translate(-197.64 -0.91) rotate(-3.99)"/>
          <path class="cls-2" d="M1579.8,818.47a3.45,3.45,0,1,1,3.68,3.21A3.45,3.45,0,0,1,1579.8,818.47Z" transform="translate(-142.97 -113.31)"/>
        </g>
        <g>
          <rect class="cls-6" x="1444.07" y="853.26" width="78.94" height="69.6" transform="translate(-152 -98.05) rotate(-0.59)"/>
          <path class="cls-2" d="M1479.86,865.9a3.46,3.46,0,1,1,3.49,3.42A3.45,3.45,0,0,1,1479.86,865.9Z" transform="translate(-142.97 -113.31)"/>
        </g>
        <g>
          <rect class="cls-8" x="1919.14" y="594.95" width="78.94" height="69.6" transform="translate(-1.63 -448.07) rotate(10.13)"/>
          <path class="cls-9" d="M1960.12,604.24a3,3,0,1,1,2.43,3.49A3,3,0,0,1,1960.12,604.24Z" transform="translate(-142.97 -113.31)"/>
        </g>
        <g>
          <rect class="cls-8" x="1686.12" y="549.17" width="78.94" height="69.6" transform="translate(-195.78 75.75) rotate(-6.18)"/>
          <path class="cls-9" d="M1719.87,559.07a3,3,0,1,1,3.32,2.67A3,3,0,0,1,1719.87,559.07Z" transform="translate(-142.97 -113.31)"/>
        </g>
        <g>
          <rect class="cls-10" x="1485.36" y="717.11" width="78.94" height="69.6" transform="translate(-266.25 221.21) rotate(-12.04)"/>
          <path class="cls-7" d="M1517.9,729.59a3,3,0,1,1,4.16-.88A3,3,0,0,1,1517.9,729.59Z" transform="translate(-142.97 -113.31)"/>
        </g>
        <g>
          <g>
            <polygon class="cls-6" points="1620.19 411.33 1545.06 411.33 1545.06 360.85 1565.86 341.73 1620.19 341.73 1620.19 411.33"/>
            <polygon class="cls-2" points="1544.65 360.85 1565.18 360.85 1565.86 341.73 1544.65 360.85"/>
          </g>
          <path class="cls-2" d="M1725.87,461.48a2.47,2.47,0,1,1,2.47,2.47A2.47,2.47,0,0,1,1725.87,461.48Z" transform="translate(-142.97 -113.31)"/>
        </g>
        <g>
          <g>
            <polygon class="cls-6" points="1839.73 824.58 1764.59 824.58 1764.59 774.1 1785.39 754.99 1839.73 754.99 1839.73 824.58"/>
            <polygon class="cls-2" points="1764.19 774.1 1784.71 774.1 1785.39 754.99 1764.19 774.1"/>
          </g>
          <path class="cls-2" d="M1945.4,874.74a2.47,2.47,0,1,1,2.47,2.47A2.47,2.47,0,0,1,1945.4,874.74Z" transform="translate(-142.97 -113.31)"/>
        </g>
        <g>
          <g>
            <polygon class="cls-6" points="1874 724.4 1798.87 724.4 1798.87 673.91 1819.67 654.8 1874 654.8 1874 724.4"/>
            <polygon class="cls-2" points="1798.46 673.91 1818.99 673.91 1819.67 654.8 1798.46 673.91"/>
          </g>
          <path class="cls-2" d="M1979.68,774.55a2.47,2.47,0,1,1,2.47,2.47A2.47,2.47,0,0,1,1979.68,774.55Z" transform="translate(-142.97 -113.31)"/>
        </g>
        <g>
          <g>
            <polygon class="cls-10" points="1774.85 724.4 1699.71 724.4 1699.71 673.91 1720.51 654.8 1774.85 654.8 1774.85 724.4"/>
            <polygon class="cls-11" points="1699.31 673.91 1719.83 673.91 1720.51 654.8 1699.31 673.91"/>
          </g>
          <path class="cls-12" d="M1880.52,774.55A2.47,2.47,0,1,1,1883,777,2.48,2.48,0,0,1,1880.52,774.55Z" transform="translate(-142.97 -113.31)"/>
        </g>
        <g>
          <g>
            <polygon class="cls-10" points="1895.2 393.91 1820.07 393.91 1820.07 343.42 1840.87 324.31 1895.2 324.31 1895.2 393.91"/>
            <polygon class="cls-11" points="1819.67 343.42 1840.19 343.42 1840.87 324.31 1819.67 343.42"/>
          </g>
          <path class="cls-12" d="M2000.88,444.06a2.47,2.47,0,1,1,2.47,2.47A2.48,2.48,0,0,1,2000.88,444.06Z" transform="translate(-142.97 -113.31)"/>
        </g>
      </g>
    </g>
    <g>
      <rect class="cls-13" x="997.34" y="110.86" width="166.78" height="161.8" rx="11.93"/>
      <rect class="cls-14" x="1004.57" y="117.87" width="152.33" height="147.78" rx="10.9"/>
      <g>
        <g>
          <path class="cls-15" d="M1220.24,245.94a3.46,3.46,0,1,1,3.46,3.46A3.46,3.46,0,0,1,1220.24,245.94Z" transform="translate(-142.97 -113.31)"/>
          <path class="cls-15" d="M1248.12,250.83a3.45,3.45,0,1,1,1.34,4.69A3.45,3.45,0,0,1,1248.12,250.83Z" transform="translate(-142.97 -113.31)"/>
          <path class="cls-15" d="M1272,269.8a3.46,3.46,0,1,1-1,4.78A3.47,3.47,0,0,1,1272,269.8Z" transform="translate(-142.97 -113.31)"/>
          <path class="cls-15" d="M1283.83,299.17a3.46,3.46,0,1,1-3.45,3.45A3.46,3.46,0,0,1,1283.83,299.17Z" transform="translate(-142.97 -113.31)"/>
          <path class="cls-15" d="M1277.79,333.25a3.45,3.45,0,1,1-4.88,0A3.46,3.46,0,0,1,1277.79,333.25Z" transform="translate(-142.97 -113.31)"/>
          <path class="cls-15" d="M1256.1,355a3.46,3.46,0,1,1-4.89,0A3.46,3.46,0,0,1,1256.1,355Z" transform="translate(-142.97 -113.31)"/>
          <path class="cls-15" d="M1220.24,366.21a3.46,3.46,0,1,1,3.46,3.46A3.45,3.45,0,0,1,1220.24,366.21Z" transform="translate(-142.97 -113.31)"/>
        </g>
        <g>
          <path class="cls-15" d="M1199.17,250.83a3.45,3.45,0,1,0-1.35,4.69A3.45,3.45,0,0,0,1199.17,250.83Z" transform="translate(-142.97 -113.31)"/>
          <path class="cls-15" d="M1175.28,269.8a3.45,3.45,0,1,0,1,4.78A3.45,3.45,0,0,0,1175.28,269.8Z" transform="translate(-142.97 -113.31)"/>
          <path class="cls-15" d="M1163.45,299.17a3.46,3.46,0,1,0,3.46,3.45A3.45,3.45,0,0,0,1163.45,299.17Z" transform="translate(-142.97 -113.31)"/>
          <path class="cls-15" d="M1169.49,333.25a3.46,3.46,0,1,0,4.89,0A3.46,3.46,0,0,0,1169.49,333.25Z" transform="translate(-142.97 -113.31)"/>
          <path class="cls-15" d="M1191.19,355a3.45,3.45,0,1,0,4.88,0A3.46,3.46,0,0,0,1191.19,355Z" transform="translate(-142.97 -113.31)"/>
        </g>
      </g>
      <g>
        <path class="cls-15" d="M1222.77,302.62a3.46,3.46,0,1,1,3.45,3.46A3.45,3.45,0,0,1,1222.77,302.62Z" transform="translate(-142.97 -113.31)"/>
        <rect class="cls-15" x="1082.78" y="146.15" width="0.94" height="43.16"/>
        <rect class="cls-15" x="1222.68" y="292.17" width="29.09" height="2.83" transform="translate(-60.14 713.46) rotate(-38.14)"/>
      </g>
    </g>
    <g>
      <g>
        <path class="cls-16" d="M2175,1508.34c-.68,9.29-13.78,9.39-28.64,7.66s-10.91,2-31.72,2.33-28-6.59-29-9.56c-.9-2.64,9.12-4.86,19.84-7.47l4.05-1c12.09-3.07,20.1-12.12,30.44-20,9.8-7.48,22.43-34.57,22.43-34.57l28.43-1.28s-12,24.28-16.47,34.74c-2.64,6.16-1.52,13.72-.37,19.53A36.35,36.35,0,0,1,2175,1508.34Z" transform="translate(-142.97 -113.31)"/>
        <path class="cls-17" d="M2146.36,1516c-14.86-1.72-10.91,2-31.72,2.33s-28-6.59-29-9.56c-.9-2.64,9.12-4.86,19.84-7.47l.13.19a58.22,58.22,0,0,0,30.53,5.47c14-1.4,28.22-7.23,37.85-8.27a36.35,36.35,0,0,1,1,9.65C2174.32,1517.63,2161.22,1517.73,2146.36,1516Z" transform="translate(-142.97 -113.31)"/>
      </g>
      <g>
        <path class="cls-16" d="M2371.31,1510.27c-.68,9.28-13.77,9.39-28.63,7.68s-10.91,2-31.72,2.36-28-6.56-29-9.53c-.9-2.63,9.11-4.87,19.83-7.49,1.35-.32,2.7-.66,4.06-1,12.08-3.08,20.08-12.14,30.41-20,9.79-7.49,0-51.85,0-51.85l31.27-3.05s-1.5,37.36-1.48,54.34c0,6.7,3.09,13.14,4.24,18.94A36.43,36.43,0,0,1,2371.31,1510.27Z" transform="translate(-142.97 -113.31)"/>
        <path class="cls-17" d="M2342.68,1518c-14.87-1.7-10.91,2-31.72,2.36s-28-6.56-29-9.53c-.9-2.63,9.11-4.87,19.83-7.49l.13.2a58.32,58.32,0,0,0,30.54,5.44c14-1.42,28.21-7.26,37.84-8.32a36.43,36.43,0,0,1,1,9.66C2370.63,1519.55,2357.54,1519.66,2342.68,1518Z" transform="translate(-142.97 -113.31)"/>
      </g>
      <path class="cls-18" d="M2280.07,743.54c-5.38-22.14,2.42-32.45,9.46-37.94,3.33-8.14,7.14-14,11-16.23,7.11-4,15.62-4.48,21.58-4.13a10.15,10.15,0,0,0-4.55-2.16c3.69-.55,11.93,3.12,11.93,3.12,51.37-19.8,59.45,55.84,58.37,73.42s-.93,38.26,25.8,52.11c51,26.42-16.95,126-16.95,126,1.3-14.2-64.23-89.14-98.41-111.58-8.32-12.25-11.28-33.9-11.5-35.6,1.43,17.16,4.37,26.79,7,32.21C2278.25,808.39,2275.94,774,2280.07,743.54Z" transform="translate(-142.97 -113.31)"/>
      <path class="cls-16" d="M2300.36,827.23c-.17.08,16.51,8.74,29,5.31,11.8-3.22,19.51-18.52,19.35-18.55-5-1-6.44-7.86-6.34-37.37l-2.25.45-38,7.52s.87,11.95.89,23.21C2303.1,817.26,2302.53,826.23,2300.36,827.23Z" transform="translate(-142.97 -113.31)"/>
      <path class="cls-19" d="M2302.18,784.59s.87,11.95.89,23.21c21.26-.6,32.49-20,37.1-30.73Z" transform="translate(-142.97 -113.31)"/>
      <path class="cls-20" d="M2147.65,1460.75a9.31,9.31,0,0,0,8.44,12.14l14.84.7,15.7.48a12.58,12.58,0,0,0,10.16-4.64c12.53-15.37,51.11-66.61,74.51-141.07.66-2.08,1.35-4.2,2.08-6.34,15.46-45,47.49-101.61,64.38-152.81q4-12.23,7.26-23.09c.69-2.33,1.37-4.61,2-6.86,12.44-43.23,16-71.61,19.36-101.94l-121.9,1S2218.83,1237.77,2147.65,1460.75Z" transform="translate(-142.97 -113.31)"/>
      <path class="cls-6" d="M2261.56,968.25c.3,58-8.51,82.9-8.51,82.9s52.19,26.52,114.23,7c.73-.23,51.36-11.79,51.36-11.79-1-2.35-10.27-41.44-11.28-43.6-13.1-28.12-23-40.46-24.6-49.1-2.88-16.15-2.94-32.85-1.51-48.6a390.13,390.13,0,0,1,15.05-76.33c-16.91-3.84-32.73-10.6-50.33-17.2-4,5-16.41,10.31-27.15,10.07-12.35-.27-16.36-5.56-15.72-11.33-13.17,7.32-23.67,14.24-23.67,14.24-11.2,19.44-33.89,38.32-35.54,68.14C2243.49,900,2261.55,966.62,2261.56,968.25Z" transform="translate(-142.97 -113.31)"/>
      <path class="cls-21" d="M2366.4,974.72c5.32,7.54,15.54,53.38,41,59.14-13.1-32.67-23-47-24.6-57-2.88-18.75-2.94-38.15-1.51-56.45-8.5-14.92-14.85-25.14-14.85-25.14-.67-2.41-13.53-42.16-17.65-6.63S2360.44,966.28,2366.4,974.72Z" transform="translate(-142.97 -113.31)"/>
      <path class="cls-16" d="M2295.09,795.25s50.28.83,50.32-30.49,6.55-52.32-25.56-54.17-38.36,10.09-40.91,20.54S2282,794.23,2295.09,795.25Z" transform="translate(-142.97 -113.31)"/>
      <path class="cls-18" d="M2297,709.82s13.77,36.75,34.9,42.18,30.29-.22,30.29-.22-16.21-12.88-19.57-35.36C2342.57,716.42,2307.33,692.33,2297,709.82Z" transform="translate(-142.97 -113.31)"/>
      <path class="cls-18" d="M2300.36,712.8S2290.08,721,2287.57,729s-3.63,24.39-8.42,23.83c0,0-10.37-25,1.28-39.1C2292.79,698.73,2300.36,712.8,2300.36,712.8Z" transform="translate(-142.97 -113.31)"/>
      <polygon class="cls-16" points="2072.99 895.2 2049.24 967.62 2062.79 973.05 2102.06 909.07 2072.99 895.2"/>
      <path class="cls-12" d="M2280,820.25s-28,11.11-36.11,28.44-20.38,133.55-25.27,145.48-8.56,21.39-8.56,21.39,14.12,11.89,28.32,12.77S2280,820.25,2280,820.25Z" transform="translate(-142.97 -113.31)"/>
      <path class="cls-12" d="M2303.1,810.27s-29.09,71.87-29.95,86.42-3.42,237.87-3.42,237.87,1.71,10.27-18,6S2227,1132,2227,1132s18.82-137.76,13.69-185.67S2280,820.25,2280,820.25Z" transform="translate(-142.97 -113.31)"/>
      <path class="cls-22" d="M2170.93,1473.59l17,.52a9.87,9.87,0,0,0,7.91-3.57c11.46-13.88,51.42-65.82,75.42-142.18.66-2.08,1.35-4.2,2.08-6.34,15.46-45,47.49-101.61,64.38-152.81q4-12.23,7.26-23.09c.69-2.33,1.37-4.61,2-6.86l-18-13.63s-53.9,87.28-70.58,169.42C2244,1366.39,2186,1452.24,2170.93,1473.59Z" transform="translate(-142.97 -113.31)"/>
      <path class="cls-20" d="M2327.21,1302.69c-.3,37.79,1.5,122,6.09,163.18a7.45,7.45,0,0,0,7.4,6.61h12.72c5.36,0,9.37,0,12-.08a4.88,4.88,0,0,0,4.72-4c12.65-64.36,21.7-117.84,28.33-164,5.54-38.68,10.47-71.84,14.26-100.38,3.82-28.72,6.47-52.78,7.42-73.1q.22-4.8.32-9.33c.06-3,.07-6,0-8.86l-105.33-10.27C2316.55,1172.46,2327.38,1279.48,2327.21,1302.69Z" transform="translate(-142.97 -113.31)"/>
      <path class="cls-22" d="M2353.42,1472.48c4.82,0,8.55,0,11.19-.06a5.94,5.94,0,0,0,5.73-4.8c12.56-64,21.57-117.21,28.17-163.21,5.54-38.68,10.47-71.84,14.26-100.38,3.82-28.72,6.47-52.78,7.42-73.1l-38.65,22.74s24.67,8.7,15.26,74.58S2366.52,1463.16,2353.42,1472.48Z" transform="translate(-142.97 -113.31)"/>
      <path class="cls-12" d="M2348.45,1130.28s7.42,26.81,33.09,23.39,62.17-18.83,62.17-18.83-11-34.66-24.61-80.2c-16.51-55.13-37-126.2-46.59-171-2.7-12.56-4.55-23.05-5.24-30.56L2346,811.73S2314.22,883,2312.51,901,2348.45,1130.28,2348.45,1130.28Z" transform="translate(-142.97 -113.31)"/>
      <path class="cls-16" d="M2374.08,898.29,2346,811.73c.08,0,35.5,10.54,53.32,19.54,0,0,11.14,14.36,18,47.49,0,0,7.28,79.54-9,108.63,0,0-51.34,10.26-133.49-18V950.59s89.85,4.71,108.24,6.85Z" transform="translate(-142.97 -113.31)"/>
      <path class="cls-23" d="M2349.59,938.61c1.14,29.1,8,85.57,69,115.8l.49.23c-16.51-55.13-37-126.2-46.59-171C2361.3,900.37,2349,922.6,2349.59,938.61Z" transform="translate(-142.97 -113.31)"/>
      <path class="cls-12" d="M2346,811.73s52.11,3.67,64.66,31.62,16.54,120.93.57,148.32c0,0-22,6.26-60.89-1l-1.43-.28S2336.47,960,2347.59,954c0,0,32.8,1.71,29.38-9.13S2346,811.73,2346,811.73Z" transform="translate(-142.97 -113.31)"/>
      <g>
        <path class="cls-18" d="M2215.34,962.23l1.53,4.93,85.5-26.6a3.29,3.29,0,0,0,.58-3,2.43,2.43,0,0,0-2.12-1.91Z" transform="translate(-142.97 -113.31)"/>
        <polygon class="cls-18" points="2066.19 853.58 2072.37 848.91 2073.9 853.85 2066.19 853.58"/>
      </g>
      <path class="cls-16" d="M2195.58,1079s-21.69,12-24.54,21.12-.89,28.25,2.55,28,8.58-20.54,11.43-22,6.85-5.71,6.85-2.57-2.85,8.85-1.42,9.7,6-8,9.13-9.7,4.46-15.82,7.51-19.61S2195.58,1079,2195.58,1079Z" transform="translate(-142.97 -113.31)"/>
      <path class="cls-16" d="M2274.86,950.59s-19.39-11.94-27.53-10.1-28.87,16.85-18.9,20.11,18.05-.16,21.89,2.2,6.67,6.68,24.54,6.62S2274.86,950.59,2274.86,950.59Z" transform="translate(-142.97 -113.31)"/>
    </g>
    <g>
      <path class="cls-24" d="M749.47,822.26c-3.25-6.27,70.94-28.86,72.11,33,0,0,139-3.41,72.62-80.88-23-26.81-20.61-49-19.92-69.63S860,624.15,808.53,630.19c0,0-13.47-5.48-30.29,3.24C740,653.27,654.36,845.08,749.47,822.26Z" transform="translate(-142.97 -113.31)"/>
      <path class="cls-16" d="M976.68,891.45s9-13.78,16.33-14.05,20.8-4,19.72-1.35-9.45,3-10.26,4.6,12.42,4.05,16.2,4.32,12.69,0,12.42,1.89-16.06,9.72-27.2,8.64S979,898.74,979,898.74Z" transform="translate(-142.97 -113.31)"/>
      <path class="cls-25" d="M845.85,895.9a135.2,135.2,0,0,0,13.83,20.93c10.75,13.46,27.33,29,48.14,32.08,9.94,1.47,19.66-.67,28.6-4.64h0c25.27-11.22,44.28-37,44.28-37,4.45-12.15-2.84-20.39-2.84-20.39s-51,11.48-55.89,9-33.22-84.11-40-94.37-29.76-15.6-29.76-15.6Z" transform="translate(-142.97 -113.31)"/>
      <path class="cls-26" d="M859.68,916.83c10.75,13.46,27.33,29,48.14,32.08,9.94,1.47,19.66-.67,28.6-4.64-1,.13-26.24,3.25-36.3-14.75-10.26-18.36-21.36-47.53-36.6-37.81C856.94,895.91,857.23,906.34,859.68,916.83Z" transform="translate(-142.97 -113.31)"/>
      <path class="cls-17" d="M655.44,1446.81s-15.57,14.21-12.53,24.31,17.09,16.83,19,29.17,9.49,19.08,16.33,19.08h32.6s5-8.69-7.13-11.31-16.73-17.12-16-30.58-1.14-31.42-1.14-31.42l-25.83-6Z" transform="translate(-142.97 -113.31)"/>
      <path class="cls-17" d="M787.25,1452.84s-5.6,60.21,1.23,63.58l87.5-.18s0-10.1-14.05-12.35-38.74-10.47-42.92-28.79S787.25,1452.84,787.25,1452.84Z" transform="translate(-142.97 -113.31)"/>
      <path class="cls-16" d="M724.9,1020.91c18-40.38,29-52,26.92-64.51-1.57-9.33,4.76-173.92,4.76-173.92,2.14-.66,6.42-1.25,8.76-1.77a22,22,0,0,0,16-14c3.06-8.59,5.5-21.26,5.44-37.14l2.31.45,38.78,7.68S827,750,827,761.46v.28a22.3,22.3,0,0,0,16.1,21.57c4.89,1.41,9.16,2.62,9.16,2.62s14.24,40.66,17,82.43-25.9,59.91.21,143.37C896.1,1097,715,1043.22,724.9,1020.91Z" transform="translate(-142.97 -113.31)"/>
      <path class="cls-27" d="M827.92,737.75S827,750,827,761.46c-21.7-.62-33.17-20.41-37.87-31.39Z" transform="translate(-142.97 -113.31)"/>
      <path class="cls-16" d="M835.17,748.64s-51.35.85-51.38-31.13-6.69-53.42,26.09-55.31,39.16,10.3,41.77,21S848.52,747.6,835.17,748.64Z" transform="translate(-142.97 -113.31)"/>
      <path class="cls-24" d="M833.27,661.41s-14.06,37.53-35.64,43.08-30.93-.24-30.93-.24,16.55-13.14,20-36.09C786.68,668.16,822.66,643.56,833.27,661.41Z" transform="translate(-142.97 -113.31)"/>
      <path class="cls-24" d="M829.78,664.46s10.43,3.9,14.72,11.5a51.74,51.74,0,0,1,6.94,29.36s10.59-25.5-1.31-39.93C837.5,650.09,829.78,664.46,829.78,664.46Z" transform="translate(-142.97 -113.31)"/>
      <path class="cls-1" d="M824,728.8a12.94,12.94,0,0,0,10.64,4.33,9.43,9.43,0,0,0,7.91-5.23S832.05,725.38,824,728.8Z" transform="translate(-142.97 -113.31)"/>
      <path class="cls-25" d="M719.94,855.29a349.48,349.48,0,0,0,0,40.44c.87,14.63,15.66,34.21,17.76,39.06,5.26,12.15,11.2,14.12,11.2,14.12l45.94,11.26,16.16,4,50.94-15.22s23.2-64.76,13.88-101.21-23.55-61.77-23.55-61.77-41.57,40.7-95.69-3.45Z" transform="translate(-142.97 -113.31)"/>
      <path class="cls-28" d="M733.39,901.7c.87,14.62,2.21,28.24,4.31,33.09,5.26,12.15,11.2,14.12,11.2,14.12l45.94,11.26,20-5.86s-66.61-10.09-59.23-67.4Z" transform="translate(-142.97 -113.31)"/>
      <path class="cls-23" d="M858.7,958.74s25.22,78.52,26.84,105.26-48.22,379.77-50.22,392.08c-1.89,11.61-16.31,19-16.31,19s-6.63,3.91-16.1,1.24c-13.13-3.71-17.28-8.15-17.28-8.15s-19.63-251.78-7.48-341.73a1424.15,1424.15,0,0,0,12.29-167.72Z" transform="translate(-142.97 -113.31)"/>
      <path class="cls-12" d="M751.82,956.4s-38.48,51.63-42.07,86.53-5.63,157.5-13.27,191.52-35.72,99.5-35.72,205.63c0,0,2.92,6.08,11.93,9.32a97.2,97.2,0,0,0,10.49,2.9,16.5,16.5,0,0,0,18.45-8.76c19-38.22,79.46-161.5,82.56-187.09,2.19-18.11,21.28-138,62.93-208.29,10-16.89-6.13-84-6.13-84Z" transform="translate(-142.97 -113.31)"/>
      <path class="cls-6" d="M825.14,729.66s.88,3.76,10.26,3.18c0,0,7.87-.48,7.63-4.63C843,728.21,835.4,725.27,825.14,729.66Z" transform="translate(-142.97 -113.31)"/>
      <path class="cls-17" d="M862.73,946.62s-10.13,8-30.25,8.42c-24,.48-83.57-6.13-83.57-6.13a49.13,49.13,0,0,0-2.54,15.2s72.72,18.34,114.86,2.68C861.23,966.79,866.66,956.56,862.73,946.62Z" transform="translate(-142.97 -113.31)"/>
      <path class="cls-6" d="M827.28,963.34c0-6.85,4.92-12.41,11-12.41s11,5.56,11,12.41-4.92,12.41-11,12.41S827.28,970.18,827.28,963.34Zm3.63,0c0,4.84,3.29,8.77,7.34,8.77s7.33-3.93,7.33-8.77-3.29-8.78-7.33-8.78S830.91,958.5,830.91,963.34Z" transform="translate(-142.97 -113.31)"/>
      <rect class="cls-29" x="702.88" y="874.65" width="98.8" height="135.24" transform="matrix(-0.75, -0.66, 0.66, -0.75, 557.86, 2033.6)"/>
      <path class="cls-16" d="M765.71,961.06s27.3,3.2,27.21,9.68-6.8,19.79-10.17,20.38-22.22-18-22.22-18Z" transform="translate(-142.97 -113.31)"/>
      <path class="cls-25" d="M756.58,782.48S720.13,785,706.16,819s-40.48,91-40.48,100.58,14.81,39.16,94.33,56.17c0,0,8.23-8.66,7.73-15.5,0,0-49.64-42.64-49.51-47.62.26-9.43,8.14-21.87,51.73-65.47C781.8,835.31,756.58,782.48,756.58,782.48Z" transform="translate(-142.97 -113.31)"/>
    </g>
    <g>
      <g>
        <path class="cls-2" d="M1159.27,1517.51h-.35a3.63,3.63,0,0,1-3.63-3.71l5.5-238.41,16.21-1.89-13.82,240.31A3.92,3.92,0,0,1,1159.27,1517.51Z" transform="translate(-142.97 -113.31)"/>
        <path class="cls-3" d="M1064.85,1517.51h-.35a3.63,3.63,0,0,1-3.63-3.71l5.51-238.41,16.2-1.89-13.82,240.31A3.92,3.92,0,0,1,1064.85,1517.51Z" transform="translate(-142.97 -113.31)"/>
        <path class="cls-2" d="M1325.39,1517.51h.35a3.63,3.63,0,0,0,3.62-3.71l-5.5-238.41-16.2-1.89,13.82,240.31A3.92,3.92,0,0,0,1325.39,1517.51Z" transform="translate(-142.97 -113.31)"/>
        <path class="cls-2" d="M1054.11,1260.61V1097.24a52,52,0,0,1,52.05-52h117.7a52,52,0,0,1,52.05,52v169.61Z" transform="translate(-142.97 -113.31)"/>
        <path class="cls-3" d="M911.14,1147.3H1154a0,0,0,0,1,0,0v25.79a0,0,0,0,1,0,0H926.77a15.63,15.63,0,0,1-15.63-15.63V1147.3A0,0,0,0,1,911.14,1147.3Z"/>
        <rect class="cls-2" x="997.78" y="1147.3" width="195.04" height="25.79" rx="11.56"/>
      </g>
      <g>
        <path class="cls-17" d="M1317.56,1219.9c-16.86,29.35-38.07,40.67-38.07,40.67h-88.23S1330.42,1197.51,1317.56,1219.9Z" transform="translate(-142.97 -113.31)"/>
        <g>
          <path class="cls-16" d="M1249.79,1447a8.16,8.16,0,0,0-1.45,8.73l0,0c2.11,5.81,9.06,12.31,17.13,18.79,1,.84,2,1.59,2.75,2.3.21.18.42.36.62.55l.48.43c7.53,6.94,4.69,8.53,18.22,22.62,15.43,16,26,16.34,29.07,14.87,2.56-1.24-2.64-9.75-8.39-19.32-.28-.46-.55-.93-.84-1.4-.77-1.27-1.53-2.56-2.29-3.84-6.74-11.52-5-16.92-3.41-34.06,1.3-13.92,21.66-77.8,21.66-77.8l-29.56-5.09s-8.9,50.86-18.71,58.7c-5.25,4.17-11.12,4.22-16.16,7.32-.36.21-.71.44-1,.66A39.14,39.14,0,0,0,1249.79,1447Z" transform="translate(-142.97 -113.31)"/>
          <path class="cls-17" d="M1249.79,1447a8.16,8.16,0,0,0-1.45,8.73l0,0c2.58,5.81,9.36,12.27,17.16,18.73,1,.85,1.92,1.63,2.72,2.36.21.18.42.36.62.55l.48.43c7.53,6.94,4.69,8.53,18.22,22.62,15.43,16,26,16.34,29.07,14.87,2.56-1.24-2.64-9.75-8.39-19.32a65.72,65.72,0,0,1-27.5-20.27c-9.29-11.85-15.48-27.08-21.81-35.9-.36.21-.71.44-1,.66A39.14,39.14,0,0,0,1249.79,1447Z" transform="translate(-142.97 -113.31)"/>
          <path class="cls-16" d="M1488.17,1428.5c1.83,9.12,14.83,7.6,29.37,4s11.07.67,31.76-1.62,27-10,27.58-13.07c.56-2.73-9.66-3.7-20.62-5-1.38-.15-2.76-.32-4.15-.5-12.37-1.55-21.44-9.53-32.68-16.09-10.65-6.22-26.54-31.53-26.54-31.53l-28.36,2.25s14.88,22.61,20.64,32.44c3.38,5.78,3.2,13.42,2.78,19.33A36.26,36.26,0,0,0,1488.17,1428.5Z" transform="translate(-142.97 -113.31)"/>
          <path class="cls-17" d="M1517.54,1432.55c14.53-3.55,11.07.67,31.76-1.62s27-10,27.58-13.07c.56-2.73-9.66-3.7-20.62-5l-.1.21a58.3,58.3,0,0,1-29.62,9.21c-14,.34-28.9-3.68-38.59-3.52a36.26,36.26,0,0,0,.22,9.7C1490,1437.62,1503,1436.1,1517.54,1432.55Z" transform="translate(-142.97 -113.31)"/>
          <path class="cls-17" d="M1379.47,1247.13,1353,1318.48l-34.61,93.16A56,56,0,0,1,1300,1410c-8.29-2.39-17.79-8.65-17.79-8.65s9.61-100,27.54-157.46c4.6-14.74,9.75-26.66,15.43-33.37C1352.93,1177.63,1379.47,1247.13,1379.47,1247.13Z" transform="translate(-142.97 -113.31)"/>
          <path class="cls-30" d="M1352.51,1133.82c-17.37-5.61-66.92,1.59-116.69,11.33L1225.4,1128l-107.5-8.39s-35.47,78.66-16.05,128.79c2.85,7.37,8.52,12.09,18.19,12.25h1.57l84.76,0c53.46,0,113.15-36.75,120.87-38.29,12.63-2.53,17.69,22.74,30.33,49.28s118.78,117.52,118.78,117.52,16.32.17,23.06-2.36c7.25-2.72,9.9-6.25,9.9-6.25S1391.69,1146.45,1352.51,1133.82Z" transform="translate(-142.97 -113.31)"/>
          <path class="cls-17" d="M1221.17,814.93c-13.77-7.23-34.72-8.21-38.13-8.66-40.73-5.48-65.25,53.72-66.69,71.65-2.66,33.06-20.15,38.1-44.77,58.81-49.36,41.51-34.88,89.75-7.89,107.68,16.19,10.75,44.74,0,44.74,0,.4.28,78.06-43.42,116.34-64.5C1282.16,971.76,1256.27,833.36,1221.17,814.93Z" transform="translate(-142.97 -113.31)"/>
          <path class="cls-16" d="M1192.68,962c.17.11-18.83,6.6-31.54,1-12-5.28-21-25-20.83-25,5.44-.25,11.41-5,16-36.2l2.31.83,38.94,14s-2.83,12.49-4.65,24.39C1191.38,951,1190.56,960.56,1192.68,962Z" transform="translate(-142.97 -113.31)"/>
          <path class="cls-19" d="M1197.57,916.62s-2.83,12.49-4.65,24.39c-22.36-4-31.14-26.31-34.29-38.4Z" transform="translate(-142.97 -113.31)"/>
          <path class="cls-16" d="M1203.36,929s-53.26-7.15-48.3-40.25,1.43-56.33,35.65-53.16,38.92,16.79,40,28.24S1217.35,930,1203.36,929Z" transform="translate(-142.97 -113.31)"/>
          <path class="cls-17" d="M1228.72,845.7s-34.1,29.39-57.3,31.76-32-5.08-32-5.08a90.59,90.59,0,0,0,21.9-29.67,16.29,16.29,0,0,1,13.44-9.61C1191.35,831.67,1222.75,831,1228.72,845.7Z" transform="translate(-142.97 -113.31)"/>
          <path class="cls-17" d="M1207.4,843.07s11.41,11,15,19.21c3.47,7.9,4.51,26.78,1.75,34.28,0,0,17.77-34.56,7.71-51.35C1221.19,827.4,1207.4,843.07,1207.4,843.07Z" transform="translate(-142.97 -113.31)"/>
          <path class="cls-6" d="M1237.54,1040.44c-1.61,107.83-.44,85.3-12.24,95.53-2.84,2.46-10.83,3.93-21.34,4.63-33.07,2.19-91.19-3.25-93.4-9.36-7.63-21.15-2.24-27.72-8.61-60.09-.66-3.44-1.48-7.16-2.44-11.22-5.31-22.23-10.47-29.8,8.35-65.51,17.07-32.36,34.8-58.62,36.39-57.67,45,26.73,48.67,4.26,48.67,4.26S1238.33,987.85,1237.54,1040.44Z" transform="translate(-142.97 -113.31)"/>
          <path class="cls-30" d="M1353,1318.48l-34.61,93.16A56,56,0,0,1,1300,1410c-8.29-2.39-17.79-8.65-17.79-8.65s9.61-100,27.54-157.46Z" transform="translate(-142.97 -113.31)"/>
          <path class="cls-6" d="M1192.92,941s46.34,7.85,51.78,27.81,37.46,137.23,37.46,137.23-23.56,4.23-34.44-6.65-37.86-101-37.86-101Z" transform="translate(-142.97 -113.31)"/>
          <path class="cls-31" d="M1204,1140.6c-33.07,2.19-91.19-3.25-93.4-9.36-7.63-21.15-2.24-27.72-8.61-60.09l16-44.9s-2.64,50,12.11,63.16,60.38,25.39,67.55,36.38C1201,1131.06,1203.29,1136.35,1204,1140.6Z" transform="translate(-142.97 -113.31)"/>
          <path class="cls-16" d="M1166.07,1119.57s32.62-7.27,37.89-4.37,18.12,13.43,19.73,17.1-11.72-2.78-16-3.94c-2.81-.76-10.2,1.81-13.86,3-15.39,5.13-24.83,2.49-24.83,2.49Z" transform="translate(-142.97 -113.31)"/>
          <path class="cls-6" d="M1144.23,936.73s-43.8,2.7-59,23.84c-21.34,29.77-63.68,156.64-39.41,173.56,27.32,19.06,124.37,5,124.37,5s3.23-15.1-1.27-22.4-77.51-19.1-80.88-22.47,42.13-65.71,42.13-75.82S1144.23,936.73,1144.23,936.73Z" transform="translate(-142.97 -113.31)"/>
          <path class="cls-16" d="M1205.53,1124.28s6.84,8.81,9.08,9.87a6.65,6.65,0,0,0,3.69.78l-4.61-8.28Z" transform="translate(-142.97 -113.31)"/>
          <path class="cls-16" d="M1204,1115.2l19.87,9.65s-.85,1.38-3.3,1.27-8.61-2.37-8.61-2.37Z" transform="translate(-142.97 -113.31)"/>
        </g>
        <g>
          <g>
            <polygon class="cls-12" points="1071.64 1034.34 1228.83 1034.34 1276.12 916.75 1119.17 916.75 1071.64 1034.34"/>
            <polygon class="cls-23" points="1230.67 1029.76 1023.11 1029.76 1023.11 1034.34 1228.83 1034.34 1230.67 1029.76"/>
          </g>
          <path class="cls-6" d="M1332.12,1088.86c1.18-4.14-1.21-7.49-5.34-7.49s-8.44,3.35-9.63,7.49,1.2,7.48,5.34,7.48A10.73,10.73,0,0,0,1332.12,1088.86Z" transform="translate(-142.97 -113.31)"/>
        </g>
      </g>
    </g>
    <g>
      <path class="cls-9" d="M2035.59,1521.86h.46a4.94,4.94,0,0,0,4.79-5.2l-7.27-333.8-21.43-2.64,18.28,336.47A5.31,5.31,0,0,0,2035.59,1521.86Z" transform="translate(-142.97 -113.31)"/>
      <path class="cls-9" d="M1166.85,1521.86h-.45a5,5,0,0,1-4.8-5.2l7.27-333.8,21.43-2.64L1172,1516.69A5.33,5.33,0,0,1,1166.85,1521.86Z" transform="translate(-142.97 -113.31)"/>
      <rect class="cls-9" x="988.08" y="1035.42" width="943.94" height="40.28" rx="13.6"/>
    </g>
    <path class="cls-5" d="M944.85,576.63c-3.46-85.71,68.38-123.79,141.83-123.79s153.39,19,160.32,133c4.45,73.32-34.63,118.44-147.18,118.44-38,0-67.45-6-90-16.67l-56.26,50,27.65-69.1C956.67,645.74,946.35,613.62,944.85,576.63Z" transform="translate(-142.97 -113.31)"/>
    <g>
      <path class="cls-17" d="M2614.35,1521.5s2.07-16.1,6.86-25.68,35.25-3.48,35.25-3.48,6.09,5.22,7.39,29.59Z" transform="translate(-142.97 -113.31)"/>
      <path class="cls-17" d="M2510.57,1521.28c7.16-4.37,3.09-37,3.09-37s-33.35-26.68-37.94-6.25-31.68,29.59-47.11,32.1c-10.65,1.72-13.94,7.62-15,11.11Z" transform="translate(-142.97 -113.31)"/>
      <path class="cls-32" d="M2579.65,1284.24a155.49,155.49,0,0,0-2.44,18c-3.1,60.48-50.91,198.75-59.46,202-13.23,5-34.07-5.62-45-9.1-4.51-1.44-7.56-6-6.56-10.62,23.68-108.83,32.38-265.55,35.54-358.34,1.6-46.73,9.63-79,9.63-79S2628,1016,2628.67,1055.4C2629.29,1090.22,2590.05,1226.79,2579.65,1284.24Z" transform="translate(-142.97 -113.31)"/>
      <path class="cls-17" d="M2579.65,1284.24l-77.89-158.07c1.6-46.73,9.63-79,9.63-79S2628,1016,2628.67,1055.4C2629.29,1090.22,2590.05,1226.79,2579.65,1284.24Z" transform="translate(-142.97 -113.31)"/>
      <path class="cls-32" d="M2553.71,1055.53l61.64,446.74s27.07,6.53,48.12,1.3c0,0,18.05-237.59,16.54-295s12.95-153.7-3.3-164.32S2553.71,1055.53,2553.71,1055.53Z" transform="translate(-142.97 -113.31)"/>
      <path class="cls-25" d="M2688.73,1048.09a8.57,8.57,0,0,1-6.17,8.84c-8.6,2.49-18.52,4.23-37.64,8.19a364.69,364.69,0,0,1-71.8,7.21c-47.21.3-65.09-16-65.09-16-2,0,1.08-9.84,3.88-56.83,1-15.91,1.86-36.09,2.52-61.58.6-23,1-50.2,1-82.54.05-38.89,60.25-80.74,61.36-80.74l0,0c0,5.6,8.82,15.94,22.42,16.83,16.13,1.05,35.93-7,35.93-16.27,0-.1,29.17,46.66,39.53,96.48C2680,896.81,2677.85,896.14,2688.73,1048.09Z" transform="translate(-142.97 -113.31)"/>
      <path class="cls-25" d="M2576.83,774.67s-56-.47-69.45,18.43-43,120.54-27.6,154.37,44.26-14,60.27-34.71S2576.83,774.67,2576.83,774.67Z" transform="translate(-142.97 -113.31)"/>
      <path class="cls-16" d="M2576.26,766.13l0,5.79s-1.57,18.1,20.71,20.74,38.83-3.38,38.23-17.35c-2-10.81-3.87-21.92-4-30.86a63.38,63.38,0,0,1,.79-10.84l-43.18-.86-12.72,2.07Z" transform="translate(-142.97 -113.31)"/>
      <path class="cls-33" d="M2576.1,734.82l.16,31.31a36.6,36.6,0,0,0,15.57,3.43c19.85,0,32.68-14.55,39.38-25.11a63.38,63.38,0,0,1,.79-10.84l-43.18-.86Z" transform="translate(-142.97 -113.31)"/>
      <path class="cls-16" d="M2635.31,726.66c-5,27-39.8,26.08-54.84,24.39-4.23-.48-6.89-1-6.89-1-4.78-1.27-7.44-8.79-8.68-18.63-2.45-19.48.65-48.08,3.94-55.4,4.95-11,14.28-22.91,49.33-14.32S2641.74,692.11,2635.31,726.66Z" transform="translate(-142.97 -113.31)"/>
      <path class="cls-26" d="M2519.59,850.43s-21.66,47.82-21,62.15a74.71,74.71,0,0,1,21,2.7C2536.51,920.33,2519.59,850.43,2519.59,850.43Z" transform="translate(-142.97 -113.31)"/>
      <path class="cls-17" d="M2558.09,650.34a116,116,0,0,0,33.61-9.1c14.77-6.42,33.4.65,39.44,3.84a8.94,8.94,0,0,0-1.47-3.64s2.71,1.92,3.12,4.61c.27.21.4.35.33.4s3.08-.56,5.05.33c0,0-1.38-.2-1.88.69a.83.83,0,0,1-.22.24c23,11.13,25.16,47.53,17.75,56-8.92,10.13-22.38,33.06-22.38,33.06s-1.13-5.5.49-14.42-6.08-8.92-15.81-13-1.62-15.4-10.13-22.29-39.72-2.84-39.32-8.11C2555.09,674.72,2558.09,651.52,2558.09,650.34Z" transform="translate(-142.97 -113.31)"/>
      <path class="cls-26" d="M2642.37,940c-9.14,36.7-108,55.67-130.46,59.52,1-15.91,1.86-36.09,2.52-61.58Z" transform="translate(-142.97 -113.31)"/>
      <path class="cls-16" d="M2620.67,951.93c.94,0,22-3.13,25.74-5s21-26.37,9.72-32.65-41.58,18.84-41.58,18.84Z" transform="translate(-142.97 -113.31)"/>
      <path class="cls-25" d="M2492.74,959.21s81.35,4.41,135.94-7.28c0,0,1.38-15.77-15.78-22.77,0,0-85.08-18-105.52-13S2492.74,959.21,2492.74,959.21Z" transform="translate(-142.97 -113.31)"/>
      <path class="cls-25" d="M2679.56,895.37c-16.89,20.36-38.95,37-63.28,40.87h0a45.33,45.33,0,0,1-6-27.17,54.27,54.27,0,0,1,8.86-24.93,55.62,55.62,0,0,0,4.78-9.65c13.29-33.9,11.31-99.23,11.31-99.23s56.42,5.91,74,31C2720,821.65,2706.24,863.19,2679.56,895.37Z" transform="translate(-142.97 -113.31)"/>
      <path class="cls-33" d="M2580.47,751.05c-4.23-.48-6.89-1-6.89-1-4.78-1.27-7.44-8.79-8.68-18.63,8.95,2.2,13,9.12,14.76,12.06C2580.43,744.79,2580.59,747.76,2580.47,751.05Z" transform="translate(-142.97 -113.31)"/>
      <path class="cls-16" d="M2557.74,766.3s-19.49-32.15-4.33-33.55,21.24,8.85,23.42,12.62-.57,20.76-.57,20.76Z" transform="translate(-142.97 -113.31)"/>
      <path class="cls-25" d="M2632,908a41.59,41.59,0,0,1-3.32,11.17,53.61,53.61,0,0,1-12.4,17.09h0c-50.61-22.84-60.85-101.28-62.56-144.37-.69-17.33,0-28.94,0-28.94,22.83-7.56,29.25,5.57,29.25,5.57s26.95,64.1,40.93,106C2629.24,890.51,2632.69,903.29,2632,908Z" transform="translate(-142.97 -113.31)"/>
      <path class="cls-26" d="M2679.56,895.37c-16.89,20.36-38.95,37-63.28,40.87h0c-50.61-22.84-60.85-101.28-62.56-144.37,0,0,23.95,86.85,56.54,117.2,5.89,5.5,12.07,9.14,18.43,10.09,0,0,41.1-11.62,49.72-22.55C2679,895.81,2679.39,895.42,2679.56,895.37Z" transform="translate(-142.97 -113.31)"/>
    </g>
    <g>
      <g>
        <polygon class="cls-30" points="1614.88 1035.41 1457.69 1035.41 1410.4 917.83 1567.35 917.83 1614.88 1035.41"/>
        <polygon class="cls-30" points="1455.85 1030.83 1663.41 1030.83 1663.41 1035.41 1457.69 1035.41 1455.85 1030.83"/>
      </g>
      <path class="cls-6" d="M1640.33,1089.93c-1.18-4.13,1.21-7.48,5.34-7.48a10.71,10.71,0,0,1,9.63,7.48c1.19,4.14-1.2,7.49-5.34,7.49S1641.52,1094.07,1640.33,1089.93Z" transform="translate(-142.97 -113.31)"/>
    </g>
    <path class="cls-34" d="M3033,1518.88v1a3.13,3.13,0,0,1-3.28,2.92H146.24a3.13,3.13,0,0,1-3.27-2.92v-1a3.12,3.12,0,0,1,3.27-2.91H3029.72A3.12,3.12,0,0,1,3033,1518.88Z" transform="translate(-142.97 -113.31)"/>
  </g>
</svg>
