<svg id="Layer_1" data-name="Layer 1" xmlns="http://www.w3.org/2000/svg" width="3000" height="1614" viewBox="0 0 3000 1614">
  <defs>
    <style>
      .cls-1 {
        fill: #fcecdb;
      }

      .cls-2 {
        fill: #a8d29f;
      }

      .cls-3 {
        fill: #4a75cb;
      }

      .cls-4 {
        fill: #afcdfb;
      }

      .cls-5, .cls-6 {
        fill: #699dee;
      }

      .cls-6 {
        opacity: 0.2;
      }

      .cls-7 {
        fill: #fff;
      }

      .cls-8 {
        fill: #e9f3fe;
      }

      .cls-9 {
        fill: #aed3ff;
      }

      .cls-10 {
        fill: #599dad;
      }

      .cls-11 {
        fill: #86d1cd;
      }

      .cls-12 {
        fill: #d2e4ff;
      }

      .cls-13 {
        fill: #2b478b;
      }

      .cls-14 {
        fill: #e49963;
      }

      .cls-15 {
        fill: #163560;
      }

      .cls-16 {
        fill: #e58638;
      }

      .cls-17 {
        fill: #d68d5d;
      }

      .cls-18 {
        fill: #e7f1fd;
      }

      .cls-19 {
        fill: #233862;
      }

      .cls-20 {
        fill: #ffb27d;
      }

      .cls-21 {
        fill: #ee9849;
      }

      .cls-22 {
        fill: #ed985f;
      }

      .cls-23 {
        fill: #2c3a64;
      }

      .cls-24 {
        fill: #283250;
      }
    </style>
  </defs>
  <g>
    <path class="cls-1" d="M2489.71,1522.7S2809.1,1293.33,2663.56,994s-409,157.54-592.62-265S1846.18-16.89,1357.33,116.53,1068.88,600.08,813,635.24s-458,162-340.75,436.16-173.84,454.24-173.84,454.24Z"/>
    <path class="cls-2" d="M445.7,1524.64s10.79-28.23,148.45-35.82,265.64-68.49,492.65-59.66,415.38,64.3,673.78,47.31,420.21,4.66,478.17,21.74,297.83-4,315.55,27.29Z"/>
    <g>
      <path class="cls-3" d="M1623.85,732.18l63,748.48s6.59,45.38-27.15,45.46c-55.49.13-276.19,0-276.19,0s41.76-9.45,41.25-30.7c-.59-25.05-73.57-770.32-73.57-770.32Z"/>
      <path class="cls-4" d="M1365.55,1512.54c10.91,0,221.71.69,275.75,0,23.55-.3,27.68-20.94,27.87-34.31a67,67,0,0,0-.71-11.14l-1.64-19.45-4.17-49.59-3.69-43.8-4.73-56.29-4-47.52L1605.51,718.6l-272.71-7.08s30.73,311.89,52.47,538.92c2.43,25.3,4.74,49.55,6.87,72.19q1,10.84,2,21.18c2,21.48,3.86,41.21,5.46,58.62.85,9.18,1.63,17.71,2.33,25.53,2.78,30.61,4.4,50.17,4.42,53.88a31.29,31.29,0,0,1-.53,6.06C1401.36,1511.75,1369.65,1512.54,1365.55,1512.54Z"/>
      <polygon class="cls-4" points="976.85 324.89 2286.15 324.89 2132.82 940.79 2111.82 1025.14 2040.4 1312.02 713.63 1312.02 976.85 324.89"/>
      <polygon class="cls-3" points="2286.15 324.88 2307.4 331.97 2068.66 1333.44 2040.4 1312.02 2286.15 324.88"/>
      <polygon class="cls-3" points="2068.66 1333.44 750.04 1333.44 713.63 1312.02 2040.4 1312.02 2068.66 1333.44"/>
      <rect class="cls-3" x="1320.1" y="1512.83" width="285.5" height="13.57"/>
      <polygon class="cls-3" points="1392.67 1333.44 1394.15 1343.81 1666.24 1398.78 1664.27 1354.12 1658.77 1328.37 1392.67 1333.44"/>
      <path class="cls-5" d="M1364.46,1512.85c10.91,0,222.8.38,276.84-.31,23.55-.3,27.68-20.94,27.87-34.31L1401.94,1428c2.78,30.61,4.4,50.17,4.42,53.88a31.29,31.29,0,0,1-.53,6.06C1401.36,1511.75,1368.55,1512.85,1364.46,1512.85Z"/>
      <polygon class="cls-6" points="1474.82 1118.09 2040.4 1312.02 2088.7 1117.98 1474.82 1118.09"/>
      <polygon class="cls-5" points="976.85 324.88 2286.15 324.88 2088.82 1117.98 765.3 1118.23 976.85 324.88"/>
    </g>
    <path class="cls-3" d="M1341.84,1218.52c3.78-19.46,22.62-35.23,42.08-35.23s32.16,15.77,28.38,35.23-22.62,35.23-42.08,35.23S1338.06,1238,1341.84,1218.52Z"/>
    <polygon class="cls-7" points="826.17 1083.85 2052.07 1083.85 2190.9 530.79 2201.54 488.38 2210.62 452.21 2231.91 367.38 1023.68 367.38 1000.3 452.21 990.33 488.38 978.64 530.79 826.17 1083.85"/>
    <polygon class="cls-4" points="1023.68 367.38 2231.91 367.38 2210.62 452.21 1000.3 452.21 1023.68 367.38"/>
    <g>
      <path class="cls-8" d="M2174,395.11c5.86,0,9.42,4.75,8,10.61s-7.39,10.6-13.25,10.6-9.42-4.75-8-10.6S2168.11,395.11,2174,395.11Z"/>
      <path class="cls-8" d="M2138.74,395.11c5.85,0,9.42,4.75,8,10.61s-7.39,10.6-13.25,10.6-9.42-4.75-8-10.6S2132.88,395.11,2138.74,395.11Z"/>
      <path class="cls-8" d="M2087.55,405.72c1.46-5.86,7.39-10.61,13.25-10.61s9.42,4.75,8,10.61-7.39,10.6-13.25,10.6S2086.09,411.57,2087.55,405.72Z"/>
    </g>
    <g>
      <g>
        <g>
          <path class="cls-9" d="M1690.78,947.4a54.78,54.78,0,1,0,54.78,54.78A54.78,54.78,0,0,0,1690.78,947.4Z"/>
          <g>
            <path class="cls-10" d="M1876.83,971.58h-90.75a6,6,0,0,0-6,6h0a6,6,0,0,0,6,6h90.75a6,6,0,0,0,6-6h0A6,6,0,0,0,1876.83,971.58Z"/>
            <path class="cls-10" d="M1876.83,996.2h-90.75a6,6,0,0,0-6,6h0a6,6,0,0,0,6,6h90.75a6,6,0,0,0,6-6h0A6,6,0,0,0,1876.83,996.2Z"/>
            <path class="cls-10" d="M1876.83,1020.82h-90.75a6,6,0,0,0,0,12h90.75a6,6,0,1,0,0-12Z"/>
          </g>
          <path class="cls-11" d="M1640.62,1001.38h50.16V951.23A50.16,50.16,0,0,0,1640.62,1001.38Z"/>
          <path class="cls-9" d="M1740.93,1003H1640.62a50.17,50.17,0,0,0,50.16,50.16h0A50.16,50.16,0,0,0,1740.93,1003Z"/>
          <g>
            <path class="cls-10" d="M1682.12,975.6H1654.9a2.82,2.82,0,1,0,0,5.63h27.22a2.82,2.82,0,0,0,0-5.63Z"/>
            <path class="cls-10" d="M1661.1,985.85h-6.2a2.82,2.82,0,1,0,0,5.63h6.2a2.82,2.82,0,0,0,0-5.63Z"/>
          </g>
          <g>
            <path class="cls-10" d="M1722.53,1015.26h-27.22a2.82,2.82,0,1,0,0,5.63h27.22a2.82,2.82,0,0,0,0-5.63Z"/>
            <path class="cls-10" d="M1701.51,1025.51h-6.2a2.82,2.82,0,0,0-2.82,2.81h0a2.83,2.83,0,0,0,2.82,2.82h6.2a2.82,2.82,0,0,0,2.81-2.82h0A2.81,2.81,0,0,0,1701.51,1025.51Z"/>
          </g>
        </g>
        <g>
          <path class="cls-11" d="M1324.75,1002.18a54.78,54.78,0,1,1,54.78,54.78A54.78,54.78,0,0,1,1324.75,1002.18Z"/>
          <g>
            <path class="cls-10" d="M1474.83,983.54h90.75a6,6,0,1,0,0-12h-90.75a6,6,0,0,0,0,12Z"/>
            <path class="cls-10" d="M1565.58,996.2h-90.75a6,6,0,0,0,0,12h90.75a6,6,0,1,0,0-12Z"/>
            <path class="cls-10" d="M1565.58,1020.82h-90.75a6,6,0,0,0-6,6h0a6,6,0,0,0,6,6h90.75a6,6,0,0,0,6-6h0A6,6,0,0,0,1565.58,1020.82Z"/>
          </g>
          <path class="cls-9" d="M1379.53,1003.07l-50.15-.64c0,.21,0,.43,0,.64a50.16,50.16,0,0,0,77.07,42.33Z"/>
          <g>
            <path class="cls-10" d="M1381.38,1018.86h-27.23a2.83,2.83,0,0,0-2.81,2.82h0a2.83,2.83,0,0,0,2.81,2.82h27.23a2.83,2.83,0,0,0,2.81-2.82h0A2.83,2.83,0,0,0,1381.38,1018.86Z"/>
            <path class="cls-10" d="M1360.35,1029.11h-6.2a2.82,2.82,0,0,0,0,5.63h6.2a2.82,2.82,0,1,0,0-5.63Z"/>
          </g>
        </g>
        <g>
          <path class="cls-9" d="M1010.8,1002.18a54.78,54.78,0,1,1,54.78,54.78A54.78,54.78,0,0,1,1010.8,1002.18Z"/>
          <path class="cls-11" d="M1065.58,952a50.16,50.16,0,0,0-24.07,94.16c8-14.88,24.07-44,24.07-44l23.74,44.18A50.15,50.15,0,0,0,1065.58,952Z"/>
          <g>
            <path class="cls-10" d="M1251.63,971.58h-90.75a6,6,0,0,0-6,6h0a6,6,0,0,0,6,6h90.75a6,6,0,0,0,6-6h0A6,6,0,0,0,1251.63,971.58Z"/>
            <path class="cls-10" d="M1251.63,996.2h-90.75a6,6,0,1,0,0,12h90.75a6,6,0,0,0,0-12Z"/>
            <path class="cls-10" d="M1251.63,1020.82h-90.75a6,6,0,1,0,0,12h90.75a6,6,0,0,0,0-12Z"/>
          </g>
          <g>
            <path class="cls-10" d="M1067.42,978.23H1040.2a2.82,2.82,0,0,0,0,5.63h27.22a2.82,2.82,0,1,0,0-5.63Z"/>
            <path class="cls-10" d="M1046.4,988.47h-6.2a2.83,2.83,0,0,0-2.81,2.82h0a2.83,2.83,0,0,0,2.81,2.82h6.2a2.83,2.83,0,0,0,2.82-2.82h0A2.83,2.83,0,0,0,1046.4,988.47Z"/>
          </g>
        </g>
      </g>
      <g>
        <path class="cls-12" d="M1428,903.16h457.18A20.37,20.37,0,0,0,1905,887.64l72.76-296.58a20.38,20.38,0,0,0-19.8-25.23H1502.15a20.38,20.38,0,0,0-19.77,15.43l-74.17,296.58A20.38,20.38,0,0,0,1428,903.16Z"/>
        <path class="cls-11" d="M1910.3,782s-71.62-54.91-135.47-6.9-150,4.25-188,0c-66-7.4-124.75,14.84-146.64,39.31l-18.36,73.45h462.45Z"/>
        <polygon class="cls-7" points="1852.5 734.22 1856.07 734.22 1884.21 619.9 1880.65 619.9 1852.5 734.22"/>
        <polygon class="cls-7" points="1700.38 783.35 1703.95 783.35 1732.27 668.93 1728.71 668.93 1700.38 783.35"/>
        <polygon class="cls-7" points="1562.35 757.44 1565.92 757.44 1594.38 643.07 1590.82 643.07 1562.35 757.44"/>
        <path class="cls-7" d="M1836.55,637.43h27.31a4,4,0,0,0,3.7-3h0a2.25,2.25,0,0,0-2.23-3H1838a4.06,4.06,0,0,0-3.7,3h0A2.26,2.26,0,0,0,1836.55,637.43Z"/>
        <path class="cls-7" d="M1833.91,648.12h27.32a4,4,0,0,0,3.7-3h0a2.26,2.26,0,0,0-2.24-3h-27.31a4.06,4.06,0,0,0-3.7,3h0A2.25,2.25,0,0,0,1833.91,648.12Z"/>
        <path class="cls-7" d="M1684.36,695.69h27.33a4.06,4.06,0,0,0,3.7-3h0a2.25,2.25,0,0,0-2.23-3h-27.33a4.06,4.06,0,0,0-3.7,3h0A2.26,2.26,0,0,0,1684.36,695.69Z"/>
        <path class="cls-7" d="M1681.76,706.17h27.33a4.07,4.07,0,0,0,3.71-3h0a2.26,2.26,0,0,0-2.24-3h-27.33a4.06,4.06,0,0,0-3.7,3h0A2.25,2.25,0,0,0,1681.76,706.17Z"/>
        <path class="cls-7" d="M1548.37,652.58h27.32a4.06,4.06,0,0,0,3.7-3h0a2.24,2.24,0,0,0-2.22-3h-27.32a4.07,4.07,0,0,0-3.71,3h0A2.25,2.25,0,0,0,1548.37,652.58Z"/>
        <path class="cls-7" d="M1545.76,663.06h27.32a4.08,4.08,0,0,0,3.71-3h0a2.26,2.26,0,0,0-2.23-3h-27.32a4.08,4.08,0,0,0-3.71,3h0A2.25,2.25,0,0,0,1545.76,663.06Z"/>
      </g>
      <polygon class="cls-11" points="1037.39 903.16 1109.23 903.16 1183.68 607.62 1113.8 607.62 1037.39 903.16"/>
      <polygon class="cls-11" points="1128.94 903.16 1200.77 903.16 1254.3 688.56 1182.46 688.56 1128.94 903.16"/>
      <polygon class="cls-11" points="1220.49 903.16 1292.32 903.16 1381.16 551.24 1309.33 551.24 1220.49 903.16"/>
      <g>
        <path class="cls-13" d="M1342.51,614.75a16.9,16.9,0,1,1,16.89-16.9A16.91,16.91,0,0,1,1342.51,614.75Zm0-27.25a10.36,10.36,0,1,0,10.35,10.35A10.36,10.36,0,0,0,1342.51,587.5Z"/>
        <path class="cls-13" d="M1349.7,587.5a3.27,3.27,0,0,1-2.31-5.58l52.68-52.68H1978.3a3.27,3.27,0,0,1,0,6.54H1402.78L1352,586.54A3.23,3.23,0,0,1,1349.7,587.5Z"/>
      </g>
      <path class="cls-11" d="M1978.3,516.32H1431.69a18.14,18.14,0,0,1-18.15-18.14h0A18.15,18.15,0,0,1,1431.69,480H1978.3a18.16,18.16,0,0,1,18.15,18.15h0A18.15,18.15,0,0,1,1978.3,516.32Z"/>
    </g>
    <g>
      <g>
        <polygon class="cls-14" points="557.72 1430.16 570.48 1483.9 589.6 1483.79 590.3 1430.16 557.72 1430.16"/>
        <polygon class="cls-14" points="718.5 1432.45 754.81 1483.9 768.96 1465.73 747.11 1425.37 718.5 1432.45"/>
        <path class="cls-15" d="M624.1,723.91c-6.59-3.75-14.5-4.16-20-3.83a9.37,9.37,0,0,1,4.22-2c-3.43-.51-11.08,2.9-11.08,2.9C549.5,702.58,542,772.83,543,789.15s-16,21.65-40.85,34.5C454.79,848.19,450.63,881,450.63,881q.56.33,1.17.75c2.35-4,7.18-11.46,11.26-12.59-.15.37-4.82,10.3-6.56,16,14,10.63,40.11,34.17,58.33,50.87-.09-3.26,0-7.9,1.24-10.34l2.25,13.55c9.74,9,16.47,15.26,16.47,15.26-1.21-13.18,59.64-82.78,91.39-103.62,7.73-11.38,10.47-31.48,10.68-33.06-1.33,15.94-4.06,24.87-6.5,29.91C657.25,823,641.59,733.85,624.1,723.91Z"/>
        <path class="cls-14" d="M624.3,852c.16.07-15.33,8.11-27,4.92-11-3-18.12-17.2-18-17.23,4.65-.92,6-7.3,5.89-34.7l2.09.42,35.28,7s-.81,11.1-.83,21.56C621.76,842.68,622.29,851,624.3,852Z"/>
        <path class="cls-16" d="M584.41,735.42s17.4-18.53,39.25-.95C623.66,734.47,610.94,732.27,584.41,735.42Z"/>
        <path class="cls-17" d="M622.61,812.34s-.81,11.1-.83,21.56c-19.74-.56-30.17-18.56-34.45-28.54Z"/>
        <path class="cls-15" d="M583.69,801.51s-10.34-16.34-12.83-30.31c-1.77-10,3.31-47,40.48-41.64a50.43,50.43,0,0,1,20.94,7.92C640.35,742.93,652,754.69,639,787l-3.38,10.91Z"/>
        <path class="cls-13" d="M763.2,1451.63l-18.7.57-20.24.62s-46.75-52-73-135.48c-.61-1.94-1.25-3.91-1.94-5.89-14.35-41.85-44.1-94.37-59.78-141.92-2.49-7.57-4.73-14.7-6.74-21.44-.65-2.16-1.28-4.29-1.87-6.38-11.56-40.14-14.9-66.5-18-94.66l113.21.91S694.46,1240.25,763.2,1451.63Z"/>
        <path class="cls-18" d="M660.34,982.9c-.29,53.87,7.9,77,7.9,77s-48.47,24.63-106.08,6.5c-.68-.22-47.7-11-47.7-11,1-2.18,9.53-38.48,10.47-40.48,12.17-26.13,21.4-37.58,22.84-45.61,2.68-15,2.74-30.5,1.41-45.13a362.61,362.61,0,0,0-14-70.88c15.69-3.58,30.39-9.85,46.73-16,3.76,4.68,15.25,9.58,25.21,9.35,11.48-.25,15.2-5.16,14.6-10.52,12.23,6.8,22,13.23,22,13.23,10.39,18.05,31.47,35.58,33,63.28C677.12,919.51,660.35,981.39,660.34,982.9Z"/>
        <path class="cls-11" d="M726.07,902.87c-16.62-19.42-59.68-61.52-104.12-66.68l38.35,74.69s2.15,12.8,13.51,20.26C701.62,949.42,737,957.5,737,957.5s23.95-10.45,56.68-34.43c10.28-7.53,28.33-36.25,28.33-36.25l-4.87-16.3s-30.65,17.14-41.6,22.09c-6.24,2.81-20.61,9.54-30.73,14.29A15.79,15.79,0,0,1,726.07,902.87Z"/>
        <path class="cls-14" d="M629.2,822.24s-46.7.77-46.73-28.32-6.09-48.58,23.73-50.3,35.62,9.37,38,19.08S641.35,821.29,629.2,822.24Z"/>
        <path class="cls-15" d="M627.47,742.9S614.68,777,595.06,782.08s-28.14-.21-28.14-.21,8.56-13.63,11.69-34.5C578.61,747.37,617.82,726.66,627.47,742.9Z"/>
        <path class="cls-15" d="M624.3,745.67s9.55,7.62,11.88,15,3.37,22.66,7.82,22.14c0,0,9.63-23.2-1.19-36.32C631.33,732.61,624.3,745.67,624.3,745.67Z"/>
        <path class="cls-14" d="M817.12,870.52s6.59-23.72,32.67-20.37c3,.94,11.74,4.42,6.15,13.79-4.12,6.9-5.9,3.34-12.39,12.62S830,887.93,822,886.82Z"/>
        <path class="cls-14" d="M569.84,1480.9a51.79,51.79,0,0,1-2.43,22s-3.13,14.26,10.91,14.52,17.48-1.06,15.89-9.8-4.61-23.86-4.61-23.86Z"/>
        <path class="cls-16" d="M595.54,1523.54s-.3.18-.89.47H567.17a8.77,8.77,0,0,1-.77-.47c-1.59-7.15,1-20.61,1-20.61,15.9,14.57,25.85-.36,25.85-.36C595.84,1508.79,595.54,1523.54,595.54,1523.54Z"/>
        <path class="cls-14" d="M802.79,1509.08s-25.88-28.73-33.83-43.35l-19.25,9.86,43,40.4,10.07-1.32Z"/>
        <path class="cls-16" d="M818.85,1524H783.43c-3.41-2.55-6.6-8.45-10.56-16.37-2.1-4.23-6.85-6.55-11.72-7.83v23.92h-7.34l-7-25.43c-4.58-8.42-.36-16.06,2.87-22.71,3.74,0,13.83,2.56,32.95,24.1,6.29,7.08,13.23,9.61,20.12,9.39a1.91,1.91,0,0,0,.28.15C814.6,1514.41,817.9,1520.86,818.85,1524Z"/>
        <path class="cls-11" d="M621.75,836.19s27,66.75,27.82,80.25,3.18,220.91,3.18,220.91-1.59,9.54,16.68,5.56,23.05-7.94,23.05-7.94S675,1007,679.76,962.53s-36.55-117.07-36.55-117.07Z"/>
        <path class="cls-19" d="M744.5,1452.2l-20.24.62s-46.75-52-73-135.48c-.61-1.94-1.25-3.91-1.94-5.89-14.35-41.85-44.1-94.37-59.78-141.92-2.49-7.57-4.73-14.7-6.74-21.44-.65-2.16-1.28-4.29-1.87-6.38l16.67-12.65s50,81.06,65.55,157.33C676.64,1352.65,730.55,1432.37,744.5,1452.2Z"/>
        <path class="cls-13" d="M599.37,1293.5c.29,37.09-1.59,122.37-6.42,157.67H575c-9.91,0-14.85-.14-14.85-.14-12.12-61.38-20.74-112.18-27-155.94-5.15-35.92-9.72-66.71-13.24-93.22-3.55-26.68-6-49-6.89-67.89q-.21-4.45-.3-8.67t-.05-8.22l97.82-9.54C609.26,1172.54,599.21,1271.94,599.37,1293.5Z"/>
        <path class="cls-19" d="M575,1451.17c-9.91,0-14.85-.14-14.85-.14-12.12-61.38-20.74-112.18-27-155.94-5.15-35.92-9.72-66.71-13.24-93.22-3.55-26.68-6-49-6.89-67.89l35.89,21.11s-22.91,8.09-14.17,69.27S562.86,1442.51,575,1451.17Z"/>
        <path class="cls-11" d="M579.64,1133.38s-6.89,24.9-30.73,21.72-57.74-17.49-57.74-17.49,10.19-32.19,22.86-74.48c15.33-51.19,34.32-117.2,43.27-158.83a258.26,258.26,0,0,0,4.86-28.38l19.78-38.37s29.49,66.18,31.08,82.87S579.64,1133.38,579.64,1133.38Z"/>
        <path class="cls-14" d="M555.84,917.93l26.1-80.38c-.07,0-33,9.79-49.52,18.14,0,0-10.34,13.34-16.74,44.11,0,0-6.76,73.86,8.34,100.88,0,0,47.67,9.53,124-16.69V966.51s-83.44,4.37-100.52,6.35Z"/>
        <path class="cls-10" d="M578.58,955.38c-1.06,27-7.42,79.46-64.1,107.54l-.45.21c15.33-51.19,34.32-117.2,43.27-158.83C567.71,919.86,579.16,940.51,578.58,955.38Z"/>
        <path class="cls-11" d="M581.94,837.55s-48.39,3.41-60,29.36-15.37,112.31-.53,137.74c0,0,20.42,5.81,56.54-.94l1.33-.25s11.53-28.21,1.2-33.77c0,0-30.46,1.58-27.29-8.48S581.94,837.55,581.94,837.55Z"/>
        <path class="cls-14" d="M639.43,971.16s6.64-8.06,8.06-16.28,5.82-14.33,17.29-15.84,16.4-1.67,16.38,1.57-9.38,25.81-25.84,39.29S639.43,971.16,639.43,971.16Z"/>
      </g>
      <path class="cls-15" d="M833.33,874.42a2.2,2.2,0,0,0,1.15-.32l306-186.08a2.21,2.21,0,1,0-2.29-3.77l-306,186.08a2.21,2.21,0,0,0,1.14,4.09Z"/>
    </g>
    <g>
      <path class="cls-20" d="M2193.3,1092.82s-2.46,23.91-5.16,28.43-14.18,19-19.08,21.81,3-19,2-23.3-4,7.77-6.18,8-1.6-10.54-1.68-14.48,10.49-13.66,14.22-22S2193.3,1092.82,2193.3,1092.82Z"/>
      <path class="cls-20" d="M1899.55,872.3l-5.49-10.37s2.73-18.47-20.42-30.16c0,0-8.46-3.44-13.24,3.46-4.4,6.35,8.38,5.2,7.7,16.08s4.47,17.25,11.66,20.79l5.94,6.88Z"/>
      <path class="cls-16" d="M2118.33,847.52S2098.45,945.09,1989.05,977c-34.15,9.95-111.73-102.48-111.73-102.48s2.72-10.36,19.81-8c0,0,75.54,50,85,55.44,8.44,4.82,63.94-62,89.24-72.74S2118.33,847.52,2118.33,847.52Z"/>
      <g>
        <path class="cls-19" d="M2248.94,1460.89s13.57,12.39,10.92,21.19-14.9,14.67-16.55,25.42-8.27,16.62-14.23,16.62h-28.41s-4.39-7.56,6.21-9.85,14.58-14.92,13.92-26.65,1-27.38,1-27.38l22.51-5.21Z"/>
        <path class="cls-19" d="M2082.44,1492.93s2.43,28.18-3.53,31.12l-76.25-.16s0-8.8,12.25-10.76,33.76-9.12,37.4-25.09S2082.44,1492.93,2082.44,1492.93Z"/>
        <path class="cls-13" d="M2018.06,1094.76s4,49.41,8.75,108.8c6.42,80.68,14.15,179.78,14.91,198.56,1.32,32.59,6.63,84.74,6.63,84.74s12.57,12.39,37.73,7.17c0,0,22.43-74.44,28.83-153.2.1-1.29.2-2.6.3-3.9,6-80.18,15.22-249,15.22-249Z"/>
        <path class="cls-19" d="M2018.06,1094.76s4,49.41,8.75,108.8l88.1,137.27c.1-1.29.2-2.6.3-3.9,6-80.18,15.22-249,15.22-249Z"/>
        <path class="cls-13" d="M2036.42,1100.63s72.5,178.94,120.16,263,62.57,107.56,62.57,107.56,27.31-10.76,29.79-18.09c0,0-18.23-162.34-50.15-201.92-18-22.36-39.23-89.47-40.22-112.94s-6.45-69.91-6.45-69.91Z"/>
      </g>
      <path class="cls-20" d="M2131.8,824.87s-49,23.67-77.32,14.88a66.68,66.68,0,0,1,19.14-15.31c-1-5.68-1.74-10.6-2.18-14.78a137.25,137.25,0,0,1-1.19-15.1l18.92-14.88,17.95-14.24C2105.7,805.49,2131.8,824.87,2131.8,824.87Z"/>
      <path class="cls-21" d="M2157.65,1077.53c.11,3-6.31,6.42-9.13,7.71-21,9.21-40.57,15.63-62.76,17.77-26.21,2.68-57.2-3.21-67.86-3a4.43,4.43,0,0,1-2.94-1.17c-.76-.54-1.3-32.13-.76-71.86,0-1.61,0-3.21.11-4.82v-.53c.22-15.53.76-31.81,1.52-48.09,1.53-35.76,4.35-70.25,9.14-89.31,5.76-22.49,18.81-37.37,30.67-48.19l9.79-8.57a47,47,0,0,0,30.45-3.63c11.31-5.47,23.49-11.36,25.45-9.86,14.79,10.82,24.79,35.13,30.12,66.18a343.77,343.77,0,0,1,4.46,58.9c0,7.71-.22,15.64-.65,23.45-2.61,42.41,0,79.25,1.52,100.56C2157.22,1069.28,2157.54,1074.1,2157.65,1077.53Z"/>
      <path class="cls-16" d="M2156.78,1075.58c-171.76-.35-31.68-186.38-31.68-186.38l27.83-9a540.62,540.62,0,0,1,3.22,62.93c0,8.24-.15,16.7-.47,25.06C2153.8,1013.45,2155.68,1052.81,2156.78,1075.58Z"/>
      <path class="cls-22" d="M2107.44,780.75s-12.4,22.59-36,28.91a137.25,137.25,0,0,1-1.19-15.1l18.92-14.88Z"/>
      <path class="cls-20" d="M2061.62,793.91s46.79,7.65,51.18-21.11,13.39-47.15-16.3-53.25-37.18,4-41,13.26S2049.56,791.18,2061.62,793.91Z"/>
      <path class="cls-23" d="M2129.81,716.1c.42-.49,1.4-.88,3.58-1a8.84,8.84,0,0,0-4.07-1.15c-.45-3-2.07-8.39-7.29-9.7a6.54,6.54,0,0,1,3.17,4.72c-6-6.21-19-10.72-54.85-7.89-47.26,3.73-31.68,34-25.57,37.59s21.52-6.28,32.92-5.37,13.57,17.37,17.44,19.63,2.34-1.73,7.58-4.1,5.73,6.31,4.22,11.94,5.67,13.08,5.67,13.08l7.27-7.83c7.26-7.82,14.11-41,10.81-48Z"/>
      <path class="cls-21" d="M2121.31,813.74s29.6,14,43.8,35.58c22,33.43,47.54,155.27,48,166.55s-18.63,90.93-18.63,90.93-19.37-1.27-24.37-11c0,0,3.87-81.84,1.42-87.1s-80.76-109.78-71.95-132.09S2121.31,813.74,2121.31,813.74Z"/>
      <path class="cls-20" d="M1894,861.44s1.61-6.36-2.8-9.22-8.47-10.63-10.33-9.58c-3.85,2.19,2.11,9,1,17.43C1881.46,863,1888.36,870.8,1894,861.44Z"/>
    </g>
    <path class="cls-24" d="M157.4,1527.92H2842.6a2.41,2.41,0,0,0,2.4-2.4h0a2.41,2.41,0,0,0-2.4-2.4H157.4a2.41,2.41,0,0,0-2.4,2.4h0A2.41,2.41,0,0,0,157.4,1527.92Z"/>
  </g>
</svg>
