<svg id="Layer_1" data-name="Layer 1" xmlns="http://www.w3.org/2000/svg" width="3000" height="1443.33" viewBox="0 0 3000 1443.33">
  <defs>
    <style>
      .cls-1 {
        fill: #ebf2f9;
      }

      .cls-2, .cls-5 {
        fill: #d86713;
      }

      .cls-3 {
        fill: #ee9849;
      }

      .cls-4 {
        fill: #f1a34f;
      }

      .cls-5 {
        opacity: 0.4;
      }

      .cls-6 {
        fill: #e9f3fe;
      }

      .cls-7 {
        fill: #afcdfb;
      }

      .cls-8 {
        fill: #4a75cb;
      }

      .cls-9 {
        fill: #699dee;
      }

      .cls-10 {
        fill: #82b479;
      }

      .cls-11 {
        fill: #a8d29f;
      }

      .cls-12 {
        fill: #609154;
      }

      .cls-13 {
        fill: #e49963;
      }

      .cls-14 {
        fill: #1c468a;
      }

      .cls-15 {
        fill: #d68d5d;
      }

      .cls-16 {
        fill: #c65447;
      }

      .cls-17 {
        fill: #fff;
      }

      .cls-18 {
        fill: #aa413e;
      }

      .cls-19 {
        fill: #163560;
      }

      .cls-20 {
        fill: #283250;
      }

      .cls-21 {
        fill: #a52020;
      }
    </style>
  </defs>
  <g>
    <path class="cls-1" d="M561.68,1355.15s-296.87,54.52-391.37-151.74C47.7,935.82,299.59,732.92,492.78,770.73c421,82.37,319.59-826.36,995.17-640.9,190,52.15,703.23-257.64,846.38,239.08C2368.37,487,2489,500,2664,575c342.64,146.68,186,782.63-58.86,785.13S561.68,1355.15,561.68,1355.15Z"/>
    <g>
      <path class="cls-2" d="M1830.07,580.93l61.64,733s6.46,44.43-26.59,44.51c-54.34.13-270.47,0-270.47,0s40.9-9.25,40.4-30.06c-.58-24.53-72-754.37-72-754.37Z"/>
      <path class="cls-3" d="M1577.11,1345.12c10.69,0,217.12.68,270,0,23.06-.29,27.11-20.51,27.3-33.59a66.31,66.31,0,0,0-.7-10.91l-1.6-19-4.09-48.56-3.61-42.9-4.64-55.13-3.9-46.52-43.8-520.84L1545,560.69s30.1,305.44,51.39,527.77c2.38,24.77,4.64,48.52,6.73,70.69q1,10.62,2,20.74c2,21,3.78,40.35,5.35,57.41.83,9,1.59,17.34,2.28,25,2.72,30,4.31,49.13,4.33,52.77a31,31,0,0,1-.52,5.94C1612.18,1344.36,1581.13,1345.12,1577.11,1345.12Z"/>
      <polygon class="cls-4" points="1196.47 182.07 2478.64 182.07 2328.49 785.22 2307.93 867.82 2237.99 1148.75 938.69 1148.75 1196.47 182.07"/>
      <polygon class="cls-3" points="2478.65 182.07 2499.46 189 2265.66 1169.74 2237.99 1148.76 2478.65 182.07"/>
      <polygon class="cls-2" points="2265.66 1169.74 974.36 1169.74 938.7 1148.76 2237.99 1148.76 2265.66 1169.74"/>
      <rect class="cls-4" x="1532.61" y="1345.41" width="279.59" height="13.29"/>
      <polygon class="cls-2" points="1603.68 1169.73 1605.12 1179.89 1868.06 1233.01 1864.45 1190.11 1862.73 1169.73 1603.68 1169.73"/>
      <path class="cls-5" d="M1577.11,1345.12c10.69,0,217.12.68,270,0,23.06-.29,27.11-20.51,27.3-33.59l-261.7-49.24c2.72,30,4.31,49.13,4.33,52.77a31,31,0,0,1-.52,5.94C1612.18,1344.36,1581.13,1345.12,1577.11,1345.12Z"/>
      <polygon class="cls-5" points="1684.12 958.85 2237.99 1148.76 2285.29 958.73 1684.12 958.85"/>
      <polygon class="cls-4" points="1196.47 182.07 2478.65 182.07 2285.41 958.73 988.43 958.98 1196.47 182.07"/>
    </g>
    <path class="cls-2" d="M1553.9,1057.19c3.7-19,22.15-34.5,41.2-34.5s31.5,15.45,27.8,34.5-22.16,34.5-41.21,34.5S1550.19,1076.24,1553.9,1057.19Z"/>
    <polygon class="cls-6" points="1048.9 925.31 2249.41 925.31 2385.37 383.71 2395.79 342.18 2404.68 306.75 2425.53 223.68 1242.33 223.68 1219.43 306.75 1209.66 342.18 1198.22 383.71 1048.9 925.31"/>
    <polygon class="cls-7" points="1242.33 223.68 2425.53 223.68 2404.68 306.75 1219.43 306.75 1242.33 223.68"/>
    <g>
      <path class="cls-6" d="M2368.79,250.84c5.74,0,9.23,4.65,7.8,10.38s-7.24,10.39-13,10.39-9.22-4.65-7.79-10.39S2363.06,250.84,2368.79,250.84Z"/>
      <path class="cls-6" d="M2334.29,250.84c5.73,0,9.22,4.65,7.79,10.38s-7.23,10.39-13,10.39-9.22-4.65-7.8-10.39S2328.55,250.84,2334.29,250.84Z"/>
      <path class="cls-6" d="M2284.16,261.22c1.43-5.73,7.24-10.38,13-10.38s9.22,4.65,7.79,10.38-7.24,10.39-13,10.39S2282.73,267,2284.16,261.22Z"/>
    </g>
    <g>
      <rect class="cls-8" x="335.7" y="694.96" width="250.51" height="250.51" transform="translate(921.91 1640.43) rotate(180)"/>
      <rect class="cls-9" x="258.46" y="694.96" width="250.51" height="250.51" transform="translate(767.43 1640.43) rotate(180)"/>
    </g>
    <g>
      <rect class="cls-10" x="2179.03" y="1107.76" width="250.51" height="250.51" transform="translate(4608.56 2466.02) rotate(180)"/>
      <rect class="cls-11" x="2101.79" y="1107.76" width="250.51" height="250.51" transform="translate(4454.08 2466.02) rotate(180)"/>
    </g>
    <g>
      <g>
        <rect class="cls-10" x="294.88" y="945.47" width="414.8" height="414.8"/>
        <rect class="cls-11" x="422.78" y="945.47" width="414.8" height="414.8"/>
      </g>
      <polygon class="cls-12" points="422.77 945.47 294.88 1007.75 294.88 945.47 422.77 945.47"/>
    </g>
    <g>
      <g>
        <path class="cls-13" d="M789.43,1116a7.39,7.39,0,0,0-1.32,7.92,0,0,0,0,0,0,0c1.91,5.28,8.21,11.17,15.54,17,.94.76,1.77,1.45,2.5,2.08l.56.5.43.39c6.83,6.3,4.26,7.75,16.53,20.53,14,14.56,23.64,14.82,26.38,13.5,2.32-1.13-2.39-8.86-7.61-17.54-.26-.42-.5-.84-.76-1.27-.7-1.15-1.39-2.32-2.08-3.48-6.12-10.45-4.55-15.35-3.1-30.9,1.18-12.64,19.66-70.6,19.66-70.6l-26.82-4.62s-8.08,46.15-17,53.26c-4.76,3.79-10.09,3.84-14.66,6.65-.33.19-.64.39-1,.6A35.23,35.23,0,0,0,789.43,1116Z"/>
        <path class="cls-8" d="M789.43,1116a7.39,7.39,0,0,0-1.32,7.92,0,0,0,0,0,0,0c2.33,5.27,8.48,11.13,15.57,17,.92.77,1.74,1.47,2.47,2.13l.56.5.43.39c6.83,6.3,4.26,7.75,16.53,20.53,14,14.56,23.64,14.82,26.38,13.5,2.32-1.13-2.39-8.86-7.61-17.54a59.56,59.56,0,0,1-25-18.39c-8.43-10.75-14-24.57-19.79-32.57-.33.19-.64.39-1,.6A35.23,35.23,0,0,0,789.43,1116Z"/>
        <path class="cls-13" d="M1005.72,1099.26c1.66,8.28,13.46,6.9,26.65,3.68s10.05.61,28.82-1.47,24.45-9.08,25-11.87c.51-2.47-8.76-3.35-18.71-4.49l-3.76-.45c-11.23-1.41-19.45-8.66-29.65-14.61-9.67-5.63-24.09-28.6-24.09-28.6l-25.73,2s13.5,20.51,18.73,29.43c3.07,5.24,2.91,12.18,2.52,17.54A32.85,32.85,0,0,0,1005.72,1099.26Z"/>
        <path class="cls-8" d="M1032.37,1102.94c13.18-3.22,10.05.61,28.82-1.47s24.45-9.08,25-11.87c.51-2.47-8.76-3.35-18.71-4.49l-.09.19a52.86,52.86,0,0,1-26.88,8.35c-12.73.31-26.21-3.33-35-3.19a32.85,32.85,0,0,0,.2,8.8C1007.38,1107.54,1019.18,1106.16,1032.37,1102.94Z"/>
        <path class="cls-13" d="M948.45,721.25s6.14-15,12.88-15.64,28.21-4,29.74-.92,0,14.1-4.6,18.09-33.11,10.42-33.11,10.42Z"/>
        <path class="cls-8" d="M907.09,934.69,851.62,1084a50.92,50.92,0,0,1-16.69-1.53c-7.52-2.17-16.13-7.86-16.13-7.86s13.76-143.33,39-173.14S907.09,934.69,907.09,934.69Z"/>
        <path class="cls-9" d="M687.7,874.3s159.38-53.89,194.93-42.43,142.27,223.81,142.27,223.81-2.41,3.21-9,5.67c-6.12,2.3-20.92,2.15-20.92,2.15s-96.32-82.56-107.78-106.64-16.06-47-27.52-44.72-147.92,56.19-178.88,24.08S658,862.4,658,862.4Z"/>
        <path class="cls-14" d="M785.1,623.59c2.54-5.26,5.39-14.59,6.78-31.23-.21,1.65-3.08,22.64-11.15,34.52-33.15,21.76-96.68,94.42-95.42,108.19,0,0-22.38-38-22.77-38.18,0,0-41.28-52.49,7.65-82.56,24.86-15.29,24.74-34.9,23.7-51.94s6.78-90.38,56.59-71.19c0,0,8-3.55,11.58-3a9.79,9.79,0,0,0-4.42,2.1c5.78-.34,14,.08,20.92,4C796.83,504.66,813.17,597.75,785.1,623.59Z"/>
        <path class="cls-13" d="M778.77,628c.16.07-16,8.47-28.17,5.14-11.44-3.12-18.92-18-18.76-18,4.85-1,6.24-7.62,6.14-36.23l2.19.43,36.83,7.3s-.84,11.59-.86,22.51C776.11,618.28,776.67,627,778.77,628Z"/>
        <path class="cls-15" d="M777,586.61s-.84,11.59-.86,22.51c-20.61-.58-31.51-19.38-36-29.81Z"/>
        <path class="cls-14" d="M736.37,575.3s-10.8-17.06-13.39-31.65c-1.86-10.42,3.45-49,42.26-43.47a52.72,52.72,0,0,1,21.86,8.26c8.42,5.69,20.58,18,7,51.67l-3.53,11.39Z"/>
        <path class="cls-13" d="M783.88,597s-48.76.8-48.79-29.57-6.35-50.73,24.78-52.53,37.19,9.79,39.67,19.92S796.57,596,783.88,597Z"/>
        <path class="cls-14" d="M737.84,520.51s33.3-22.77,43.84-7c3.2-2.74,8.89-4.72,16.41,4.4,11.3,13.7,1.25,37.92,1.25,37.92-4.65.54-5.74-15.38-8.17-23.12-1.83-5.83-7.95-11.79-10.85-14.37-4.25,9.6-16,32.55-32.08,36.69-20.49,5.27-29.38-.22-29.38-.22A58,58,0,0,0,737.84,520.51Z"/>
        <path class="cls-16" d="M650.31,875.14c2.63,7.3,10.7,9.18,21.51,7.91,20.61-2.4,51.22-16.24,73.29-25.81,33.63-14.58,48.92-.88,59.62-10.16s-12.23-29.92,7.65-125.73c6.74-32.49-36-102.2-36-102.2s-3,18.89-44.59-4c-.21-.11-17.53,23-33,52.33-17.08,32.4-33.44,71.53-28.63,91.7C679.36,797.59,642.67,853.93,650.31,875.14Z"/>
        <path class="cls-16" d="M776.43,619.15,801.6,722.56s3.13,5.58,8,13.52c11.54,18.66,32.89,50.34,46.56,53.56,6.74,1.59,21.08-4,36.95-12,30-15.16,65.49-38.92,65.49-38.92,2.29-13.76-9.68-25-9.68-25s-71.86,27-79,27.52c-15.56,1.11-31.39-74-45.93-99C813.53,624.14,776.43,619.15,776.43,619.15Z"/>
        <path class="cls-17" d="M773,578.53s.91,3.86,10.51,3.27c0,0,8.06-.5,7.81-4.74C791.36,577.06,783.55,574,773,578.53Z"/>
        <path class="cls-18" d="M650.31,875.14c2.63,7.3,10.7,9.18,21.51,7.91,14.26-6.21,75.88-30.09,75.2-46.26-1-23.95-11.85-24.72-4.21-54.28C749,758.77,692,714.64,682.93,705c-17.08,32.4-17.55,33.93-12.74,54.1C679.36,797.59,642.67,853.93,650.31,875.14Z"/>
        <path class="cls-18" d="M809.65,736.08c11.54,18.66,32.89,50.34,46.56,53.56,6.74,1.59,21.08-4,36.95-12-11.58,3-22.83,2.91-33.77,1.85-11.85-1.14-15.29-15.67-34-37.46C813.23,727.87,810.25,731.42,809.65,736.08Z"/>
        <path class="cls-13" d="M752.56,781.94s10.32-8,20.07-6.12,14.52,8.6,14.14,11.66-5.54,11.66-13,12.42-28.66-4.58-28.66-4.58Z"/>
        <path class="cls-16" d="M731.84,615.11s-39.74,2.45-53.5,21.64c-19.37,27-65.85,147.16-43.83,162.52,24.8,17.29,120.92-.51,120.92-.51s2.93-13.7-1.15-20.33S684,761.11,680.89,758.05s38.22-59.63,38.22-68.81S731.84,615.11,731.84,615.11Z"/>
      </g>
      <g>
        <g>
          <polygon class="cls-14" points="762.93 835.93 909.32 835.93 935.71 743.9 789.55 743.9 762.93 835.93"/>
          <rect class="cls-19" x="717.44" y="832.34" width="191.37" height="3.59" transform="translate(1626.26 1668.27) rotate(180)"/>
        </g>
        <path class="cls-19" d="M862.83,788.42c.93-3.24-.94-5.86-4.17-5.86a8.39,8.39,0,0,0-7.54,5.86c-.93,3.23.94,5.86,4.18,5.86A8.39,8.39,0,0,0,862.83,788.42Z"/>
      </g>
    </g>
    <path class="cls-20" d="M185.2,1361H2814.8a2.34,2.34,0,0,0,2.34-2.34h0a2.35,2.35,0,0,0-2.34-2.35H185.2a2.35,2.35,0,0,0-2.34,2.35h0A2.34,2.34,0,0,0,185.2,1361Z"/>
    <g>
      <polygon class="cls-2" points="529.86 1356.35 348.5 1356.35 365.78 1133.86 500.5 1133.86 529.86 1356.35"/>
      <polygon class="cls-4" points="497.05 1356.35 315.69 1356.35 332.96 1133.86 479.77 1133.86 497.05 1356.35"/>
      <path class="cls-2" d="M407.45,1185.36A34.37,34.37,0,0,1,373.12,1151a4.32,4.32,0,1,1,8.63,0,25.7,25.7,0,0,0,51.39,0,4.32,4.32,0,1,1,8.63,0A34.36,34.36,0,0,1,407.45,1185.36Z"/>
    </g>
    <g>
      <polygon class="cls-8" points="2202.83 1356.35 2021.47 1356.35 2038.74 1133.86 2173.47 1133.86 2202.83 1356.35"/>
      <polygon class="cls-9" points="2170.01 1356.35 1988.65 1356.35 2005.92 1133.86 2152.74 1133.86 2170.01 1356.35"/>
      <path class="cls-14" d="M2080.41,1185.36a34.37,34.37,0,0,1-34.33-34.33,4.32,4.32,0,1,1,8.64,0,25.69,25.69,0,0,0,51.38,0,4.32,4.32,0,1,1,8.64,0A34.37,34.37,0,0,1,2080.41,1185.36Z"/>
    </g>
    <g>
      <polygon class="cls-18" points="2130.89 1107.76 2365.34 1107.76 2343.01 820.12 2168.84 820.12 2130.89 1107.76"/>
      <polygon class="cls-16" points="2173.31 1107.76 2407.77 1107.76 2371.14 820.12 2195.64 820.12 2173.31 1107.76"/>
      <path class="cls-21" d="M2289.15,885.43A43.16,43.16,0,0,1,2246,842.32a4.32,4.32,0,0,1,8.64,0,34.48,34.48,0,0,0,68.95,0,4.32,4.32,0,0,1,8.64,0A43.16,43.16,0,0,1,2289.15,885.43Z"/>
    </g>
    <g>
      <polygon class="cls-17" points="1449.49 888.9 1117.28 888.9 1266.69 349.4 1599.81 349.4 1449.49 888.9"/>
      <path class="cls-16" d="M1362.66,463.85s-2.43,12.33,6.31,21-32.41,43.67-48.14,102.13c-15.61,58-50.56,183.95-82.17,225.69,2.11-2.55,9.69-9.78,25.33-6,18.81,4.49,52.09,10.77,67-1,10.48-8.28,29.25.53,39.57,6.56-8-42.26,26.76-167.36,43.32-225.16,16.76-58.46-5-93.46,8.6-102.13a46.34,46.34,0,0,0,18-21c9.28-2.84,23.82-9.67,23.82-9.67C1468.41,442.5,1463,426,1463,426s-8.15,11.34-25.3,12-31.92,10.67-31.92,10.67-9.2-10-26-10.67-18.63-12-18.63-12-14.56,16.51-17,28.19C1344.21,454.18,1355,461,1362.66,463.85Z"/>
    </g>
    <g>
      <polygon class="cls-17" points="1656.01 768.57 1559.37 768.57 1602.83 611.63 1699.74 611.63 1656.01 768.57"/>
      <path class="cls-4" d="M1630.75,644.93a7.25,7.25,0,0,0,1.84,6.11c2.54,2.52-9.43,12.7-14,29.7s-14.7,53.52-23.9,65.66c.61-.74,2.82-2.85,7.37-1.76,5.47,1.31,15.15,3.13,19.5-.31,3-2.4,8.51.16,11.51,1.91-2.33-12.29,7.79-48.68,12.61-65.5,4.87-17-1.44-27.18,2.5-29.7a13.56,13.56,0,0,0,5.23-6.11,69.06,69.06,0,0,0,6.93-2.82c1.18-3.39-.39-8.2-.39-8.2a9.76,9.76,0,0,1-7.36,3.5,20,20,0,0,0-9.28,3.1,11.37,11.37,0,0,0-7.56-3.1c-4.88-.2-5.42-3.5-5.42-3.5s-4.24,4.81-4.94,8.2A36.63,36.63,0,0,0,1630.75,644.93Z"/>
    </g>
    <g>
      <polygon class="cls-17" points="1800.52 768.63 1703.88 768.63 1747.35 611.69 1844.25 611.69 1800.52 768.63"/>
      <path class="cls-11" d="M1775.26,645a7.29,7.29,0,0,0,1.84,6.11c2.54,2.52-9.43,12.7-14,29.71s-14.7,53.51-23.9,65.65c.62-.74,2.82-2.85,7.37-1.76,5.47,1.31,15.15,3.14,19.51-.3,3-2.41,8.5.15,11.51,1.91-2.34-12.3,7.78-48.69,12.6-65.5,4.87-17-1.44-27.19,2.5-29.71a13.5,13.5,0,0,0,5.23-6.11,69.06,69.06,0,0,0,6.93-2.82c1.19-3.39-.38-8.19-.38-8.19a9.76,9.76,0,0,1-7.36,3.49,20.11,20.11,0,0,0-9.29,3.1,11.34,11.34,0,0,0-7.56-3.1c-4.88-.19-5.42-3.49-5.42-3.49s-4.23,4.8-4.93,8.19A36.3,36.3,0,0,0,1775.26,645Z"/>
    </g>
    <g>
      <polygon class="cls-17" points="1948.49 772.66 1851.85 772.66 1895.31 615.72 1992.22 615.72 1948.49 772.66"/>
      <path class="cls-4" d="M1923.23,649a7.25,7.25,0,0,0,1.84,6.11c2.54,2.52-9.43,12.7-14,29.71s-14.71,53.51-23.9,65.65c.61-.74,2.82-2.85,7.37-1.76,5.47,1.31,15.15,3.14,19.5-.3,3-2.41,8.51.15,11.51,1.91-2.33-12.3,7.79-48.69,12.61-65.5,4.87-17-1.45-27.19,2.5-29.71a13.5,13.5,0,0,0,5.23-6.11,70,70,0,0,0,6.93-2.81c1.18-3.4-.39-8.2-.39-8.2a9.76,9.76,0,0,1-7.36,3.49,20,20,0,0,0-9.28,3.1,11.37,11.37,0,0,0-7.56-3.1c-4.88-.19-5.42-3.49-5.42-3.49s-4.24,4.8-4.94,8.2A37,37,0,0,0,1923.23,649Z"/>
    </g>
    <path class="cls-16" d="M1886.69,553.75H1657.78A25.72,25.72,0,0,1,1633.05,521h0a25.72,25.72,0,0,1,24.73-18.66h228.91a25.72,25.72,0,0,1,24.74,32.77h0A25.73,25.73,0,0,1,1886.69,553.75Z"/>
    <polygon class="cls-7" points="2250.26 384.86 1661.94 384.86 1670.55 356.36 2258.86 356.36 2250.26 384.86"/>
    <polygon class="cls-7" points="2234.9 433.22 1646.59 433.22 1655.2 404.72 2243.51 404.72 2234.9 433.22"/>
  </g>
</svg>
